M48
; DRILL file {KiCad (5.1.5)-3} date 11/01/20 21:02:50
; FORMAT={-:-/ absolute / metric / decimal}
; #@! TF.CreationDate,2020-11-01T21:02:50+09:00
; #@! TF.GenerationSoftware,Kicad,Pcbnew,(5.1.5)-3
; #@! TF.FileFunction,Plated,1,2,PTH
FMAT,2
METRIC
T1C0.400
T2C0.700
T3C0.762
T4C0.813
T5C1.000
T6C1.300
T7C1.499
T8C2.000
%
G90
G05
T1
X29.35Y-41.01
X29.35Y-44.01
X29.35Y-47.01
X29.35Y-50.01
X31.35Y-136.01
X31.35Y-140.01
X31.35Y-144.01
X32.35Y-44.01
X32.35Y-47.01
X32.35Y-96.01
X32.35Y-119.01
X33.35Y-79.01
X35.35Y-44.01
X36.35Y-140.01
X36.35Y-144.01
X37.35Y-28.01
X39.35Y-60.01
X40.35Y-140.01
X40.35Y-144.01
X42.74Y-36.41
X49.35Y-119.01
X50.35Y-61.01
X50.35Y-80.01
X50.35Y-100.01
X62.35Y-31.01
X62.35Y-34.01
X62.35Y-141.01
X62.35Y-146.01
X66.35Y-31.01
X66.35Y-34.01
X67.35Y-42.01
X67.35Y-46.01
X67.35Y-152.01
X68.35Y-53.01
X68.35Y-62.01
X68.35Y-141.01
X68.35Y-146.01
X69.35Y-80.01
X69.35Y-99.01
X69.35Y-119.01
X70.35Y-31.01
X70.35Y-34.01
X71.35Y-152.01
X72.35Y-42.01
X72.35Y-46.01
X72.35Y-53.01
X74.35Y-31.01
X74.35Y-34.01
X75.35Y-152.01
X76.35Y-53.01
X77.35Y-42.01
X77.35Y-46.01
X78.35Y-31.01
X78.35Y-34.01
X79.35Y-152.01
X80.35Y-53.01
X80.65Y-39.66
X82.35Y-31.01
X82.35Y-34.01
X82.35Y-42.01
X82.35Y-46.01
X84.35Y-53.01
X84.35Y-57.01
X86.35Y-31.01
X86.35Y-34.01
X87.35Y-42.01
X87.462Y-118.986
X88.35Y-53.01
X88.35Y-57.01
X88.35Y-80.01
X88.35Y-99.01
X89.672Y-139.179
X91.35Y-112.01
X91.35Y-150.01
X92.35Y-49.01
X92.35Y-53.01
X92.35Y-57.01
X95.35Y-146.01
X95.35Y-150.01
X96.35Y-106.01
X97.35Y-80.01
X97.826Y-142.202
X98.35Y-41.01
X98.35Y-53.01
X99.35Y-112.01
X99.35Y-117.01
X100.35Y-146.01
X100.35Y-150.01
X103.32Y-31.96
X103.35Y-43.01
X103.35Y-52.01
X104.35Y-112.01
X104.35Y-150.01
X104.379Y-116.98
X106.995Y-136.614
X107.35Y-91.01
X107.351Y-97.422
X109.941Y-112.027
X110.35Y-118.01
X110.35Y-123.01
T2
X108.421Y-59.939
X109.921Y-59.939
T3
X40.78Y-26.212
X56.02Y-26.212
T4
X40.789Y-28.752
X40.789Y-31.292
X40.789Y-33.832
X40.789Y-36.372
X40.789Y-38.912
X40.789Y-41.452
X40.789Y-43.992
X40.789Y-46.532
X40.789Y-49.072
X40.789Y-51.612
X40.789Y-54.152
X40.789Y-56.692
X56.009Y-28.752
X56.009Y-31.292
X56.009Y-33.832
X56.009Y-36.372
X56.009Y-38.912
X56.009Y-41.452
X56.009Y-43.992
X56.009Y-46.532
X56.009Y-49.072
X56.009Y-51.612
X56.009Y-54.152
X56.009Y-56.692
T5
X95.5Y-30.33
X95.5Y-44.83
X98.0Y-30.33
X100.5Y-30.33
X100.5Y-44.83
T6
X108.08Y-48.23
X108.08Y-54.73
T7
X75.14Y-82.84
X81.49Y-80.3
X75.14Y-101.89
X81.49Y-99.35
X56.09Y-101.89
X62.44Y-99.35
X75.14Y-139.99
X81.49Y-137.45
X75.14Y-120.94
X81.49Y-118.4
X56.09Y-82.84
X62.44Y-80.3
X75.14Y-63.79
X81.49Y-61.25
X94.19Y-63.79
X100.54Y-61.25
X46.56Y-139.99
X52.91Y-137.45
X37.04Y-82.84
X43.39Y-80.3
X37.04Y-120.94
X43.39Y-118.4
X56.09Y-120.94
X62.44Y-118.4
X56.09Y-63.79
X62.44Y-61.25
X92.92Y-92.36
X95.46Y-98.71
X92.92Y-130.47
X95.46Y-136.82
X37.04Y-101.89
X43.39Y-99.35
X37.04Y-63.79
X43.39Y-61.25
T5
G00X33.14Y-28.48
M15
G01X33.14Y-27.98
M16
G05
G00X33.14Y-31.48
M15
G01X33.14Y-30.98
M16
G05
G00X33.14Y-35.48
M15
G01X33.14Y-34.98
M16
G05
G00X37.34Y-36.98
M15
G01X37.34Y-36.48
M16
G05
T8
G00X92.4Y-37.88
M15
G01X92.4Y-37.78
M16
G05
G00X103.6Y-37.88
M15
G01X103.6Y-37.78
M16
G05
T0
M30
