G04 #@! TF.GenerationSoftware,KiCad,Pcbnew,(5.1.5)-3*
G04 #@! TF.CreationDate,2020-11-01T21:01:57+09:00*
G04 #@! TF.ProjectId,Pistachio_MacroPad,50697374-6163-4686-996f-5f4d6163726f,rev?*
G04 #@! TF.SameCoordinates,Original*
G04 #@! TF.FileFunction,Soldermask,Bot*
G04 #@! TF.FilePolarity,Negative*
%FSLAX46Y46*%
G04 Gerber Fmt 4.6, Leading zero omitted, Abs format (unit mm)*
G04 Created by KiCad (PCBNEW (5.1.5)-3) date 2020-11-01 21:01:57*
%MOMM*%
%LPD*%
G04 APERTURE LIST*
%ADD10C,0.100000*%
G04 APERTURE END LIST*
D10*
G36*
X88300000Y-154035000D02*
G01*
X87300000Y-154035000D01*
X87300000Y-152635000D01*
X88300000Y-152635000D01*
X88300000Y-154035000D01*
G37*
G36*
X54065000Y-154020000D02*
G01*
X52665000Y-154020000D01*
X52665000Y-153020000D01*
X54065000Y-153020000D01*
X54065000Y-154020000D01*
G37*
G36*
X50515000Y-154020000D02*
G01*
X49115000Y-154020000D01*
X49115000Y-153020000D01*
X50515000Y-153020000D01*
X50515000Y-154020000D01*
G37*
G36*
X62866474Y-148818684D02*
G01*
X63084474Y-148908983D01*
X63238623Y-148972833D01*
X63573548Y-149196623D01*
X63858377Y-149481452D01*
X64082167Y-149816377D01*
X64082167Y-149816378D01*
X64236316Y-150188526D01*
X64314900Y-150583594D01*
X64314900Y-150986406D01*
X64236316Y-151381474D01*
X64146017Y-151599474D01*
X64082167Y-151753623D01*
X63858377Y-152088548D01*
X63573548Y-152373377D01*
X63238623Y-152597167D01*
X63084474Y-152661017D01*
X62866474Y-152751316D01*
X62471406Y-152829900D01*
X62068594Y-152829900D01*
X61673526Y-152751316D01*
X61455526Y-152661017D01*
X61301377Y-152597167D01*
X60966452Y-152373377D01*
X60681623Y-152088548D01*
X60457833Y-151753623D01*
X60393983Y-151599474D01*
X60303684Y-151381474D01*
X60225100Y-150986406D01*
X60225100Y-150583594D01*
X60303684Y-150188526D01*
X60457833Y-149816378D01*
X60457833Y-149816377D01*
X60681623Y-149481452D01*
X60966452Y-149196623D01*
X61301377Y-148972833D01*
X61455526Y-148908983D01*
X61673526Y-148818684D01*
X62068594Y-148740100D01*
X62471406Y-148740100D01*
X62866474Y-148818684D01*
G37*
G36*
X39066474Y-148818684D02*
G01*
X39284474Y-148908983D01*
X39438623Y-148972833D01*
X39773548Y-149196623D01*
X40058377Y-149481452D01*
X40282167Y-149816377D01*
X40282167Y-149816378D01*
X40436316Y-150188526D01*
X40514900Y-150583594D01*
X40514900Y-150986406D01*
X40436316Y-151381474D01*
X40346017Y-151599474D01*
X40282167Y-151753623D01*
X40058377Y-152088548D01*
X39773548Y-152373377D01*
X39438623Y-152597167D01*
X39284474Y-152661017D01*
X39066474Y-152751316D01*
X38671406Y-152829900D01*
X38268594Y-152829900D01*
X37873526Y-152751316D01*
X37655526Y-152661017D01*
X37501377Y-152597167D01*
X37166452Y-152373377D01*
X36881623Y-152088548D01*
X36657833Y-151753623D01*
X36593983Y-151599474D01*
X36503684Y-151381474D01*
X36425100Y-150986406D01*
X36425100Y-150583594D01*
X36503684Y-150188526D01*
X36657833Y-149816378D01*
X36657833Y-149816377D01*
X36881623Y-149481452D01*
X37166452Y-149196623D01*
X37501377Y-148972833D01*
X37655526Y-148908983D01*
X37873526Y-148818684D01*
X38268594Y-148740100D01*
X38671406Y-148740100D01*
X39066474Y-148818684D01*
G37*
G36*
X88300000Y-150485000D02*
G01*
X87300000Y-150485000D01*
X87300000Y-149085000D01*
X88300000Y-149085000D01*
X88300000Y-150485000D01*
G37*
G36*
X48132585Y-146088802D02*
G01*
X48282410Y-146118604D01*
X48564674Y-146235521D01*
X48818705Y-146405259D01*
X49034741Y-146621295D01*
X49204479Y-146875326D01*
X49321396Y-147157590D01*
X49381000Y-147457240D01*
X49381000Y-147762760D01*
X49321396Y-148062410D01*
X49204479Y-148344674D01*
X49034741Y-148598705D01*
X48818705Y-148814741D01*
X48564674Y-148984479D01*
X48282410Y-149101396D01*
X48132585Y-149131198D01*
X47982761Y-149161000D01*
X47677239Y-149161000D01*
X47527415Y-149131198D01*
X47377590Y-149101396D01*
X47095326Y-148984479D01*
X46841295Y-148814741D01*
X46625259Y-148598705D01*
X46455521Y-148344674D01*
X46338604Y-148062410D01*
X46279000Y-147762760D01*
X46279000Y-147457240D01*
X46338604Y-147157590D01*
X46455521Y-146875326D01*
X46625259Y-146621295D01*
X46841295Y-146405259D01*
X47095326Y-146235521D01*
X47377590Y-146118604D01*
X47527415Y-146088802D01*
X47677239Y-146059000D01*
X47982761Y-146059000D01*
X48132585Y-146088802D01*
G37*
G36*
X76712585Y-146088802D02*
G01*
X76862410Y-146118604D01*
X77144674Y-146235521D01*
X77398705Y-146405259D01*
X77614741Y-146621295D01*
X77784479Y-146875326D01*
X77901396Y-147157590D01*
X77961000Y-147457240D01*
X77961000Y-147762760D01*
X77901396Y-148062410D01*
X77784479Y-148344674D01*
X77614741Y-148598705D01*
X77398705Y-148814741D01*
X77144674Y-148984479D01*
X76862410Y-149101396D01*
X76712585Y-149131198D01*
X76562761Y-149161000D01*
X76257239Y-149161000D01*
X76107415Y-149131198D01*
X75957590Y-149101396D01*
X75675326Y-148984479D01*
X75421295Y-148814741D01*
X75205259Y-148598705D01*
X75035521Y-148344674D01*
X74918604Y-148062410D01*
X74859000Y-147762760D01*
X74859000Y-147457240D01*
X74918604Y-147157590D01*
X75035521Y-146875326D01*
X75205259Y-146621295D01*
X75421295Y-146405259D01*
X75675326Y-146235521D01*
X75957590Y-146118604D01*
X76107415Y-146088802D01*
X76257239Y-146059000D01*
X76562761Y-146059000D01*
X76712585Y-146088802D01*
G37*
G36*
X73986000Y-148911000D02*
G01*
X71334000Y-148911000D01*
X71334000Y-146309000D01*
X73986000Y-146309000D01*
X73986000Y-148911000D01*
G37*
G36*
X45406000Y-148911000D02*
G01*
X42754000Y-148911000D01*
X42754000Y-146309000D01*
X45406000Y-146309000D01*
X45406000Y-148911000D01*
G37*
G36*
X106851474Y-142953684D02*
G01*
X107069474Y-143043983D01*
X107223623Y-143107833D01*
X107558548Y-143331623D01*
X107843377Y-143616452D01*
X108067167Y-143951377D01*
X108120981Y-144081296D01*
X108221316Y-144323526D01*
X108299900Y-144718594D01*
X108299900Y-145121406D01*
X108221316Y-145516474D01*
X108218857Y-145522410D01*
X108067167Y-145888623D01*
X107843377Y-146223548D01*
X107558548Y-146508377D01*
X107223623Y-146732167D01*
X107069474Y-146796017D01*
X106851474Y-146886316D01*
X106456406Y-146964900D01*
X106053594Y-146964900D01*
X105658526Y-146886316D01*
X105440526Y-146796017D01*
X105286377Y-146732167D01*
X104951452Y-146508377D01*
X104666623Y-146223548D01*
X104442833Y-145888623D01*
X104291143Y-145522410D01*
X104288684Y-145516474D01*
X104210100Y-145121406D01*
X104210100Y-144718594D01*
X104288684Y-144323526D01*
X104389019Y-144081296D01*
X104442833Y-143951377D01*
X104666623Y-143616452D01*
X104951452Y-143331623D01*
X105286377Y-143107833D01*
X105440526Y-143043983D01*
X105658526Y-142953684D01*
X106053594Y-142875100D01*
X106456406Y-142875100D01*
X106851474Y-142953684D01*
G37*
G36*
X54359164Y-143524252D02*
G01*
X54632410Y-143578604D01*
X54914674Y-143695521D01*
X55168705Y-143865259D01*
X55384741Y-144081295D01*
X55554479Y-144335326D01*
X55671396Y-144617590D01*
X55731000Y-144917240D01*
X55731000Y-145222760D01*
X55671396Y-145522410D01*
X55554479Y-145804674D01*
X55384741Y-146058705D01*
X55168705Y-146274741D01*
X54914674Y-146444479D01*
X54632410Y-146561396D01*
X54482585Y-146591198D01*
X54332761Y-146621000D01*
X54027239Y-146621000D01*
X53877415Y-146591198D01*
X53727590Y-146561396D01*
X53445326Y-146444479D01*
X53191295Y-146274741D01*
X52975259Y-146058705D01*
X52805521Y-145804674D01*
X52688604Y-145522410D01*
X52629000Y-145222760D01*
X52629000Y-144917240D01*
X52688604Y-144617590D01*
X52805521Y-144335326D01*
X52975259Y-144081295D01*
X53191295Y-143865259D01*
X53445326Y-143695521D01*
X53727590Y-143578604D01*
X54000836Y-143524252D01*
X54027239Y-143519000D01*
X54332761Y-143519000D01*
X54359164Y-143524252D01*
G37*
G36*
X82939164Y-143524252D02*
G01*
X83212410Y-143578604D01*
X83494674Y-143695521D01*
X83748705Y-143865259D01*
X83964741Y-144081295D01*
X84134479Y-144335326D01*
X84251396Y-144617590D01*
X84311000Y-144917240D01*
X84311000Y-145222760D01*
X84251396Y-145522410D01*
X84134479Y-145804674D01*
X83964741Y-146058705D01*
X83748705Y-146274741D01*
X83494674Y-146444479D01*
X83212410Y-146561396D01*
X83062585Y-146591198D01*
X82912761Y-146621000D01*
X82607239Y-146621000D01*
X82457415Y-146591198D01*
X82307590Y-146561396D01*
X82025326Y-146444479D01*
X81771295Y-146274741D01*
X81555259Y-146058705D01*
X81385521Y-145804674D01*
X81268604Y-145522410D01*
X81209000Y-145222760D01*
X81209000Y-144917240D01*
X81268604Y-144617590D01*
X81385521Y-144335326D01*
X81555259Y-144081295D01*
X81771295Y-143865259D01*
X82025326Y-143695521D01*
X82307590Y-143578604D01*
X82580836Y-143524252D01*
X82607239Y-143519000D01*
X82912761Y-143519000D01*
X82939164Y-143524252D01*
G37*
G36*
X91474411Y-143405526D02*
G01*
X91538083Y-143431900D01*
X91761041Y-143524252D01*
X91761042Y-143524253D01*
X92019004Y-143696617D01*
X92238383Y-143915996D01*
X92262024Y-143951378D01*
X92410748Y-144173959D01*
X92529474Y-144460590D01*
X92590000Y-144764875D01*
X92590000Y-145075125D01*
X92529474Y-145379410D01*
X92410748Y-145666041D01*
X92410747Y-145666042D01*
X92238383Y-145924004D01*
X92019004Y-146143383D01*
X91899028Y-146223548D01*
X91761041Y-146315748D01*
X91627650Y-146371000D01*
X91474411Y-146434474D01*
X91170125Y-146495000D01*
X90859875Y-146495000D01*
X90555589Y-146434474D01*
X90402350Y-146371000D01*
X90268959Y-146315748D01*
X90130972Y-146223548D01*
X90010996Y-146143383D01*
X89791617Y-145924004D01*
X89619253Y-145666042D01*
X89619252Y-145666041D01*
X89500526Y-145379410D01*
X89440000Y-145075125D01*
X89440000Y-144764875D01*
X89500526Y-144460590D01*
X89619252Y-144173959D01*
X89767976Y-143951378D01*
X89791617Y-143915996D01*
X90010996Y-143696617D01*
X90268958Y-143524253D01*
X90268959Y-143524252D01*
X90491917Y-143431900D01*
X90555589Y-143405526D01*
X90859875Y-143345000D01*
X91170125Y-143345000D01*
X91474411Y-143405526D01*
G37*
G36*
X59256000Y-146371000D02*
G01*
X56604000Y-146371000D01*
X56604000Y-143769000D01*
X59256000Y-143769000D01*
X59256000Y-146371000D01*
G37*
G36*
X87836000Y-146371000D02*
G01*
X85184000Y-146371000D01*
X85184000Y-143769000D01*
X87836000Y-143769000D01*
X87836000Y-146371000D01*
G37*
G36*
X79546474Y-140563684D02*
G01*
X79764474Y-140653983D01*
X79918623Y-140717833D01*
X80253548Y-140941623D01*
X80538377Y-141226452D01*
X80762167Y-141561377D01*
X80826017Y-141715526D01*
X80916316Y-141933526D01*
X80994900Y-142328594D01*
X80994900Y-142731406D01*
X80916316Y-143126474D01*
X80832322Y-143329253D01*
X80762167Y-143498623D01*
X80538377Y-143833548D01*
X80253548Y-144118377D01*
X79918623Y-144342167D01*
X79764474Y-144406017D01*
X79546474Y-144496316D01*
X79151406Y-144574900D01*
X78748594Y-144574900D01*
X78353526Y-144496316D01*
X78135526Y-144406017D01*
X77981377Y-144342167D01*
X77646452Y-144118377D01*
X77361623Y-143833548D01*
X77137833Y-143498623D01*
X77067678Y-143329253D01*
X76983684Y-143126474D01*
X76905100Y-142731406D01*
X76905100Y-142328594D01*
X76983684Y-141933526D01*
X77073983Y-141715526D01*
X77137833Y-141561377D01*
X77361623Y-141226452D01*
X77646452Y-140941623D01*
X77981377Y-140717833D01*
X78135526Y-140653983D01*
X78353526Y-140563684D01*
X78748594Y-140485100D01*
X79151406Y-140485100D01*
X79546474Y-140563684D01*
G37*
G36*
X50966474Y-140563684D02*
G01*
X51184474Y-140653983D01*
X51338623Y-140717833D01*
X51673548Y-140941623D01*
X51958377Y-141226452D01*
X52182167Y-141561377D01*
X52246017Y-141715526D01*
X52336316Y-141933526D01*
X52414900Y-142328594D01*
X52414900Y-142731406D01*
X52336316Y-143126474D01*
X52252322Y-143329253D01*
X52182167Y-143498623D01*
X51958377Y-143833548D01*
X51673548Y-144118377D01*
X51338623Y-144342167D01*
X51184474Y-144406017D01*
X50966474Y-144496316D01*
X50571406Y-144574900D01*
X50168594Y-144574900D01*
X49773526Y-144496316D01*
X49555526Y-144406017D01*
X49401377Y-144342167D01*
X49066452Y-144118377D01*
X48781623Y-143833548D01*
X48557833Y-143498623D01*
X48487678Y-143329253D01*
X48403684Y-143126474D01*
X48325100Y-142731406D01*
X48325100Y-142328594D01*
X48403684Y-141933526D01*
X48493983Y-141715526D01*
X48557833Y-141561377D01*
X48781623Y-141226452D01*
X49066452Y-140941623D01*
X49401377Y-140717833D01*
X49555526Y-140653983D01*
X49773526Y-140563684D01*
X50168594Y-140485100D01*
X50571406Y-140485100D01*
X50966474Y-140563684D01*
G37*
G36*
X74045952Y-141645429D02*
G01*
X74133075Y-141662759D01*
X74242498Y-141708084D01*
X74297211Y-141730747D01*
X74443933Y-141828783D01*
X74444928Y-141829448D01*
X74570552Y-141955072D01*
X74570554Y-141955075D01*
X74669253Y-142102789D01*
X74669253Y-142102790D01*
X74737241Y-142266925D01*
X74771900Y-142441171D01*
X74771900Y-142618829D01*
X74737241Y-142793075D01*
X74691916Y-142902498D01*
X74669253Y-142957211D01*
X74571217Y-143103933D01*
X74570552Y-143104928D01*
X74444928Y-143230552D01*
X74444925Y-143230554D01*
X74297211Y-143329253D01*
X74259194Y-143345000D01*
X74133075Y-143397241D01*
X74045952Y-143414570D01*
X73958831Y-143431900D01*
X73781169Y-143431900D01*
X73694048Y-143414570D01*
X73606925Y-143397241D01*
X73480806Y-143345000D01*
X73442789Y-143329253D01*
X73295075Y-143230554D01*
X73295072Y-143230552D01*
X73169448Y-143104928D01*
X73168783Y-143103933D01*
X73070747Y-142957211D01*
X73048084Y-142902498D01*
X73002759Y-142793075D01*
X72968100Y-142618829D01*
X72968100Y-142441171D01*
X73002759Y-142266925D01*
X73070747Y-142102790D01*
X73070747Y-142102789D01*
X73169446Y-141955075D01*
X73169448Y-141955072D01*
X73295072Y-141829448D01*
X73296067Y-141828783D01*
X73442789Y-141730747D01*
X73497502Y-141708084D01*
X73606925Y-141662759D01*
X73694048Y-141645429D01*
X73781169Y-141628100D01*
X73958831Y-141628100D01*
X74045952Y-141645429D01*
G37*
G36*
X45465952Y-141645429D02*
G01*
X45553075Y-141662759D01*
X45662498Y-141708084D01*
X45717211Y-141730747D01*
X45863933Y-141828783D01*
X45864928Y-141829448D01*
X45990552Y-141955072D01*
X45990554Y-141955075D01*
X46089253Y-142102789D01*
X46089253Y-142102790D01*
X46157241Y-142266925D01*
X46191900Y-142441171D01*
X46191900Y-142618829D01*
X46157241Y-142793075D01*
X46111916Y-142902498D01*
X46089253Y-142957211D01*
X45991217Y-143103933D01*
X45990552Y-143104928D01*
X45864928Y-143230552D01*
X45864925Y-143230554D01*
X45717211Y-143329253D01*
X45679194Y-143345000D01*
X45553075Y-143397241D01*
X45465952Y-143414570D01*
X45378831Y-143431900D01*
X45201169Y-143431900D01*
X45114048Y-143414570D01*
X45026925Y-143397241D01*
X44900806Y-143345000D01*
X44862789Y-143329253D01*
X44715075Y-143230554D01*
X44715072Y-143230552D01*
X44589448Y-143104928D01*
X44588783Y-143103933D01*
X44490747Y-142957211D01*
X44468084Y-142902498D01*
X44422759Y-142793075D01*
X44388100Y-142618829D01*
X44388100Y-142441171D01*
X44422759Y-142266925D01*
X44490747Y-142102790D01*
X44490747Y-142102789D01*
X44589446Y-141955075D01*
X44589448Y-141955072D01*
X44715072Y-141829448D01*
X44716067Y-141828783D01*
X44862789Y-141730747D01*
X44917502Y-141708084D01*
X45026925Y-141662759D01*
X45114048Y-141645429D01*
X45201169Y-141628100D01*
X45378831Y-141628100D01*
X45465952Y-141645429D01*
G37*
G36*
X55625952Y-141645429D02*
G01*
X55713075Y-141662759D01*
X55822498Y-141708084D01*
X55877211Y-141730747D01*
X56023933Y-141828783D01*
X56024928Y-141829448D01*
X56150552Y-141955072D01*
X56150554Y-141955075D01*
X56249253Y-142102789D01*
X56249253Y-142102790D01*
X56317241Y-142266925D01*
X56351900Y-142441171D01*
X56351900Y-142618829D01*
X56317241Y-142793075D01*
X56271916Y-142902498D01*
X56249253Y-142957211D01*
X56151217Y-143103933D01*
X56150552Y-143104928D01*
X56024928Y-143230552D01*
X56024925Y-143230554D01*
X55877211Y-143329253D01*
X55839194Y-143345000D01*
X55713075Y-143397241D01*
X55625952Y-143414570D01*
X55538831Y-143431900D01*
X55361169Y-143431900D01*
X55274048Y-143414570D01*
X55186925Y-143397241D01*
X55060806Y-143345000D01*
X55022789Y-143329253D01*
X54875075Y-143230554D01*
X54875072Y-143230552D01*
X54749448Y-143104928D01*
X54748783Y-143103933D01*
X54650747Y-142957211D01*
X54628084Y-142902498D01*
X54582759Y-142793075D01*
X54548100Y-142618829D01*
X54548100Y-142441171D01*
X54582759Y-142266925D01*
X54650747Y-142102790D01*
X54650747Y-142102789D01*
X54749446Y-141955075D01*
X54749448Y-141955072D01*
X54875072Y-141829448D01*
X54876067Y-141828783D01*
X55022789Y-141730747D01*
X55077502Y-141708084D01*
X55186925Y-141662759D01*
X55274048Y-141645429D01*
X55361169Y-141628100D01*
X55538831Y-141628100D01*
X55625952Y-141645429D01*
G37*
G36*
X84205952Y-141645429D02*
G01*
X84293075Y-141662759D01*
X84402498Y-141708084D01*
X84457211Y-141730747D01*
X84603933Y-141828783D01*
X84604928Y-141829448D01*
X84730552Y-141955072D01*
X84730554Y-141955075D01*
X84829253Y-142102789D01*
X84829253Y-142102790D01*
X84897241Y-142266925D01*
X84931900Y-142441171D01*
X84931900Y-142618829D01*
X84897241Y-142793075D01*
X84851916Y-142902498D01*
X84829253Y-142957211D01*
X84731217Y-143103933D01*
X84730552Y-143104928D01*
X84604928Y-143230552D01*
X84604925Y-143230554D01*
X84457211Y-143329253D01*
X84419194Y-143345000D01*
X84293075Y-143397241D01*
X84205952Y-143414570D01*
X84118831Y-143431900D01*
X83941169Y-143431900D01*
X83854048Y-143414570D01*
X83766925Y-143397241D01*
X83640806Y-143345000D01*
X83602789Y-143329253D01*
X83455075Y-143230554D01*
X83455072Y-143230552D01*
X83329448Y-143104928D01*
X83328783Y-143103933D01*
X83230747Y-142957211D01*
X83208084Y-142902498D01*
X83162759Y-142793075D01*
X83128100Y-142618829D01*
X83128100Y-142441171D01*
X83162759Y-142266925D01*
X83230747Y-142102790D01*
X83230747Y-142102789D01*
X83329446Y-141955075D01*
X83329448Y-141955072D01*
X83455072Y-141829448D01*
X83456067Y-141828783D01*
X83602789Y-141730747D01*
X83657502Y-141708084D01*
X83766925Y-141662759D01*
X83854048Y-141645429D01*
X83941169Y-141628100D01*
X84118831Y-141628100D01*
X84205952Y-141645429D01*
G37*
G36*
X75488276Y-138841884D02*
G01*
X75705569Y-138931890D01*
X75705571Y-138931891D01*
X75795380Y-138991900D01*
X75901130Y-139062560D01*
X76067440Y-139228870D01*
X76198110Y-139424431D01*
X76288116Y-139641724D01*
X76334000Y-139872400D01*
X76334000Y-140107600D01*
X76288116Y-140338276D01*
X76227299Y-140485100D01*
X76198109Y-140555571D01*
X76067440Y-140751130D01*
X75901130Y-140917440D01*
X75705571Y-141048109D01*
X75705570Y-141048110D01*
X75705569Y-141048110D01*
X75488276Y-141138116D01*
X75257600Y-141184000D01*
X75022400Y-141184000D01*
X74791724Y-141138116D01*
X74574431Y-141048110D01*
X74574430Y-141048110D01*
X74574429Y-141048109D01*
X74378870Y-140917440D01*
X74212560Y-140751130D01*
X74081891Y-140555571D01*
X74052701Y-140485100D01*
X73991884Y-140338276D01*
X73946000Y-140107600D01*
X73946000Y-139872400D01*
X73991884Y-139641724D01*
X74081890Y-139424431D01*
X74212560Y-139228870D01*
X74378870Y-139062560D01*
X74484620Y-138991900D01*
X74574429Y-138931891D01*
X74574431Y-138931890D01*
X74791724Y-138841884D01*
X75022400Y-138796000D01*
X75257600Y-138796000D01*
X75488276Y-138841884D01*
G37*
G36*
X46908276Y-138841884D02*
G01*
X47125569Y-138931890D01*
X47125571Y-138931891D01*
X47215380Y-138991900D01*
X47321130Y-139062560D01*
X47487440Y-139228870D01*
X47618110Y-139424431D01*
X47708116Y-139641724D01*
X47754000Y-139872400D01*
X47754000Y-140107600D01*
X47708116Y-140338276D01*
X47647299Y-140485100D01*
X47618109Y-140555571D01*
X47487440Y-140751130D01*
X47321130Y-140917440D01*
X47125571Y-141048109D01*
X47125570Y-141048110D01*
X47125569Y-141048110D01*
X46908276Y-141138116D01*
X46677600Y-141184000D01*
X46442400Y-141184000D01*
X46211724Y-141138116D01*
X45994431Y-141048110D01*
X45994430Y-141048110D01*
X45994429Y-141048109D01*
X45798870Y-140917440D01*
X45632560Y-140751130D01*
X45501891Y-140555571D01*
X45472701Y-140485100D01*
X45411884Y-140338276D01*
X45366000Y-140107600D01*
X45366000Y-139872400D01*
X45411884Y-139641724D01*
X45501890Y-139424431D01*
X45632560Y-139228870D01*
X45798870Y-139062560D01*
X45904620Y-138991900D01*
X45994429Y-138931891D01*
X45994431Y-138931890D01*
X46211724Y-138841884D01*
X46442400Y-138796000D01*
X46677600Y-138796000D01*
X46908276Y-138841884D01*
G37*
G36*
X104381000Y-140626000D02*
G01*
X101779000Y-140626000D01*
X101779000Y-137974000D01*
X104381000Y-137974000D01*
X104381000Y-140626000D01*
G37*
G36*
X98175952Y-137205429D02*
G01*
X98263075Y-137222759D01*
X98372498Y-137268084D01*
X98427211Y-137290747D01*
X98569123Y-137385569D01*
X98574928Y-137389448D01*
X98700552Y-137515072D01*
X98700554Y-137515075D01*
X98799253Y-137662789D01*
X98799253Y-137662790D01*
X98867241Y-137826925D01*
X98867241Y-137826927D01*
X98896496Y-137974000D01*
X98901900Y-138001171D01*
X98901900Y-138178829D01*
X98867241Y-138353075D01*
X98821916Y-138462498D01*
X98799253Y-138517211D01*
X98701217Y-138663933D01*
X98700552Y-138664928D01*
X98574928Y-138790552D01*
X98574925Y-138790554D01*
X98427211Y-138889253D01*
X98372498Y-138911916D01*
X98263075Y-138957241D01*
X98175952Y-138974570D01*
X98088831Y-138991900D01*
X97911169Y-138991900D01*
X97824048Y-138974570D01*
X97736925Y-138957241D01*
X97627502Y-138911916D01*
X97572789Y-138889253D01*
X97425075Y-138790554D01*
X97425072Y-138790552D01*
X97299448Y-138664928D01*
X97298783Y-138663933D01*
X97200747Y-138517211D01*
X97178084Y-138462498D01*
X97132759Y-138353075D01*
X97098100Y-138178829D01*
X97098100Y-138001171D01*
X97103505Y-137974000D01*
X97132759Y-137826927D01*
X97132759Y-137826925D01*
X97200747Y-137662790D01*
X97200747Y-137662789D01*
X97299446Y-137515075D01*
X97299448Y-137515072D01*
X97425072Y-137389448D01*
X97430877Y-137385569D01*
X97572789Y-137290747D01*
X97627502Y-137268084D01*
X97736925Y-137222759D01*
X97824048Y-137205429D01*
X97911169Y-137188100D01*
X98088831Y-137188100D01*
X98175952Y-137205429D01*
G37*
G36*
X81838276Y-136301884D02*
G01*
X82055569Y-136391890D01*
X82055571Y-136391891D01*
X82251130Y-136522560D01*
X82417440Y-136688870D01*
X82426481Y-136702400D01*
X82548110Y-136884431D01*
X82638116Y-137101724D01*
X82684000Y-137332400D01*
X82684000Y-137567600D01*
X82638116Y-137798276D01*
X82554074Y-138001171D01*
X82548109Y-138015571D01*
X82417440Y-138211130D01*
X82251130Y-138377440D01*
X82055571Y-138508109D01*
X82055570Y-138508110D01*
X82055569Y-138508110D01*
X81838276Y-138598116D01*
X81607600Y-138644000D01*
X81372400Y-138644000D01*
X81141724Y-138598116D01*
X80924431Y-138508110D01*
X80924430Y-138508110D01*
X80924429Y-138508109D01*
X80728870Y-138377440D01*
X80562560Y-138211130D01*
X80431891Y-138015571D01*
X80425926Y-138001171D01*
X80341884Y-137798276D01*
X80296000Y-137567600D01*
X80296000Y-137332400D01*
X80341884Y-137101724D01*
X80431890Y-136884431D01*
X80553520Y-136702400D01*
X80562560Y-136688870D01*
X80728870Y-136522560D01*
X80924429Y-136391891D01*
X80924431Y-136391890D01*
X81141724Y-136301884D01*
X81372400Y-136256000D01*
X81607600Y-136256000D01*
X81838276Y-136301884D01*
G37*
G36*
X53258276Y-136301884D02*
G01*
X53475569Y-136391890D01*
X53475571Y-136391891D01*
X53671130Y-136522560D01*
X53837440Y-136688870D01*
X53846481Y-136702400D01*
X53968110Y-136884431D01*
X54058116Y-137101724D01*
X54104000Y-137332400D01*
X54104000Y-137567600D01*
X54058116Y-137798276D01*
X53974074Y-138001171D01*
X53968109Y-138015571D01*
X53837440Y-138211130D01*
X53671130Y-138377440D01*
X53475571Y-138508109D01*
X53475570Y-138508110D01*
X53475569Y-138508110D01*
X53258276Y-138598116D01*
X53027600Y-138644000D01*
X52792400Y-138644000D01*
X52561724Y-138598116D01*
X52344431Y-138508110D01*
X52344430Y-138508110D01*
X52344429Y-138508109D01*
X52148870Y-138377440D01*
X51982560Y-138211130D01*
X51851891Y-138015571D01*
X51845926Y-138001171D01*
X51761884Y-137798276D01*
X51716000Y-137567600D01*
X51716000Y-137332400D01*
X51761884Y-137101724D01*
X51851890Y-136884431D01*
X51973520Y-136702400D01*
X51982560Y-136688870D01*
X52148870Y-136522560D01*
X52344429Y-136391891D01*
X52344431Y-136391890D01*
X52561724Y-136301884D01*
X52792400Y-136256000D01*
X53027600Y-136256000D01*
X53258276Y-136301884D01*
G37*
G36*
X95808276Y-135671884D02*
G01*
X96025569Y-135761890D01*
X96025571Y-135761891D01*
X96221130Y-135892560D01*
X96387440Y-136058870D01*
X96518110Y-136254431D01*
X96608116Y-136471724D01*
X96654000Y-136702400D01*
X96654000Y-136937600D01*
X96608116Y-137168276D01*
X96540133Y-137332400D01*
X96518109Y-137385571D01*
X96387440Y-137581130D01*
X96221130Y-137747440D01*
X96025571Y-137878109D01*
X96025570Y-137878110D01*
X96025569Y-137878110D01*
X95808276Y-137968116D01*
X95577600Y-138014000D01*
X95342400Y-138014000D01*
X95111724Y-137968116D01*
X94894431Y-137878110D01*
X94894430Y-137878110D01*
X94894429Y-137878109D01*
X94698870Y-137747440D01*
X94532560Y-137581130D01*
X94401891Y-137385571D01*
X94379867Y-137332400D01*
X94311884Y-137168276D01*
X94266000Y-136937600D01*
X94266000Y-136702400D01*
X94311884Y-136471724D01*
X94401890Y-136254431D01*
X94532560Y-136058870D01*
X94698870Y-135892560D01*
X94894429Y-135761891D01*
X94894431Y-135761890D01*
X95111724Y-135671884D01*
X95342400Y-135626000D01*
X95577600Y-135626000D01*
X95808276Y-135671884D01*
G37*
G36*
X62570918Y-133999000D02*
G01*
X62729411Y-134030526D01*
X62797197Y-134058604D01*
X63016041Y-134149252D01*
X63016042Y-134149253D01*
X63274004Y-134321617D01*
X63493383Y-134540996D01*
X63536149Y-134605000D01*
X63665748Y-134798959D01*
X63784474Y-135085590D01*
X63845000Y-135389875D01*
X63845000Y-135700125D01*
X63784474Y-136004410D01*
X63665748Y-136291041D01*
X63665747Y-136291042D01*
X63493383Y-136549004D01*
X63274004Y-136768383D01*
X63101639Y-136883553D01*
X63016041Y-136940748D01*
X62848137Y-137010296D01*
X62729411Y-137059474D01*
X62577267Y-137089737D01*
X62425125Y-137120000D01*
X62114875Y-137120000D01*
X61962733Y-137089737D01*
X61810589Y-137059474D01*
X61691863Y-137010296D01*
X61523959Y-136940748D01*
X61438361Y-136883553D01*
X61265996Y-136768383D01*
X61046617Y-136549004D01*
X60874253Y-136291042D01*
X60874252Y-136291041D01*
X60755526Y-136004410D01*
X60695000Y-135700125D01*
X60695000Y-135389875D01*
X60755526Y-135085590D01*
X60874252Y-134798959D01*
X61003851Y-134605000D01*
X61046617Y-134540996D01*
X61265996Y-134321617D01*
X61523958Y-134149253D01*
X61523959Y-134149252D01*
X61742803Y-134058604D01*
X61810589Y-134030526D01*
X61969082Y-133999000D01*
X62114875Y-133970000D01*
X62425125Y-133970000D01*
X62570918Y-133999000D01*
G37*
G36*
X38770918Y-133999000D02*
G01*
X38929411Y-134030526D01*
X38997197Y-134058604D01*
X39216041Y-134149252D01*
X39216042Y-134149253D01*
X39474004Y-134321617D01*
X39693383Y-134540996D01*
X39736149Y-134605000D01*
X39865748Y-134798959D01*
X39984474Y-135085590D01*
X40045000Y-135389875D01*
X40045000Y-135700125D01*
X39984474Y-136004410D01*
X39865748Y-136291041D01*
X39865747Y-136291042D01*
X39693383Y-136549004D01*
X39474004Y-136768383D01*
X39301639Y-136883553D01*
X39216041Y-136940748D01*
X39048137Y-137010296D01*
X38929411Y-137059474D01*
X38777267Y-137089737D01*
X38625125Y-137120000D01*
X38314875Y-137120000D01*
X38162733Y-137089737D01*
X38010589Y-137059474D01*
X37891863Y-137010296D01*
X37723959Y-136940748D01*
X37638361Y-136883553D01*
X37465996Y-136768383D01*
X37246617Y-136549004D01*
X37074253Y-136291042D01*
X37074252Y-136291041D01*
X36955526Y-136004410D01*
X36895000Y-135700125D01*
X36895000Y-135389875D01*
X36955526Y-135085590D01*
X37074252Y-134798959D01*
X37203851Y-134605000D01*
X37246617Y-134540996D01*
X37465996Y-134321617D01*
X37723958Y-134149253D01*
X37723959Y-134149252D01*
X37942803Y-134058604D01*
X38010589Y-134030526D01*
X38169082Y-133999000D01*
X38314875Y-133970000D01*
X38625125Y-133970000D01*
X38770918Y-133999000D01*
G37*
G36*
X103382585Y-134028802D02*
G01*
X103532410Y-134058604D01*
X103814674Y-134175521D01*
X104068705Y-134345259D01*
X104284741Y-134561295D01*
X104454479Y-134815326D01*
X104553713Y-135054900D01*
X104571396Y-135097591D01*
X104614642Y-135315000D01*
X104631000Y-135397240D01*
X104631000Y-135702760D01*
X104571396Y-136002410D01*
X104454479Y-136284674D01*
X104284741Y-136538705D01*
X104068705Y-136754741D01*
X103814674Y-136924479D01*
X103532410Y-137041396D01*
X103382585Y-137071198D01*
X103232761Y-137101000D01*
X102927239Y-137101000D01*
X102777415Y-137071198D01*
X102627590Y-137041396D01*
X102345326Y-136924479D01*
X102091295Y-136754741D01*
X101875259Y-136538705D01*
X101705521Y-136284674D01*
X101588604Y-136002410D01*
X101529000Y-135702760D01*
X101529000Y-135397240D01*
X101545359Y-135315000D01*
X101588604Y-135097591D01*
X101606287Y-135054900D01*
X101705521Y-134815326D01*
X101875259Y-134561295D01*
X102091295Y-134345259D01*
X102345326Y-134175521D01*
X102627590Y-134058604D01*
X102777415Y-134028802D01*
X102927239Y-133999000D01*
X103232761Y-133999000D01*
X103382585Y-134028802D01*
G37*
G36*
X110470000Y-136715000D02*
G01*
X109470000Y-136715000D01*
X109470000Y-135315000D01*
X110470000Y-135315000D01*
X110470000Y-136715000D01*
G37*
G36*
X98596474Y-131043684D02*
G01*
X98814474Y-131133983D01*
X98968623Y-131197833D01*
X99303548Y-131421623D01*
X99588377Y-131706452D01*
X99812167Y-132041377D01*
X99812167Y-132041378D01*
X99966316Y-132413526D01*
X100044900Y-132808594D01*
X100044900Y-133211406D01*
X99966316Y-133606474D01*
X99876017Y-133824474D01*
X99812167Y-133978623D01*
X99588377Y-134313548D01*
X99303548Y-134598377D01*
X98968623Y-134822167D01*
X98814474Y-134886017D01*
X98596474Y-134976316D01*
X98201406Y-135054900D01*
X97798594Y-135054900D01*
X97403526Y-134976316D01*
X97185526Y-134886017D01*
X97031377Y-134822167D01*
X96696452Y-134598377D01*
X96411623Y-134313548D01*
X96187833Y-133978623D01*
X96123983Y-133824474D01*
X96033684Y-133606474D01*
X95955100Y-133211406D01*
X95955100Y-132808594D01*
X96033684Y-132413526D01*
X96187833Y-132041378D01*
X96187833Y-132041377D01*
X96411623Y-131706452D01*
X96696452Y-131421623D01*
X97031377Y-131197833D01*
X97185526Y-131133983D01*
X97403526Y-131043684D01*
X97798594Y-130965100D01*
X98201406Y-130965100D01*
X98596474Y-131043684D01*
G37*
G36*
X50300000Y-134665000D02*
G01*
X49300000Y-134665000D01*
X49300000Y-133265000D01*
X50300000Y-133265000D01*
X50300000Y-134665000D01*
G37*
G36*
X88700000Y-134635000D02*
G01*
X87700000Y-134635000D01*
X87700000Y-133235000D01*
X88700000Y-133235000D01*
X88700000Y-134635000D01*
G37*
G36*
X69670000Y-134605000D02*
G01*
X68670000Y-134605000D01*
X68670000Y-133205000D01*
X69670000Y-133205000D01*
X69670000Y-134605000D01*
G37*
G36*
X110470000Y-133165000D02*
G01*
X109470000Y-133165000D01*
X109470000Y-131765000D01*
X110470000Y-131765000D01*
X110470000Y-133165000D01*
G37*
G36*
X93268276Y-129321884D02*
G01*
X93485569Y-129411890D01*
X93485571Y-129411891D01*
X93681130Y-129542560D01*
X93847440Y-129708870D01*
X93949091Y-129861000D01*
X93978110Y-129904431D01*
X94068116Y-130121724D01*
X94114000Y-130352400D01*
X94114000Y-130587600D01*
X94068116Y-130818276D01*
X94007299Y-130965100D01*
X93978109Y-131035571D01*
X93847440Y-131231130D01*
X93681130Y-131397440D01*
X93485571Y-131528109D01*
X93485570Y-131528110D01*
X93485569Y-131528110D01*
X93268276Y-131618116D01*
X93037600Y-131664000D01*
X92802400Y-131664000D01*
X92571724Y-131618116D01*
X92354431Y-131528110D01*
X92354430Y-131528110D01*
X92354429Y-131528109D01*
X92158870Y-131397440D01*
X91992560Y-131231130D01*
X91861891Y-131035571D01*
X91832701Y-130965100D01*
X91771884Y-130818276D01*
X91726000Y-130587600D01*
X91726000Y-130352400D01*
X91771884Y-130121724D01*
X91861890Y-129904431D01*
X91890910Y-129861000D01*
X91992560Y-129708870D01*
X92158870Y-129542560D01*
X92354429Y-129411891D01*
X92354431Y-129411890D01*
X92571724Y-129321884D01*
X92802400Y-129276000D01*
X93037600Y-129276000D01*
X93268276Y-129321884D01*
G37*
G36*
X50300000Y-131115000D02*
G01*
X49300000Y-131115000D01*
X49300000Y-129715000D01*
X50300000Y-129715000D01*
X50300000Y-131115000D01*
G37*
G36*
X88700000Y-131085000D02*
G01*
X87700000Y-131085000D01*
X87700000Y-129685000D01*
X88700000Y-129685000D01*
X88700000Y-131085000D01*
G37*
G36*
X69670000Y-131055000D02*
G01*
X68670000Y-131055000D01*
X68670000Y-129655000D01*
X69670000Y-129655000D01*
X69670000Y-131055000D01*
G37*
G36*
X100842585Y-127678802D02*
G01*
X100992410Y-127708604D01*
X101274674Y-127825521D01*
X101528705Y-127995259D01*
X101744741Y-128211295D01*
X101914479Y-128465326D01*
X102031396Y-128747590D01*
X102091000Y-129047240D01*
X102091000Y-129352760D01*
X102031396Y-129652410D01*
X101914479Y-129934674D01*
X101744741Y-130188705D01*
X101528705Y-130404741D01*
X101274674Y-130574479D01*
X100992410Y-130691396D01*
X100842585Y-130721198D01*
X100692761Y-130751000D01*
X100387239Y-130751000D01*
X100237415Y-130721198D01*
X100087590Y-130691396D01*
X99805326Y-130574479D01*
X99551295Y-130404741D01*
X99335259Y-130188705D01*
X99165521Y-129934674D01*
X99048604Y-129652410D01*
X98989000Y-129352760D01*
X98989000Y-129047240D01*
X99048604Y-128747590D01*
X99165521Y-128465326D01*
X99335259Y-128211295D01*
X99551295Y-127995259D01*
X99805326Y-127825521D01*
X100087590Y-127708604D01*
X100237415Y-127678802D01*
X100387239Y-127649000D01*
X100692761Y-127649000D01*
X100842585Y-127678802D01*
G37*
G36*
X38612585Y-127038802D02*
G01*
X38762410Y-127068604D01*
X39044674Y-127185521D01*
X39298705Y-127355259D01*
X39514741Y-127571295D01*
X39684479Y-127825326D01*
X39801396Y-128107590D01*
X39801396Y-128107591D01*
X39861000Y-128407239D01*
X39861000Y-128712761D01*
X39854072Y-128747590D01*
X39801396Y-129012410D01*
X39684479Y-129294674D01*
X39514741Y-129548705D01*
X39298705Y-129764741D01*
X39044674Y-129934479D01*
X38762410Y-130051396D01*
X38612585Y-130081198D01*
X38462761Y-130111000D01*
X38157239Y-130111000D01*
X38007415Y-130081198D01*
X37857590Y-130051396D01*
X37575326Y-129934479D01*
X37321295Y-129764741D01*
X37105259Y-129548705D01*
X36935521Y-129294674D01*
X36818604Y-129012410D01*
X36765928Y-128747590D01*
X36759000Y-128712761D01*
X36759000Y-128407239D01*
X36818604Y-128107591D01*
X36818604Y-128107590D01*
X36935521Y-127825326D01*
X37105259Y-127571295D01*
X37321295Y-127355259D01*
X37575326Y-127185521D01*
X37857590Y-127068604D01*
X38007415Y-127038802D01*
X38157239Y-127009000D01*
X38462761Y-127009000D01*
X38612585Y-127038802D01*
G37*
G36*
X57662585Y-127038802D02*
G01*
X57812410Y-127068604D01*
X58094674Y-127185521D01*
X58348705Y-127355259D01*
X58564741Y-127571295D01*
X58734479Y-127825326D01*
X58851396Y-128107590D01*
X58851396Y-128107591D01*
X58911000Y-128407239D01*
X58911000Y-128712761D01*
X58904072Y-128747590D01*
X58851396Y-129012410D01*
X58734479Y-129294674D01*
X58564741Y-129548705D01*
X58348705Y-129764741D01*
X58094674Y-129934479D01*
X57812410Y-130051396D01*
X57662585Y-130081198D01*
X57512761Y-130111000D01*
X57207239Y-130111000D01*
X57057415Y-130081198D01*
X56907590Y-130051396D01*
X56625326Y-129934479D01*
X56371295Y-129764741D01*
X56155259Y-129548705D01*
X55985521Y-129294674D01*
X55868604Y-129012410D01*
X55815928Y-128747590D01*
X55809000Y-128712761D01*
X55809000Y-128407239D01*
X55868604Y-128107591D01*
X55868604Y-128107590D01*
X55985521Y-127825326D01*
X56155259Y-127571295D01*
X56371295Y-127355259D01*
X56625326Y-127185521D01*
X56907590Y-127068604D01*
X57057415Y-127038802D01*
X57207239Y-127009000D01*
X57512761Y-127009000D01*
X57662585Y-127038802D01*
G37*
G36*
X76712585Y-127038802D02*
G01*
X76862410Y-127068604D01*
X77144674Y-127185521D01*
X77398705Y-127355259D01*
X77614741Y-127571295D01*
X77784479Y-127825326D01*
X77901396Y-128107590D01*
X77901396Y-128107591D01*
X77961000Y-128407239D01*
X77961000Y-128712761D01*
X77954072Y-128747590D01*
X77901396Y-129012410D01*
X77784479Y-129294674D01*
X77614741Y-129548705D01*
X77398705Y-129764741D01*
X77144674Y-129934479D01*
X76862410Y-130051396D01*
X76712585Y-130081198D01*
X76562761Y-130111000D01*
X76257239Y-130111000D01*
X76107415Y-130081198D01*
X75957590Y-130051396D01*
X75675326Y-129934479D01*
X75421295Y-129764741D01*
X75205259Y-129548705D01*
X75035521Y-129294674D01*
X74918604Y-129012410D01*
X74865928Y-128747590D01*
X74859000Y-128712761D01*
X74859000Y-128407239D01*
X74918604Y-128107591D01*
X74918604Y-128107590D01*
X75035521Y-127825326D01*
X75205259Y-127571295D01*
X75421295Y-127355259D01*
X75675326Y-127185521D01*
X75957590Y-127068604D01*
X76107415Y-127038802D01*
X76257239Y-127009000D01*
X76562761Y-127009000D01*
X76712585Y-127038802D01*
G37*
G36*
X73986000Y-129861000D02*
G01*
X71334000Y-129861000D01*
X71334000Y-127259000D01*
X73986000Y-127259000D01*
X73986000Y-129861000D01*
G37*
G36*
X54936000Y-129861000D02*
G01*
X52284000Y-129861000D01*
X52284000Y-127259000D01*
X54936000Y-127259000D01*
X54936000Y-129861000D01*
G37*
G36*
X35886000Y-129861000D02*
G01*
X33234000Y-129861000D01*
X33234000Y-127259000D01*
X35886000Y-127259000D01*
X35886000Y-129861000D01*
G37*
G36*
X98175952Y-127045430D02*
G01*
X98263075Y-127062759D01*
X98372498Y-127108084D01*
X98427211Y-127130747D01*
X98509186Y-127185521D01*
X98574928Y-127229448D01*
X98700552Y-127355072D01*
X98700554Y-127355075D01*
X98799253Y-127502789D01*
X98799253Y-127502790D01*
X98867241Y-127666925D01*
X98867241Y-127666927D01*
X98898749Y-127825326D01*
X98901900Y-127841171D01*
X98901900Y-128018829D01*
X98867241Y-128193075D01*
X98859693Y-128211296D01*
X98799253Y-128357211D01*
X98727013Y-128465326D01*
X98700552Y-128504928D01*
X98574928Y-128630552D01*
X98574925Y-128630554D01*
X98427211Y-128729253D01*
X98382941Y-128747590D01*
X98263075Y-128797241D01*
X98175952Y-128814571D01*
X98088831Y-128831900D01*
X97911169Y-128831900D01*
X97824048Y-128814571D01*
X97736925Y-128797241D01*
X97617059Y-128747590D01*
X97572789Y-128729253D01*
X97425075Y-128630554D01*
X97425072Y-128630552D01*
X97299448Y-128504928D01*
X97272987Y-128465326D01*
X97200747Y-128357211D01*
X97140307Y-128211296D01*
X97132759Y-128193075D01*
X97098100Y-128018829D01*
X97098100Y-127841171D01*
X97101252Y-127825326D01*
X97132759Y-127666927D01*
X97132759Y-127666925D01*
X97200747Y-127502790D01*
X97200747Y-127502789D01*
X97299446Y-127355075D01*
X97299448Y-127355072D01*
X97425072Y-127229448D01*
X97490814Y-127185521D01*
X97572789Y-127130747D01*
X97627502Y-127108084D01*
X97736925Y-127062759D01*
X97824048Y-127045430D01*
X97911169Y-127028100D01*
X98088831Y-127028100D01*
X98175952Y-127045430D01*
G37*
G36*
X44962585Y-124498802D02*
G01*
X45112410Y-124528604D01*
X45394674Y-124645521D01*
X45648705Y-124815259D01*
X45864741Y-125031295D01*
X46034479Y-125285326D01*
X46151396Y-125567590D01*
X46211000Y-125867240D01*
X46211000Y-126172760D01*
X46151396Y-126472410D01*
X46034479Y-126754674D01*
X45864741Y-127008705D01*
X45648705Y-127224741D01*
X45394674Y-127394479D01*
X45112410Y-127511396D01*
X44962585Y-127541198D01*
X44812761Y-127571000D01*
X44507239Y-127571000D01*
X44357415Y-127541198D01*
X44207590Y-127511396D01*
X43925326Y-127394479D01*
X43671295Y-127224741D01*
X43455259Y-127008705D01*
X43285521Y-126754674D01*
X43168604Y-126472410D01*
X43109000Y-126172760D01*
X43109000Y-125867240D01*
X43168604Y-125567590D01*
X43285521Y-125285326D01*
X43455259Y-125031295D01*
X43671295Y-124815259D01*
X43925326Y-124645521D01*
X44207590Y-124528604D01*
X44357415Y-124498802D01*
X44507239Y-124469000D01*
X44812761Y-124469000D01*
X44962585Y-124498802D01*
G37*
G36*
X64012585Y-124498802D02*
G01*
X64162410Y-124528604D01*
X64444674Y-124645521D01*
X64698705Y-124815259D01*
X64914741Y-125031295D01*
X65084479Y-125285326D01*
X65201396Y-125567590D01*
X65261000Y-125867240D01*
X65261000Y-126172760D01*
X65201396Y-126472410D01*
X65084479Y-126754674D01*
X64914741Y-127008705D01*
X64698705Y-127224741D01*
X64444674Y-127394479D01*
X64162410Y-127511396D01*
X64012585Y-127541198D01*
X63862761Y-127571000D01*
X63557239Y-127571000D01*
X63407415Y-127541198D01*
X63257590Y-127511396D01*
X62975326Y-127394479D01*
X62721295Y-127224741D01*
X62505259Y-127008705D01*
X62335521Y-126754674D01*
X62218604Y-126472410D01*
X62159000Y-126172760D01*
X62159000Y-125867240D01*
X62218604Y-125567590D01*
X62335521Y-125285326D01*
X62505259Y-125031295D01*
X62721295Y-124815259D01*
X62975326Y-124645521D01*
X63257590Y-124528604D01*
X63407415Y-124498802D01*
X63557239Y-124469000D01*
X63862761Y-124469000D01*
X64012585Y-124498802D01*
G37*
G36*
X83062585Y-124498802D02*
G01*
X83212410Y-124528604D01*
X83494674Y-124645521D01*
X83748705Y-124815259D01*
X83964741Y-125031295D01*
X84134479Y-125285326D01*
X84251396Y-125567590D01*
X84311000Y-125867240D01*
X84311000Y-126172760D01*
X84251396Y-126472410D01*
X84134479Y-126754674D01*
X83964741Y-127008705D01*
X83748705Y-127224741D01*
X83494674Y-127394479D01*
X83212410Y-127511396D01*
X83062585Y-127541198D01*
X82912761Y-127571000D01*
X82607239Y-127571000D01*
X82457415Y-127541198D01*
X82307590Y-127511396D01*
X82025326Y-127394479D01*
X81771295Y-127224741D01*
X81555259Y-127008705D01*
X81385521Y-126754674D01*
X81268604Y-126472410D01*
X81209000Y-126172760D01*
X81209000Y-125867240D01*
X81268604Y-125567590D01*
X81385521Y-125285326D01*
X81555259Y-125031295D01*
X81771295Y-124815259D01*
X82025326Y-124645521D01*
X82307590Y-124528604D01*
X82457415Y-124498802D01*
X82607239Y-124469000D01*
X82912761Y-124469000D01*
X83062585Y-124498802D01*
G37*
G36*
X49736000Y-127321000D02*
G01*
X47084000Y-127321000D01*
X47084000Y-124719000D01*
X49736000Y-124719000D01*
X49736000Y-127321000D01*
G37*
G36*
X87836000Y-127321000D02*
G01*
X85184000Y-127321000D01*
X85184000Y-124719000D01*
X87836000Y-124719000D01*
X87836000Y-127321000D01*
G37*
G36*
X68786000Y-127321000D02*
G01*
X66134000Y-127321000D01*
X66134000Y-124719000D01*
X68786000Y-124719000D01*
X68786000Y-127321000D01*
G37*
G36*
X101841000Y-126776000D02*
G01*
X99239000Y-126776000D01*
X99239000Y-124124000D01*
X101841000Y-124124000D01*
X101841000Y-126776000D01*
G37*
G36*
X60496474Y-121513684D02*
G01*
X60714474Y-121603983D01*
X60868623Y-121667833D01*
X61203548Y-121891623D01*
X61488377Y-122176452D01*
X61712167Y-122511377D01*
X61763155Y-122634474D01*
X61866316Y-122883526D01*
X61944900Y-123278594D01*
X61944900Y-123681406D01*
X61866316Y-124076474D01*
X61782322Y-124279253D01*
X61712167Y-124448623D01*
X61488377Y-124783548D01*
X61203548Y-125068377D01*
X60868623Y-125292167D01*
X60714474Y-125356017D01*
X60496474Y-125446316D01*
X60101406Y-125524900D01*
X59698594Y-125524900D01*
X59303526Y-125446316D01*
X59085526Y-125356017D01*
X58931377Y-125292167D01*
X58596452Y-125068377D01*
X58311623Y-124783548D01*
X58087833Y-124448623D01*
X58017678Y-124279253D01*
X57933684Y-124076474D01*
X57855100Y-123681406D01*
X57855100Y-123278594D01*
X57933684Y-122883526D01*
X58036845Y-122634474D01*
X58087833Y-122511377D01*
X58311623Y-122176452D01*
X58596452Y-121891623D01*
X58931377Y-121667833D01*
X59085526Y-121603983D01*
X59303526Y-121513684D01*
X59698594Y-121435100D01*
X60101406Y-121435100D01*
X60496474Y-121513684D01*
G37*
G36*
X41446474Y-121513684D02*
G01*
X41664474Y-121603983D01*
X41818623Y-121667833D01*
X42153548Y-121891623D01*
X42438377Y-122176452D01*
X42662167Y-122511377D01*
X42713155Y-122634474D01*
X42816316Y-122883526D01*
X42894900Y-123278594D01*
X42894900Y-123681406D01*
X42816316Y-124076474D01*
X42732322Y-124279253D01*
X42662167Y-124448623D01*
X42438377Y-124783548D01*
X42153548Y-125068377D01*
X41818623Y-125292167D01*
X41664474Y-125356017D01*
X41446474Y-125446316D01*
X41051406Y-125524900D01*
X40648594Y-125524900D01*
X40253526Y-125446316D01*
X40035526Y-125356017D01*
X39881377Y-125292167D01*
X39546452Y-125068377D01*
X39261623Y-124783548D01*
X39037833Y-124448623D01*
X38967678Y-124279253D01*
X38883684Y-124076474D01*
X38805100Y-123681406D01*
X38805100Y-123278594D01*
X38883684Y-122883526D01*
X38986845Y-122634474D01*
X39037833Y-122511377D01*
X39261623Y-122176452D01*
X39546452Y-121891623D01*
X39881377Y-121667833D01*
X40035526Y-121603983D01*
X40253526Y-121513684D01*
X40648594Y-121435100D01*
X41051406Y-121435100D01*
X41446474Y-121513684D01*
G37*
G36*
X79546474Y-121513684D02*
G01*
X79764474Y-121603983D01*
X79918623Y-121667833D01*
X80253548Y-121891623D01*
X80538377Y-122176452D01*
X80762167Y-122511377D01*
X80813155Y-122634474D01*
X80916316Y-122883526D01*
X80994900Y-123278594D01*
X80994900Y-123681406D01*
X80916316Y-124076474D01*
X80832322Y-124279253D01*
X80762167Y-124448623D01*
X80538377Y-124783548D01*
X80253548Y-125068377D01*
X79918623Y-125292167D01*
X79764474Y-125356017D01*
X79546474Y-125446316D01*
X79151406Y-125524900D01*
X78748594Y-125524900D01*
X78353526Y-125446316D01*
X78135526Y-125356017D01*
X77981377Y-125292167D01*
X77646452Y-125068377D01*
X77361623Y-124783548D01*
X77137833Y-124448623D01*
X77067678Y-124279253D01*
X76983684Y-124076474D01*
X76905100Y-123681406D01*
X76905100Y-123278594D01*
X76983684Y-122883526D01*
X77086845Y-122634474D01*
X77137833Y-122511377D01*
X77361623Y-122176452D01*
X77646452Y-121891623D01*
X77981377Y-121667833D01*
X78135526Y-121603983D01*
X78353526Y-121513684D01*
X78748594Y-121435100D01*
X79151406Y-121435100D01*
X79546474Y-121513684D01*
G37*
G36*
X84205952Y-122595430D02*
G01*
X84293075Y-122612759D01*
X84402498Y-122658084D01*
X84457211Y-122680747D01*
X84498562Y-122708377D01*
X84604928Y-122779448D01*
X84730552Y-122905072D01*
X84730554Y-122905075D01*
X84829253Y-123052789D01*
X84829253Y-123052790D01*
X84897241Y-123216925D01*
X84931900Y-123391171D01*
X84931900Y-123568829D01*
X84897241Y-123743075D01*
X84851916Y-123852498D01*
X84829253Y-123907211D01*
X84731217Y-124053933D01*
X84730552Y-124054928D01*
X84604928Y-124180552D01*
X84604925Y-124180554D01*
X84457211Y-124279253D01*
X84402498Y-124301916D01*
X84293075Y-124347241D01*
X84205952Y-124364570D01*
X84118831Y-124381900D01*
X83941169Y-124381900D01*
X83854048Y-124364570D01*
X83766925Y-124347241D01*
X83657502Y-124301916D01*
X83602789Y-124279253D01*
X83455075Y-124180554D01*
X83455072Y-124180552D01*
X83329448Y-124054928D01*
X83328783Y-124053933D01*
X83230747Y-123907211D01*
X83208084Y-123852498D01*
X83162759Y-123743075D01*
X83128100Y-123568829D01*
X83128100Y-123391171D01*
X83162759Y-123216925D01*
X83230747Y-123052790D01*
X83230747Y-123052789D01*
X83329446Y-122905075D01*
X83329448Y-122905072D01*
X83455072Y-122779448D01*
X83561438Y-122708377D01*
X83602789Y-122680747D01*
X83657502Y-122658084D01*
X83766925Y-122612759D01*
X83854048Y-122595430D01*
X83941169Y-122578100D01*
X84118831Y-122578100D01*
X84205952Y-122595430D01*
G37*
G36*
X46105952Y-122595430D02*
G01*
X46193075Y-122612759D01*
X46302498Y-122658084D01*
X46357211Y-122680747D01*
X46398562Y-122708377D01*
X46504928Y-122779448D01*
X46630552Y-122905072D01*
X46630554Y-122905075D01*
X46729253Y-123052789D01*
X46729253Y-123052790D01*
X46797241Y-123216925D01*
X46831900Y-123391171D01*
X46831900Y-123568829D01*
X46797241Y-123743075D01*
X46751916Y-123852498D01*
X46729253Y-123907211D01*
X46631217Y-124053933D01*
X46630552Y-124054928D01*
X46504928Y-124180552D01*
X46504925Y-124180554D01*
X46357211Y-124279253D01*
X46302498Y-124301916D01*
X46193075Y-124347241D01*
X46105952Y-124364570D01*
X46018831Y-124381900D01*
X45841169Y-124381900D01*
X45754048Y-124364570D01*
X45666925Y-124347241D01*
X45557502Y-124301916D01*
X45502789Y-124279253D01*
X45355075Y-124180554D01*
X45355072Y-124180552D01*
X45229448Y-124054928D01*
X45228783Y-124053933D01*
X45130747Y-123907211D01*
X45108084Y-123852498D01*
X45062759Y-123743075D01*
X45028100Y-123568829D01*
X45028100Y-123391171D01*
X45062759Y-123216925D01*
X45130747Y-123052790D01*
X45130747Y-123052789D01*
X45229446Y-122905075D01*
X45229448Y-122905072D01*
X45355072Y-122779448D01*
X45461438Y-122708377D01*
X45502789Y-122680747D01*
X45557502Y-122658084D01*
X45666925Y-122612759D01*
X45754048Y-122595430D01*
X45841169Y-122578100D01*
X46018831Y-122578100D01*
X46105952Y-122595430D01*
G37*
G36*
X54995952Y-122595430D02*
G01*
X55083075Y-122612759D01*
X55192498Y-122658084D01*
X55247211Y-122680747D01*
X55288562Y-122708377D01*
X55394928Y-122779448D01*
X55520552Y-122905072D01*
X55520554Y-122905075D01*
X55619253Y-123052789D01*
X55619253Y-123052790D01*
X55687241Y-123216925D01*
X55721900Y-123391171D01*
X55721900Y-123568829D01*
X55687241Y-123743075D01*
X55641916Y-123852498D01*
X55619253Y-123907211D01*
X55521217Y-124053933D01*
X55520552Y-124054928D01*
X55394928Y-124180552D01*
X55394925Y-124180554D01*
X55247211Y-124279253D01*
X55192498Y-124301916D01*
X55083075Y-124347241D01*
X54995952Y-124364570D01*
X54908831Y-124381900D01*
X54731169Y-124381900D01*
X54644048Y-124364570D01*
X54556925Y-124347241D01*
X54447502Y-124301916D01*
X54392789Y-124279253D01*
X54245075Y-124180554D01*
X54245072Y-124180552D01*
X54119448Y-124054928D01*
X54118783Y-124053933D01*
X54020747Y-123907211D01*
X53998084Y-123852498D01*
X53952759Y-123743075D01*
X53918100Y-123568829D01*
X53918100Y-123391171D01*
X53952759Y-123216925D01*
X54020747Y-123052790D01*
X54020747Y-123052789D01*
X54119446Y-122905075D01*
X54119448Y-122905072D01*
X54245072Y-122779448D01*
X54351438Y-122708377D01*
X54392789Y-122680747D01*
X54447502Y-122658084D01*
X54556925Y-122612759D01*
X54644048Y-122595430D01*
X54731169Y-122578100D01*
X54908831Y-122578100D01*
X54995952Y-122595430D01*
G37*
G36*
X35945952Y-122595430D02*
G01*
X36033075Y-122612759D01*
X36142498Y-122658084D01*
X36197211Y-122680747D01*
X36238562Y-122708377D01*
X36344928Y-122779448D01*
X36470552Y-122905072D01*
X36470554Y-122905075D01*
X36569253Y-123052789D01*
X36569253Y-123052790D01*
X36637241Y-123216925D01*
X36671900Y-123391171D01*
X36671900Y-123568829D01*
X36637241Y-123743075D01*
X36591916Y-123852498D01*
X36569253Y-123907211D01*
X36471217Y-124053933D01*
X36470552Y-124054928D01*
X36344928Y-124180552D01*
X36344925Y-124180554D01*
X36197211Y-124279253D01*
X36142498Y-124301916D01*
X36033075Y-124347241D01*
X35945952Y-124364570D01*
X35858831Y-124381900D01*
X35681169Y-124381900D01*
X35594048Y-124364570D01*
X35506925Y-124347241D01*
X35397502Y-124301916D01*
X35342789Y-124279253D01*
X35195075Y-124180554D01*
X35195072Y-124180552D01*
X35069448Y-124054928D01*
X35068783Y-124053933D01*
X34970747Y-123907211D01*
X34948084Y-123852498D01*
X34902759Y-123743075D01*
X34868100Y-123568829D01*
X34868100Y-123391171D01*
X34902759Y-123216925D01*
X34970747Y-123052790D01*
X34970747Y-123052789D01*
X35069446Y-122905075D01*
X35069448Y-122905072D01*
X35195072Y-122779448D01*
X35301438Y-122708377D01*
X35342789Y-122680747D01*
X35397502Y-122658084D01*
X35506925Y-122612759D01*
X35594048Y-122595430D01*
X35681169Y-122578100D01*
X35858831Y-122578100D01*
X35945952Y-122595430D01*
G37*
G36*
X65155952Y-122595430D02*
G01*
X65243075Y-122612759D01*
X65352498Y-122658084D01*
X65407211Y-122680747D01*
X65448562Y-122708377D01*
X65554928Y-122779448D01*
X65680552Y-122905072D01*
X65680554Y-122905075D01*
X65779253Y-123052789D01*
X65779253Y-123052790D01*
X65847241Y-123216925D01*
X65881900Y-123391171D01*
X65881900Y-123568829D01*
X65847241Y-123743075D01*
X65801916Y-123852498D01*
X65779253Y-123907211D01*
X65681217Y-124053933D01*
X65680552Y-124054928D01*
X65554928Y-124180552D01*
X65554925Y-124180554D01*
X65407211Y-124279253D01*
X65352498Y-124301916D01*
X65243075Y-124347241D01*
X65155952Y-124364570D01*
X65068831Y-124381900D01*
X64891169Y-124381900D01*
X64804048Y-124364570D01*
X64716925Y-124347241D01*
X64607502Y-124301916D01*
X64552789Y-124279253D01*
X64405075Y-124180554D01*
X64405072Y-124180552D01*
X64279448Y-124054928D01*
X64278783Y-124053933D01*
X64180747Y-123907211D01*
X64158084Y-123852498D01*
X64112759Y-123743075D01*
X64078100Y-123568829D01*
X64078100Y-123391171D01*
X64112759Y-123216925D01*
X64180747Y-123052790D01*
X64180747Y-123052789D01*
X64279446Y-122905075D01*
X64279448Y-122905072D01*
X64405072Y-122779448D01*
X64511438Y-122708377D01*
X64552789Y-122680747D01*
X64607502Y-122658084D01*
X64716925Y-122612759D01*
X64804048Y-122595430D01*
X64891169Y-122578100D01*
X65068831Y-122578100D01*
X65155952Y-122595430D01*
G37*
G36*
X74045952Y-122595430D02*
G01*
X74133075Y-122612759D01*
X74242498Y-122658084D01*
X74297211Y-122680747D01*
X74338562Y-122708377D01*
X74444928Y-122779448D01*
X74570552Y-122905072D01*
X74570554Y-122905075D01*
X74669253Y-123052789D01*
X74669253Y-123052790D01*
X74737241Y-123216925D01*
X74771900Y-123391171D01*
X74771900Y-123568829D01*
X74737241Y-123743075D01*
X74691916Y-123852498D01*
X74669253Y-123907211D01*
X74571217Y-124053933D01*
X74570552Y-124054928D01*
X74444928Y-124180552D01*
X74444925Y-124180554D01*
X74297211Y-124279253D01*
X74242498Y-124301916D01*
X74133075Y-124347241D01*
X74045952Y-124364570D01*
X73958831Y-124381900D01*
X73781169Y-124381900D01*
X73694048Y-124364570D01*
X73606925Y-124347241D01*
X73497502Y-124301916D01*
X73442789Y-124279253D01*
X73295075Y-124180554D01*
X73295072Y-124180552D01*
X73169448Y-124054928D01*
X73168783Y-124053933D01*
X73070747Y-123907211D01*
X73048084Y-123852498D01*
X73002759Y-123743075D01*
X72968100Y-123568829D01*
X72968100Y-123391171D01*
X73002759Y-123216925D01*
X73070747Y-123052790D01*
X73070747Y-123052789D01*
X73169446Y-122905075D01*
X73169448Y-122905072D01*
X73295072Y-122779448D01*
X73401438Y-122708377D01*
X73442789Y-122680747D01*
X73497502Y-122658084D01*
X73606925Y-122612759D01*
X73694048Y-122595430D01*
X73781169Y-122578100D01*
X73958831Y-122578100D01*
X74045952Y-122595430D01*
G37*
G36*
X106851474Y-119153684D02*
G01*
X107069474Y-119243983D01*
X107223623Y-119307833D01*
X107558548Y-119531623D01*
X107843377Y-119816452D01*
X108067167Y-120151377D01*
X108067167Y-120151378D01*
X108221316Y-120523526D01*
X108299900Y-120918594D01*
X108299900Y-121321406D01*
X108221316Y-121716474D01*
X108159363Y-121866041D01*
X108067167Y-122088623D01*
X107843377Y-122423548D01*
X107558548Y-122708377D01*
X107223623Y-122932167D01*
X107069474Y-122996017D01*
X106851474Y-123086316D01*
X106456406Y-123164900D01*
X106053594Y-123164900D01*
X105658526Y-123086316D01*
X105440526Y-122996017D01*
X105286377Y-122932167D01*
X104951452Y-122708377D01*
X104666623Y-122423548D01*
X104442833Y-122088623D01*
X104350637Y-121866041D01*
X104288684Y-121716474D01*
X104210100Y-121321406D01*
X104210100Y-120918594D01*
X104288684Y-120523526D01*
X104442833Y-120151378D01*
X104442833Y-120151377D01*
X104666623Y-119816452D01*
X104951452Y-119531623D01*
X105286377Y-119307833D01*
X105440526Y-119243983D01*
X105658526Y-119153684D01*
X106053594Y-119075100D01*
X106456406Y-119075100D01*
X106851474Y-119153684D01*
G37*
G36*
X91322267Y-119575263D02*
G01*
X91474411Y-119605526D01*
X91593137Y-119654704D01*
X91761041Y-119724252D01*
X91761042Y-119724253D01*
X92019004Y-119896617D01*
X92238383Y-120115996D01*
X92353553Y-120288361D01*
X92410748Y-120373959D01*
X92472700Y-120523525D01*
X92529474Y-120660589D01*
X92590000Y-120964876D01*
X92590000Y-121275124D01*
X92544162Y-121505571D01*
X92529474Y-121579410D01*
X92410748Y-121866041D01*
X92353553Y-121951639D01*
X92238383Y-122124004D01*
X92019004Y-122343383D01*
X91899028Y-122423548D01*
X91761041Y-122515748D01*
X91610509Y-122578100D01*
X91474411Y-122634474D01*
X91322267Y-122664737D01*
X91170125Y-122695000D01*
X90859875Y-122695000D01*
X90707733Y-122664737D01*
X90555589Y-122634474D01*
X90419491Y-122578100D01*
X90268959Y-122515748D01*
X90130972Y-122423548D01*
X90010996Y-122343383D01*
X89791617Y-122124004D01*
X89676447Y-121951639D01*
X89619252Y-121866041D01*
X89500526Y-121579410D01*
X89485839Y-121505571D01*
X89440000Y-121275124D01*
X89440000Y-120964876D01*
X89500526Y-120660589D01*
X89557300Y-120523525D01*
X89619252Y-120373959D01*
X89676447Y-120288361D01*
X89791617Y-120115996D01*
X90010996Y-119896617D01*
X90268958Y-119724253D01*
X90268959Y-119724252D01*
X90436863Y-119654704D01*
X90555589Y-119605526D01*
X90707733Y-119575263D01*
X90859875Y-119545000D01*
X91170125Y-119545000D01*
X91322267Y-119575263D01*
G37*
G36*
X75488276Y-119791884D02*
G01*
X75705569Y-119881890D01*
X75705571Y-119881891D01*
X75901130Y-120012560D01*
X76067440Y-120178870D01*
X76198110Y-120374431D01*
X76288116Y-120591724D01*
X76334000Y-120822400D01*
X76334000Y-121057600D01*
X76288116Y-121288276D01*
X76274393Y-121321405D01*
X76198109Y-121505571D01*
X76067440Y-121701130D01*
X75901130Y-121867440D01*
X75705571Y-121998109D01*
X75705570Y-121998110D01*
X75705569Y-121998110D01*
X75488276Y-122088116D01*
X75257600Y-122134000D01*
X75022400Y-122134000D01*
X74791724Y-122088116D01*
X74574431Y-121998110D01*
X74574430Y-121998110D01*
X74574429Y-121998109D01*
X74378870Y-121867440D01*
X74212560Y-121701130D01*
X74081891Y-121505571D01*
X74005607Y-121321405D01*
X73991884Y-121288276D01*
X73946000Y-121057600D01*
X73946000Y-120822400D01*
X73991884Y-120591724D01*
X74081890Y-120374431D01*
X74212560Y-120178870D01*
X74378870Y-120012560D01*
X74574429Y-119881891D01*
X74574431Y-119881890D01*
X74791724Y-119791884D01*
X75022400Y-119746000D01*
X75257600Y-119746000D01*
X75488276Y-119791884D01*
G37*
G36*
X56438276Y-119791884D02*
G01*
X56655569Y-119881890D01*
X56655571Y-119881891D01*
X56851130Y-120012560D01*
X57017440Y-120178870D01*
X57148110Y-120374431D01*
X57238116Y-120591724D01*
X57284000Y-120822400D01*
X57284000Y-121057600D01*
X57238116Y-121288276D01*
X57224393Y-121321405D01*
X57148109Y-121505571D01*
X57017440Y-121701130D01*
X56851130Y-121867440D01*
X56655571Y-121998109D01*
X56655570Y-121998110D01*
X56655569Y-121998110D01*
X56438276Y-122088116D01*
X56207600Y-122134000D01*
X55972400Y-122134000D01*
X55741724Y-122088116D01*
X55524431Y-121998110D01*
X55524430Y-121998110D01*
X55524429Y-121998109D01*
X55328870Y-121867440D01*
X55162560Y-121701130D01*
X55031891Y-121505571D01*
X54955607Y-121321405D01*
X54941884Y-121288276D01*
X54896000Y-121057600D01*
X54896000Y-120822400D01*
X54941884Y-120591724D01*
X55031890Y-120374431D01*
X55162560Y-120178870D01*
X55328870Y-120012560D01*
X55524429Y-119881891D01*
X55524431Y-119881890D01*
X55741724Y-119791884D01*
X55972400Y-119746000D01*
X56207600Y-119746000D01*
X56438276Y-119791884D01*
G37*
G36*
X37388276Y-119791884D02*
G01*
X37605569Y-119881890D01*
X37605571Y-119881891D01*
X37801130Y-120012560D01*
X37967440Y-120178870D01*
X38098110Y-120374431D01*
X38188116Y-120591724D01*
X38234000Y-120822400D01*
X38234000Y-121057600D01*
X38188116Y-121288276D01*
X38174393Y-121321405D01*
X38098109Y-121505571D01*
X37967440Y-121701130D01*
X37801130Y-121867440D01*
X37605571Y-121998109D01*
X37605570Y-121998110D01*
X37605569Y-121998110D01*
X37388276Y-122088116D01*
X37157600Y-122134000D01*
X36922400Y-122134000D01*
X36691724Y-122088116D01*
X36474431Y-121998110D01*
X36474430Y-121998110D01*
X36474429Y-121998109D01*
X36278870Y-121867440D01*
X36112560Y-121701130D01*
X35981891Y-121505571D01*
X35905607Y-121321405D01*
X35891884Y-121288276D01*
X35846000Y-121057600D01*
X35846000Y-120822400D01*
X35891884Y-120591724D01*
X35981890Y-120374431D01*
X36112560Y-120178870D01*
X36278870Y-120012560D01*
X36474429Y-119881891D01*
X36474431Y-119881890D01*
X36691724Y-119791884D01*
X36922400Y-119746000D01*
X37157600Y-119746000D01*
X37388276Y-119791884D01*
G37*
G36*
X62788276Y-117251884D02*
G01*
X63005569Y-117341890D01*
X63005571Y-117341891D01*
X63201130Y-117472560D01*
X63367440Y-117638870D01*
X63498110Y-117834431D01*
X63588116Y-118051724D01*
X63634000Y-118282400D01*
X63634000Y-118517600D01*
X63588116Y-118748276D01*
X63498110Y-118965569D01*
X63498109Y-118965571D01*
X63367440Y-119161130D01*
X63201130Y-119327440D01*
X63005571Y-119458109D01*
X63005570Y-119458110D01*
X63005569Y-119458110D01*
X62788276Y-119548116D01*
X62557600Y-119594000D01*
X62322400Y-119594000D01*
X62091724Y-119548116D01*
X61874431Y-119458110D01*
X61874430Y-119458110D01*
X61874429Y-119458109D01*
X61678870Y-119327440D01*
X61512560Y-119161130D01*
X61381891Y-118965571D01*
X61381890Y-118965569D01*
X61291884Y-118748276D01*
X61246000Y-118517600D01*
X61246000Y-118282400D01*
X61291884Y-118051724D01*
X61381890Y-117834431D01*
X61512560Y-117638870D01*
X61678870Y-117472560D01*
X61874429Y-117341891D01*
X61874431Y-117341890D01*
X62091724Y-117251884D01*
X62322400Y-117206000D01*
X62557600Y-117206000D01*
X62788276Y-117251884D01*
G37*
G36*
X81838276Y-117251884D02*
G01*
X82055569Y-117341890D01*
X82055571Y-117341891D01*
X82251130Y-117472560D01*
X82417440Y-117638870D01*
X82548110Y-117834431D01*
X82638116Y-118051724D01*
X82684000Y-118282400D01*
X82684000Y-118517600D01*
X82638116Y-118748276D01*
X82548110Y-118965569D01*
X82548109Y-118965571D01*
X82417440Y-119161130D01*
X82251130Y-119327440D01*
X82055571Y-119458109D01*
X82055570Y-119458110D01*
X82055569Y-119458110D01*
X81838276Y-119548116D01*
X81607600Y-119594000D01*
X81372400Y-119594000D01*
X81141724Y-119548116D01*
X80924431Y-119458110D01*
X80924430Y-119458110D01*
X80924429Y-119458109D01*
X80728870Y-119327440D01*
X80562560Y-119161130D01*
X80431891Y-118965571D01*
X80431890Y-118965569D01*
X80341884Y-118748276D01*
X80296000Y-118517600D01*
X80296000Y-118282400D01*
X80341884Y-118051724D01*
X80431890Y-117834431D01*
X80562560Y-117638870D01*
X80728870Y-117472560D01*
X80924429Y-117341891D01*
X80924431Y-117341890D01*
X81141724Y-117251884D01*
X81372400Y-117206000D01*
X81607600Y-117206000D01*
X81838276Y-117251884D01*
G37*
G36*
X43738276Y-117251884D02*
G01*
X43955569Y-117341890D01*
X43955571Y-117341891D01*
X44151130Y-117472560D01*
X44317440Y-117638870D01*
X44448110Y-117834431D01*
X44538116Y-118051724D01*
X44584000Y-118282400D01*
X44584000Y-118517600D01*
X44538116Y-118748276D01*
X44448110Y-118965569D01*
X44448109Y-118965571D01*
X44317440Y-119161130D01*
X44151130Y-119327440D01*
X43955571Y-119458109D01*
X43955570Y-119458110D01*
X43955569Y-119458110D01*
X43738276Y-119548116D01*
X43507600Y-119594000D01*
X43272400Y-119594000D01*
X43041724Y-119548116D01*
X42824431Y-119458110D01*
X42824430Y-119458110D01*
X42824429Y-119458109D01*
X42628870Y-119327440D01*
X42462560Y-119161130D01*
X42331891Y-118965571D01*
X42331890Y-118965569D01*
X42241884Y-118748276D01*
X42196000Y-118517600D01*
X42196000Y-118282400D01*
X42241884Y-118051724D01*
X42331890Y-117834431D01*
X42462560Y-117638870D01*
X42628870Y-117472560D01*
X42824429Y-117341891D01*
X42824431Y-117341890D01*
X43041724Y-117251884D01*
X43272400Y-117206000D01*
X43507600Y-117206000D01*
X43738276Y-117251884D01*
G37*
G36*
X69170000Y-115570000D02*
G01*
X68170000Y-115570000D01*
X68170000Y-114170000D01*
X69170000Y-114170000D01*
X69170000Y-115570000D01*
G37*
G36*
X88660000Y-115485000D02*
G01*
X87660000Y-115485000D01*
X87660000Y-114085000D01*
X88660000Y-114085000D01*
X88660000Y-115485000D01*
G37*
G36*
X50390000Y-115445000D02*
G01*
X49390000Y-115445000D01*
X49390000Y-114045000D01*
X50390000Y-114045000D01*
X50390000Y-115445000D01*
G37*
G36*
X69170000Y-112020000D02*
G01*
X68170000Y-112020000D01*
X68170000Y-110620000D01*
X69170000Y-110620000D01*
X69170000Y-112020000D01*
G37*
G36*
X88660000Y-111935000D02*
G01*
X87660000Y-111935000D01*
X87660000Y-110535000D01*
X88660000Y-110535000D01*
X88660000Y-111935000D01*
G37*
G36*
X50390000Y-111895000D02*
G01*
X49390000Y-111895000D01*
X49390000Y-110495000D01*
X50390000Y-110495000D01*
X50390000Y-111895000D01*
G37*
G36*
X57662585Y-107988802D02*
G01*
X57812410Y-108018604D01*
X58094674Y-108135521D01*
X58348705Y-108305259D01*
X58564741Y-108521295D01*
X58734479Y-108775326D01*
X58851396Y-109057590D01*
X58911000Y-109357240D01*
X58911000Y-109662760D01*
X58851396Y-109962410D01*
X58734479Y-110244674D01*
X58564741Y-110498705D01*
X58348705Y-110714741D01*
X58094674Y-110884479D01*
X57812410Y-111001396D01*
X57662585Y-111031198D01*
X57512761Y-111061000D01*
X57207239Y-111061000D01*
X57057415Y-111031198D01*
X56907590Y-111001396D01*
X56625326Y-110884479D01*
X56371295Y-110714741D01*
X56155259Y-110498705D01*
X55985521Y-110244674D01*
X55868604Y-109962410D01*
X55809000Y-109662760D01*
X55809000Y-109357240D01*
X55868604Y-109057590D01*
X55985521Y-108775326D01*
X56155259Y-108521295D01*
X56371295Y-108305259D01*
X56625326Y-108135521D01*
X56907590Y-108018604D01*
X57057415Y-107988802D01*
X57207239Y-107959000D01*
X57512761Y-107959000D01*
X57662585Y-107988802D01*
G37*
G36*
X76712585Y-107988802D02*
G01*
X76862410Y-108018604D01*
X77144674Y-108135521D01*
X77398705Y-108305259D01*
X77614741Y-108521295D01*
X77784479Y-108775326D01*
X77901396Y-109057590D01*
X77961000Y-109357240D01*
X77961000Y-109662760D01*
X77901396Y-109962410D01*
X77784479Y-110244674D01*
X77614741Y-110498705D01*
X77398705Y-110714741D01*
X77144674Y-110884479D01*
X76862410Y-111001396D01*
X76712585Y-111031198D01*
X76562761Y-111061000D01*
X76257239Y-111061000D01*
X76107415Y-111031198D01*
X75957590Y-111001396D01*
X75675326Y-110884479D01*
X75421295Y-110714741D01*
X75205259Y-110498705D01*
X75035521Y-110244674D01*
X74918604Y-109962410D01*
X74859000Y-109662760D01*
X74859000Y-109357240D01*
X74918604Y-109057590D01*
X75035521Y-108775326D01*
X75205259Y-108521295D01*
X75421295Y-108305259D01*
X75675326Y-108135521D01*
X75957590Y-108018604D01*
X76107415Y-107988802D01*
X76257239Y-107959000D01*
X76562761Y-107959000D01*
X76712585Y-107988802D01*
G37*
G36*
X38612585Y-107988802D02*
G01*
X38762410Y-108018604D01*
X39044674Y-108135521D01*
X39298705Y-108305259D01*
X39514741Y-108521295D01*
X39684479Y-108775326D01*
X39801396Y-109057590D01*
X39861000Y-109357240D01*
X39861000Y-109662760D01*
X39801396Y-109962410D01*
X39684479Y-110244674D01*
X39514741Y-110498705D01*
X39298705Y-110714741D01*
X39044674Y-110884479D01*
X38762410Y-111001396D01*
X38612585Y-111031198D01*
X38462761Y-111061000D01*
X38157239Y-111061000D01*
X38007415Y-111031198D01*
X37857590Y-111001396D01*
X37575326Y-110884479D01*
X37321295Y-110714741D01*
X37105259Y-110498705D01*
X36935521Y-110244674D01*
X36818604Y-109962410D01*
X36759000Y-109662760D01*
X36759000Y-109357240D01*
X36818604Y-109057590D01*
X36935521Y-108775326D01*
X37105259Y-108521295D01*
X37321295Y-108305259D01*
X37575326Y-108135521D01*
X37857590Y-108018604D01*
X38007415Y-107988802D01*
X38157239Y-107959000D01*
X38462761Y-107959000D01*
X38612585Y-107988802D01*
G37*
G36*
X54936000Y-110811000D02*
G01*
X52284000Y-110811000D01*
X52284000Y-108209000D01*
X54936000Y-108209000D01*
X54936000Y-110811000D01*
G37*
G36*
X73986000Y-110811000D02*
G01*
X71334000Y-110811000D01*
X71334000Y-108209000D01*
X73986000Y-108209000D01*
X73986000Y-110811000D01*
G37*
G36*
X35886000Y-110811000D02*
G01*
X33234000Y-110811000D01*
X33234000Y-108209000D01*
X35886000Y-108209000D01*
X35886000Y-110811000D01*
G37*
G36*
X106851474Y-104833684D02*
G01*
X107069474Y-104923983D01*
X107223623Y-104987833D01*
X107558548Y-105211623D01*
X107843377Y-105496452D01*
X108067167Y-105831377D01*
X108067167Y-105831378D01*
X108221316Y-106203526D01*
X108299900Y-106598594D01*
X108299900Y-107001406D01*
X108221316Y-107396474D01*
X108159363Y-107546041D01*
X108067167Y-107768623D01*
X107843377Y-108103548D01*
X107558548Y-108388377D01*
X107223623Y-108612167D01*
X107069474Y-108676017D01*
X106851474Y-108766316D01*
X106456406Y-108844900D01*
X106053594Y-108844900D01*
X105658526Y-108766316D01*
X105440526Y-108676017D01*
X105286377Y-108612167D01*
X104951452Y-108388377D01*
X104666623Y-108103548D01*
X104442833Y-107768623D01*
X104350637Y-107546041D01*
X104288684Y-107396474D01*
X104210100Y-107001406D01*
X104210100Y-106598594D01*
X104288684Y-106203526D01*
X104442833Y-105831378D01*
X104442833Y-105831377D01*
X104666623Y-105496452D01*
X104951452Y-105211623D01*
X105286377Y-104987833D01*
X105440526Y-104923983D01*
X105658526Y-104833684D01*
X106053594Y-104755100D01*
X106456406Y-104755100D01*
X106851474Y-104833684D01*
G37*
G36*
X44962585Y-105448802D02*
G01*
X45112410Y-105478604D01*
X45394674Y-105595521D01*
X45648705Y-105765259D01*
X45864741Y-105981295D01*
X46034479Y-106235326D01*
X46151396Y-106517590D01*
X46211000Y-106817240D01*
X46211000Y-107122760D01*
X46151396Y-107422410D01*
X46034479Y-107704674D01*
X45864741Y-107958705D01*
X45648705Y-108174741D01*
X45394674Y-108344479D01*
X45112410Y-108461396D01*
X44962585Y-108491198D01*
X44812761Y-108521000D01*
X44507239Y-108521000D01*
X44357415Y-108491198D01*
X44207590Y-108461396D01*
X43925326Y-108344479D01*
X43671295Y-108174741D01*
X43455259Y-107958705D01*
X43285521Y-107704674D01*
X43168604Y-107422410D01*
X43109000Y-107122760D01*
X43109000Y-106817240D01*
X43168604Y-106517590D01*
X43285521Y-106235326D01*
X43455259Y-105981295D01*
X43671295Y-105765259D01*
X43925326Y-105595521D01*
X44207590Y-105478604D01*
X44357415Y-105448802D01*
X44507239Y-105419000D01*
X44812761Y-105419000D01*
X44962585Y-105448802D01*
G37*
G36*
X83062585Y-105448802D02*
G01*
X83212410Y-105478604D01*
X83494674Y-105595521D01*
X83748705Y-105765259D01*
X83964741Y-105981295D01*
X84134479Y-106235326D01*
X84251396Y-106517590D01*
X84311000Y-106817240D01*
X84311000Y-107122760D01*
X84251396Y-107422410D01*
X84134479Y-107704674D01*
X83964741Y-107958705D01*
X83748705Y-108174741D01*
X83494674Y-108344479D01*
X83212410Y-108461396D01*
X83062585Y-108491198D01*
X82912761Y-108521000D01*
X82607239Y-108521000D01*
X82457415Y-108491198D01*
X82307590Y-108461396D01*
X82025326Y-108344479D01*
X81771295Y-108174741D01*
X81555259Y-107958705D01*
X81385521Y-107704674D01*
X81268604Y-107422410D01*
X81209000Y-107122760D01*
X81209000Y-106817240D01*
X81268604Y-106517590D01*
X81385521Y-106235326D01*
X81555259Y-105981295D01*
X81771295Y-105765259D01*
X82025326Y-105595521D01*
X82307590Y-105478604D01*
X82457415Y-105448802D01*
X82607239Y-105419000D01*
X82912761Y-105419000D01*
X83062585Y-105448802D01*
G37*
G36*
X64012585Y-105448802D02*
G01*
X64162410Y-105478604D01*
X64444674Y-105595521D01*
X64698705Y-105765259D01*
X64914741Y-105981295D01*
X65084479Y-106235326D01*
X65201396Y-106517590D01*
X65261000Y-106817240D01*
X65261000Y-107122760D01*
X65201396Y-107422410D01*
X65084479Y-107704674D01*
X64914741Y-107958705D01*
X64698705Y-108174741D01*
X64444674Y-108344479D01*
X64162410Y-108461396D01*
X64012585Y-108491198D01*
X63862761Y-108521000D01*
X63557239Y-108521000D01*
X63407415Y-108491198D01*
X63257590Y-108461396D01*
X62975326Y-108344479D01*
X62721295Y-108174741D01*
X62505259Y-107958705D01*
X62335521Y-107704674D01*
X62218604Y-107422410D01*
X62159000Y-107122760D01*
X62159000Y-106817240D01*
X62218604Y-106517590D01*
X62335521Y-106235326D01*
X62505259Y-105981295D01*
X62721295Y-105765259D01*
X62975326Y-105595521D01*
X63257590Y-105478604D01*
X63407415Y-105448802D01*
X63557239Y-105419000D01*
X63862761Y-105419000D01*
X64012585Y-105448802D01*
G37*
G36*
X91474411Y-105285526D02*
G01*
X91502693Y-105297241D01*
X91761041Y-105404252D01*
X91761042Y-105404253D01*
X92019004Y-105576617D01*
X92238383Y-105795996D01*
X92262024Y-105831378D01*
X92410748Y-106053959D01*
X92472700Y-106203525D01*
X92529474Y-106340589D01*
X92540559Y-106396316D01*
X92590000Y-106644875D01*
X92590000Y-106955125D01*
X92529474Y-107259410D01*
X92410748Y-107546041D01*
X92410747Y-107546042D01*
X92238383Y-107804004D01*
X92019004Y-108023383D01*
X91899028Y-108103548D01*
X91761041Y-108195748D01*
X91593137Y-108265296D01*
X91474411Y-108314474D01*
X91323565Y-108344479D01*
X91170125Y-108375000D01*
X90859875Y-108375000D01*
X90706435Y-108344479D01*
X90555589Y-108314474D01*
X90436863Y-108265296D01*
X90268959Y-108195748D01*
X90130972Y-108103548D01*
X90010996Y-108023383D01*
X89791617Y-107804004D01*
X89619253Y-107546042D01*
X89619252Y-107546041D01*
X89500526Y-107259410D01*
X89440000Y-106955125D01*
X89440000Y-106644875D01*
X89489441Y-106396316D01*
X89500526Y-106340589D01*
X89557300Y-106203525D01*
X89619252Y-106053959D01*
X89767976Y-105831378D01*
X89791617Y-105795996D01*
X90010996Y-105576617D01*
X90268958Y-105404253D01*
X90268959Y-105404252D01*
X90527307Y-105297241D01*
X90555589Y-105285526D01*
X90859875Y-105225000D01*
X91170125Y-105225000D01*
X91474411Y-105285526D01*
G37*
G36*
X68786000Y-108271000D02*
G01*
X66134000Y-108271000D01*
X66134000Y-105669000D01*
X68786000Y-105669000D01*
X68786000Y-108271000D01*
G37*
G36*
X87836000Y-108271000D02*
G01*
X85184000Y-108271000D01*
X85184000Y-105669000D01*
X87836000Y-105669000D01*
X87836000Y-108271000D01*
G37*
G36*
X49736000Y-108271000D02*
G01*
X47084000Y-108271000D01*
X47084000Y-105669000D01*
X49736000Y-105669000D01*
X49736000Y-108271000D01*
G37*
G36*
X60496474Y-102463684D02*
G01*
X60714474Y-102553983D01*
X60868623Y-102617833D01*
X61203548Y-102841623D01*
X61488377Y-103126452D01*
X61712167Y-103461377D01*
X61776017Y-103615526D01*
X61866316Y-103833526D01*
X61944900Y-104228594D01*
X61944900Y-104631406D01*
X61866316Y-105026474D01*
X61789625Y-105211623D01*
X61712167Y-105398623D01*
X61488377Y-105733548D01*
X61203548Y-106018377D01*
X60868623Y-106242167D01*
X60714474Y-106306017D01*
X60496474Y-106396316D01*
X60101406Y-106474900D01*
X59698594Y-106474900D01*
X59303526Y-106396316D01*
X59085526Y-106306017D01*
X58931377Y-106242167D01*
X58596452Y-106018377D01*
X58311623Y-105733548D01*
X58087833Y-105398623D01*
X58010375Y-105211623D01*
X57933684Y-105026474D01*
X57855100Y-104631406D01*
X57855100Y-104228594D01*
X57933684Y-103833526D01*
X58023983Y-103615526D01*
X58087833Y-103461377D01*
X58311623Y-103126452D01*
X58596452Y-102841623D01*
X58931377Y-102617833D01*
X59085526Y-102553983D01*
X59303526Y-102463684D01*
X59698594Y-102385100D01*
X60101406Y-102385100D01*
X60496474Y-102463684D01*
G37*
G36*
X79546474Y-102463684D02*
G01*
X79764474Y-102553983D01*
X79918623Y-102617833D01*
X80253548Y-102841623D01*
X80538377Y-103126452D01*
X80762167Y-103461377D01*
X80826017Y-103615526D01*
X80916316Y-103833526D01*
X80994900Y-104228594D01*
X80994900Y-104631406D01*
X80916316Y-105026474D01*
X80839625Y-105211623D01*
X80762167Y-105398623D01*
X80538377Y-105733548D01*
X80253548Y-106018377D01*
X79918623Y-106242167D01*
X79764474Y-106306017D01*
X79546474Y-106396316D01*
X79151406Y-106474900D01*
X78748594Y-106474900D01*
X78353526Y-106396316D01*
X78135526Y-106306017D01*
X77981377Y-106242167D01*
X77646452Y-106018377D01*
X77361623Y-105733548D01*
X77137833Y-105398623D01*
X77060375Y-105211623D01*
X76983684Y-105026474D01*
X76905100Y-104631406D01*
X76905100Y-104228594D01*
X76983684Y-103833526D01*
X77073983Y-103615526D01*
X77137833Y-103461377D01*
X77361623Y-103126452D01*
X77646452Y-102841623D01*
X77981377Y-102617833D01*
X78135526Y-102553983D01*
X78353526Y-102463684D01*
X78748594Y-102385100D01*
X79151406Y-102385100D01*
X79546474Y-102463684D01*
G37*
G36*
X41446474Y-102463684D02*
G01*
X41664474Y-102553983D01*
X41818623Y-102617833D01*
X42153548Y-102841623D01*
X42438377Y-103126452D01*
X42662167Y-103461377D01*
X42726017Y-103615526D01*
X42816316Y-103833526D01*
X42894900Y-104228594D01*
X42894900Y-104631406D01*
X42816316Y-105026474D01*
X42739625Y-105211623D01*
X42662167Y-105398623D01*
X42438377Y-105733548D01*
X42153548Y-106018377D01*
X41818623Y-106242167D01*
X41664474Y-106306017D01*
X41446474Y-106396316D01*
X41051406Y-106474900D01*
X40648594Y-106474900D01*
X40253526Y-106396316D01*
X40035526Y-106306017D01*
X39881377Y-106242167D01*
X39546452Y-106018377D01*
X39261623Y-105733548D01*
X39037833Y-105398623D01*
X38960375Y-105211623D01*
X38883684Y-105026474D01*
X38805100Y-104631406D01*
X38805100Y-104228594D01*
X38883684Y-103833526D01*
X38973983Y-103615526D01*
X39037833Y-103461377D01*
X39261623Y-103126452D01*
X39546452Y-102841623D01*
X39881377Y-102617833D01*
X40035526Y-102553983D01*
X40253526Y-102463684D01*
X40648594Y-102385100D01*
X41051406Y-102385100D01*
X41446474Y-102463684D01*
G37*
G36*
X74045952Y-103545430D02*
G01*
X74133075Y-103562759D01*
X74242498Y-103608084D01*
X74297211Y-103630747D01*
X74443933Y-103728783D01*
X74444928Y-103729448D01*
X74570552Y-103855072D01*
X74570554Y-103855075D01*
X74669253Y-104002789D01*
X74669253Y-104002790D01*
X74737241Y-104166925D01*
X74771900Y-104341171D01*
X74771900Y-104518829D01*
X74737241Y-104693075D01*
X74711549Y-104755100D01*
X74669253Y-104857211D01*
X74581974Y-104987833D01*
X74570552Y-105004928D01*
X74444928Y-105130552D01*
X74444925Y-105130554D01*
X74297211Y-105229253D01*
X74242498Y-105251916D01*
X74133075Y-105297241D01*
X74045952Y-105314571D01*
X73958831Y-105331900D01*
X73781169Y-105331900D01*
X73694048Y-105314570D01*
X73606925Y-105297241D01*
X73497502Y-105251916D01*
X73442789Y-105229253D01*
X73295075Y-105130554D01*
X73295072Y-105130552D01*
X73169448Y-105004928D01*
X73158026Y-104987833D01*
X73070747Y-104857211D01*
X73028451Y-104755100D01*
X73002759Y-104693075D01*
X72968100Y-104518829D01*
X72968100Y-104341171D01*
X73002759Y-104166925D01*
X73070747Y-104002790D01*
X73070747Y-104002789D01*
X73169446Y-103855075D01*
X73169448Y-103855072D01*
X73295072Y-103729448D01*
X73296067Y-103728783D01*
X73442789Y-103630747D01*
X73497502Y-103608084D01*
X73606925Y-103562759D01*
X73694048Y-103545429D01*
X73781169Y-103528100D01*
X73958831Y-103528100D01*
X74045952Y-103545430D01*
G37*
G36*
X84205952Y-103545430D02*
G01*
X84293075Y-103562759D01*
X84402498Y-103608084D01*
X84457211Y-103630747D01*
X84603933Y-103728783D01*
X84604928Y-103729448D01*
X84730552Y-103855072D01*
X84730554Y-103855075D01*
X84829253Y-104002789D01*
X84829253Y-104002790D01*
X84897241Y-104166925D01*
X84931900Y-104341171D01*
X84931900Y-104518829D01*
X84897241Y-104693075D01*
X84871549Y-104755100D01*
X84829253Y-104857211D01*
X84741974Y-104987833D01*
X84730552Y-105004928D01*
X84604928Y-105130552D01*
X84604925Y-105130554D01*
X84457211Y-105229253D01*
X84402498Y-105251916D01*
X84293075Y-105297241D01*
X84205952Y-105314571D01*
X84118831Y-105331900D01*
X83941169Y-105331900D01*
X83854048Y-105314570D01*
X83766925Y-105297241D01*
X83657502Y-105251916D01*
X83602789Y-105229253D01*
X83455075Y-105130554D01*
X83455072Y-105130552D01*
X83329448Y-105004928D01*
X83318026Y-104987833D01*
X83230747Y-104857211D01*
X83188451Y-104755100D01*
X83162759Y-104693075D01*
X83128100Y-104518829D01*
X83128100Y-104341171D01*
X83162759Y-104166925D01*
X83230747Y-104002790D01*
X83230747Y-104002789D01*
X83329446Y-103855075D01*
X83329448Y-103855072D01*
X83455072Y-103729448D01*
X83456067Y-103728783D01*
X83602789Y-103630747D01*
X83657502Y-103608084D01*
X83766925Y-103562759D01*
X83854048Y-103545429D01*
X83941169Y-103528100D01*
X84118831Y-103528100D01*
X84205952Y-103545430D01*
G37*
G36*
X46105952Y-103545430D02*
G01*
X46193075Y-103562759D01*
X46302498Y-103608084D01*
X46357211Y-103630747D01*
X46503933Y-103728783D01*
X46504928Y-103729448D01*
X46630552Y-103855072D01*
X46630554Y-103855075D01*
X46729253Y-104002789D01*
X46729253Y-104002790D01*
X46797241Y-104166925D01*
X46831900Y-104341171D01*
X46831900Y-104518829D01*
X46797241Y-104693075D01*
X46771549Y-104755100D01*
X46729253Y-104857211D01*
X46641974Y-104987833D01*
X46630552Y-105004928D01*
X46504928Y-105130552D01*
X46504925Y-105130554D01*
X46357211Y-105229253D01*
X46302498Y-105251916D01*
X46193075Y-105297241D01*
X46105952Y-105314571D01*
X46018831Y-105331900D01*
X45841169Y-105331900D01*
X45754048Y-105314570D01*
X45666925Y-105297241D01*
X45557502Y-105251916D01*
X45502789Y-105229253D01*
X45355075Y-105130554D01*
X45355072Y-105130552D01*
X45229448Y-105004928D01*
X45218026Y-104987833D01*
X45130747Y-104857211D01*
X45088451Y-104755100D01*
X45062759Y-104693075D01*
X45028100Y-104518829D01*
X45028100Y-104341171D01*
X45062759Y-104166925D01*
X45130747Y-104002790D01*
X45130747Y-104002789D01*
X45229446Y-103855075D01*
X45229448Y-103855072D01*
X45355072Y-103729448D01*
X45356067Y-103728783D01*
X45502789Y-103630747D01*
X45557502Y-103608084D01*
X45666925Y-103562759D01*
X45754048Y-103545429D01*
X45841169Y-103528100D01*
X46018831Y-103528100D01*
X46105952Y-103545430D01*
G37*
G36*
X35945952Y-103545430D02*
G01*
X36033075Y-103562759D01*
X36142498Y-103608084D01*
X36197211Y-103630747D01*
X36343933Y-103728783D01*
X36344928Y-103729448D01*
X36470552Y-103855072D01*
X36470554Y-103855075D01*
X36569253Y-104002789D01*
X36569253Y-104002790D01*
X36637241Y-104166925D01*
X36671900Y-104341171D01*
X36671900Y-104518829D01*
X36637241Y-104693075D01*
X36611549Y-104755100D01*
X36569253Y-104857211D01*
X36481974Y-104987833D01*
X36470552Y-105004928D01*
X36344928Y-105130552D01*
X36344925Y-105130554D01*
X36197211Y-105229253D01*
X36142498Y-105251916D01*
X36033075Y-105297241D01*
X35945952Y-105314571D01*
X35858831Y-105331900D01*
X35681169Y-105331900D01*
X35594048Y-105314570D01*
X35506925Y-105297241D01*
X35397502Y-105251916D01*
X35342789Y-105229253D01*
X35195075Y-105130554D01*
X35195072Y-105130552D01*
X35069448Y-105004928D01*
X35058026Y-104987833D01*
X34970747Y-104857211D01*
X34928451Y-104755100D01*
X34902759Y-104693075D01*
X34868100Y-104518829D01*
X34868100Y-104341171D01*
X34902759Y-104166925D01*
X34970747Y-104002790D01*
X34970747Y-104002789D01*
X35069446Y-103855075D01*
X35069448Y-103855072D01*
X35195072Y-103729448D01*
X35196067Y-103728783D01*
X35342789Y-103630747D01*
X35397502Y-103608084D01*
X35506925Y-103562759D01*
X35594048Y-103545429D01*
X35681169Y-103528100D01*
X35858831Y-103528100D01*
X35945952Y-103545430D01*
G37*
G36*
X54995952Y-103545430D02*
G01*
X55083075Y-103562759D01*
X55192498Y-103608084D01*
X55247211Y-103630747D01*
X55393933Y-103728783D01*
X55394928Y-103729448D01*
X55520552Y-103855072D01*
X55520554Y-103855075D01*
X55619253Y-104002789D01*
X55619253Y-104002790D01*
X55687241Y-104166925D01*
X55721900Y-104341171D01*
X55721900Y-104518829D01*
X55687241Y-104693075D01*
X55661549Y-104755100D01*
X55619253Y-104857211D01*
X55531974Y-104987833D01*
X55520552Y-105004928D01*
X55394928Y-105130552D01*
X55394925Y-105130554D01*
X55247211Y-105229253D01*
X55192498Y-105251916D01*
X55083075Y-105297241D01*
X54995952Y-105314571D01*
X54908831Y-105331900D01*
X54731169Y-105331900D01*
X54644048Y-105314570D01*
X54556925Y-105297241D01*
X54447502Y-105251916D01*
X54392789Y-105229253D01*
X54245075Y-105130554D01*
X54245072Y-105130552D01*
X54119448Y-105004928D01*
X54108026Y-104987833D01*
X54020747Y-104857211D01*
X53978451Y-104755100D01*
X53952759Y-104693075D01*
X53918100Y-104518829D01*
X53918100Y-104341171D01*
X53952759Y-104166925D01*
X54020747Y-104002790D01*
X54020747Y-104002789D01*
X54119446Y-103855075D01*
X54119448Y-103855072D01*
X54245072Y-103729448D01*
X54246067Y-103728783D01*
X54392789Y-103630747D01*
X54447502Y-103608084D01*
X54556925Y-103562759D01*
X54644048Y-103545429D01*
X54731169Y-103528100D01*
X54908831Y-103528100D01*
X54995952Y-103545430D01*
G37*
G36*
X65155952Y-103545430D02*
G01*
X65243075Y-103562759D01*
X65352498Y-103608084D01*
X65407211Y-103630747D01*
X65553933Y-103728783D01*
X65554928Y-103729448D01*
X65680552Y-103855072D01*
X65680554Y-103855075D01*
X65779253Y-104002789D01*
X65779253Y-104002790D01*
X65847241Y-104166925D01*
X65881900Y-104341171D01*
X65881900Y-104518829D01*
X65847241Y-104693075D01*
X65821549Y-104755100D01*
X65779253Y-104857211D01*
X65691974Y-104987833D01*
X65680552Y-105004928D01*
X65554928Y-105130552D01*
X65554925Y-105130554D01*
X65407211Y-105229253D01*
X65352498Y-105251916D01*
X65243075Y-105297241D01*
X65155952Y-105314571D01*
X65068831Y-105331900D01*
X64891169Y-105331900D01*
X64804048Y-105314570D01*
X64716925Y-105297241D01*
X64607502Y-105251916D01*
X64552789Y-105229253D01*
X64405075Y-105130554D01*
X64405072Y-105130552D01*
X64279448Y-105004928D01*
X64268026Y-104987833D01*
X64180747Y-104857211D01*
X64138451Y-104755100D01*
X64112759Y-104693075D01*
X64078100Y-104518829D01*
X64078100Y-104341171D01*
X64112759Y-104166925D01*
X64180747Y-104002790D01*
X64180747Y-104002789D01*
X64279446Y-103855075D01*
X64279448Y-103855072D01*
X64405072Y-103729448D01*
X64406067Y-103728783D01*
X64552789Y-103630747D01*
X64607502Y-103608084D01*
X64716925Y-103562759D01*
X64804048Y-103545429D01*
X64891169Y-103528100D01*
X65068831Y-103528100D01*
X65155952Y-103545430D01*
G37*
G36*
X37388276Y-100741884D02*
G01*
X37605569Y-100831890D01*
X37605571Y-100831891D01*
X37680414Y-100881900D01*
X37801130Y-100962560D01*
X37967440Y-101128870D01*
X38098110Y-101324431D01*
X38188116Y-101541724D01*
X38234000Y-101772400D01*
X38234000Y-102007600D01*
X38188116Y-102238276D01*
X38127299Y-102385100D01*
X38098109Y-102455571D01*
X37967440Y-102651130D01*
X37801130Y-102817440D01*
X37605571Y-102948109D01*
X37605570Y-102948110D01*
X37605569Y-102948110D01*
X37388276Y-103038116D01*
X37157600Y-103084000D01*
X36922400Y-103084000D01*
X36691724Y-103038116D01*
X36474431Y-102948110D01*
X36474430Y-102948110D01*
X36474429Y-102948109D01*
X36278870Y-102817440D01*
X36112560Y-102651130D01*
X35981891Y-102455571D01*
X35952701Y-102385100D01*
X35891884Y-102238276D01*
X35846000Y-102007600D01*
X35846000Y-101772400D01*
X35891884Y-101541724D01*
X35981890Y-101324431D01*
X36112560Y-101128870D01*
X36278870Y-100962560D01*
X36399586Y-100881900D01*
X36474429Y-100831891D01*
X36474431Y-100831890D01*
X36691724Y-100741884D01*
X36922400Y-100696000D01*
X37157600Y-100696000D01*
X37388276Y-100741884D01*
G37*
G36*
X75488276Y-100741884D02*
G01*
X75705569Y-100831890D01*
X75705571Y-100831891D01*
X75780414Y-100881900D01*
X75901130Y-100962560D01*
X76067440Y-101128870D01*
X76198110Y-101324431D01*
X76288116Y-101541724D01*
X76334000Y-101772400D01*
X76334000Y-102007600D01*
X76288116Y-102238276D01*
X76227299Y-102385100D01*
X76198109Y-102455571D01*
X76067440Y-102651130D01*
X75901130Y-102817440D01*
X75705571Y-102948109D01*
X75705570Y-102948110D01*
X75705569Y-102948110D01*
X75488276Y-103038116D01*
X75257600Y-103084000D01*
X75022400Y-103084000D01*
X74791724Y-103038116D01*
X74574431Y-102948110D01*
X74574430Y-102948110D01*
X74574429Y-102948109D01*
X74378870Y-102817440D01*
X74212560Y-102651130D01*
X74081891Y-102455571D01*
X74052701Y-102385100D01*
X73991884Y-102238276D01*
X73946000Y-102007600D01*
X73946000Y-101772400D01*
X73991884Y-101541724D01*
X74081890Y-101324431D01*
X74212560Y-101128870D01*
X74378870Y-100962560D01*
X74499586Y-100881900D01*
X74574429Y-100831891D01*
X74574431Y-100831890D01*
X74791724Y-100741884D01*
X75022400Y-100696000D01*
X75257600Y-100696000D01*
X75488276Y-100741884D01*
G37*
G36*
X56438276Y-100741884D02*
G01*
X56655569Y-100831890D01*
X56655571Y-100831891D01*
X56730414Y-100881900D01*
X56851130Y-100962560D01*
X57017440Y-101128870D01*
X57148110Y-101324431D01*
X57238116Y-101541724D01*
X57284000Y-101772400D01*
X57284000Y-102007600D01*
X57238116Y-102238276D01*
X57177299Y-102385100D01*
X57148109Y-102455571D01*
X57017440Y-102651130D01*
X56851130Y-102817440D01*
X56655571Y-102948109D01*
X56655570Y-102948110D01*
X56655569Y-102948110D01*
X56438276Y-103038116D01*
X56207600Y-103084000D01*
X55972400Y-103084000D01*
X55741724Y-103038116D01*
X55524431Y-102948110D01*
X55524430Y-102948110D01*
X55524429Y-102948109D01*
X55328870Y-102817440D01*
X55162560Y-102651130D01*
X55031891Y-102455571D01*
X55002701Y-102385100D01*
X54941884Y-102238276D01*
X54896000Y-102007600D01*
X54896000Y-101772400D01*
X54941884Y-101541724D01*
X55031890Y-101324431D01*
X55162560Y-101128870D01*
X55328870Y-100962560D01*
X55449586Y-100881900D01*
X55524429Y-100831891D01*
X55524431Y-100831890D01*
X55741724Y-100741884D01*
X55972400Y-100696000D01*
X56207600Y-100696000D01*
X56438276Y-100741884D01*
G37*
G36*
X104381000Y-102516000D02*
G01*
X101779000Y-102516000D01*
X101779000Y-99864000D01*
X104381000Y-99864000D01*
X104381000Y-102516000D01*
G37*
G36*
X98175952Y-99095429D02*
G01*
X98263075Y-99112759D01*
X98372498Y-99158084D01*
X98427211Y-99180747D01*
X98569123Y-99275569D01*
X98574928Y-99279448D01*
X98700552Y-99405072D01*
X98700554Y-99405075D01*
X98799253Y-99552789D01*
X98799253Y-99552790D01*
X98867241Y-99716925D01*
X98867241Y-99716927D01*
X98896496Y-99864000D01*
X98901900Y-99891171D01*
X98901900Y-100068829D01*
X98867241Y-100243075D01*
X98853006Y-100277440D01*
X98799253Y-100407211D01*
X98798652Y-100408110D01*
X98700552Y-100554928D01*
X98574928Y-100680552D01*
X98574925Y-100680554D01*
X98427211Y-100779253D01*
X98372498Y-100801916D01*
X98263075Y-100847241D01*
X98175952Y-100864570D01*
X98088831Y-100881900D01*
X97911169Y-100881900D01*
X97824048Y-100864571D01*
X97736925Y-100847241D01*
X97627502Y-100801916D01*
X97572789Y-100779253D01*
X97425075Y-100680554D01*
X97425072Y-100680552D01*
X97299448Y-100554928D01*
X97201348Y-100408110D01*
X97200747Y-100407211D01*
X97146994Y-100277440D01*
X97132759Y-100243075D01*
X97098100Y-100068829D01*
X97098100Y-99891171D01*
X97103505Y-99864000D01*
X97132759Y-99716927D01*
X97132759Y-99716925D01*
X97200747Y-99552790D01*
X97200747Y-99552789D01*
X97299446Y-99405075D01*
X97299448Y-99405072D01*
X97425072Y-99279448D01*
X97430877Y-99275569D01*
X97572789Y-99180747D01*
X97627502Y-99158084D01*
X97736925Y-99112759D01*
X97824048Y-99095430D01*
X97911169Y-99078100D01*
X98088831Y-99078100D01*
X98175952Y-99095429D01*
G37*
G36*
X81838276Y-98201884D02*
G01*
X82055569Y-98291890D01*
X82055571Y-98291891D01*
X82160081Y-98361723D01*
X82251130Y-98422560D01*
X82417440Y-98588870D01*
X82548110Y-98784431D01*
X82638116Y-99001724D01*
X82684000Y-99232400D01*
X82684000Y-99467600D01*
X82638116Y-99698276D01*
X82558217Y-99891169D01*
X82548109Y-99915571D01*
X82417440Y-100111130D01*
X82251130Y-100277440D01*
X82055571Y-100408109D01*
X82055570Y-100408110D01*
X82055569Y-100408110D01*
X81838276Y-100498116D01*
X81607600Y-100544000D01*
X81372400Y-100544000D01*
X81141724Y-100498116D01*
X80924431Y-100408110D01*
X80924430Y-100408110D01*
X80924429Y-100408109D01*
X80728870Y-100277440D01*
X80562560Y-100111130D01*
X80431891Y-99915571D01*
X80421783Y-99891169D01*
X80341884Y-99698276D01*
X80296000Y-99467600D01*
X80296000Y-99232400D01*
X80341884Y-99001724D01*
X80431890Y-98784431D01*
X80562560Y-98588870D01*
X80728870Y-98422560D01*
X80819919Y-98361723D01*
X80924429Y-98291891D01*
X80924431Y-98291890D01*
X81141724Y-98201884D01*
X81372400Y-98156000D01*
X81607600Y-98156000D01*
X81838276Y-98201884D01*
G37*
G36*
X62788276Y-98201884D02*
G01*
X63005569Y-98291890D01*
X63005571Y-98291891D01*
X63110081Y-98361723D01*
X63201130Y-98422560D01*
X63367440Y-98588870D01*
X63498110Y-98784431D01*
X63588116Y-99001724D01*
X63634000Y-99232400D01*
X63634000Y-99467600D01*
X63588116Y-99698276D01*
X63508217Y-99891169D01*
X63498109Y-99915571D01*
X63367440Y-100111130D01*
X63201130Y-100277440D01*
X63005571Y-100408109D01*
X63005570Y-100408110D01*
X63005569Y-100408110D01*
X62788276Y-100498116D01*
X62557600Y-100544000D01*
X62322400Y-100544000D01*
X62091724Y-100498116D01*
X61874431Y-100408110D01*
X61874430Y-100408110D01*
X61874429Y-100408109D01*
X61678870Y-100277440D01*
X61512560Y-100111130D01*
X61381891Y-99915571D01*
X61371783Y-99891169D01*
X61291884Y-99698276D01*
X61246000Y-99467600D01*
X61246000Y-99232400D01*
X61291884Y-99001724D01*
X61381890Y-98784431D01*
X61512560Y-98588870D01*
X61678870Y-98422560D01*
X61769919Y-98361723D01*
X61874429Y-98291891D01*
X61874431Y-98291890D01*
X62091724Y-98201884D01*
X62322400Y-98156000D01*
X62557600Y-98156000D01*
X62788276Y-98201884D01*
G37*
G36*
X43738276Y-98201884D02*
G01*
X43955569Y-98291890D01*
X43955571Y-98291891D01*
X44060081Y-98361723D01*
X44151130Y-98422560D01*
X44317440Y-98588870D01*
X44448110Y-98784431D01*
X44538116Y-99001724D01*
X44584000Y-99232400D01*
X44584000Y-99467600D01*
X44538116Y-99698276D01*
X44458217Y-99891169D01*
X44448109Y-99915571D01*
X44317440Y-100111130D01*
X44151130Y-100277440D01*
X43955571Y-100408109D01*
X43955570Y-100408110D01*
X43955569Y-100408110D01*
X43738276Y-100498116D01*
X43507600Y-100544000D01*
X43272400Y-100544000D01*
X43041724Y-100498116D01*
X42824431Y-100408110D01*
X42824430Y-100408110D01*
X42824429Y-100408109D01*
X42628870Y-100277440D01*
X42462560Y-100111130D01*
X42331891Y-99915571D01*
X42321783Y-99891169D01*
X42241884Y-99698276D01*
X42196000Y-99467600D01*
X42196000Y-99232400D01*
X42241884Y-99001724D01*
X42331890Y-98784431D01*
X42462560Y-98588870D01*
X42628870Y-98422560D01*
X42719919Y-98361723D01*
X42824429Y-98291891D01*
X42824431Y-98291890D01*
X43041724Y-98201884D01*
X43272400Y-98156000D01*
X43507600Y-98156000D01*
X43738276Y-98201884D01*
G37*
G36*
X95808276Y-97561884D02*
G01*
X96025569Y-97651890D01*
X96025571Y-97651891D01*
X96209816Y-97775000D01*
X96221130Y-97782560D01*
X96387440Y-97948870D01*
X96518110Y-98144431D01*
X96608116Y-98361724D01*
X96654000Y-98592400D01*
X96654000Y-98827600D01*
X96608116Y-99058276D01*
X96535991Y-99232400D01*
X96518109Y-99275571D01*
X96387440Y-99471130D01*
X96221130Y-99637440D01*
X96025571Y-99768109D01*
X96025570Y-99768110D01*
X96025569Y-99768110D01*
X95808276Y-99858116D01*
X95577600Y-99904000D01*
X95342400Y-99904000D01*
X95111724Y-99858116D01*
X94894431Y-99768110D01*
X94894430Y-99768110D01*
X94894429Y-99768109D01*
X94698870Y-99637440D01*
X94532560Y-99471130D01*
X94401891Y-99275571D01*
X94384009Y-99232400D01*
X94311884Y-99058276D01*
X94266000Y-98827600D01*
X94266000Y-98592400D01*
X94311884Y-98361724D01*
X94401890Y-98144431D01*
X94532560Y-97948870D01*
X94698870Y-97782560D01*
X94710184Y-97775000D01*
X94894429Y-97651891D01*
X94894431Y-97651890D01*
X95111724Y-97561884D01*
X95342400Y-97516000D01*
X95577600Y-97516000D01*
X95808276Y-97561884D01*
G37*
G36*
X103382585Y-95918802D02*
G01*
X103532410Y-95948604D01*
X103814674Y-96065521D01*
X104068705Y-96235259D01*
X104284741Y-96451295D01*
X104454479Y-96705326D01*
X104571396Y-96987590D01*
X104631000Y-97287240D01*
X104631000Y-97592760D01*
X104571396Y-97892410D01*
X104454479Y-98174674D01*
X104284741Y-98428705D01*
X104068705Y-98644741D01*
X103814674Y-98814479D01*
X103532410Y-98931396D01*
X103382585Y-98961198D01*
X103232761Y-98991000D01*
X102927239Y-98991000D01*
X102777415Y-98961198D01*
X102627590Y-98931396D01*
X102345326Y-98814479D01*
X102091295Y-98644741D01*
X101875259Y-98428705D01*
X101705521Y-98174674D01*
X101588604Y-97892410D01*
X101529000Y-97592760D01*
X101529000Y-97287240D01*
X101588604Y-96987590D01*
X101705521Y-96705326D01*
X101875259Y-96451295D01*
X102091295Y-96235259D01*
X102345326Y-96065521D01*
X102627590Y-95948604D01*
X102777415Y-95918802D01*
X102927239Y-95889000D01*
X103232761Y-95889000D01*
X103382585Y-95918802D01*
G37*
G36*
X110230000Y-97775000D02*
G01*
X109230000Y-97775000D01*
X109230000Y-96375000D01*
X110230000Y-96375000D01*
X110230000Y-97775000D01*
G37*
G36*
X98596474Y-92933684D02*
G01*
X98814474Y-93023983D01*
X98968623Y-93087833D01*
X99303548Y-93311623D01*
X99588377Y-93596452D01*
X99812167Y-93931377D01*
X99812167Y-93931378D01*
X99966316Y-94303526D01*
X100044900Y-94698594D01*
X100044900Y-95101406D01*
X99966316Y-95496474D01*
X99876017Y-95714474D01*
X99812167Y-95868623D01*
X99588377Y-96203548D01*
X99303548Y-96488377D01*
X98968623Y-96712167D01*
X98814474Y-96776017D01*
X98596474Y-96866316D01*
X98201406Y-96944900D01*
X97798594Y-96944900D01*
X97403526Y-96866316D01*
X97185526Y-96776017D01*
X97031377Y-96712167D01*
X96696452Y-96488377D01*
X96411623Y-96203548D01*
X96187833Y-95868623D01*
X96123983Y-95714474D01*
X96033684Y-95496474D01*
X95955100Y-95101406D01*
X95955100Y-94698594D01*
X96033684Y-94303526D01*
X96187833Y-93931378D01*
X96187833Y-93931377D01*
X96411623Y-93596452D01*
X96696452Y-93311623D01*
X97031377Y-93087833D01*
X97185526Y-93023983D01*
X97403526Y-92933684D01*
X97798594Y-92855100D01*
X98201406Y-92855100D01*
X98596474Y-92933684D01*
G37*
G36*
X88670000Y-96215000D02*
G01*
X87670000Y-96215000D01*
X87670000Y-94815000D01*
X88670000Y-94815000D01*
X88670000Y-96215000D01*
G37*
G36*
X69450000Y-96215000D02*
G01*
X68450000Y-96215000D01*
X68450000Y-94815000D01*
X69450000Y-94815000D01*
X69450000Y-96215000D01*
G37*
G36*
X50210000Y-96165000D02*
G01*
X49210000Y-96165000D01*
X49210000Y-94765000D01*
X50210000Y-94765000D01*
X50210000Y-96165000D01*
G37*
G36*
X110230000Y-94225000D02*
G01*
X109230000Y-94225000D01*
X109230000Y-92825000D01*
X110230000Y-92825000D01*
X110230000Y-94225000D01*
G37*
G36*
X93268276Y-91211884D02*
G01*
X93485569Y-91301890D01*
X93485571Y-91301891D01*
X93681130Y-91432560D01*
X93847440Y-91598870D01*
X93978110Y-91794431D01*
X94068116Y-92011724D01*
X94114000Y-92242400D01*
X94114000Y-92477600D01*
X94068116Y-92708276D01*
X94019767Y-92825000D01*
X93978109Y-92925571D01*
X93847440Y-93121130D01*
X93681130Y-93287440D01*
X93485571Y-93418109D01*
X93485570Y-93418110D01*
X93485569Y-93418110D01*
X93268276Y-93508116D01*
X93037600Y-93554000D01*
X92802400Y-93554000D01*
X92571724Y-93508116D01*
X92354431Y-93418110D01*
X92354430Y-93418110D01*
X92354429Y-93418109D01*
X92158870Y-93287440D01*
X91992560Y-93121130D01*
X91861891Y-92925571D01*
X91820233Y-92825000D01*
X91771884Y-92708276D01*
X91726000Y-92477600D01*
X91726000Y-92242400D01*
X91771884Y-92011724D01*
X91861890Y-91794431D01*
X91992560Y-91598870D01*
X92158870Y-91432560D01*
X92354429Y-91301891D01*
X92354431Y-91301890D01*
X92571724Y-91211884D01*
X92802400Y-91166000D01*
X93037600Y-91166000D01*
X93268276Y-91211884D01*
G37*
G36*
X88670000Y-92665000D02*
G01*
X87670000Y-92665000D01*
X87670000Y-91265000D01*
X88670000Y-91265000D01*
X88670000Y-92665000D01*
G37*
G36*
X69450000Y-92665000D02*
G01*
X68450000Y-92665000D01*
X68450000Y-91265000D01*
X69450000Y-91265000D01*
X69450000Y-92665000D01*
G37*
G36*
X100842585Y-89568802D02*
G01*
X100992410Y-89598604D01*
X101274674Y-89715521D01*
X101528705Y-89885259D01*
X101744741Y-90101295D01*
X101914479Y-90355326D01*
X102031396Y-90637590D01*
X102091000Y-90937240D01*
X102091000Y-91242760D01*
X102031396Y-91542410D01*
X101914479Y-91824674D01*
X101744741Y-92078705D01*
X101528705Y-92294741D01*
X101274674Y-92464479D01*
X100992410Y-92581396D01*
X100842585Y-92611198D01*
X100692761Y-92641000D01*
X100387239Y-92641000D01*
X100237415Y-92611198D01*
X100087590Y-92581396D01*
X99805326Y-92464479D01*
X99551295Y-92294741D01*
X99335259Y-92078705D01*
X99165521Y-91824674D01*
X99048604Y-91542410D01*
X98989000Y-91242760D01*
X98989000Y-90937240D01*
X99048604Y-90637590D01*
X99165521Y-90355326D01*
X99335259Y-90101295D01*
X99551295Y-89885259D01*
X99805326Y-89715521D01*
X100087590Y-89598604D01*
X100237415Y-89568802D01*
X100387239Y-89539000D01*
X100692761Y-89539000D01*
X100842585Y-89568802D01*
G37*
G36*
X50210000Y-92615000D02*
G01*
X49210000Y-92615000D01*
X49210000Y-91215000D01*
X50210000Y-91215000D01*
X50210000Y-92615000D01*
G37*
G36*
X57662585Y-88938802D02*
G01*
X57812410Y-88968604D01*
X58094674Y-89085521D01*
X58348705Y-89255259D01*
X58564741Y-89471295D01*
X58734479Y-89725326D01*
X58851396Y-90007590D01*
X58851396Y-90007591D01*
X58911000Y-90307239D01*
X58911000Y-90612761D01*
X58906061Y-90637590D01*
X58851396Y-90912410D01*
X58734479Y-91194674D01*
X58564741Y-91448705D01*
X58348705Y-91664741D01*
X58094674Y-91834479D01*
X57812410Y-91951396D01*
X57662585Y-91981198D01*
X57512761Y-92011000D01*
X57207239Y-92011000D01*
X57057415Y-91981198D01*
X56907590Y-91951396D01*
X56625326Y-91834479D01*
X56371295Y-91664741D01*
X56155259Y-91448705D01*
X55985521Y-91194674D01*
X55868604Y-90912410D01*
X55813939Y-90637590D01*
X55809000Y-90612761D01*
X55809000Y-90307239D01*
X55868604Y-90007591D01*
X55868604Y-90007590D01*
X55985521Y-89725326D01*
X56155259Y-89471295D01*
X56371295Y-89255259D01*
X56625326Y-89085521D01*
X56907590Y-88968604D01*
X57057415Y-88938802D01*
X57207239Y-88909000D01*
X57512761Y-88909000D01*
X57662585Y-88938802D01*
G37*
G36*
X38612585Y-88938802D02*
G01*
X38762410Y-88968604D01*
X39044674Y-89085521D01*
X39298705Y-89255259D01*
X39514741Y-89471295D01*
X39684479Y-89725326D01*
X39801396Y-90007590D01*
X39801396Y-90007591D01*
X39861000Y-90307239D01*
X39861000Y-90612761D01*
X39856061Y-90637590D01*
X39801396Y-90912410D01*
X39684479Y-91194674D01*
X39514741Y-91448705D01*
X39298705Y-91664741D01*
X39044674Y-91834479D01*
X38762410Y-91951396D01*
X38612585Y-91981198D01*
X38462761Y-92011000D01*
X38157239Y-92011000D01*
X38007415Y-91981198D01*
X37857590Y-91951396D01*
X37575326Y-91834479D01*
X37321295Y-91664741D01*
X37105259Y-91448705D01*
X36935521Y-91194674D01*
X36818604Y-90912410D01*
X36763939Y-90637590D01*
X36759000Y-90612761D01*
X36759000Y-90307239D01*
X36818604Y-90007591D01*
X36818604Y-90007590D01*
X36935521Y-89725326D01*
X37105259Y-89471295D01*
X37321295Y-89255259D01*
X37575326Y-89085521D01*
X37857590Y-88968604D01*
X38007415Y-88938802D01*
X38157239Y-88909000D01*
X38462761Y-88909000D01*
X38612585Y-88938802D01*
G37*
G36*
X76712585Y-88938802D02*
G01*
X76862410Y-88968604D01*
X77144674Y-89085521D01*
X77398705Y-89255259D01*
X77614741Y-89471295D01*
X77784479Y-89725326D01*
X77901396Y-90007590D01*
X77901396Y-90007591D01*
X77961000Y-90307239D01*
X77961000Y-90612761D01*
X77956061Y-90637590D01*
X77901396Y-90912410D01*
X77784479Y-91194674D01*
X77614741Y-91448705D01*
X77398705Y-91664741D01*
X77144674Y-91834479D01*
X76862410Y-91951396D01*
X76712585Y-91981198D01*
X76562761Y-92011000D01*
X76257239Y-92011000D01*
X76107415Y-91981198D01*
X75957590Y-91951396D01*
X75675326Y-91834479D01*
X75421295Y-91664741D01*
X75205259Y-91448705D01*
X75035521Y-91194674D01*
X74918604Y-90912410D01*
X74863939Y-90637590D01*
X74859000Y-90612761D01*
X74859000Y-90307239D01*
X74918604Y-90007591D01*
X74918604Y-90007590D01*
X75035521Y-89725326D01*
X75205259Y-89471295D01*
X75421295Y-89255259D01*
X75675326Y-89085521D01*
X75957590Y-88968604D01*
X76107415Y-88938802D01*
X76257239Y-88909000D01*
X76562761Y-88909000D01*
X76712585Y-88938802D01*
G37*
G36*
X35886000Y-91761000D02*
G01*
X33234000Y-91761000D01*
X33234000Y-89159000D01*
X35886000Y-89159000D01*
X35886000Y-91761000D01*
G37*
G36*
X73986000Y-91761000D02*
G01*
X71334000Y-91761000D01*
X71334000Y-89159000D01*
X73986000Y-89159000D01*
X73986000Y-91761000D01*
G37*
G36*
X54936000Y-91761000D02*
G01*
X52284000Y-91761000D01*
X52284000Y-89159000D01*
X54936000Y-89159000D01*
X54936000Y-91761000D01*
G37*
G36*
X98175952Y-88935430D02*
G01*
X98263075Y-88952759D01*
X98372498Y-88998084D01*
X98427211Y-89020747D01*
X98524152Y-89085521D01*
X98574928Y-89119448D01*
X98700552Y-89245072D01*
X98700554Y-89245075D01*
X98799253Y-89392789D01*
X98799253Y-89392790D01*
X98867241Y-89556925D01*
X98867241Y-89556927D01*
X98900738Y-89725326D01*
X98901900Y-89731171D01*
X98901900Y-89908829D01*
X98867241Y-90083075D01*
X98859693Y-90101296D01*
X98799253Y-90247211D01*
X98759143Y-90307240D01*
X98700552Y-90394928D01*
X98574928Y-90520552D01*
X98574925Y-90520554D01*
X98427211Y-90619253D01*
X98382941Y-90637590D01*
X98263075Y-90687241D01*
X98175952Y-90704571D01*
X98088831Y-90721900D01*
X97911169Y-90721900D01*
X97824048Y-90704570D01*
X97736925Y-90687241D01*
X97617059Y-90637590D01*
X97572789Y-90619253D01*
X97425075Y-90520554D01*
X97425072Y-90520552D01*
X97299448Y-90394928D01*
X97240857Y-90307240D01*
X97200747Y-90247211D01*
X97140307Y-90101296D01*
X97132759Y-90083075D01*
X97098100Y-89908829D01*
X97098100Y-89731171D01*
X97099263Y-89725326D01*
X97132759Y-89556927D01*
X97132759Y-89556925D01*
X97200747Y-89392790D01*
X97200747Y-89392789D01*
X97299446Y-89245075D01*
X97299448Y-89245072D01*
X97425072Y-89119448D01*
X97475848Y-89085521D01*
X97572789Y-89020747D01*
X97627502Y-88998084D01*
X97736925Y-88952759D01*
X97824048Y-88935430D01*
X97911169Y-88918100D01*
X98088831Y-88918100D01*
X98175952Y-88935430D01*
G37*
G36*
X83062585Y-86398802D02*
G01*
X83212410Y-86428604D01*
X83494674Y-86545521D01*
X83748705Y-86715259D01*
X83964741Y-86931295D01*
X84134479Y-87185326D01*
X84251396Y-87467590D01*
X84311000Y-87767240D01*
X84311000Y-88072760D01*
X84251396Y-88372410D01*
X84134479Y-88654674D01*
X83964741Y-88908705D01*
X83748705Y-89124741D01*
X83494674Y-89294479D01*
X83212410Y-89411396D01*
X83062585Y-89441198D01*
X82912761Y-89471000D01*
X82607239Y-89471000D01*
X82457415Y-89441198D01*
X82307590Y-89411396D01*
X82025326Y-89294479D01*
X81771295Y-89124741D01*
X81555259Y-88908705D01*
X81385521Y-88654674D01*
X81268604Y-88372410D01*
X81209000Y-88072760D01*
X81209000Y-87767240D01*
X81268604Y-87467590D01*
X81385521Y-87185326D01*
X81555259Y-86931295D01*
X81771295Y-86715259D01*
X82025326Y-86545521D01*
X82307590Y-86428604D01*
X82457415Y-86398802D01*
X82607239Y-86369000D01*
X82912761Y-86369000D01*
X83062585Y-86398802D01*
G37*
G36*
X64012585Y-86398802D02*
G01*
X64162410Y-86428604D01*
X64444674Y-86545521D01*
X64698705Y-86715259D01*
X64914741Y-86931295D01*
X65084479Y-87185326D01*
X65201396Y-87467590D01*
X65261000Y-87767240D01*
X65261000Y-88072760D01*
X65201396Y-88372410D01*
X65084479Y-88654674D01*
X64914741Y-88908705D01*
X64698705Y-89124741D01*
X64444674Y-89294479D01*
X64162410Y-89411396D01*
X64012585Y-89441198D01*
X63862761Y-89471000D01*
X63557239Y-89471000D01*
X63407415Y-89441198D01*
X63257590Y-89411396D01*
X62975326Y-89294479D01*
X62721295Y-89124741D01*
X62505259Y-88908705D01*
X62335521Y-88654674D01*
X62218604Y-88372410D01*
X62159000Y-88072760D01*
X62159000Y-87767240D01*
X62218604Y-87467590D01*
X62335521Y-87185326D01*
X62505259Y-86931295D01*
X62721295Y-86715259D01*
X62975326Y-86545521D01*
X63257590Y-86428604D01*
X63407415Y-86398802D01*
X63557239Y-86369000D01*
X63862761Y-86369000D01*
X64012585Y-86398802D01*
G37*
G36*
X44962585Y-86398802D02*
G01*
X45112410Y-86428604D01*
X45394674Y-86545521D01*
X45648705Y-86715259D01*
X45864741Y-86931295D01*
X46034479Y-87185326D01*
X46151396Y-87467590D01*
X46211000Y-87767240D01*
X46211000Y-88072760D01*
X46151396Y-88372410D01*
X46034479Y-88654674D01*
X45864741Y-88908705D01*
X45648705Y-89124741D01*
X45394674Y-89294479D01*
X45112410Y-89411396D01*
X44962585Y-89441198D01*
X44812761Y-89471000D01*
X44507239Y-89471000D01*
X44357415Y-89441198D01*
X44207590Y-89411396D01*
X43925326Y-89294479D01*
X43671295Y-89124741D01*
X43455259Y-88908705D01*
X43285521Y-88654674D01*
X43168604Y-88372410D01*
X43109000Y-88072760D01*
X43109000Y-87767240D01*
X43168604Y-87467590D01*
X43285521Y-87185326D01*
X43455259Y-86931295D01*
X43671295Y-86715259D01*
X43925326Y-86545521D01*
X44207590Y-86428604D01*
X44357415Y-86398802D01*
X44507239Y-86369000D01*
X44812761Y-86369000D01*
X44962585Y-86398802D01*
G37*
G36*
X87836000Y-89221000D02*
G01*
X85184000Y-89221000D01*
X85184000Y-86619000D01*
X87836000Y-86619000D01*
X87836000Y-89221000D01*
G37*
G36*
X68786000Y-89221000D02*
G01*
X66134000Y-89221000D01*
X66134000Y-86619000D01*
X68786000Y-86619000D01*
X68786000Y-89221000D01*
G37*
G36*
X49736000Y-89221000D02*
G01*
X47084000Y-89221000D01*
X47084000Y-86619000D01*
X49736000Y-86619000D01*
X49736000Y-89221000D01*
G37*
G36*
X101841000Y-88666000D02*
G01*
X99239000Y-88666000D01*
X99239000Y-86014000D01*
X101841000Y-86014000D01*
X101841000Y-88666000D01*
G37*
G36*
X41446474Y-83413684D02*
G01*
X41664474Y-83503983D01*
X41818623Y-83567833D01*
X42153548Y-83791623D01*
X42438377Y-84076452D01*
X42662167Y-84411377D01*
X42704871Y-84514474D01*
X42816316Y-84783526D01*
X42894900Y-85178594D01*
X42894900Y-85581406D01*
X42816316Y-85976474D01*
X42732322Y-86179253D01*
X42662167Y-86348623D01*
X42438377Y-86683548D01*
X42153548Y-86968377D01*
X41818623Y-87192167D01*
X41664474Y-87256017D01*
X41446474Y-87346316D01*
X41051406Y-87424900D01*
X40648594Y-87424900D01*
X40253526Y-87346316D01*
X40035526Y-87256017D01*
X39881377Y-87192167D01*
X39546452Y-86968377D01*
X39261623Y-86683548D01*
X39037833Y-86348623D01*
X38967678Y-86179253D01*
X38883684Y-85976474D01*
X38805100Y-85581406D01*
X38805100Y-85178594D01*
X38883684Y-84783526D01*
X38995129Y-84514474D01*
X39037833Y-84411377D01*
X39261623Y-84076452D01*
X39546452Y-83791623D01*
X39881377Y-83567833D01*
X40035526Y-83503983D01*
X40253526Y-83413684D01*
X40648594Y-83335100D01*
X41051406Y-83335100D01*
X41446474Y-83413684D01*
G37*
G36*
X60496474Y-83413684D02*
G01*
X60714474Y-83503983D01*
X60868623Y-83567833D01*
X61203548Y-83791623D01*
X61488377Y-84076452D01*
X61712167Y-84411377D01*
X61754871Y-84514474D01*
X61866316Y-84783526D01*
X61944900Y-85178594D01*
X61944900Y-85581406D01*
X61866316Y-85976474D01*
X61782322Y-86179253D01*
X61712167Y-86348623D01*
X61488377Y-86683548D01*
X61203548Y-86968377D01*
X60868623Y-87192167D01*
X60714474Y-87256017D01*
X60496474Y-87346316D01*
X60101406Y-87424900D01*
X59698594Y-87424900D01*
X59303526Y-87346316D01*
X59085526Y-87256017D01*
X58931377Y-87192167D01*
X58596452Y-86968377D01*
X58311623Y-86683548D01*
X58087833Y-86348623D01*
X58017678Y-86179253D01*
X57933684Y-85976474D01*
X57855100Y-85581406D01*
X57855100Y-85178594D01*
X57933684Y-84783526D01*
X58045129Y-84514474D01*
X58087833Y-84411377D01*
X58311623Y-84076452D01*
X58596452Y-83791623D01*
X58931377Y-83567833D01*
X59085526Y-83503983D01*
X59303526Y-83413684D01*
X59698594Y-83335100D01*
X60101406Y-83335100D01*
X60496474Y-83413684D01*
G37*
G36*
X79546474Y-83413684D02*
G01*
X79764474Y-83503983D01*
X79918623Y-83567833D01*
X80253548Y-83791623D01*
X80538377Y-84076452D01*
X80762167Y-84411377D01*
X80804871Y-84514474D01*
X80916316Y-84783526D01*
X80994900Y-85178594D01*
X80994900Y-85581406D01*
X80916316Y-85976474D01*
X80832322Y-86179253D01*
X80762167Y-86348623D01*
X80538377Y-86683548D01*
X80253548Y-86968377D01*
X79918623Y-87192167D01*
X79764474Y-87256017D01*
X79546474Y-87346316D01*
X79151406Y-87424900D01*
X78748594Y-87424900D01*
X78353526Y-87346316D01*
X78135526Y-87256017D01*
X77981377Y-87192167D01*
X77646452Y-86968377D01*
X77361623Y-86683548D01*
X77137833Y-86348623D01*
X77067678Y-86179253D01*
X76983684Y-85976474D01*
X76905100Y-85581406D01*
X76905100Y-85178594D01*
X76983684Y-84783526D01*
X77095129Y-84514474D01*
X77137833Y-84411377D01*
X77361623Y-84076452D01*
X77646452Y-83791623D01*
X77981377Y-83567833D01*
X78135526Y-83503983D01*
X78353526Y-83413684D01*
X78748594Y-83335100D01*
X79151406Y-83335100D01*
X79546474Y-83413684D01*
G37*
G36*
X46105952Y-84495429D02*
G01*
X46193075Y-84512759D01*
X46302498Y-84558084D01*
X46357211Y-84580747D01*
X46503933Y-84678783D01*
X46504928Y-84679448D01*
X46630552Y-84805072D01*
X46630554Y-84805075D01*
X46729253Y-84952789D01*
X46734856Y-84966316D01*
X46797241Y-85116925D01*
X46831900Y-85291171D01*
X46831900Y-85468829D01*
X46797241Y-85643075D01*
X46751916Y-85752498D01*
X46729253Y-85807211D01*
X46631217Y-85953933D01*
X46630552Y-85954928D01*
X46504928Y-86080552D01*
X46504925Y-86080554D01*
X46357211Y-86179253D01*
X46302498Y-86201916D01*
X46193075Y-86247241D01*
X46105952Y-86264571D01*
X46018831Y-86281900D01*
X45841169Y-86281900D01*
X45754048Y-86264571D01*
X45666925Y-86247241D01*
X45557502Y-86201916D01*
X45502789Y-86179253D01*
X45355075Y-86080554D01*
X45355072Y-86080552D01*
X45229448Y-85954928D01*
X45228783Y-85953933D01*
X45130747Y-85807211D01*
X45108084Y-85752498D01*
X45062759Y-85643075D01*
X45028100Y-85468829D01*
X45028100Y-85291171D01*
X45062759Y-85116925D01*
X45125144Y-84966316D01*
X45130747Y-84952789D01*
X45229446Y-84805075D01*
X45229448Y-84805072D01*
X45355072Y-84679448D01*
X45356067Y-84678783D01*
X45502789Y-84580747D01*
X45557502Y-84558084D01*
X45666925Y-84512759D01*
X45754048Y-84495429D01*
X45841169Y-84478100D01*
X46018831Y-84478100D01*
X46105952Y-84495429D01*
G37*
G36*
X35945952Y-84495429D02*
G01*
X36033075Y-84512759D01*
X36142498Y-84558084D01*
X36197211Y-84580747D01*
X36343933Y-84678783D01*
X36344928Y-84679448D01*
X36470552Y-84805072D01*
X36470554Y-84805075D01*
X36569253Y-84952789D01*
X36574856Y-84966316D01*
X36637241Y-85116925D01*
X36671900Y-85291171D01*
X36671900Y-85468829D01*
X36637241Y-85643075D01*
X36591916Y-85752498D01*
X36569253Y-85807211D01*
X36471217Y-85953933D01*
X36470552Y-85954928D01*
X36344928Y-86080552D01*
X36344925Y-86080554D01*
X36197211Y-86179253D01*
X36142498Y-86201916D01*
X36033075Y-86247241D01*
X35945952Y-86264571D01*
X35858831Y-86281900D01*
X35681169Y-86281900D01*
X35594048Y-86264571D01*
X35506925Y-86247241D01*
X35397502Y-86201916D01*
X35342789Y-86179253D01*
X35195075Y-86080554D01*
X35195072Y-86080552D01*
X35069448Y-85954928D01*
X35068783Y-85953933D01*
X34970747Y-85807211D01*
X34948084Y-85752498D01*
X34902759Y-85643075D01*
X34868100Y-85468829D01*
X34868100Y-85291171D01*
X34902759Y-85116925D01*
X34965144Y-84966316D01*
X34970747Y-84952789D01*
X35069446Y-84805075D01*
X35069448Y-84805072D01*
X35195072Y-84679448D01*
X35196067Y-84678783D01*
X35342789Y-84580747D01*
X35397502Y-84558084D01*
X35506925Y-84512759D01*
X35594048Y-84495429D01*
X35681169Y-84478100D01*
X35858831Y-84478100D01*
X35945952Y-84495429D01*
G37*
G36*
X74045952Y-84495429D02*
G01*
X74133075Y-84512759D01*
X74242498Y-84558084D01*
X74297211Y-84580747D01*
X74443933Y-84678783D01*
X74444928Y-84679448D01*
X74570552Y-84805072D01*
X74570554Y-84805075D01*
X74669253Y-84952789D01*
X74674856Y-84966316D01*
X74737241Y-85116925D01*
X74771900Y-85291171D01*
X74771900Y-85468829D01*
X74737241Y-85643075D01*
X74691916Y-85752498D01*
X74669253Y-85807211D01*
X74571217Y-85953933D01*
X74570552Y-85954928D01*
X74444928Y-86080552D01*
X74444925Y-86080554D01*
X74297211Y-86179253D01*
X74242498Y-86201916D01*
X74133075Y-86247241D01*
X74045952Y-86264571D01*
X73958831Y-86281900D01*
X73781169Y-86281900D01*
X73694048Y-86264571D01*
X73606925Y-86247241D01*
X73497502Y-86201916D01*
X73442789Y-86179253D01*
X73295075Y-86080554D01*
X73295072Y-86080552D01*
X73169448Y-85954928D01*
X73168783Y-85953933D01*
X73070747Y-85807211D01*
X73048084Y-85752498D01*
X73002759Y-85643075D01*
X72968100Y-85468829D01*
X72968100Y-85291171D01*
X73002759Y-85116925D01*
X73065144Y-84966316D01*
X73070747Y-84952789D01*
X73169446Y-84805075D01*
X73169448Y-84805072D01*
X73295072Y-84679448D01*
X73296067Y-84678783D01*
X73442789Y-84580747D01*
X73497502Y-84558084D01*
X73606925Y-84512759D01*
X73694048Y-84495429D01*
X73781169Y-84478100D01*
X73958831Y-84478100D01*
X74045952Y-84495429D01*
G37*
G36*
X54995952Y-84495429D02*
G01*
X55083075Y-84512759D01*
X55192498Y-84558084D01*
X55247211Y-84580747D01*
X55393933Y-84678783D01*
X55394928Y-84679448D01*
X55520552Y-84805072D01*
X55520554Y-84805075D01*
X55619253Y-84952789D01*
X55624856Y-84966316D01*
X55687241Y-85116925D01*
X55721900Y-85291171D01*
X55721900Y-85468829D01*
X55687241Y-85643075D01*
X55641916Y-85752498D01*
X55619253Y-85807211D01*
X55521217Y-85953933D01*
X55520552Y-85954928D01*
X55394928Y-86080552D01*
X55394925Y-86080554D01*
X55247211Y-86179253D01*
X55192498Y-86201916D01*
X55083075Y-86247241D01*
X54995952Y-86264571D01*
X54908831Y-86281900D01*
X54731169Y-86281900D01*
X54644048Y-86264571D01*
X54556925Y-86247241D01*
X54447502Y-86201916D01*
X54392789Y-86179253D01*
X54245075Y-86080554D01*
X54245072Y-86080552D01*
X54119448Y-85954928D01*
X54118783Y-85953933D01*
X54020747Y-85807211D01*
X53998084Y-85752498D01*
X53952759Y-85643075D01*
X53918100Y-85468829D01*
X53918100Y-85291171D01*
X53952759Y-85116925D01*
X54015144Y-84966316D01*
X54020747Y-84952789D01*
X54119446Y-84805075D01*
X54119448Y-84805072D01*
X54245072Y-84679448D01*
X54246067Y-84678783D01*
X54392789Y-84580747D01*
X54447502Y-84558084D01*
X54556925Y-84512759D01*
X54644048Y-84495429D01*
X54731169Y-84478100D01*
X54908831Y-84478100D01*
X54995952Y-84495429D01*
G37*
G36*
X84205952Y-84495429D02*
G01*
X84293075Y-84512759D01*
X84402498Y-84558084D01*
X84457211Y-84580747D01*
X84603933Y-84678783D01*
X84604928Y-84679448D01*
X84730552Y-84805072D01*
X84730554Y-84805075D01*
X84829253Y-84952789D01*
X84834856Y-84966316D01*
X84897241Y-85116925D01*
X84931900Y-85291171D01*
X84931900Y-85468829D01*
X84897241Y-85643075D01*
X84851916Y-85752498D01*
X84829253Y-85807211D01*
X84731217Y-85953933D01*
X84730552Y-85954928D01*
X84604928Y-86080552D01*
X84604925Y-86080554D01*
X84457211Y-86179253D01*
X84402498Y-86201916D01*
X84293075Y-86247241D01*
X84205952Y-86264571D01*
X84118831Y-86281900D01*
X83941169Y-86281900D01*
X83854048Y-86264571D01*
X83766925Y-86247241D01*
X83657502Y-86201916D01*
X83602789Y-86179253D01*
X83455075Y-86080554D01*
X83455072Y-86080552D01*
X83329448Y-85954928D01*
X83328783Y-85953933D01*
X83230747Y-85807211D01*
X83208084Y-85752498D01*
X83162759Y-85643075D01*
X83128100Y-85468829D01*
X83128100Y-85291171D01*
X83162759Y-85116925D01*
X83225144Y-84966316D01*
X83230747Y-84952789D01*
X83329446Y-84805075D01*
X83329448Y-84805072D01*
X83455072Y-84679448D01*
X83456067Y-84678783D01*
X83602789Y-84580747D01*
X83657502Y-84558084D01*
X83766925Y-84512759D01*
X83854048Y-84495429D01*
X83941169Y-84478100D01*
X84118831Y-84478100D01*
X84205952Y-84495429D01*
G37*
G36*
X65155952Y-84495429D02*
G01*
X65243075Y-84512759D01*
X65352498Y-84558084D01*
X65407211Y-84580747D01*
X65553933Y-84678783D01*
X65554928Y-84679448D01*
X65680552Y-84805072D01*
X65680554Y-84805075D01*
X65779253Y-84952789D01*
X65784856Y-84966316D01*
X65847241Y-85116925D01*
X65881900Y-85291171D01*
X65881900Y-85468829D01*
X65847241Y-85643075D01*
X65801916Y-85752498D01*
X65779253Y-85807211D01*
X65681217Y-85953933D01*
X65680552Y-85954928D01*
X65554928Y-86080552D01*
X65554925Y-86080554D01*
X65407211Y-86179253D01*
X65352498Y-86201916D01*
X65243075Y-86247241D01*
X65155952Y-86264571D01*
X65068831Y-86281900D01*
X64891169Y-86281900D01*
X64804048Y-86264571D01*
X64716925Y-86247241D01*
X64607502Y-86201916D01*
X64552789Y-86179253D01*
X64405075Y-86080554D01*
X64405072Y-86080552D01*
X64279448Y-85954928D01*
X64278783Y-85953933D01*
X64180747Y-85807211D01*
X64158084Y-85752498D01*
X64112759Y-85643075D01*
X64078100Y-85468829D01*
X64078100Y-85291171D01*
X64112759Y-85116925D01*
X64175144Y-84966316D01*
X64180747Y-84952789D01*
X64279446Y-84805075D01*
X64279448Y-84805072D01*
X64405072Y-84679448D01*
X64406067Y-84678783D01*
X64552789Y-84580747D01*
X64607502Y-84558084D01*
X64716925Y-84512759D01*
X64804048Y-84495429D01*
X64891169Y-84478100D01*
X65068831Y-84478100D01*
X65155952Y-84495429D01*
G37*
G36*
X106851474Y-81033684D02*
G01*
X107069474Y-81123983D01*
X107223623Y-81187833D01*
X107558548Y-81411623D01*
X107843377Y-81696452D01*
X108067167Y-82031377D01*
X108067167Y-82031378D01*
X108221316Y-82403526D01*
X108299900Y-82798594D01*
X108299900Y-83201406D01*
X108221316Y-83596474D01*
X108131017Y-83814474D01*
X108067167Y-83968623D01*
X107843377Y-84303548D01*
X107558548Y-84588377D01*
X107223623Y-84812167D01*
X107069474Y-84876017D01*
X106851474Y-84966316D01*
X106456406Y-85044900D01*
X106053594Y-85044900D01*
X105658526Y-84966316D01*
X105440526Y-84876017D01*
X105286377Y-84812167D01*
X104951452Y-84588377D01*
X104666623Y-84303548D01*
X104442833Y-83968623D01*
X104378983Y-83814474D01*
X104288684Y-83596474D01*
X104210100Y-83201406D01*
X104210100Y-82798594D01*
X104288684Y-82403526D01*
X104442833Y-82031378D01*
X104442833Y-82031377D01*
X104666623Y-81696452D01*
X104951452Y-81411623D01*
X105286377Y-81187833D01*
X105440526Y-81123983D01*
X105658526Y-81033684D01*
X106053594Y-80955100D01*
X106456406Y-80955100D01*
X106851474Y-81033684D01*
G37*
G36*
X91286332Y-81448115D02*
G01*
X91474411Y-81485526D01*
X91593137Y-81534704D01*
X91761041Y-81604252D01*
X91761042Y-81604253D01*
X92019004Y-81776617D01*
X92238383Y-81995996D01*
X92262024Y-82031378D01*
X92410748Y-82253959D01*
X92472700Y-82403525D01*
X92529474Y-82540589D01*
X92590000Y-82844876D01*
X92590000Y-83155124D01*
X92538570Y-83413684D01*
X92529474Y-83459410D01*
X92410748Y-83746041D01*
X92380291Y-83791623D01*
X92238383Y-84004004D01*
X92019004Y-84223383D01*
X91899028Y-84303548D01*
X91761041Y-84395748D01*
X91593137Y-84465296D01*
X91474411Y-84514474D01*
X91170125Y-84575000D01*
X90859875Y-84575000D01*
X90555589Y-84514474D01*
X90436863Y-84465296D01*
X90268959Y-84395748D01*
X90130972Y-84303548D01*
X90010996Y-84223383D01*
X89791617Y-84004004D01*
X89649709Y-83791623D01*
X89619252Y-83746041D01*
X89500526Y-83459410D01*
X89491431Y-83413684D01*
X89440000Y-83155124D01*
X89440000Y-82844876D01*
X89500526Y-82540589D01*
X89557300Y-82403525D01*
X89619252Y-82253959D01*
X89767976Y-82031378D01*
X89791617Y-81995996D01*
X90010996Y-81776617D01*
X90268958Y-81604253D01*
X90268959Y-81604252D01*
X90436863Y-81534704D01*
X90555589Y-81485526D01*
X90743668Y-81448115D01*
X90859875Y-81425000D01*
X91170125Y-81425000D01*
X91286332Y-81448115D01*
G37*
G36*
X56438276Y-81691884D02*
G01*
X56655569Y-81781890D01*
X56655571Y-81781891D01*
X56851130Y-81912560D01*
X57017440Y-82078870D01*
X57134431Y-82253958D01*
X57148110Y-82274431D01*
X57238116Y-82491724D01*
X57284000Y-82722400D01*
X57284000Y-82957600D01*
X57238116Y-83188276D01*
X57232677Y-83201406D01*
X57148109Y-83405571D01*
X57017440Y-83601130D01*
X56851130Y-83767440D01*
X56655571Y-83898109D01*
X56655570Y-83898110D01*
X56655569Y-83898110D01*
X56438276Y-83988116D01*
X56207600Y-84034000D01*
X55972400Y-84034000D01*
X55741724Y-83988116D01*
X55524431Y-83898110D01*
X55524430Y-83898110D01*
X55524429Y-83898109D01*
X55328870Y-83767440D01*
X55162560Y-83601130D01*
X55031891Y-83405571D01*
X54947323Y-83201406D01*
X54941884Y-83188276D01*
X54896000Y-82957600D01*
X54896000Y-82722400D01*
X54941884Y-82491724D01*
X55031890Y-82274431D01*
X55045570Y-82253958D01*
X55162560Y-82078870D01*
X55328870Y-81912560D01*
X55524429Y-81781891D01*
X55524431Y-81781890D01*
X55741724Y-81691884D01*
X55972400Y-81646000D01*
X56207600Y-81646000D01*
X56438276Y-81691884D01*
G37*
G36*
X37388276Y-81691884D02*
G01*
X37605569Y-81781890D01*
X37605571Y-81781891D01*
X37801130Y-81912560D01*
X37967440Y-82078870D01*
X38084431Y-82253958D01*
X38098110Y-82274431D01*
X38188116Y-82491724D01*
X38234000Y-82722400D01*
X38234000Y-82957600D01*
X38188116Y-83188276D01*
X38182677Y-83201406D01*
X38098109Y-83405571D01*
X37967440Y-83601130D01*
X37801130Y-83767440D01*
X37605571Y-83898109D01*
X37605570Y-83898110D01*
X37605569Y-83898110D01*
X37388276Y-83988116D01*
X37157600Y-84034000D01*
X36922400Y-84034000D01*
X36691724Y-83988116D01*
X36474431Y-83898110D01*
X36474430Y-83898110D01*
X36474429Y-83898109D01*
X36278870Y-83767440D01*
X36112560Y-83601130D01*
X35981891Y-83405571D01*
X35897323Y-83201406D01*
X35891884Y-83188276D01*
X35846000Y-82957600D01*
X35846000Y-82722400D01*
X35891884Y-82491724D01*
X35981890Y-82274431D01*
X35995570Y-82253958D01*
X36112560Y-82078870D01*
X36278870Y-81912560D01*
X36474429Y-81781891D01*
X36474431Y-81781890D01*
X36691724Y-81691884D01*
X36922400Y-81646000D01*
X37157600Y-81646000D01*
X37388276Y-81691884D01*
G37*
G36*
X75488276Y-81691884D02*
G01*
X75705569Y-81781890D01*
X75705571Y-81781891D01*
X75901130Y-81912560D01*
X76067440Y-82078870D01*
X76184431Y-82253958D01*
X76198110Y-82274431D01*
X76288116Y-82491724D01*
X76334000Y-82722400D01*
X76334000Y-82957600D01*
X76288116Y-83188276D01*
X76282677Y-83201406D01*
X76198109Y-83405571D01*
X76067440Y-83601130D01*
X75901130Y-83767440D01*
X75705571Y-83898109D01*
X75705570Y-83898110D01*
X75705569Y-83898110D01*
X75488276Y-83988116D01*
X75257600Y-84034000D01*
X75022400Y-84034000D01*
X74791724Y-83988116D01*
X74574431Y-83898110D01*
X74574430Y-83898110D01*
X74574429Y-83898109D01*
X74378870Y-83767440D01*
X74212560Y-83601130D01*
X74081891Y-83405571D01*
X73997323Y-83201406D01*
X73991884Y-83188276D01*
X73946000Y-82957600D01*
X73946000Y-82722400D01*
X73991884Y-82491724D01*
X74081890Y-82274431D01*
X74095570Y-82253958D01*
X74212560Y-82078870D01*
X74378870Y-81912560D01*
X74574429Y-81781891D01*
X74574431Y-81781890D01*
X74791724Y-81691884D01*
X75022400Y-81646000D01*
X75257600Y-81646000D01*
X75488276Y-81691884D01*
G37*
G36*
X81838276Y-79151884D02*
G01*
X82055569Y-79241890D01*
X82055571Y-79241891D01*
X82251130Y-79372560D01*
X82417440Y-79538870D01*
X82548110Y-79734431D01*
X82638116Y-79951724D01*
X82684000Y-80182400D01*
X82684000Y-80417600D01*
X82638116Y-80648276D01*
X82548110Y-80865569D01*
X82548109Y-80865571D01*
X82417440Y-81061130D01*
X82251130Y-81227440D01*
X82055571Y-81358109D01*
X82055570Y-81358110D01*
X82055569Y-81358110D01*
X81838276Y-81448116D01*
X81607600Y-81494000D01*
X81372400Y-81494000D01*
X81141724Y-81448116D01*
X80924431Y-81358110D01*
X80924430Y-81358110D01*
X80924429Y-81358109D01*
X80728870Y-81227440D01*
X80562560Y-81061130D01*
X80431891Y-80865571D01*
X80431890Y-80865569D01*
X80341884Y-80648276D01*
X80296000Y-80417600D01*
X80296000Y-80182400D01*
X80341884Y-79951724D01*
X80431890Y-79734431D01*
X80562560Y-79538870D01*
X80728870Y-79372560D01*
X80924429Y-79241891D01*
X80924431Y-79241890D01*
X81141724Y-79151884D01*
X81372400Y-79106000D01*
X81607600Y-79106000D01*
X81838276Y-79151884D01*
G37*
G36*
X62788276Y-79151884D02*
G01*
X63005569Y-79241890D01*
X63005571Y-79241891D01*
X63201130Y-79372560D01*
X63367440Y-79538870D01*
X63498110Y-79734431D01*
X63588116Y-79951724D01*
X63634000Y-80182400D01*
X63634000Y-80417600D01*
X63588116Y-80648276D01*
X63498110Y-80865569D01*
X63498109Y-80865571D01*
X63367440Y-81061130D01*
X63201130Y-81227440D01*
X63005571Y-81358109D01*
X63005570Y-81358110D01*
X63005569Y-81358110D01*
X62788276Y-81448116D01*
X62557600Y-81494000D01*
X62322400Y-81494000D01*
X62091724Y-81448116D01*
X61874431Y-81358110D01*
X61874430Y-81358110D01*
X61874429Y-81358109D01*
X61678870Y-81227440D01*
X61512560Y-81061130D01*
X61381891Y-80865571D01*
X61381890Y-80865569D01*
X61291884Y-80648276D01*
X61246000Y-80417600D01*
X61246000Y-80182400D01*
X61291884Y-79951724D01*
X61381890Y-79734431D01*
X61512560Y-79538870D01*
X61678870Y-79372560D01*
X61874429Y-79241891D01*
X61874431Y-79241890D01*
X62091724Y-79151884D01*
X62322400Y-79106000D01*
X62557600Y-79106000D01*
X62788276Y-79151884D01*
G37*
G36*
X43738276Y-79151884D02*
G01*
X43955569Y-79241890D01*
X43955571Y-79241891D01*
X44151130Y-79372560D01*
X44317440Y-79538870D01*
X44448110Y-79734431D01*
X44538116Y-79951724D01*
X44584000Y-80182400D01*
X44584000Y-80417600D01*
X44538116Y-80648276D01*
X44448110Y-80865569D01*
X44448109Y-80865571D01*
X44317440Y-81061130D01*
X44151130Y-81227440D01*
X43955571Y-81358109D01*
X43955570Y-81358110D01*
X43955569Y-81358110D01*
X43738276Y-81448116D01*
X43507600Y-81494000D01*
X43272400Y-81494000D01*
X43041724Y-81448116D01*
X42824431Y-81358110D01*
X42824430Y-81358110D01*
X42824429Y-81358109D01*
X42628870Y-81227440D01*
X42462560Y-81061130D01*
X42331891Y-80865571D01*
X42331890Y-80865569D01*
X42241884Y-80648276D01*
X42196000Y-80417600D01*
X42196000Y-80182400D01*
X42241884Y-79951724D01*
X42331890Y-79734431D01*
X42462560Y-79538870D01*
X42628870Y-79372560D01*
X42824429Y-79241891D01*
X42824431Y-79241890D01*
X43041724Y-79151884D01*
X43272400Y-79106000D01*
X43507600Y-79106000D01*
X43738276Y-79151884D01*
G37*
G36*
X50600000Y-77425000D02*
G01*
X49600000Y-77425000D01*
X49600000Y-76025000D01*
X50600000Y-76025000D01*
X50600000Y-77425000D01*
G37*
G36*
X88390000Y-77420000D02*
G01*
X87390000Y-77420000D01*
X87390000Y-76020000D01*
X88390000Y-76020000D01*
X88390000Y-77420000D01*
G37*
G36*
X68910000Y-77405000D02*
G01*
X67910000Y-77405000D01*
X67910000Y-76005000D01*
X68910000Y-76005000D01*
X68910000Y-77405000D01*
G37*
G36*
X107130000Y-77395000D02*
G01*
X106130000Y-77395000D01*
X106130000Y-75995000D01*
X107130000Y-75995000D01*
X107130000Y-77395000D01*
G37*
G36*
X50600000Y-73875000D02*
G01*
X49600000Y-73875000D01*
X49600000Y-72475000D01*
X50600000Y-72475000D01*
X50600000Y-73875000D01*
G37*
G36*
X88390000Y-73870000D02*
G01*
X87390000Y-73870000D01*
X87390000Y-72470000D01*
X88390000Y-72470000D01*
X88390000Y-73870000D01*
G37*
G36*
X68910000Y-73855000D02*
G01*
X67910000Y-73855000D01*
X67910000Y-72455000D01*
X68910000Y-72455000D01*
X68910000Y-73855000D01*
G37*
G36*
X107130000Y-73845000D02*
G01*
X106130000Y-73845000D01*
X106130000Y-72445000D01*
X107130000Y-72445000D01*
X107130000Y-73845000D01*
G37*
G36*
X38612585Y-69888802D02*
G01*
X38762410Y-69918604D01*
X39044674Y-70035521D01*
X39298705Y-70205259D01*
X39514741Y-70421295D01*
X39684479Y-70675326D01*
X39801396Y-70957590D01*
X39861000Y-71257240D01*
X39861000Y-71562760D01*
X39801396Y-71862410D01*
X39684479Y-72144674D01*
X39514741Y-72398705D01*
X39298705Y-72614741D01*
X39044674Y-72784479D01*
X38762410Y-72901396D01*
X38612585Y-72931198D01*
X38462761Y-72961000D01*
X38157239Y-72961000D01*
X38007415Y-72931198D01*
X37857590Y-72901396D01*
X37575326Y-72784479D01*
X37321295Y-72614741D01*
X37105259Y-72398705D01*
X36935521Y-72144674D01*
X36818604Y-71862410D01*
X36759000Y-71562760D01*
X36759000Y-71257240D01*
X36818604Y-70957590D01*
X36935521Y-70675326D01*
X37105259Y-70421295D01*
X37321295Y-70205259D01*
X37575326Y-70035521D01*
X37857590Y-69918604D01*
X38007415Y-69888802D01*
X38157239Y-69859000D01*
X38462761Y-69859000D01*
X38612585Y-69888802D01*
G37*
G36*
X57662585Y-69888802D02*
G01*
X57812410Y-69918604D01*
X58094674Y-70035521D01*
X58348705Y-70205259D01*
X58564741Y-70421295D01*
X58734479Y-70675326D01*
X58851396Y-70957590D01*
X58911000Y-71257240D01*
X58911000Y-71562760D01*
X58851396Y-71862410D01*
X58734479Y-72144674D01*
X58564741Y-72398705D01*
X58348705Y-72614741D01*
X58094674Y-72784479D01*
X57812410Y-72901396D01*
X57662585Y-72931198D01*
X57512761Y-72961000D01*
X57207239Y-72961000D01*
X57057415Y-72931198D01*
X56907590Y-72901396D01*
X56625326Y-72784479D01*
X56371295Y-72614741D01*
X56155259Y-72398705D01*
X55985521Y-72144674D01*
X55868604Y-71862410D01*
X55809000Y-71562760D01*
X55809000Y-71257240D01*
X55868604Y-70957590D01*
X55985521Y-70675326D01*
X56155259Y-70421295D01*
X56371295Y-70205259D01*
X56625326Y-70035521D01*
X56907590Y-69918604D01*
X57057415Y-69888802D01*
X57207239Y-69859000D01*
X57512761Y-69859000D01*
X57662585Y-69888802D01*
G37*
G36*
X76712585Y-69888802D02*
G01*
X76862410Y-69918604D01*
X77144674Y-70035521D01*
X77398705Y-70205259D01*
X77614741Y-70421295D01*
X77784479Y-70675326D01*
X77901396Y-70957590D01*
X77961000Y-71257240D01*
X77961000Y-71562760D01*
X77901396Y-71862410D01*
X77784479Y-72144674D01*
X77614741Y-72398705D01*
X77398705Y-72614741D01*
X77144674Y-72784479D01*
X76862410Y-72901396D01*
X76712585Y-72931198D01*
X76562761Y-72961000D01*
X76257239Y-72961000D01*
X76107415Y-72931198D01*
X75957590Y-72901396D01*
X75675326Y-72784479D01*
X75421295Y-72614741D01*
X75205259Y-72398705D01*
X75035521Y-72144674D01*
X74918604Y-71862410D01*
X74859000Y-71562760D01*
X74859000Y-71257240D01*
X74918604Y-70957590D01*
X75035521Y-70675326D01*
X75205259Y-70421295D01*
X75421295Y-70205259D01*
X75675326Y-70035521D01*
X75957590Y-69918604D01*
X76107415Y-69888802D01*
X76257239Y-69859000D01*
X76562761Y-69859000D01*
X76712585Y-69888802D01*
G37*
G36*
X95762585Y-69888802D02*
G01*
X95912410Y-69918604D01*
X96194674Y-70035521D01*
X96448705Y-70205259D01*
X96664741Y-70421295D01*
X96834479Y-70675326D01*
X96951396Y-70957590D01*
X97011000Y-71257240D01*
X97011000Y-71562760D01*
X96951396Y-71862410D01*
X96834479Y-72144674D01*
X96664741Y-72398705D01*
X96448705Y-72614741D01*
X96194674Y-72784479D01*
X95912410Y-72901396D01*
X95762585Y-72931198D01*
X95612761Y-72961000D01*
X95307239Y-72961000D01*
X95157415Y-72931198D01*
X95007590Y-72901396D01*
X94725326Y-72784479D01*
X94471295Y-72614741D01*
X94255259Y-72398705D01*
X94085521Y-72144674D01*
X93968604Y-71862410D01*
X93909000Y-71562760D01*
X93909000Y-71257240D01*
X93968604Y-70957590D01*
X94085521Y-70675326D01*
X94255259Y-70421295D01*
X94471295Y-70205259D01*
X94725326Y-70035521D01*
X95007590Y-69918604D01*
X95157415Y-69888802D01*
X95307239Y-69859000D01*
X95612761Y-69859000D01*
X95762585Y-69888802D01*
G37*
G36*
X73986000Y-72711000D02*
G01*
X71334000Y-72711000D01*
X71334000Y-70109000D01*
X73986000Y-70109000D01*
X73986000Y-72711000D01*
G37*
G36*
X54936000Y-72711000D02*
G01*
X52284000Y-72711000D01*
X52284000Y-70109000D01*
X54936000Y-70109000D01*
X54936000Y-72711000D01*
G37*
G36*
X93036000Y-72711000D02*
G01*
X90384000Y-72711000D01*
X90384000Y-70109000D01*
X93036000Y-70109000D01*
X93036000Y-72711000D01*
G37*
G36*
X35886000Y-72711000D02*
G01*
X33234000Y-72711000D01*
X33234000Y-70109000D01*
X35886000Y-70109000D01*
X35886000Y-72711000D01*
G37*
G36*
X44962585Y-67348802D02*
G01*
X45112410Y-67378604D01*
X45394674Y-67495521D01*
X45648705Y-67665259D01*
X45864741Y-67881295D01*
X46034479Y-68135326D01*
X46151396Y-68417590D01*
X46211000Y-68717240D01*
X46211000Y-69022760D01*
X46151396Y-69322410D01*
X46034479Y-69604674D01*
X45864741Y-69858705D01*
X45648705Y-70074741D01*
X45394674Y-70244479D01*
X45112410Y-70361396D01*
X44962585Y-70391198D01*
X44812761Y-70421000D01*
X44507239Y-70421000D01*
X44357415Y-70391198D01*
X44207590Y-70361396D01*
X43925326Y-70244479D01*
X43671295Y-70074741D01*
X43455259Y-69858705D01*
X43285521Y-69604674D01*
X43168604Y-69322410D01*
X43109000Y-69022760D01*
X43109000Y-68717240D01*
X43168604Y-68417590D01*
X43285521Y-68135326D01*
X43455259Y-67881295D01*
X43671295Y-67665259D01*
X43925326Y-67495521D01*
X44207590Y-67378604D01*
X44357415Y-67348802D01*
X44507239Y-67319000D01*
X44812761Y-67319000D01*
X44962585Y-67348802D01*
G37*
G36*
X64012585Y-67348802D02*
G01*
X64162410Y-67378604D01*
X64444674Y-67495521D01*
X64698705Y-67665259D01*
X64914741Y-67881295D01*
X65084479Y-68135326D01*
X65201396Y-68417590D01*
X65261000Y-68717240D01*
X65261000Y-69022760D01*
X65201396Y-69322410D01*
X65084479Y-69604674D01*
X64914741Y-69858705D01*
X64698705Y-70074741D01*
X64444674Y-70244479D01*
X64162410Y-70361396D01*
X64012585Y-70391198D01*
X63862761Y-70421000D01*
X63557239Y-70421000D01*
X63407415Y-70391198D01*
X63257590Y-70361396D01*
X62975326Y-70244479D01*
X62721295Y-70074741D01*
X62505259Y-69858705D01*
X62335521Y-69604674D01*
X62218604Y-69322410D01*
X62159000Y-69022760D01*
X62159000Y-68717240D01*
X62218604Y-68417590D01*
X62335521Y-68135326D01*
X62505259Y-67881295D01*
X62721295Y-67665259D01*
X62975326Y-67495521D01*
X63257590Y-67378604D01*
X63407415Y-67348802D01*
X63557239Y-67319000D01*
X63862761Y-67319000D01*
X64012585Y-67348802D01*
G37*
G36*
X102112585Y-67348802D02*
G01*
X102262410Y-67378604D01*
X102544674Y-67495521D01*
X102798705Y-67665259D01*
X103014741Y-67881295D01*
X103184479Y-68135326D01*
X103301396Y-68417590D01*
X103361000Y-68717240D01*
X103361000Y-69022760D01*
X103301396Y-69322410D01*
X103184479Y-69604674D01*
X103014741Y-69858705D01*
X102798705Y-70074741D01*
X102544674Y-70244479D01*
X102262410Y-70361396D01*
X102112585Y-70391198D01*
X101962761Y-70421000D01*
X101657239Y-70421000D01*
X101507415Y-70391198D01*
X101357590Y-70361396D01*
X101075326Y-70244479D01*
X100821295Y-70074741D01*
X100605259Y-69858705D01*
X100435521Y-69604674D01*
X100318604Y-69322410D01*
X100259000Y-69022760D01*
X100259000Y-68717240D01*
X100318604Y-68417590D01*
X100435521Y-68135326D01*
X100605259Y-67881295D01*
X100821295Y-67665259D01*
X101075326Y-67495521D01*
X101357590Y-67378604D01*
X101507415Y-67348802D01*
X101657239Y-67319000D01*
X101962761Y-67319000D01*
X102112585Y-67348802D01*
G37*
G36*
X83062585Y-67348802D02*
G01*
X83212410Y-67378604D01*
X83494674Y-67495521D01*
X83748705Y-67665259D01*
X83964741Y-67881295D01*
X84134479Y-68135326D01*
X84251396Y-68417590D01*
X84311000Y-68717240D01*
X84311000Y-69022760D01*
X84251396Y-69322410D01*
X84134479Y-69604674D01*
X83964741Y-69858705D01*
X83748705Y-70074741D01*
X83494674Y-70244479D01*
X83212410Y-70361396D01*
X83062585Y-70391198D01*
X82912761Y-70421000D01*
X82607239Y-70421000D01*
X82457415Y-70391198D01*
X82307590Y-70361396D01*
X82025326Y-70244479D01*
X81771295Y-70074741D01*
X81555259Y-69858705D01*
X81385521Y-69604674D01*
X81268604Y-69322410D01*
X81209000Y-69022760D01*
X81209000Y-68717240D01*
X81268604Y-68417590D01*
X81385521Y-68135326D01*
X81555259Y-67881295D01*
X81771295Y-67665259D01*
X82025326Y-67495521D01*
X82307590Y-67378604D01*
X82457415Y-67348802D01*
X82607239Y-67319000D01*
X82912761Y-67319000D01*
X83062585Y-67348802D01*
G37*
G36*
X68786000Y-70171000D02*
G01*
X66134000Y-70171000D01*
X66134000Y-67569000D01*
X68786000Y-67569000D01*
X68786000Y-70171000D01*
G37*
G36*
X106886000Y-70171000D02*
G01*
X104234000Y-70171000D01*
X104234000Y-67569000D01*
X106886000Y-67569000D01*
X106886000Y-70171000D01*
G37*
G36*
X87836000Y-70171000D02*
G01*
X85184000Y-70171000D01*
X85184000Y-67569000D01*
X87836000Y-67569000D01*
X87836000Y-70171000D01*
G37*
G36*
X49736000Y-70171000D02*
G01*
X47084000Y-70171000D01*
X47084000Y-67569000D01*
X49736000Y-67569000D01*
X49736000Y-70171000D01*
G37*
G36*
X79546474Y-64363684D02*
G01*
X79764474Y-64453983D01*
X79918623Y-64517833D01*
X80253548Y-64741623D01*
X80538377Y-65026452D01*
X80762167Y-65361377D01*
X80826017Y-65515526D01*
X80916316Y-65733526D01*
X80994900Y-66128594D01*
X80994900Y-66531406D01*
X80916316Y-66926474D01*
X80832322Y-67129253D01*
X80762167Y-67298623D01*
X80538377Y-67633548D01*
X80253548Y-67918377D01*
X79918623Y-68142167D01*
X79764474Y-68206017D01*
X79546474Y-68296316D01*
X79151406Y-68374900D01*
X78748594Y-68374900D01*
X78353526Y-68296316D01*
X78135526Y-68206017D01*
X77981377Y-68142167D01*
X77646452Y-67918377D01*
X77361623Y-67633548D01*
X77137833Y-67298623D01*
X77067678Y-67129253D01*
X76983684Y-66926474D01*
X76905100Y-66531406D01*
X76905100Y-66128594D01*
X76983684Y-65733526D01*
X77073983Y-65515526D01*
X77137833Y-65361377D01*
X77361623Y-65026452D01*
X77646452Y-64741623D01*
X77981377Y-64517833D01*
X78135526Y-64453983D01*
X78353526Y-64363684D01*
X78748594Y-64285100D01*
X79151406Y-64285100D01*
X79546474Y-64363684D01*
G37*
G36*
X41446474Y-64363684D02*
G01*
X41664474Y-64453983D01*
X41818623Y-64517833D01*
X42153548Y-64741623D01*
X42438377Y-65026452D01*
X42662167Y-65361377D01*
X42726017Y-65515526D01*
X42816316Y-65733526D01*
X42894900Y-66128594D01*
X42894900Y-66531406D01*
X42816316Y-66926474D01*
X42732322Y-67129253D01*
X42662167Y-67298623D01*
X42438377Y-67633548D01*
X42153548Y-67918377D01*
X41818623Y-68142167D01*
X41664474Y-68206017D01*
X41446474Y-68296316D01*
X41051406Y-68374900D01*
X40648594Y-68374900D01*
X40253526Y-68296316D01*
X40035526Y-68206017D01*
X39881377Y-68142167D01*
X39546452Y-67918377D01*
X39261623Y-67633548D01*
X39037833Y-67298623D01*
X38967678Y-67129253D01*
X38883684Y-66926474D01*
X38805100Y-66531406D01*
X38805100Y-66128594D01*
X38883684Y-65733526D01*
X38973983Y-65515526D01*
X39037833Y-65361377D01*
X39261623Y-65026452D01*
X39546452Y-64741623D01*
X39881377Y-64517833D01*
X40035526Y-64453983D01*
X40253526Y-64363684D01*
X40648594Y-64285100D01*
X41051406Y-64285100D01*
X41446474Y-64363684D01*
G37*
G36*
X60496474Y-64363684D02*
G01*
X60714474Y-64453983D01*
X60868623Y-64517833D01*
X61203548Y-64741623D01*
X61488377Y-65026452D01*
X61712167Y-65361377D01*
X61776017Y-65515526D01*
X61866316Y-65733526D01*
X61944900Y-66128594D01*
X61944900Y-66531406D01*
X61866316Y-66926474D01*
X61782322Y-67129253D01*
X61712167Y-67298623D01*
X61488377Y-67633548D01*
X61203548Y-67918377D01*
X60868623Y-68142167D01*
X60714474Y-68206017D01*
X60496474Y-68296316D01*
X60101406Y-68374900D01*
X59698594Y-68374900D01*
X59303526Y-68296316D01*
X59085526Y-68206017D01*
X58931377Y-68142167D01*
X58596452Y-67918377D01*
X58311623Y-67633548D01*
X58087833Y-67298623D01*
X58017678Y-67129253D01*
X57933684Y-66926474D01*
X57855100Y-66531406D01*
X57855100Y-66128594D01*
X57933684Y-65733526D01*
X58023983Y-65515526D01*
X58087833Y-65361377D01*
X58311623Y-65026452D01*
X58596452Y-64741623D01*
X58931377Y-64517833D01*
X59085526Y-64453983D01*
X59303526Y-64363684D01*
X59698594Y-64285100D01*
X60101406Y-64285100D01*
X60496474Y-64363684D01*
G37*
G36*
X98596474Y-64363684D02*
G01*
X98814474Y-64453983D01*
X98968623Y-64517833D01*
X99303548Y-64741623D01*
X99588377Y-65026452D01*
X99812167Y-65361377D01*
X99876017Y-65515526D01*
X99966316Y-65733526D01*
X100044900Y-66128594D01*
X100044900Y-66531406D01*
X99966316Y-66926474D01*
X99882322Y-67129253D01*
X99812167Y-67298623D01*
X99588377Y-67633548D01*
X99303548Y-67918377D01*
X98968623Y-68142167D01*
X98814474Y-68206017D01*
X98596474Y-68296316D01*
X98201406Y-68374900D01*
X97798594Y-68374900D01*
X97403526Y-68296316D01*
X97185526Y-68206017D01*
X97031377Y-68142167D01*
X96696452Y-67918377D01*
X96411623Y-67633548D01*
X96187833Y-67298623D01*
X96117678Y-67129253D01*
X96033684Y-66926474D01*
X95955100Y-66531406D01*
X95955100Y-66128594D01*
X96033684Y-65733526D01*
X96123983Y-65515526D01*
X96187833Y-65361377D01*
X96411623Y-65026452D01*
X96696452Y-64741623D01*
X97031377Y-64517833D01*
X97185526Y-64453983D01*
X97403526Y-64363684D01*
X97798594Y-64285100D01*
X98201406Y-64285100D01*
X98596474Y-64363684D01*
G37*
G36*
X35945952Y-65445429D02*
G01*
X36033075Y-65462759D01*
X36142498Y-65508084D01*
X36197211Y-65530747D01*
X36343933Y-65628783D01*
X36344928Y-65629448D01*
X36470552Y-65755072D01*
X36470554Y-65755075D01*
X36569253Y-65902789D01*
X36569253Y-65902790D01*
X36637241Y-66066925D01*
X36671900Y-66241171D01*
X36671900Y-66418829D01*
X36637241Y-66593075D01*
X36591916Y-66702498D01*
X36569253Y-66757211D01*
X36471217Y-66903933D01*
X36470552Y-66904928D01*
X36344928Y-67030552D01*
X36344925Y-67030554D01*
X36197211Y-67129253D01*
X36142498Y-67151916D01*
X36033075Y-67197241D01*
X35945952Y-67214570D01*
X35858831Y-67231900D01*
X35681169Y-67231900D01*
X35594048Y-67214570D01*
X35506925Y-67197241D01*
X35397502Y-67151916D01*
X35342789Y-67129253D01*
X35195075Y-67030554D01*
X35195072Y-67030552D01*
X35069448Y-66904928D01*
X35068783Y-66903933D01*
X34970747Y-66757211D01*
X34948084Y-66702498D01*
X34902759Y-66593075D01*
X34868100Y-66418829D01*
X34868100Y-66241171D01*
X34902759Y-66066925D01*
X34970747Y-65902790D01*
X34970747Y-65902789D01*
X35069446Y-65755075D01*
X35069448Y-65755072D01*
X35195072Y-65629448D01*
X35196067Y-65628783D01*
X35342789Y-65530747D01*
X35397502Y-65508084D01*
X35506925Y-65462759D01*
X35594048Y-65445429D01*
X35681169Y-65428100D01*
X35858831Y-65428100D01*
X35945952Y-65445429D01*
G37*
G36*
X103255952Y-65445429D02*
G01*
X103343075Y-65462759D01*
X103452498Y-65508084D01*
X103507211Y-65530747D01*
X103653933Y-65628783D01*
X103654928Y-65629448D01*
X103780552Y-65755072D01*
X103780554Y-65755075D01*
X103879253Y-65902789D01*
X103879253Y-65902790D01*
X103947241Y-66066925D01*
X103981900Y-66241171D01*
X103981900Y-66418829D01*
X103947241Y-66593075D01*
X103901916Y-66702498D01*
X103879253Y-66757211D01*
X103781217Y-66903933D01*
X103780552Y-66904928D01*
X103654928Y-67030552D01*
X103654925Y-67030554D01*
X103507211Y-67129253D01*
X103452498Y-67151916D01*
X103343075Y-67197241D01*
X103255952Y-67214570D01*
X103168831Y-67231900D01*
X102991169Y-67231900D01*
X102904048Y-67214570D01*
X102816925Y-67197241D01*
X102707502Y-67151916D01*
X102652789Y-67129253D01*
X102505075Y-67030554D01*
X102505072Y-67030552D01*
X102379448Y-66904928D01*
X102378783Y-66903933D01*
X102280747Y-66757211D01*
X102258084Y-66702498D01*
X102212759Y-66593075D01*
X102178100Y-66418829D01*
X102178100Y-66241171D01*
X102212759Y-66066925D01*
X102280747Y-65902790D01*
X102280747Y-65902789D01*
X102379446Y-65755075D01*
X102379448Y-65755072D01*
X102505072Y-65629448D01*
X102506067Y-65628783D01*
X102652789Y-65530747D01*
X102707502Y-65508084D01*
X102816925Y-65462759D01*
X102904048Y-65445429D01*
X102991169Y-65428100D01*
X103168831Y-65428100D01*
X103255952Y-65445429D01*
G37*
G36*
X93095952Y-65445429D02*
G01*
X93183075Y-65462759D01*
X93292498Y-65508084D01*
X93347211Y-65530747D01*
X93493933Y-65628783D01*
X93494928Y-65629448D01*
X93620552Y-65755072D01*
X93620554Y-65755075D01*
X93719253Y-65902789D01*
X93719253Y-65902790D01*
X93787241Y-66066925D01*
X93821900Y-66241171D01*
X93821900Y-66418829D01*
X93787241Y-66593075D01*
X93741916Y-66702498D01*
X93719253Y-66757211D01*
X93621217Y-66903933D01*
X93620552Y-66904928D01*
X93494928Y-67030552D01*
X93494925Y-67030554D01*
X93347211Y-67129253D01*
X93292498Y-67151916D01*
X93183075Y-67197241D01*
X93095952Y-67214570D01*
X93008831Y-67231900D01*
X92831169Y-67231900D01*
X92744048Y-67214570D01*
X92656925Y-67197241D01*
X92547502Y-67151916D01*
X92492789Y-67129253D01*
X92345075Y-67030554D01*
X92345072Y-67030552D01*
X92219448Y-66904928D01*
X92218783Y-66903933D01*
X92120747Y-66757211D01*
X92098084Y-66702498D01*
X92052759Y-66593075D01*
X92018100Y-66418829D01*
X92018100Y-66241171D01*
X92052759Y-66066925D01*
X92120747Y-65902790D01*
X92120747Y-65902789D01*
X92219446Y-65755075D01*
X92219448Y-65755072D01*
X92345072Y-65629448D01*
X92346067Y-65628783D01*
X92492789Y-65530747D01*
X92547502Y-65508084D01*
X92656925Y-65462759D01*
X92744048Y-65445429D01*
X92831169Y-65428100D01*
X93008831Y-65428100D01*
X93095952Y-65445429D01*
G37*
G36*
X84205952Y-65445429D02*
G01*
X84293075Y-65462759D01*
X84402498Y-65508084D01*
X84457211Y-65530747D01*
X84603933Y-65628783D01*
X84604928Y-65629448D01*
X84730552Y-65755072D01*
X84730554Y-65755075D01*
X84829253Y-65902789D01*
X84829253Y-65902790D01*
X84897241Y-66066925D01*
X84931900Y-66241171D01*
X84931900Y-66418829D01*
X84897241Y-66593075D01*
X84851916Y-66702498D01*
X84829253Y-66757211D01*
X84731217Y-66903933D01*
X84730552Y-66904928D01*
X84604928Y-67030552D01*
X84604925Y-67030554D01*
X84457211Y-67129253D01*
X84402498Y-67151916D01*
X84293075Y-67197241D01*
X84205952Y-67214570D01*
X84118831Y-67231900D01*
X83941169Y-67231900D01*
X83854048Y-67214570D01*
X83766925Y-67197241D01*
X83657502Y-67151916D01*
X83602789Y-67129253D01*
X83455075Y-67030554D01*
X83455072Y-67030552D01*
X83329448Y-66904928D01*
X83328783Y-66903933D01*
X83230747Y-66757211D01*
X83208084Y-66702498D01*
X83162759Y-66593075D01*
X83128100Y-66418829D01*
X83128100Y-66241171D01*
X83162759Y-66066925D01*
X83230747Y-65902790D01*
X83230747Y-65902789D01*
X83329446Y-65755075D01*
X83329448Y-65755072D01*
X83455072Y-65629448D01*
X83456067Y-65628783D01*
X83602789Y-65530747D01*
X83657502Y-65508084D01*
X83766925Y-65462759D01*
X83854048Y-65445429D01*
X83941169Y-65428100D01*
X84118831Y-65428100D01*
X84205952Y-65445429D01*
G37*
G36*
X74045952Y-65445429D02*
G01*
X74133075Y-65462759D01*
X74242498Y-65508084D01*
X74297211Y-65530747D01*
X74443933Y-65628783D01*
X74444928Y-65629448D01*
X74570552Y-65755072D01*
X74570554Y-65755075D01*
X74669253Y-65902789D01*
X74669253Y-65902790D01*
X74737241Y-66066925D01*
X74771900Y-66241171D01*
X74771900Y-66418829D01*
X74737241Y-66593075D01*
X74691916Y-66702498D01*
X74669253Y-66757211D01*
X74571217Y-66903933D01*
X74570552Y-66904928D01*
X74444928Y-67030552D01*
X74444925Y-67030554D01*
X74297211Y-67129253D01*
X74242498Y-67151916D01*
X74133075Y-67197241D01*
X74045952Y-67214570D01*
X73958831Y-67231900D01*
X73781169Y-67231900D01*
X73694048Y-67214570D01*
X73606925Y-67197241D01*
X73497502Y-67151916D01*
X73442789Y-67129253D01*
X73295075Y-67030554D01*
X73295072Y-67030552D01*
X73169448Y-66904928D01*
X73168783Y-66903933D01*
X73070747Y-66757211D01*
X73048084Y-66702498D01*
X73002759Y-66593075D01*
X72968100Y-66418829D01*
X72968100Y-66241171D01*
X73002759Y-66066925D01*
X73070747Y-65902790D01*
X73070747Y-65902789D01*
X73169446Y-65755075D01*
X73169448Y-65755072D01*
X73295072Y-65629448D01*
X73296067Y-65628783D01*
X73442789Y-65530747D01*
X73497502Y-65508084D01*
X73606925Y-65462759D01*
X73694048Y-65445429D01*
X73781169Y-65428100D01*
X73958831Y-65428100D01*
X74045952Y-65445429D01*
G37*
G36*
X65155952Y-65445429D02*
G01*
X65243075Y-65462759D01*
X65352498Y-65508084D01*
X65407211Y-65530747D01*
X65553933Y-65628783D01*
X65554928Y-65629448D01*
X65680552Y-65755072D01*
X65680554Y-65755075D01*
X65779253Y-65902789D01*
X65779253Y-65902790D01*
X65847241Y-66066925D01*
X65881900Y-66241171D01*
X65881900Y-66418829D01*
X65847241Y-66593075D01*
X65801916Y-66702498D01*
X65779253Y-66757211D01*
X65681217Y-66903933D01*
X65680552Y-66904928D01*
X65554928Y-67030552D01*
X65554925Y-67030554D01*
X65407211Y-67129253D01*
X65352498Y-67151916D01*
X65243075Y-67197241D01*
X65155952Y-67214570D01*
X65068831Y-67231900D01*
X64891169Y-67231900D01*
X64804048Y-67214570D01*
X64716925Y-67197241D01*
X64607502Y-67151916D01*
X64552789Y-67129253D01*
X64405075Y-67030554D01*
X64405072Y-67030552D01*
X64279448Y-66904928D01*
X64278783Y-66903933D01*
X64180747Y-66757211D01*
X64158084Y-66702498D01*
X64112759Y-66593075D01*
X64078100Y-66418829D01*
X64078100Y-66241171D01*
X64112759Y-66066925D01*
X64180747Y-65902790D01*
X64180747Y-65902789D01*
X64279446Y-65755075D01*
X64279448Y-65755072D01*
X64405072Y-65629448D01*
X64406067Y-65628783D01*
X64552789Y-65530747D01*
X64607502Y-65508084D01*
X64716925Y-65462759D01*
X64804048Y-65445429D01*
X64891169Y-65428100D01*
X65068831Y-65428100D01*
X65155952Y-65445429D01*
G37*
G36*
X54995952Y-65445429D02*
G01*
X55083075Y-65462759D01*
X55192498Y-65508084D01*
X55247211Y-65530747D01*
X55393933Y-65628783D01*
X55394928Y-65629448D01*
X55520552Y-65755072D01*
X55520554Y-65755075D01*
X55619253Y-65902789D01*
X55619253Y-65902790D01*
X55687241Y-66066925D01*
X55721900Y-66241171D01*
X55721900Y-66418829D01*
X55687241Y-66593075D01*
X55641916Y-66702498D01*
X55619253Y-66757211D01*
X55521217Y-66903933D01*
X55520552Y-66904928D01*
X55394928Y-67030552D01*
X55394925Y-67030554D01*
X55247211Y-67129253D01*
X55192498Y-67151916D01*
X55083075Y-67197241D01*
X54995952Y-67214570D01*
X54908831Y-67231900D01*
X54731169Y-67231900D01*
X54644048Y-67214570D01*
X54556925Y-67197241D01*
X54447502Y-67151916D01*
X54392789Y-67129253D01*
X54245075Y-67030554D01*
X54245072Y-67030552D01*
X54119448Y-66904928D01*
X54118783Y-66903933D01*
X54020747Y-66757211D01*
X53998084Y-66702498D01*
X53952759Y-66593075D01*
X53918100Y-66418829D01*
X53918100Y-66241171D01*
X53952759Y-66066925D01*
X54020747Y-65902790D01*
X54020747Y-65902789D01*
X54119446Y-65755075D01*
X54119448Y-65755072D01*
X54245072Y-65629448D01*
X54246067Y-65628783D01*
X54392789Y-65530747D01*
X54447502Y-65508084D01*
X54556925Y-65462759D01*
X54644048Y-65445429D01*
X54731169Y-65428100D01*
X54908831Y-65428100D01*
X54995952Y-65445429D01*
G37*
G36*
X46105952Y-65445429D02*
G01*
X46193075Y-65462759D01*
X46302498Y-65508084D01*
X46357211Y-65530747D01*
X46503933Y-65628783D01*
X46504928Y-65629448D01*
X46630552Y-65755072D01*
X46630554Y-65755075D01*
X46729253Y-65902789D01*
X46729253Y-65902790D01*
X46797241Y-66066925D01*
X46831900Y-66241171D01*
X46831900Y-66418829D01*
X46797241Y-66593075D01*
X46751916Y-66702498D01*
X46729253Y-66757211D01*
X46631217Y-66903933D01*
X46630552Y-66904928D01*
X46504928Y-67030552D01*
X46504925Y-67030554D01*
X46357211Y-67129253D01*
X46302498Y-67151916D01*
X46193075Y-67197241D01*
X46105952Y-67214570D01*
X46018831Y-67231900D01*
X45841169Y-67231900D01*
X45754048Y-67214570D01*
X45666925Y-67197241D01*
X45557502Y-67151916D01*
X45502789Y-67129253D01*
X45355075Y-67030554D01*
X45355072Y-67030552D01*
X45229448Y-66904928D01*
X45228783Y-66903933D01*
X45130747Y-66757211D01*
X45108084Y-66702498D01*
X45062759Y-66593075D01*
X45028100Y-66418829D01*
X45028100Y-66241171D01*
X45062759Y-66066925D01*
X45130747Y-65902790D01*
X45130747Y-65902789D01*
X45229446Y-65755075D01*
X45229448Y-65755072D01*
X45355072Y-65629448D01*
X45356067Y-65628783D01*
X45502789Y-65530747D01*
X45557502Y-65508084D01*
X45666925Y-65462759D01*
X45754048Y-65445429D01*
X45841169Y-65428100D01*
X46018831Y-65428100D01*
X46105952Y-65445429D01*
G37*
G36*
X94538276Y-62641884D02*
G01*
X94755569Y-62731890D01*
X94755571Y-62731891D01*
X94951130Y-62862560D01*
X95117440Y-63028870D01*
X95248110Y-63224431D01*
X95338116Y-63441724D01*
X95384000Y-63672400D01*
X95384000Y-63907600D01*
X95338116Y-64138276D01*
X95277299Y-64285100D01*
X95248109Y-64355571D01*
X95117440Y-64551130D01*
X94951130Y-64717440D01*
X94755571Y-64848109D01*
X94755570Y-64848110D01*
X94755569Y-64848110D01*
X94538276Y-64938116D01*
X94307600Y-64984000D01*
X94072400Y-64984000D01*
X93841724Y-64938116D01*
X93624431Y-64848110D01*
X93624430Y-64848110D01*
X93624429Y-64848109D01*
X93428870Y-64717440D01*
X93262560Y-64551130D01*
X93131891Y-64355571D01*
X93102701Y-64285100D01*
X93041884Y-64138276D01*
X92996000Y-63907600D01*
X92996000Y-63672400D01*
X93041884Y-63441724D01*
X93131890Y-63224431D01*
X93262560Y-63028870D01*
X93428870Y-62862560D01*
X93624429Y-62731891D01*
X93624431Y-62731890D01*
X93841724Y-62641884D01*
X94072400Y-62596000D01*
X94307600Y-62596000D01*
X94538276Y-62641884D01*
G37*
G36*
X37388276Y-62641884D02*
G01*
X37605569Y-62731890D01*
X37605571Y-62731891D01*
X37801130Y-62862560D01*
X37967440Y-63028870D01*
X38098110Y-63224431D01*
X38188116Y-63441724D01*
X38234000Y-63672400D01*
X38234000Y-63907600D01*
X38188116Y-64138276D01*
X38127299Y-64285100D01*
X38098109Y-64355571D01*
X37967440Y-64551130D01*
X37801130Y-64717440D01*
X37605571Y-64848109D01*
X37605570Y-64848110D01*
X37605569Y-64848110D01*
X37388276Y-64938116D01*
X37157600Y-64984000D01*
X36922400Y-64984000D01*
X36691724Y-64938116D01*
X36474431Y-64848110D01*
X36474430Y-64848110D01*
X36474429Y-64848109D01*
X36278870Y-64717440D01*
X36112560Y-64551130D01*
X35981891Y-64355571D01*
X35952701Y-64285100D01*
X35891884Y-64138276D01*
X35846000Y-63907600D01*
X35846000Y-63672400D01*
X35891884Y-63441724D01*
X35981890Y-63224431D01*
X36112560Y-63028870D01*
X36278870Y-62862560D01*
X36474429Y-62731891D01*
X36474431Y-62731890D01*
X36691724Y-62641884D01*
X36922400Y-62596000D01*
X37157600Y-62596000D01*
X37388276Y-62641884D01*
G37*
G36*
X56438276Y-62641884D02*
G01*
X56655569Y-62731890D01*
X56655571Y-62731891D01*
X56851130Y-62862560D01*
X57017440Y-63028870D01*
X57148110Y-63224431D01*
X57238116Y-63441724D01*
X57284000Y-63672400D01*
X57284000Y-63907600D01*
X57238116Y-64138276D01*
X57177299Y-64285100D01*
X57148109Y-64355571D01*
X57017440Y-64551130D01*
X56851130Y-64717440D01*
X56655571Y-64848109D01*
X56655570Y-64848110D01*
X56655569Y-64848110D01*
X56438276Y-64938116D01*
X56207600Y-64984000D01*
X55972400Y-64984000D01*
X55741724Y-64938116D01*
X55524431Y-64848110D01*
X55524430Y-64848110D01*
X55524429Y-64848109D01*
X55328870Y-64717440D01*
X55162560Y-64551130D01*
X55031891Y-64355571D01*
X55002701Y-64285100D01*
X54941884Y-64138276D01*
X54896000Y-63907600D01*
X54896000Y-63672400D01*
X54941884Y-63441724D01*
X55031890Y-63224431D01*
X55162560Y-63028870D01*
X55328870Y-62862560D01*
X55524429Y-62731891D01*
X55524431Y-62731890D01*
X55741724Y-62641884D01*
X55972400Y-62596000D01*
X56207600Y-62596000D01*
X56438276Y-62641884D01*
G37*
G36*
X75488276Y-62641884D02*
G01*
X75705569Y-62731890D01*
X75705571Y-62731891D01*
X75901130Y-62862560D01*
X76067440Y-63028870D01*
X76198110Y-63224431D01*
X76288116Y-63441724D01*
X76334000Y-63672400D01*
X76334000Y-63907600D01*
X76288116Y-64138276D01*
X76227299Y-64285100D01*
X76198109Y-64355571D01*
X76067440Y-64551130D01*
X75901130Y-64717440D01*
X75705571Y-64848109D01*
X75705570Y-64848110D01*
X75705569Y-64848110D01*
X75488276Y-64938116D01*
X75257600Y-64984000D01*
X75022400Y-64984000D01*
X74791724Y-64938116D01*
X74574431Y-64848110D01*
X74574430Y-64848110D01*
X74574429Y-64848109D01*
X74378870Y-64717440D01*
X74212560Y-64551130D01*
X74081891Y-64355571D01*
X74052701Y-64285100D01*
X73991884Y-64138276D01*
X73946000Y-63907600D01*
X73946000Y-63672400D01*
X73991884Y-63441724D01*
X74081890Y-63224431D01*
X74212560Y-63028870D01*
X74378870Y-62862560D01*
X74574429Y-62731891D01*
X74574431Y-62731890D01*
X74791724Y-62641884D01*
X75022400Y-62596000D01*
X75257600Y-62596000D01*
X75488276Y-62641884D01*
G37*
G36*
X62788276Y-60101884D02*
G01*
X63005569Y-60191890D01*
X63005571Y-60191891D01*
X63088319Y-60247182D01*
X63201130Y-60322560D01*
X63367440Y-60488870D01*
X63498110Y-60684431D01*
X63588116Y-60901724D01*
X63634000Y-61132400D01*
X63634000Y-61367600D01*
X63588116Y-61598276D01*
X63498110Y-61815569D01*
X63498109Y-61815571D01*
X63367440Y-62011130D01*
X63201130Y-62177440D01*
X63005571Y-62308109D01*
X63005570Y-62308110D01*
X63005569Y-62308110D01*
X62788276Y-62398116D01*
X62557600Y-62444000D01*
X62322400Y-62444000D01*
X62091724Y-62398116D01*
X61874431Y-62308110D01*
X61874430Y-62308110D01*
X61874429Y-62308109D01*
X61678870Y-62177440D01*
X61512560Y-62011130D01*
X61381891Y-61815571D01*
X61381890Y-61815569D01*
X61291884Y-61598276D01*
X61246000Y-61367600D01*
X61246000Y-61132400D01*
X61291884Y-60901724D01*
X61381890Y-60684431D01*
X61512560Y-60488870D01*
X61678870Y-60322560D01*
X61791681Y-60247182D01*
X61874429Y-60191891D01*
X61874431Y-60191890D01*
X62091724Y-60101884D01*
X62322400Y-60056000D01*
X62557600Y-60056000D01*
X62788276Y-60101884D01*
G37*
G36*
X81838276Y-60101884D02*
G01*
X82055569Y-60191890D01*
X82055571Y-60191891D01*
X82138319Y-60247182D01*
X82251130Y-60322560D01*
X82417440Y-60488870D01*
X82548110Y-60684431D01*
X82638116Y-60901724D01*
X82684000Y-61132400D01*
X82684000Y-61367600D01*
X82638116Y-61598276D01*
X82548110Y-61815569D01*
X82548109Y-61815571D01*
X82417440Y-62011130D01*
X82251130Y-62177440D01*
X82055571Y-62308109D01*
X82055570Y-62308110D01*
X82055569Y-62308110D01*
X81838276Y-62398116D01*
X81607600Y-62444000D01*
X81372400Y-62444000D01*
X81141724Y-62398116D01*
X80924431Y-62308110D01*
X80924430Y-62308110D01*
X80924429Y-62308109D01*
X80728870Y-62177440D01*
X80562560Y-62011130D01*
X80431891Y-61815571D01*
X80431890Y-61815569D01*
X80341884Y-61598276D01*
X80296000Y-61367600D01*
X80296000Y-61132400D01*
X80341884Y-60901724D01*
X80431890Y-60684431D01*
X80562560Y-60488870D01*
X80728870Y-60322560D01*
X80841681Y-60247182D01*
X80924429Y-60191891D01*
X80924431Y-60191890D01*
X81141724Y-60101884D01*
X81372400Y-60056000D01*
X81607600Y-60056000D01*
X81838276Y-60101884D01*
G37*
G36*
X43738276Y-60101884D02*
G01*
X43955569Y-60191890D01*
X43955571Y-60191891D01*
X44038319Y-60247182D01*
X44151130Y-60322560D01*
X44317440Y-60488870D01*
X44448110Y-60684431D01*
X44538116Y-60901724D01*
X44584000Y-61132400D01*
X44584000Y-61367600D01*
X44538116Y-61598276D01*
X44448110Y-61815569D01*
X44448109Y-61815571D01*
X44317440Y-62011130D01*
X44151130Y-62177440D01*
X43955571Y-62308109D01*
X43955570Y-62308110D01*
X43955569Y-62308110D01*
X43738276Y-62398116D01*
X43507600Y-62444000D01*
X43272400Y-62444000D01*
X43041724Y-62398116D01*
X42824431Y-62308110D01*
X42824430Y-62308110D01*
X42824429Y-62308109D01*
X42628870Y-62177440D01*
X42462560Y-62011130D01*
X42331891Y-61815571D01*
X42331890Y-61815569D01*
X42241884Y-61598276D01*
X42196000Y-61367600D01*
X42196000Y-61132400D01*
X42241884Y-60901724D01*
X42331890Y-60684431D01*
X42462560Y-60488870D01*
X42628870Y-60322560D01*
X42741681Y-60247182D01*
X42824429Y-60191891D01*
X42824431Y-60191890D01*
X43041724Y-60101884D01*
X43272400Y-60056000D01*
X43507600Y-60056000D01*
X43738276Y-60101884D01*
G37*
G36*
X100888276Y-60101884D02*
G01*
X101105569Y-60191890D01*
X101105571Y-60191891D01*
X101188319Y-60247182D01*
X101301130Y-60322560D01*
X101467440Y-60488870D01*
X101598110Y-60684431D01*
X101688116Y-60901724D01*
X101734000Y-61132400D01*
X101734000Y-61367600D01*
X101688116Y-61598276D01*
X101598110Y-61815569D01*
X101598109Y-61815571D01*
X101467440Y-62011130D01*
X101301130Y-62177440D01*
X101105571Y-62308109D01*
X101105570Y-62308110D01*
X101105569Y-62308110D01*
X100888276Y-62398116D01*
X100657600Y-62444000D01*
X100422400Y-62444000D01*
X100191724Y-62398116D01*
X99974431Y-62308110D01*
X99974430Y-62308110D01*
X99974429Y-62308109D01*
X99778870Y-62177440D01*
X99612560Y-62011130D01*
X99481891Y-61815571D01*
X99481890Y-61815569D01*
X99391884Y-61598276D01*
X99346000Y-61367600D01*
X99346000Y-61132400D01*
X99391884Y-60901724D01*
X99481890Y-60684431D01*
X99612560Y-60488870D01*
X99778870Y-60322560D01*
X99891681Y-60247182D01*
X99974429Y-60191891D01*
X99974431Y-60191890D01*
X100191724Y-60101884D01*
X100422400Y-60056000D01*
X100657600Y-60056000D01*
X100888276Y-60101884D01*
G37*
G36*
X109072080Y-59658929D02*
G01*
X109074482Y-59683315D01*
X109081595Y-59706764D01*
X109093146Y-59728375D01*
X109108691Y-59747317D01*
X109127633Y-59762862D01*
X109149244Y-59774413D01*
X109172693Y-59781526D01*
X109197079Y-59783928D01*
X109221465Y-59781526D01*
X109244914Y-59774413D01*
X109266525Y-59762862D01*
X109285467Y-59747317D01*
X109301012Y-59728375D01*
X109312563Y-59706764D01*
X109344170Y-59630458D01*
X109415415Y-59523832D01*
X109506092Y-59433155D01*
X109612716Y-59361911D01*
X109731190Y-59312837D01*
X109856961Y-59287820D01*
X109985199Y-59287820D01*
X110110970Y-59312837D01*
X110229444Y-59361911D01*
X110336068Y-59433155D01*
X110426745Y-59523832D01*
X110497989Y-59630456D01*
X110547063Y-59748930D01*
X110572080Y-59874702D01*
X110572080Y-60002938D01*
X110547063Y-60128710D01*
X110497989Y-60247184D01*
X110426745Y-60353808D01*
X110336068Y-60444485D01*
X110229444Y-60515729D01*
X110229443Y-60515730D01*
X110229442Y-60515730D01*
X110110970Y-60564803D01*
X109985199Y-60589820D01*
X109856961Y-60589820D01*
X109731190Y-60564803D01*
X109612718Y-60515730D01*
X109612717Y-60515730D01*
X109612716Y-60515729D01*
X109506092Y-60444485D01*
X109415415Y-60353808D01*
X109344171Y-60247184D01*
X109312563Y-60170875D01*
X109301012Y-60149265D01*
X109285467Y-60130323D01*
X109266525Y-60114778D01*
X109244914Y-60103227D01*
X109221465Y-60096114D01*
X109197079Y-60093712D01*
X109172693Y-60096114D01*
X109149244Y-60103227D01*
X109127633Y-60114778D01*
X109108691Y-60130323D01*
X109093146Y-60149265D01*
X109081595Y-60170876D01*
X109074482Y-60194325D01*
X109072080Y-60218711D01*
X109072080Y-60589820D01*
X107770080Y-60589820D01*
X107770080Y-59287820D01*
X109072080Y-59287820D01*
X109072080Y-59658929D01*
G37*
G36*
X101030000Y-53060000D02*
G01*
X100030000Y-53060000D01*
X100030000Y-51660000D01*
X101030000Y-51660000D01*
X101030000Y-53060000D01*
G37*
G36*
X101030000Y-49510000D02*
G01*
X100030000Y-49510000D01*
X100030000Y-48110000D01*
X101030000Y-48110000D01*
X101030000Y-49510000D01*
G37*
G36*
X100806564Y-43819389D02*
G01*
X100997833Y-43898615D01*
X100997835Y-43898616D01*
X101169973Y-44013635D01*
X101316365Y-44160027D01*
X101431385Y-44332167D01*
X101510611Y-44523436D01*
X101551000Y-44726484D01*
X101551000Y-44933516D01*
X101510611Y-45136564D01*
X101431385Y-45327833D01*
X101431384Y-45327835D01*
X101316365Y-45499973D01*
X101169973Y-45646365D01*
X100997835Y-45761384D01*
X100997834Y-45761385D01*
X100997833Y-45761385D01*
X100806564Y-45840611D01*
X100603516Y-45881000D01*
X100396484Y-45881000D01*
X100193436Y-45840611D01*
X100002167Y-45761385D01*
X100002166Y-45761385D01*
X100002165Y-45761384D01*
X99830027Y-45646365D01*
X99683635Y-45499973D01*
X99568616Y-45327835D01*
X99568615Y-45327833D01*
X99489389Y-45136564D01*
X99449000Y-44933516D01*
X99449000Y-44726484D01*
X99489389Y-44523436D01*
X99568615Y-44332167D01*
X99683635Y-44160027D01*
X99830027Y-44013635D01*
X100002165Y-43898616D01*
X100002167Y-43898615D01*
X100193436Y-43819389D01*
X100396484Y-43779000D01*
X100603516Y-43779000D01*
X100806564Y-43819389D01*
G37*
G36*
X95806564Y-43819389D02*
G01*
X95997833Y-43898615D01*
X95997835Y-43898616D01*
X96169973Y-44013635D01*
X96316365Y-44160027D01*
X96431385Y-44332167D01*
X96510611Y-44523436D01*
X96551000Y-44726484D01*
X96551000Y-44933516D01*
X96510611Y-45136564D01*
X96431385Y-45327833D01*
X96431384Y-45327835D01*
X96316365Y-45499973D01*
X96169973Y-45646365D01*
X95997835Y-45761384D01*
X95997834Y-45761385D01*
X95997833Y-45761385D01*
X95806564Y-45840611D01*
X95603516Y-45881000D01*
X95396484Y-45881000D01*
X95193436Y-45840611D01*
X95002167Y-45761385D01*
X95002166Y-45761385D01*
X95002165Y-45761384D01*
X94830027Y-45646365D01*
X94683635Y-45499973D01*
X94568616Y-45327835D01*
X94568615Y-45327833D01*
X94489389Y-45136564D01*
X94449000Y-44933516D01*
X94449000Y-44726484D01*
X94489389Y-44523436D01*
X94568615Y-44332167D01*
X94683635Y-44160027D01*
X94830027Y-44013635D01*
X95002165Y-43898616D01*
X95002167Y-43898615D01*
X95193436Y-43819389D01*
X95396484Y-43779000D01*
X95603516Y-43779000D01*
X95806564Y-43819389D01*
G37*
G36*
X92704049Y-35801442D02*
G01*
X92996414Y-35890130D01*
X92996416Y-35890131D01*
X93265858Y-36034150D01*
X93502029Y-36227971D01*
X93695850Y-36464142D01*
X93839869Y-36733584D01*
X93839870Y-36733586D01*
X93928558Y-37025951D01*
X93951000Y-37253810D01*
X93951000Y-38406190D01*
X93928558Y-38634049D01*
X93876397Y-38806000D01*
X93839869Y-38926416D01*
X93695850Y-39195858D01*
X93589395Y-39325574D01*
X93502029Y-39432029D01*
X93301768Y-39596378D01*
X93265856Y-39625850D01*
X92996415Y-39769869D01*
X92996413Y-39769870D01*
X92704048Y-39858558D01*
X92400000Y-39888504D01*
X92095951Y-39858558D01*
X91803586Y-39769870D01*
X91803584Y-39769869D01*
X91534142Y-39625850D01*
X91404426Y-39519395D01*
X91297971Y-39432029D01*
X91104151Y-39195857D01*
X90960130Y-38926413D01*
X90871442Y-38634048D01*
X90849000Y-38406189D01*
X90849000Y-37253810D01*
X90871442Y-37025951D01*
X90960130Y-36733586D01*
X91104151Y-36464142D01*
X91297972Y-36227971D01*
X91534143Y-36034150D01*
X91803585Y-35890131D01*
X91803587Y-35890130D01*
X92095952Y-35801442D01*
X92400000Y-35771496D01*
X92704049Y-35801442D01*
G37*
G36*
X103904049Y-35801442D02*
G01*
X104196414Y-35890130D01*
X104196416Y-35890131D01*
X104465858Y-36034150D01*
X104702029Y-36227971D01*
X104895850Y-36464142D01*
X105039869Y-36733584D01*
X105039870Y-36733586D01*
X105128558Y-37025951D01*
X105151000Y-37253810D01*
X105151000Y-38406190D01*
X105128558Y-38634049D01*
X105076397Y-38806000D01*
X105039869Y-38926416D01*
X104895850Y-39195858D01*
X104789395Y-39325574D01*
X104702029Y-39432029D01*
X104501768Y-39596378D01*
X104465856Y-39625850D01*
X104196415Y-39769869D01*
X104196413Y-39769870D01*
X103904048Y-39858558D01*
X103600000Y-39888504D01*
X103295951Y-39858558D01*
X103003586Y-39769870D01*
X103003584Y-39769869D01*
X102734142Y-39625850D01*
X102604426Y-39519395D01*
X102497971Y-39432029D01*
X102304151Y-39195857D01*
X102160130Y-38926413D01*
X102071442Y-38634048D01*
X102049000Y-38406189D01*
X102049000Y-37253810D01*
X102071442Y-37025951D01*
X102160130Y-36733586D01*
X102304151Y-36464142D01*
X102497972Y-36227971D01*
X102734143Y-36034150D01*
X103003585Y-35890131D01*
X103003587Y-35890130D01*
X103295952Y-35801442D01*
X103600000Y-35771496D01*
X103904049Y-35801442D01*
G37*
G36*
X35824499Y-37758445D02*
G01*
X35861995Y-37769820D01*
X35896554Y-37788292D01*
X35926847Y-37813153D01*
X35951708Y-37843446D01*
X35970180Y-37878005D01*
X35981555Y-37915501D01*
X35986000Y-37960638D01*
X35986000Y-38599362D01*
X35981555Y-38644499D01*
X35970180Y-38681995D01*
X35951708Y-38716554D01*
X35926847Y-38746847D01*
X35896554Y-38771708D01*
X35861995Y-38790180D01*
X35824499Y-38801555D01*
X35779362Y-38806000D01*
X35040638Y-38806000D01*
X34995501Y-38801555D01*
X34958005Y-38790180D01*
X34923446Y-38771708D01*
X34893153Y-38746847D01*
X34868292Y-38716554D01*
X34849820Y-38681995D01*
X34838445Y-38644499D01*
X34834000Y-38599362D01*
X34834000Y-37960638D01*
X34838445Y-37915501D01*
X34849820Y-37878005D01*
X34868292Y-37843446D01*
X34893153Y-37813153D01*
X34923446Y-37788292D01*
X34958005Y-37769820D01*
X34995501Y-37758445D01*
X35040638Y-37754000D01*
X35779362Y-37754000D01*
X35824499Y-37758445D01*
G37*
G36*
X34074499Y-37758445D02*
G01*
X34111995Y-37769820D01*
X34146554Y-37788292D01*
X34176847Y-37813153D01*
X34201708Y-37843446D01*
X34220180Y-37878005D01*
X34231555Y-37915501D01*
X34236000Y-37960638D01*
X34236000Y-38599362D01*
X34231555Y-38644499D01*
X34220180Y-38681995D01*
X34201708Y-38716554D01*
X34176847Y-38746847D01*
X34146554Y-38771708D01*
X34111995Y-38790180D01*
X34074499Y-38801555D01*
X34029362Y-38806000D01*
X33290638Y-38806000D01*
X33245501Y-38801555D01*
X33208005Y-38790180D01*
X33173446Y-38771708D01*
X33143153Y-38746847D01*
X33118292Y-38716554D01*
X33099820Y-38681995D01*
X33088445Y-38644499D01*
X33084000Y-38599362D01*
X33084000Y-37960638D01*
X33088445Y-37915501D01*
X33099820Y-37878005D01*
X33118292Y-37843446D01*
X33143153Y-37813153D01*
X33173446Y-37788292D01*
X33208005Y-37769820D01*
X33245501Y-37758445D01*
X33290638Y-37754000D01*
X34029362Y-37754000D01*
X34074499Y-37758445D01*
G37*
G36*
X31104499Y-34633445D02*
G01*
X31141995Y-34644820D01*
X31176554Y-34663292D01*
X31206847Y-34688153D01*
X31231708Y-34718446D01*
X31250180Y-34753005D01*
X31261555Y-34790501D01*
X31266000Y-34835638D01*
X31266000Y-35574362D01*
X31261555Y-35619499D01*
X31250180Y-35656995D01*
X31231708Y-35691554D01*
X31206847Y-35721847D01*
X31176554Y-35746708D01*
X31141995Y-35765180D01*
X31104499Y-35776555D01*
X31059362Y-35781000D01*
X30420638Y-35781000D01*
X30375501Y-35776555D01*
X30338005Y-35765180D01*
X30303446Y-35746708D01*
X30273153Y-35721847D01*
X30248292Y-35691554D01*
X30229820Y-35656995D01*
X30218445Y-35619499D01*
X30214000Y-35574362D01*
X30214000Y-34835638D01*
X30218445Y-34790501D01*
X30229820Y-34753005D01*
X30248292Y-34718446D01*
X30273153Y-34688153D01*
X30303446Y-34663292D01*
X30338005Y-34644820D01*
X30375501Y-34633445D01*
X30420638Y-34629000D01*
X31059362Y-34629000D01*
X31104499Y-34633445D01*
G37*
G36*
X35429890Y-32804017D02*
G01*
X35548364Y-32853091D01*
X35654988Y-32924335D01*
X35745665Y-33015012D01*
X35816909Y-33121636D01*
X35865983Y-33240110D01*
X35891000Y-33365882D01*
X35891000Y-33494118D01*
X35865983Y-33619890D01*
X35816909Y-33738364D01*
X35745665Y-33844988D01*
X35654988Y-33935665D01*
X35548364Y-34006909D01*
X35548363Y-34006910D01*
X35548362Y-34006910D01*
X35429890Y-34055983D01*
X35304119Y-34081000D01*
X35175881Y-34081000D01*
X35050110Y-34055983D01*
X34931638Y-34006910D01*
X34931637Y-34006910D01*
X34931636Y-34006909D01*
X34825012Y-33935665D01*
X34734335Y-33844988D01*
X34663091Y-33738364D01*
X34614017Y-33619890D01*
X34589000Y-33494118D01*
X34589000Y-33365882D01*
X34614017Y-33240110D01*
X34663091Y-33121636D01*
X34734335Y-33015012D01*
X34825012Y-32924335D01*
X34931636Y-32853091D01*
X35050110Y-32804017D01*
X35175881Y-32779000D01*
X35304119Y-32779000D01*
X35429890Y-32804017D01*
G37*
G36*
X31104499Y-32883445D02*
G01*
X31141995Y-32894820D01*
X31176554Y-32913292D01*
X31206847Y-32938153D01*
X31231708Y-32968446D01*
X31250180Y-33003005D01*
X31261555Y-33040501D01*
X31266000Y-33085638D01*
X31266000Y-33824362D01*
X31261555Y-33869499D01*
X31250180Y-33906995D01*
X31231708Y-33941554D01*
X31206847Y-33971847D01*
X31176554Y-33996708D01*
X31141995Y-34015180D01*
X31104499Y-34026555D01*
X31059362Y-34031000D01*
X30420638Y-34031000D01*
X30375501Y-34026555D01*
X30338005Y-34015180D01*
X30303446Y-33996708D01*
X30273153Y-33971847D01*
X30248292Y-33941554D01*
X30229820Y-33906995D01*
X30218445Y-33869499D01*
X30214000Y-33824362D01*
X30214000Y-33085638D01*
X30218445Y-33040501D01*
X30229820Y-33003005D01*
X30248292Y-32968446D01*
X30273153Y-32938153D01*
X30303446Y-32913292D01*
X30338005Y-32894820D01*
X30375501Y-32883445D01*
X30420638Y-32879000D01*
X31059362Y-32879000D01*
X31104499Y-32883445D01*
G37*
G36*
X98306564Y-29319389D02*
G01*
X98497833Y-29398615D01*
X98497835Y-29398616D01*
X98669973Y-29513635D01*
X98816365Y-29660027D01*
X98917207Y-29810947D01*
X98931385Y-29832167D01*
X99010611Y-30023436D01*
X99051000Y-30226484D01*
X99051000Y-30433516D01*
X99010611Y-30636564D01*
X98931385Y-30827833D01*
X98931384Y-30827835D01*
X98816365Y-30999973D01*
X98669973Y-31146365D01*
X98497835Y-31261384D01*
X98497834Y-31261385D01*
X98497833Y-31261385D01*
X98306564Y-31340611D01*
X98103516Y-31381000D01*
X97896484Y-31381000D01*
X97693436Y-31340611D01*
X97502167Y-31261385D01*
X97502166Y-31261385D01*
X97502165Y-31261384D01*
X97330027Y-31146365D01*
X97183635Y-30999973D01*
X97068616Y-30827835D01*
X97068615Y-30827833D01*
X96989389Y-30636564D01*
X96949000Y-30433516D01*
X96949000Y-30226484D01*
X96989389Y-30023436D01*
X97068615Y-29832167D01*
X97082794Y-29810947D01*
X97183635Y-29660027D01*
X97330027Y-29513635D01*
X97502165Y-29398616D01*
X97502167Y-29398615D01*
X97693436Y-29319389D01*
X97896484Y-29279000D01*
X98103516Y-29279000D01*
X98306564Y-29319389D01*
G37*
G36*
X100806564Y-29319389D02*
G01*
X100997833Y-29398615D01*
X100997835Y-29398616D01*
X101169973Y-29513635D01*
X101316365Y-29660027D01*
X101417207Y-29810947D01*
X101431385Y-29832167D01*
X101510611Y-30023436D01*
X101551000Y-30226484D01*
X101551000Y-30433516D01*
X101510611Y-30636564D01*
X101431385Y-30827833D01*
X101431384Y-30827835D01*
X101316365Y-30999973D01*
X101169973Y-31146365D01*
X100997835Y-31261384D01*
X100997834Y-31261385D01*
X100997833Y-31261385D01*
X100806564Y-31340611D01*
X100603516Y-31381000D01*
X100396484Y-31381000D01*
X100193436Y-31340611D01*
X100002167Y-31261385D01*
X100002166Y-31261385D01*
X100002165Y-31261384D01*
X99830027Y-31146365D01*
X99683635Y-30999973D01*
X99568616Y-30827835D01*
X99568615Y-30827833D01*
X99489389Y-30636564D01*
X99449000Y-30433516D01*
X99449000Y-30226484D01*
X99489389Y-30023436D01*
X99568615Y-29832167D01*
X99582794Y-29810947D01*
X99683635Y-29660027D01*
X99830027Y-29513635D01*
X100002165Y-29398616D01*
X100002167Y-29398615D01*
X100193436Y-29319389D01*
X100396484Y-29279000D01*
X100603516Y-29279000D01*
X100806564Y-29319389D01*
G37*
G36*
X95806564Y-29319389D02*
G01*
X95997833Y-29398615D01*
X95997835Y-29398616D01*
X96169973Y-29513635D01*
X96316365Y-29660027D01*
X96417207Y-29810947D01*
X96431385Y-29832167D01*
X96510611Y-30023436D01*
X96551000Y-30226484D01*
X96551000Y-30433516D01*
X96510611Y-30636564D01*
X96431385Y-30827833D01*
X96431384Y-30827835D01*
X96316365Y-30999973D01*
X96169973Y-31146365D01*
X95997835Y-31261384D01*
X95997834Y-31261385D01*
X95997833Y-31261385D01*
X95806564Y-31340611D01*
X95603516Y-31381000D01*
X95396484Y-31381000D01*
X95193436Y-31340611D01*
X95002167Y-31261385D01*
X95002166Y-31261385D01*
X95002165Y-31261384D01*
X94830027Y-31146365D01*
X94683635Y-30999973D01*
X94568616Y-30827835D01*
X94568615Y-30827833D01*
X94489389Y-30636564D01*
X94449000Y-30433516D01*
X94449000Y-30226484D01*
X94489389Y-30023436D01*
X94568615Y-29832167D01*
X94582794Y-29810947D01*
X94683635Y-29660027D01*
X94830027Y-29513635D01*
X95002165Y-29398616D01*
X95002167Y-29398615D01*
X95193436Y-29319389D01*
X95396484Y-29279000D01*
X95603516Y-29279000D01*
X95806564Y-29319389D01*
G37*
G36*
X104034499Y-28768445D02*
G01*
X104071995Y-28779820D01*
X104106554Y-28798292D01*
X104136847Y-28823153D01*
X104161708Y-28853446D01*
X104180180Y-28888005D01*
X104191555Y-28925501D01*
X104196000Y-28970638D01*
X104196000Y-29609362D01*
X104191555Y-29654499D01*
X104180180Y-29691995D01*
X104161708Y-29726554D01*
X104136847Y-29756847D01*
X104106554Y-29781708D01*
X104071995Y-29800180D01*
X104034499Y-29811555D01*
X103989362Y-29816000D01*
X103250638Y-29816000D01*
X103205501Y-29811555D01*
X103168005Y-29800180D01*
X103133446Y-29781708D01*
X103103153Y-29756847D01*
X103078292Y-29726554D01*
X103059820Y-29691995D01*
X103048445Y-29654499D01*
X103044000Y-29609362D01*
X103044000Y-28970638D01*
X103048445Y-28925501D01*
X103059820Y-28888005D01*
X103078292Y-28853446D01*
X103103153Y-28823153D01*
X103133446Y-28798292D01*
X103168005Y-28779820D01*
X103205501Y-28768445D01*
X103250638Y-28764000D01*
X103989362Y-28764000D01*
X104034499Y-28768445D01*
G37*
G36*
X105784499Y-28768445D02*
G01*
X105821995Y-28779820D01*
X105856554Y-28798292D01*
X105886847Y-28823153D01*
X105911708Y-28853446D01*
X105930180Y-28888005D01*
X105941555Y-28925501D01*
X105946000Y-28970638D01*
X105946000Y-29609362D01*
X105941555Y-29654499D01*
X105930180Y-29691995D01*
X105911708Y-29726554D01*
X105886847Y-29756847D01*
X105856554Y-29781708D01*
X105821995Y-29800180D01*
X105784499Y-29811555D01*
X105739362Y-29816000D01*
X105000638Y-29816000D01*
X104955501Y-29811555D01*
X104918005Y-29800180D01*
X104883446Y-29781708D01*
X104853153Y-29756847D01*
X104828292Y-29726554D01*
X104809820Y-29691995D01*
X104798445Y-29654499D01*
X104794000Y-29609362D01*
X104794000Y-28970638D01*
X104798445Y-28925501D01*
X104809820Y-28888005D01*
X104828292Y-28853446D01*
X104853153Y-28823153D01*
X104883446Y-28798292D01*
X104918005Y-28779820D01*
X104955501Y-28768445D01*
X105000638Y-28764000D01*
X105739362Y-28764000D01*
X105784499Y-28768445D01*
G37*
G36*
X91534499Y-28768445D02*
G01*
X91571995Y-28779820D01*
X91606554Y-28798292D01*
X91636847Y-28823153D01*
X91661708Y-28853446D01*
X91680180Y-28888005D01*
X91691555Y-28925501D01*
X91696000Y-28970638D01*
X91696000Y-29609362D01*
X91691555Y-29654499D01*
X91680180Y-29691995D01*
X91661708Y-29726554D01*
X91636847Y-29756847D01*
X91606554Y-29781708D01*
X91571995Y-29800180D01*
X91534499Y-29811555D01*
X91489362Y-29816000D01*
X90750638Y-29816000D01*
X90705501Y-29811555D01*
X90668005Y-29800180D01*
X90633446Y-29781708D01*
X90603153Y-29756847D01*
X90578292Y-29726554D01*
X90559820Y-29691995D01*
X90548445Y-29654499D01*
X90544000Y-29609362D01*
X90544000Y-28970638D01*
X90548445Y-28925501D01*
X90559820Y-28888005D01*
X90578292Y-28853446D01*
X90603153Y-28823153D01*
X90633446Y-28798292D01*
X90668005Y-28779820D01*
X90705501Y-28768445D01*
X90750638Y-28764000D01*
X91489362Y-28764000D01*
X91534499Y-28768445D01*
G37*
G36*
X93284499Y-28768445D02*
G01*
X93321995Y-28779820D01*
X93356554Y-28798292D01*
X93386847Y-28823153D01*
X93411708Y-28853446D01*
X93430180Y-28888005D01*
X93441555Y-28925501D01*
X93446000Y-28970638D01*
X93446000Y-29609362D01*
X93441555Y-29654499D01*
X93430180Y-29691995D01*
X93411708Y-29726554D01*
X93386847Y-29756847D01*
X93356554Y-29781708D01*
X93321995Y-29800180D01*
X93284499Y-29811555D01*
X93239362Y-29816000D01*
X92500638Y-29816000D01*
X92455501Y-29811555D01*
X92418005Y-29800180D01*
X92383446Y-29781708D01*
X92353153Y-29756847D01*
X92328292Y-29726554D01*
X92309820Y-29691995D01*
X92298445Y-29654499D01*
X92294000Y-29609362D01*
X92294000Y-28970638D01*
X92298445Y-28925501D01*
X92309820Y-28888005D01*
X92328292Y-28853446D01*
X92353153Y-28823153D01*
X92383446Y-28798292D01*
X92418005Y-28779820D01*
X92455501Y-28768445D01*
X92500638Y-28764000D01*
X93239362Y-28764000D01*
X93284499Y-28768445D01*
G37*
G36*
X91534499Y-27128445D02*
G01*
X91571995Y-27139820D01*
X91606554Y-27158292D01*
X91636847Y-27183153D01*
X91661708Y-27213446D01*
X91680180Y-27248005D01*
X91691555Y-27285501D01*
X91696000Y-27330638D01*
X91696000Y-27969362D01*
X91691555Y-28014499D01*
X91680180Y-28051995D01*
X91661708Y-28086554D01*
X91636847Y-28116847D01*
X91606554Y-28141708D01*
X91571995Y-28160180D01*
X91534499Y-28171555D01*
X91489362Y-28176000D01*
X90750638Y-28176000D01*
X90705501Y-28171555D01*
X90668005Y-28160180D01*
X90633446Y-28141708D01*
X90603153Y-28116847D01*
X90578292Y-28086554D01*
X90559820Y-28051995D01*
X90548445Y-28014499D01*
X90544000Y-27969362D01*
X90544000Y-27330638D01*
X90548445Y-27285501D01*
X90559820Y-27248005D01*
X90578292Y-27213446D01*
X90603153Y-27183153D01*
X90633446Y-27158292D01*
X90668005Y-27139820D01*
X90705501Y-27128445D01*
X90750638Y-27124000D01*
X91489362Y-27124000D01*
X91534499Y-27128445D01*
G37*
G36*
X93284499Y-27128445D02*
G01*
X93321995Y-27139820D01*
X93356554Y-27158292D01*
X93386847Y-27183153D01*
X93411708Y-27213446D01*
X93430180Y-27248005D01*
X93441555Y-27285501D01*
X93446000Y-27330638D01*
X93446000Y-27969362D01*
X93441555Y-28014499D01*
X93430180Y-28051995D01*
X93411708Y-28086554D01*
X93386847Y-28116847D01*
X93356554Y-28141708D01*
X93321995Y-28160180D01*
X93284499Y-28171555D01*
X93239362Y-28176000D01*
X92500638Y-28176000D01*
X92455501Y-28171555D01*
X92418005Y-28160180D01*
X92383446Y-28141708D01*
X92353153Y-28116847D01*
X92328292Y-28086554D01*
X92309820Y-28051995D01*
X92298445Y-28014499D01*
X92294000Y-27969362D01*
X92294000Y-27330638D01*
X92298445Y-27285501D01*
X92309820Y-27248005D01*
X92328292Y-27213446D01*
X92353153Y-27183153D01*
X92383446Y-27158292D01*
X92418005Y-27139820D01*
X92455501Y-27128445D01*
X92500638Y-27124000D01*
X93239362Y-27124000D01*
X93284499Y-27128445D01*
G37*
G36*
X104034499Y-27078445D02*
G01*
X104071995Y-27089820D01*
X104106554Y-27108292D01*
X104136847Y-27133153D01*
X104161708Y-27163446D01*
X104180180Y-27198005D01*
X104191555Y-27235501D01*
X104196000Y-27280638D01*
X104196000Y-27919362D01*
X104191555Y-27964499D01*
X104180180Y-28001995D01*
X104161708Y-28036554D01*
X104136847Y-28066847D01*
X104106554Y-28091708D01*
X104071995Y-28110180D01*
X104034499Y-28121555D01*
X103989362Y-28126000D01*
X103250638Y-28126000D01*
X103205501Y-28121555D01*
X103168005Y-28110180D01*
X103133446Y-28091708D01*
X103103153Y-28066847D01*
X103078292Y-28036554D01*
X103059820Y-28001995D01*
X103048445Y-27964499D01*
X103044000Y-27919362D01*
X103044000Y-27280638D01*
X103048445Y-27235501D01*
X103059820Y-27198005D01*
X103078292Y-27163446D01*
X103103153Y-27133153D01*
X103133446Y-27108292D01*
X103168005Y-27089820D01*
X103205501Y-27078445D01*
X103250638Y-27074000D01*
X103989362Y-27074000D01*
X104034499Y-27078445D01*
G37*
G36*
X105784499Y-27078445D02*
G01*
X105821995Y-27089820D01*
X105856554Y-27108292D01*
X105886847Y-27133153D01*
X105911708Y-27163446D01*
X105930180Y-27198005D01*
X105941555Y-27235501D01*
X105946000Y-27280638D01*
X105946000Y-27919362D01*
X105941555Y-27964499D01*
X105930180Y-28001995D01*
X105911708Y-28036554D01*
X105886847Y-28066847D01*
X105856554Y-28091708D01*
X105821995Y-28110180D01*
X105784499Y-28121555D01*
X105739362Y-28126000D01*
X105000638Y-28126000D01*
X104955501Y-28121555D01*
X104918005Y-28110180D01*
X104883446Y-28091708D01*
X104853153Y-28066847D01*
X104828292Y-28036554D01*
X104809820Y-28001995D01*
X104798445Y-27964499D01*
X104794000Y-27919362D01*
X104794000Y-27280638D01*
X104798445Y-27235501D01*
X104809820Y-27198005D01*
X104828292Y-27163446D01*
X104853153Y-27133153D01*
X104883446Y-27108292D01*
X104918005Y-27089820D01*
X104955501Y-27078445D01*
X105000638Y-27074000D01*
X105739362Y-27074000D01*
X105784499Y-27078445D01*
G37*
G36*
X35429890Y-25804017D02*
G01*
X35548364Y-25853091D01*
X35654988Y-25924335D01*
X35745665Y-26015012D01*
X35816909Y-26121636D01*
X35865983Y-26240110D01*
X35891000Y-26365882D01*
X35891000Y-26494118D01*
X35865983Y-26619890D01*
X35816909Y-26738364D01*
X35745665Y-26844988D01*
X35654988Y-26935665D01*
X35548364Y-27006909D01*
X35548363Y-27006910D01*
X35548362Y-27006910D01*
X35429890Y-27055983D01*
X35304119Y-27081000D01*
X35175881Y-27081000D01*
X35050110Y-27055983D01*
X34931638Y-27006910D01*
X34931637Y-27006910D01*
X34931636Y-27006909D01*
X34825012Y-26935665D01*
X34734335Y-26844988D01*
X34663091Y-26738364D01*
X34614017Y-26619890D01*
X34589000Y-26494118D01*
X34589000Y-26365882D01*
X34614017Y-26240110D01*
X34663091Y-26121636D01*
X34734335Y-26015012D01*
X34825012Y-25924335D01*
X34931636Y-25853091D01*
X35050110Y-25804017D01*
X35175881Y-25779000D01*
X35304119Y-25779000D01*
X35429890Y-25804017D01*
G37*
G36*
X56257142Y-25430242D02*
G01*
X56405101Y-25491529D01*
X56538255Y-25580499D01*
X56651501Y-25693745D01*
X56740471Y-25826899D01*
X56801758Y-25974858D01*
X56833000Y-26131925D01*
X56833000Y-26292075D01*
X56801758Y-26449142D01*
X56740471Y-26597101D01*
X56651501Y-26730255D01*
X56538255Y-26843501D01*
X56405101Y-26932471D01*
X56257142Y-26993758D01*
X56100075Y-27025000D01*
X55939925Y-27025000D01*
X55782858Y-26993758D01*
X55634899Y-26932471D01*
X55501745Y-26843501D01*
X55388499Y-26730255D01*
X55299529Y-26597101D01*
X55238242Y-26449142D01*
X55207000Y-26292075D01*
X55207000Y-26131925D01*
X55238242Y-25974858D01*
X55299529Y-25826899D01*
X55388499Y-25693745D01*
X55501745Y-25580499D01*
X55634899Y-25491529D01*
X55782858Y-25430242D01*
X55939925Y-25399000D01*
X56100075Y-25399000D01*
X56257142Y-25430242D01*
G37*
G36*
X41017142Y-25430242D02*
G01*
X41165101Y-25491529D01*
X41298255Y-25580499D01*
X41411501Y-25693745D01*
X41500471Y-25826899D01*
X41561758Y-25974858D01*
X41593000Y-26131925D01*
X41593000Y-26292075D01*
X41561758Y-26449142D01*
X41500471Y-26597101D01*
X41411501Y-26730255D01*
X41298255Y-26843501D01*
X41165101Y-26932471D01*
X41017142Y-26993758D01*
X40860075Y-27025000D01*
X40699925Y-27025000D01*
X40542858Y-26993758D01*
X40394899Y-26932471D01*
X40261745Y-26843501D01*
X40148499Y-26730255D01*
X40059529Y-26597101D01*
X39998242Y-26449142D01*
X39967000Y-26292075D01*
X39967000Y-26131925D01*
X39998242Y-25974858D01*
X40059529Y-25826899D01*
X40148499Y-25693745D01*
X40261745Y-25580499D01*
X40394899Y-25491529D01*
X40542858Y-25430242D01*
X40699925Y-25399000D01*
X40860075Y-25399000D01*
X41017142Y-25430242D01*
G37*
M02*
