G04 #@! TF.GenerationSoftware,KiCad,Pcbnew,(5.1.5)-3*
G04 #@! TF.CreationDate,2020-11-01T21:01:57+09:00*
G04 #@! TF.ProjectId,Pistachio_MacroPad,50697374-6163-4686-996f-5f4d6163726f,rev?*
G04 #@! TF.SameCoordinates,Original*
G04 #@! TF.FileFunction,Profile,NP*
%FSLAX46Y46*%
G04 Gerber Fmt 4.6, Leading zero omitted, Abs format (unit mm)*
G04 Created by KiCad (PCBNEW (5.1.5)-3) date 2020-11-01 21:01:57*
%MOMM*%
%LPD*%
G04 APERTURE LIST*
%ADD10C,0.200000*%
G04 APERTURE END LIST*
D10*
X197697300Y-26310141D02*
G75*
G03X197697300Y-26310141I-1050000J0D01*
G01*
X112497375Y-57985160D02*
G75*
G02X112997375Y-57485160I500000J0D01*
G01*
X112497375Y-55485160D02*
X112497375Y-26310141D01*
X197697300Y-154010221D02*
G75*
G03X197697300Y-154010221I-1050000J0D01*
G01*
X113497375Y-55485160D02*
X113497375Y-26310141D01*
X117547375Y-154010221D02*
G75*
G03X117547375Y-154010221I-1050000J0D01*
G01*
X112997375Y-55985160D02*
G75*
G02X112497375Y-55485160I0J500000D01*
G01*
X113497375Y-55485160D02*
G75*
G02X112997375Y-55985160I-500000J0D01*
G01*
X116497375Y-157010221D02*
G75*
G02X113497375Y-154010221I0J3000000D01*
G01*
X117547375Y-26310141D02*
G75*
G03X117547375Y-26310141I-1050000J0D01*
G01*
X116497375Y-157010221D02*
X196647300Y-157010221D01*
X112997375Y-57485160D02*
G75*
G02X113497375Y-57985160I0J-500000D01*
G01*
X112997375Y-122835201D02*
G75*
G02X112497375Y-122335201I0J500000D01*
G01*
X147219882Y-23310141D02*
G75*
G02X149400073Y-24249371I1J-3000000D01*
G01*
X147219883Y-23310141D02*
X116497375Y-23310141D01*
X112997375Y-124335201D02*
G75*
G02X113497375Y-124835201I0J-500000D01*
G01*
X112497375Y-122335201D02*
X112497375Y-57985160D01*
X113497375Y-122335201D02*
G75*
G02X112997375Y-122835201I-500000J0D01*
G01*
X113497375Y-122335201D02*
X113497375Y-57985160D01*
X112497375Y-124835201D02*
G75*
G02X112997375Y-124335201I500000J0D01*
G01*
X113497375Y-124835201D02*
X113497375Y-154010221D01*
X112497375Y-124835201D02*
X112497375Y-154010221D01*
X113497375Y-26310141D02*
G75*
G02X116497375Y-23310141I3000000J0D01*
G01*
X110547376Y-26310141D02*
G75*
G03X110547376Y-26310141I-1050000J0D01*
G01*
X30397450Y-154010221D02*
G75*
G03X30397450Y-154010221I-1050000J0D01*
G01*
X29347450Y-157010221D02*
G75*
G02X26347450Y-154010221I0J3000000D01*
G01*
X29347450Y-157010221D02*
X109497376Y-157010221D01*
X110547376Y-154010221D02*
G75*
G03X110547376Y-154010221I-1050000J0D01*
G01*
X26347450Y-154010221D02*
X26347450Y-26310141D01*
X30397450Y-26310141D02*
G75*
G03X30397450Y-26310141I-1050000J0D01*
G01*
X196647300Y-23310141D02*
G75*
G02X199647300Y-26310141I0J-3000000D01*
G01*
X199647300Y-154010221D02*
G75*
G02X196647300Y-157010221I-3000000J0D01*
G01*
X199647300Y-154010221D02*
X199647300Y-26310141D01*
X112497376Y-154010221D02*
G75*
G02X109497376Y-157010221I-3000000J0D01*
G01*
X109497376Y-23310141D02*
X29347450Y-23310141D01*
X109497376Y-23310142D02*
G75*
G02X112497375Y-26310141I0J-2999999D01*
G01*
X26347450Y-26310141D02*
G75*
G02X29347450Y-23310141I3000000J0D01*
G01*
X163934676Y-24249372D02*
G75*
G02X166114866Y-23310141I2180190J-2060769D01*
G01*
X196647300Y-23310141D02*
X166114866Y-23310141D01*
X163934677Y-24249372D02*
G75*
G02X149400073Y-24249371I-7267302J6869232D01*
G01*
X197747300Y-51450140D02*
G75*
G03X197747300Y-51450140I-2500000J0D01*
G01*
M02*
