G04 #@! TF.GenerationSoftware,KiCad,Pcbnew,(5.1.5)-3*
G04 #@! TF.CreationDate,2020-10-10T23:35:22+09:00*
G04 #@! TF.ProjectId,Pistachio_MacroPad,50697374-6163-4686-996f-5f4d6163726f,rev?*
G04 #@! TF.SameCoordinates,Original*
G04 #@! TF.FileFunction,Soldermask,Bot*
G04 #@! TF.FilePolarity,Negative*
%FSLAX46Y46*%
G04 Gerber Fmt 4.6, Leading zero omitted, Abs format (unit mm)*
G04 Created by KiCad (PCBNEW (5.1.5)-3) date 2020-10-10 23:35:22*
%MOMM*%
%LPD*%
G04 APERTURE LIST*
%ADD10C,0.100000*%
G04 APERTURE END LIST*
D10*
G36*
X88300000Y-154035000D02*
G01*
X87300000Y-154035000D01*
X87300000Y-152635000D01*
X88300000Y-152635000D01*
X88300000Y-154035000D01*
G37*
G36*
X54065000Y-154020000D02*
G01*
X52665000Y-154020000D01*
X52665000Y-153020000D01*
X54065000Y-153020000D01*
X54065000Y-154020000D01*
G37*
G36*
X50515000Y-154020000D02*
G01*
X49115000Y-154020000D01*
X49115000Y-153020000D01*
X50515000Y-153020000D01*
X50515000Y-154020000D01*
G37*
G36*
X62866474Y-148818684D02*
G01*
X63084474Y-148908983D01*
X63238623Y-148972833D01*
X63573548Y-149196623D01*
X63858377Y-149481452D01*
X64082167Y-149816377D01*
X64082167Y-149816378D01*
X64236316Y-150188526D01*
X64314900Y-150583594D01*
X64314900Y-150986406D01*
X64236316Y-151381474D01*
X64146017Y-151599474D01*
X64082167Y-151753623D01*
X63858377Y-152088548D01*
X63573548Y-152373377D01*
X63238623Y-152597167D01*
X63084474Y-152661017D01*
X62866474Y-152751316D01*
X62471406Y-152829900D01*
X62068594Y-152829900D01*
X61673526Y-152751316D01*
X61455526Y-152661017D01*
X61301377Y-152597167D01*
X60966452Y-152373377D01*
X60681623Y-152088548D01*
X60457833Y-151753623D01*
X60393983Y-151599474D01*
X60303684Y-151381474D01*
X60225100Y-150986406D01*
X60225100Y-150583594D01*
X60303684Y-150188526D01*
X60457833Y-149816378D01*
X60457833Y-149816377D01*
X60681623Y-149481452D01*
X60966452Y-149196623D01*
X61301377Y-148972833D01*
X61455526Y-148908983D01*
X61673526Y-148818684D01*
X62068594Y-148740100D01*
X62471406Y-148740100D01*
X62866474Y-148818684D01*
G37*
G36*
X39066474Y-148818684D02*
G01*
X39284474Y-148908983D01*
X39438623Y-148972833D01*
X39773548Y-149196623D01*
X40058377Y-149481452D01*
X40282167Y-149816377D01*
X40282167Y-149816378D01*
X40436316Y-150188526D01*
X40514900Y-150583594D01*
X40514900Y-150986406D01*
X40436316Y-151381474D01*
X40346017Y-151599474D01*
X40282167Y-151753623D01*
X40058377Y-152088548D01*
X39773548Y-152373377D01*
X39438623Y-152597167D01*
X39284474Y-152661017D01*
X39066474Y-152751316D01*
X38671406Y-152829900D01*
X38268594Y-152829900D01*
X37873526Y-152751316D01*
X37655526Y-152661017D01*
X37501377Y-152597167D01*
X37166452Y-152373377D01*
X36881623Y-152088548D01*
X36657833Y-151753623D01*
X36593983Y-151599474D01*
X36503684Y-151381474D01*
X36425100Y-150986406D01*
X36425100Y-150583594D01*
X36503684Y-150188526D01*
X36657833Y-149816378D01*
X36657833Y-149816377D01*
X36881623Y-149481452D01*
X37166452Y-149196623D01*
X37501377Y-148972833D01*
X37655526Y-148908983D01*
X37873526Y-148818684D01*
X38268594Y-148740100D01*
X38671406Y-148740100D01*
X39066474Y-148818684D01*
G37*
G36*
X88300000Y-150485000D02*
G01*
X87300000Y-150485000D01*
X87300000Y-149085000D01*
X88300000Y-149085000D01*
X88300000Y-150485000D01*
G37*
G36*
X48132585Y-146088802D02*
G01*
X48282410Y-146118604D01*
X48564674Y-146235521D01*
X48818705Y-146405259D01*
X49034741Y-146621295D01*
X49204479Y-146875326D01*
X49321396Y-147157590D01*
X49381000Y-147457240D01*
X49381000Y-147762760D01*
X49321396Y-148062410D01*
X49204479Y-148344674D01*
X49034741Y-148598705D01*
X48818705Y-148814741D01*
X48564674Y-148984479D01*
X48282410Y-149101396D01*
X48132585Y-149131198D01*
X47982761Y-149161000D01*
X47677239Y-149161000D01*
X47527415Y-149131198D01*
X47377590Y-149101396D01*
X47095326Y-148984479D01*
X46841295Y-148814741D01*
X46625259Y-148598705D01*
X46455521Y-148344674D01*
X46338604Y-148062410D01*
X46279000Y-147762760D01*
X46279000Y-147457240D01*
X46338604Y-147157590D01*
X46455521Y-146875326D01*
X46625259Y-146621295D01*
X46841295Y-146405259D01*
X47095326Y-146235521D01*
X47377590Y-146118604D01*
X47527415Y-146088802D01*
X47677239Y-146059000D01*
X47982761Y-146059000D01*
X48132585Y-146088802D01*
G37*
G36*
X76712585Y-146088802D02*
G01*
X76862410Y-146118604D01*
X77144674Y-146235521D01*
X77398705Y-146405259D01*
X77614741Y-146621295D01*
X77784479Y-146875326D01*
X77901396Y-147157590D01*
X77961000Y-147457240D01*
X77961000Y-147762760D01*
X77901396Y-148062410D01*
X77784479Y-148344674D01*
X77614741Y-148598705D01*
X77398705Y-148814741D01*
X77144674Y-148984479D01*
X76862410Y-149101396D01*
X76712585Y-149131198D01*
X76562761Y-149161000D01*
X76257239Y-149161000D01*
X76107415Y-149131198D01*
X75957590Y-149101396D01*
X75675326Y-148984479D01*
X75421295Y-148814741D01*
X75205259Y-148598705D01*
X75035521Y-148344674D01*
X74918604Y-148062410D01*
X74859000Y-147762760D01*
X74859000Y-147457240D01*
X74918604Y-147157590D01*
X75035521Y-146875326D01*
X75205259Y-146621295D01*
X75421295Y-146405259D01*
X75675326Y-146235521D01*
X75957590Y-146118604D01*
X76107415Y-146088802D01*
X76257239Y-146059000D01*
X76562761Y-146059000D01*
X76712585Y-146088802D01*
G37*
G36*
X73986000Y-148911000D02*
G01*
X71334000Y-148911000D01*
X71334000Y-146309000D01*
X73986000Y-146309000D01*
X73986000Y-148911000D01*
G37*
G36*
X45406000Y-148911000D02*
G01*
X42754000Y-148911000D01*
X42754000Y-146309000D01*
X45406000Y-146309000D01*
X45406000Y-148911000D01*
G37*
G36*
X106851474Y-142953684D02*
G01*
X107069474Y-143043983D01*
X107223623Y-143107833D01*
X107558548Y-143331623D01*
X107843377Y-143616452D01*
X108067167Y-143951377D01*
X108120981Y-144081296D01*
X108221316Y-144323526D01*
X108299900Y-144718594D01*
X108299900Y-145121406D01*
X108221316Y-145516474D01*
X108218857Y-145522410D01*
X108067167Y-145888623D01*
X107843377Y-146223548D01*
X107558548Y-146508377D01*
X107223623Y-146732167D01*
X107069474Y-146796017D01*
X106851474Y-146886316D01*
X106456406Y-146964900D01*
X106053594Y-146964900D01*
X105658526Y-146886316D01*
X105440526Y-146796017D01*
X105286377Y-146732167D01*
X104951452Y-146508377D01*
X104666623Y-146223548D01*
X104442833Y-145888623D01*
X104291143Y-145522410D01*
X104288684Y-145516474D01*
X104210100Y-145121406D01*
X104210100Y-144718594D01*
X104288684Y-144323526D01*
X104389019Y-144081296D01*
X104442833Y-143951377D01*
X104666623Y-143616452D01*
X104951452Y-143331623D01*
X105286377Y-143107833D01*
X105440526Y-143043983D01*
X105658526Y-142953684D01*
X106053594Y-142875100D01*
X106456406Y-142875100D01*
X106851474Y-142953684D01*
G37*
G36*
X54359164Y-143524252D02*
G01*
X54632410Y-143578604D01*
X54914674Y-143695521D01*
X55168705Y-143865259D01*
X55384741Y-144081295D01*
X55554479Y-144335326D01*
X55671396Y-144617590D01*
X55731000Y-144917240D01*
X55731000Y-145222760D01*
X55671396Y-145522410D01*
X55554479Y-145804674D01*
X55384741Y-146058705D01*
X55168705Y-146274741D01*
X54914674Y-146444479D01*
X54632410Y-146561396D01*
X54482585Y-146591198D01*
X54332761Y-146621000D01*
X54027239Y-146621000D01*
X53877415Y-146591198D01*
X53727590Y-146561396D01*
X53445326Y-146444479D01*
X53191295Y-146274741D01*
X52975259Y-146058705D01*
X52805521Y-145804674D01*
X52688604Y-145522410D01*
X52629000Y-145222760D01*
X52629000Y-144917240D01*
X52688604Y-144617590D01*
X52805521Y-144335326D01*
X52975259Y-144081295D01*
X53191295Y-143865259D01*
X53445326Y-143695521D01*
X53727590Y-143578604D01*
X54000836Y-143524252D01*
X54027239Y-143519000D01*
X54332761Y-143519000D01*
X54359164Y-143524252D01*
G37*
G36*
X82939164Y-143524252D02*
G01*
X83212410Y-143578604D01*
X83494674Y-143695521D01*
X83748705Y-143865259D01*
X83964741Y-144081295D01*
X84134479Y-144335326D01*
X84251396Y-144617590D01*
X84311000Y-144917240D01*
X84311000Y-145222760D01*
X84251396Y-145522410D01*
X84134479Y-145804674D01*
X83964741Y-146058705D01*
X83748705Y-146274741D01*
X83494674Y-146444479D01*
X83212410Y-146561396D01*
X83062585Y-146591198D01*
X82912761Y-146621000D01*
X82607239Y-146621000D01*
X82457415Y-146591198D01*
X82307590Y-146561396D01*
X82025326Y-146444479D01*
X81771295Y-146274741D01*
X81555259Y-146058705D01*
X81385521Y-145804674D01*
X81268604Y-145522410D01*
X81209000Y-145222760D01*
X81209000Y-144917240D01*
X81268604Y-144617590D01*
X81385521Y-144335326D01*
X81555259Y-144081295D01*
X81771295Y-143865259D01*
X82025326Y-143695521D01*
X82307590Y-143578604D01*
X82580836Y-143524252D01*
X82607239Y-143519000D01*
X82912761Y-143519000D01*
X82939164Y-143524252D01*
G37*
G36*
X91474411Y-143405526D02*
G01*
X91538083Y-143431900D01*
X91761041Y-143524252D01*
X91761042Y-143524253D01*
X92019004Y-143696617D01*
X92238383Y-143915996D01*
X92262024Y-143951378D01*
X92410748Y-144173959D01*
X92529474Y-144460590D01*
X92590000Y-144764875D01*
X92590000Y-145075125D01*
X92529474Y-145379410D01*
X92410748Y-145666041D01*
X92410747Y-145666042D01*
X92238383Y-145924004D01*
X92019004Y-146143383D01*
X91899028Y-146223548D01*
X91761041Y-146315748D01*
X91627650Y-146371000D01*
X91474411Y-146434474D01*
X91170125Y-146495000D01*
X90859875Y-146495000D01*
X90555589Y-146434474D01*
X90402350Y-146371000D01*
X90268959Y-146315748D01*
X90130972Y-146223548D01*
X90010996Y-146143383D01*
X89791617Y-145924004D01*
X89619253Y-145666042D01*
X89619252Y-145666041D01*
X89500526Y-145379410D01*
X89440000Y-145075125D01*
X89440000Y-144764875D01*
X89500526Y-144460590D01*
X89619252Y-144173959D01*
X89767976Y-143951378D01*
X89791617Y-143915996D01*
X90010996Y-143696617D01*
X90268958Y-143524253D01*
X90268959Y-143524252D01*
X90491917Y-143431900D01*
X90555589Y-143405526D01*
X90859875Y-143345000D01*
X91170125Y-143345000D01*
X91474411Y-143405526D01*
G37*
G36*
X59256000Y-146371000D02*
G01*
X56604000Y-146371000D01*
X56604000Y-143769000D01*
X59256000Y-143769000D01*
X59256000Y-146371000D01*
G37*
G36*
X87836000Y-146371000D02*
G01*
X85184000Y-146371000D01*
X85184000Y-143769000D01*
X87836000Y-143769000D01*
X87836000Y-146371000D01*
G37*
G36*
X79546474Y-140563684D02*
G01*
X79764474Y-140653983D01*
X79918623Y-140717833D01*
X80253548Y-140941623D01*
X80538377Y-141226452D01*
X80762167Y-141561377D01*
X80826017Y-141715526D01*
X80916316Y-141933526D01*
X80994900Y-142328594D01*
X80994900Y-142731406D01*
X80916316Y-143126474D01*
X80832322Y-143329253D01*
X80762167Y-143498623D01*
X80538377Y-143833548D01*
X80253548Y-144118377D01*
X79918623Y-144342167D01*
X79764474Y-144406017D01*
X79546474Y-144496316D01*
X79151406Y-144574900D01*
X78748594Y-144574900D01*
X78353526Y-144496316D01*
X78135526Y-144406017D01*
X77981377Y-144342167D01*
X77646452Y-144118377D01*
X77361623Y-143833548D01*
X77137833Y-143498623D01*
X77067678Y-143329253D01*
X76983684Y-143126474D01*
X76905100Y-142731406D01*
X76905100Y-142328594D01*
X76983684Y-141933526D01*
X77073983Y-141715526D01*
X77137833Y-141561377D01*
X77361623Y-141226452D01*
X77646452Y-140941623D01*
X77981377Y-140717833D01*
X78135526Y-140653983D01*
X78353526Y-140563684D01*
X78748594Y-140485100D01*
X79151406Y-140485100D01*
X79546474Y-140563684D01*
G37*
G36*
X50966474Y-140563684D02*
G01*
X51184474Y-140653983D01*
X51338623Y-140717833D01*
X51673548Y-140941623D01*
X51958377Y-141226452D01*
X52182167Y-141561377D01*
X52246017Y-141715526D01*
X52336316Y-141933526D01*
X52414900Y-142328594D01*
X52414900Y-142731406D01*
X52336316Y-143126474D01*
X52252322Y-143329253D01*
X52182167Y-143498623D01*
X51958377Y-143833548D01*
X51673548Y-144118377D01*
X51338623Y-144342167D01*
X51184474Y-144406017D01*
X50966474Y-144496316D01*
X50571406Y-144574900D01*
X50168594Y-144574900D01*
X49773526Y-144496316D01*
X49555526Y-144406017D01*
X49401377Y-144342167D01*
X49066452Y-144118377D01*
X48781623Y-143833548D01*
X48557833Y-143498623D01*
X48487678Y-143329253D01*
X48403684Y-143126474D01*
X48325100Y-142731406D01*
X48325100Y-142328594D01*
X48403684Y-141933526D01*
X48493983Y-141715526D01*
X48557833Y-141561377D01*
X48781623Y-141226452D01*
X49066452Y-140941623D01*
X49401377Y-140717833D01*
X49555526Y-140653983D01*
X49773526Y-140563684D01*
X50168594Y-140485100D01*
X50571406Y-140485100D01*
X50966474Y-140563684D01*
G37*
G36*
X74045952Y-141645429D02*
G01*
X74133075Y-141662759D01*
X74242498Y-141708084D01*
X74297211Y-141730747D01*
X74443933Y-141828783D01*
X74444928Y-141829448D01*
X74570552Y-141955072D01*
X74570554Y-141955075D01*
X74669253Y-142102789D01*
X74669253Y-142102790D01*
X74737241Y-142266925D01*
X74771900Y-142441171D01*
X74771900Y-142618829D01*
X74737241Y-142793075D01*
X74691916Y-142902498D01*
X74669253Y-142957211D01*
X74571217Y-143103933D01*
X74570552Y-143104928D01*
X74444928Y-143230552D01*
X74444925Y-143230554D01*
X74297211Y-143329253D01*
X74259194Y-143345000D01*
X74133075Y-143397241D01*
X74045952Y-143414570D01*
X73958831Y-143431900D01*
X73781169Y-143431900D01*
X73694048Y-143414570D01*
X73606925Y-143397241D01*
X73480806Y-143345000D01*
X73442789Y-143329253D01*
X73295075Y-143230554D01*
X73295072Y-143230552D01*
X73169448Y-143104928D01*
X73168783Y-143103933D01*
X73070747Y-142957211D01*
X73048084Y-142902498D01*
X73002759Y-142793075D01*
X72968100Y-142618829D01*
X72968100Y-142441171D01*
X73002759Y-142266925D01*
X73070747Y-142102790D01*
X73070747Y-142102789D01*
X73169446Y-141955075D01*
X73169448Y-141955072D01*
X73295072Y-141829448D01*
X73296067Y-141828783D01*
X73442789Y-141730747D01*
X73497502Y-141708084D01*
X73606925Y-141662759D01*
X73694048Y-141645429D01*
X73781169Y-141628100D01*
X73958831Y-141628100D01*
X74045952Y-141645429D01*
G37*
G36*
X45465952Y-141645429D02*
G01*
X45553075Y-141662759D01*
X45662498Y-141708084D01*
X45717211Y-141730747D01*
X45863933Y-141828783D01*
X45864928Y-141829448D01*
X45990552Y-141955072D01*
X45990554Y-141955075D01*
X46089253Y-142102789D01*
X46089253Y-142102790D01*
X46157241Y-142266925D01*
X46191900Y-142441171D01*
X46191900Y-142618829D01*
X46157241Y-142793075D01*
X46111916Y-142902498D01*
X46089253Y-142957211D01*
X45991217Y-143103933D01*
X45990552Y-143104928D01*
X45864928Y-143230552D01*
X45864925Y-143230554D01*
X45717211Y-143329253D01*
X45679194Y-143345000D01*
X45553075Y-143397241D01*
X45465952Y-143414570D01*
X45378831Y-143431900D01*
X45201169Y-143431900D01*
X45114048Y-143414570D01*
X45026925Y-143397241D01*
X44900806Y-143345000D01*
X44862789Y-143329253D01*
X44715075Y-143230554D01*
X44715072Y-143230552D01*
X44589448Y-143104928D01*
X44588783Y-143103933D01*
X44490747Y-142957211D01*
X44468084Y-142902498D01*
X44422759Y-142793075D01*
X44388100Y-142618829D01*
X44388100Y-142441171D01*
X44422759Y-142266925D01*
X44490747Y-142102790D01*
X44490747Y-142102789D01*
X44589446Y-141955075D01*
X44589448Y-141955072D01*
X44715072Y-141829448D01*
X44716067Y-141828783D01*
X44862789Y-141730747D01*
X44917502Y-141708084D01*
X45026925Y-141662759D01*
X45114048Y-141645429D01*
X45201169Y-141628100D01*
X45378831Y-141628100D01*
X45465952Y-141645429D01*
G37*
G36*
X55625952Y-141645429D02*
G01*
X55713075Y-141662759D01*
X55822498Y-141708084D01*
X55877211Y-141730747D01*
X56023933Y-141828783D01*
X56024928Y-141829448D01*
X56150552Y-141955072D01*
X56150554Y-141955075D01*
X56249253Y-142102789D01*
X56249253Y-142102790D01*
X56317241Y-142266925D01*
X56351900Y-142441171D01*
X56351900Y-142618829D01*
X56317241Y-142793075D01*
X56271916Y-142902498D01*
X56249253Y-142957211D01*
X56151217Y-143103933D01*
X56150552Y-143104928D01*
X56024928Y-143230552D01*
X56024925Y-143230554D01*
X55877211Y-143329253D01*
X55839194Y-143345000D01*
X55713075Y-143397241D01*
X55625952Y-143414570D01*
X55538831Y-143431900D01*
X55361169Y-143431900D01*
X55274048Y-143414570D01*
X55186925Y-143397241D01*
X55060806Y-143345000D01*
X55022789Y-143329253D01*
X54875075Y-143230554D01*
X54875072Y-143230552D01*
X54749448Y-143104928D01*
X54748783Y-143103933D01*
X54650747Y-142957211D01*
X54628084Y-142902498D01*
X54582759Y-142793075D01*
X54548100Y-142618829D01*
X54548100Y-142441171D01*
X54582759Y-142266925D01*
X54650747Y-142102790D01*
X54650747Y-142102789D01*
X54749446Y-141955075D01*
X54749448Y-141955072D01*
X54875072Y-141829448D01*
X54876067Y-141828783D01*
X55022789Y-141730747D01*
X55077502Y-141708084D01*
X55186925Y-141662759D01*
X55274048Y-141645429D01*
X55361169Y-141628100D01*
X55538831Y-141628100D01*
X55625952Y-141645429D01*
G37*
G36*
X84205952Y-141645429D02*
G01*
X84293075Y-141662759D01*
X84402498Y-141708084D01*
X84457211Y-141730747D01*
X84603933Y-141828783D01*
X84604928Y-141829448D01*
X84730552Y-141955072D01*
X84730554Y-141955075D01*
X84829253Y-142102789D01*
X84829253Y-142102790D01*
X84897241Y-142266925D01*
X84931900Y-142441171D01*
X84931900Y-142618829D01*
X84897241Y-142793075D01*
X84851916Y-142902498D01*
X84829253Y-142957211D01*
X84731217Y-143103933D01*
X84730552Y-143104928D01*
X84604928Y-143230552D01*
X84604925Y-143230554D01*
X84457211Y-143329253D01*
X84419194Y-143345000D01*
X84293075Y-143397241D01*
X84205952Y-143414570D01*
X84118831Y-143431900D01*
X83941169Y-143431900D01*
X83854048Y-143414570D01*
X83766925Y-143397241D01*
X83640806Y-143345000D01*
X83602789Y-143329253D01*
X83455075Y-143230554D01*
X83455072Y-143230552D01*
X83329448Y-143104928D01*
X83328783Y-143103933D01*
X83230747Y-142957211D01*
X83208084Y-142902498D01*
X83162759Y-142793075D01*
X83128100Y-142618829D01*
X83128100Y-142441171D01*
X83162759Y-142266925D01*
X83230747Y-142102790D01*
X83230747Y-142102789D01*
X83329446Y-141955075D01*
X83329448Y-141955072D01*
X83455072Y-141829448D01*
X83456067Y-141828783D01*
X83602789Y-141730747D01*
X83657502Y-141708084D01*
X83766925Y-141662759D01*
X83854048Y-141645429D01*
X83941169Y-141628100D01*
X84118831Y-141628100D01*
X84205952Y-141645429D01*
G37*
G36*
X75488276Y-138841884D02*
G01*
X75705569Y-138931890D01*
X75705571Y-138931891D01*
X75901130Y-139062560D01*
X76067440Y-139228870D01*
X76198110Y-139424431D01*
X76288116Y-139641724D01*
X76334000Y-139872400D01*
X76334000Y-140107600D01*
X76288116Y-140338276D01*
X76227299Y-140485100D01*
X76198109Y-140555571D01*
X76067440Y-140751130D01*
X75901130Y-140917440D01*
X75705571Y-141048109D01*
X75705570Y-141048110D01*
X75705569Y-141048110D01*
X75488276Y-141138116D01*
X75257600Y-141184000D01*
X75022400Y-141184000D01*
X74791724Y-141138116D01*
X74574431Y-141048110D01*
X74574430Y-141048110D01*
X74574429Y-141048109D01*
X74378870Y-140917440D01*
X74212560Y-140751130D01*
X74081891Y-140555571D01*
X74052701Y-140485100D01*
X73991884Y-140338276D01*
X73946000Y-140107600D01*
X73946000Y-139872400D01*
X73991884Y-139641724D01*
X74081890Y-139424431D01*
X74212560Y-139228870D01*
X74378870Y-139062560D01*
X74574429Y-138931891D01*
X74574431Y-138931890D01*
X74791724Y-138841884D01*
X75022400Y-138796000D01*
X75257600Y-138796000D01*
X75488276Y-138841884D01*
G37*
G36*
X46908276Y-138841884D02*
G01*
X47125569Y-138931890D01*
X47125571Y-138931891D01*
X47321130Y-139062560D01*
X47487440Y-139228870D01*
X47618110Y-139424431D01*
X47708116Y-139641724D01*
X47754000Y-139872400D01*
X47754000Y-140107600D01*
X47708116Y-140338276D01*
X47647299Y-140485100D01*
X47618109Y-140555571D01*
X47487440Y-140751130D01*
X47321130Y-140917440D01*
X47125571Y-141048109D01*
X47125570Y-141048110D01*
X47125569Y-141048110D01*
X46908276Y-141138116D01*
X46677600Y-141184000D01*
X46442400Y-141184000D01*
X46211724Y-141138116D01*
X45994431Y-141048110D01*
X45994430Y-141048110D01*
X45994429Y-141048109D01*
X45798870Y-140917440D01*
X45632560Y-140751130D01*
X45501891Y-140555571D01*
X45472701Y-140485100D01*
X45411884Y-140338276D01*
X45366000Y-140107600D01*
X45366000Y-139872400D01*
X45411884Y-139641724D01*
X45501890Y-139424431D01*
X45632560Y-139228870D01*
X45798870Y-139062560D01*
X45994429Y-138931891D01*
X45994431Y-138931890D01*
X46211724Y-138841884D01*
X46442400Y-138796000D01*
X46677600Y-138796000D01*
X46908276Y-138841884D01*
G37*
G36*
X95663049Y-136549003D02*
G01*
X95912410Y-136598604D01*
X96194674Y-136715521D01*
X96448705Y-136885259D01*
X96664741Y-137101295D01*
X96834479Y-137355326D01*
X96951396Y-137637590D01*
X97011000Y-137937240D01*
X97011000Y-138242760D01*
X96951396Y-138542410D01*
X96834479Y-138824674D01*
X96664741Y-139078705D01*
X96448705Y-139294741D01*
X96194674Y-139464479D01*
X95912410Y-139581396D01*
X95762585Y-139611198D01*
X95612761Y-139641000D01*
X95307239Y-139641000D01*
X95157415Y-139611198D01*
X95007590Y-139581396D01*
X94725326Y-139464479D01*
X94471295Y-139294741D01*
X94255259Y-139078705D01*
X94085521Y-138824674D01*
X93968604Y-138542410D01*
X93909000Y-138242760D01*
X93909000Y-137937240D01*
X93968604Y-137637590D01*
X94085521Y-137355326D01*
X94255259Y-137101295D01*
X94471295Y-136885259D01*
X94725326Y-136715521D01*
X95007590Y-136598604D01*
X95256951Y-136549003D01*
X95307239Y-136539000D01*
X95612761Y-136539000D01*
X95663049Y-136549003D01*
G37*
G36*
X93036000Y-139391000D02*
G01*
X90384000Y-139391000D01*
X90384000Y-136789000D01*
X93036000Y-136789000D01*
X93036000Y-139391000D01*
G37*
G36*
X81838276Y-136301884D02*
G01*
X82055569Y-136391890D01*
X82055571Y-136391891D01*
X82251130Y-136522560D01*
X82417440Y-136688870D01*
X82548110Y-136884431D01*
X82638116Y-137101724D01*
X82684000Y-137332400D01*
X82684000Y-137567600D01*
X82638116Y-137798276D01*
X82580555Y-137937239D01*
X82548109Y-138015571D01*
X82417440Y-138211130D01*
X82251130Y-138377440D01*
X82055571Y-138508109D01*
X82055570Y-138508110D01*
X82055569Y-138508110D01*
X81838276Y-138598116D01*
X81607600Y-138644000D01*
X81372400Y-138644000D01*
X81141724Y-138598116D01*
X80924431Y-138508110D01*
X80924430Y-138508110D01*
X80924429Y-138508109D01*
X80728870Y-138377440D01*
X80562560Y-138211130D01*
X80431891Y-138015571D01*
X80399445Y-137937239D01*
X80341884Y-137798276D01*
X80296000Y-137567600D01*
X80296000Y-137332400D01*
X80341884Y-137101724D01*
X80431890Y-136884431D01*
X80562560Y-136688870D01*
X80728870Y-136522560D01*
X80924429Y-136391891D01*
X80924431Y-136391890D01*
X81141724Y-136301884D01*
X81372400Y-136256000D01*
X81607600Y-136256000D01*
X81838276Y-136301884D01*
G37*
G36*
X53258276Y-136301884D02*
G01*
X53475569Y-136391890D01*
X53475571Y-136391891D01*
X53671130Y-136522560D01*
X53837440Y-136688870D01*
X53968110Y-136884431D01*
X54058116Y-137101724D01*
X54104000Y-137332400D01*
X54104000Y-137567600D01*
X54058116Y-137798276D01*
X54000555Y-137937239D01*
X53968109Y-138015571D01*
X53837440Y-138211130D01*
X53671130Y-138377440D01*
X53475571Y-138508109D01*
X53475570Y-138508110D01*
X53475569Y-138508110D01*
X53258276Y-138598116D01*
X53027600Y-138644000D01*
X52792400Y-138644000D01*
X52561724Y-138598116D01*
X52344431Y-138508110D01*
X52344430Y-138508110D01*
X52344429Y-138508109D01*
X52148870Y-138377440D01*
X51982560Y-138211130D01*
X51851891Y-138015571D01*
X51819445Y-137937239D01*
X51761884Y-137798276D01*
X51716000Y-137567600D01*
X51716000Y-137332400D01*
X51761884Y-137101724D01*
X51851890Y-136884431D01*
X51982560Y-136688870D01*
X52148870Y-136522560D01*
X52344429Y-136391891D01*
X52344431Y-136391890D01*
X52561724Y-136301884D01*
X52792400Y-136256000D01*
X53027600Y-136256000D01*
X53258276Y-136301884D01*
G37*
G36*
X62570918Y-133999000D02*
G01*
X62729411Y-134030526D01*
X62797197Y-134058604D01*
X63016041Y-134149252D01*
X63016042Y-134149253D01*
X63274004Y-134321617D01*
X63493383Y-134540996D01*
X63536149Y-134605000D01*
X63665748Y-134798959D01*
X63784474Y-135085590D01*
X63845000Y-135389875D01*
X63845000Y-135700125D01*
X63784474Y-136004410D01*
X63665748Y-136291041D01*
X63665747Y-136291042D01*
X63493383Y-136549004D01*
X63274004Y-136768383D01*
X63243148Y-136789000D01*
X63016041Y-136940748D01*
X62848137Y-137010296D01*
X62729411Y-137059474D01*
X62577267Y-137089737D01*
X62425125Y-137120000D01*
X62114875Y-137120000D01*
X61962733Y-137089737D01*
X61810589Y-137059474D01*
X61691863Y-137010296D01*
X61523959Y-136940748D01*
X61296852Y-136789000D01*
X61265996Y-136768383D01*
X61046617Y-136549004D01*
X60874253Y-136291042D01*
X60874252Y-136291041D01*
X60755526Y-136004410D01*
X60695000Y-135700125D01*
X60695000Y-135389875D01*
X60755526Y-135085590D01*
X60874252Y-134798959D01*
X61003851Y-134605000D01*
X61046617Y-134540996D01*
X61265996Y-134321617D01*
X61523958Y-134149253D01*
X61523959Y-134149252D01*
X61742803Y-134058604D01*
X61810589Y-134030526D01*
X61969082Y-133999000D01*
X62114875Y-133970000D01*
X62425125Y-133970000D01*
X62570918Y-133999000D01*
G37*
G36*
X38770918Y-133999000D02*
G01*
X38929411Y-134030526D01*
X38997197Y-134058604D01*
X39216041Y-134149252D01*
X39216042Y-134149253D01*
X39474004Y-134321617D01*
X39693383Y-134540996D01*
X39736149Y-134605000D01*
X39865748Y-134798959D01*
X39984474Y-135085590D01*
X40045000Y-135389875D01*
X40045000Y-135700125D01*
X39984474Y-136004410D01*
X39865748Y-136291041D01*
X39865747Y-136291042D01*
X39693383Y-136549004D01*
X39474004Y-136768383D01*
X39443148Y-136789000D01*
X39216041Y-136940748D01*
X39048137Y-137010296D01*
X38929411Y-137059474D01*
X38777267Y-137089737D01*
X38625125Y-137120000D01*
X38314875Y-137120000D01*
X38162733Y-137089737D01*
X38010589Y-137059474D01*
X37891863Y-137010296D01*
X37723959Y-136940748D01*
X37496852Y-136789000D01*
X37465996Y-136768383D01*
X37246617Y-136549004D01*
X37074253Y-136291042D01*
X37074252Y-136291041D01*
X36955526Y-136004410D01*
X36895000Y-135700125D01*
X36895000Y-135389875D01*
X36955526Y-135085590D01*
X37074252Y-134798959D01*
X37203851Y-134605000D01*
X37246617Y-134540996D01*
X37465996Y-134321617D01*
X37723958Y-134149253D01*
X37723959Y-134149252D01*
X37942803Y-134058604D01*
X38010589Y-134030526D01*
X38169082Y-133999000D01*
X38314875Y-133970000D01*
X38625125Y-133970000D01*
X38770918Y-133999000D01*
G37*
G36*
X102112585Y-134028802D02*
G01*
X102262410Y-134058604D01*
X102544674Y-134175521D01*
X102798705Y-134345259D01*
X103014741Y-134561295D01*
X103184479Y-134815326D01*
X103283713Y-135054900D01*
X103301396Y-135097591D01*
X103344642Y-135315000D01*
X103361000Y-135397240D01*
X103361000Y-135702760D01*
X103301396Y-136002410D01*
X103184479Y-136284674D01*
X103014741Y-136538705D01*
X102798705Y-136754741D01*
X102544674Y-136924479D01*
X102262410Y-137041396D01*
X102112585Y-137071198D01*
X101962761Y-137101000D01*
X101657239Y-137101000D01*
X101507415Y-137071198D01*
X101357590Y-137041396D01*
X101075326Y-136924479D01*
X100821295Y-136754741D01*
X100605259Y-136538705D01*
X100435521Y-136284674D01*
X100318604Y-136002410D01*
X100259000Y-135702760D01*
X100259000Y-135397240D01*
X100275359Y-135315000D01*
X100318604Y-135097591D01*
X100336287Y-135054900D01*
X100435521Y-134815326D01*
X100605259Y-134561295D01*
X100821295Y-134345259D01*
X101075326Y-134175521D01*
X101357590Y-134058604D01*
X101507415Y-134028802D01*
X101657239Y-133999000D01*
X101962761Y-133999000D01*
X102112585Y-134028802D01*
G37*
G36*
X106886000Y-136851000D02*
G01*
X104234000Y-136851000D01*
X104234000Y-134249000D01*
X106886000Y-134249000D01*
X106886000Y-136851000D01*
G37*
G36*
X110470000Y-136715000D02*
G01*
X109470000Y-136715000D01*
X109470000Y-135315000D01*
X110470000Y-135315000D01*
X110470000Y-136715000D01*
G37*
G36*
X98596474Y-131043684D02*
G01*
X98814474Y-131133983D01*
X98968623Y-131197833D01*
X99303548Y-131421623D01*
X99588377Y-131706452D01*
X99812167Y-132041377D01*
X99876017Y-132195526D01*
X99966316Y-132413526D01*
X100044900Y-132808594D01*
X100044900Y-133211406D01*
X99966316Y-133606474D01*
X99882322Y-133809253D01*
X99812167Y-133978623D01*
X99588377Y-134313548D01*
X99303548Y-134598377D01*
X98968623Y-134822167D01*
X98814474Y-134886017D01*
X98596474Y-134976316D01*
X98201406Y-135054900D01*
X97798594Y-135054900D01*
X97403526Y-134976316D01*
X97185526Y-134886017D01*
X97031377Y-134822167D01*
X96696452Y-134598377D01*
X96411623Y-134313548D01*
X96187833Y-133978623D01*
X96117678Y-133809253D01*
X96033684Y-133606474D01*
X95955100Y-133211406D01*
X95955100Y-132808594D01*
X96033684Y-132413526D01*
X96123983Y-132195526D01*
X96187833Y-132041377D01*
X96411623Y-131706452D01*
X96696452Y-131421623D01*
X97031377Y-131197833D01*
X97185526Y-131133983D01*
X97403526Y-131043684D01*
X97798594Y-130965100D01*
X98201406Y-130965100D01*
X98596474Y-131043684D01*
G37*
G36*
X50300000Y-134665000D02*
G01*
X49300000Y-134665000D01*
X49300000Y-133265000D01*
X50300000Y-133265000D01*
X50300000Y-134665000D01*
G37*
G36*
X88700000Y-134635000D02*
G01*
X87700000Y-134635000D01*
X87700000Y-133235000D01*
X88700000Y-133235000D01*
X88700000Y-134635000D01*
G37*
G36*
X69670000Y-134605000D02*
G01*
X68670000Y-134605000D01*
X68670000Y-133205000D01*
X69670000Y-133205000D01*
X69670000Y-134605000D01*
G37*
G36*
X93095952Y-132125430D02*
G01*
X93183075Y-132142759D01*
X93292498Y-132188084D01*
X93347211Y-132210747D01*
X93493933Y-132308783D01*
X93494928Y-132309448D01*
X93620552Y-132435072D01*
X93620554Y-132435075D01*
X93719253Y-132582789D01*
X93719253Y-132582790D01*
X93787241Y-132746925D01*
X93821900Y-132921171D01*
X93821900Y-133098829D01*
X93787241Y-133273075D01*
X93741916Y-133382498D01*
X93719253Y-133437211D01*
X93621217Y-133583933D01*
X93620552Y-133584928D01*
X93494928Y-133710552D01*
X93494925Y-133710554D01*
X93347211Y-133809253D01*
X93292498Y-133831916D01*
X93183075Y-133877241D01*
X93095952Y-133894571D01*
X93008831Y-133911900D01*
X92831169Y-133911900D01*
X92744048Y-133894571D01*
X92656925Y-133877241D01*
X92547502Y-133831916D01*
X92492789Y-133809253D01*
X92345075Y-133710554D01*
X92345072Y-133710552D01*
X92219448Y-133584928D01*
X92218783Y-133583933D01*
X92120747Y-133437211D01*
X92098084Y-133382498D01*
X92052759Y-133273075D01*
X92018100Y-133098829D01*
X92018100Y-132921171D01*
X92052759Y-132746925D01*
X92120747Y-132582790D01*
X92120747Y-132582789D01*
X92219446Y-132435075D01*
X92219448Y-132435072D01*
X92345072Y-132309448D01*
X92346067Y-132308783D01*
X92492789Y-132210747D01*
X92547502Y-132188084D01*
X92656925Y-132142759D01*
X92744048Y-132125430D01*
X92831169Y-132108100D01*
X93008831Y-132108100D01*
X93095952Y-132125430D01*
G37*
G36*
X103255952Y-132125430D02*
G01*
X103343075Y-132142759D01*
X103452498Y-132188084D01*
X103507211Y-132210747D01*
X103653933Y-132308783D01*
X103654928Y-132309448D01*
X103780552Y-132435072D01*
X103780554Y-132435075D01*
X103879253Y-132582789D01*
X103879253Y-132582790D01*
X103947241Y-132746925D01*
X103981900Y-132921171D01*
X103981900Y-133098829D01*
X103947241Y-133273075D01*
X103901916Y-133382498D01*
X103879253Y-133437211D01*
X103781217Y-133583933D01*
X103780552Y-133584928D01*
X103654928Y-133710552D01*
X103654925Y-133710554D01*
X103507211Y-133809253D01*
X103452498Y-133831916D01*
X103343075Y-133877241D01*
X103255952Y-133894571D01*
X103168831Y-133911900D01*
X102991169Y-133911900D01*
X102904048Y-133894571D01*
X102816925Y-133877241D01*
X102707502Y-133831916D01*
X102652789Y-133809253D01*
X102505075Y-133710554D01*
X102505072Y-133710552D01*
X102379448Y-133584928D01*
X102378783Y-133583933D01*
X102280747Y-133437211D01*
X102258084Y-133382498D01*
X102212759Y-133273075D01*
X102178100Y-133098829D01*
X102178100Y-132921171D01*
X102212759Y-132746925D01*
X102280747Y-132582790D01*
X102280747Y-132582789D01*
X102379446Y-132435075D01*
X102379448Y-132435072D01*
X102505072Y-132309448D01*
X102506067Y-132308783D01*
X102652789Y-132210747D01*
X102707502Y-132188084D01*
X102816925Y-132142759D01*
X102904048Y-132125430D01*
X102991169Y-132108100D01*
X103168831Y-132108100D01*
X103255952Y-132125430D01*
G37*
G36*
X110470000Y-133165000D02*
G01*
X109470000Y-133165000D01*
X109470000Y-131765000D01*
X110470000Y-131765000D01*
X110470000Y-133165000D01*
G37*
G36*
X94538276Y-129321884D02*
G01*
X94755569Y-129411890D01*
X94755571Y-129411891D01*
X94951130Y-129542560D01*
X95117440Y-129708870D01*
X95219091Y-129861000D01*
X95248110Y-129904431D01*
X95338116Y-130121724D01*
X95384000Y-130352400D01*
X95384000Y-130587600D01*
X95338116Y-130818276D01*
X95277299Y-130965100D01*
X95248109Y-131035571D01*
X95117440Y-131231130D01*
X94951130Y-131397440D01*
X94755571Y-131528109D01*
X94755570Y-131528110D01*
X94755569Y-131528110D01*
X94538276Y-131618116D01*
X94307600Y-131664000D01*
X94072400Y-131664000D01*
X93841724Y-131618116D01*
X93624431Y-131528110D01*
X93624430Y-131528110D01*
X93624429Y-131528109D01*
X93428870Y-131397440D01*
X93262560Y-131231130D01*
X93131891Y-131035571D01*
X93102701Y-130965100D01*
X93041884Y-130818276D01*
X92996000Y-130587600D01*
X92996000Y-130352400D01*
X93041884Y-130121724D01*
X93131890Y-129904431D01*
X93160910Y-129861000D01*
X93262560Y-129708870D01*
X93428870Y-129542560D01*
X93624429Y-129411891D01*
X93624431Y-129411890D01*
X93841724Y-129321884D01*
X94072400Y-129276000D01*
X94307600Y-129276000D01*
X94538276Y-129321884D01*
G37*
G36*
X50300000Y-131115000D02*
G01*
X49300000Y-131115000D01*
X49300000Y-129715000D01*
X50300000Y-129715000D01*
X50300000Y-131115000D01*
G37*
G36*
X88700000Y-131085000D02*
G01*
X87700000Y-131085000D01*
X87700000Y-129685000D01*
X88700000Y-129685000D01*
X88700000Y-131085000D01*
G37*
G36*
X69670000Y-131055000D02*
G01*
X68670000Y-131055000D01*
X68670000Y-129655000D01*
X69670000Y-129655000D01*
X69670000Y-131055000D01*
G37*
G36*
X38612585Y-127038802D02*
G01*
X38762410Y-127068604D01*
X39044674Y-127185521D01*
X39298705Y-127355259D01*
X39514741Y-127571295D01*
X39684479Y-127825326D01*
X39801396Y-128107590D01*
X39861000Y-128407240D01*
X39861000Y-128712760D01*
X39801396Y-129012410D01*
X39684479Y-129294674D01*
X39514741Y-129548705D01*
X39298705Y-129764741D01*
X39044674Y-129934479D01*
X38762410Y-130051396D01*
X38612585Y-130081198D01*
X38462761Y-130111000D01*
X38157239Y-130111000D01*
X38007415Y-130081198D01*
X37857590Y-130051396D01*
X37575326Y-129934479D01*
X37321295Y-129764741D01*
X37105259Y-129548705D01*
X36935521Y-129294674D01*
X36818604Y-129012410D01*
X36759000Y-128712760D01*
X36759000Y-128407240D01*
X36818604Y-128107590D01*
X36935521Y-127825326D01*
X37105259Y-127571295D01*
X37321295Y-127355259D01*
X37575326Y-127185521D01*
X37857590Y-127068604D01*
X38007415Y-127038802D01*
X38157239Y-127009000D01*
X38462761Y-127009000D01*
X38612585Y-127038802D01*
G37*
G36*
X76712585Y-127038802D02*
G01*
X76862410Y-127068604D01*
X77144674Y-127185521D01*
X77398705Y-127355259D01*
X77614741Y-127571295D01*
X77784479Y-127825326D01*
X77901396Y-128107590D01*
X77961000Y-128407240D01*
X77961000Y-128712760D01*
X77901396Y-129012410D01*
X77784479Y-129294674D01*
X77614741Y-129548705D01*
X77398705Y-129764741D01*
X77144674Y-129934479D01*
X76862410Y-130051396D01*
X76712585Y-130081198D01*
X76562761Y-130111000D01*
X76257239Y-130111000D01*
X76107415Y-130081198D01*
X75957590Y-130051396D01*
X75675326Y-129934479D01*
X75421295Y-129764741D01*
X75205259Y-129548705D01*
X75035521Y-129294674D01*
X74918604Y-129012410D01*
X74859000Y-128712760D01*
X74859000Y-128407240D01*
X74918604Y-128107590D01*
X75035521Y-127825326D01*
X75205259Y-127571295D01*
X75421295Y-127355259D01*
X75675326Y-127185521D01*
X75957590Y-127068604D01*
X76107415Y-127038802D01*
X76257239Y-127009000D01*
X76562761Y-127009000D01*
X76712585Y-127038802D01*
G37*
G36*
X57662585Y-127038802D02*
G01*
X57812410Y-127068604D01*
X58094674Y-127185521D01*
X58348705Y-127355259D01*
X58564741Y-127571295D01*
X58734479Y-127825326D01*
X58851396Y-128107590D01*
X58911000Y-128407240D01*
X58911000Y-128712760D01*
X58851396Y-129012410D01*
X58734479Y-129294674D01*
X58564741Y-129548705D01*
X58348705Y-129764741D01*
X58094674Y-129934479D01*
X57812410Y-130051396D01*
X57662585Y-130081198D01*
X57512761Y-130111000D01*
X57207239Y-130111000D01*
X57057415Y-130081198D01*
X56907590Y-130051396D01*
X56625326Y-129934479D01*
X56371295Y-129764741D01*
X56155259Y-129548705D01*
X55985521Y-129294674D01*
X55868604Y-129012410D01*
X55809000Y-128712760D01*
X55809000Y-128407240D01*
X55868604Y-128107590D01*
X55985521Y-127825326D01*
X56155259Y-127571295D01*
X56371295Y-127355259D01*
X56625326Y-127185521D01*
X56907590Y-127068604D01*
X57057415Y-127038802D01*
X57207239Y-127009000D01*
X57512761Y-127009000D01*
X57662585Y-127038802D01*
G37*
G36*
X73986000Y-129861000D02*
G01*
X71334000Y-129861000D01*
X71334000Y-127259000D01*
X73986000Y-127259000D01*
X73986000Y-129861000D01*
G37*
G36*
X54936000Y-129861000D02*
G01*
X52284000Y-129861000D01*
X52284000Y-127259000D01*
X54936000Y-127259000D01*
X54936000Y-129861000D01*
G37*
G36*
X35886000Y-129861000D02*
G01*
X33234000Y-129861000D01*
X33234000Y-127259000D01*
X35886000Y-127259000D01*
X35886000Y-129861000D01*
G37*
G36*
X100888276Y-126781884D02*
G01*
X101105569Y-126871890D01*
X101105571Y-126871891D01*
X101301130Y-127002560D01*
X101467440Y-127168870D01*
X101591982Y-127355259D01*
X101598110Y-127364431D01*
X101688116Y-127581724D01*
X101734000Y-127812400D01*
X101734000Y-128047600D01*
X101688116Y-128278276D01*
X101634697Y-128407240D01*
X101598109Y-128495571D01*
X101467440Y-128691130D01*
X101301130Y-128857440D01*
X101105571Y-128988109D01*
X101105570Y-128988110D01*
X101105569Y-128988110D01*
X100888276Y-129078116D01*
X100657600Y-129124000D01*
X100422400Y-129124000D01*
X100191724Y-129078116D01*
X99974431Y-128988110D01*
X99974430Y-128988110D01*
X99974429Y-128988109D01*
X99778870Y-128857440D01*
X99612560Y-128691130D01*
X99481891Y-128495571D01*
X99445303Y-128407240D01*
X99391884Y-128278276D01*
X99346000Y-128047600D01*
X99346000Y-127812400D01*
X99391884Y-127581724D01*
X99481890Y-127364431D01*
X99488019Y-127355259D01*
X99612560Y-127168870D01*
X99778870Y-127002560D01*
X99974429Y-126871891D01*
X99974431Y-126871890D01*
X100191724Y-126781884D01*
X100422400Y-126736000D01*
X100657600Y-126736000D01*
X100888276Y-126781884D01*
G37*
G36*
X64012585Y-124498802D02*
G01*
X64162410Y-124528604D01*
X64444674Y-124645521D01*
X64698705Y-124815259D01*
X64914741Y-125031295D01*
X65084479Y-125285326D01*
X65201396Y-125567590D01*
X65261000Y-125867240D01*
X65261000Y-126172760D01*
X65201396Y-126472410D01*
X65084479Y-126754674D01*
X64914741Y-127008705D01*
X64698705Y-127224741D01*
X64444674Y-127394479D01*
X64162410Y-127511396D01*
X64012585Y-127541198D01*
X63862761Y-127571000D01*
X63557239Y-127571000D01*
X63407415Y-127541198D01*
X63257590Y-127511396D01*
X62975326Y-127394479D01*
X62721295Y-127224741D01*
X62505259Y-127008705D01*
X62335521Y-126754674D01*
X62218604Y-126472410D01*
X62159000Y-126172760D01*
X62159000Y-125867240D01*
X62218604Y-125567590D01*
X62335521Y-125285326D01*
X62505259Y-125031295D01*
X62721295Y-124815259D01*
X62975326Y-124645521D01*
X63257590Y-124528604D01*
X63407415Y-124498802D01*
X63557239Y-124469000D01*
X63862761Y-124469000D01*
X64012585Y-124498802D01*
G37*
G36*
X83062585Y-124498802D02*
G01*
X83212410Y-124528604D01*
X83494674Y-124645521D01*
X83748705Y-124815259D01*
X83964741Y-125031295D01*
X84134479Y-125285326D01*
X84251396Y-125567590D01*
X84311000Y-125867240D01*
X84311000Y-126172760D01*
X84251396Y-126472410D01*
X84134479Y-126754674D01*
X83964741Y-127008705D01*
X83748705Y-127224741D01*
X83494674Y-127394479D01*
X83212410Y-127511396D01*
X83062585Y-127541198D01*
X82912761Y-127571000D01*
X82607239Y-127571000D01*
X82457415Y-127541198D01*
X82307590Y-127511396D01*
X82025326Y-127394479D01*
X81771295Y-127224741D01*
X81555259Y-127008705D01*
X81385521Y-126754674D01*
X81268604Y-126472410D01*
X81209000Y-126172760D01*
X81209000Y-125867240D01*
X81268604Y-125567590D01*
X81385521Y-125285326D01*
X81555259Y-125031295D01*
X81771295Y-124815259D01*
X82025326Y-124645521D01*
X82307590Y-124528604D01*
X82457415Y-124498802D01*
X82607239Y-124469000D01*
X82912761Y-124469000D01*
X83062585Y-124498802D01*
G37*
G36*
X44962585Y-124498802D02*
G01*
X45112410Y-124528604D01*
X45394674Y-124645521D01*
X45648705Y-124815259D01*
X45864741Y-125031295D01*
X46034479Y-125285326D01*
X46151396Y-125567590D01*
X46211000Y-125867240D01*
X46211000Y-126172760D01*
X46151396Y-126472410D01*
X46034479Y-126754674D01*
X45864741Y-127008705D01*
X45648705Y-127224741D01*
X45394674Y-127394479D01*
X45112410Y-127511396D01*
X44962585Y-127541198D01*
X44812761Y-127571000D01*
X44507239Y-127571000D01*
X44357415Y-127541198D01*
X44207590Y-127511396D01*
X43925326Y-127394479D01*
X43671295Y-127224741D01*
X43455259Y-127008705D01*
X43285521Y-126754674D01*
X43168604Y-126472410D01*
X43109000Y-126172760D01*
X43109000Y-125867240D01*
X43168604Y-125567590D01*
X43285521Y-125285326D01*
X43455259Y-125031295D01*
X43671295Y-124815259D01*
X43925326Y-124645521D01*
X44207590Y-124528604D01*
X44357415Y-124498802D01*
X44507239Y-124469000D01*
X44812761Y-124469000D01*
X44962585Y-124498802D01*
G37*
G36*
X49736000Y-127321000D02*
G01*
X47084000Y-127321000D01*
X47084000Y-124719000D01*
X49736000Y-124719000D01*
X49736000Y-127321000D01*
G37*
G36*
X68786000Y-127321000D02*
G01*
X66134000Y-127321000D01*
X66134000Y-124719000D01*
X68786000Y-124719000D01*
X68786000Y-127321000D01*
G37*
G36*
X87836000Y-127321000D02*
G01*
X85184000Y-127321000D01*
X85184000Y-124719000D01*
X87836000Y-124719000D01*
X87836000Y-127321000D01*
G37*
G36*
X60496474Y-121513684D02*
G01*
X60714474Y-121603983D01*
X60868623Y-121667833D01*
X61203548Y-121891623D01*
X61488377Y-122176452D01*
X61712167Y-122511377D01*
X61763155Y-122634474D01*
X61866316Y-122883526D01*
X61944900Y-123278594D01*
X61944900Y-123681406D01*
X61866316Y-124076474D01*
X61782322Y-124279253D01*
X61712167Y-124448623D01*
X61488377Y-124783548D01*
X61203548Y-125068377D01*
X60868623Y-125292167D01*
X60714474Y-125356017D01*
X60496474Y-125446316D01*
X60101406Y-125524900D01*
X59698594Y-125524900D01*
X59303526Y-125446316D01*
X59085526Y-125356017D01*
X58931377Y-125292167D01*
X58596452Y-125068377D01*
X58311623Y-124783548D01*
X58087833Y-124448623D01*
X58017678Y-124279253D01*
X57933684Y-124076474D01*
X57855100Y-123681406D01*
X57855100Y-123278594D01*
X57933684Y-122883526D01*
X58036845Y-122634474D01*
X58087833Y-122511377D01*
X58311623Y-122176452D01*
X58596452Y-121891623D01*
X58931377Y-121667833D01*
X59085526Y-121603983D01*
X59303526Y-121513684D01*
X59698594Y-121435100D01*
X60101406Y-121435100D01*
X60496474Y-121513684D01*
G37*
G36*
X41446474Y-121513684D02*
G01*
X41664474Y-121603983D01*
X41818623Y-121667833D01*
X42153548Y-121891623D01*
X42438377Y-122176452D01*
X42662167Y-122511377D01*
X42713155Y-122634474D01*
X42816316Y-122883526D01*
X42894900Y-123278594D01*
X42894900Y-123681406D01*
X42816316Y-124076474D01*
X42732322Y-124279253D01*
X42662167Y-124448623D01*
X42438377Y-124783548D01*
X42153548Y-125068377D01*
X41818623Y-125292167D01*
X41664474Y-125356017D01*
X41446474Y-125446316D01*
X41051406Y-125524900D01*
X40648594Y-125524900D01*
X40253526Y-125446316D01*
X40035526Y-125356017D01*
X39881377Y-125292167D01*
X39546452Y-125068377D01*
X39261623Y-124783548D01*
X39037833Y-124448623D01*
X38967678Y-124279253D01*
X38883684Y-124076474D01*
X38805100Y-123681406D01*
X38805100Y-123278594D01*
X38883684Y-122883526D01*
X38986845Y-122634474D01*
X39037833Y-122511377D01*
X39261623Y-122176452D01*
X39546452Y-121891623D01*
X39881377Y-121667833D01*
X40035526Y-121603983D01*
X40253526Y-121513684D01*
X40648594Y-121435100D01*
X41051406Y-121435100D01*
X41446474Y-121513684D01*
G37*
G36*
X79546474Y-121513684D02*
G01*
X79764474Y-121603983D01*
X79918623Y-121667833D01*
X80253548Y-121891623D01*
X80538377Y-122176452D01*
X80762167Y-122511377D01*
X80813155Y-122634474D01*
X80916316Y-122883526D01*
X80994900Y-123278594D01*
X80994900Y-123681406D01*
X80916316Y-124076474D01*
X80832322Y-124279253D01*
X80762167Y-124448623D01*
X80538377Y-124783548D01*
X80253548Y-125068377D01*
X79918623Y-125292167D01*
X79764474Y-125356017D01*
X79546474Y-125446316D01*
X79151406Y-125524900D01*
X78748594Y-125524900D01*
X78353526Y-125446316D01*
X78135526Y-125356017D01*
X77981377Y-125292167D01*
X77646452Y-125068377D01*
X77361623Y-124783548D01*
X77137833Y-124448623D01*
X77067678Y-124279253D01*
X76983684Y-124076474D01*
X76905100Y-123681406D01*
X76905100Y-123278594D01*
X76983684Y-122883526D01*
X77086845Y-122634474D01*
X77137833Y-122511377D01*
X77361623Y-122176452D01*
X77646452Y-121891623D01*
X77981377Y-121667833D01*
X78135526Y-121603983D01*
X78353526Y-121513684D01*
X78748594Y-121435100D01*
X79151406Y-121435100D01*
X79546474Y-121513684D01*
G37*
G36*
X84205952Y-122595430D02*
G01*
X84293075Y-122612759D01*
X84402498Y-122658084D01*
X84457211Y-122680747D01*
X84498562Y-122708377D01*
X84604928Y-122779448D01*
X84730552Y-122905072D01*
X84730554Y-122905075D01*
X84829253Y-123052789D01*
X84829253Y-123052790D01*
X84897241Y-123216925D01*
X84931900Y-123391171D01*
X84931900Y-123568829D01*
X84897241Y-123743075D01*
X84851916Y-123852498D01*
X84829253Y-123907211D01*
X84731217Y-124053933D01*
X84730552Y-124054928D01*
X84604928Y-124180552D01*
X84604925Y-124180554D01*
X84457211Y-124279253D01*
X84402498Y-124301916D01*
X84293075Y-124347241D01*
X84205952Y-124364570D01*
X84118831Y-124381900D01*
X83941169Y-124381900D01*
X83854048Y-124364570D01*
X83766925Y-124347241D01*
X83657502Y-124301916D01*
X83602789Y-124279253D01*
X83455075Y-124180554D01*
X83455072Y-124180552D01*
X83329448Y-124054928D01*
X83328783Y-124053933D01*
X83230747Y-123907211D01*
X83208084Y-123852498D01*
X83162759Y-123743075D01*
X83128100Y-123568829D01*
X83128100Y-123391171D01*
X83162759Y-123216925D01*
X83230747Y-123052790D01*
X83230747Y-123052789D01*
X83329446Y-122905075D01*
X83329448Y-122905072D01*
X83455072Y-122779448D01*
X83561438Y-122708377D01*
X83602789Y-122680747D01*
X83657502Y-122658084D01*
X83766925Y-122612759D01*
X83854048Y-122595430D01*
X83941169Y-122578100D01*
X84118831Y-122578100D01*
X84205952Y-122595430D01*
G37*
G36*
X74045952Y-122595430D02*
G01*
X74133075Y-122612759D01*
X74242498Y-122658084D01*
X74297211Y-122680747D01*
X74338562Y-122708377D01*
X74444928Y-122779448D01*
X74570552Y-122905072D01*
X74570554Y-122905075D01*
X74669253Y-123052789D01*
X74669253Y-123052790D01*
X74737241Y-123216925D01*
X74771900Y-123391171D01*
X74771900Y-123568829D01*
X74737241Y-123743075D01*
X74691916Y-123852498D01*
X74669253Y-123907211D01*
X74571217Y-124053933D01*
X74570552Y-124054928D01*
X74444928Y-124180552D01*
X74444925Y-124180554D01*
X74297211Y-124279253D01*
X74242498Y-124301916D01*
X74133075Y-124347241D01*
X74045952Y-124364570D01*
X73958831Y-124381900D01*
X73781169Y-124381900D01*
X73694048Y-124364570D01*
X73606925Y-124347241D01*
X73497502Y-124301916D01*
X73442789Y-124279253D01*
X73295075Y-124180554D01*
X73295072Y-124180552D01*
X73169448Y-124054928D01*
X73168783Y-124053933D01*
X73070747Y-123907211D01*
X73048084Y-123852498D01*
X73002759Y-123743075D01*
X72968100Y-123568829D01*
X72968100Y-123391171D01*
X73002759Y-123216925D01*
X73070747Y-123052790D01*
X73070747Y-123052789D01*
X73169446Y-122905075D01*
X73169448Y-122905072D01*
X73295072Y-122779448D01*
X73401438Y-122708377D01*
X73442789Y-122680747D01*
X73497502Y-122658084D01*
X73606925Y-122612759D01*
X73694048Y-122595430D01*
X73781169Y-122578100D01*
X73958831Y-122578100D01*
X74045952Y-122595430D01*
G37*
G36*
X65155952Y-122595430D02*
G01*
X65243075Y-122612759D01*
X65352498Y-122658084D01*
X65407211Y-122680747D01*
X65448562Y-122708377D01*
X65554928Y-122779448D01*
X65680552Y-122905072D01*
X65680554Y-122905075D01*
X65779253Y-123052789D01*
X65779253Y-123052790D01*
X65847241Y-123216925D01*
X65881900Y-123391171D01*
X65881900Y-123568829D01*
X65847241Y-123743075D01*
X65801916Y-123852498D01*
X65779253Y-123907211D01*
X65681217Y-124053933D01*
X65680552Y-124054928D01*
X65554928Y-124180552D01*
X65554925Y-124180554D01*
X65407211Y-124279253D01*
X65352498Y-124301916D01*
X65243075Y-124347241D01*
X65155952Y-124364570D01*
X65068831Y-124381900D01*
X64891169Y-124381900D01*
X64804048Y-124364570D01*
X64716925Y-124347241D01*
X64607502Y-124301916D01*
X64552789Y-124279253D01*
X64405075Y-124180554D01*
X64405072Y-124180552D01*
X64279448Y-124054928D01*
X64278783Y-124053933D01*
X64180747Y-123907211D01*
X64158084Y-123852498D01*
X64112759Y-123743075D01*
X64078100Y-123568829D01*
X64078100Y-123391171D01*
X64112759Y-123216925D01*
X64180747Y-123052790D01*
X64180747Y-123052789D01*
X64279446Y-122905075D01*
X64279448Y-122905072D01*
X64405072Y-122779448D01*
X64511438Y-122708377D01*
X64552789Y-122680747D01*
X64607502Y-122658084D01*
X64716925Y-122612759D01*
X64804048Y-122595430D01*
X64891169Y-122578100D01*
X65068831Y-122578100D01*
X65155952Y-122595430D01*
G37*
G36*
X46105952Y-122595430D02*
G01*
X46193075Y-122612759D01*
X46302498Y-122658084D01*
X46357211Y-122680747D01*
X46398562Y-122708377D01*
X46504928Y-122779448D01*
X46630552Y-122905072D01*
X46630554Y-122905075D01*
X46729253Y-123052789D01*
X46729253Y-123052790D01*
X46797241Y-123216925D01*
X46831900Y-123391171D01*
X46831900Y-123568829D01*
X46797241Y-123743075D01*
X46751916Y-123852498D01*
X46729253Y-123907211D01*
X46631217Y-124053933D01*
X46630552Y-124054928D01*
X46504928Y-124180552D01*
X46504925Y-124180554D01*
X46357211Y-124279253D01*
X46302498Y-124301916D01*
X46193075Y-124347241D01*
X46105952Y-124364570D01*
X46018831Y-124381900D01*
X45841169Y-124381900D01*
X45754048Y-124364570D01*
X45666925Y-124347241D01*
X45557502Y-124301916D01*
X45502789Y-124279253D01*
X45355075Y-124180554D01*
X45355072Y-124180552D01*
X45229448Y-124054928D01*
X45228783Y-124053933D01*
X45130747Y-123907211D01*
X45108084Y-123852498D01*
X45062759Y-123743075D01*
X45028100Y-123568829D01*
X45028100Y-123391171D01*
X45062759Y-123216925D01*
X45130747Y-123052790D01*
X45130747Y-123052789D01*
X45229446Y-122905075D01*
X45229448Y-122905072D01*
X45355072Y-122779448D01*
X45461438Y-122708377D01*
X45502789Y-122680747D01*
X45557502Y-122658084D01*
X45666925Y-122612759D01*
X45754048Y-122595430D01*
X45841169Y-122578100D01*
X46018831Y-122578100D01*
X46105952Y-122595430D01*
G37*
G36*
X35945952Y-122595430D02*
G01*
X36033075Y-122612759D01*
X36142498Y-122658084D01*
X36197211Y-122680747D01*
X36238562Y-122708377D01*
X36344928Y-122779448D01*
X36470552Y-122905072D01*
X36470554Y-122905075D01*
X36569253Y-123052789D01*
X36569253Y-123052790D01*
X36637241Y-123216925D01*
X36671900Y-123391171D01*
X36671900Y-123568829D01*
X36637241Y-123743075D01*
X36591916Y-123852498D01*
X36569253Y-123907211D01*
X36471217Y-124053933D01*
X36470552Y-124054928D01*
X36344928Y-124180552D01*
X36344925Y-124180554D01*
X36197211Y-124279253D01*
X36142498Y-124301916D01*
X36033075Y-124347241D01*
X35945952Y-124364570D01*
X35858831Y-124381900D01*
X35681169Y-124381900D01*
X35594048Y-124364570D01*
X35506925Y-124347241D01*
X35397502Y-124301916D01*
X35342789Y-124279253D01*
X35195075Y-124180554D01*
X35195072Y-124180552D01*
X35069448Y-124054928D01*
X35068783Y-124053933D01*
X34970747Y-123907211D01*
X34948084Y-123852498D01*
X34902759Y-123743075D01*
X34868100Y-123568829D01*
X34868100Y-123391171D01*
X34902759Y-123216925D01*
X34970747Y-123052790D01*
X34970747Y-123052789D01*
X35069446Y-122905075D01*
X35069448Y-122905072D01*
X35195072Y-122779448D01*
X35301438Y-122708377D01*
X35342789Y-122680747D01*
X35397502Y-122658084D01*
X35506925Y-122612759D01*
X35594048Y-122595430D01*
X35681169Y-122578100D01*
X35858831Y-122578100D01*
X35945952Y-122595430D01*
G37*
G36*
X54995952Y-122595430D02*
G01*
X55083075Y-122612759D01*
X55192498Y-122658084D01*
X55247211Y-122680747D01*
X55288562Y-122708377D01*
X55394928Y-122779448D01*
X55520552Y-122905072D01*
X55520554Y-122905075D01*
X55619253Y-123052789D01*
X55619253Y-123052790D01*
X55687241Y-123216925D01*
X55721900Y-123391171D01*
X55721900Y-123568829D01*
X55687241Y-123743075D01*
X55641916Y-123852498D01*
X55619253Y-123907211D01*
X55521217Y-124053933D01*
X55520552Y-124054928D01*
X55394928Y-124180552D01*
X55394925Y-124180554D01*
X55247211Y-124279253D01*
X55192498Y-124301916D01*
X55083075Y-124347241D01*
X54995952Y-124364570D01*
X54908831Y-124381900D01*
X54731169Y-124381900D01*
X54644048Y-124364570D01*
X54556925Y-124347241D01*
X54447502Y-124301916D01*
X54392789Y-124279253D01*
X54245075Y-124180554D01*
X54245072Y-124180552D01*
X54119448Y-124054928D01*
X54118783Y-124053933D01*
X54020747Y-123907211D01*
X53998084Y-123852498D01*
X53952759Y-123743075D01*
X53918100Y-123568829D01*
X53918100Y-123391171D01*
X53952759Y-123216925D01*
X54020747Y-123052790D01*
X54020747Y-123052789D01*
X54119446Y-122905075D01*
X54119448Y-122905072D01*
X54245072Y-122779448D01*
X54351438Y-122708377D01*
X54392789Y-122680747D01*
X54447502Y-122658084D01*
X54556925Y-122612759D01*
X54644048Y-122595430D01*
X54731169Y-122578100D01*
X54908831Y-122578100D01*
X54995952Y-122595430D01*
G37*
G36*
X106851474Y-119153684D02*
G01*
X107069474Y-119243983D01*
X107223623Y-119307833D01*
X107558548Y-119531623D01*
X107843377Y-119816452D01*
X108067167Y-120151377D01*
X108067167Y-120151378D01*
X108221316Y-120523526D01*
X108299900Y-120918594D01*
X108299900Y-121321406D01*
X108221316Y-121716474D01*
X108159363Y-121866041D01*
X108067167Y-122088623D01*
X107843377Y-122423548D01*
X107558548Y-122708377D01*
X107223623Y-122932167D01*
X107069474Y-122996017D01*
X106851474Y-123086316D01*
X106456406Y-123164900D01*
X106053594Y-123164900D01*
X105658526Y-123086316D01*
X105440526Y-122996017D01*
X105286377Y-122932167D01*
X104951452Y-122708377D01*
X104666623Y-122423548D01*
X104442833Y-122088623D01*
X104350637Y-121866041D01*
X104288684Y-121716474D01*
X104210100Y-121321406D01*
X104210100Y-120918594D01*
X104288684Y-120523526D01*
X104442833Y-120151378D01*
X104442833Y-120151377D01*
X104666623Y-119816452D01*
X104951452Y-119531623D01*
X105286377Y-119307833D01*
X105440526Y-119243983D01*
X105658526Y-119153684D01*
X106053594Y-119075100D01*
X106456406Y-119075100D01*
X106851474Y-119153684D01*
G37*
G36*
X91322267Y-119575263D02*
G01*
X91474411Y-119605526D01*
X91593137Y-119654704D01*
X91761041Y-119724252D01*
X91761042Y-119724253D01*
X92019004Y-119896617D01*
X92238383Y-120115996D01*
X92353553Y-120288361D01*
X92410748Y-120373959D01*
X92472700Y-120523525D01*
X92529474Y-120660589D01*
X92590000Y-120964876D01*
X92590000Y-121275124D01*
X92544162Y-121505571D01*
X92529474Y-121579410D01*
X92410748Y-121866041D01*
X92353553Y-121951639D01*
X92238383Y-122124004D01*
X92019004Y-122343383D01*
X91899028Y-122423548D01*
X91761041Y-122515748D01*
X91610509Y-122578100D01*
X91474411Y-122634474D01*
X91322267Y-122664737D01*
X91170125Y-122695000D01*
X90859875Y-122695000D01*
X90707733Y-122664737D01*
X90555589Y-122634474D01*
X90419491Y-122578100D01*
X90268959Y-122515748D01*
X90130972Y-122423548D01*
X90010996Y-122343383D01*
X89791617Y-122124004D01*
X89676447Y-121951639D01*
X89619252Y-121866041D01*
X89500526Y-121579410D01*
X89485839Y-121505571D01*
X89440000Y-121275124D01*
X89440000Y-120964876D01*
X89500526Y-120660589D01*
X89557300Y-120523525D01*
X89619252Y-120373959D01*
X89676447Y-120288361D01*
X89791617Y-120115996D01*
X90010996Y-119896617D01*
X90268958Y-119724253D01*
X90268959Y-119724252D01*
X90436863Y-119654704D01*
X90555589Y-119605526D01*
X90707733Y-119575263D01*
X90859875Y-119545000D01*
X91170125Y-119545000D01*
X91322267Y-119575263D01*
G37*
G36*
X75488276Y-119791884D02*
G01*
X75705569Y-119881890D01*
X75705571Y-119881891D01*
X75901130Y-120012560D01*
X76067440Y-120178870D01*
X76198110Y-120374431D01*
X76288116Y-120591724D01*
X76334000Y-120822400D01*
X76334000Y-121057600D01*
X76288116Y-121288276D01*
X76274393Y-121321405D01*
X76198109Y-121505571D01*
X76067440Y-121701130D01*
X75901130Y-121867440D01*
X75705571Y-121998109D01*
X75705570Y-121998110D01*
X75705569Y-121998110D01*
X75488276Y-122088116D01*
X75257600Y-122134000D01*
X75022400Y-122134000D01*
X74791724Y-122088116D01*
X74574431Y-121998110D01*
X74574430Y-121998110D01*
X74574429Y-121998109D01*
X74378870Y-121867440D01*
X74212560Y-121701130D01*
X74081891Y-121505571D01*
X74005607Y-121321405D01*
X73991884Y-121288276D01*
X73946000Y-121057600D01*
X73946000Y-120822400D01*
X73991884Y-120591724D01*
X74081890Y-120374431D01*
X74212560Y-120178870D01*
X74378870Y-120012560D01*
X74574429Y-119881891D01*
X74574431Y-119881890D01*
X74791724Y-119791884D01*
X75022400Y-119746000D01*
X75257600Y-119746000D01*
X75488276Y-119791884D01*
G37*
G36*
X56438276Y-119791884D02*
G01*
X56655569Y-119881890D01*
X56655571Y-119881891D01*
X56851130Y-120012560D01*
X57017440Y-120178870D01*
X57148110Y-120374431D01*
X57238116Y-120591724D01*
X57284000Y-120822400D01*
X57284000Y-121057600D01*
X57238116Y-121288276D01*
X57224393Y-121321405D01*
X57148109Y-121505571D01*
X57017440Y-121701130D01*
X56851130Y-121867440D01*
X56655571Y-121998109D01*
X56655570Y-121998110D01*
X56655569Y-121998110D01*
X56438276Y-122088116D01*
X56207600Y-122134000D01*
X55972400Y-122134000D01*
X55741724Y-122088116D01*
X55524431Y-121998110D01*
X55524430Y-121998110D01*
X55524429Y-121998109D01*
X55328870Y-121867440D01*
X55162560Y-121701130D01*
X55031891Y-121505571D01*
X54955607Y-121321405D01*
X54941884Y-121288276D01*
X54896000Y-121057600D01*
X54896000Y-120822400D01*
X54941884Y-120591724D01*
X55031890Y-120374431D01*
X55162560Y-120178870D01*
X55328870Y-120012560D01*
X55524429Y-119881891D01*
X55524431Y-119881890D01*
X55741724Y-119791884D01*
X55972400Y-119746000D01*
X56207600Y-119746000D01*
X56438276Y-119791884D01*
G37*
G36*
X37388276Y-119791884D02*
G01*
X37605569Y-119881890D01*
X37605571Y-119881891D01*
X37801130Y-120012560D01*
X37967440Y-120178870D01*
X38098110Y-120374431D01*
X38188116Y-120591724D01*
X38234000Y-120822400D01*
X38234000Y-121057600D01*
X38188116Y-121288276D01*
X38174393Y-121321405D01*
X38098109Y-121505571D01*
X37967440Y-121701130D01*
X37801130Y-121867440D01*
X37605571Y-121998109D01*
X37605570Y-121998110D01*
X37605569Y-121998110D01*
X37388276Y-122088116D01*
X37157600Y-122134000D01*
X36922400Y-122134000D01*
X36691724Y-122088116D01*
X36474431Y-121998110D01*
X36474430Y-121998110D01*
X36474429Y-121998109D01*
X36278870Y-121867440D01*
X36112560Y-121701130D01*
X35981891Y-121505571D01*
X35905607Y-121321405D01*
X35891884Y-121288276D01*
X35846000Y-121057600D01*
X35846000Y-120822400D01*
X35891884Y-120591724D01*
X35981890Y-120374431D01*
X36112560Y-120178870D01*
X36278870Y-120012560D01*
X36474429Y-119881891D01*
X36474431Y-119881890D01*
X36691724Y-119791884D01*
X36922400Y-119746000D01*
X37157600Y-119746000D01*
X37388276Y-119791884D01*
G37*
G36*
X81838276Y-117251884D02*
G01*
X82055569Y-117341890D01*
X82055571Y-117341891D01*
X82251130Y-117472560D01*
X82417440Y-117638870D01*
X82548110Y-117834431D01*
X82638116Y-118051724D01*
X82684000Y-118282400D01*
X82684000Y-118517600D01*
X82638116Y-118748276D01*
X82548110Y-118965569D01*
X82548109Y-118965571D01*
X82417440Y-119161130D01*
X82251130Y-119327440D01*
X82055571Y-119458109D01*
X82055570Y-119458110D01*
X82055569Y-119458110D01*
X81838276Y-119548116D01*
X81607600Y-119594000D01*
X81372400Y-119594000D01*
X81141724Y-119548116D01*
X80924431Y-119458110D01*
X80924430Y-119458110D01*
X80924429Y-119458109D01*
X80728870Y-119327440D01*
X80562560Y-119161130D01*
X80431891Y-118965571D01*
X80431890Y-118965569D01*
X80341884Y-118748276D01*
X80296000Y-118517600D01*
X80296000Y-118282400D01*
X80341884Y-118051724D01*
X80431890Y-117834431D01*
X80562560Y-117638870D01*
X80728870Y-117472560D01*
X80924429Y-117341891D01*
X80924431Y-117341890D01*
X81141724Y-117251884D01*
X81372400Y-117206000D01*
X81607600Y-117206000D01*
X81838276Y-117251884D01*
G37*
G36*
X62788276Y-117251884D02*
G01*
X63005569Y-117341890D01*
X63005571Y-117341891D01*
X63201130Y-117472560D01*
X63367440Y-117638870D01*
X63498110Y-117834431D01*
X63588116Y-118051724D01*
X63634000Y-118282400D01*
X63634000Y-118517600D01*
X63588116Y-118748276D01*
X63498110Y-118965569D01*
X63498109Y-118965571D01*
X63367440Y-119161130D01*
X63201130Y-119327440D01*
X63005571Y-119458109D01*
X63005570Y-119458110D01*
X63005569Y-119458110D01*
X62788276Y-119548116D01*
X62557600Y-119594000D01*
X62322400Y-119594000D01*
X62091724Y-119548116D01*
X61874431Y-119458110D01*
X61874430Y-119458110D01*
X61874429Y-119458109D01*
X61678870Y-119327440D01*
X61512560Y-119161130D01*
X61381891Y-118965571D01*
X61381890Y-118965569D01*
X61291884Y-118748276D01*
X61246000Y-118517600D01*
X61246000Y-118282400D01*
X61291884Y-118051724D01*
X61381890Y-117834431D01*
X61512560Y-117638870D01*
X61678870Y-117472560D01*
X61874429Y-117341891D01*
X61874431Y-117341890D01*
X62091724Y-117251884D01*
X62322400Y-117206000D01*
X62557600Y-117206000D01*
X62788276Y-117251884D01*
G37*
G36*
X43738276Y-117251884D02*
G01*
X43955569Y-117341890D01*
X43955571Y-117341891D01*
X44151130Y-117472560D01*
X44317440Y-117638870D01*
X44448110Y-117834431D01*
X44538116Y-118051724D01*
X44584000Y-118282400D01*
X44584000Y-118517600D01*
X44538116Y-118748276D01*
X44448110Y-118965569D01*
X44448109Y-118965571D01*
X44317440Y-119161130D01*
X44151130Y-119327440D01*
X43955571Y-119458109D01*
X43955570Y-119458110D01*
X43955569Y-119458110D01*
X43738276Y-119548116D01*
X43507600Y-119594000D01*
X43272400Y-119594000D01*
X43041724Y-119548116D01*
X42824431Y-119458110D01*
X42824430Y-119458110D01*
X42824429Y-119458109D01*
X42628870Y-119327440D01*
X42462560Y-119161130D01*
X42331891Y-118965571D01*
X42331890Y-118965569D01*
X42241884Y-118748276D01*
X42196000Y-118517600D01*
X42196000Y-118282400D01*
X42241884Y-118051724D01*
X42331890Y-117834431D01*
X42462560Y-117638870D01*
X42628870Y-117472560D01*
X42824429Y-117341891D01*
X42824431Y-117341890D01*
X43041724Y-117251884D01*
X43272400Y-117206000D01*
X43507600Y-117206000D01*
X43738276Y-117251884D01*
G37*
G36*
X69170000Y-115570000D02*
G01*
X68170000Y-115570000D01*
X68170000Y-114170000D01*
X69170000Y-114170000D01*
X69170000Y-115570000D01*
G37*
G36*
X88660000Y-115485000D02*
G01*
X87660000Y-115485000D01*
X87660000Y-114085000D01*
X88660000Y-114085000D01*
X88660000Y-115485000D01*
G37*
G36*
X50390000Y-115445000D02*
G01*
X49390000Y-115445000D01*
X49390000Y-114045000D01*
X50390000Y-114045000D01*
X50390000Y-115445000D01*
G37*
G36*
X69170000Y-112020000D02*
G01*
X68170000Y-112020000D01*
X68170000Y-110620000D01*
X69170000Y-110620000D01*
X69170000Y-112020000D01*
G37*
G36*
X88660000Y-111935000D02*
G01*
X87660000Y-111935000D01*
X87660000Y-110535000D01*
X88660000Y-110535000D01*
X88660000Y-111935000D01*
G37*
G36*
X50390000Y-111895000D02*
G01*
X49390000Y-111895000D01*
X49390000Y-110495000D01*
X50390000Y-110495000D01*
X50390000Y-111895000D01*
G37*
G36*
X76712585Y-107988802D02*
G01*
X76862410Y-108018604D01*
X77144674Y-108135521D01*
X77398705Y-108305259D01*
X77614741Y-108521295D01*
X77784479Y-108775326D01*
X77901396Y-109057590D01*
X77961000Y-109357240D01*
X77961000Y-109662760D01*
X77901396Y-109962410D01*
X77784479Y-110244674D01*
X77614741Y-110498705D01*
X77398705Y-110714741D01*
X77144674Y-110884479D01*
X76862410Y-111001396D01*
X76712585Y-111031198D01*
X76562761Y-111061000D01*
X76257239Y-111061000D01*
X76107415Y-111031198D01*
X75957590Y-111001396D01*
X75675326Y-110884479D01*
X75421295Y-110714741D01*
X75205259Y-110498705D01*
X75035521Y-110244674D01*
X74918604Y-109962410D01*
X74859000Y-109662760D01*
X74859000Y-109357240D01*
X74918604Y-109057590D01*
X75035521Y-108775326D01*
X75205259Y-108521295D01*
X75421295Y-108305259D01*
X75675326Y-108135521D01*
X75957590Y-108018604D01*
X76107415Y-107988802D01*
X76257239Y-107959000D01*
X76562761Y-107959000D01*
X76712585Y-107988802D01*
G37*
G36*
X38612585Y-107988802D02*
G01*
X38762410Y-108018604D01*
X39044674Y-108135521D01*
X39298705Y-108305259D01*
X39514741Y-108521295D01*
X39684479Y-108775326D01*
X39801396Y-109057590D01*
X39861000Y-109357240D01*
X39861000Y-109662760D01*
X39801396Y-109962410D01*
X39684479Y-110244674D01*
X39514741Y-110498705D01*
X39298705Y-110714741D01*
X39044674Y-110884479D01*
X38762410Y-111001396D01*
X38612585Y-111031198D01*
X38462761Y-111061000D01*
X38157239Y-111061000D01*
X38007415Y-111031198D01*
X37857590Y-111001396D01*
X37575326Y-110884479D01*
X37321295Y-110714741D01*
X37105259Y-110498705D01*
X36935521Y-110244674D01*
X36818604Y-109962410D01*
X36759000Y-109662760D01*
X36759000Y-109357240D01*
X36818604Y-109057590D01*
X36935521Y-108775326D01*
X37105259Y-108521295D01*
X37321295Y-108305259D01*
X37575326Y-108135521D01*
X37857590Y-108018604D01*
X38007415Y-107988802D01*
X38157239Y-107959000D01*
X38462761Y-107959000D01*
X38612585Y-107988802D01*
G37*
G36*
X57662585Y-107988802D02*
G01*
X57812410Y-108018604D01*
X58094674Y-108135521D01*
X58348705Y-108305259D01*
X58564741Y-108521295D01*
X58734479Y-108775326D01*
X58851396Y-109057590D01*
X58911000Y-109357240D01*
X58911000Y-109662760D01*
X58851396Y-109962410D01*
X58734479Y-110244674D01*
X58564741Y-110498705D01*
X58348705Y-110714741D01*
X58094674Y-110884479D01*
X57812410Y-111001396D01*
X57662585Y-111031198D01*
X57512761Y-111061000D01*
X57207239Y-111061000D01*
X57057415Y-111031198D01*
X56907590Y-111001396D01*
X56625326Y-110884479D01*
X56371295Y-110714741D01*
X56155259Y-110498705D01*
X55985521Y-110244674D01*
X55868604Y-109962410D01*
X55809000Y-109662760D01*
X55809000Y-109357240D01*
X55868604Y-109057590D01*
X55985521Y-108775326D01*
X56155259Y-108521295D01*
X56371295Y-108305259D01*
X56625326Y-108135521D01*
X56907590Y-108018604D01*
X57057415Y-107988802D01*
X57207239Y-107959000D01*
X57512761Y-107959000D01*
X57662585Y-107988802D01*
G37*
G36*
X73986000Y-110811000D02*
G01*
X71334000Y-110811000D01*
X71334000Y-108209000D01*
X73986000Y-108209000D01*
X73986000Y-110811000D01*
G37*
G36*
X35886000Y-110811000D02*
G01*
X33234000Y-110811000D01*
X33234000Y-108209000D01*
X35886000Y-108209000D01*
X35886000Y-110811000D01*
G37*
G36*
X54936000Y-110811000D02*
G01*
X52284000Y-110811000D01*
X52284000Y-108209000D01*
X54936000Y-108209000D01*
X54936000Y-110811000D01*
G37*
G36*
X106851474Y-104833684D02*
G01*
X107069474Y-104923983D01*
X107223623Y-104987833D01*
X107558548Y-105211623D01*
X107843377Y-105496452D01*
X108067167Y-105831377D01*
X108067167Y-105831378D01*
X108221316Y-106203526D01*
X108299900Y-106598594D01*
X108299900Y-107001406D01*
X108221316Y-107396474D01*
X108159363Y-107546041D01*
X108067167Y-107768623D01*
X107843377Y-108103548D01*
X107558548Y-108388377D01*
X107223623Y-108612167D01*
X107069474Y-108676017D01*
X106851474Y-108766316D01*
X106456406Y-108844900D01*
X106053594Y-108844900D01*
X105658526Y-108766316D01*
X105440526Y-108676017D01*
X105286377Y-108612167D01*
X104951452Y-108388377D01*
X104666623Y-108103548D01*
X104442833Y-107768623D01*
X104350637Y-107546041D01*
X104288684Y-107396474D01*
X104210100Y-107001406D01*
X104210100Y-106598594D01*
X104288684Y-106203526D01*
X104442833Y-105831378D01*
X104442833Y-105831377D01*
X104666623Y-105496452D01*
X104951452Y-105211623D01*
X105286377Y-104987833D01*
X105440526Y-104923983D01*
X105658526Y-104833684D01*
X106053594Y-104755100D01*
X106456406Y-104755100D01*
X106851474Y-104833684D01*
G37*
G36*
X64012585Y-105448802D02*
G01*
X64162410Y-105478604D01*
X64444674Y-105595521D01*
X64698705Y-105765259D01*
X64914741Y-105981295D01*
X65084479Y-106235326D01*
X65201396Y-106517590D01*
X65261000Y-106817240D01*
X65261000Y-107122760D01*
X65201396Y-107422410D01*
X65084479Y-107704674D01*
X64914741Y-107958705D01*
X64698705Y-108174741D01*
X64444674Y-108344479D01*
X64162410Y-108461396D01*
X64012585Y-108491198D01*
X63862761Y-108521000D01*
X63557239Y-108521000D01*
X63407415Y-108491198D01*
X63257590Y-108461396D01*
X62975326Y-108344479D01*
X62721295Y-108174741D01*
X62505259Y-107958705D01*
X62335521Y-107704674D01*
X62218604Y-107422410D01*
X62159000Y-107122760D01*
X62159000Y-106817240D01*
X62218604Y-106517590D01*
X62335521Y-106235326D01*
X62505259Y-105981295D01*
X62721295Y-105765259D01*
X62975326Y-105595521D01*
X63257590Y-105478604D01*
X63407415Y-105448802D01*
X63557239Y-105419000D01*
X63862761Y-105419000D01*
X64012585Y-105448802D01*
G37*
G36*
X83062585Y-105448802D02*
G01*
X83212410Y-105478604D01*
X83494674Y-105595521D01*
X83748705Y-105765259D01*
X83964741Y-105981295D01*
X84134479Y-106235326D01*
X84251396Y-106517590D01*
X84311000Y-106817240D01*
X84311000Y-107122760D01*
X84251396Y-107422410D01*
X84134479Y-107704674D01*
X83964741Y-107958705D01*
X83748705Y-108174741D01*
X83494674Y-108344479D01*
X83212410Y-108461396D01*
X83062585Y-108491198D01*
X82912761Y-108521000D01*
X82607239Y-108521000D01*
X82457415Y-108491198D01*
X82307590Y-108461396D01*
X82025326Y-108344479D01*
X81771295Y-108174741D01*
X81555259Y-107958705D01*
X81385521Y-107704674D01*
X81268604Y-107422410D01*
X81209000Y-107122760D01*
X81209000Y-106817240D01*
X81268604Y-106517590D01*
X81385521Y-106235326D01*
X81555259Y-105981295D01*
X81771295Y-105765259D01*
X82025326Y-105595521D01*
X82307590Y-105478604D01*
X82457415Y-105448802D01*
X82607239Y-105419000D01*
X82912761Y-105419000D01*
X83062585Y-105448802D01*
G37*
G36*
X44962585Y-105448802D02*
G01*
X45112410Y-105478604D01*
X45394674Y-105595521D01*
X45648705Y-105765259D01*
X45864741Y-105981295D01*
X46034479Y-106235326D01*
X46151396Y-106517590D01*
X46211000Y-106817240D01*
X46211000Y-107122760D01*
X46151396Y-107422410D01*
X46034479Y-107704674D01*
X45864741Y-107958705D01*
X45648705Y-108174741D01*
X45394674Y-108344479D01*
X45112410Y-108461396D01*
X44962585Y-108491198D01*
X44812761Y-108521000D01*
X44507239Y-108521000D01*
X44357415Y-108491198D01*
X44207590Y-108461396D01*
X43925326Y-108344479D01*
X43671295Y-108174741D01*
X43455259Y-107958705D01*
X43285521Y-107704674D01*
X43168604Y-107422410D01*
X43109000Y-107122760D01*
X43109000Y-106817240D01*
X43168604Y-106517590D01*
X43285521Y-106235326D01*
X43455259Y-105981295D01*
X43671295Y-105765259D01*
X43925326Y-105595521D01*
X44207590Y-105478604D01*
X44357415Y-105448802D01*
X44507239Y-105419000D01*
X44812761Y-105419000D01*
X44962585Y-105448802D01*
G37*
G36*
X91474411Y-105285526D02*
G01*
X91502693Y-105297241D01*
X91761041Y-105404252D01*
X91761042Y-105404253D01*
X92019004Y-105576617D01*
X92238383Y-105795996D01*
X92262024Y-105831378D01*
X92410748Y-106053959D01*
X92472700Y-106203525D01*
X92529474Y-106340589D01*
X92540559Y-106396316D01*
X92590000Y-106644875D01*
X92590000Y-106955125D01*
X92529474Y-107259410D01*
X92410748Y-107546041D01*
X92410747Y-107546042D01*
X92238383Y-107804004D01*
X92019004Y-108023383D01*
X91899028Y-108103548D01*
X91761041Y-108195748D01*
X91593137Y-108265296D01*
X91474411Y-108314474D01*
X91323565Y-108344479D01*
X91170125Y-108375000D01*
X90859875Y-108375000D01*
X90706435Y-108344479D01*
X90555589Y-108314474D01*
X90436863Y-108265296D01*
X90268959Y-108195748D01*
X90130972Y-108103548D01*
X90010996Y-108023383D01*
X89791617Y-107804004D01*
X89619253Y-107546042D01*
X89619252Y-107546041D01*
X89500526Y-107259410D01*
X89440000Y-106955125D01*
X89440000Y-106644875D01*
X89489441Y-106396316D01*
X89500526Y-106340589D01*
X89557300Y-106203525D01*
X89619252Y-106053959D01*
X89767976Y-105831378D01*
X89791617Y-105795996D01*
X90010996Y-105576617D01*
X90268958Y-105404253D01*
X90268959Y-105404252D01*
X90527307Y-105297241D01*
X90555589Y-105285526D01*
X90859875Y-105225000D01*
X91170125Y-105225000D01*
X91474411Y-105285526D01*
G37*
G36*
X68786000Y-108271000D02*
G01*
X66134000Y-108271000D01*
X66134000Y-105669000D01*
X68786000Y-105669000D01*
X68786000Y-108271000D01*
G37*
G36*
X49736000Y-108271000D02*
G01*
X47084000Y-108271000D01*
X47084000Y-105669000D01*
X49736000Y-105669000D01*
X49736000Y-108271000D01*
G37*
G36*
X87836000Y-108271000D02*
G01*
X85184000Y-108271000D01*
X85184000Y-105669000D01*
X87836000Y-105669000D01*
X87836000Y-108271000D01*
G37*
G36*
X60496474Y-102463684D02*
G01*
X60714474Y-102553983D01*
X60868623Y-102617833D01*
X61203548Y-102841623D01*
X61488377Y-103126452D01*
X61712167Y-103461377D01*
X61776017Y-103615526D01*
X61866316Y-103833526D01*
X61944900Y-104228594D01*
X61944900Y-104631406D01*
X61866316Y-105026474D01*
X61789625Y-105211623D01*
X61712167Y-105398623D01*
X61488377Y-105733548D01*
X61203548Y-106018377D01*
X60868623Y-106242167D01*
X60714474Y-106306017D01*
X60496474Y-106396316D01*
X60101406Y-106474900D01*
X59698594Y-106474900D01*
X59303526Y-106396316D01*
X59085526Y-106306017D01*
X58931377Y-106242167D01*
X58596452Y-106018377D01*
X58311623Y-105733548D01*
X58087833Y-105398623D01*
X58010375Y-105211623D01*
X57933684Y-105026474D01*
X57855100Y-104631406D01*
X57855100Y-104228594D01*
X57933684Y-103833526D01*
X58023983Y-103615526D01*
X58087833Y-103461377D01*
X58311623Y-103126452D01*
X58596452Y-102841623D01*
X58931377Y-102617833D01*
X59085526Y-102553983D01*
X59303526Y-102463684D01*
X59698594Y-102385100D01*
X60101406Y-102385100D01*
X60496474Y-102463684D01*
G37*
G36*
X41446474Y-102463684D02*
G01*
X41664474Y-102553983D01*
X41818623Y-102617833D01*
X42153548Y-102841623D01*
X42438377Y-103126452D01*
X42662167Y-103461377D01*
X42726017Y-103615526D01*
X42816316Y-103833526D01*
X42894900Y-104228594D01*
X42894900Y-104631406D01*
X42816316Y-105026474D01*
X42739625Y-105211623D01*
X42662167Y-105398623D01*
X42438377Y-105733548D01*
X42153548Y-106018377D01*
X41818623Y-106242167D01*
X41664474Y-106306017D01*
X41446474Y-106396316D01*
X41051406Y-106474900D01*
X40648594Y-106474900D01*
X40253526Y-106396316D01*
X40035526Y-106306017D01*
X39881377Y-106242167D01*
X39546452Y-106018377D01*
X39261623Y-105733548D01*
X39037833Y-105398623D01*
X38960375Y-105211623D01*
X38883684Y-105026474D01*
X38805100Y-104631406D01*
X38805100Y-104228594D01*
X38883684Y-103833526D01*
X38973983Y-103615526D01*
X39037833Y-103461377D01*
X39261623Y-103126452D01*
X39546452Y-102841623D01*
X39881377Y-102617833D01*
X40035526Y-102553983D01*
X40253526Y-102463684D01*
X40648594Y-102385100D01*
X41051406Y-102385100D01*
X41446474Y-102463684D01*
G37*
G36*
X79546474Y-102463684D02*
G01*
X79764474Y-102553983D01*
X79918623Y-102617833D01*
X80253548Y-102841623D01*
X80538377Y-103126452D01*
X80762167Y-103461377D01*
X80826017Y-103615526D01*
X80916316Y-103833526D01*
X80994900Y-104228594D01*
X80994900Y-104631406D01*
X80916316Y-105026474D01*
X80839625Y-105211623D01*
X80762167Y-105398623D01*
X80538377Y-105733548D01*
X80253548Y-106018377D01*
X79918623Y-106242167D01*
X79764474Y-106306017D01*
X79546474Y-106396316D01*
X79151406Y-106474900D01*
X78748594Y-106474900D01*
X78353526Y-106396316D01*
X78135526Y-106306017D01*
X77981377Y-106242167D01*
X77646452Y-106018377D01*
X77361623Y-105733548D01*
X77137833Y-105398623D01*
X77060375Y-105211623D01*
X76983684Y-105026474D01*
X76905100Y-104631406D01*
X76905100Y-104228594D01*
X76983684Y-103833526D01*
X77073983Y-103615526D01*
X77137833Y-103461377D01*
X77361623Y-103126452D01*
X77646452Y-102841623D01*
X77981377Y-102617833D01*
X78135526Y-102553983D01*
X78353526Y-102463684D01*
X78748594Y-102385100D01*
X79151406Y-102385100D01*
X79546474Y-102463684D01*
G37*
G36*
X84205952Y-103545430D02*
G01*
X84293075Y-103562759D01*
X84402498Y-103608084D01*
X84457211Y-103630747D01*
X84603933Y-103728783D01*
X84604928Y-103729448D01*
X84730552Y-103855072D01*
X84730554Y-103855075D01*
X84829253Y-104002789D01*
X84829253Y-104002790D01*
X84897241Y-104166925D01*
X84931900Y-104341171D01*
X84931900Y-104518829D01*
X84897241Y-104693075D01*
X84871549Y-104755100D01*
X84829253Y-104857211D01*
X84741974Y-104987833D01*
X84730552Y-105004928D01*
X84604928Y-105130552D01*
X84604925Y-105130554D01*
X84457211Y-105229253D01*
X84402498Y-105251916D01*
X84293075Y-105297241D01*
X84205952Y-105314571D01*
X84118831Y-105331900D01*
X83941169Y-105331900D01*
X83854048Y-105314570D01*
X83766925Y-105297241D01*
X83657502Y-105251916D01*
X83602789Y-105229253D01*
X83455075Y-105130554D01*
X83455072Y-105130552D01*
X83329448Y-105004928D01*
X83318026Y-104987833D01*
X83230747Y-104857211D01*
X83188451Y-104755100D01*
X83162759Y-104693075D01*
X83128100Y-104518829D01*
X83128100Y-104341171D01*
X83162759Y-104166925D01*
X83230747Y-104002790D01*
X83230747Y-104002789D01*
X83329446Y-103855075D01*
X83329448Y-103855072D01*
X83455072Y-103729448D01*
X83456067Y-103728783D01*
X83602789Y-103630747D01*
X83657502Y-103608084D01*
X83766925Y-103562759D01*
X83854048Y-103545429D01*
X83941169Y-103528100D01*
X84118831Y-103528100D01*
X84205952Y-103545430D01*
G37*
G36*
X35945952Y-103545430D02*
G01*
X36033075Y-103562759D01*
X36142498Y-103608084D01*
X36197211Y-103630747D01*
X36343933Y-103728783D01*
X36344928Y-103729448D01*
X36470552Y-103855072D01*
X36470554Y-103855075D01*
X36569253Y-104002789D01*
X36569253Y-104002790D01*
X36637241Y-104166925D01*
X36671900Y-104341171D01*
X36671900Y-104518829D01*
X36637241Y-104693075D01*
X36611549Y-104755100D01*
X36569253Y-104857211D01*
X36481974Y-104987833D01*
X36470552Y-105004928D01*
X36344928Y-105130552D01*
X36344925Y-105130554D01*
X36197211Y-105229253D01*
X36142498Y-105251916D01*
X36033075Y-105297241D01*
X35945952Y-105314571D01*
X35858831Y-105331900D01*
X35681169Y-105331900D01*
X35594048Y-105314570D01*
X35506925Y-105297241D01*
X35397502Y-105251916D01*
X35342789Y-105229253D01*
X35195075Y-105130554D01*
X35195072Y-105130552D01*
X35069448Y-105004928D01*
X35058026Y-104987833D01*
X34970747Y-104857211D01*
X34928451Y-104755100D01*
X34902759Y-104693075D01*
X34868100Y-104518829D01*
X34868100Y-104341171D01*
X34902759Y-104166925D01*
X34970747Y-104002790D01*
X34970747Y-104002789D01*
X35069446Y-103855075D01*
X35069448Y-103855072D01*
X35195072Y-103729448D01*
X35196067Y-103728783D01*
X35342789Y-103630747D01*
X35397502Y-103608084D01*
X35506925Y-103562759D01*
X35594048Y-103545429D01*
X35681169Y-103528100D01*
X35858831Y-103528100D01*
X35945952Y-103545430D01*
G37*
G36*
X46105952Y-103545430D02*
G01*
X46193075Y-103562759D01*
X46302498Y-103608084D01*
X46357211Y-103630747D01*
X46503933Y-103728783D01*
X46504928Y-103729448D01*
X46630552Y-103855072D01*
X46630554Y-103855075D01*
X46729253Y-104002789D01*
X46729253Y-104002790D01*
X46797241Y-104166925D01*
X46831900Y-104341171D01*
X46831900Y-104518829D01*
X46797241Y-104693075D01*
X46771549Y-104755100D01*
X46729253Y-104857211D01*
X46641974Y-104987833D01*
X46630552Y-105004928D01*
X46504928Y-105130552D01*
X46504925Y-105130554D01*
X46357211Y-105229253D01*
X46302498Y-105251916D01*
X46193075Y-105297241D01*
X46105952Y-105314571D01*
X46018831Y-105331900D01*
X45841169Y-105331900D01*
X45754048Y-105314570D01*
X45666925Y-105297241D01*
X45557502Y-105251916D01*
X45502789Y-105229253D01*
X45355075Y-105130554D01*
X45355072Y-105130552D01*
X45229448Y-105004928D01*
X45218026Y-104987833D01*
X45130747Y-104857211D01*
X45088451Y-104755100D01*
X45062759Y-104693075D01*
X45028100Y-104518829D01*
X45028100Y-104341171D01*
X45062759Y-104166925D01*
X45130747Y-104002790D01*
X45130747Y-104002789D01*
X45229446Y-103855075D01*
X45229448Y-103855072D01*
X45355072Y-103729448D01*
X45356067Y-103728783D01*
X45502789Y-103630747D01*
X45557502Y-103608084D01*
X45666925Y-103562759D01*
X45754048Y-103545429D01*
X45841169Y-103528100D01*
X46018831Y-103528100D01*
X46105952Y-103545430D01*
G37*
G36*
X74045952Y-103545430D02*
G01*
X74133075Y-103562759D01*
X74242498Y-103608084D01*
X74297211Y-103630747D01*
X74443933Y-103728783D01*
X74444928Y-103729448D01*
X74570552Y-103855072D01*
X74570554Y-103855075D01*
X74669253Y-104002789D01*
X74669253Y-104002790D01*
X74737241Y-104166925D01*
X74771900Y-104341171D01*
X74771900Y-104518829D01*
X74737241Y-104693075D01*
X74711549Y-104755100D01*
X74669253Y-104857211D01*
X74581974Y-104987833D01*
X74570552Y-105004928D01*
X74444928Y-105130552D01*
X74444925Y-105130554D01*
X74297211Y-105229253D01*
X74242498Y-105251916D01*
X74133075Y-105297241D01*
X74045952Y-105314571D01*
X73958831Y-105331900D01*
X73781169Y-105331900D01*
X73694048Y-105314570D01*
X73606925Y-105297241D01*
X73497502Y-105251916D01*
X73442789Y-105229253D01*
X73295075Y-105130554D01*
X73295072Y-105130552D01*
X73169448Y-105004928D01*
X73158026Y-104987833D01*
X73070747Y-104857211D01*
X73028451Y-104755100D01*
X73002759Y-104693075D01*
X72968100Y-104518829D01*
X72968100Y-104341171D01*
X73002759Y-104166925D01*
X73070747Y-104002790D01*
X73070747Y-104002789D01*
X73169446Y-103855075D01*
X73169448Y-103855072D01*
X73295072Y-103729448D01*
X73296067Y-103728783D01*
X73442789Y-103630747D01*
X73497502Y-103608084D01*
X73606925Y-103562759D01*
X73694048Y-103545429D01*
X73781169Y-103528100D01*
X73958831Y-103528100D01*
X74045952Y-103545430D01*
G37*
G36*
X54995952Y-103545430D02*
G01*
X55083075Y-103562759D01*
X55192498Y-103608084D01*
X55247211Y-103630747D01*
X55393933Y-103728783D01*
X55394928Y-103729448D01*
X55520552Y-103855072D01*
X55520554Y-103855075D01*
X55619253Y-104002789D01*
X55619253Y-104002790D01*
X55687241Y-104166925D01*
X55721900Y-104341171D01*
X55721900Y-104518829D01*
X55687241Y-104693075D01*
X55661549Y-104755100D01*
X55619253Y-104857211D01*
X55531974Y-104987833D01*
X55520552Y-105004928D01*
X55394928Y-105130552D01*
X55394925Y-105130554D01*
X55247211Y-105229253D01*
X55192498Y-105251916D01*
X55083075Y-105297241D01*
X54995952Y-105314571D01*
X54908831Y-105331900D01*
X54731169Y-105331900D01*
X54644048Y-105314570D01*
X54556925Y-105297241D01*
X54447502Y-105251916D01*
X54392789Y-105229253D01*
X54245075Y-105130554D01*
X54245072Y-105130552D01*
X54119448Y-105004928D01*
X54108026Y-104987833D01*
X54020747Y-104857211D01*
X53978451Y-104755100D01*
X53952759Y-104693075D01*
X53918100Y-104518829D01*
X53918100Y-104341171D01*
X53952759Y-104166925D01*
X54020747Y-104002790D01*
X54020747Y-104002789D01*
X54119446Y-103855075D01*
X54119448Y-103855072D01*
X54245072Y-103729448D01*
X54246067Y-103728783D01*
X54392789Y-103630747D01*
X54447502Y-103608084D01*
X54556925Y-103562759D01*
X54644048Y-103545429D01*
X54731169Y-103528100D01*
X54908831Y-103528100D01*
X54995952Y-103545430D01*
G37*
G36*
X65155952Y-103545430D02*
G01*
X65243075Y-103562759D01*
X65352498Y-103608084D01*
X65407211Y-103630747D01*
X65553933Y-103728783D01*
X65554928Y-103729448D01*
X65680552Y-103855072D01*
X65680554Y-103855075D01*
X65779253Y-104002789D01*
X65779253Y-104002790D01*
X65847241Y-104166925D01*
X65881900Y-104341171D01*
X65881900Y-104518829D01*
X65847241Y-104693075D01*
X65821549Y-104755100D01*
X65779253Y-104857211D01*
X65691974Y-104987833D01*
X65680552Y-105004928D01*
X65554928Y-105130552D01*
X65554925Y-105130554D01*
X65407211Y-105229253D01*
X65352498Y-105251916D01*
X65243075Y-105297241D01*
X65155952Y-105314571D01*
X65068831Y-105331900D01*
X64891169Y-105331900D01*
X64804048Y-105314570D01*
X64716925Y-105297241D01*
X64607502Y-105251916D01*
X64552789Y-105229253D01*
X64405075Y-105130554D01*
X64405072Y-105130552D01*
X64279448Y-105004928D01*
X64268026Y-104987833D01*
X64180747Y-104857211D01*
X64138451Y-104755100D01*
X64112759Y-104693075D01*
X64078100Y-104518829D01*
X64078100Y-104341171D01*
X64112759Y-104166925D01*
X64180747Y-104002790D01*
X64180747Y-104002789D01*
X64279446Y-103855075D01*
X64279448Y-103855072D01*
X64405072Y-103729448D01*
X64406067Y-103728783D01*
X64552789Y-103630747D01*
X64607502Y-103608084D01*
X64716925Y-103562759D01*
X64804048Y-103545429D01*
X64891169Y-103528100D01*
X65068831Y-103528100D01*
X65155952Y-103545430D01*
G37*
G36*
X75488276Y-100741884D02*
G01*
X75705569Y-100831890D01*
X75705571Y-100831891D01*
X75901130Y-100962560D01*
X76067440Y-101128870D01*
X76169091Y-101281000D01*
X76198110Y-101324431D01*
X76288116Y-101541724D01*
X76334000Y-101772400D01*
X76334000Y-102007600D01*
X76288116Y-102238276D01*
X76227299Y-102385100D01*
X76198109Y-102455571D01*
X76067440Y-102651130D01*
X75901130Y-102817440D01*
X75705571Y-102948109D01*
X75705570Y-102948110D01*
X75705569Y-102948110D01*
X75488276Y-103038116D01*
X75257600Y-103084000D01*
X75022400Y-103084000D01*
X74791724Y-103038116D01*
X74574431Y-102948110D01*
X74574430Y-102948110D01*
X74574429Y-102948109D01*
X74378870Y-102817440D01*
X74212560Y-102651130D01*
X74081891Y-102455571D01*
X74052701Y-102385100D01*
X73991884Y-102238276D01*
X73946000Y-102007600D01*
X73946000Y-101772400D01*
X73991884Y-101541724D01*
X74081890Y-101324431D01*
X74110910Y-101281000D01*
X74212560Y-101128870D01*
X74378870Y-100962560D01*
X74574429Y-100831891D01*
X74574431Y-100831890D01*
X74791724Y-100741884D01*
X75022400Y-100696000D01*
X75257600Y-100696000D01*
X75488276Y-100741884D01*
G37*
G36*
X37388276Y-100741884D02*
G01*
X37605569Y-100831890D01*
X37605571Y-100831891D01*
X37801130Y-100962560D01*
X37967440Y-101128870D01*
X38069091Y-101281000D01*
X38098110Y-101324431D01*
X38188116Y-101541724D01*
X38234000Y-101772400D01*
X38234000Y-102007600D01*
X38188116Y-102238276D01*
X38127299Y-102385100D01*
X38098109Y-102455571D01*
X37967440Y-102651130D01*
X37801130Y-102817440D01*
X37605571Y-102948109D01*
X37605570Y-102948110D01*
X37605569Y-102948110D01*
X37388276Y-103038116D01*
X37157600Y-103084000D01*
X36922400Y-103084000D01*
X36691724Y-103038116D01*
X36474431Y-102948110D01*
X36474430Y-102948110D01*
X36474429Y-102948109D01*
X36278870Y-102817440D01*
X36112560Y-102651130D01*
X35981891Y-102455571D01*
X35952701Y-102385100D01*
X35891884Y-102238276D01*
X35846000Y-102007600D01*
X35846000Y-101772400D01*
X35891884Y-101541724D01*
X35981890Y-101324431D01*
X36010910Y-101281000D01*
X36112560Y-101128870D01*
X36278870Y-100962560D01*
X36474429Y-100831891D01*
X36474431Y-100831890D01*
X36691724Y-100741884D01*
X36922400Y-100696000D01*
X37157600Y-100696000D01*
X37388276Y-100741884D01*
G37*
G36*
X56438276Y-100741884D02*
G01*
X56655569Y-100831890D01*
X56655571Y-100831891D01*
X56851130Y-100962560D01*
X57017440Y-101128870D01*
X57119091Y-101281000D01*
X57148110Y-101324431D01*
X57238116Y-101541724D01*
X57284000Y-101772400D01*
X57284000Y-102007600D01*
X57238116Y-102238276D01*
X57177299Y-102385100D01*
X57148109Y-102455571D01*
X57017440Y-102651130D01*
X56851130Y-102817440D01*
X56655571Y-102948109D01*
X56655570Y-102948110D01*
X56655569Y-102948110D01*
X56438276Y-103038116D01*
X56207600Y-103084000D01*
X55972400Y-103084000D01*
X55741724Y-103038116D01*
X55524431Y-102948110D01*
X55524430Y-102948110D01*
X55524429Y-102948109D01*
X55328870Y-102817440D01*
X55162560Y-102651130D01*
X55031891Y-102455571D01*
X55002701Y-102385100D01*
X54941884Y-102238276D01*
X54896000Y-102007600D01*
X54896000Y-101772400D01*
X54941884Y-101541724D01*
X55031890Y-101324431D01*
X55060910Y-101281000D01*
X55162560Y-101128870D01*
X55328870Y-100962560D01*
X55524429Y-100831891D01*
X55524431Y-100831890D01*
X55741724Y-100741884D01*
X55972400Y-100696000D01*
X56207600Y-100696000D01*
X56438276Y-100741884D01*
G37*
G36*
X95762585Y-98458802D02*
G01*
X95912410Y-98488604D01*
X96194674Y-98605521D01*
X96448705Y-98775259D01*
X96664741Y-98991295D01*
X96834479Y-99245326D01*
X96951396Y-99527590D01*
X97011000Y-99827240D01*
X97011000Y-100132760D01*
X96951396Y-100432410D01*
X96834479Y-100714674D01*
X96664741Y-100968705D01*
X96448705Y-101184741D01*
X96194674Y-101354479D01*
X95912410Y-101471396D01*
X95762585Y-101501198D01*
X95612761Y-101531000D01*
X95307239Y-101531000D01*
X95157415Y-101501198D01*
X95007590Y-101471396D01*
X94725326Y-101354479D01*
X94471295Y-101184741D01*
X94255259Y-100968705D01*
X94085521Y-100714674D01*
X93968604Y-100432410D01*
X93909000Y-100132760D01*
X93909000Y-99827240D01*
X93968604Y-99527590D01*
X94085521Y-99245326D01*
X94255259Y-98991295D01*
X94471295Y-98775259D01*
X94725326Y-98605521D01*
X95007590Y-98488604D01*
X95157415Y-98458802D01*
X95307239Y-98429000D01*
X95612761Y-98429000D01*
X95762585Y-98458802D01*
G37*
G36*
X93036000Y-101281000D02*
G01*
X90384000Y-101281000D01*
X90384000Y-98679000D01*
X93036000Y-98679000D01*
X93036000Y-101281000D01*
G37*
G36*
X81838276Y-98201884D02*
G01*
X82055569Y-98291890D01*
X82055571Y-98291891D01*
X82251130Y-98422560D01*
X82417440Y-98588870D01*
X82541982Y-98775259D01*
X82548110Y-98784431D01*
X82638116Y-99001724D01*
X82684000Y-99232400D01*
X82684000Y-99467600D01*
X82638116Y-99698276D01*
X82584697Y-99827240D01*
X82548109Y-99915571D01*
X82417440Y-100111130D01*
X82251130Y-100277440D01*
X82055571Y-100408109D01*
X82055570Y-100408110D01*
X82055569Y-100408110D01*
X81838276Y-100498116D01*
X81607600Y-100544000D01*
X81372400Y-100544000D01*
X81141724Y-100498116D01*
X80924431Y-100408110D01*
X80924430Y-100408110D01*
X80924429Y-100408109D01*
X80728870Y-100277440D01*
X80562560Y-100111130D01*
X80431891Y-99915571D01*
X80395303Y-99827240D01*
X80341884Y-99698276D01*
X80296000Y-99467600D01*
X80296000Y-99232400D01*
X80341884Y-99001724D01*
X80431890Y-98784431D01*
X80438019Y-98775259D01*
X80562560Y-98588870D01*
X80728870Y-98422560D01*
X80924429Y-98291891D01*
X80924431Y-98291890D01*
X81141724Y-98201884D01*
X81372400Y-98156000D01*
X81607600Y-98156000D01*
X81838276Y-98201884D01*
G37*
G36*
X43738276Y-98201884D02*
G01*
X43955569Y-98291890D01*
X43955571Y-98291891D01*
X44151130Y-98422560D01*
X44317440Y-98588870D01*
X44441982Y-98775259D01*
X44448110Y-98784431D01*
X44538116Y-99001724D01*
X44584000Y-99232400D01*
X44584000Y-99467600D01*
X44538116Y-99698276D01*
X44484697Y-99827240D01*
X44448109Y-99915571D01*
X44317440Y-100111130D01*
X44151130Y-100277440D01*
X43955571Y-100408109D01*
X43955570Y-100408110D01*
X43955569Y-100408110D01*
X43738276Y-100498116D01*
X43507600Y-100544000D01*
X43272400Y-100544000D01*
X43041724Y-100498116D01*
X42824431Y-100408110D01*
X42824430Y-100408110D01*
X42824429Y-100408109D01*
X42628870Y-100277440D01*
X42462560Y-100111130D01*
X42331891Y-99915571D01*
X42295303Y-99827240D01*
X42241884Y-99698276D01*
X42196000Y-99467600D01*
X42196000Y-99232400D01*
X42241884Y-99001724D01*
X42331890Y-98784431D01*
X42338019Y-98775259D01*
X42462560Y-98588870D01*
X42628870Y-98422560D01*
X42824429Y-98291891D01*
X42824431Y-98291890D01*
X43041724Y-98201884D01*
X43272400Y-98156000D01*
X43507600Y-98156000D01*
X43738276Y-98201884D01*
G37*
G36*
X62788276Y-98201884D02*
G01*
X63005569Y-98291890D01*
X63005571Y-98291891D01*
X63201130Y-98422560D01*
X63367440Y-98588870D01*
X63491982Y-98775259D01*
X63498110Y-98784431D01*
X63588116Y-99001724D01*
X63634000Y-99232400D01*
X63634000Y-99467600D01*
X63588116Y-99698276D01*
X63534697Y-99827240D01*
X63498109Y-99915571D01*
X63367440Y-100111130D01*
X63201130Y-100277440D01*
X63005571Y-100408109D01*
X63005570Y-100408110D01*
X63005569Y-100408110D01*
X62788276Y-100498116D01*
X62557600Y-100544000D01*
X62322400Y-100544000D01*
X62091724Y-100498116D01*
X61874431Y-100408110D01*
X61874430Y-100408110D01*
X61874429Y-100408109D01*
X61678870Y-100277440D01*
X61512560Y-100111130D01*
X61381891Y-99915571D01*
X61345303Y-99827240D01*
X61291884Y-99698276D01*
X61246000Y-99467600D01*
X61246000Y-99232400D01*
X61291884Y-99001724D01*
X61381890Y-98784431D01*
X61388019Y-98775259D01*
X61512560Y-98588870D01*
X61678870Y-98422560D01*
X61874429Y-98291891D01*
X61874431Y-98291890D01*
X62091724Y-98201884D01*
X62322400Y-98156000D01*
X62557600Y-98156000D01*
X62788276Y-98201884D01*
G37*
G36*
X102112585Y-95918802D02*
G01*
X102262410Y-95948604D01*
X102544674Y-96065521D01*
X102798705Y-96235259D01*
X103014741Y-96451295D01*
X103184479Y-96705326D01*
X103301396Y-96987590D01*
X103361000Y-97287240D01*
X103361000Y-97592760D01*
X103301396Y-97892410D01*
X103184479Y-98174674D01*
X103014741Y-98428705D01*
X102798705Y-98644741D01*
X102544674Y-98814479D01*
X102262410Y-98931396D01*
X102112585Y-98961198D01*
X101962761Y-98991000D01*
X101657239Y-98991000D01*
X101507415Y-98961198D01*
X101357590Y-98931396D01*
X101075326Y-98814479D01*
X100821295Y-98644741D01*
X100605259Y-98428705D01*
X100435521Y-98174674D01*
X100318604Y-97892410D01*
X100259000Y-97592760D01*
X100259000Y-97287240D01*
X100318604Y-96987590D01*
X100435521Y-96705326D01*
X100605259Y-96451295D01*
X100821295Y-96235259D01*
X101075326Y-96065521D01*
X101357590Y-95948604D01*
X101507415Y-95918802D01*
X101657239Y-95889000D01*
X101962761Y-95889000D01*
X102112585Y-95918802D01*
G37*
G36*
X106886000Y-98741000D02*
G01*
X104234000Y-98741000D01*
X104234000Y-96139000D01*
X106886000Y-96139000D01*
X106886000Y-98741000D01*
G37*
G36*
X110230000Y-97775000D02*
G01*
X109230000Y-97775000D01*
X109230000Y-96375000D01*
X110230000Y-96375000D01*
X110230000Y-97775000D01*
G37*
G36*
X98596474Y-92933684D02*
G01*
X98814474Y-93023983D01*
X98968623Y-93087833D01*
X99303548Y-93311623D01*
X99588377Y-93596452D01*
X99812167Y-93931377D01*
X99876017Y-94085526D01*
X99966316Y-94303526D01*
X100044900Y-94698594D01*
X100044900Y-95101406D01*
X99966316Y-95496474D01*
X99882322Y-95699253D01*
X99812167Y-95868623D01*
X99588377Y-96203548D01*
X99303548Y-96488377D01*
X98968623Y-96712167D01*
X98814474Y-96776017D01*
X98596474Y-96866316D01*
X98201406Y-96944900D01*
X97798594Y-96944900D01*
X97403526Y-96866316D01*
X97185526Y-96776017D01*
X97031377Y-96712167D01*
X96696452Y-96488377D01*
X96411623Y-96203548D01*
X96187833Y-95868623D01*
X96117678Y-95699253D01*
X96033684Y-95496474D01*
X95955100Y-95101406D01*
X95955100Y-94698594D01*
X96033684Y-94303526D01*
X96123983Y-94085526D01*
X96187833Y-93931377D01*
X96411623Y-93596452D01*
X96696452Y-93311623D01*
X97031377Y-93087833D01*
X97185526Y-93023983D01*
X97403526Y-92933684D01*
X97798594Y-92855100D01*
X98201406Y-92855100D01*
X98596474Y-92933684D01*
G37*
G36*
X69450000Y-96215000D02*
G01*
X68450000Y-96215000D01*
X68450000Y-94815000D01*
X69450000Y-94815000D01*
X69450000Y-96215000D01*
G37*
G36*
X88670000Y-96215000D02*
G01*
X87670000Y-96215000D01*
X87670000Y-94815000D01*
X88670000Y-94815000D01*
X88670000Y-96215000D01*
G37*
G36*
X50210000Y-96165000D02*
G01*
X49210000Y-96165000D01*
X49210000Y-94765000D01*
X50210000Y-94765000D01*
X50210000Y-96165000D01*
G37*
G36*
X103255952Y-94015430D02*
G01*
X103343075Y-94032759D01*
X103452498Y-94078084D01*
X103507211Y-94100747D01*
X103653933Y-94198783D01*
X103654928Y-94199448D01*
X103780552Y-94325072D01*
X103780554Y-94325075D01*
X103879253Y-94472789D01*
X103879253Y-94472790D01*
X103947241Y-94636925D01*
X103981900Y-94811171D01*
X103981900Y-94988829D01*
X103947241Y-95163075D01*
X103901916Y-95272498D01*
X103879253Y-95327211D01*
X103781217Y-95473933D01*
X103780552Y-95474928D01*
X103654928Y-95600552D01*
X103654925Y-95600554D01*
X103507211Y-95699253D01*
X103452498Y-95721916D01*
X103343075Y-95767241D01*
X103255952Y-95784571D01*
X103168831Y-95801900D01*
X102991169Y-95801900D01*
X102904048Y-95784571D01*
X102816925Y-95767241D01*
X102707502Y-95721916D01*
X102652789Y-95699253D01*
X102505075Y-95600554D01*
X102505072Y-95600552D01*
X102379448Y-95474928D01*
X102378783Y-95473933D01*
X102280747Y-95327211D01*
X102258084Y-95272498D01*
X102212759Y-95163075D01*
X102178100Y-94988829D01*
X102178100Y-94811171D01*
X102212759Y-94636925D01*
X102280747Y-94472790D01*
X102280747Y-94472789D01*
X102379446Y-94325075D01*
X102379448Y-94325072D01*
X102505072Y-94199448D01*
X102506067Y-94198783D01*
X102652789Y-94100747D01*
X102707502Y-94078084D01*
X102816925Y-94032759D01*
X102904048Y-94015429D01*
X102991169Y-93998100D01*
X103168831Y-93998100D01*
X103255952Y-94015430D01*
G37*
G36*
X93095952Y-94015430D02*
G01*
X93183075Y-94032759D01*
X93292498Y-94078084D01*
X93347211Y-94100747D01*
X93493933Y-94198783D01*
X93494928Y-94199448D01*
X93620552Y-94325072D01*
X93620554Y-94325075D01*
X93719253Y-94472789D01*
X93719253Y-94472790D01*
X93787241Y-94636925D01*
X93821900Y-94811171D01*
X93821900Y-94988829D01*
X93787241Y-95163075D01*
X93741916Y-95272498D01*
X93719253Y-95327211D01*
X93621217Y-95473933D01*
X93620552Y-95474928D01*
X93494928Y-95600552D01*
X93494925Y-95600554D01*
X93347211Y-95699253D01*
X93292498Y-95721916D01*
X93183075Y-95767241D01*
X93095952Y-95784571D01*
X93008831Y-95801900D01*
X92831169Y-95801900D01*
X92744048Y-95784571D01*
X92656925Y-95767241D01*
X92547502Y-95721916D01*
X92492789Y-95699253D01*
X92345075Y-95600554D01*
X92345072Y-95600552D01*
X92219448Y-95474928D01*
X92218783Y-95473933D01*
X92120747Y-95327211D01*
X92098084Y-95272498D01*
X92052759Y-95163075D01*
X92018100Y-94988829D01*
X92018100Y-94811171D01*
X92052759Y-94636925D01*
X92120747Y-94472790D01*
X92120747Y-94472789D01*
X92219446Y-94325075D01*
X92219448Y-94325072D01*
X92345072Y-94199448D01*
X92346067Y-94198783D01*
X92492789Y-94100747D01*
X92547502Y-94078084D01*
X92656925Y-94032759D01*
X92744048Y-94015429D01*
X92831169Y-93998100D01*
X93008831Y-93998100D01*
X93095952Y-94015430D01*
G37*
G36*
X110230000Y-94225000D02*
G01*
X109230000Y-94225000D01*
X109230000Y-92825000D01*
X110230000Y-92825000D01*
X110230000Y-94225000D01*
G37*
G36*
X94538276Y-91211884D02*
G01*
X94755569Y-91301890D01*
X94755571Y-91301891D01*
X94951130Y-91432560D01*
X95117440Y-91598870D01*
X95248110Y-91794431D01*
X95338116Y-92011724D01*
X95384000Y-92242400D01*
X95384000Y-92477600D01*
X95338116Y-92708276D01*
X95289767Y-92825000D01*
X95248109Y-92925571D01*
X95117440Y-93121130D01*
X94951130Y-93287440D01*
X94755571Y-93418109D01*
X94755570Y-93418110D01*
X94755569Y-93418110D01*
X94538276Y-93508116D01*
X94307600Y-93554000D01*
X94072400Y-93554000D01*
X93841724Y-93508116D01*
X93624431Y-93418110D01*
X93624430Y-93418110D01*
X93624429Y-93418109D01*
X93428870Y-93287440D01*
X93262560Y-93121130D01*
X93131891Y-92925571D01*
X93090233Y-92825000D01*
X93041884Y-92708276D01*
X92996000Y-92477600D01*
X92996000Y-92242400D01*
X93041884Y-92011724D01*
X93131890Y-91794431D01*
X93262560Y-91598870D01*
X93428870Y-91432560D01*
X93624429Y-91301891D01*
X93624431Y-91301890D01*
X93841724Y-91211884D01*
X94072400Y-91166000D01*
X94307600Y-91166000D01*
X94538276Y-91211884D01*
G37*
G36*
X88670000Y-92665000D02*
G01*
X87670000Y-92665000D01*
X87670000Y-91265000D01*
X88670000Y-91265000D01*
X88670000Y-92665000D01*
G37*
G36*
X69450000Y-92665000D02*
G01*
X68450000Y-92665000D01*
X68450000Y-91265000D01*
X69450000Y-91265000D01*
X69450000Y-92665000D01*
G37*
G36*
X50210000Y-92615000D02*
G01*
X49210000Y-92615000D01*
X49210000Y-91215000D01*
X50210000Y-91215000D01*
X50210000Y-92615000D01*
G37*
G36*
X38612585Y-88938802D02*
G01*
X38762410Y-88968604D01*
X39044674Y-89085521D01*
X39298705Y-89255259D01*
X39514741Y-89471295D01*
X39684479Y-89725326D01*
X39801396Y-90007590D01*
X39861000Y-90307240D01*
X39861000Y-90612760D01*
X39801396Y-90912410D01*
X39684479Y-91194674D01*
X39514741Y-91448705D01*
X39298705Y-91664741D01*
X39044674Y-91834479D01*
X38762410Y-91951396D01*
X38612585Y-91981198D01*
X38462761Y-92011000D01*
X38157239Y-92011000D01*
X38007415Y-91981198D01*
X37857590Y-91951396D01*
X37575326Y-91834479D01*
X37321295Y-91664741D01*
X37105259Y-91448705D01*
X36935521Y-91194674D01*
X36818604Y-90912410D01*
X36759000Y-90612760D01*
X36759000Y-90307240D01*
X36818604Y-90007590D01*
X36935521Y-89725326D01*
X37105259Y-89471295D01*
X37321295Y-89255259D01*
X37575326Y-89085521D01*
X37857590Y-88968604D01*
X38007415Y-88938802D01*
X38157239Y-88909000D01*
X38462761Y-88909000D01*
X38612585Y-88938802D01*
G37*
G36*
X76712585Y-88938802D02*
G01*
X76862410Y-88968604D01*
X77144674Y-89085521D01*
X77398705Y-89255259D01*
X77614741Y-89471295D01*
X77784479Y-89725326D01*
X77901396Y-90007590D01*
X77961000Y-90307240D01*
X77961000Y-90612760D01*
X77901396Y-90912410D01*
X77784479Y-91194674D01*
X77614741Y-91448705D01*
X77398705Y-91664741D01*
X77144674Y-91834479D01*
X76862410Y-91951396D01*
X76712585Y-91981198D01*
X76562761Y-92011000D01*
X76257239Y-92011000D01*
X76107415Y-91981198D01*
X75957590Y-91951396D01*
X75675326Y-91834479D01*
X75421295Y-91664741D01*
X75205259Y-91448705D01*
X75035521Y-91194674D01*
X74918604Y-90912410D01*
X74859000Y-90612760D01*
X74859000Y-90307240D01*
X74918604Y-90007590D01*
X75035521Y-89725326D01*
X75205259Y-89471295D01*
X75421295Y-89255259D01*
X75675326Y-89085521D01*
X75957590Y-88968604D01*
X76107415Y-88938802D01*
X76257239Y-88909000D01*
X76562761Y-88909000D01*
X76712585Y-88938802D01*
G37*
G36*
X57662585Y-88938802D02*
G01*
X57812410Y-88968604D01*
X58094674Y-89085521D01*
X58348705Y-89255259D01*
X58564741Y-89471295D01*
X58734479Y-89725326D01*
X58851396Y-90007590D01*
X58911000Y-90307240D01*
X58911000Y-90612760D01*
X58851396Y-90912410D01*
X58734479Y-91194674D01*
X58564741Y-91448705D01*
X58348705Y-91664741D01*
X58094674Y-91834479D01*
X57812410Y-91951396D01*
X57662585Y-91981198D01*
X57512761Y-92011000D01*
X57207239Y-92011000D01*
X57057415Y-91981198D01*
X56907590Y-91951396D01*
X56625326Y-91834479D01*
X56371295Y-91664741D01*
X56155259Y-91448705D01*
X55985521Y-91194674D01*
X55868604Y-90912410D01*
X55809000Y-90612760D01*
X55809000Y-90307240D01*
X55868604Y-90007590D01*
X55985521Y-89725326D01*
X56155259Y-89471295D01*
X56371295Y-89255259D01*
X56625326Y-89085521D01*
X56907590Y-88968604D01*
X57057415Y-88938802D01*
X57207239Y-88909000D01*
X57512761Y-88909000D01*
X57662585Y-88938802D01*
G37*
G36*
X73986000Y-91761000D02*
G01*
X71334000Y-91761000D01*
X71334000Y-89159000D01*
X73986000Y-89159000D01*
X73986000Y-91761000D01*
G37*
G36*
X54936000Y-91761000D02*
G01*
X52284000Y-91761000D01*
X52284000Y-89159000D01*
X54936000Y-89159000D01*
X54936000Y-91761000D01*
G37*
G36*
X35886000Y-91761000D02*
G01*
X33234000Y-91761000D01*
X33234000Y-89159000D01*
X35886000Y-89159000D01*
X35886000Y-91761000D01*
G37*
G36*
X100888276Y-88671884D02*
G01*
X101105569Y-88761890D01*
X101105571Y-88761891D01*
X101301130Y-88892560D01*
X101467440Y-89058870D01*
X101598110Y-89254431D01*
X101688116Y-89471724D01*
X101734000Y-89702400D01*
X101734000Y-89937600D01*
X101688116Y-90168276D01*
X101630555Y-90307239D01*
X101598109Y-90385571D01*
X101467440Y-90581130D01*
X101301130Y-90747440D01*
X101105571Y-90878109D01*
X101105570Y-90878110D01*
X101105569Y-90878110D01*
X100888276Y-90968116D01*
X100657600Y-91014000D01*
X100422400Y-91014000D01*
X100191724Y-90968116D01*
X99974431Y-90878110D01*
X99974430Y-90878110D01*
X99974429Y-90878109D01*
X99778870Y-90747440D01*
X99612560Y-90581130D01*
X99481891Y-90385571D01*
X99449445Y-90307239D01*
X99391884Y-90168276D01*
X99346000Y-89937600D01*
X99346000Y-89702400D01*
X99391884Y-89471724D01*
X99481890Y-89254431D01*
X99612560Y-89058870D01*
X99778870Y-88892560D01*
X99974429Y-88761891D01*
X99974431Y-88761890D01*
X100191724Y-88671884D01*
X100422400Y-88626000D01*
X100657600Y-88626000D01*
X100888276Y-88671884D01*
G37*
G36*
X83062585Y-86398802D02*
G01*
X83212410Y-86428604D01*
X83494674Y-86545521D01*
X83748705Y-86715259D01*
X83964741Y-86931295D01*
X84134479Y-87185326D01*
X84251396Y-87467590D01*
X84311000Y-87767240D01*
X84311000Y-88072760D01*
X84251396Y-88372410D01*
X84134479Y-88654674D01*
X83964741Y-88908705D01*
X83748705Y-89124741D01*
X83494674Y-89294479D01*
X83212410Y-89411396D01*
X83062585Y-89441198D01*
X82912761Y-89471000D01*
X82607239Y-89471000D01*
X82457415Y-89441198D01*
X82307590Y-89411396D01*
X82025326Y-89294479D01*
X81771295Y-89124741D01*
X81555259Y-88908705D01*
X81385521Y-88654674D01*
X81268604Y-88372410D01*
X81209000Y-88072760D01*
X81209000Y-87767240D01*
X81268604Y-87467590D01*
X81385521Y-87185326D01*
X81555259Y-86931295D01*
X81771295Y-86715259D01*
X82025326Y-86545521D01*
X82307590Y-86428604D01*
X82457415Y-86398802D01*
X82607239Y-86369000D01*
X82912761Y-86369000D01*
X83062585Y-86398802D01*
G37*
G36*
X64012585Y-86398802D02*
G01*
X64162410Y-86428604D01*
X64444674Y-86545521D01*
X64698705Y-86715259D01*
X64914741Y-86931295D01*
X65084479Y-87185326D01*
X65201396Y-87467590D01*
X65261000Y-87767240D01*
X65261000Y-88072760D01*
X65201396Y-88372410D01*
X65084479Y-88654674D01*
X64914741Y-88908705D01*
X64698705Y-89124741D01*
X64444674Y-89294479D01*
X64162410Y-89411396D01*
X64012585Y-89441198D01*
X63862761Y-89471000D01*
X63557239Y-89471000D01*
X63407415Y-89441198D01*
X63257590Y-89411396D01*
X62975326Y-89294479D01*
X62721295Y-89124741D01*
X62505259Y-88908705D01*
X62335521Y-88654674D01*
X62218604Y-88372410D01*
X62159000Y-88072760D01*
X62159000Y-87767240D01*
X62218604Y-87467590D01*
X62335521Y-87185326D01*
X62505259Y-86931295D01*
X62721295Y-86715259D01*
X62975326Y-86545521D01*
X63257590Y-86428604D01*
X63407415Y-86398802D01*
X63557239Y-86369000D01*
X63862761Y-86369000D01*
X64012585Y-86398802D01*
G37*
G36*
X44962585Y-86398802D02*
G01*
X45112410Y-86428604D01*
X45394674Y-86545521D01*
X45648705Y-86715259D01*
X45864741Y-86931295D01*
X46034479Y-87185326D01*
X46151396Y-87467590D01*
X46211000Y-87767240D01*
X46211000Y-88072760D01*
X46151396Y-88372410D01*
X46034479Y-88654674D01*
X45864741Y-88908705D01*
X45648705Y-89124741D01*
X45394674Y-89294479D01*
X45112410Y-89411396D01*
X44962585Y-89441198D01*
X44812761Y-89471000D01*
X44507239Y-89471000D01*
X44357415Y-89441198D01*
X44207590Y-89411396D01*
X43925326Y-89294479D01*
X43671295Y-89124741D01*
X43455259Y-88908705D01*
X43285521Y-88654674D01*
X43168604Y-88372410D01*
X43109000Y-88072760D01*
X43109000Y-87767240D01*
X43168604Y-87467590D01*
X43285521Y-87185326D01*
X43455259Y-86931295D01*
X43671295Y-86715259D01*
X43925326Y-86545521D01*
X44207590Y-86428604D01*
X44357415Y-86398802D01*
X44507239Y-86369000D01*
X44812761Y-86369000D01*
X44962585Y-86398802D01*
G37*
G36*
X87836000Y-89221000D02*
G01*
X85184000Y-89221000D01*
X85184000Y-86619000D01*
X87836000Y-86619000D01*
X87836000Y-89221000D01*
G37*
G36*
X68786000Y-89221000D02*
G01*
X66134000Y-89221000D01*
X66134000Y-86619000D01*
X68786000Y-86619000D01*
X68786000Y-89221000D01*
G37*
G36*
X49736000Y-89221000D02*
G01*
X47084000Y-89221000D01*
X47084000Y-86619000D01*
X49736000Y-86619000D01*
X49736000Y-89221000D01*
G37*
G36*
X79546474Y-83413684D02*
G01*
X79764474Y-83503983D01*
X79918623Y-83567833D01*
X80253548Y-83791623D01*
X80538377Y-84076452D01*
X80762167Y-84411377D01*
X80804871Y-84514474D01*
X80916316Y-84783526D01*
X80994900Y-85178594D01*
X80994900Y-85581406D01*
X80916316Y-85976474D01*
X80832322Y-86179253D01*
X80762167Y-86348623D01*
X80538377Y-86683548D01*
X80253548Y-86968377D01*
X79918623Y-87192167D01*
X79764474Y-87256017D01*
X79546474Y-87346316D01*
X79151406Y-87424900D01*
X78748594Y-87424900D01*
X78353526Y-87346316D01*
X78135526Y-87256017D01*
X77981377Y-87192167D01*
X77646452Y-86968377D01*
X77361623Y-86683548D01*
X77137833Y-86348623D01*
X77067678Y-86179253D01*
X76983684Y-85976474D01*
X76905100Y-85581406D01*
X76905100Y-85178594D01*
X76983684Y-84783526D01*
X77095129Y-84514474D01*
X77137833Y-84411377D01*
X77361623Y-84076452D01*
X77646452Y-83791623D01*
X77981377Y-83567833D01*
X78135526Y-83503983D01*
X78353526Y-83413684D01*
X78748594Y-83335100D01*
X79151406Y-83335100D01*
X79546474Y-83413684D01*
G37*
G36*
X60496474Y-83413684D02*
G01*
X60714474Y-83503983D01*
X60868623Y-83567833D01*
X61203548Y-83791623D01*
X61488377Y-84076452D01*
X61712167Y-84411377D01*
X61754871Y-84514474D01*
X61866316Y-84783526D01*
X61944900Y-85178594D01*
X61944900Y-85581406D01*
X61866316Y-85976474D01*
X61782322Y-86179253D01*
X61712167Y-86348623D01*
X61488377Y-86683548D01*
X61203548Y-86968377D01*
X60868623Y-87192167D01*
X60714474Y-87256017D01*
X60496474Y-87346316D01*
X60101406Y-87424900D01*
X59698594Y-87424900D01*
X59303526Y-87346316D01*
X59085526Y-87256017D01*
X58931377Y-87192167D01*
X58596452Y-86968377D01*
X58311623Y-86683548D01*
X58087833Y-86348623D01*
X58017678Y-86179253D01*
X57933684Y-85976474D01*
X57855100Y-85581406D01*
X57855100Y-85178594D01*
X57933684Y-84783526D01*
X58045129Y-84514474D01*
X58087833Y-84411377D01*
X58311623Y-84076452D01*
X58596452Y-83791623D01*
X58931377Y-83567833D01*
X59085526Y-83503983D01*
X59303526Y-83413684D01*
X59698594Y-83335100D01*
X60101406Y-83335100D01*
X60496474Y-83413684D01*
G37*
G36*
X41446474Y-83413684D02*
G01*
X41664474Y-83503983D01*
X41818623Y-83567833D01*
X42153548Y-83791623D01*
X42438377Y-84076452D01*
X42662167Y-84411377D01*
X42704871Y-84514474D01*
X42816316Y-84783526D01*
X42894900Y-85178594D01*
X42894900Y-85581406D01*
X42816316Y-85976474D01*
X42732322Y-86179253D01*
X42662167Y-86348623D01*
X42438377Y-86683548D01*
X42153548Y-86968377D01*
X41818623Y-87192167D01*
X41664474Y-87256017D01*
X41446474Y-87346316D01*
X41051406Y-87424900D01*
X40648594Y-87424900D01*
X40253526Y-87346316D01*
X40035526Y-87256017D01*
X39881377Y-87192167D01*
X39546452Y-86968377D01*
X39261623Y-86683548D01*
X39037833Y-86348623D01*
X38967678Y-86179253D01*
X38883684Y-85976474D01*
X38805100Y-85581406D01*
X38805100Y-85178594D01*
X38883684Y-84783526D01*
X38995129Y-84514474D01*
X39037833Y-84411377D01*
X39261623Y-84076452D01*
X39546452Y-83791623D01*
X39881377Y-83567833D01*
X40035526Y-83503983D01*
X40253526Y-83413684D01*
X40648594Y-83335100D01*
X41051406Y-83335100D01*
X41446474Y-83413684D01*
G37*
G36*
X54995952Y-84495429D02*
G01*
X55083075Y-84512759D01*
X55192498Y-84558084D01*
X55247211Y-84580747D01*
X55393933Y-84678783D01*
X55394928Y-84679448D01*
X55520552Y-84805072D01*
X55520554Y-84805075D01*
X55619253Y-84952789D01*
X55624856Y-84966316D01*
X55687241Y-85116925D01*
X55721900Y-85291171D01*
X55721900Y-85468829D01*
X55687241Y-85643075D01*
X55641916Y-85752498D01*
X55619253Y-85807211D01*
X55521217Y-85953933D01*
X55520552Y-85954928D01*
X55394928Y-86080552D01*
X55394925Y-86080554D01*
X55247211Y-86179253D01*
X55192498Y-86201916D01*
X55083075Y-86247241D01*
X54995952Y-86264571D01*
X54908831Y-86281900D01*
X54731169Y-86281900D01*
X54644048Y-86264571D01*
X54556925Y-86247241D01*
X54447502Y-86201916D01*
X54392789Y-86179253D01*
X54245075Y-86080554D01*
X54245072Y-86080552D01*
X54119448Y-85954928D01*
X54118783Y-85953933D01*
X54020747Y-85807211D01*
X53998084Y-85752498D01*
X53952759Y-85643075D01*
X53918100Y-85468829D01*
X53918100Y-85291171D01*
X53952759Y-85116925D01*
X54015144Y-84966316D01*
X54020747Y-84952789D01*
X54119446Y-84805075D01*
X54119448Y-84805072D01*
X54245072Y-84679448D01*
X54246067Y-84678783D01*
X54392789Y-84580747D01*
X54447502Y-84558084D01*
X54556925Y-84512759D01*
X54644048Y-84495429D01*
X54731169Y-84478100D01*
X54908831Y-84478100D01*
X54995952Y-84495429D01*
G37*
G36*
X74045952Y-84495429D02*
G01*
X74133075Y-84512759D01*
X74242498Y-84558084D01*
X74297211Y-84580747D01*
X74443933Y-84678783D01*
X74444928Y-84679448D01*
X74570552Y-84805072D01*
X74570554Y-84805075D01*
X74669253Y-84952789D01*
X74674856Y-84966316D01*
X74737241Y-85116925D01*
X74771900Y-85291171D01*
X74771900Y-85468829D01*
X74737241Y-85643075D01*
X74691916Y-85752498D01*
X74669253Y-85807211D01*
X74571217Y-85953933D01*
X74570552Y-85954928D01*
X74444928Y-86080552D01*
X74444925Y-86080554D01*
X74297211Y-86179253D01*
X74242498Y-86201916D01*
X74133075Y-86247241D01*
X74045952Y-86264571D01*
X73958831Y-86281900D01*
X73781169Y-86281900D01*
X73694048Y-86264571D01*
X73606925Y-86247241D01*
X73497502Y-86201916D01*
X73442789Y-86179253D01*
X73295075Y-86080554D01*
X73295072Y-86080552D01*
X73169448Y-85954928D01*
X73168783Y-85953933D01*
X73070747Y-85807211D01*
X73048084Y-85752498D01*
X73002759Y-85643075D01*
X72968100Y-85468829D01*
X72968100Y-85291171D01*
X73002759Y-85116925D01*
X73065144Y-84966316D01*
X73070747Y-84952789D01*
X73169446Y-84805075D01*
X73169448Y-84805072D01*
X73295072Y-84679448D01*
X73296067Y-84678783D01*
X73442789Y-84580747D01*
X73497502Y-84558084D01*
X73606925Y-84512759D01*
X73694048Y-84495429D01*
X73781169Y-84478100D01*
X73958831Y-84478100D01*
X74045952Y-84495429D01*
G37*
G36*
X84205952Y-84495429D02*
G01*
X84293075Y-84512759D01*
X84402498Y-84558084D01*
X84457211Y-84580747D01*
X84603933Y-84678783D01*
X84604928Y-84679448D01*
X84730552Y-84805072D01*
X84730554Y-84805075D01*
X84829253Y-84952789D01*
X84834856Y-84966316D01*
X84897241Y-85116925D01*
X84931900Y-85291171D01*
X84931900Y-85468829D01*
X84897241Y-85643075D01*
X84851916Y-85752498D01*
X84829253Y-85807211D01*
X84731217Y-85953933D01*
X84730552Y-85954928D01*
X84604928Y-86080552D01*
X84604925Y-86080554D01*
X84457211Y-86179253D01*
X84402498Y-86201916D01*
X84293075Y-86247241D01*
X84205952Y-86264571D01*
X84118831Y-86281900D01*
X83941169Y-86281900D01*
X83854048Y-86264571D01*
X83766925Y-86247241D01*
X83657502Y-86201916D01*
X83602789Y-86179253D01*
X83455075Y-86080554D01*
X83455072Y-86080552D01*
X83329448Y-85954928D01*
X83328783Y-85953933D01*
X83230747Y-85807211D01*
X83208084Y-85752498D01*
X83162759Y-85643075D01*
X83128100Y-85468829D01*
X83128100Y-85291171D01*
X83162759Y-85116925D01*
X83225144Y-84966316D01*
X83230747Y-84952789D01*
X83329446Y-84805075D01*
X83329448Y-84805072D01*
X83455072Y-84679448D01*
X83456067Y-84678783D01*
X83602789Y-84580747D01*
X83657502Y-84558084D01*
X83766925Y-84512759D01*
X83854048Y-84495429D01*
X83941169Y-84478100D01*
X84118831Y-84478100D01*
X84205952Y-84495429D01*
G37*
G36*
X35945952Y-84495429D02*
G01*
X36033075Y-84512759D01*
X36142498Y-84558084D01*
X36197211Y-84580747D01*
X36343933Y-84678783D01*
X36344928Y-84679448D01*
X36470552Y-84805072D01*
X36470554Y-84805075D01*
X36569253Y-84952789D01*
X36574856Y-84966316D01*
X36637241Y-85116925D01*
X36671900Y-85291171D01*
X36671900Y-85468829D01*
X36637241Y-85643075D01*
X36591916Y-85752498D01*
X36569253Y-85807211D01*
X36471217Y-85953933D01*
X36470552Y-85954928D01*
X36344928Y-86080552D01*
X36344925Y-86080554D01*
X36197211Y-86179253D01*
X36142498Y-86201916D01*
X36033075Y-86247241D01*
X35945952Y-86264571D01*
X35858831Y-86281900D01*
X35681169Y-86281900D01*
X35594048Y-86264571D01*
X35506925Y-86247241D01*
X35397502Y-86201916D01*
X35342789Y-86179253D01*
X35195075Y-86080554D01*
X35195072Y-86080552D01*
X35069448Y-85954928D01*
X35068783Y-85953933D01*
X34970747Y-85807211D01*
X34948084Y-85752498D01*
X34902759Y-85643075D01*
X34868100Y-85468829D01*
X34868100Y-85291171D01*
X34902759Y-85116925D01*
X34965144Y-84966316D01*
X34970747Y-84952789D01*
X35069446Y-84805075D01*
X35069448Y-84805072D01*
X35195072Y-84679448D01*
X35196067Y-84678783D01*
X35342789Y-84580747D01*
X35397502Y-84558084D01*
X35506925Y-84512759D01*
X35594048Y-84495429D01*
X35681169Y-84478100D01*
X35858831Y-84478100D01*
X35945952Y-84495429D01*
G37*
G36*
X65155952Y-84495429D02*
G01*
X65243075Y-84512759D01*
X65352498Y-84558084D01*
X65407211Y-84580747D01*
X65553933Y-84678783D01*
X65554928Y-84679448D01*
X65680552Y-84805072D01*
X65680554Y-84805075D01*
X65779253Y-84952789D01*
X65784856Y-84966316D01*
X65847241Y-85116925D01*
X65881900Y-85291171D01*
X65881900Y-85468829D01*
X65847241Y-85643075D01*
X65801916Y-85752498D01*
X65779253Y-85807211D01*
X65681217Y-85953933D01*
X65680552Y-85954928D01*
X65554928Y-86080552D01*
X65554925Y-86080554D01*
X65407211Y-86179253D01*
X65352498Y-86201916D01*
X65243075Y-86247241D01*
X65155952Y-86264571D01*
X65068831Y-86281900D01*
X64891169Y-86281900D01*
X64804048Y-86264571D01*
X64716925Y-86247241D01*
X64607502Y-86201916D01*
X64552789Y-86179253D01*
X64405075Y-86080554D01*
X64405072Y-86080552D01*
X64279448Y-85954928D01*
X64278783Y-85953933D01*
X64180747Y-85807211D01*
X64158084Y-85752498D01*
X64112759Y-85643075D01*
X64078100Y-85468829D01*
X64078100Y-85291171D01*
X64112759Y-85116925D01*
X64175144Y-84966316D01*
X64180747Y-84952789D01*
X64279446Y-84805075D01*
X64279448Y-84805072D01*
X64405072Y-84679448D01*
X64406067Y-84678783D01*
X64552789Y-84580747D01*
X64607502Y-84558084D01*
X64716925Y-84512759D01*
X64804048Y-84495429D01*
X64891169Y-84478100D01*
X65068831Y-84478100D01*
X65155952Y-84495429D01*
G37*
G36*
X46105952Y-84495429D02*
G01*
X46193075Y-84512759D01*
X46302498Y-84558084D01*
X46357211Y-84580747D01*
X46503933Y-84678783D01*
X46504928Y-84679448D01*
X46630552Y-84805072D01*
X46630554Y-84805075D01*
X46729253Y-84952789D01*
X46734856Y-84966316D01*
X46797241Y-85116925D01*
X46831900Y-85291171D01*
X46831900Y-85468829D01*
X46797241Y-85643075D01*
X46751916Y-85752498D01*
X46729253Y-85807211D01*
X46631217Y-85953933D01*
X46630552Y-85954928D01*
X46504928Y-86080552D01*
X46504925Y-86080554D01*
X46357211Y-86179253D01*
X46302498Y-86201916D01*
X46193075Y-86247241D01*
X46105952Y-86264571D01*
X46018831Y-86281900D01*
X45841169Y-86281900D01*
X45754048Y-86264571D01*
X45666925Y-86247241D01*
X45557502Y-86201916D01*
X45502789Y-86179253D01*
X45355075Y-86080554D01*
X45355072Y-86080552D01*
X45229448Y-85954928D01*
X45228783Y-85953933D01*
X45130747Y-85807211D01*
X45108084Y-85752498D01*
X45062759Y-85643075D01*
X45028100Y-85468829D01*
X45028100Y-85291171D01*
X45062759Y-85116925D01*
X45125144Y-84966316D01*
X45130747Y-84952789D01*
X45229446Y-84805075D01*
X45229448Y-84805072D01*
X45355072Y-84679448D01*
X45356067Y-84678783D01*
X45502789Y-84580747D01*
X45557502Y-84558084D01*
X45666925Y-84512759D01*
X45754048Y-84495429D01*
X45841169Y-84478100D01*
X46018831Y-84478100D01*
X46105952Y-84495429D01*
G37*
G36*
X106851474Y-81033684D02*
G01*
X107069474Y-81123983D01*
X107223623Y-81187833D01*
X107558548Y-81411623D01*
X107843377Y-81696452D01*
X108067167Y-82031377D01*
X108067167Y-82031378D01*
X108221316Y-82403526D01*
X108299900Y-82798594D01*
X108299900Y-83201406D01*
X108221316Y-83596474D01*
X108131017Y-83814474D01*
X108067167Y-83968623D01*
X107843377Y-84303548D01*
X107558548Y-84588377D01*
X107223623Y-84812167D01*
X107069474Y-84876017D01*
X106851474Y-84966316D01*
X106456406Y-85044900D01*
X106053594Y-85044900D01*
X105658526Y-84966316D01*
X105440526Y-84876017D01*
X105286377Y-84812167D01*
X104951452Y-84588377D01*
X104666623Y-84303548D01*
X104442833Y-83968623D01*
X104378983Y-83814474D01*
X104288684Y-83596474D01*
X104210100Y-83201406D01*
X104210100Y-82798594D01*
X104288684Y-82403526D01*
X104442833Y-82031378D01*
X104442833Y-82031377D01*
X104666623Y-81696452D01*
X104951452Y-81411623D01*
X105286377Y-81187833D01*
X105440526Y-81123983D01*
X105658526Y-81033684D01*
X106053594Y-80955100D01*
X106456406Y-80955100D01*
X106851474Y-81033684D01*
G37*
G36*
X91286332Y-81448115D02*
G01*
X91474411Y-81485526D01*
X91593137Y-81534704D01*
X91761041Y-81604252D01*
X91761042Y-81604253D01*
X92019004Y-81776617D01*
X92238383Y-81995996D01*
X92262024Y-82031378D01*
X92410748Y-82253959D01*
X92472700Y-82403525D01*
X92529474Y-82540589D01*
X92590000Y-82844876D01*
X92590000Y-83155124D01*
X92538570Y-83413684D01*
X92529474Y-83459410D01*
X92410748Y-83746041D01*
X92380291Y-83791623D01*
X92238383Y-84004004D01*
X92019004Y-84223383D01*
X91899028Y-84303548D01*
X91761041Y-84395748D01*
X91593137Y-84465296D01*
X91474411Y-84514474D01*
X91170125Y-84575000D01*
X90859875Y-84575000D01*
X90555589Y-84514474D01*
X90436863Y-84465296D01*
X90268959Y-84395748D01*
X90130972Y-84303548D01*
X90010996Y-84223383D01*
X89791617Y-84004004D01*
X89649709Y-83791623D01*
X89619252Y-83746041D01*
X89500526Y-83459410D01*
X89491431Y-83413684D01*
X89440000Y-83155124D01*
X89440000Y-82844876D01*
X89500526Y-82540589D01*
X89557300Y-82403525D01*
X89619252Y-82253959D01*
X89767976Y-82031378D01*
X89791617Y-81995996D01*
X90010996Y-81776617D01*
X90268958Y-81604253D01*
X90268959Y-81604252D01*
X90436863Y-81534704D01*
X90555589Y-81485526D01*
X90743668Y-81448115D01*
X90859875Y-81425000D01*
X91170125Y-81425000D01*
X91286332Y-81448115D01*
G37*
G36*
X37388276Y-81691884D02*
G01*
X37605569Y-81781890D01*
X37605571Y-81781891D01*
X37801130Y-81912560D01*
X37967440Y-82078870D01*
X38084431Y-82253958D01*
X38098110Y-82274431D01*
X38188116Y-82491724D01*
X38234000Y-82722400D01*
X38234000Y-82957600D01*
X38188116Y-83188276D01*
X38182677Y-83201406D01*
X38098109Y-83405571D01*
X37967440Y-83601130D01*
X37801130Y-83767440D01*
X37605571Y-83898109D01*
X37605570Y-83898110D01*
X37605569Y-83898110D01*
X37388276Y-83988116D01*
X37157600Y-84034000D01*
X36922400Y-84034000D01*
X36691724Y-83988116D01*
X36474431Y-83898110D01*
X36474430Y-83898110D01*
X36474429Y-83898109D01*
X36278870Y-83767440D01*
X36112560Y-83601130D01*
X35981891Y-83405571D01*
X35897323Y-83201406D01*
X35891884Y-83188276D01*
X35846000Y-82957600D01*
X35846000Y-82722400D01*
X35891884Y-82491724D01*
X35981890Y-82274431D01*
X35995570Y-82253958D01*
X36112560Y-82078870D01*
X36278870Y-81912560D01*
X36474429Y-81781891D01*
X36474431Y-81781890D01*
X36691724Y-81691884D01*
X36922400Y-81646000D01*
X37157600Y-81646000D01*
X37388276Y-81691884D01*
G37*
G36*
X56438276Y-81691884D02*
G01*
X56655569Y-81781890D01*
X56655571Y-81781891D01*
X56851130Y-81912560D01*
X57017440Y-82078870D01*
X57134431Y-82253958D01*
X57148110Y-82274431D01*
X57238116Y-82491724D01*
X57284000Y-82722400D01*
X57284000Y-82957600D01*
X57238116Y-83188276D01*
X57232677Y-83201406D01*
X57148109Y-83405571D01*
X57017440Y-83601130D01*
X56851130Y-83767440D01*
X56655571Y-83898109D01*
X56655570Y-83898110D01*
X56655569Y-83898110D01*
X56438276Y-83988116D01*
X56207600Y-84034000D01*
X55972400Y-84034000D01*
X55741724Y-83988116D01*
X55524431Y-83898110D01*
X55524430Y-83898110D01*
X55524429Y-83898109D01*
X55328870Y-83767440D01*
X55162560Y-83601130D01*
X55031891Y-83405571D01*
X54947323Y-83201406D01*
X54941884Y-83188276D01*
X54896000Y-82957600D01*
X54896000Y-82722400D01*
X54941884Y-82491724D01*
X55031890Y-82274431D01*
X55045570Y-82253958D01*
X55162560Y-82078870D01*
X55328870Y-81912560D01*
X55524429Y-81781891D01*
X55524431Y-81781890D01*
X55741724Y-81691884D01*
X55972400Y-81646000D01*
X56207600Y-81646000D01*
X56438276Y-81691884D01*
G37*
G36*
X75488276Y-81691884D02*
G01*
X75705569Y-81781890D01*
X75705571Y-81781891D01*
X75901130Y-81912560D01*
X76067440Y-82078870D01*
X76184431Y-82253958D01*
X76198110Y-82274431D01*
X76288116Y-82491724D01*
X76334000Y-82722400D01*
X76334000Y-82957600D01*
X76288116Y-83188276D01*
X76282677Y-83201406D01*
X76198109Y-83405571D01*
X76067440Y-83601130D01*
X75901130Y-83767440D01*
X75705571Y-83898109D01*
X75705570Y-83898110D01*
X75705569Y-83898110D01*
X75488276Y-83988116D01*
X75257600Y-84034000D01*
X75022400Y-84034000D01*
X74791724Y-83988116D01*
X74574431Y-83898110D01*
X74574430Y-83898110D01*
X74574429Y-83898109D01*
X74378870Y-83767440D01*
X74212560Y-83601130D01*
X74081891Y-83405571D01*
X73997323Y-83201406D01*
X73991884Y-83188276D01*
X73946000Y-82957600D01*
X73946000Y-82722400D01*
X73991884Y-82491724D01*
X74081890Y-82274431D01*
X74095570Y-82253958D01*
X74212560Y-82078870D01*
X74378870Y-81912560D01*
X74574429Y-81781891D01*
X74574431Y-81781890D01*
X74791724Y-81691884D01*
X75022400Y-81646000D01*
X75257600Y-81646000D01*
X75488276Y-81691884D01*
G37*
G36*
X62788276Y-79151884D02*
G01*
X63005569Y-79241890D01*
X63005571Y-79241891D01*
X63201130Y-79372560D01*
X63367440Y-79538870D01*
X63498110Y-79734431D01*
X63588116Y-79951724D01*
X63634000Y-80182400D01*
X63634000Y-80417600D01*
X63588116Y-80648276D01*
X63498110Y-80865569D01*
X63498109Y-80865571D01*
X63367440Y-81061130D01*
X63201130Y-81227440D01*
X63005571Y-81358109D01*
X63005570Y-81358110D01*
X63005569Y-81358110D01*
X62788276Y-81448116D01*
X62557600Y-81494000D01*
X62322400Y-81494000D01*
X62091724Y-81448116D01*
X61874431Y-81358110D01*
X61874430Y-81358110D01*
X61874429Y-81358109D01*
X61678870Y-81227440D01*
X61512560Y-81061130D01*
X61381891Y-80865571D01*
X61381890Y-80865569D01*
X61291884Y-80648276D01*
X61246000Y-80417600D01*
X61246000Y-80182400D01*
X61291884Y-79951724D01*
X61381890Y-79734431D01*
X61512560Y-79538870D01*
X61678870Y-79372560D01*
X61874429Y-79241891D01*
X61874431Y-79241890D01*
X62091724Y-79151884D01*
X62322400Y-79106000D01*
X62557600Y-79106000D01*
X62788276Y-79151884D01*
G37*
G36*
X81838276Y-79151884D02*
G01*
X82055569Y-79241890D01*
X82055571Y-79241891D01*
X82251130Y-79372560D01*
X82417440Y-79538870D01*
X82548110Y-79734431D01*
X82638116Y-79951724D01*
X82684000Y-80182400D01*
X82684000Y-80417600D01*
X82638116Y-80648276D01*
X82548110Y-80865569D01*
X82548109Y-80865571D01*
X82417440Y-81061130D01*
X82251130Y-81227440D01*
X82055571Y-81358109D01*
X82055570Y-81358110D01*
X82055569Y-81358110D01*
X81838276Y-81448116D01*
X81607600Y-81494000D01*
X81372400Y-81494000D01*
X81141724Y-81448116D01*
X80924431Y-81358110D01*
X80924430Y-81358110D01*
X80924429Y-81358109D01*
X80728870Y-81227440D01*
X80562560Y-81061130D01*
X80431891Y-80865571D01*
X80431890Y-80865569D01*
X80341884Y-80648276D01*
X80296000Y-80417600D01*
X80296000Y-80182400D01*
X80341884Y-79951724D01*
X80431890Y-79734431D01*
X80562560Y-79538870D01*
X80728870Y-79372560D01*
X80924429Y-79241891D01*
X80924431Y-79241890D01*
X81141724Y-79151884D01*
X81372400Y-79106000D01*
X81607600Y-79106000D01*
X81838276Y-79151884D01*
G37*
G36*
X43738276Y-79151884D02*
G01*
X43955569Y-79241890D01*
X43955571Y-79241891D01*
X44151130Y-79372560D01*
X44317440Y-79538870D01*
X44448110Y-79734431D01*
X44538116Y-79951724D01*
X44584000Y-80182400D01*
X44584000Y-80417600D01*
X44538116Y-80648276D01*
X44448110Y-80865569D01*
X44448109Y-80865571D01*
X44317440Y-81061130D01*
X44151130Y-81227440D01*
X43955571Y-81358109D01*
X43955570Y-81358110D01*
X43955569Y-81358110D01*
X43738276Y-81448116D01*
X43507600Y-81494000D01*
X43272400Y-81494000D01*
X43041724Y-81448116D01*
X42824431Y-81358110D01*
X42824430Y-81358110D01*
X42824429Y-81358109D01*
X42628870Y-81227440D01*
X42462560Y-81061130D01*
X42331891Y-80865571D01*
X42331890Y-80865569D01*
X42241884Y-80648276D01*
X42196000Y-80417600D01*
X42196000Y-80182400D01*
X42241884Y-79951724D01*
X42331890Y-79734431D01*
X42462560Y-79538870D01*
X42628870Y-79372560D01*
X42824429Y-79241891D01*
X42824431Y-79241890D01*
X43041724Y-79151884D01*
X43272400Y-79106000D01*
X43507600Y-79106000D01*
X43738276Y-79151884D01*
G37*
G36*
X50600000Y-77425000D02*
G01*
X49600000Y-77425000D01*
X49600000Y-76025000D01*
X50600000Y-76025000D01*
X50600000Y-77425000D01*
G37*
G36*
X88390000Y-77420000D02*
G01*
X87390000Y-77420000D01*
X87390000Y-76020000D01*
X88390000Y-76020000D01*
X88390000Y-77420000D01*
G37*
G36*
X68910000Y-77405000D02*
G01*
X67910000Y-77405000D01*
X67910000Y-76005000D01*
X68910000Y-76005000D01*
X68910000Y-77405000D01*
G37*
G36*
X107130000Y-77395000D02*
G01*
X106130000Y-77395000D01*
X106130000Y-75995000D01*
X107130000Y-75995000D01*
X107130000Y-77395000D01*
G37*
G36*
X50600000Y-73875000D02*
G01*
X49600000Y-73875000D01*
X49600000Y-72475000D01*
X50600000Y-72475000D01*
X50600000Y-73875000D01*
G37*
G36*
X88390000Y-73870000D02*
G01*
X87390000Y-73870000D01*
X87390000Y-72470000D01*
X88390000Y-72470000D01*
X88390000Y-73870000D01*
G37*
G36*
X68910000Y-73855000D02*
G01*
X67910000Y-73855000D01*
X67910000Y-72455000D01*
X68910000Y-72455000D01*
X68910000Y-73855000D01*
G37*
G36*
X107130000Y-73845000D02*
G01*
X106130000Y-73845000D01*
X106130000Y-72445000D01*
X107130000Y-72445000D01*
X107130000Y-73845000D01*
G37*
G36*
X95762585Y-69888802D02*
G01*
X95912410Y-69918604D01*
X96194674Y-70035521D01*
X96448705Y-70205259D01*
X96664741Y-70421295D01*
X96834479Y-70675326D01*
X96951396Y-70957590D01*
X97011000Y-71257240D01*
X97011000Y-71562760D01*
X96951396Y-71862410D01*
X96834479Y-72144674D01*
X96664741Y-72398705D01*
X96448705Y-72614741D01*
X96194674Y-72784479D01*
X95912410Y-72901396D01*
X95762585Y-72931198D01*
X95612761Y-72961000D01*
X95307239Y-72961000D01*
X95157415Y-72931198D01*
X95007590Y-72901396D01*
X94725326Y-72784479D01*
X94471295Y-72614741D01*
X94255259Y-72398705D01*
X94085521Y-72144674D01*
X93968604Y-71862410D01*
X93909000Y-71562760D01*
X93909000Y-71257240D01*
X93968604Y-70957590D01*
X94085521Y-70675326D01*
X94255259Y-70421295D01*
X94471295Y-70205259D01*
X94725326Y-70035521D01*
X95007590Y-69918604D01*
X95157415Y-69888802D01*
X95307239Y-69859000D01*
X95612761Y-69859000D01*
X95762585Y-69888802D01*
G37*
G36*
X38612585Y-69888802D02*
G01*
X38762410Y-69918604D01*
X39044674Y-70035521D01*
X39298705Y-70205259D01*
X39514741Y-70421295D01*
X39684479Y-70675326D01*
X39801396Y-70957590D01*
X39861000Y-71257240D01*
X39861000Y-71562760D01*
X39801396Y-71862410D01*
X39684479Y-72144674D01*
X39514741Y-72398705D01*
X39298705Y-72614741D01*
X39044674Y-72784479D01*
X38762410Y-72901396D01*
X38612585Y-72931198D01*
X38462761Y-72961000D01*
X38157239Y-72961000D01*
X38007415Y-72931198D01*
X37857590Y-72901396D01*
X37575326Y-72784479D01*
X37321295Y-72614741D01*
X37105259Y-72398705D01*
X36935521Y-72144674D01*
X36818604Y-71862410D01*
X36759000Y-71562760D01*
X36759000Y-71257240D01*
X36818604Y-70957590D01*
X36935521Y-70675326D01*
X37105259Y-70421295D01*
X37321295Y-70205259D01*
X37575326Y-70035521D01*
X37857590Y-69918604D01*
X38007415Y-69888802D01*
X38157239Y-69859000D01*
X38462761Y-69859000D01*
X38612585Y-69888802D01*
G37*
G36*
X57662585Y-69888802D02*
G01*
X57812410Y-69918604D01*
X58094674Y-70035521D01*
X58348705Y-70205259D01*
X58564741Y-70421295D01*
X58734479Y-70675326D01*
X58851396Y-70957590D01*
X58911000Y-71257240D01*
X58911000Y-71562760D01*
X58851396Y-71862410D01*
X58734479Y-72144674D01*
X58564741Y-72398705D01*
X58348705Y-72614741D01*
X58094674Y-72784479D01*
X57812410Y-72901396D01*
X57662585Y-72931198D01*
X57512761Y-72961000D01*
X57207239Y-72961000D01*
X57057415Y-72931198D01*
X56907590Y-72901396D01*
X56625326Y-72784479D01*
X56371295Y-72614741D01*
X56155259Y-72398705D01*
X55985521Y-72144674D01*
X55868604Y-71862410D01*
X55809000Y-71562760D01*
X55809000Y-71257240D01*
X55868604Y-70957590D01*
X55985521Y-70675326D01*
X56155259Y-70421295D01*
X56371295Y-70205259D01*
X56625326Y-70035521D01*
X56907590Y-69918604D01*
X57057415Y-69888802D01*
X57207239Y-69859000D01*
X57512761Y-69859000D01*
X57662585Y-69888802D01*
G37*
G36*
X76712585Y-69888802D02*
G01*
X76862410Y-69918604D01*
X77144674Y-70035521D01*
X77398705Y-70205259D01*
X77614741Y-70421295D01*
X77784479Y-70675326D01*
X77901396Y-70957590D01*
X77961000Y-71257240D01*
X77961000Y-71562760D01*
X77901396Y-71862410D01*
X77784479Y-72144674D01*
X77614741Y-72398705D01*
X77398705Y-72614741D01*
X77144674Y-72784479D01*
X76862410Y-72901396D01*
X76712585Y-72931198D01*
X76562761Y-72961000D01*
X76257239Y-72961000D01*
X76107415Y-72931198D01*
X75957590Y-72901396D01*
X75675326Y-72784479D01*
X75421295Y-72614741D01*
X75205259Y-72398705D01*
X75035521Y-72144674D01*
X74918604Y-71862410D01*
X74859000Y-71562760D01*
X74859000Y-71257240D01*
X74918604Y-70957590D01*
X75035521Y-70675326D01*
X75205259Y-70421295D01*
X75421295Y-70205259D01*
X75675326Y-70035521D01*
X75957590Y-69918604D01*
X76107415Y-69888802D01*
X76257239Y-69859000D01*
X76562761Y-69859000D01*
X76712585Y-69888802D01*
G37*
G36*
X35886000Y-72711000D02*
G01*
X33234000Y-72711000D01*
X33234000Y-70109000D01*
X35886000Y-70109000D01*
X35886000Y-72711000D01*
G37*
G36*
X54936000Y-72711000D02*
G01*
X52284000Y-72711000D01*
X52284000Y-70109000D01*
X54936000Y-70109000D01*
X54936000Y-72711000D01*
G37*
G36*
X73986000Y-72711000D02*
G01*
X71334000Y-72711000D01*
X71334000Y-70109000D01*
X73986000Y-70109000D01*
X73986000Y-72711000D01*
G37*
G36*
X93036000Y-72711000D02*
G01*
X90384000Y-72711000D01*
X90384000Y-70109000D01*
X93036000Y-70109000D01*
X93036000Y-72711000D01*
G37*
G36*
X83062585Y-67348802D02*
G01*
X83212410Y-67378604D01*
X83494674Y-67495521D01*
X83748705Y-67665259D01*
X83964741Y-67881295D01*
X84134479Y-68135326D01*
X84251396Y-68417590D01*
X84311000Y-68717240D01*
X84311000Y-69022760D01*
X84251396Y-69322410D01*
X84134479Y-69604674D01*
X83964741Y-69858705D01*
X83748705Y-70074741D01*
X83494674Y-70244479D01*
X83212410Y-70361396D01*
X83062585Y-70391198D01*
X82912761Y-70421000D01*
X82607239Y-70421000D01*
X82457415Y-70391198D01*
X82307590Y-70361396D01*
X82025326Y-70244479D01*
X81771295Y-70074741D01*
X81555259Y-69858705D01*
X81385521Y-69604674D01*
X81268604Y-69322410D01*
X81209000Y-69022760D01*
X81209000Y-68717240D01*
X81268604Y-68417590D01*
X81385521Y-68135326D01*
X81555259Y-67881295D01*
X81771295Y-67665259D01*
X82025326Y-67495521D01*
X82307590Y-67378604D01*
X82457415Y-67348802D01*
X82607239Y-67319000D01*
X82912761Y-67319000D01*
X83062585Y-67348802D01*
G37*
G36*
X44962585Y-67348802D02*
G01*
X45112410Y-67378604D01*
X45394674Y-67495521D01*
X45648705Y-67665259D01*
X45864741Y-67881295D01*
X46034479Y-68135326D01*
X46151396Y-68417590D01*
X46211000Y-68717240D01*
X46211000Y-69022760D01*
X46151396Y-69322410D01*
X46034479Y-69604674D01*
X45864741Y-69858705D01*
X45648705Y-70074741D01*
X45394674Y-70244479D01*
X45112410Y-70361396D01*
X44962585Y-70391198D01*
X44812761Y-70421000D01*
X44507239Y-70421000D01*
X44357415Y-70391198D01*
X44207590Y-70361396D01*
X43925326Y-70244479D01*
X43671295Y-70074741D01*
X43455259Y-69858705D01*
X43285521Y-69604674D01*
X43168604Y-69322410D01*
X43109000Y-69022760D01*
X43109000Y-68717240D01*
X43168604Y-68417590D01*
X43285521Y-68135326D01*
X43455259Y-67881295D01*
X43671295Y-67665259D01*
X43925326Y-67495521D01*
X44207590Y-67378604D01*
X44357415Y-67348802D01*
X44507239Y-67319000D01*
X44812761Y-67319000D01*
X44962585Y-67348802D01*
G37*
G36*
X64012585Y-67348802D02*
G01*
X64162410Y-67378604D01*
X64444674Y-67495521D01*
X64698705Y-67665259D01*
X64914741Y-67881295D01*
X65084479Y-68135326D01*
X65201396Y-68417590D01*
X65261000Y-68717240D01*
X65261000Y-69022760D01*
X65201396Y-69322410D01*
X65084479Y-69604674D01*
X64914741Y-69858705D01*
X64698705Y-70074741D01*
X64444674Y-70244479D01*
X64162410Y-70361396D01*
X64012585Y-70391198D01*
X63862761Y-70421000D01*
X63557239Y-70421000D01*
X63407415Y-70391198D01*
X63257590Y-70361396D01*
X62975326Y-70244479D01*
X62721295Y-70074741D01*
X62505259Y-69858705D01*
X62335521Y-69604674D01*
X62218604Y-69322410D01*
X62159000Y-69022760D01*
X62159000Y-68717240D01*
X62218604Y-68417590D01*
X62335521Y-68135326D01*
X62505259Y-67881295D01*
X62721295Y-67665259D01*
X62975326Y-67495521D01*
X63257590Y-67378604D01*
X63407415Y-67348802D01*
X63557239Y-67319000D01*
X63862761Y-67319000D01*
X64012585Y-67348802D01*
G37*
G36*
X102112585Y-67348802D02*
G01*
X102262410Y-67378604D01*
X102544674Y-67495521D01*
X102798705Y-67665259D01*
X103014741Y-67881295D01*
X103184479Y-68135326D01*
X103301396Y-68417590D01*
X103361000Y-68717240D01*
X103361000Y-69022760D01*
X103301396Y-69322410D01*
X103184479Y-69604674D01*
X103014741Y-69858705D01*
X102798705Y-70074741D01*
X102544674Y-70244479D01*
X102262410Y-70361396D01*
X102112585Y-70391198D01*
X101962761Y-70421000D01*
X101657239Y-70421000D01*
X101507415Y-70391198D01*
X101357590Y-70361396D01*
X101075326Y-70244479D01*
X100821295Y-70074741D01*
X100605259Y-69858705D01*
X100435521Y-69604674D01*
X100318604Y-69322410D01*
X100259000Y-69022760D01*
X100259000Y-68717240D01*
X100318604Y-68417590D01*
X100435521Y-68135326D01*
X100605259Y-67881295D01*
X100821295Y-67665259D01*
X101075326Y-67495521D01*
X101357590Y-67378604D01*
X101507415Y-67348802D01*
X101657239Y-67319000D01*
X101962761Y-67319000D01*
X102112585Y-67348802D01*
G37*
G36*
X49736000Y-70171000D02*
G01*
X47084000Y-70171000D01*
X47084000Y-67569000D01*
X49736000Y-67569000D01*
X49736000Y-70171000D01*
G37*
G36*
X106886000Y-70171000D02*
G01*
X104234000Y-70171000D01*
X104234000Y-67569000D01*
X106886000Y-67569000D01*
X106886000Y-70171000D01*
G37*
G36*
X87836000Y-70171000D02*
G01*
X85184000Y-70171000D01*
X85184000Y-67569000D01*
X87836000Y-67569000D01*
X87836000Y-70171000D01*
G37*
G36*
X68786000Y-70171000D02*
G01*
X66134000Y-70171000D01*
X66134000Y-67569000D01*
X68786000Y-67569000D01*
X68786000Y-70171000D01*
G37*
G36*
X60496474Y-64363684D02*
G01*
X60714474Y-64453983D01*
X60868623Y-64517833D01*
X61203548Y-64741623D01*
X61488377Y-65026452D01*
X61712167Y-65361377D01*
X61776017Y-65515526D01*
X61866316Y-65733526D01*
X61944900Y-66128594D01*
X61944900Y-66531406D01*
X61866316Y-66926474D01*
X61782322Y-67129253D01*
X61712167Y-67298623D01*
X61488377Y-67633548D01*
X61203548Y-67918377D01*
X60868623Y-68142167D01*
X60714474Y-68206017D01*
X60496474Y-68296316D01*
X60101406Y-68374900D01*
X59698594Y-68374900D01*
X59303526Y-68296316D01*
X59085526Y-68206017D01*
X58931377Y-68142167D01*
X58596452Y-67918377D01*
X58311623Y-67633548D01*
X58087833Y-67298623D01*
X58017678Y-67129253D01*
X57933684Y-66926474D01*
X57855100Y-66531406D01*
X57855100Y-66128594D01*
X57933684Y-65733526D01*
X58023983Y-65515526D01*
X58087833Y-65361377D01*
X58311623Y-65026452D01*
X58596452Y-64741623D01*
X58931377Y-64517833D01*
X59085526Y-64453983D01*
X59303526Y-64363684D01*
X59698594Y-64285100D01*
X60101406Y-64285100D01*
X60496474Y-64363684D01*
G37*
G36*
X98596474Y-64363684D02*
G01*
X98814474Y-64453983D01*
X98968623Y-64517833D01*
X99303548Y-64741623D01*
X99588377Y-65026452D01*
X99812167Y-65361377D01*
X99876017Y-65515526D01*
X99966316Y-65733526D01*
X100044900Y-66128594D01*
X100044900Y-66531406D01*
X99966316Y-66926474D01*
X99882322Y-67129253D01*
X99812167Y-67298623D01*
X99588377Y-67633548D01*
X99303548Y-67918377D01*
X98968623Y-68142167D01*
X98814474Y-68206017D01*
X98596474Y-68296316D01*
X98201406Y-68374900D01*
X97798594Y-68374900D01*
X97403526Y-68296316D01*
X97185526Y-68206017D01*
X97031377Y-68142167D01*
X96696452Y-67918377D01*
X96411623Y-67633548D01*
X96187833Y-67298623D01*
X96117678Y-67129253D01*
X96033684Y-66926474D01*
X95955100Y-66531406D01*
X95955100Y-66128594D01*
X96033684Y-65733526D01*
X96123983Y-65515526D01*
X96187833Y-65361377D01*
X96411623Y-65026452D01*
X96696452Y-64741623D01*
X97031377Y-64517833D01*
X97185526Y-64453983D01*
X97403526Y-64363684D01*
X97798594Y-64285100D01*
X98201406Y-64285100D01*
X98596474Y-64363684D01*
G37*
G36*
X79546474Y-64363684D02*
G01*
X79764474Y-64453983D01*
X79918623Y-64517833D01*
X80253548Y-64741623D01*
X80538377Y-65026452D01*
X80762167Y-65361377D01*
X80826017Y-65515526D01*
X80916316Y-65733526D01*
X80994900Y-66128594D01*
X80994900Y-66531406D01*
X80916316Y-66926474D01*
X80832322Y-67129253D01*
X80762167Y-67298623D01*
X80538377Y-67633548D01*
X80253548Y-67918377D01*
X79918623Y-68142167D01*
X79764474Y-68206017D01*
X79546474Y-68296316D01*
X79151406Y-68374900D01*
X78748594Y-68374900D01*
X78353526Y-68296316D01*
X78135526Y-68206017D01*
X77981377Y-68142167D01*
X77646452Y-67918377D01*
X77361623Y-67633548D01*
X77137833Y-67298623D01*
X77067678Y-67129253D01*
X76983684Y-66926474D01*
X76905100Y-66531406D01*
X76905100Y-66128594D01*
X76983684Y-65733526D01*
X77073983Y-65515526D01*
X77137833Y-65361377D01*
X77361623Y-65026452D01*
X77646452Y-64741623D01*
X77981377Y-64517833D01*
X78135526Y-64453983D01*
X78353526Y-64363684D01*
X78748594Y-64285100D01*
X79151406Y-64285100D01*
X79546474Y-64363684D01*
G37*
G36*
X41446474Y-64363684D02*
G01*
X41664474Y-64453983D01*
X41818623Y-64517833D01*
X42153548Y-64741623D01*
X42438377Y-65026452D01*
X42662167Y-65361377D01*
X42726017Y-65515526D01*
X42816316Y-65733526D01*
X42894900Y-66128594D01*
X42894900Y-66531406D01*
X42816316Y-66926474D01*
X42732322Y-67129253D01*
X42662167Y-67298623D01*
X42438377Y-67633548D01*
X42153548Y-67918377D01*
X41818623Y-68142167D01*
X41664474Y-68206017D01*
X41446474Y-68296316D01*
X41051406Y-68374900D01*
X40648594Y-68374900D01*
X40253526Y-68296316D01*
X40035526Y-68206017D01*
X39881377Y-68142167D01*
X39546452Y-67918377D01*
X39261623Y-67633548D01*
X39037833Y-67298623D01*
X38967678Y-67129253D01*
X38883684Y-66926474D01*
X38805100Y-66531406D01*
X38805100Y-66128594D01*
X38883684Y-65733526D01*
X38973983Y-65515526D01*
X39037833Y-65361377D01*
X39261623Y-65026452D01*
X39546452Y-64741623D01*
X39881377Y-64517833D01*
X40035526Y-64453983D01*
X40253526Y-64363684D01*
X40648594Y-64285100D01*
X41051406Y-64285100D01*
X41446474Y-64363684D01*
G37*
G36*
X74045952Y-65445429D02*
G01*
X74133075Y-65462759D01*
X74242498Y-65508084D01*
X74297211Y-65530747D01*
X74443933Y-65628783D01*
X74444928Y-65629448D01*
X74570552Y-65755072D01*
X74570554Y-65755075D01*
X74669253Y-65902789D01*
X74669253Y-65902790D01*
X74737241Y-66066925D01*
X74771900Y-66241171D01*
X74771900Y-66418829D01*
X74737241Y-66593075D01*
X74691916Y-66702498D01*
X74669253Y-66757211D01*
X74571217Y-66903933D01*
X74570552Y-66904928D01*
X74444928Y-67030552D01*
X74444925Y-67030554D01*
X74297211Y-67129253D01*
X74242498Y-67151916D01*
X74133075Y-67197241D01*
X74045952Y-67214570D01*
X73958831Y-67231900D01*
X73781169Y-67231900D01*
X73694048Y-67214570D01*
X73606925Y-67197241D01*
X73497502Y-67151916D01*
X73442789Y-67129253D01*
X73295075Y-67030554D01*
X73295072Y-67030552D01*
X73169448Y-66904928D01*
X73168783Y-66903933D01*
X73070747Y-66757211D01*
X73048084Y-66702498D01*
X73002759Y-66593075D01*
X72968100Y-66418829D01*
X72968100Y-66241171D01*
X73002759Y-66066925D01*
X73070747Y-65902790D01*
X73070747Y-65902789D01*
X73169446Y-65755075D01*
X73169448Y-65755072D01*
X73295072Y-65629448D01*
X73296067Y-65628783D01*
X73442789Y-65530747D01*
X73497502Y-65508084D01*
X73606925Y-65462759D01*
X73694048Y-65445429D01*
X73781169Y-65428100D01*
X73958831Y-65428100D01*
X74045952Y-65445429D01*
G37*
G36*
X35945952Y-65445429D02*
G01*
X36033075Y-65462759D01*
X36142498Y-65508084D01*
X36197211Y-65530747D01*
X36343933Y-65628783D01*
X36344928Y-65629448D01*
X36470552Y-65755072D01*
X36470554Y-65755075D01*
X36569253Y-65902789D01*
X36569253Y-65902790D01*
X36637241Y-66066925D01*
X36671900Y-66241171D01*
X36671900Y-66418829D01*
X36637241Y-66593075D01*
X36591916Y-66702498D01*
X36569253Y-66757211D01*
X36471217Y-66903933D01*
X36470552Y-66904928D01*
X36344928Y-67030552D01*
X36344925Y-67030554D01*
X36197211Y-67129253D01*
X36142498Y-67151916D01*
X36033075Y-67197241D01*
X35945952Y-67214570D01*
X35858831Y-67231900D01*
X35681169Y-67231900D01*
X35594048Y-67214570D01*
X35506925Y-67197241D01*
X35397502Y-67151916D01*
X35342789Y-67129253D01*
X35195075Y-67030554D01*
X35195072Y-67030552D01*
X35069448Y-66904928D01*
X35068783Y-66903933D01*
X34970747Y-66757211D01*
X34948084Y-66702498D01*
X34902759Y-66593075D01*
X34868100Y-66418829D01*
X34868100Y-66241171D01*
X34902759Y-66066925D01*
X34970747Y-65902790D01*
X34970747Y-65902789D01*
X35069446Y-65755075D01*
X35069448Y-65755072D01*
X35195072Y-65629448D01*
X35196067Y-65628783D01*
X35342789Y-65530747D01*
X35397502Y-65508084D01*
X35506925Y-65462759D01*
X35594048Y-65445429D01*
X35681169Y-65428100D01*
X35858831Y-65428100D01*
X35945952Y-65445429D01*
G37*
G36*
X46105952Y-65445429D02*
G01*
X46193075Y-65462759D01*
X46302498Y-65508084D01*
X46357211Y-65530747D01*
X46503933Y-65628783D01*
X46504928Y-65629448D01*
X46630552Y-65755072D01*
X46630554Y-65755075D01*
X46729253Y-65902789D01*
X46729253Y-65902790D01*
X46797241Y-66066925D01*
X46831900Y-66241171D01*
X46831900Y-66418829D01*
X46797241Y-66593075D01*
X46751916Y-66702498D01*
X46729253Y-66757211D01*
X46631217Y-66903933D01*
X46630552Y-66904928D01*
X46504928Y-67030552D01*
X46504925Y-67030554D01*
X46357211Y-67129253D01*
X46302498Y-67151916D01*
X46193075Y-67197241D01*
X46105952Y-67214570D01*
X46018831Y-67231900D01*
X45841169Y-67231900D01*
X45754048Y-67214570D01*
X45666925Y-67197241D01*
X45557502Y-67151916D01*
X45502789Y-67129253D01*
X45355075Y-67030554D01*
X45355072Y-67030552D01*
X45229448Y-66904928D01*
X45228783Y-66903933D01*
X45130747Y-66757211D01*
X45108084Y-66702498D01*
X45062759Y-66593075D01*
X45028100Y-66418829D01*
X45028100Y-66241171D01*
X45062759Y-66066925D01*
X45130747Y-65902790D01*
X45130747Y-65902789D01*
X45229446Y-65755075D01*
X45229448Y-65755072D01*
X45355072Y-65629448D01*
X45356067Y-65628783D01*
X45502789Y-65530747D01*
X45557502Y-65508084D01*
X45666925Y-65462759D01*
X45754048Y-65445429D01*
X45841169Y-65428100D01*
X46018831Y-65428100D01*
X46105952Y-65445429D01*
G37*
G36*
X54995952Y-65445429D02*
G01*
X55083075Y-65462759D01*
X55192498Y-65508084D01*
X55247211Y-65530747D01*
X55393933Y-65628783D01*
X55394928Y-65629448D01*
X55520552Y-65755072D01*
X55520554Y-65755075D01*
X55619253Y-65902789D01*
X55619253Y-65902790D01*
X55687241Y-66066925D01*
X55721900Y-66241171D01*
X55721900Y-66418829D01*
X55687241Y-66593075D01*
X55641916Y-66702498D01*
X55619253Y-66757211D01*
X55521217Y-66903933D01*
X55520552Y-66904928D01*
X55394928Y-67030552D01*
X55394925Y-67030554D01*
X55247211Y-67129253D01*
X55192498Y-67151916D01*
X55083075Y-67197241D01*
X54995952Y-67214570D01*
X54908831Y-67231900D01*
X54731169Y-67231900D01*
X54644048Y-67214570D01*
X54556925Y-67197241D01*
X54447502Y-67151916D01*
X54392789Y-67129253D01*
X54245075Y-67030554D01*
X54245072Y-67030552D01*
X54119448Y-66904928D01*
X54118783Y-66903933D01*
X54020747Y-66757211D01*
X53998084Y-66702498D01*
X53952759Y-66593075D01*
X53918100Y-66418829D01*
X53918100Y-66241171D01*
X53952759Y-66066925D01*
X54020747Y-65902790D01*
X54020747Y-65902789D01*
X54119446Y-65755075D01*
X54119448Y-65755072D01*
X54245072Y-65629448D01*
X54246067Y-65628783D01*
X54392789Y-65530747D01*
X54447502Y-65508084D01*
X54556925Y-65462759D01*
X54644048Y-65445429D01*
X54731169Y-65428100D01*
X54908831Y-65428100D01*
X54995952Y-65445429D01*
G37*
G36*
X84205952Y-65445429D02*
G01*
X84293075Y-65462759D01*
X84402498Y-65508084D01*
X84457211Y-65530747D01*
X84603933Y-65628783D01*
X84604928Y-65629448D01*
X84730552Y-65755072D01*
X84730554Y-65755075D01*
X84829253Y-65902789D01*
X84829253Y-65902790D01*
X84897241Y-66066925D01*
X84931900Y-66241171D01*
X84931900Y-66418829D01*
X84897241Y-66593075D01*
X84851916Y-66702498D01*
X84829253Y-66757211D01*
X84731217Y-66903933D01*
X84730552Y-66904928D01*
X84604928Y-67030552D01*
X84604925Y-67030554D01*
X84457211Y-67129253D01*
X84402498Y-67151916D01*
X84293075Y-67197241D01*
X84205952Y-67214570D01*
X84118831Y-67231900D01*
X83941169Y-67231900D01*
X83854048Y-67214570D01*
X83766925Y-67197241D01*
X83657502Y-67151916D01*
X83602789Y-67129253D01*
X83455075Y-67030554D01*
X83455072Y-67030552D01*
X83329448Y-66904928D01*
X83328783Y-66903933D01*
X83230747Y-66757211D01*
X83208084Y-66702498D01*
X83162759Y-66593075D01*
X83128100Y-66418829D01*
X83128100Y-66241171D01*
X83162759Y-66066925D01*
X83230747Y-65902790D01*
X83230747Y-65902789D01*
X83329446Y-65755075D01*
X83329448Y-65755072D01*
X83455072Y-65629448D01*
X83456067Y-65628783D01*
X83602789Y-65530747D01*
X83657502Y-65508084D01*
X83766925Y-65462759D01*
X83854048Y-65445429D01*
X83941169Y-65428100D01*
X84118831Y-65428100D01*
X84205952Y-65445429D01*
G37*
G36*
X93095952Y-65445429D02*
G01*
X93183075Y-65462759D01*
X93292498Y-65508084D01*
X93347211Y-65530747D01*
X93493933Y-65628783D01*
X93494928Y-65629448D01*
X93620552Y-65755072D01*
X93620554Y-65755075D01*
X93719253Y-65902789D01*
X93719253Y-65902790D01*
X93787241Y-66066925D01*
X93821900Y-66241171D01*
X93821900Y-66418829D01*
X93787241Y-66593075D01*
X93741916Y-66702498D01*
X93719253Y-66757211D01*
X93621217Y-66903933D01*
X93620552Y-66904928D01*
X93494928Y-67030552D01*
X93494925Y-67030554D01*
X93347211Y-67129253D01*
X93292498Y-67151916D01*
X93183075Y-67197241D01*
X93095952Y-67214570D01*
X93008831Y-67231900D01*
X92831169Y-67231900D01*
X92744048Y-67214570D01*
X92656925Y-67197241D01*
X92547502Y-67151916D01*
X92492789Y-67129253D01*
X92345075Y-67030554D01*
X92345072Y-67030552D01*
X92219448Y-66904928D01*
X92218783Y-66903933D01*
X92120747Y-66757211D01*
X92098084Y-66702498D01*
X92052759Y-66593075D01*
X92018100Y-66418829D01*
X92018100Y-66241171D01*
X92052759Y-66066925D01*
X92120747Y-65902790D01*
X92120747Y-65902789D01*
X92219446Y-65755075D01*
X92219448Y-65755072D01*
X92345072Y-65629448D01*
X92346067Y-65628783D01*
X92492789Y-65530747D01*
X92547502Y-65508084D01*
X92656925Y-65462759D01*
X92744048Y-65445429D01*
X92831169Y-65428100D01*
X93008831Y-65428100D01*
X93095952Y-65445429D01*
G37*
G36*
X103255952Y-65445429D02*
G01*
X103343075Y-65462759D01*
X103452498Y-65508084D01*
X103507211Y-65530747D01*
X103653933Y-65628783D01*
X103654928Y-65629448D01*
X103780552Y-65755072D01*
X103780554Y-65755075D01*
X103879253Y-65902789D01*
X103879253Y-65902790D01*
X103947241Y-66066925D01*
X103981900Y-66241171D01*
X103981900Y-66418829D01*
X103947241Y-66593075D01*
X103901916Y-66702498D01*
X103879253Y-66757211D01*
X103781217Y-66903933D01*
X103780552Y-66904928D01*
X103654928Y-67030552D01*
X103654925Y-67030554D01*
X103507211Y-67129253D01*
X103452498Y-67151916D01*
X103343075Y-67197241D01*
X103255952Y-67214570D01*
X103168831Y-67231900D01*
X102991169Y-67231900D01*
X102904048Y-67214570D01*
X102816925Y-67197241D01*
X102707502Y-67151916D01*
X102652789Y-67129253D01*
X102505075Y-67030554D01*
X102505072Y-67030552D01*
X102379448Y-66904928D01*
X102378783Y-66903933D01*
X102280747Y-66757211D01*
X102258084Y-66702498D01*
X102212759Y-66593075D01*
X102178100Y-66418829D01*
X102178100Y-66241171D01*
X102212759Y-66066925D01*
X102280747Y-65902790D01*
X102280747Y-65902789D01*
X102379446Y-65755075D01*
X102379448Y-65755072D01*
X102505072Y-65629448D01*
X102506067Y-65628783D01*
X102652789Y-65530747D01*
X102707502Y-65508084D01*
X102816925Y-65462759D01*
X102904048Y-65445429D01*
X102991169Y-65428100D01*
X103168831Y-65428100D01*
X103255952Y-65445429D01*
G37*
G36*
X65155952Y-65445429D02*
G01*
X65243075Y-65462759D01*
X65352498Y-65508084D01*
X65407211Y-65530747D01*
X65553933Y-65628783D01*
X65554928Y-65629448D01*
X65680552Y-65755072D01*
X65680554Y-65755075D01*
X65779253Y-65902789D01*
X65779253Y-65902790D01*
X65847241Y-66066925D01*
X65881900Y-66241171D01*
X65881900Y-66418829D01*
X65847241Y-66593075D01*
X65801916Y-66702498D01*
X65779253Y-66757211D01*
X65681217Y-66903933D01*
X65680552Y-66904928D01*
X65554928Y-67030552D01*
X65554925Y-67030554D01*
X65407211Y-67129253D01*
X65352498Y-67151916D01*
X65243075Y-67197241D01*
X65155952Y-67214570D01*
X65068831Y-67231900D01*
X64891169Y-67231900D01*
X64804048Y-67214570D01*
X64716925Y-67197241D01*
X64607502Y-67151916D01*
X64552789Y-67129253D01*
X64405075Y-67030554D01*
X64405072Y-67030552D01*
X64279448Y-66904928D01*
X64278783Y-66903933D01*
X64180747Y-66757211D01*
X64158084Y-66702498D01*
X64112759Y-66593075D01*
X64078100Y-66418829D01*
X64078100Y-66241171D01*
X64112759Y-66066925D01*
X64180747Y-65902790D01*
X64180747Y-65902789D01*
X64279446Y-65755075D01*
X64279448Y-65755072D01*
X64405072Y-65629448D01*
X64406067Y-65628783D01*
X64552789Y-65530747D01*
X64607502Y-65508084D01*
X64716925Y-65462759D01*
X64804048Y-65445429D01*
X64891169Y-65428100D01*
X65068831Y-65428100D01*
X65155952Y-65445429D01*
G37*
G36*
X75488276Y-62641884D02*
G01*
X75705569Y-62731890D01*
X75705571Y-62731891D01*
X75901130Y-62862560D01*
X76067440Y-63028870D01*
X76198110Y-63224431D01*
X76288116Y-63441724D01*
X76334000Y-63672400D01*
X76334000Y-63907600D01*
X76288116Y-64138276D01*
X76227299Y-64285100D01*
X76198109Y-64355571D01*
X76067440Y-64551130D01*
X75901130Y-64717440D01*
X75705571Y-64848109D01*
X75705570Y-64848110D01*
X75705569Y-64848110D01*
X75488276Y-64938116D01*
X75257600Y-64984000D01*
X75022400Y-64984000D01*
X74791724Y-64938116D01*
X74574431Y-64848110D01*
X74574430Y-64848110D01*
X74574429Y-64848109D01*
X74378870Y-64717440D01*
X74212560Y-64551130D01*
X74081891Y-64355571D01*
X74052701Y-64285100D01*
X73991884Y-64138276D01*
X73946000Y-63907600D01*
X73946000Y-63672400D01*
X73991884Y-63441724D01*
X74081890Y-63224431D01*
X74212560Y-63028870D01*
X74378870Y-62862560D01*
X74574429Y-62731891D01*
X74574431Y-62731890D01*
X74791724Y-62641884D01*
X75022400Y-62596000D01*
X75257600Y-62596000D01*
X75488276Y-62641884D01*
G37*
G36*
X94538276Y-62641884D02*
G01*
X94755569Y-62731890D01*
X94755571Y-62731891D01*
X94951130Y-62862560D01*
X95117440Y-63028870D01*
X95248110Y-63224431D01*
X95338116Y-63441724D01*
X95384000Y-63672400D01*
X95384000Y-63907600D01*
X95338116Y-64138276D01*
X95277299Y-64285100D01*
X95248109Y-64355571D01*
X95117440Y-64551130D01*
X94951130Y-64717440D01*
X94755571Y-64848109D01*
X94755570Y-64848110D01*
X94755569Y-64848110D01*
X94538276Y-64938116D01*
X94307600Y-64984000D01*
X94072400Y-64984000D01*
X93841724Y-64938116D01*
X93624431Y-64848110D01*
X93624430Y-64848110D01*
X93624429Y-64848109D01*
X93428870Y-64717440D01*
X93262560Y-64551130D01*
X93131891Y-64355571D01*
X93102701Y-64285100D01*
X93041884Y-64138276D01*
X92996000Y-63907600D01*
X92996000Y-63672400D01*
X93041884Y-63441724D01*
X93131890Y-63224431D01*
X93262560Y-63028870D01*
X93428870Y-62862560D01*
X93624429Y-62731891D01*
X93624431Y-62731890D01*
X93841724Y-62641884D01*
X94072400Y-62596000D01*
X94307600Y-62596000D01*
X94538276Y-62641884D01*
G37*
G36*
X56438276Y-62641884D02*
G01*
X56655569Y-62731890D01*
X56655571Y-62731891D01*
X56851130Y-62862560D01*
X57017440Y-63028870D01*
X57148110Y-63224431D01*
X57238116Y-63441724D01*
X57284000Y-63672400D01*
X57284000Y-63907600D01*
X57238116Y-64138276D01*
X57177299Y-64285100D01*
X57148109Y-64355571D01*
X57017440Y-64551130D01*
X56851130Y-64717440D01*
X56655571Y-64848109D01*
X56655570Y-64848110D01*
X56655569Y-64848110D01*
X56438276Y-64938116D01*
X56207600Y-64984000D01*
X55972400Y-64984000D01*
X55741724Y-64938116D01*
X55524431Y-64848110D01*
X55524430Y-64848110D01*
X55524429Y-64848109D01*
X55328870Y-64717440D01*
X55162560Y-64551130D01*
X55031891Y-64355571D01*
X55002701Y-64285100D01*
X54941884Y-64138276D01*
X54896000Y-63907600D01*
X54896000Y-63672400D01*
X54941884Y-63441724D01*
X55031890Y-63224431D01*
X55162560Y-63028870D01*
X55328870Y-62862560D01*
X55524429Y-62731891D01*
X55524431Y-62731890D01*
X55741724Y-62641884D01*
X55972400Y-62596000D01*
X56207600Y-62596000D01*
X56438276Y-62641884D01*
G37*
G36*
X37388276Y-62641884D02*
G01*
X37605569Y-62731890D01*
X37605571Y-62731891D01*
X37801130Y-62862560D01*
X37967440Y-63028870D01*
X38098110Y-63224431D01*
X38188116Y-63441724D01*
X38234000Y-63672400D01*
X38234000Y-63907600D01*
X38188116Y-64138276D01*
X38127299Y-64285100D01*
X38098109Y-64355571D01*
X37967440Y-64551130D01*
X37801130Y-64717440D01*
X37605571Y-64848109D01*
X37605570Y-64848110D01*
X37605569Y-64848110D01*
X37388276Y-64938116D01*
X37157600Y-64984000D01*
X36922400Y-64984000D01*
X36691724Y-64938116D01*
X36474431Y-64848110D01*
X36474430Y-64848110D01*
X36474429Y-64848109D01*
X36278870Y-64717440D01*
X36112560Y-64551130D01*
X35981891Y-64355571D01*
X35952701Y-64285100D01*
X35891884Y-64138276D01*
X35846000Y-63907600D01*
X35846000Y-63672400D01*
X35891884Y-63441724D01*
X35981890Y-63224431D01*
X36112560Y-63028870D01*
X36278870Y-62862560D01*
X36474429Y-62731891D01*
X36474431Y-62731890D01*
X36691724Y-62641884D01*
X36922400Y-62596000D01*
X37157600Y-62596000D01*
X37388276Y-62641884D01*
G37*
G36*
X62788276Y-60101884D02*
G01*
X63005569Y-60191890D01*
X63005571Y-60191891D01*
X63070070Y-60234988D01*
X63201130Y-60322560D01*
X63367440Y-60488870D01*
X63498110Y-60684431D01*
X63588116Y-60901724D01*
X63634000Y-61132400D01*
X63634000Y-61367600D01*
X63588116Y-61598276D01*
X63498110Y-61815569D01*
X63498109Y-61815571D01*
X63367440Y-62011130D01*
X63201130Y-62177440D01*
X63005571Y-62308109D01*
X63005570Y-62308110D01*
X63005569Y-62308110D01*
X62788276Y-62398116D01*
X62557600Y-62444000D01*
X62322400Y-62444000D01*
X62091724Y-62398116D01*
X61874431Y-62308110D01*
X61874430Y-62308110D01*
X61874429Y-62308109D01*
X61678870Y-62177440D01*
X61512560Y-62011130D01*
X61381891Y-61815571D01*
X61381890Y-61815569D01*
X61291884Y-61598276D01*
X61246000Y-61367600D01*
X61246000Y-61132400D01*
X61291884Y-60901724D01*
X61381890Y-60684431D01*
X61512560Y-60488870D01*
X61678870Y-60322560D01*
X61809930Y-60234988D01*
X61874429Y-60191891D01*
X61874431Y-60191890D01*
X62091724Y-60101884D01*
X62322400Y-60056000D01*
X62557600Y-60056000D01*
X62788276Y-60101884D01*
G37*
G36*
X43738276Y-60101884D02*
G01*
X43955569Y-60191890D01*
X43955571Y-60191891D01*
X44020070Y-60234988D01*
X44151130Y-60322560D01*
X44317440Y-60488870D01*
X44448110Y-60684431D01*
X44538116Y-60901724D01*
X44584000Y-61132400D01*
X44584000Y-61367600D01*
X44538116Y-61598276D01*
X44448110Y-61815569D01*
X44448109Y-61815571D01*
X44317440Y-62011130D01*
X44151130Y-62177440D01*
X43955571Y-62308109D01*
X43955570Y-62308110D01*
X43955569Y-62308110D01*
X43738276Y-62398116D01*
X43507600Y-62444000D01*
X43272400Y-62444000D01*
X43041724Y-62398116D01*
X42824431Y-62308110D01*
X42824430Y-62308110D01*
X42824429Y-62308109D01*
X42628870Y-62177440D01*
X42462560Y-62011130D01*
X42331891Y-61815571D01*
X42331890Y-61815569D01*
X42241884Y-61598276D01*
X42196000Y-61367600D01*
X42196000Y-61132400D01*
X42241884Y-60901724D01*
X42331890Y-60684431D01*
X42462560Y-60488870D01*
X42628870Y-60322560D01*
X42759930Y-60234988D01*
X42824429Y-60191891D01*
X42824431Y-60191890D01*
X43041724Y-60101884D01*
X43272400Y-60056000D01*
X43507600Y-60056000D01*
X43738276Y-60101884D01*
G37*
G36*
X81838276Y-60101884D02*
G01*
X82055569Y-60191890D01*
X82055571Y-60191891D01*
X82120070Y-60234988D01*
X82251130Y-60322560D01*
X82417440Y-60488870D01*
X82548110Y-60684431D01*
X82638116Y-60901724D01*
X82684000Y-61132400D01*
X82684000Y-61367600D01*
X82638116Y-61598276D01*
X82548110Y-61815569D01*
X82548109Y-61815571D01*
X82417440Y-62011130D01*
X82251130Y-62177440D01*
X82055571Y-62308109D01*
X82055570Y-62308110D01*
X82055569Y-62308110D01*
X81838276Y-62398116D01*
X81607600Y-62444000D01*
X81372400Y-62444000D01*
X81141724Y-62398116D01*
X80924431Y-62308110D01*
X80924430Y-62308110D01*
X80924429Y-62308109D01*
X80728870Y-62177440D01*
X80562560Y-62011130D01*
X80431891Y-61815571D01*
X80431890Y-61815569D01*
X80341884Y-61598276D01*
X80296000Y-61367600D01*
X80296000Y-61132400D01*
X80341884Y-60901724D01*
X80431890Y-60684431D01*
X80562560Y-60488870D01*
X80728870Y-60322560D01*
X80859930Y-60234988D01*
X80924429Y-60191891D01*
X80924431Y-60191890D01*
X81141724Y-60101884D01*
X81372400Y-60056000D01*
X81607600Y-60056000D01*
X81838276Y-60101884D01*
G37*
G36*
X100888276Y-60101884D02*
G01*
X101105569Y-60191890D01*
X101105571Y-60191891D01*
X101170070Y-60234988D01*
X101301130Y-60322560D01*
X101467440Y-60488870D01*
X101598110Y-60684431D01*
X101688116Y-60901724D01*
X101734000Y-61132400D01*
X101734000Y-61367600D01*
X101688116Y-61598276D01*
X101598110Y-61815569D01*
X101598109Y-61815571D01*
X101467440Y-62011130D01*
X101301130Y-62177440D01*
X101105571Y-62308109D01*
X101105570Y-62308110D01*
X101105569Y-62308110D01*
X100888276Y-62398116D01*
X100657600Y-62444000D01*
X100422400Y-62444000D01*
X100191724Y-62398116D01*
X99974431Y-62308110D01*
X99974430Y-62308110D01*
X99974429Y-62308109D01*
X99778870Y-62177440D01*
X99612560Y-62011130D01*
X99481891Y-61815571D01*
X99481890Y-61815569D01*
X99391884Y-61598276D01*
X99346000Y-61367600D01*
X99346000Y-61132400D01*
X99391884Y-60901724D01*
X99481890Y-60684431D01*
X99612560Y-60488870D01*
X99778870Y-60322560D01*
X99909930Y-60234988D01*
X99974429Y-60191891D01*
X99974431Y-60191890D01*
X100191724Y-60101884D01*
X100422400Y-60056000D01*
X100657600Y-60056000D01*
X100888276Y-60101884D01*
G37*
G36*
X107929890Y-59194017D02*
G01*
X108048364Y-59243091D01*
X108154988Y-59314335D01*
X108245665Y-59405012D01*
X108316910Y-59511638D01*
X108348517Y-59587944D01*
X108360068Y-59609555D01*
X108375613Y-59628497D01*
X108394555Y-59644042D01*
X108416166Y-59655593D01*
X108439615Y-59662706D01*
X108464001Y-59665108D01*
X108488387Y-59662706D01*
X108511836Y-59655593D01*
X108533447Y-59644042D01*
X108552389Y-59628497D01*
X108567934Y-59609555D01*
X108579485Y-59587944D01*
X108586598Y-59564495D01*
X108589000Y-59540109D01*
X108589000Y-59169000D01*
X109891000Y-59169000D01*
X109891000Y-60471000D01*
X108589000Y-60471000D01*
X108589000Y-60099891D01*
X108586598Y-60075505D01*
X108579485Y-60052056D01*
X108567934Y-60030445D01*
X108552389Y-60011503D01*
X108533447Y-59995958D01*
X108511836Y-59984407D01*
X108488387Y-59977294D01*
X108464001Y-59974892D01*
X108439615Y-59977294D01*
X108416166Y-59984407D01*
X108394555Y-59995958D01*
X108375613Y-60011503D01*
X108360068Y-60030445D01*
X108348517Y-60052056D01*
X108327878Y-60101884D01*
X108316909Y-60128364D01*
X108245665Y-60234988D01*
X108154988Y-60325665D01*
X108048364Y-60396909D01*
X108048363Y-60396910D01*
X108048362Y-60396910D01*
X107929890Y-60445983D01*
X107804119Y-60471000D01*
X107675881Y-60471000D01*
X107550110Y-60445983D01*
X107431638Y-60396910D01*
X107431637Y-60396910D01*
X107431636Y-60396909D01*
X107325012Y-60325665D01*
X107234335Y-60234988D01*
X107163091Y-60128364D01*
X107152123Y-60101884D01*
X107114017Y-60009890D01*
X107089000Y-59884119D01*
X107089000Y-59755881D01*
X107114017Y-59630110D01*
X107163090Y-59511638D01*
X107234335Y-59405012D01*
X107325012Y-59314335D01*
X107431636Y-59243091D01*
X107550110Y-59194017D01*
X107675881Y-59169000D01*
X107804119Y-59169000D01*
X107929890Y-59194017D01*
G37*
G36*
X101030000Y-53060000D02*
G01*
X100030000Y-53060000D01*
X100030000Y-51660000D01*
X101030000Y-51660000D01*
X101030000Y-53060000D01*
G37*
G36*
X101030000Y-49510000D02*
G01*
X100030000Y-49510000D01*
X100030000Y-48110000D01*
X101030000Y-48110000D01*
X101030000Y-49510000D01*
G37*
G36*
X100806564Y-43819389D02*
G01*
X100997833Y-43898615D01*
X100997835Y-43898616D01*
X101169973Y-44013635D01*
X101316365Y-44160027D01*
X101431385Y-44332167D01*
X101510611Y-44523436D01*
X101551000Y-44726484D01*
X101551000Y-44933516D01*
X101510611Y-45136564D01*
X101431385Y-45327833D01*
X101431384Y-45327835D01*
X101316365Y-45499973D01*
X101169973Y-45646365D01*
X100997835Y-45761384D01*
X100997834Y-45761385D01*
X100997833Y-45761385D01*
X100806564Y-45840611D01*
X100603516Y-45881000D01*
X100396484Y-45881000D01*
X100193436Y-45840611D01*
X100002167Y-45761385D01*
X100002166Y-45761385D01*
X100002165Y-45761384D01*
X99830027Y-45646365D01*
X99683635Y-45499973D01*
X99568616Y-45327835D01*
X99568615Y-45327833D01*
X99489389Y-45136564D01*
X99449000Y-44933516D01*
X99449000Y-44726484D01*
X99489389Y-44523436D01*
X99568615Y-44332167D01*
X99683635Y-44160027D01*
X99830027Y-44013635D01*
X100002165Y-43898616D01*
X100002167Y-43898615D01*
X100193436Y-43819389D01*
X100396484Y-43779000D01*
X100603516Y-43779000D01*
X100806564Y-43819389D01*
G37*
G36*
X95806564Y-43819389D02*
G01*
X95997833Y-43898615D01*
X95997835Y-43898616D01*
X96169973Y-44013635D01*
X96316365Y-44160027D01*
X96431385Y-44332167D01*
X96510611Y-44523436D01*
X96551000Y-44726484D01*
X96551000Y-44933516D01*
X96510611Y-45136564D01*
X96431385Y-45327833D01*
X96431384Y-45327835D01*
X96316365Y-45499973D01*
X96169973Y-45646365D01*
X95997835Y-45761384D01*
X95997834Y-45761385D01*
X95997833Y-45761385D01*
X95806564Y-45840611D01*
X95603516Y-45881000D01*
X95396484Y-45881000D01*
X95193436Y-45840611D01*
X95002167Y-45761385D01*
X95002166Y-45761385D01*
X95002165Y-45761384D01*
X94830027Y-45646365D01*
X94683635Y-45499973D01*
X94568616Y-45327835D01*
X94568615Y-45327833D01*
X94489389Y-45136564D01*
X94449000Y-44933516D01*
X94449000Y-44726484D01*
X94489389Y-44523436D01*
X94568615Y-44332167D01*
X94683635Y-44160027D01*
X94830027Y-44013635D01*
X95002165Y-43898616D01*
X95002167Y-43898615D01*
X95193436Y-43819389D01*
X95396484Y-43779000D01*
X95603516Y-43779000D01*
X95806564Y-43819389D01*
G37*
G36*
X87524499Y-42053445D02*
G01*
X87561995Y-42064820D01*
X87596554Y-42083292D01*
X87626847Y-42108153D01*
X87651708Y-42138446D01*
X87670180Y-42173005D01*
X87681555Y-42210501D01*
X87686000Y-42255638D01*
X87686000Y-42994362D01*
X87681555Y-43039499D01*
X87670180Y-43076995D01*
X87651708Y-43111554D01*
X87626847Y-43141847D01*
X87596554Y-43166708D01*
X87561995Y-43185180D01*
X87524499Y-43196555D01*
X87479362Y-43201000D01*
X86840638Y-43201000D01*
X86795501Y-43196555D01*
X86758005Y-43185180D01*
X86723446Y-43166708D01*
X86693153Y-43141847D01*
X86668292Y-43111554D01*
X86649820Y-43076995D01*
X86638445Y-43039499D01*
X86634000Y-42994362D01*
X86634000Y-42255638D01*
X86638445Y-42210501D01*
X86649820Y-42173005D01*
X86668292Y-42138446D01*
X86693153Y-42108153D01*
X86723446Y-42083292D01*
X86758005Y-42064820D01*
X86795501Y-42053445D01*
X86840638Y-42049000D01*
X87479362Y-42049000D01*
X87524499Y-42053445D01*
G37*
G36*
X87524499Y-40303445D02*
G01*
X87561995Y-40314820D01*
X87596554Y-40333292D01*
X87626847Y-40358153D01*
X87651708Y-40388446D01*
X87670180Y-40423005D01*
X87681555Y-40460501D01*
X87686000Y-40505638D01*
X87686000Y-41244362D01*
X87681555Y-41289499D01*
X87670180Y-41326995D01*
X87651708Y-41361554D01*
X87626847Y-41391847D01*
X87596554Y-41416708D01*
X87561995Y-41435180D01*
X87524499Y-41446555D01*
X87479362Y-41451000D01*
X86840638Y-41451000D01*
X86795501Y-41446555D01*
X86758005Y-41435180D01*
X86723446Y-41416708D01*
X86693153Y-41391847D01*
X86668292Y-41361554D01*
X86649820Y-41326995D01*
X86638445Y-41289499D01*
X86634000Y-41244362D01*
X86634000Y-40505638D01*
X86638445Y-40460501D01*
X86649820Y-40423005D01*
X86668292Y-40388446D01*
X86693153Y-40358153D01*
X86723446Y-40333292D01*
X86758005Y-40314820D01*
X86795501Y-40303445D01*
X86840638Y-40299000D01*
X87479362Y-40299000D01*
X87524499Y-40303445D01*
G37*
G36*
X103904049Y-35801442D02*
G01*
X104196414Y-35890130D01*
X104196416Y-35890131D01*
X104465858Y-36034150D01*
X104702029Y-36227971D01*
X104895850Y-36464142D01*
X105039869Y-36733584D01*
X105039870Y-36733586D01*
X105128558Y-37025951D01*
X105151000Y-37253810D01*
X105151000Y-38406190D01*
X105128558Y-38634049D01*
X105039870Y-38926413D01*
X105039869Y-38926416D01*
X104895850Y-39195858D01*
X104789395Y-39325574D01*
X104702029Y-39432029D01*
X104501768Y-39596378D01*
X104465856Y-39625850D01*
X104196415Y-39769869D01*
X104196413Y-39769870D01*
X103904048Y-39858558D01*
X103600000Y-39888504D01*
X103295951Y-39858558D01*
X103003586Y-39769870D01*
X103003584Y-39769869D01*
X102734142Y-39625850D01*
X102604426Y-39519395D01*
X102497971Y-39432029D01*
X102304151Y-39195857D01*
X102160130Y-38926413D01*
X102071442Y-38634048D01*
X102049000Y-38406189D01*
X102049000Y-37253810D01*
X102071442Y-37025951D01*
X102160130Y-36733586D01*
X102304151Y-36464142D01*
X102497972Y-36227971D01*
X102734143Y-36034150D01*
X103003585Y-35890131D01*
X103003587Y-35890130D01*
X103295952Y-35801442D01*
X103600000Y-35771496D01*
X103904049Y-35801442D01*
G37*
G36*
X92704049Y-35801442D02*
G01*
X92996414Y-35890130D01*
X92996416Y-35890131D01*
X93265858Y-36034150D01*
X93502029Y-36227971D01*
X93695850Y-36464142D01*
X93839869Y-36733584D01*
X93839870Y-36733586D01*
X93928558Y-37025951D01*
X93951000Y-37253810D01*
X93951000Y-38406190D01*
X93928558Y-38634049D01*
X93839870Y-38926413D01*
X93839869Y-38926416D01*
X93695850Y-39195858D01*
X93589395Y-39325574D01*
X93502029Y-39432029D01*
X93301768Y-39596378D01*
X93265856Y-39625850D01*
X92996415Y-39769869D01*
X92996413Y-39769870D01*
X92704048Y-39858558D01*
X92400000Y-39888504D01*
X92095951Y-39858558D01*
X91803586Y-39769870D01*
X91803584Y-39769869D01*
X91534142Y-39625850D01*
X91404426Y-39519395D01*
X91297971Y-39432029D01*
X91104151Y-39195857D01*
X90960130Y-38926413D01*
X90871442Y-38634048D01*
X90849000Y-38406189D01*
X90849000Y-37253810D01*
X90871442Y-37025951D01*
X90960130Y-36733586D01*
X91104151Y-36464142D01*
X91297972Y-36227971D01*
X91534143Y-36034150D01*
X91803585Y-35890131D01*
X91803587Y-35890130D01*
X92095952Y-35801442D01*
X92400000Y-35771496D01*
X92704049Y-35801442D01*
G37*
G36*
X85189890Y-32844017D02*
G01*
X85308364Y-32893091D01*
X85414988Y-32964335D01*
X85505665Y-33055012D01*
X85576909Y-33161636D01*
X85625983Y-33280110D01*
X85651000Y-33405882D01*
X85651000Y-33534118D01*
X85625983Y-33659890D01*
X85576909Y-33778364D01*
X85505665Y-33884988D01*
X85414988Y-33975665D01*
X85308364Y-34046909D01*
X85308363Y-34046910D01*
X85308362Y-34046910D01*
X85189890Y-34095983D01*
X85064119Y-34121000D01*
X84935881Y-34121000D01*
X84810110Y-34095983D01*
X84691638Y-34046910D01*
X84691637Y-34046910D01*
X84691636Y-34046909D01*
X84585012Y-33975665D01*
X84494335Y-33884988D01*
X84423091Y-33778364D01*
X84374017Y-33659890D01*
X84349000Y-33534118D01*
X84349000Y-33405882D01*
X84374017Y-33280110D01*
X84423091Y-33161636D01*
X84494335Y-33055012D01*
X84585012Y-32964335D01*
X84691636Y-32893091D01*
X84810110Y-32844017D01*
X84935881Y-32819000D01*
X85064119Y-32819000D01*
X85189890Y-32844017D01*
G37*
G36*
X98306564Y-29319389D02*
G01*
X98497833Y-29398615D01*
X98497835Y-29398616D01*
X98669973Y-29513635D01*
X98816365Y-29660027D01*
X98917207Y-29810947D01*
X98931385Y-29832167D01*
X99010611Y-30023436D01*
X99051000Y-30226484D01*
X99051000Y-30433516D01*
X99010611Y-30636564D01*
X98931385Y-30827833D01*
X98931384Y-30827835D01*
X98816365Y-30999973D01*
X98669973Y-31146365D01*
X98497835Y-31261384D01*
X98497834Y-31261385D01*
X98497833Y-31261385D01*
X98306564Y-31340611D01*
X98103516Y-31381000D01*
X97896484Y-31381000D01*
X97693436Y-31340611D01*
X97502167Y-31261385D01*
X97502166Y-31261385D01*
X97502165Y-31261384D01*
X97330027Y-31146365D01*
X97183635Y-30999973D01*
X97068616Y-30827835D01*
X97068615Y-30827833D01*
X96989389Y-30636564D01*
X96949000Y-30433516D01*
X96949000Y-30226484D01*
X96989389Y-30023436D01*
X97068615Y-29832167D01*
X97082794Y-29810947D01*
X97183635Y-29660027D01*
X97330027Y-29513635D01*
X97502165Y-29398616D01*
X97502167Y-29398615D01*
X97693436Y-29319389D01*
X97896484Y-29279000D01*
X98103516Y-29279000D01*
X98306564Y-29319389D01*
G37*
G36*
X95806564Y-29319389D02*
G01*
X95997833Y-29398615D01*
X95997835Y-29398616D01*
X96169973Y-29513635D01*
X96316365Y-29660027D01*
X96417207Y-29810947D01*
X96431385Y-29832167D01*
X96510611Y-30023436D01*
X96551000Y-30226484D01*
X96551000Y-30433516D01*
X96510611Y-30636564D01*
X96431385Y-30827833D01*
X96431384Y-30827835D01*
X96316365Y-30999973D01*
X96169973Y-31146365D01*
X95997835Y-31261384D01*
X95997834Y-31261385D01*
X95997833Y-31261385D01*
X95806564Y-31340611D01*
X95603516Y-31381000D01*
X95396484Y-31381000D01*
X95193436Y-31340611D01*
X95002167Y-31261385D01*
X95002166Y-31261385D01*
X95002165Y-31261384D01*
X94830027Y-31146365D01*
X94683635Y-30999973D01*
X94568616Y-30827835D01*
X94568615Y-30827833D01*
X94489389Y-30636564D01*
X94449000Y-30433516D01*
X94449000Y-30226484D01*
X94489389Y-30023436D01*
X94568615Y-29832167D01*
X94582794Y-29810947D01*
X94683635Y-29660027D01*
X94830027Y-29513635D01*
X95002165Y-29398616D01*
X95002167Y-29398615D01*
X95193436Y-29319389D01*
X95396484Y-29279000D01*
X95603516Y-29279000D01*
X95806564Y-29319389D01*
G37*
G36*
X100806564Y-29319389D02*
G01*
X100997833Y-29398615D01*
X100997835Y-29398616D01*
X101169973Y-29513635D01*
X101316365Y-29660027D01*
X101417207Y-29810947D01*
X101431385Y-29832167D01*
X101510611Y-30023436D01*
X101551000Y-30226484D01*
X101551000Y-30433516D01*
X101510611Y-30636564D01*
X101431385Y-30827833D01*
X101431384Y-30827835D01*
X101316365Y-30999973D01*
X101169973Y-31146365D01*
X100997835Y-31261384D01*
X100997834Y-31261385D01*
X100997833Y-31261385D01*
X100806564Y-31340611D01*
X100603516Y-31381000D01*
X100396484Y-31381000D01*
X100193436Y-31340611D01*
X100002167Y-31261385D01*
X100002166Y-31261385D01*
X100002165Y-31261384D01*
X99830027Y-31146365D01*
X99683635Y-30999973D01*
X99568616Y-30827835D01*
X99568615Y-30827833D01*
X99489389Y-30636564D01*
X99449000Y-30433516D01*
X99449000Y-30226484D01*
X99489389Y-30023436D01*
X99568615Y-29832167D01*
X99582794Y-29810947D01*
X99683635Y-29660027D01*
X99830027Y-29513635D01*
X100002165Y-29398616D01*
X100002167Y-29398615D01*
X100193436Y-29319389D01*
X100396484Y-29279000D01*
X100603516Y-29279000D01*
X100806564Y-29319389D01*
G37*
G36*
X79614499Y-29468445D02*
G01*
X79651995Y-29479820D01*
X79686554Y-29498292D01*
X79716847Y-29523153D01*
X79741708Y-29553446D01*
X79760180Y-29588005D01*
X79771555Y-29625501D01*
X79776000Y-29670638D01*
X79776000Y-30409362D01*
X79771555Y-30454499D01*
X79760180Y-30491995D01*
X79741708Y-30526554D01*
X79716847Y-30556847D01*
X79686554Y-30581708D01*
X79651995Y-30600180D01*
X79614499Y-30611555D01*
X79569362Y-30616000D01*
X78930638Y-30616000D01*
X78885501Y-30611555D01*
X78848005Y-30600180D01*
X78813446Y-30581708D01*
X78783153Y-30556847D01*
X78758292Y-30526554D01*
X78739820Y-30491995D01*
X78728445Y-30454499D01*
X78724000Y-30409362D01*
X78724000Y-29670638D01*
X78728445Y-29625501D01*
X78739820Y-29588005D01*
X78758292Y-29553446D01*
X78783153Y-29523153D01*
X78813446Y-29498292D01*
X78848005Y-29479820D01*
X78885501Y-29468445D01*
X78930638Y-29464000D01*
X79569362Y-29464000D01*
X79614499Y-29468445D01*
G37*
G36*
X105784499Y-28768445D02*
G01*
X105821995Y-28779820D01*
X105856554Y-28798292D01*
X105886847Y-28823153D01*
X105911708Y-28853446D01*
X105930180Y-28888005D01*
X105941555Y-28925501D01*
X105946000Y-28970638D01*
X105946000Y-29609362D01*
X105941555Y-29654499D01*
X105930180Y-29691995D01*
X105911708Y-29726554D01*
X105886847Y-29756847D01*
X105856554Y-29781708D01*
X105821995Y-29800180D01*
X105784499Y-29811555D01*
X105739362Y-29816000D01*
X105000638Y-29816000D01*
X104955501Y-29811555D01*
X104918005Y-29800180D01*
X104883446Y-29781708D01*
X104853153Y-29756847D01*
X104828292Y-29726554D01*
X104809820Y-29691995D01*
X104798445Y-29654499D01*
X104794000Y-29609362D01*
X104794000Y-28970638D01*
X104798445Y-28925501D01*
X104809820Y-28888005D01*
X104828292Y-28853446D01*
X104853153Y-28823153D01*
X104883446Y-28798292D01*
X104918005Y-28779820D01*
X104955501Y-28768445D01*
X105000638Y-28764000D01*
X105739362Y-28764000D01*
X105784499Y-28768445D01*
G37*
G36*
X91534499Y-28768445D02*
G01*
X91571995Y-28779820D01*
X91606554Y-28798292D01*
X91636847Y-28823153D01*
X91661708Y-28853446D01*
X91680180Y-28888005D01*
X91691555Y-28925501D01*
X91696000Y-28970638D01*
X91696000Y-29609362D01*
X91691555Y-29654499D01*
X91680180Y-29691995D01*
X91661708Y-29726554D01*
X91636847Y-29756847D01*
X91606554Y-29781708D01*
X91571995Y-29800180D01*
X91534499Y-29811555D01*
X91489362Y-29816000D01*
X90750638Y-29816000D01*
X90705501Y-29811555D01*
X90668005Y-29800180D01*
X90633446Y-29781708D01*
X90603153Y-29756847D01*
X90578292Y-29726554D01*
X90559820Y-29691995D01*
X90548445Y-29654499D01*
X90544000Y-29609362D01*
X90544000Y-28970638D01*
X90548445Y-28925501D01*
X90559820Y-28888005D01*
X90578292Y-28853446D01*
X90603153Y-28823153D01*
X90633446Y-28798292D01*
X90668005Y-28779820D01*
X90705501Y-28768445D01*
X90750638Y-28764000D01*
X91489362Y-28764000D01*
X91534499Y-28768445D01*
G37*
G36*
X93284499Y-28768445D02*
G01*
X93321995Y-28779820D01*
X93356554Y-28798292D01*
X93386847Y-28823153D01*
X93411708Y-28853446D01*
X93430180Y-28888005D01*
X93441555Y-28925501D01*
X93446000Y-28970638D01*
X93446000Y-29609362D01*
X93441555Y-29654499D01*
X93430180Y-29691995D01*
X93411708Y-29726554D01*
X93386847Y-29756847D01*
X93356554Y-29781708D01*
X93321995Y-29800180D01*
X93284499Y-29811555D01*
X93239362Y-29816000D01*
X92500638Y-29816000D01*
X92455501Y-29811555D01*
X92418005Y-29800180D01*
X92383446Y-29781708D01*
X92353153Y-29756847D01*
X92328292Y-29726554D01*
X92309820Y-29691995D01*
X92298445Y-29654499D01*
X92294000Y-29609362D01*
X92294000Y-28970638D01*
X92298445Y-28925501D01*
X92309820Y-28888005D01*
X92328292Y-28853446D01*
X92353153Y-28823153D01*
X92383446Y-28798292D01*
X92418005Y-28779820D01*
X92455501Y-28768445D01*
X92500638Y-28764000D01*
X93239362Y-28764000D01*
X93284499Y-28768445D01*
G37*
G36*
X104034499Y-28768445D02*
G01*
X104071995Y-28779820D01*
X104106554Y-28798292D01*
X104136847Y-28823153D01*
X104161708Y-28853446D01*
X104180180Y-28888005D01*
X104191555Y-28925501D01*
X104196000Y-28970638D01*
X104196000Y-29609362D01*
X104191555Y-29654499D01*
X104180180Y-29691995D01*
X104161708Y-29726554D01*
X104136847Y-29756847D01*
X104106554Y-29781708D01*
X104071995Y-29800180D01*
X104034499Y-29811555D01*
X103989362Y-29816000D01*
X103250638Y-29816000D01*
X103205501Y-29811555D01*
X103168005Y-29800180D01*
X103133446Y-29781708D01*
X103103153Y-29756847D01*
X103078292Y-29726554D01*
X103059820Y-29691995D01*
X103048445Y-29654499D01*
X103044000Y-29609362D01*
X103044000Y-28970638D01*
X103048445Y-28925501D01*
X103059820Y-28888005D01*
X103078292Y-28853446D01*
X103103153Y-28823153D01*
X103133446Y-28798292D01*
X103168005Y-28779820D01*
X103205501Y-28768445D01*
X103250638Y-28764000D01*
X103989362Y-28764000D01*
X104034499Y-28768445D01*
G37*
G36*
X79614499Y-27718445D02*
G01*
X79651995Y-27729820D01*
X79686554Y-27748292D01*
X79716847Y-27773153D01*
X79741708Y-27803446D01*
X79760180Y-27838005D01*
X79771555Y-27875501D01*
X79776000Y-27920638D01*
X79776000Y-28659362D01*
X79771555Y-28704499D01*
X79760180Y-28741995D01*
X79741708Y-28776554D01*
X79716847Y-28806847D01*
X79686554Y-28831708D01*
X79651995Y-28850180D01*
X79614499Y-28861555D01*
X79569362Y-28866000D01*
X78930638Y-28866000D01*
X78885501Y-28861555D01*
X78848005Y-28850180D01*
X78813446Y-28831708D01*
X78783153Y-28806847D01*
X78758292Y-28776554D01*
X78739820Y-28741995D01*
X78728445Y-28704499D01*
X78724000Y-28659362D01*
X78724000Y-27920638D01*
X78728445Y-27875501D01*
X78739820Y-27838005D01*
X78758292Y-27803446D01*
X78783153Y-27773153D01*
X78813446Y-27748292D01*
X78848005Y-27729820D01*
X78885501Y-27718445D01*
X78930638Y-27714000D01*
X79569362Y-27714000D01*
X79614499Y-27718445D01*
G37*
G36*
X91534499Y-27128445D02*
G01*
X91571995Y-27139820D01*
X91606554Y-27158292D01*
X91636847Y-27183153D01*
X91661708Y-27213446D01*
X91680180Y-27248005D01*
X91691555Y-27285501D01*
X91696000Y-27330638D01*
X91696000Y-27969362D01*
X91691555Y-28014499D01*
X91680180Y-28051995D01*
X91661708Y-28086554D01*
X91636847Y-28116847D01*
X91606554Y-28141708D01*
X91571995Y-28160180D01*
X91534499Y-28171555D01*
X91489362Y-28176000D01*
X90750638Y-28176000D01*
X90705501Y-28171555D01*
X90668005Y-28160180D01*
X90633446Y-28141708D01*
X90603153Y-28116847D01*
X90578292Y-28086554D01*
X90559820Y-28051995D01*
X90548445Y-28014499D01*
X90544000Y-27969362D01*
X90544000Y-27330638D01*
X90548445Y-27285501D01*
X90559820Y-27248005D01*
X90578292Y-27213446D01*
X90603153Y-27183153D01*
X90633446Y-27158292D01*
X90668005Y-27139820D01*
X90705501Y-27128445D01*
X90750638Y-27124000D01*
X91489362Y-27124000D01*
X91534499Y-27128445D01*
G37*
G36*
X93284499Y-27128445D02*
G01*
X93321995Y-27139820D01*
X93356554Y-27158292D01*
X93386847Y-27183153D01*
X93411708Y-27213446D01*
X93430180Y-27248005D01*
X93441555Y-27285501D01*
X93446000Y-27330638D01*
X93446000Y-27969362D01*
X93441555Y-28014499D01*
X93430180Y-28051995D01*
X93411708Y-28086554D01*
X93386847Y-28116847D01*
X93356554Y-28141708D01*
X93321995Y-28160180D01*
X93284499Y-28171555D01*
X93239362Y-28176000D01*
X92500638Y-28176000D01*
X92455501Y-28171555D01*
X92418005Y-28160180D01*
X92383446Y-28141708D01*
X92353153Y-28116847D01*
X92328292Y-28086554D01*
X92309820Y-28051995D01*
X92298445Y-28014499D01*
X92294000Y-27969362D01*
X92294000Y-27330638D01*
X92298445Y-27285501D01*
X92309820Y-27248005D01*
X92328292Y-27213446D01*
X92353153Y-27183153D01*
X92383446Y-27158292D01*
X92418005Y-27139820D01*
X92455501Y-27128445D01*
X92500638Y-27124000D01*
X93239362Y-27124000D01*
X93284499Y-27128445D01*
G37*
G36*
X104034499Y-27078445D02*
G01*
X104071995Y-27089820D01*
X104106554Y-27108292D01*
X104136847Y-27133153D01*
X104161708Y-27163446D01*
X104180180Y-27198005D01*
X104191555Y-27235501D01*
X104196000Y-27280638D01*
X104196000Y-27919362D01*
X104191555Y-27964499D01*
X104180180Y-28001995D01*
X104161708Y-28036554D01*
X104136847Y-28066847D01*
X104106554Y-28091708D01*
X104071995Y-28110180D01*
X104034499Y-28121555D01*
X103989362Y-28126000D01*
X103250638Y-28126000D01*
X103205501Y-28121555D01*
X103168005Y-28110180D01*
X103133446Y-28091708D01*
X103103153Y-28066847D01*
X103078292Y-28036554D01*
X103059820Y-28001995D01*
X103048445Y-27964499D01*
X103044000Y-27919362D01*
X103044000Y-27280638D01*
X103048445Y-27235501D01*
X103059820Y-27198005D01*
X103078292Y-27163446D01*
X103103153Y-27133153D01*
X103133446Y-27108292D01*
X103168005Y-27089820D01*
X103205501Y-27078445D01*
X103250638Y-27074000D01*
X103989362Y-27074000D01*
X104034499Y-27078445D01*
G37*
G36*
X105784499Y-27078445D02*
G01*
X105821995Y-27089820D01*
X105856554Y-27108292D01*
X105886847Y-27133153D01*
X105911708Y-27163446D01*
X105930180Y-27198005D01*
X105941555Y-27235501D01*
X105946000Y-27280638D01*
X105946000Y-27919362D01*
X105941555Y-27964499D01*
X105930180Y-28001995D01*
X105911708Y-28036554D01*
X105886847Y-28066847D01*
X105856554Y-28091708D01*
X105821995Y-28110180D01*
X105784499Y-28121555D01*
X105739362Y-28126000D01*
X105000638Y-28126000D01*
X104955501Y-28121555D01*
X104918005Y-28110180D01*
X104883446Y-28091708D01*
X104853153Y-28066847D01*
X104828292Y-28036554D01*
X104809820Y-28001995D01*
X104798445Y-27964499D01*
X104794000Y-27919362D01*
X104794000Y-27280638D01*
X104798445Y-27235501D01*
X104809820Y-27198005D01*
X104828292Y-27163446D01*
X104853153Y-27133153D01*
X104883446Y-27108292D01*
X104918005Y-27089820D01*
X104955501Y-27078445D01*
X105000638Y-27074000D01*
X105739362Y-27074000D01*
X105784499Y-27078445D01*
G37*
G36*
X85189890Y-25844017D02*
G01*
X85305912Y-25892075D01*
X85308364Y-25893091D01*
X85414988Y-25964335D01*
X85505665Y-26055012D01*
X85576909Y-26161636D01*
X85625983Y-26280110D01*
X85651000Y-26405882D01*
X85651000Y-26534118D01*
X85625983Y-26659890D01*
X85576909Y-26778364D01*
X85505665Y-26884988D01*
X85414988Y-26975665D01*
X85308364Y-27046909D01*
X85308363Y-27046910D01*
X85308362Y-27046910D01*
X85189890Y-27095983D01*
X85064119Y-27121000D01*
X84935881Y-27121000D01*
X84810110Y-27095983D01*
X84691638Y-27046910D01*
X84691637Y-27046910D01*
X84691636Y-27046909D01*
X84585012Y-26975665D01*
X84494335Y-26884988D01*
X84423091Y-26778364D01*
X84374017Y-26659890D01*
X84349000Y-26534118D01*
X84349000Y-26405882D01*
X84374017Y-26280110D01*
X84423091Y-26161636D01*
X84494335Y-26055012D01*
X84585012Y-25964335D01*
X84691636Y-25893091D01*
X84694089Y-25892075D01*
X84810110Y-25844017D01*
X84935881Y-25819000D01*
X85064119Y-25819000D01*
X85189890Y-25844017D01*
G37*
G36*
X51727142Y-25030242D02*
G01*
X51875101Y-25091529D01*
X52008255Y-25180499D01*
X52121501Y-25293745D01*
X52210471Y-25426899D01*
X52271758Y-25574858D01*
X52303000Y-25731925D01*
X52303000Y-25892075D01*
X52271758Y-26049142D01*
X52210471Y-26197101D01*
X52121501Y-26330255D01*
X52008255Y-26443501D01*
X51875101Y-26532471D01*
X51727142Y-26593758D01*
X51570075Y-26625000D01*
X51409925Y-26625000D01*
X51252858Y-26593758D01*
X51104899Y-26532471D01*
X50971745Y-26443501D01*
X50858499Y-26330255D01*
X50769529Y-26197101D01*
X50708242Y-26049142D01*
X50677000Y-25892075D01*
X50677000Y-25731925D01*
X50708242Y-25574858D01*
X50769529Y-25426899D01*
X50858499Y-25293745D01*
X50971745Y-25180499D01*
X51104899Y-25091529D01*
X51252858Y-25030242D01*
X51409925Y-24999000D01*
X51570075Y-24999000D01*
X51727142Y-25030242D01*
G37*
G36*
X36487142Y-25030242D02*
G01*
X36635101Y-25091529D01*
X36768255Y-25180499D01*
X36881501Y-25293745D01*
X36970471Y-25426899D01*
X37031758Y-25574858D01*
X37063000Y-25731925D01*
X37063000Y-25892075D01*
X37031758Y-26049142D01*
X36970471Y-26197101D01*
X36881501Y-26330255D01*
X36768255Y-26443501D01*
X36635101Y-26532471D01*
X36487142Y-26593758D01*
X36330075Y-26625000D01*
X36169925Y-26625000D01*
X36012858Y-26593758D01*
X35864899Y-26532471D01*
X35731745Y-26443501D01*
X35618499Y-26330255D01*
X35529529Y-26197101D01*
X35468242Y-26049142D01*
X35437000Y-25892075D01*
X35437000Y-25731925D01*
X35468242Y-25574858D01*
X35529529Y-25426899D01*
X35618499Y-25293745D01*
X35731745Y-25180499D01*
X35864899Y-25091529D01*
X36012858Y-25030242D01*
X36169925Y-24999000D01*
X36330075Y-24999000D01*
X36487142Y-25030242D01*
G37*
M02*
