G04 #@! TF.GenerationSoftware,KiCad,Pcbnew,(5.1.5)-3*
G04 #@! TF.CreationDate,2020-10-10T23:35:22+09:00*
G04 #@! TF.ProjectId,Pistachio_MacroPad,50697374-6163-4686-996f-5f4d6163726f,rev?*
G04 #@! TF.SameCoordinates,Original*
G04 #@! TF.FileFunction,Legend,Bot*
G04 #@! TF.FilePolarity,Positive*
%FSLAX46Y46*%
G04 Gerber Fmt 4.6, Leading zero omitted, Abs format (unit mm)*
G04 Created by KiCad (PCBNEW (5.1.5)-3) date 2020-10-10 23:35:22*
%MOMM*%
%LPD*%
G04 APERTURE LIST*
%ADD10C,0.150000*%
%ADD11C,0.120000*%
%ADD12C,0.125000*%
G04 APERTURE END LIST*
D10*
X35770000Y-130465000D02*
X44660000Y-130465000D01*
X35770000Y-130084000D02*
X35770000Y-130465000D01*
X35770000Y-126020000D02*
X35770000Y-127036000D01*
X40850000Y-126020000D02*
X35770000Y-126020000D01*
X45041000Y-124115000D02*
X43390000Y-124115000D01*
X47200000Y-124115000D02*
X46819000Y-124115000D01*
X47200000Y-124496000D02*
X47200000Y-124115000D01*
X47200000Y-127925000D02*
X47200000Y-127544000D01*
X43314162Y-124096040D02*
G75*
G02X40850000Y-126020000I-2464162J616040D01*
G01*
X47200000Y-127925000D02*
G75*
G02X44660000Y-130465000I-2540000J0D01*
G01*
D11*
X91823733Y-28160000D02*
X92166267Y-28160000D01*
X91823733Y-27140000D02*
X92166267Y-27140000D01*
X104666267Y-28110000D02*
X104323733Y-28110000D01*
X104666267Y-27090000D02*
X104323733Y-27090000D01*
X106240000Y-58820000D02*
X106240000Y-61820000D01*
X110740000Y-61820000D02*
X110740000Y-58820000D01*
X110740000Y-58820000D02*
X110740000Y-58320000D01*
X110740000Y-58320000D02*
X106240000Y-58320000D01*
X106240000Y-58320000D02*
X106240000Y-58820000D01*
X106240000Y-58820000D02*
X106240000Y-64320000D01*
X106240000Y-64320000D02*
X110740000Y-64320000D01*
X110740000Y-64320000D02*
X110740000Y-61820000D01*
X91823733Y-29800000D02*
X92166267Y-29800000D01*
X91823733Y-28780000D02*
X92166267Y-28780000D01*
X104666267Y-29800000D02*
X104323733Y-29800000D01*
X104666267Y-28780000D02*
X104323733Y-28780000D01*
X78740000Y-28993733D02*
X78740000Y-29336267D01*
X79760000Y-28993733D02*
X79760000Y-29336267D01*
X87670000Y-41578733D02*
X87670000Y-41921267D01*
X86650000Y-41578733D02*
X86650000Y-41921267D01*
D10*
X35770000Y-73315000D02*
X44660000Y-73315000D01*
X35770000Y-72934000D02*
X35770000Y-73315000D01*
X35770000Y-68870000D02*
X35770000Y-69886000D01*
X40850000Y-68870000D02*
X35770000Y-68870000D01*
X45041000Y-66965000D02*
X43390000Y-66965000D01*
X47200000Y-66965000D02*
X46819000Y-66965000D01*
X47200000Y-67346000D02*
X47200000Y-66965000D01*
X47200000Y-70775000D02*
X47200000Y-70394000D01*
X43314162Y-66946040D02*
G75*
G02X40850000Y-68870000I-2464162J616040D01*
G01*
X47200000Y-70775000D02*
G75*
G02X44660000Y-73315000I-2540000J0D01*
G01*
X66250000Y-70775000D02*
G75*
G02X63710000Y-73315000I-2540000J0D01*
G01*
X62364162Y-66946040D02*
G75*
G02X59900000Y-68870000I-2464162J616040D01*
G01*
X66250000Y-70775000D02*
X66250000Y-70394000D01*
X66250000Y-67346000D02*
X66250000Y-66965000D01*
X66250000Y-66965000D02*
X65869000Y-66965000D01*
X64091000Y-66965000D02*
X62440000Y-66965000D01*
X59900000Y-68870000D02*
X54820000Y-68870000D01*
X54820000Y-68870000D02*
X54820000Y-69886000D01*
X54820000Y-72934000D02*
X54820000Y-73315000D01*
X54820000Y-73315000D02*
X63710000Y-73315000D01*
X73870000Y-73315000D02*
X82760000Y-73315000D01*
X73870000Y-72934000D02*
X73870000Y-73315000D01*
X73870000Y-68870000D02*
X73870000Y-69886000D01*
X78950000Y-68870000D02*
X73870000Y-68870000D01*
X83141000Y-66965000D02*
X81490000Y-66965000D01*
X85300000Y-66965000D02*
X84919000Y-66965000D01*
X85300000Y-67346000D02*
X85300000Y-66965000D01*
X85300000Y-70775000D02*
X85300000Y-70394000D01*
X81414162Y-66946040D02*
G75*
G02X78950000Y-68870000I-2464162J616040D01*
G01*
X85300000Y-70775000D02*
G75*
G02X82760000Y-73315000I-2540000J0D01*
G01*
X92920000Y-73315000D02*
X101810000Y-73315000D01*
X92920000Y-72934000D02*
X92920000Y-73315000D01*
X92920000Y-68870000D02*
X92920000Y-69886000D01*
X98000000Y-68870000D02*
X92920000Y-68870000D01*
X102191000Y-66965000D02*
X100540000Y-66965000D01*
X104350000Y-66965000D02*
X103969000Y-66965000D01*
X104350000Y-67346000D02*
X104350000Y-66965000D01*
X104350000Y-70775000D02*
X104350000Y-70394000D01*
X100464162Y-66946040D02*
G75*
G02X98000000Y-68870000I-2464162J616040D01*
G01*
X104350000Y-70775000D02*
G75*
G02X101810000Y-73315000I-2540000J0D01*
G01*
X47200000Y-89825000D02*
G75*
G02X44660000Y-92365000I-2540000J0D01*
G01*
X43314162Y-85996040D02*
G75*
G02X40850000Y-87920000I-2464162J616040D01*
G01*
X47200000Y-89825000D02*
X47200000Y-89444000D01*
X47200000Y-86396000D02*
X47200000Y-86015000D01*
X47200000Y-86015000D02*
X46819000Y-86015000D01*
X45041000Y-86015000D02*
X43390000Y-86015000D01*
X40850000Y-87920000D02*
X35770000Y-87920000D01*
X35770000Y-87920000D02*
X35770000Y-88936000D01*
X35770000Y-91984000D02*
X35770000Y-92365000D01*
X35770000Y-92365000D02*
X44660000Y-92365000D01*
X54820000Y-92365000D02*
X63710000Y-92365000D01*
X54820000Y-91984000D02*
X54820000Y-92365000D01*
X54820000Y-87920000D02*
X54820000Y-88936000D01*
X59900000Y-87920000D02*
X54820000Y-87920000D01*
X64091000Y-86015000D02*
X62440000Y-86015000D01*
X66250000Y-86015000D02*
X65869000Y-86015000D01*
X66250000Y-86396000D02*
X66250000Y-86015000D01*
X66250000Y-89825000D02*
X66250000Y-89444000D01*
X62364162Y-85996040D02*
G75*
G02X59900000Y-87920000I-2464162J616040D01*
G01*
X66250000Y-89825000D02*
G75*
G02X63710000Y-92365000I-2540000J0D01*
G01*
X85300000Y-89825000D02*
G75*
G02X82760000Y-92365000I-2540000J0D01*
G01*
X81414162Y-85996040D02*
G75*
G02X78950000Y-87920000I-2464162J616040D01*
G01*
X85300000Y-89825000D02*
X85300000Y-89444000D01*
X85300000Y-86396000D02*
X85300000Y-86015000D01*
X85300000Y-86015000D02*
X84919000Y-86015000D01*
X83141000Y-86015000D02*
X81490000Y-86015000D01*
X78950000Y-87920000D02*
X73870000Y-87920000D01*
X73870000Y-87920000D02*
X73870000Y-88936000D01*
X73870000Y-91984000D02*
X73870000Y-92365000D01*
X73870000Y-92365000D02*
X82760000Y-92365000D01*
X47200000Y-108875000D02*
G75*
G02X44660000Y-111415000I-2540000J0D01*
G01*
X43314162Y-105046040D02*
G75*
G02X40850000Y-106970000I-2464162J616040D01*
G01*
X47200000Y-108875000D02*
X47200000Y-108494000D01*
X47200000Y-105446000D02*
X47200000Y-105065000D01*
X47200000Y-105065000D02*
X46819000Y-105065000D01*
X45041000Y-105065000D02*
X43390000Y-105065000D01*
X40850000Y-106970000D02*
X35770000Y-106970000D01*
X35770000Y-106970000D02*
X35770000Y-107986000D01*
X35770000Y-111034000D02*
X35770000Y-111415000D01*
X35770000Y-111415000D02*
X44660000Y-111415000D01*
X66250000Y-108875000D02*
G75*
G02X63710000Y-111415000I-2540000J0D01*
G01*
X62364162Y-105046040D02*
G75*
G02X59900000Y-106970000I-2464162J616040D01*
G01*
X66250000Y-108875000D02*
X66250000Y-108494000D01*
X66250000Y-105446000D02*
X66250000Y-105065000D01*
X66250000Y-105065000D02*
X65869000Y-105065000D01*
X64091000Y-105065000D02*
X62440000Y-105065000D01*
X59900000Y-106970000D02*
X54820000Y-106970000D01*
X54820000Y-106970000D02*
X54820000Y-107986000D01*
X54820000Y-111034000D02*
X54820000Y-111415000D01*
X54820000Y-111415000D02*
X63710000Y-111415000D01*
X73870000Y-111415000D02*
X82760000Y-111415000D01*
X73870000Y-111034000D02*
X73870000Y-111415000D01*
X73870000Y-106970000D02*
X73870000Y-107986000D01*
X78950000Y-106970000D02*
X73870000Y-106970000D01*
X83141000Y-105065000D02*
X81490000Y-105065000D01*
X85300000Y-105065000D02*
X84919000Y-105065000D01*
X85300000Y-105446000D02*
X85300000Y-105065000D01*
X85300000Y-108875000D02*
X85300000Y-108494000D01*
X81414162Y-105046040D02*
G75*
G02X78950000Y-106970000I-2464162J616040D01*
G01*
X85300000Y-108875000D02*
G75*
G02X82760000Y-111415000I-2540000J0D01*
G01*
X92920000Y-101885000D02*
X101810000Y-101885000D01*
X92920000Y-101504000D02*
X92920000Y-101885000D01*
X92920000Y-97440000D02*
X92920000Y-98456000D01*
X98000000Y-97440000D02*
X92920000Y-97440000D01*
X102191000Y-95535000D02*
X100540000Y-95535000D01*
X104350000Y-95535000D02*
X103969000Y-95535000D01*
X104350000Y-95916000D02*
X104350000Y-95535000D01*
X104350000Y-99345000D02*
X104350000Y-98964000D01*
X100464162Y-95516040D02*
G75*
G02X98000000Y-97440000I-2464162J616040D01*
G01*
X104350000Y-99345000D02*
G75*
G02X101810000Y-101885000I-2540000J0D01*
G01*
X66250000Y-127925000D02*
G75*
G02X63710000Y-130465000I-2540000J0D01*
G01*
X62364162Y-124096040D02*
G75*
G02X59900000Y-126020000I-2464162J616040D01*
G01*
X66250000Y-127925000D02*
X66250000Y-127544000D01*
X66250000Y-124496000D02*
X66250000Y-124115000D01*
X66250000Y-124115000D02*
X65869000Y-124115000D01*
X64091000Y-124115000D02*
X62440000Y-124115000D01*
X59900000Y-126020000D02*
X54820000Y-126020000D01*
X54820000Y-126020000D02*
X54820000Y-127036000D01*
X54820000Y-130084000D02*
X54820000Y-130465000D01*
X54820000Y-130465000D02*
X63710000Y-130465000D01*
X73870000Y-130465000D02*
X82760000Y-130465000D01*
X73870000Y-130084000D02*
X73870000Y-130465000D01*
X73870000Y-126020000D02*
X73870000Y-127036000D01*
X78950000Y-126020000D02*
X73870000Y-126020000D01*
X83141000Y-124115000D02*
X81490000Y-124115000D01*
X85300000Y-124115000D02*
X84919000Y-124115000D01*
X85300000Y-124496000D02*
X85300000Y-124115000D01*
X85300000Y-127925000D02*
X85300000Y-127544000D01*
X81414162Y-124096040D02*
G75*
G02X78950000Y-126020000I-2464162J616040D01*
G01*
X85300000Y-127925000D02*
G75*
G02X82760000Y-130465000I-2540000J0D01*
G01*
X56720000Y-146975000D02*
G75*
G02X54180000Y-149515000I-2540000J0D01*
G01*
X52834162Y-143146040D02*
G75*
G02X50370000Y-145070000I-2464162J616040D01*
G01*
X56720000Y-146975000D02*
X56720000Y-146594000D01*
X56720000Y-143546000D02*
X56720000Y-143165000D01*
X56720000Y-143165000D02*
X56339000Y-143165000D01*
X54561000Y-143165000D02*
X52910000Y-143165000D01*
X50370000Y-145070000D02*
X45290000Y-145070000D01*
X45290000Y-145070000D02*
X45290000Y-146086000D01*
X45290000Y-149134000D02*
X45290000Y-149515000D01*
X45290000Y-149515000D02*
X54180000Y-149515000D01*
X73870000Y-149515000D02*
X82760000Y-149515000D01*
X73870000Y-149134000D02*
X73870000Y-149515000D01*
X73870000Y-145070000D02*
X73870000Y-146086000D01*
X78950000Y-145070000D02*
X73870000Y-145070000D01*
X83141000Y-143165000D02*
X81490000Y-143165000D01*
X85300000Y-143165000D02*
X84919000Y-143165000D01*
X85300000Y-143546000D02*
X85300000Y-143165000D01*
X85300000Y-146975000D02*
X85300000Y-146594000D01*
X81414162Y-143146040D02*
G75*
G02X78950000Y-145070000I-2464162J616040D01*
G01*
X85300000Y-146975000D02*
G75*
G02X82760000Y-149515000I-2540000J0D01*
G01*
X104350000Y-137455000D02*
G75*
G02X101810000Y-139995000I-2540000J0D01*
G01*
X100464162Y-133626040D02*
G75*
G02X98000000Y-135550000I-2464162J616040D01*
G01*
X104350000Y-137455000D02*
X104350000Y-137074000D01*
X104350000Y-134026000D02*
X104350000Y-133645000D01*
X104350000Y-133645000D02*
X103969000Y-133645000D01*
X102191000Y-133645000D02*
X100540000Y-133645000D01*
X98000000Y-135550000D02*
X92920000Y-135550000D01*
X92920000Y-135550000D02*
X92920000Y-136566000D01*
X92920000Y-139614000D02*
X92920000Y-139995000D01*
X92920000Y-139995000D02*
X101810000Y-139995000D01*
X44020000Y-22430000D02*
X43720000Y-22430000D01*
X44120000Y-22280000D02*
X43620000Y-22280000D01*
X44220000Y-22130000D02*
X43520000Y-22130000D01*
X43870000Y-22630000D02*
X44370000Y-21980000D01*
X43370000Y-21980000D02*
X43870000Y-22630000D01*
X44370000Y-21980000D02*
X43370000Y-21980000D01*
X40120000Y-21630000D02*
X47620000Y-21630000D01*
X40120000Y-22930000D02*
X40120000Y-21630000D01*
X47620000Y-22930000D02*
X40120000Y-22930000D01*
X47620000Y-21630000D02*
X47620000Y-22930000D01*
X52770000Y-24530000D02*
X52770000Y-25530000D01*
X34970000Y-24530000D02*
X34970000Y-25530000D01*
X52770000Y-24530000D02*
X51770000Y-24530000D01*
X34970000Y-24530000D02*
X35920000Y-24530000D01*
X52770000Y-56530000D02*
X52770000Y-57580000D01*
X34970000Y-56580000D02*
X34970000Y-57580000D01*
X52770000Y-57580000D02*
X51770000Y-57580000D01*
X34970000Y-57580000D02*
X35980000Y-57580000D01*
X88000000Y-24970000D02*
X82000000Y-24970000D01*
X82000000Y-24970000D02*
X82000000Y-36970000D01*
X82000000Y-36970000D02*
X88000000Y-36970000D01*
X88000000Y-36970000D02*
X88000000Y-24970000D01*
X109830000Y-48480000D02*
X109830000Y-54480000D01*
X109830000Y-54480000D02*
X109580000Y-54480000D01*
X109830000Y-48480000D02*
X109580000Y-48480000D01*
X106330000Y-48480000D02*
X106580000Y-48480000D01*
X106330000Y-48480000D02*
X106330000Y-54480000D01*
X106330000Y-54480000D02*
X106580000Y-54480000D01*
X49600000Y-74450000D02*
X50600000Y-74450000D01*
X50100000Y-74550000D02*
X49600000Y-75450000D01*
X50600000Y-75450000D02*
X50100000Y-74550000D01*
X49600000Y-75450000D02*
X50600000Y-75450000D01*
X49350000Y-77650000D02*
X50850000Y-77650000D01*
X49350000Y-72250000D02*
X50850000Y-72250000D01*
X49350000Y-77650000D02*
X49350000Y-72250000D01*
X50850000Y-72250000D02*
X50850000Y-77650000D01*
X69160000Y-72230000D02*
X69160000Y-77630000D01*
X67660000Y-77630000D02*
X67660000Y-72230000D01*
X67660000Y-72230000D02*
X69160000Y-72230000D01*
X67660000Y-77630000D02*
X69160000Y-77630000D01*
X67910000Y-75430000D02*
X68910000Y-75430000D01*
X68910000Y-75430000D02*
X68410000Y-74530000D01*
X68410000Y-74530000D02*
X67910000Y-75430000D01*
X67910000Y-74430000D02*
X68910000Y-74430000D01*
X87390000Y-74445000D02*
X88390000Y-74445000D01*
X87890000Y-74545000D02*
X87390000Y-75445000D01*
X88390000Y-75445000D02*
X87890000Y-74545000D01*
X87390000Y-75445000D02*
X88390000Y-75445000D01*
X87140000Y-77645000D02*
X88640000Y-77645000D01*
X87140000Y-72245000D02*
X88640000Y-72245000D01*
X87140000Y-77645000D02*
X87140000Y-72245000D01*
X88640000Y-72245000D02*
X88640000Y-77645000D01*
X107380000Y-72220000D02*
X107380000Y-77620000D01*
X105880000Y-77620000D02*
X105880000Y-72220000D01*
X105880000Y-72220000D02*
X107380000Y-72220000D01*
X105880000Y-77620000D02*
X107380000Y-77620000D01*
X106130000Y-75420000D02*
X107130000Y-75420000D01*
X107130000Y-75420000D02*
X106630000Y-74520000D01*
X106630000Y-74520000D02*
X106130000Y-75420000D01*
X106130000Y-74420000D02*
X107130000Y-74420000D01*
X49210000Y-93190000D02*
X50210000Y-93190000D01*
X49710000Y-93290000D02*
X49210000Y-94190000D01*
X50210000Y-94190000D02*
X49710000Y-93290000D01*
X49210000Y-94190000D02*
X50210000Y-94190000D01*
X48960000Y-96390000D02*
X50460000Y-96390000D01*
X48960000Y-90990000D02*
X50460000Y-90990000D01*
X48960000Y-96390000D02*
X48960000Y-90990000D01*
X50460000Y-90990000D02*
X50460000Y-96390000D01*
X69700000Y-91040000D02*
X69700000Y-96440000D01*
X68200000Y-96440000D02*
X68200000Y-91040000D01*
X68200000Y-91040000D02*
X69700000Y-91040000D01*
X68200000Y-96440000D02*
X69700000Y-96440000D01*
X68450000Y-94240000D02*
X69450000Y-94240000D01*
X69450000Y-94240000D02*
X68950000Y-93340000D01*
X68950000Y-93340000D02*
X68450000Y-94240000D01*
X68450000Y-93240000D02*
X69450000Y-93240000D01*
X87670000Y-93240000D02*
X88670000Y-93240000D01*
X88170000Y-93340000D02*
X87670000Y-94240000D01*
X88670000Y-94240000D02*
X88170000Y-93340000D01*
X87670000Y-94240000D02*
X88670000Y-94240000D01*
X87420000Y-96440000D02*
X88920000Y-96440000D01*
X87420000Y-91040000D02*
X88920000Y-91040000D01*
X87420000Y-96440000D02*
X87420000Y-91040000D01*
X88920000Y-91040000D02*
X88920000Y-96440000D01*
X100030000Y-50085000D02*
X101030000Y-50085000D01*
X100530000Y-50185000D02*
X100030000Y-51085000D01*
X101030000Y-51085000D02*
X100530000Y-50185000D01*
X100030000Y-51085000D02*
X101030000Y-51085000D01*
X99780000Y-53285000D02*
X101280000Y-53285000D01*
X99780000Y-47885000D02*
X101280000Y-47885000D01*
X99780000Y-53285000D02*
X99780000Y-47885000D01*
X101280000Y-47885000D02*
X101280000Y-53285000D01*
X49390000Y-112470000D02*
X50390000Y-112470000D01*
X49890000Y-112570000D02*
X49390000Y-113470000D01*
X50390000Y-113470000D02*
X49890000Y-112570000D01*
X49390000Y-113470000D02*
X50390000Y-113470000D01*
X49140000Y-115670000D02*
X50640000Y-115670000D01*
X49140000Y-110270000D02*
X50640000Y-110270000D01*
X49140000Y-115670000D02*
X49140000Y-110270000D01*
X50640000Y-110270000D02*
X50640000Y-115670000D01*
X69420000Y-110395000D02*
X69420000Y-115795000D01*
X67920000Y-115795000D02*
X67920000Y-110395000D01*
X67920000Y-110395000D02*
X69420000Y-110395000D01*
X67920000Y-115795000D02*
X69420000Y-115795000D01*
X68170000Y-113595000D02*
X69170000Y-113595000D01*
X69170000Y-113595000D02*
X68670000Y-112695000D01*
X68670000Y-112695000D02*
X68170000Y-113595000D01*
X68170000Y-112595000D02*
X69170000Y-112595000D01*
X87660000Y-112510000D02*
X88660000Y-112510000D01*
X88160000Y-112610000D02*
X87660000Y-113510000D01*
X88660000Y-113510000D02*
X88160000Y-112610000D01*
X87660000Y-113510000D02*
X88660000Y-113510000D01*
X87410000Y-115710000D02*
X88910000Y-115710000D01*
X87410000Y-110310000D02*
X88910000Y-110310000D01*
X87410000Y-115710000D02*
X87410000Y-110310000D01*
X88910000Y-110310000D02*
X88910000Y-115710000D01*
X110480000Y-92600000D02*
X110480000Y-98000000D01*
X108980000Y-98000000D02*
X108980000Y-92600000D01*
X108980000Y-92600000D02*
X110480000Y-92600000D01*
X108980000Y-98000000D02*
X110480000Y-98000000D01*
X109230000Y-95800000D02*
X110230000Y-95800000D01*
X110230000Y-95800000D02*
X109730000Y-94900000D01*
X109730000Y-94900000D02*
X109230000Y-95800000D01*
X109230000Y-94800000D02*
X110230000Y-94800000D01*
X49300000Y-131690000D02*
X50300000Y-131690000D01*
X49800000Y-131790000D02*
X49300000Y-132690000D01*
X50300000Y-132690000D02*
X49800000Y-131790000D01*
X49300000Y-132690000D02*
X50300000Y-132690000D01*
X49050000Y-134890000D02*
X50550000Y-134890000D01*
X49050000Y-129490000D02*
X50550000Y-129490000D01*
X49050000Y-134890000D02*
X49050000Y-129490000D01*
X50550000Y-129490000D02*
X50550000Y-134890000D01*
X69920000Y-129430000D02*
X69920000Y-134830000D01*
X68420000Y-134830000D02*
X68420000Y-129430000D01*
X68420000Y-129430000D02*
X69920000Y-129430000D01*
X68420000Y-134830000D02*
X69920000Y-134830000D01*
X68670000Y-132630000D02*
X69670000Y-132630000D01*
X69670000Y-132630000D02*
X69170000Y-131730000D01*
X69170000Y-131730000D02*
X68670000Y-132630000D01*
X68670000Y-131630000D02*
X69670000Y-131630000D01*
X88950000Y-129460000D02*
X88950000Y-134860000D01*
X87450000Y-134860000D02*
X87450000Y-129460000D01*
X87450000Y-129460000D02*
X88950000Y-129460000D01*
X87450000Y-134860000D02*
X88950000Y-134860000D01*
X87700000Y-132660000D02*
X88700000Y-132660000D01*
X88700000Y-132660000D02*
X88200000Y-131760000D01*
X88200000Y-131760000D02*
X87700000Y-132660000D01*
X87700000Y-131660000D02*
X88700000Y-131660000D01*
X52090000Y-153020000D02*
X52090000Y-154020000D01*
X51990000Y-153520000D02*
X51090000Y-153020000D01*
X51090000Y-154020000D02*
X51990000Y-153520000D01*
X51090000Y-153020000D02*
X51090000Y-154020000D01*
X48890000Y-152770000D02*
X48890000Y-154270000D01*
X54290000Y-152770000D02*
X54290000Y-154270000D01*
X48890000Y-152770000D02*
X54290000Y-152770000D01*
X54290000Y-154270000D02*
X48890000Y-154270000D01*
X88550000Y-148860000D02*
X88550000Y-154260000D01*
X87050000Y-154260000D02*
X87050000Y-148860000D01*
X87050000Y-148860000D02*
X88550000Y-148860000D01*
X87050000Y-154260000D02*
X88550000Y-154260000D01*
X87300000Y-152060000D02*
X88300000Y-152060000D01*
X88300000Y-152060000D02*
X87800000Y-151160000D01*
X87800000Y-151160000D02*
X87300000Y-152060000D01*
X87300000Y-151060000D02*
X88300000Y-151060000D01*
X110720000Y-131540000D02*
X110720000Y-136940000D01*
X109220000Y-136940000D02*
X109220000Y-131540000D01*
X109220000Y-131540000D02*
X110720000Y-131540000D01*
X109220000Y-136940000D02*
X110720000Y-136940000D01*
X109470000Y-134740000D02*
X110470000Y-134740000D01*
X110470000Y-134740000D02*
X109970000Y-133840000D01*
X109970000Y-133840000D02*
X109470000Y-134740000D01*
X109470000Y-133740000D02*
X110470000Y-133740000D01*
X46469523Y-132139761D02*
X46326666Y-132187380D01*
X46088571Y-132187380D01*
X45993333Y-132139761D01*
X45945714Y-132092142D01*
X45898095Y-131996904D01*
X45898095Y-131901666D01*
X45945714Y-131806428D01*
X45993333Y-131758809D01*
X46088571Y-131711190D01*
X46279047Y-131663571D01*
X46374285Y-131615952D01*
X46421904Y-131568333D01*
X46469523Y-131473095D01*
X46469523Y-131377857D01*
X46421904Y-131282619D01*
X46374285Y-131235000D01*
X46279047Y-131187380D01*
X46040952Y-131187380D01*
X45898095Y-131235000D01*
X45564761Y-131187380D02*
X45326666Y-132187380D01*
X45136190Y-131473095D01*
X44945714Y-132187380D01*
X44707619Y-131187380D01*
X43802857Y-132187380D02*
X44374285Y-132187380D01*
X44088571Y-132187380D02*
X44088571Y-131187380D01*
X44183809Y-131330238D01*
X44279047Y-131425476D01*
X44374285Y-131473095D01*
X43469523Y-131187380D02*
X42850476Y-131187380D01*
X43183809Y-131568333D01*
X43040952Y-131568333D01*
X42945714Y-131615952D01*
X42898095Y-131663571D01*
X42850476Y-131758809D01*
X42850476Y-131996904D01*
X42898095Y-132092142D01*
X42945714Y-132139761D01*
X43040952Y-132187380D01*
X43326666Y-132187380D01*
X43421904Y-132139761D01*
X43469523Y-132092142D01*
X89406666Y-28007142D02*
X89454285Y-28054761D01*
X89597142Y-28102380D01*
X89692380Y-28102380D01*
X89835238Y-28054761D01*
X89930476Y-27959523D01*
X89978095Y-27864285D01*
X90025714Y-27673809D01*
X90025714Y-27530952D01*
X89978095Y-27340476D01*
X89930476Y-27245238D01*
X89835238Y-27150000D01*
X89692380Y-27102380D01*
X89597142Y-27102380D01*
X89454285Y-27150000D01*
X89406666Y-27197619D01*
X88454285Y-28102380D02*
X89025714Y-28102380D01*
X88740000Y-28102380D02*
X88740000Y-27102380D01*
X88835238Y-27245238D01*
X88930476Y-27340476D01*
X89025714Y-27388095D01*
X107466666Y-28027142D02*
X107514285Y-28074761D01*
X107657142Y-28122380D01*
X107752380Y-28122380D01*
X107895238Y-28074761D01*
X107990476Y-27979523D01*
X108038095Y-27884285D01*
X108085714Y-27693809D01*
X108085714Y-27550952D01*
X108038095Y-27360476D01*
X107990476Y-27265238D01*
X107895238Y-27170000D01*
X107752380Y-27122380D01*
X107657142Y-27122380D01*
X107514285Y-27170000D01*
X107466666Y-27217619D01*
X107085714Y-27217619D02*
X107038095Y-27170000D01*
X106942857Y-27122380D01*
X106704761Y-27122380D01*
X106609523Y-27170000D01*
X106561904Y-27217619D01*
X106514285Y-27312857D01*
X106514285Y-27408095D01*
X106561904Y-27550952D01*
X107133333Y-28122380D01*
X106514285Y-28122380D01*
X109073333Y-64772380D02*
X109073333Y-65486666D01*
X109120952Y-65629523D01*
X109216190Y-65724761D01*
X109359047Y-65772380D01*
X109454285Y-65772380D01*
X108644761Y-64867619D02*
X108597142Y-64820000D01*
X108501904Y-64772380D01*
X108263809Y-64772380D01*
X108168571Y-64820000D01*
X108120952Y-64867619D01*
X108073333Y-64962857D01*
X108073333Y-65058095D01*
X108120952Y-65200952D01*
X108692380Y-65772380D01*
X108073333Y-65772380D01*
X89386666Y-29812380D02*
X89720000Y-29336190D01*
X89958095Y-29812380D02*
X89958095Y-28812380D01*
X89577142Y-28812380D01*
X89481904Y-28860000D01*
X89434285Y-28907619D01*
X89386666Y-29002857D01*
X89386666Y-29145714D01*
X89434285Y-29240952D01*
X89481904Y-29288571D01*
X89577142Y-29336190D01*
X89958095Y-29336190D01*
X88434285Y-29812380D02*
X89005714Y-29812380D01*
X88720000Y-29812380D02*
X88720000Y-28812380D01*
X88815238Y-28955238D01*
X88910476Y-29050476D01*
X89005714Y-29098095D01*
X107516666Y-29822380D02*
X107850000Y-29346190D01*
X108088095Y-29822380D02*
X108088095Y-28822380D01*
X107707142Y-28822380D01*
X107611904Y-28870000D01*
X107564285Y-28917619D01*
X107516666Y-29012857D01*
X107516666Y-29155714D01*
X107564285Y-29250952D01*
X107611904Y-29298571D01*
X107707142Y-29346190D01*
X108088095Y-29346190D01*
X107135714Y-28917619D02*
X107088095Y-28870000D01*
X106992857Y-28822380D01*
X106754761Y-28822380D01*
X106659523Y-28870000D01*
X106611904Y-28917619D01*
X106564285Y-29012857D01*
X106564285Y-29108095D01*
X106611904Y-29250952D01*
X107183333Y-29822380D01*
X106564285Y-29822380D01*
X78272380Y-28998333D02*
X77796190Y-28665000D01*
X78272380Y-28426904D02*
X77272380Y-28426904D01*
X77272380Y-28807857D01*
X77320000Y-28903095D01*
X77367619Y-28950714D01*
X77462857Y-28998333D01*
X77605714Y-28998333D01*
X77700952Y-28950714D01*
X77748571Y-28903095D01*
X77796190Y-28807857D01*
X77796190Y-28426904D01*
X77272380Y-29331666D02*
X77272380Y-29950714D01*
X77653333Y-29617380D01*
X77653333Y-29760238D01*
X77700952Y-29855476D01*
X77748571Y-29903095D01*
X77843809Y-29950714D01*
X78081904Y-29950714D01*
X78177142Y-29903095D01*
X78224761Y-29855476D01*
X78272380Y-29760238D01*
X78272380Y-29474523D01*
X78224761Y-29379285D01*
X78177142Y-29331666D01*
X86182380Y-41583333D02*
X85706190Y-41250000D01*
X86182380Y-41011904D02*
X85182380Y-41011904D01*
X85182380Y-41392857D01*
X85230000Y-41488095D01*
X85277619Y-41535714D01*
X85372857Y-41583333D01*
X85515714Y-41583333D01*
X85610952Y-41535714D01*
X85658571Y-41488095D01*
X85706190Y-41392857D01*
X85706190Y-41011904D01*
X85515714Y-42440476D02*
X86182380Y-42440476D01*
X85134761Y-42202380D02*
X85849047Y-41964285D01*
X85849047Y-42583333D01*
X45993333Y-74989761D02*
X45850476Y-75037380D01*
X45612380Y-75037380D01*
X45517142Y-74989761D01*
X45469523Y-74942142D01*
X45421904Y-74846904D01*
X45421904Y-74751666D01*
X45469523Y-74656428D01*
X45517142Y-74608809D01*
X45612380Y-74561190D01*
X45802857Y-74513571D01*
X45898095Y-74465952D01*
X45945714Y-74418333D01*
X45993333Y-74323095D01*
X45993333Y-74227857D01*
X45945714Y-74132619D01*
X45898095Y-74085000D01*
X45802857Y-74037380D01*
X45564761Y-74037380D01*
X45421904Y-74085000D01*
X45088571Y-74037380D02*
X44850476Y-75037380D01*
X44660000Y-74323095D01*
X44469523Y-75037380D01*
X44231428Y-74037380D01*
X43326666Y-75037380D02*
X43898095Y-75037380D01*
X43612380Y-75037380D02*
X43612380Y-74037380D01*
X43707619Y-74180238D01*
X43802857Y-74275476D01*
X43898095Y-74323095D01*
X65043333Y-74989761D02*
X64900476Y-75037380D01*
X64662380Y-75037380D01*
X64567142Y-74989761D01*
X64519523Y-74942142D01*
X64471904Y-74846904D01*
X64471904Y-74751666D01*
X64519523Y-74656428D01*
X64567142Y-74608809D01*
X64662380Y-74561190D01*
X64852857Y-74513571D01*
X64948095Y-74465952D01*
X64995714Y-74418333D01*
X65043333Y-74323095D01*
X65043333Y-74227857D01*
X64995714Y-74132619D01*
X64948095Y-74085000D01*
X64852857Y-74037380D01*
X64614761Y-74037380D01*
X64471904Y-74085000D01*
X64138571Y-74037380D02*
X63900476Y-75037380D01*
X63710000Y-74323095D01*
X63519523Y-75037380D01*
X63281428Y-74037380D01*
X62948095Y-74132619D02*
X62900476Y-74085000D01*
X62805238Y-74037380D01*
X62567142Y-74037380D01*
X62471904Y-74085000D01*
X62424285Y-74132619D01*
X62376666Y-74227857D01*
X62376666Y-74323095D01*
X62424285Y-74465952D01*
X62995714Y-75037380D01*
X62376666Y-75037380D01*
X84093333Y-74989761D02*
X83950476Y-75037380D01*
X83712380Y-75037380D01*
X83617142Y-74989761D01*
X83569523Y-74942142D01*
X83521904Y-74846904D01*
X83521904Y-74751666D01*
X83569523Y-74656428D01*
X83617142Y-74608809D01*
X83712380Y-74561190D01*
X83902857Y-74513571D01*
X83998095Y-74465952D01*
X84045714Y-74418333D01*
X84093333Y-74323095D01*
X84093333Y-74227857D01*
X84045714Y-74132619D01*
X83998095Y-74085000D01*
X83902857Y-74037380D01*
X83664761Y-74037380D01*
X83521904Y-74085000D01*
X83188571Y-74037380D02*
X82950476Y-75037380D01*
X82760000Y-74323095D01*
X82569523Y-75037380D01*
X82331428Y-74037380D01*
X82045714Y-74037380D02*
X81426666Y-74037380D01*
X81760000Y-74418333D01*
X81617142Y-74418333D01*
X81521904Y-74465952D01*
X81474285Y-74513571D01*
X81426666Y-74608809D01*
X81426666Y-74846904D01*
X81474285Y-74942142D01*
X81521904Y-74989761D01*
X81617142Y-75037380D01*
X81902857Y-75037380D01*
X81998095Y-74989761D01*
X82045714Y-74942142D01*
X103143333Y-74989761D02*
X103000476Y-75037380D01*
X102762380Y-75037380D01*
X102667142Y-74989761D01*
X102619523Y-74942142D01*
X102571904Y-74846904D01*
X102571904Y-74751666D01*
X102619523Y-74656428D01*
X102667142Y-74608809D01*
X102762380Y-74561190D01*
X102952857Y-74513571D01*
X103048095Y-74465952D01*
X103095714Y-74418333D01*
X103143333Y-74323095D01*
X103143333Y-74227857D01*
X103095714Y-74132619D01*
X103048095Y-74085000D01*
X102952857Y-74037380D01*
X102714761Y-74037380D01*
X102571904Y-74085000D01*
X102238571Y-74037380D02*
X102000476Y-75037380D01*
X101810000Y-74323095D01*
X101619523Y-75037380D01*
X101381428Y-74037380D01*
X100571904Y-74370714D02*
X100571904Y-75037380D01*
X100810000Y-73989761D02*
X101048095Y-74704047D01*
X100429047Y-74704047D01*
X45993333Y-94039761D02*
X45850476Y-94087380D01*
X45612380Y-94087380D01*
X45517142Y-94039761D01*
X45469523Y-93992142D01*
X45421904Y-93896904D01*
X45421904Y-93801666D01*
X45469523Y-93706428D01*
X45517142Y-93658809D01*
X45612380Y-93611190D01*
X45802857Y-93563571D01*
X45898095Y-93515952D01*
X45945714Y-93468333D01*
X45993333Y-93373095D01*
X45993333Y-93277857D01*
X45945714Y-93182619D01*
X45898095Y-93135000D01*
X45802857Y-93087380D01*
X45564761Y-93087380D01*
X45421904Y-93135000D01*
X45088571Y-93087380D02*
X44850476Y-94087380D01*
X44660000Y-93373095D01*
X44469523Y-94087380D01*
X44231428Y-93087380D01*
X43374285Y-93087380D02*
X43850476Y-93087380D01*
X43898095Y-93563571D01*
X43850476Y-93515952D01*
X43755238Y-93468333D01*
X43517142Y-93468333D01*
X43421904Y-93515952D01*
X43374285Y-93563571D01*
X43326666Y-93658809D01*
X43326666Y-93896904D01*
X43374285Y-93992142D01*
X43421904Y-94039761D01*
X43517142Y-94087380D01*
X43755238Y-94087380D01*
X43850476Y-94039761D01*
X43898095Y-93992142D01*
X65043333Y-94039761D02*
X64900476Y-94087380D01*
X64662380Y-94087380D01*
X64567142Y-94039761D01*
X64519523Y-93992142D01*
X64471904Y-93896904D01*
X64471904Y-93801666D01*
X64519523Y-93706428D01*
X64567142Y-93658809D01*
X64662380Y-93611190D01*
X64852857Y-93563571D01*
X64948095Y-93515952D01*
X64995714Y-93468333D01*
X65043333Y-93373095D01*
X65043333Y-93277857D01*
X64995714Y-93182619D01*
X64948095Y-93135000D01*
X64852857Y-93087380D01*
X64614761Y-93087380D01*
X64471904Y-93135000D01*
X64138571Y-93087380D02*
X63900476Y-94087380D01*
X63710000Y-93373095D01*
X63519523Y-94087380D01*
X63281428Y-93087380D01*
X62471904Y-93087380D02*
X62662380Y-93087380D01*
X62757619Y-93135000D01*
X62805238Y-93182619D01*
X62900476Y-93325476D01*
X62948095Y-93515952D01*
X62948095Y-93896904D01*
X62900476Y-93992142D01*
X62852857Y-94039761D01*
X62757619Y-94087380D01*
X62567142Y-94087380D01*
X62471904Y-94039761D01*
X62424285Y-93992142D01*
X62376666Y-93896904D01*
X62376666Y-93658809D01*
X62424285Y-93563571D01*
X62471904Y-93515952D01*
X62567142Y-93468333D01*
X62757619Y-93468333D01*
X62852857Y-93515952D01*
X62900476Y-93563571D01*
X62948095Y-93658809D01*
X84093333Y-94039761D02*
X83950476Y-94087380D01*
X83712380Y-94087380D01*
X83617142Y-94039761D01*
X83569523Y-93992142D01*
X83521904Y-93896904D01*
X83521904Y-93801666D01*
X83569523Y-93706428D01*
X83617142Y-93658809D01*
X83712380Y-93611190D01*
X83902857Y-93563571D01*
X83998095Y-93515952D01*
X84045714Y-93468333D01*
X84093333Y-93373095D01*
X84093333Y-93277857D01*
X84045714Y-93182619D01*
X83998095Y-93135000D01*
X83902857Y-93087380D01*
X83664761Y-93087380D01*
X83521904Y-93135000D01*
X83188571Y-93087380D02*
X82950476Y-94087380D01*
X82760000Y-93373095D01*
X82569523Y-94087380D01*
X82331428Y-93087380D01*
X82045714Y-93087380D02*
X81379047Y-93087380D01*
X81807619Y-94087380D01*
X45993333Y-113089761D02*
X45850476Y-113137380D01*
X45612380Y-113137380D01*
X45517142Y-113089761D01*
X45469523Y-113042142D01*
X45421904Y-112946904D01*
X45421904Y-112851666D01*
X45469523Y-112756428D01*
X45517142Y-112708809D01*
X45612380Y-112661190D01*
X45802857Y-112613571D01*
X45898095Y-112565952D01*
X45945714Y-112518333D01*
X45993333Y-112423095D01*
X45993333Y-112327857D01*
X45945714Y-112232619D01*
X45898095Y-112185000D01*
X45802857Y-112137380D01*
X45564761Y-112137380D01*
X45421904Y-112185000D01*
X45088571Y-112137380D02*
X44850476Y-113137380D01*
X44660000Y-112423095D01*
X44469523Y-113137380D01*
X44231428Y-112137380D01*
X43802857Y-113137380D02*
X43612380Y-113137380D01*
X43517142Y-113089761D01*
X43469523Y-113042142D01*
X43374285Y-112899285D01*
X43326666Y-112708809D01*
X43326666Y-112327857D01*
X43374285Y-112232619D01*
X43421904Y-112185000D01*
X43517142Y-112137380D01*
X43707619Y-112137380D01*
X43802857Y-112185000D01*
X43850476Y-112232619D01*
X43898095Y-112327857D01*
X43898095Y-112565952D01*
X43850476Y-112661190D01*
X43802857Y-112708809D01*
X43707619Y-112756428D01*
X43517142Y-112756428D01*
X43421904Y-112708809D01*
X43374285Y-112661190D01*
X43326666Y-112565952D01*
X65519523Y-113089761D02*
X65376666Y-113137380D01*
X65138571Y-113137380D01*
X65043333Y-113089761D01*
X64995714Y-113042142D01*
X64948095Y-112946904D01*
X64948095Y-112851666D01*
X64995714Y-112756428D01*
X65043333Y-112708809D01*
X65138571Y-112661190D01*
X65329047Y-112613571D01*
X65424285Y-112565952D01*
X65471904Y-112518333D01*
X65519523Y-112423095D01*
X65519523Y-112327857D01*
X65471904Y-112232619D01*
X65424285Y-112185000D01*
X65329047Y-112137380D01*
X65090952Y-112137380D01*
X64948095Y-112185000D01*
X64614761Y-112137380D02*
X64376666Y-113137380D01*
X64186190Y-112423095D01*
X63995714Y-113137380D01*
X63757619Y-112137380D01*
X62852857Y-113137380D02*
X63424285Y-113137380D01*
X63138571Y-113137380D02*
X63138571Y-112137380D01*
X63233809Y-112280238D01*
X63329047Y-112375476D01*
X63424285Y-112423095D01*
X62233809Y-112137380D02*
X62138571Y-112137380D01*
X62043333Y-112185000D01*
X61995714Y-112232619D01*
X61948095Y-112327857D01*
X61900476Y-112518333D01*
X61900476Y-112756428D01*
X61948095Y-112946904D01*
X61995714Y-113042142D01*
X62043333Y-113089761D01*
X62138571Y-113137380D01*
X62233809Y-113137380D01*
X62329047Y-113089761D01*
X62376666Y-113042142D01*
X62424285Y-112946904D01*
X62471904Y-112756428D01*
X62471904Y-112518333D01*
X62424285Y-112327857D01*
X62376666Y-112232619D01*
X62329047Y-112185000D01*
X62233809Y-112137380D01*
X84569523Y-113089761D02*
X84426666Y-113137380D01*
X84188571Y-113137380D01*
X84093333Y-113089761D01*
X84045714Y-113042142D01*
X83998095Y-112946904D01*
X83998095Y-112851666D01*
X84045714Y-112756428D01*
X84093333Y-112708809D01*
X84188571Y-112661190D01*
X84379047Y-112613571D01*
X84474285Y-112565952D01*
X84521904Y-112518333D01*
X84569523Y-112423095D01*
X84569523Y-112327857D01*
X84521904Y-112232619D01*
X84474285Y-112185000D01*
X84379047Y-112137380D01*
X84140952Y-112137380D01*
X83998095Y-112185000D01*
X83664761Y-112137380D02*
X83426666Y-113137380D01*
X83236190Y-112423095D01*
X83045714Y-113137380D01*
X82807619Y-112137380D01*
X81902857Y-113137380D02*
X82474285Y-113137380D01*
X82188571Y-113137380D02*
X82188571Y-112137380D01*
X82283809Y-112280238D01*
X82379047Y-112375476D01*
X82474285Y-112423095D01*
X80950476Y-113137380D02*
X81521904Y-113137380D01*
X81236190Y-113137380D02*
X81236190Y-112137380D01*
X81331428Y-112280238D01*
X81426666Y-112375476D01*
X81521904Y-112423095D01*
X103619523Y-103559761D02*
X103476666Y-103607380D01*
X103238571Y-103607380D01*
X103143333Y-103559761D01*
X103095714Y-103512142D01*
X103048095Y-103416904D01*
X103048095Y-103321666D01*
X103095714Y-103226428D01*
X103143333Y-103178809D01*
X103238571Y-103131190D01*
X103429047Y-103083571D01*
X103524285Y-103035952D01*
X103571904Y-102988333D01*
X103619523Y-102893095D01*
X103619523Y-102797857D01*
X103571904Y-102702619D01*
X103524285Y-102655000D01*
X103429047Y-102607380D01*
X103190952Y-102607380D01*
X103048095Y-102655000D01*
X102714761Y-102607380D02*
X102476666Y-103607380D01*
X102286190Y-102893095D01*
X102095714Y-103607380D01*
X101857619Y-102607380D01*
X100952857Y-103607380D02*
X101524285Y-103607380D01*
X101238571Y-103607380D02*
X101238571Y-102607380D01*
X101333809Y-102750238D01*
X101429047Y-102845476D01*
X101524285Y-102893095D01*
X100571904Y-102702619D02*
X100524285Y-102655000D01*
X100429047Y-102607380D01*
X100190952Y-102607380D01*
X100095714Y-102655000D01*
X100048095Y-102702619D01*
X100000476Y-102797857D01*
X100000476Y-102893095D01*
X100048095Y-103035952D01*
X100619523Y-103607380D01*
X100000476Y-103607380D01*
X65519523Y-132139761D02*
X65376666Y-132187380D01*
X65138571Y-132187380D01*
X65043333Y-132139761D01*
X64995714Y-132092142D01*
X64948095Y-131996904D01*
X64948095Y-131901666D01*
X64995714Y-131806428D01*
X65043333Y-131758809D01*
X65138571Y-131711190D01*
X65329047Y-131663571D01*
X65424285Y-131615952D01*
X65471904Y-131568333D01*
X65519523Y-131473095D01*
X65519523Y-131377857D01*
X65471904Y-131282619D01*
X65424285Y-131235000D01*
X65329047Y-131187380D01*
X65090952Y-131187380D01*
X64948095Y-131235000D01*
X64614761Y-131187380D02*
X64376666Y-132187380D01*
X64186190Y-131473095D01*
X63995714Y-132187380D01*
X63757619Y-131187380D01*
X62852857Y-132187380D02*
X63424285Y-132187380D01*
X63138571Y-132187380D02*
X63138571Y-131187380D01*
X63233809Y-131330238D01*
X63329047Y-131425476D01*
X63424285Y-131473095D01*
X61995714Y-131520714D02*
X61995714Y-132187380D01*
X62233809Y-131139761D02*
X62471904Y-131854047D01*
X61852857Y-131854047D01*
X84569523Y-132139761D02*
X84426666Y-132187380D01*
X84188571Y-132187380D01*
X84093333Y-132139761D01*
X84045714Y-132092142D01*
X83998095Y-131996904D01*
X83998095Y-131901666D01*
X84045714Y-131806428D01*
X84093333Y-131758809D01*
X84188571Y-131711190D01*
X84379047Y-131663571D01*
X84474285Y-131615952D01*
X84521904Y-131568333D01*
X84569523Y-131473095D01*
X84569523Y-131377857D01*
X84521904Y-131282619D01*
X84474285Y-131235000D01*
X84379047Y-131187380D01*
X84140952Y-131187380D01*
X83998095Y-131235000D01*
X83664761Y-131187380D02*
X83426666Y-132187380D01*
X83236190Y-131473095D01*
X83045714Y-132187380D01*
X82807619Y-131187380D01*
X81902857Y-132187380D02*
X82474285Y-132187380D01*
X82188571Y-132187380D02*
X82188571Y-131187380D01*
X82283809Y-131330238D01*
X82379047Y-131425476D01*
X82474285Y-131473095D01*
X80998095Y-131187380D02*
X81474285Y-131187380D01*
X81521904Y-131663571D01*
X81474285Y-131615952D01*
X81379047Y-131568333D01*
X81140952Y-131568333D01*
X81045714Y-131615952D01*
X80998095Y-131663571D01*
X80950476Y-131758809D01*
X80950476Y-131996904D01*
X80998095Y-132092142D01*
X81045714Y-132139761D01*
X81140952Y-132187380D01*
X81379047Y-132187380D01*
X81474285Y-132139761D01*
X81521904Y-132092142D01*
X55989523Y-151189761D02*
X55846666Y-151237380D01*
X55608571Y-151237380D01*
X55513333Y-151189761D01*
X55465714Y-151142142D01*
X55418095Y-151046904D01*
X55418095Y-150951666D01*
X55465714Y-150856428D01*
X55513333Y-150808809D01*
X55608571Y-150761190D01*
X55799047Y-150713571D01*
X55894285Y-150665952D01*
X55941904Y-150618333D01*
X55989523Y-150523095D01*
X55989523Y-150427857D01*
X55941904Y-150332619D01*
X55894285Y-150285000D01*
X55799047Y-150237380D01*
X55560952Y-150237380D01*
X55418095Y-150285000D01*
X55084761Y-150237380D02*
X54846666Y-151237380D01*
X54656190Y-150523095D01*
X54465714Y-151237380D01*
X54227619Y-150237380D01*
X53322857Y-151237380D02*
X53894285Y-151237380D01*
X53608571Y-151237380D02*
X53608571Y-150237380D01*
X53703809Y-150380238D01*
X53799047Y-150475476D01*
X53894285Y-150523095D01*
X52465714Y-150237380D02*
X52656190Y-150237380D01*
X52751428Y-150285000D01*
X52799047Y-150332619D01*
X52894285Y-150475476D01*
X52941904Y-150665952D01*
X52941904Y-151046904D01*
X52894285Y-151142142D01*
X52846666Y-151189761D01*
X52751428Y-151237380D01*
X52560952Y-151237380D01*
X52465714Y-151189761D01*
X52418095Y-151142142D01*
X52370476Y-151046904D01*
X52370476Y-150808809D01*
X52418095Y-150713571D01*
X52465714Y-150665952D01*
X52560952Y-150618333D01*
X52751428Y-150618333D01*
X52846666Y-150665952D01*
X52894285Y-150713571D01*
X52941904Y-150808809D01*
X84569523Y-151189761D02*
X84426666Y-151237380D01*
X84188571Y-151237380D01*
X84093333Y-151189761D01*
X84045714Y-151142142D01*
X83998095Y-151046904D01*
X83998095Y-150951666D01*
X84045714Y-150856428D01*
X84093333Y-150808809D01*
X84188571Y-150761190D01*
X84379047Y-150713571D01*
X84474285Y-150665952D01*
X84521904Y-150618333D01*
X84569523Y-150523095D01*
X84569523Y-150427857D01*
X84521904Y-150332619D01*
X84474285Y-150285000D01*
X84379047Y-150237380D01*
X84140952Y-150237380D01*
X83998095Y-150285000D01*
X83664761Y-150237380D02*
X83426666Y-151237380D01*
X83236190Y-150523095D01*
X83045714Y-151237380D01*
X82807619Y-150237380D01*
X81902857Y-151237380D02*
X82474285Y-151237380D01*
X82188571Y-151237380D02*
X82188571Y-150237380D01*
X82283809Y-150380238D01*
X82379047Y-150475476D01*
X82474285Y-150523095D01*
X81569523Y-150237380D02*
X80902857Y-150237380D01*
X81331428Y-151237380D01*
X103619523Y-141669761D02*
X103476666Y-141717380D01*
X103238571Y-141717380D01*
X103143333Y-141669761D01*
X103095714Y-141622142D01*
X103048095Y-141526904D01*
X103048095Y-141431666D01*
X103095714Y-141336428D01*
X103143333Y-141288809D01*
X103238571Y-141241190D01*
X103429047Y-141193571D01*
X103524285Y-141145952D01*
X103571904Y-141098333D01*
X103619523Y-141003095D01*
X103619523Y-140907857D01*
X103571904Y-140812619D01*
X103524285Y-140765000D01*
X103429047Y-140717380D01*
X103190952Y-140717380D01*
X103048095Y-140765000D01*
X102714761Y-140717380D02*
X102476666Y-141717380D01*
X102286190Y-141003095D01*
X102095714Y-141717380D01*
X101857619Y-140717380D01*
X100952857Y-141717380D02*
X101524285Y-141717380D01*
X101238571Y-141717380D02*
X101238571Y-140717380D01*
X101333809Y-140860238D01*
X101429047Y-140955476D01*
X101524285Y-141003095D01*
X100381428Y-141145952D02*
X100476666Y-141098333D01*
X100524285Y-141050714D01*
X100571904Y-140955476D01*
X100571904Y-140907857D01*
X100524285Y-140812619D01*
X100476666Y-140765000D01*
X100381428Y-140717380D01*
X100190952Y-140717380D01*
X100095714Y-140765000D01*
X100048095Y-140812619D01*
X100000476Y-140907857D01*
X100000476Y-140955476D01*
X100048095Y-141050714D01*
X100095714Y-141098333D01*
X100190952Y-141145952D01*
X100381428Y-141145952D01*
X100476666Y-141193571D01*
X100524285Y-141241190D01*
X100571904Y-141336428D01*
X100571904Y-141526904D01*
X100524285Y-141622142D01*
X100476666Y-141669761D01*
X100381428Y-141717380D01*
X100190952Y-141717380D01*
X100095714Y-141669761D01*
X100048095Y-141622142D01*
X100000476Y-141526904D01*
X100000476Y-141336428D01*
X100048095Y-141241190D01*
X100095714Y-141193571D01*
X100190952Y-141145952D01*
D11*
X45455714Y-23469285D02*
X45027142Y-23469285D01*
X45241428Y-24219285D02*
X45241428Y-23469285D01*
X44848571Y-23719285D02*
X44670000Y-24219285D01*
X44491428Y-23719285D02*
X44670000Y-24219285D01*
X44741428Y-24397857D01*
X44777142Y-24433571D01*
X44848571Y-24469285D01*
X44205714Y-23719285D02*
X44205714Y-24469285D01*
X44205714Y-23755000D02*
X44134285Y-23719285D01*
X43991428Y-23719285D01*
X43920000Y-23755000D01*
X43884285Y-23790714D01*
X43848571Y-23862142D01*
X43848571Y-24076428D01*
X43884285Y-24147857D01*
X43920000Y-24183571D01*
X43991428Y-24219285D01*
X44134285Y-24219285D01*
X44205714Y-24183571D01*
X43241428Y-24183571D02*
X43312857Y-24219285D01*
X43455714Y-24219285D01*
X43527142Y-24183571D01*
X43562857Y-24112142D01*
X43562857Y-23826428D01*
X43527142Y-23755000D01*
X43455714Y-23719285D01*
X43312857Y-23719285D01*
X43241428Y-23755000D01*
X43205714Y-23826428D01*
X43205714Y-23897857D01*
X43562857Y-23969285D01*
X42455714Y-24147857D02*
X42491428Y-24183571D01*
X42598571Y-24219285D01*
X42670000Y-24219285D01*
X42777142Y-24183571D01*
X42848571Y-24112142D01*
X42884285Y-24040714D01*
X42920000Y-23897857D01*
X42920000Y-23790714D01*
X42884285Y-23647857D01*
X42848571Y-23576428D01*
X42777142Y-23505000D01*
X42670000Y-23469285D01*
X42598571Y-23469285D01*
X42491428Y-23505000D01*
X42455714Y-23540714D01*
D12*
X31877952Y-53412714D02*
X31877952Y-54162714D01*
X32133190Y-54162714D01*
X32197000Y-54127000D01*
X32228904Y-54091285D01*
X32260809Y-54019857D01*
X32260809Y-53912714D01*
X32228904Y-53841285D01*
X32197000Y-53805571D01*
X32133190Y-53769857D01*
X31877952Y-53769857D01*
X32547952Y-53412714D02*
X32547952Y-54162714D01*
X32867000Y-53412714D02*
X32867000Y-54162714D01*
X33249857Y-53412714D01*
X33249857Y-54162714D01*
X33919857Y-53412714D02*
X33537000Y-53412714D01*
X33728428Y-53412714D02*
X33728428Y-54162714D01*
X33664619Y-54055571D01*
X33600809Y-53984142D01*
X33537000Y-53948428D01*
X34557952Y-53412714D02*
X34175095Y-53412714D01*
X34366523Y-53412714D02*
X34366523Y-54162714D01*
X34302714Y-54055571D01*
X34238904Y-53984142D01*
X34175095Y-53948428D01*
X32451000Y-30590714D02*
X32451000Y-31340714D01*
X32706238Y-31340714D01*
X32770047Y-31305000D01*
X32801952Y-31269285D01*
X32833857Y-31197857D01*
X32833857Y-31090714D01*
X32801952Y-31019285D01*
X32770047Y-30983571D01*
X32706238Y-30947857D01*
X32451000Y-30947857D01*
X33121000Y-30590714D02*
X33121000Y-31340714D01*
X33440047Y-30590714D02*
X33440047Y-31340714D01*
X33822904Y-30590714D01*
X33822904Y-31340714D01*
X34110047Y-31269285D02*
X34141952Y-31305000D01*
X34205761Y-31340714D01*
X34365285Y-31340714D01*
X34429095Y-31305000D01*
X34461000Y-31269285D01*
X34492904Y-31197857D01*
X34492904Y-31126428D01*
X34461000Y-31019285D01*
X34078142Y-30590714D01*
X34492904Y-30590714D01*
X31877952Y-55952714D02*
X31877952Y-56702714D01*
X32133190Y-56702714D01*
X32197000Y-56667000D01*
X32228904Y-56631285D01*
X32260809Y-56559857D01*
X32260809Y-56452714D01*
X32228904Y-56381285D01*
X32197000Y-56345571D01*
X32133190Y-56309857D01*
X31877952Y-56309857D01*
X32547952Y-55952714D02*
X32547952Y-56702714D01*
X32867000Y-55952714D02*
X32867000Y-56702714D01*
X33249857Y-55952714D01*
X33249857Y-56702714D01*
X33919857Y-55952714D02*
X33537000Y-55952714D01*
X33728428Y-55952714D02*
X33728428Y-56702714D01*
X33664619Y-56595571D01*
X33600809Y-56524142D01*
X33537000Y-56488428D01*
X34175095Y-56631285D02*
X34207000Y-56667000D01*
X34270809Y-56702714D01*
X34430333Y-56702714D01*
X34494142Y-56667000D01*
X34526047Y-56631285D01*
X34557952Y-56559857D01*
X34557952Y-56488428D01*
X34526047Y-56381285D01*
X34143190Y-55952714D01*
X34557952Y-55952714D01*
X32451000Y-45740714D02*
X32451000Y-46490714D01*
X32706238Y-46490714D01*
X32770047Y-46455000D01*
X32801952Y-46419285D01*
X32833857Y-46347857D01*
X32833857Y-46240714D01*
X32801952Y-46169285D01*
X32770047Y-46133571D01*
X32706238Y-46097857D01*
X32451000Y-46097857D01*
X33121000Y-45740714D02*
X33121000Y-46490714D01*
X33440047Y-45740714D02*
X33440047Y-46490714D01*
X33822904Y-45740714D01*
X33822904Y-46490714D01*
X34237666Y-46169285D02*
X34173857Y-46205000D01*
X34141952Y-46240714D01*
X34110047Y-46312142D01*
X34110047Y-46347857D01*
X34141952Y-46419285D01*
X34173857Y-46455000D01*
X34237666Y-46490714D01*
X34365285Y-46490714D01*
X34429095Y-46455000D01*
X34461000Y-46419285D01*
X34492904Y-46347857D01*
X34492904Y-46312142D01*
X34461000Y-46240714D01*
X34429095Y-46205000D01*
X34365285Y-46169285D01*
X34237666Y-46169285D01*
X34173857Y-46133571D01*
X34141952Y-46097857D01*
X34110047Y-46026428D01*
X34110047Y-45883571D01*
X34141952Y-45812142D01*
X34173857Y-45776428D01*
X34237666Y-45740714D01*
X34365285Y-45740714D01*
X34429095Y-45776428D01*
X34461000Y-45812142D01*
X34492904Y-45883571D01*
X34492904Y-46026428D01*
X34461000Y-46097857D01*
X34429095Y-46133571D01*
X34365285Y-46169285D01*
X32451000Y-40790714D02*
X32451000Y-41540714D01*
X32706238Y-41540714D01*
X32770047Y-41505000D01*
X32801952Y-41469285D01*
X32833857Y-41397857D01*
X32833857Y-41290714D01*
X32801952Y-41219285D01*
X32770047Y-41183571D01*
X32706238Y-41147857D01*
X32451000Y-41147857D01*
X33121000Y-40790714D02*
X33121000Y-41540714D01*
X33440047Y-40790714D02*
X33440047Y-41540714D01*
X33822904Y-40790714D01*
X33822904Y-41540714D01*
X34429095Y-41540714D02*
X34301476Y-41540714D01*
X34237666Y-41505000D01*
X34205761Y-41469285D01*
X34141952Y-41362142D01*
X34110047Y-41219285D01*
X34110047Y-40933571D01*
X34141952Y-40862142D01*
X34173857Y-40826428D01*
X34237666Y-40790714D01*
X34365285Y-40790714D01*
X34429095Y-40826428D01*
X34461000Y-40862142D01*
X34492904Y-40933571D01*
X34492904Y-41112142D01*
X34461000Y-41183571D01*
X34429095Y-41219285D01*
X34365285Y-41255000D01*
X34237666Y-41255000D01*
X34173857Y-41219285D01*
X34141952Y-41183571D01*
X34110047Y-41112142D01*
X32451000Y-38290714D02*
X32451000Y-39040714D01*
X32706238Y-39040714D01*
X32770047Y-39005000D01*
X32801952Y-38969285D01*
X32833857Y-38897857D01*
X32833857Y-38790714D01*
X32801952Y-38719285D01*
X32770047Y-38683571D01*
X32706238Y-38647857D01*
X32451000Y-38647857D01*
X33121000Y-38290714D02*
X33121000Y-39040714D01*
X33440047Y-38290714D02*
X33440047Y-39040714D01*
X33822904Y-38290714D01*
X33822904Y-39040714D01*
X34461000Y-39040714D02*
X34141952Y-39040714D01*
X34110047Y-38683571D01*
X34141952Y-38719285D01*
X34205761Y-38755000D01*
X34365285Y-38755000D01*
X34429095Y-38719285D01*
X34461000Y-38683571D01*
X34492904Y-38612142D01*
X34492904Y-38433571D01*
X34461000Y-38362142D01*
X34429095Y-38326428D01*
X34365285Y-38290714D01*
X34205761Y-38290714D01*
X34141952Y-38326428D01*
X34110047Y-38362142D01*
X32451000Y-43190714D02*
X32451000Y-43940714D01*
X32706238Y-43940714D01*
X32770047Y-43905000D01*
X32801952Y-43869285D01*
X32833857Y-43797857D01*
X32833857Y-43690714D01*
X32801952Y-43619285D01*
X32770047Y-43583571D01*
X32706238Y-43547857D01*
X32451000Y-43547857D01*
X33121000Y-43190714D02*
X33121000Y-43940714D01*
X33440047Y-43190714D02*
X33440047Y-43940714D01*
X33822904Y-43190714D01*
X33822904Y-43940714D01*
X34078142Y-43940714D02*
X34524809Y-43940714D01*
X34237666Y-43190714D01*
X32451000Y-28040714D02*
X32451000Y-28790714D01*
X32706238Y-28790714D01*
X32770047Y-28755000D01*
X32801952Y-28719285D01*
X32833857Y-28647857D01*
X32833857Y-28540714D01*
X32801952Y-28469285D01*
X32770047Y-28433571D01*
X32706238Y-28397857D01*
X32451000Y-28397857D01*
X33121000Y-28040714D02*
X33121000Y-28790714D01*
X33440047Y-28040714D02*
X33440047Y-28790714D01*
X33822904Y-28040714D01*
X33822904Y-28790714D01*
X34492904Y-28040714D02*
X34110047Y-28040714D01*
X34301476Y-28040714D02*
X34301476Y-28790714D01*
X34237666Y-28683571D01*
X34173857Y-28612142D01*
X34110047Y-28576428D01*
X33199523Y-36355000D02*
X33135714Y-36390714D01*
X33040000Y-36390714D01*
X32944285Y-36355000D01*
X32880476Y-36283571D01*
X32848571Y-36212142D01*
X32816666Y-36069285D01*
X32816666Y-35962142D01*
X32848571Y-35819285D01*
X32880476Y-35747857D01*
X32944285Y-35676428D01*
X33040000Y-35640714D01*
X33103809Y-35640714D01*
X33199523Y-35676428D01*
X33231428Y-35712142D01*
X33231428Y-35962142D01*
X33103809Y-35962142D01*
X33518571Y-35640714D02*
X33518571Y-36390714D01*
X33901428Y-35640714D01*
X33901428Y-36390714D01*
X34220476Y-35640714D02*
X34220476Y-36390714D01*
X34380000Y-36390714D01*
X34475714Y-36355000D01*
X34539523Y-36283571D01*
X34571428Y-36212142D01*
X34603333Y-36069285D01*
X34603333Y-35962142D01*
X34571428Y-35819285D01*
X34539523Y-35747857D01*
X34475714Y-35676428D01*
X34380000Y-35640714D01*
X34220476Y-35640714D01*
X33199523Y-33905000D02*
X33135714Y-33940714D01*
X33040000Y-33940714D01*
X32944285Y-33905000D01*
X32880476Y-33833571D01*
X32848571Y-33762142D01*
X32816666Y-33619285D01*
X32816666Y-33512142D01*
X32848571Y-33369285D01*
X32880476Y-33297857D01*
X32944285Y-33226428D01*
X33040000Y-33190714D01*
X33103809Y-33190714D01*
X33199523Y-33226428D01*
X33231428Y-33262142D01*
X33231428Y-33512142D01*
X33103809Y-33512142D01*
X33518571Y-33190714D02*
X33518571Y-33940714D01*
X33901428Y-33190714D01*
X33901428Y-33940714D01*
X34220476Y-33190714D02*
X34220476Y-33940714D01*
X34380000Y-33940714D01*
X34475714Y-33905000D01*
X34539523Y-33833571D01*
X34571428Y-33762142D01*
X34603333Y-33619285D01*
X34603333Y-33512142D01*
X34571428Y-33369285D01*
X34539523Y-33297857D01*
X34475714Y-33226428D01*
X34380000Y-33190714D01*
X34220476Y-33190714D01*
X32451000Y-48290714D02*
X32451000Y-49040714D01*
X32706238Y-49040714D01*
X32770047Y-49005000D01*
X32801952Y-48969285D01*
X32833857Y-48897857D01*
X32833857Y-48790714D01*
X32801952Y-48719285D01*
X32770047Y-48683571D01*
X32706238Y-48647857D01*
X32451000Y-48647857D01*
X33121000Y-48290714D02*
X33121000Y-49040714D01*
X33440047Y-48290714D02*
X33440047Y-49040714D01*
X33822904Y-48290714D01*
X33822904Y-49040714D01*
X34173857Y-48290714D02*
X34301476Y-48290714D01*
X34365285Y-48326428D01*
X34397190Y-48362142D01*
X34461000Y-48469285D01*
X34492904Y-48612142D01*
X34492904Y-48897857D01*
X34461000Y-48969285D01*
X34429095Y-49005000D01*
X34365285Y-49040714D01*
X34237666Y-49040714D01*
X34173857Y-49005000D01*
X34141952Y-48969285D01*
X34110047Y-48897857D01*
X34110047Y-48719285D01*
X34141952Y-48647857D01*
X34173857Y-48612142D01*
X34237666Y-48576428D01*
X34365285Y-48576428D01*
X34429095Y-48612142D01*
X34461000Y-48647857D01*
X34492904Y-48719285D01*
X31877952Y-50840714D02*
X31877952Y-51590714D01*
X32133190Y-51590714D01*
X32197000Y-51555000D01*
X32228904Y-51519285D01*
X32260809Y-51447857D01*
X32260809Y-51340714D01*
X32228904Y-51269285D01*
X32197000Y-51233571D01*
X32133190Y-51197857D01*
X31877952Y-51197857D01*
X32547952Y-50840714D02*
X32547952Y-51590714D01*
X32867000Y-50840714D02*
X32867000Y-51590714D01*
X33249857Y-50840714D01*
X33249857Y-51590714D01*
X33919857Y-50840714D02*
X33537000Y-50840714D01*
X33728428Y-50840714D02*
X33728428Y-51590714D01*
X33664619Y-51483571D01*
X33600809Y-51412142D01*
X33537000Y-51376428D01*
X34334619Y-51590714D02*
X34398428Y-51590714D01*
X34462238Y-51555000D01*
X34494142Y-51519285D01*
X34526047Y-51447857D01*
X34557952Y-51305000D01*
X34557952Y-51126428D01*
X34526047Y-50983571D01*
X34494142Y-50912142D01*
X34462238Y-50876428D01*
X34398428Y-50840714D01*
X34334619Y-50840714D01*
X34270809Y-50876428D01*
X34238904Y-50912142D01*
X34207000Y-50983571D01*
X34175095Y-51126428D01*
X34175095Y-51305000D01*
X34207000Y-51447857D01*
X34238904Y-51519285D01*
X34270809Y-51555000D01*
X34334619Y-51590714D01*
X53390952Y-53440714D02*
X53390952Y-54190714D01*
X53646190Y-54190714D01*
X53710000Y-54155000D01*
X53741904Y-54119285D01*
X53773809Y-54047857D01*
X53773809Y-53940714D01*
X53741904Y-53869285D01*
X53710000Y-53833571D01*
X53646190Y-53797857D01*
X53390952Y-53797857D01*
X54060952Y-53440714D02*
X54060952Y-54190714D01*
X54380000Y-53440714D02*
X54380000Y-54190714D01*
X54762857Y-53440714D01*
X54762857Y-54190714D01*
X55432857Y-53440714D02*
X55050000Y-53440714D01*
X55241428Y-53440714D02*
X55241428Y-54190714D01*
X55177619Y-54083571D01*
X55113809Y-54012142D01*
X55050000Y-53976428D01*
X56007142Y-53940714D02*
X56007142Y-53440714D01*
X55847619Y-54226428D02*
X55688095Y-53690714D01*
X56102857Y-53690714D01*
X53390952Y-55940714D02*
X53390952Y-56690714D01*
X53646190Y-56690714D01*
X53710000Y-56655000D01*
X53741904Y-56619285D01*
X53773809Y-56547857D01*
X53773809Y-56440714D01*
X53741904Y-56369285D01*
X53710000Y-56333571D01*
X53646190Y-56297857D01*
X53390952Y-56297857D01*
X54060952Y-55940714D02*
X54060952Y-56690714D01*
X54380000Y-55940714D02*
X54380000Y-56690714D01*
X54762857Y-55940714D01*
X54762857Y-56690714D01*
X55432857Y-55940714D02*
X55050000Y-55940714D01*
X55241428Y-55940714D02*
X55241428Y-56690714D01*
X55177619Y-56583571D01*
X55113809Y-56512142D01*
X55050000Y-56476428D01*
X55656190Y-56690714D02*
X56070952Y-56690714D01*
X55847619Y-56405000D01*
X55943333Y-56405000D01*
X56007142Y-56369285D01*
X56039047Y-56333571D01*
X56070952Y-56262142D01*
X56070952Y-56083571D01*
X56039047Y-56012142D01*
X56007142Y-55976428D01*
X55943333Y-55940714D01*
X55751904Y-55940714D01*
X55688095Y-55976428D01*
X55656190Y-56012142D01*
X53390952Y-50890714D02*
X53390952Y-51640714D01*
X53646190Y-51640714D01*
X53710000Y-51605000D01*
X53741904Y-51569285D01*
X53773809Y-51497857D01*
X53773809Y-51390714D01*
X53741904Y-51319285D01*
X53710000Y-51283571D01*
X53646190Y-51247857D01*
X53390952Y-51247857D01*
X54060952Y-50890714D02*
X54060952Y-51640714D01*
X54380000Y-50890714D02*
X54380000Y-51640714D01*
X54762857Y-50890714D01*
X54762857Y-51640714D01*
X55432857Y-50890714D02*
X55050000Y-50890714D01*
X55241428Y-50890714D02*
X55241428Y-51640714D01*
X55177619Y-51533571D01*
X55113809Y-51462142D01*
X55050000Y-51426428D01*
X56039047Y-51640714D02*
X55720000Y-51640714D01*
X55688095Y-51283571D01*
X55720000Y-51319285D01*
X55783809Y-51355000D01*
X55943333Y-51355000D01*
X56007142Y-51319285D01*
X56039047Y-51283571D01*
X56070952Y-51212142D01*
X56070952Y-51033571D01*
X56039047Y-50962142D01*
X56007142Y-50926428D01*
X55943333Y-50890714D01*
X55783809Y-50890714D01*
X55720000Y-50926428D01*
X55688095Y-50962142D01*
X53390952Y-48340714D02*
X53390952Y-49090714D01*
X53646190Y-49090714D01*
X53710000Y-49055000D01*
X53741904Y-49019285D01*
X53773809Y-48947857D01*
X53773809Y-48840714D01*
X53741904Y-48769285D01*
X53710000Y-48733571D01*
X53646190Y-48697857D01*
X53390952Y-48697857D01*
X54060952Y-48340714D02*
X54060952Y-49090714D01*
X54380000Y-48340714D02*
X54380000Y-49090714D01*
X54762857Y-48340714D01*
X54762857Y-49090714D01*
X55432857Y-48340714D02*
X55050000Y-48340714D01*
X55241428Y-48340714D02*
X55241428Y-49090714D01*
X55177619Y-48983571D01*
X55113809Y-48912142D01*
X55050000Y-48876428D01*
X56007142Y-49090714D02*
X55879523Y-49090714D01*
X55815714Y-49055000D01*
X55783809Y-49019285D01*
X55720000Y-48912142D01*
X55688095Y-48769285D01*
X55688095Y-48483571D01*
X55720000Y-48412142D01*
X55751904Y-48376428D01*
X55815714Y-48340714D01*
X55943333Y-48340714D01*
X56007142Y-48376428D01*
X56039047Y-48412142D01*
X56070952Y-48483571D01*
X56070952Y-48662142D01*
X56039047Y-48733571D01*
X56007142Y-48769285D01*
X55943333Y-48805000D01*
X55815714Y-48805000D01*
X55751904Y-48769285D01*
X55720000Y-48733571D01*
X55688095Y-48662142D01*
X53390952Y-45790714D02*
X53390952Y-46540714D01*
X53646190Y-46540714D01*
X53710000Y-46505000D01*
X53741904Y-46469285D01*
X53773809Y-46397857D01*
X53773809Y-46290714D01*
X53741904Y-46219285D01*
X53710000Y-46183571D01*
X53646190Y-46147857D01*
X53390952Y-46147857D01*
X54060952Y-45790714D02*
X54060952Y-46540714D01*
X54380000Y-45790714D02*
X54380000Y-46540714D01*
X54762857Y-45790714D01*
X54762857Y-46540714D01*
X55432857Y-45790714D02*
X55050000Y-45790714D01*
X55241428Y-45790714D02*
X55241428Y-46540714D01*
X55177619Y-46433571D01*
X55113809Y-46362142D01*
X55050000Y-46326428D01*
X55656190Y-46540714D02*
X56102857Y-46540714D01*
X55815714Y-45790714D01*
X53390952Y-43240714D02*
X53390952Y-43990714D01*
X53646190Y-43990714D01*
X53710000Y-43955000D01*
X53741904Y-43919285D01*
X53773809Y-43847857D01*
X53773809Y-43740714D01*
X53741904Y-43669285D01*
X53710000Y-43633571D01*
X53646190Y-43597857D01*
X53390952Y-43597857D01*
X54060952Y-43240714D02*
X54060952Y-43990714D01*
X54380000Y-43240714D02*
X54380000Y-43990714D01*
X54762857Y-43240714D01*
X54762857Y-43990714D01*
X55432857Y-43240714D02*
X55050000Y-43240714D01*
X55241428Y-43240714D02*
X55241428Y-43990714D01*
X55177619Y-43883571D01*
X55113809Y-43812142D01*
X55050000Y-43776428D01*
X55815714Y-43669285D02*
X55751904Y-43705000D01*
X55720000Y-43740714D01*
X55688095Y-43812142D01*
X55688095Y-43847857D01*
X55720000Y-43919285D01*
X55751904Y-43955000D01*
X55815714Y-43990714D01*
X55943333Y-43990714D01*
X56007142Y-43955000D01*
X56039047Y-43919285D01*
X56070952Y-43847857D01*
X56070952Y-43812142D01*
X56039047Y-43740714D01*
X56007142Y-43705000D01*
X55943333Y-43669285D01*
X55815714Y-43669285D01*
X55751904Y-43633571D01*
X55720000Y-43597857D01*
X55688095Y-43526428D01*
X55688095Y-43383571D01*
X55720000Y-43312142D01*
X55751904Y-43276428D01*
X55815714Y-43240714D01*
X55943333Y-43240714D01*
X56007142Y-43276428D01*
X56039047Y-43312142D01*
X56070952Y-43383571D01*
X56070952Y-43526428D01*
X56039047Y-43597857D01*
X56007142Y-43633571D01*
X55943333Y-43669285D01*
X53390952Y-40740714D02*
X53390952Y-41490714D01*
X53646190Y-41490714D01*
X53710000Y-41455000D01*
X53741904Y-41419285D01*
X53773809Y-41347857D01*
X53773809Y-41240714D01*
X53741904Y-41169285D01*
X53710000Y-41133571D01*
X53646190Y-41097857D01*
X53390952Y-41097857D01*
X54060952Y-40740714D02*
X54060952Y-41490714D01*
X54380000Y-40740714D02*
X54380000Y-41490714D01*
X54762857Y-40740714D01*
X54762857Y-41490714D01*
X55432857Y-40740714D02*
X55050000Y-40740714D01*
X55241428Y-40740714D02*
X55241428Y-41490714D01*
X55177619Y-41383571D01*
X55113809Y-41312142D01*
X55050000Y-41276428D01*
X55751904Y-40740714D02*
X55879523Y-40740714D01*
X55943333Y-40776428D01*
X55975238Y-40812142D01*
X56039047Y-40919285D01*
X56070952Y-41062142D01*
X56070952Y-41347857D01*
X56039047Y-41419285D01*
X56007142Y-41455000D01*
X55943333Y-41490714D01*
X55815714Y-41490714D01*
X55751904Y-41455000D01*
X55720000Y-41419285D01*
X55688095Y-41347857D01*
X55688095Y-41169285D01*
X55720000Y-41097857D01*
X55751904Y-41062142D01*
X55815714Y-41026428D01*
X55943333Y-41026428D01*
X56007142Y-41062142D01*
X56039047Y-41097857D01*
X56070952Y-41169285D01*
X53390952Y-38240714D02*
X53390952Y-38990714D01*
X53646190Y-38990714D01*
X53710000Y-38955000D01*
X53741904Y-38919285D01*
X53773809Y-38847857D01*
X53773809Y-38740714D01*
X53741904Y-38669285D01*
X53710000Y-38633571D01*
X53646190Y-38597857D01*
X53390952Y-38597857D01*
X54060952Y-38240714D02*
X54060952Y-38990714D01*
X54380000Y-38240714D02*
X54380000Y-38990714D01*
X54762857Y-38240714D01*
X54762857Y-38990714D01*
X55050000Y-38919285D02*
X55081904Y-38955000D01*
X55145714Y-38990714D01*
X55305238Y-38990714D01*
X55369047Y-38955000D01*
X55400952Y-38919285D01*
X55432857Y-38847857D01*
X55432857Y-38776428D01*
X55400952Y-38669285D01*
X55018095Y-38240714D01*
X55432857Y-38240714D01*
X55847619Y-38990714D02*
X55911428Y-38990714D01*
X55975238Y-38955000D01*
X56007142Y-38919285D01*
X56039047Y-38847857D01*
X56070952Y-38705000D01*
X56070952Y-38526428D01*
X56039047Y-38383571D01*
X56007142Y-38312142D01*
X55975238Y-38276428D01*
X55911428Y-38240714D01*
X55847619Y-38240714D01*
X55783809Y-38276428D01*
X55751904Y-38312142D01*
X55720000Y-38383571D01*
X55688095Y-38526428D01*
X55688095Y-38705000D01*
X55720000Y-38847857D01*
X55751904Y-38919285D01*
X55783809Y-38955000D01*
X55847619Y-38990714D01*
X53171666Y-36290714D02*
X53395000Y-35540714D01*
X53618333Y-36290714D01*
X54224523Y-35612142D02*
X54192619Y-35576428D01*
X54096904Y-35540714D01*
X54033095Y-35540714D01*
X53937380Y-35576428D01*
X53873571Y-35647857D01*
X53841666Y-35719285D01*
X53809761Y-35862142D01*
X53809761Y-35969285D01*
X53841666Y-36112142D01*
X53873571Y-36183571D01*
X53937380Y-36255000D01*
X54033095Y-36290714D01*
X54096904Y-36290714D01*
X54192619Y-36255000D01*
X54224523Y-36219285D01*
X54894523Y-35612142D02*
X54862619Y-35576428D01*
X54766904Y-35540714D01*
X54703095Y-35540714D01*
X54607380Y-35576428D01*
X54543571Y-35647857D01*
X54511666Y-35719285D01*
X54479761Y-35862142D01*
X54479761Y-35969285D01*
X54511666Y-36112142D01*
X54543571Y-36183571D01*
X54607380Y-36255000D01*
X54703095Y-36290714D01*
X54766904Y-36290714D01*
X54862619Y-36255000D01*
X54894523Y-36219285D01*
X53374714Y-33483571D02*
X53470428Y-33447857D01*
X53502333Y-33412142D01*
X53534238Y-33340714D01*
X53534238Y-33233571D01*
X53502333Y-33162142D01*
X53470428Y-33126428D01*
X53406619Y-33090714D01*
X53151380Y-33090714D01*
X53151380Y-33840714D01*
X53374714Y-33840714D01*
X53438523Y-33805000D01*
X53470428Y-33769285D01*
X53502333Y-33697857D01*
X53502333Y-33626428D01*
X53470428Y-33555000D01*
X53438523Y-33519285D01*
X53374714Y-33483571D01*
X53151380Y-33483571D01*
X53949000Y-33840714D02*
X54076619Y-33840714D01*
X54140428Y-33805000D01*
X54204238Y-33733571D01*
X54236142Y-33590714D01*
X54236142Y-33340714D01*
X54204238Y-33197857D01*
X54140428Y-33126428D01*
X54076619Y-33090714D01*
X53949000Y-33090714D01*
X53885190Y-33126428D01*
X53821380Y-33197857D01*
X53789476Y-33340714D01*
X53789476Y-33590714D01*
X53821380Y-33733571D01*
X53885190Y-33805000D01*
X53949000Y-33840714D01*
X54650904Y-33840714D02*
X54778523Y-33840714D01*
X54842333Y-33805000D01*
X54906142Y-33733571D01*
X54938047Y-33590714D01*
X54938047Y-33340714D01*
X54906142Y-33197857D01*
X54842333Y-33126428D01*
X54778523Y-33090714D01*
X54650904Y-33090714D01*
X54587095Y-33126428D01*
X54523285Y-33197857D01*
X54491380Y-33340714D01*
X54491380Y-33590714D01*
X54523285Y-33733571D01*
X54587095Y-33805000D01*
X54650904Y-33840714D01*
X55129476Y-33840714D02*
X55512333Y-33840714D01*
X55320904Y-33090714D02*
X55320904Y-33840714D01*
X53554523Y-31255000D02*
X53490714Y-31290714D01*
X53395000Y-31290714D01*
X53299285Y-31255000D01*
X53235476Y-31183571D01*
X53203571Y-31112142D01*
X53171666Y-30969285D01*
X53171666Y-30862142D01*
X53203571Y-30719285D01*
X53235476Y-30647857D01*
X53299285Y-30576428D01*
X53395000Y-30540714D01*
X53458809Y-30540714D01*
X53554523Y-30576428D01*
X53586428Y-30612142D01*
X53586428Y-30862142D01*
X53458809Y-30862142D01*
X53873571Y-30540714D02*
X53873571Y-31290714D01*
X54256428Y-30540714D01*
X54256428Y-31290714D01*
X54575476Y-30540714D02*
X54575476Y-31290714D01*
X54735000Y-31290714D01*
X54830714Y-31255000D01*
X54894523Y-31183571D01*
X54926428Y-31112142D01*
X54958333Y-30969285D01*
X54958333Y-30862142D01*
X54926428Y-30719285D01*
X54894523Y-30647857D01*
X54830714Y-30576428D01*
X54735000Y-30540714D01*
X54575476Y-30540714D01*
X53937380Y-28740714D02*
X53618333Y-28740714D01*
X53586428Y-28383571D01*
X53618333Y-28419285D01*
X53682142Y-28455000D01*
X53841666Y-28455000D01*
X53905476Y-28419285D01*
X53937380Y-28383571D01*
X53969285Y-28312142D01*
X53969285Y-28133571D01*
X53937380Y-28062142D01*
X53905476Y-28026428D01*
X53841666Y-27990714D01*
X53682142Y-27990714D01*
X53618333Y-28026428D01*
X53586428Y-28062142D01*
X54160714Y-28740714D02*
X54384047Y-27990714D01*
X54607380Y-28740714D01*
D10*
D12*
X34220476Y-25500500D02*
X34284285Y-25464785D01*
X34380000Y-25464785D01*
X34475714Y-25500500D01*
X34539523Y-25571928D01*
X34571428Y-25643357D01*
X34603333Y-25786214D01*
X34603333Y-25893357D01*
X34571428Y-26036214D01*
X34539523Y-26107642D01*
X34475714Y-26179071D01*
X34380000Y-26214785D01*
X34316190Y-26214785D01*
X34220476Y-26179071D01*
X34188571Y-26143357D01*
X34188571Y-25893357D01*
X34316190Y-25893357D01*
X33901428Y-26214785D02*
X33901428Y-25464785D01*
X33518571Y-26214785D01*
X33518571Y-25464785D01*
X33199523Y-26214785D02*
X33199523Y-25464785D01*
X33040000Y-25464785D01*
X32944285Y-25500500D01*
X32880476Y-25571928D01*
X32848571Y-25643357D01*
X32816666Y-25786214D01*
X32816666Y-25893357D01*
X32848571Y-26036214D01*
X32880476Y-26107642D01*
X32944285Y-26179071D01*
X33040000Y-26214785D01*
X33199523Y-26214785D01*
X54397523Y-25821928D02*
X54301809Y-25857642D01*
X54269904Y-25893357D01*
X54238000Y-25964785D01*
X54238000Y-26071928D01*
X54269904Y-26143357D01*
X54301809Y-26179071D01*
X54365619Y-26214785D01*
X54620857Y-26214785D01*
X54620857Y-25464785D01*
X54397523Y-25464785D01*
X54333714Y-25500500D01*
X54301809Y-25536214D01*
X54269904Y-25607642D01*
X54269904Y-25679071D01*
X54301809Y-25750500D01*
X54333714Y-25786214D01*
X54397523Y-25821928D01*
X54620857Y-25821928D01*
X53982761Y-26000500D02*
X53663714Y-26000500D01*
X54046571Y-26214785D02*
X53823238Y-25464785D01*
X53599904Y-26214785D01*
X53472285Y-25464785D02*
X53089428Y-25464785D01*
X53280857Y-26214785D02*
X53280857Y-25464785D01*
D10*
X87511904Y-30872380D02*
X86940476Y-30872380D01*
X87226190Y-31872380D02*
X87226190Y-30872380D01*
X86035714Y-31872380D02*
X86369047Y-31396190D01*
X86607142Y-31872380D02*
X86607142Y-30872380D01*
X86226190Y-30872380D01*
X86130952Y-30920000D01*
X86083333Y-30967619D01*
X86035714Y-31062857D01*
X86035714Y-31205714D01*
X86083333Y-31300952D01*
X86130952Y-31348571D01*
X86226190Y-31396190D01*
X86607142Y-31396190D01*
X85035714Y-31872380D02*
X85369047Y-31396190D01*
X85607142Y-31872380D02*
X85607142Y-30872380D01*
X85226190Y-30872380D01*
X85130952Y-30920000D01*
X85083333Y-30967619D01*
X85035714Y-31062857D01*
X85035714Y-31205714D01*
X85083333Y-31300952D01*
X85130952Y-31348571D01*
X85226190Y-31396190D01*
X85607142Y-31396190D01*
X84654761Y-31824761D02*
X84511904Y-31872380D01*
X84273809Y-31872380D01*
X84178571Y-31824761D01*
X84130952Y-31777142D01*
X84083333Y-31681904D01*
X84083333Y-31586666D01*
X84130952Y-31491428D01*
X84178571Y-31443809D01*
X84273809Y-31396190D01*
X84464285Y-31348571D01*
X84559523Y-31300952D01*
X84607142Y-31253333D01*
X84654761Y-31158095D01*
X84654761Y-31062857D01*
X84607142Y-30967619D01*
X84559523Y-30920000D01*
X84464285Y-30872380D01*
X84226190Y-30872380D01*
X84083333Y-30920000D01*
X108532380Y-50027619D02*
X108056190Y-49694285D01*
X108532380Y-49456190D02*
X107532380Y-49456190D01*
X107532380Y-49837142D01*
X107580000Y-49932380D01*
X107627619Y-49980000D01*
X107722857Y-50027619D01*
X107865714Y-50027619D01*
X107960952Y-49980000D01*
X108008571Y-49932380D01*
X108056190Y-49837142D01*
X108056190Y-49456190D01*
X108008571Y-50456190D02*
X108008571Y-50789523D01*
X108532380Y-50932380D02*
X108532380Y-50456190D01*
X107532380Y-50456190D01*
X107532380Y-50932380D01*
X108484761Y-51313333D02*
X108532380Y-51456190D01*
X108532380Y-51694285D01*
X108484761Y-51789523D01*
X108437142Y-51837142D01*
X108341904Y-51884761D01*
X108246666Y-51884761D01*
X108151428Y-51837142D01*
X108103809Y-51789523D01*
X108056190Y-51694285D01*
X108008571Y-51503809D01*
X107960952Y-51408571D01*
X107913333Y-51360952D01*
X107818095Y-51313333D01*
X107722857Y-51313333D01*
X107627619Y-51360952D01*
X107580000Y-51408571D01*
X107532380Y-51503809D01*
X107532380Y-51741904D01*
X107580000Y-51884761D01*
X108008571Y-52313333D02*
X108008571Y-52646666D01*
X108532380Y-52789523D02*
X108532380Y-52313333D01*
X107532380Y-52313333D01*
X107532380Y-52789523D01*
X107532380Y-53075238D02*
X107532380Y-53646666D01*
X108532380Y-53360952D02*
X107532380Y-53360952D01*
M02*
