G04 #@! TF.GenerationSoftware,KiCad,Pcbnew,(5.1.5)-3*
G04 #@! TF.CreationDate,2020-11-01T21:01:57+09:00*
G04 #@! TF.ProjectId,Pistachio_MacroPad,50697374-6163-4686-996f-5f4d6163726f,rev?*
G04 #@! TF.SameCoordinates,Original*
G04 #@! TF.FileFunction,Legend,Bot*
G04 #@! TF.FilePolarity,Positive*
%FSLAX46Y46*%
G04 Gerber Fmt 4.6, Leading zero omitted, Abs format (unit mm)*
G04 Created by KiCad (PCBNEW (5.1.5)-3) date 2020-11-01 21:01:57*
%MOMM*%
%LPD*%
G04 APERTURE LIST*
%ADD10C,0.010000*%
%ADD11C,0.150000*%
%ADD12C,0.120000*%
%ADD13C,0.125000*%
G04 APERTURE END LIST*
D10*
G36*
X129157182Y-143671286D02*
G01*
X128953410Y-143700350D01*
X128889775Y-143722863D01*
X128728701Y-143906998D01*
X128632027Y-144163699D01*
X128612722Y-144427913D01*
X128683753Y-144634583D01*
X128703533Y-144657134D01*
X128845629Y-144712314D01*
X129121814Y-144747688D01*
X129456475Y-144758734D01*
X129804594Y-144751312D01*
X130017152Y-144724818D01*
X130127444Y-144672906D01*
X130159208Y-144624809D01*
X130210869Y-144320768D01*
X130158532Y-144020754D01*
X130041266Y-143827400D01*
X129870430Y-143714802D01*
X129619686Y-143665202D01*
X129427433Y-143659363D01*
X129157182Y-143671286D01*
G37*
X129157182Y-143671286D02*
X128953410Y-143700350D01*
X128889775Y-143722863D01*
X128728701Y-143906998D01*
X128632027Y-144163699D01*
X128612722Y-144427913D01*
X128683753Y-144634583D01*
X128703533Y-144657134D01*
X128845629Y-144712314D01*
X129121814Y-144747688D01*
X129456475Y-144758734D01*
X129804594Y-144751312D01*
X130017152Y-144724818D01*
X130127444Y-144672906D01*
X130159208Y-144624809D01*
X130210869Y-144320768D01*
X130158532Y-144020754D01*
X130041266Y-143827400D01*
X129870430Y-143714802D01*
X129619686Y-143665202D01*
X129427433Y-143659363D01*
X129157182Y-143671286D01*
G36*
X155090882Y-143699287D02*
G01*
X154839435Y-143831347D01*
X154708064Y-144066845D01*
X154679266Y-144326342D01*
X154692246Y-144522944D01*
X154751459Y-144649026D01*
X154887316Y-144720044D01*
X155130227Y-144751458D01*
X155510604Y-144758726D01*
X155529879Y-144758734D01*
X155850951Y-144751240D01*
X156044900Y-144721949D01*
X156153538Y-144660648D01*
X156200288Y-144594966D01*
X156282698Y-144301412D01*
X156202173Y-144014073D01*
X156112455Y-143881152D01*
X155982422Y-143747531D01*
X155825448Y-143680655D01*
X155580204Y-143658978D01*
X155477455Y-143658067D01*
X155090882Y-143699287D01*
G37*
X155090882Y-143699287D02*
X154839435Y-143831347D01*
X154708064Y-144066845D01*
X154679266Y-144326342D01*
X154692246Y-144522944D01*
X154751459Y-144649026D01*
X154887316Y-144720044D01*
X155130227Y-144751458D01*
X155510604Y-144758726D01*
X155529879Y-144758734D01*
X155850951Y-144751240D01*
X156044900Y-144721949D01*
X156153538Y-144660648D01*
X156200288Y-144594966D01*
X156282698Y-144301412D01*
X156202173Y-144014073D01*
X156112455Y-143881152D01*
X155982422Y-143747531D01*
X155825448Y-143680655D01*
X155580204Y-143658978D01*
X155477455Y-143658067D01*
X155090882Y-143699287D01*
G36*
X134187315Y-143761901D02*
G01*
X134105266Y-143827400D01*
X134022279Y-143934438D01*
X133971296Y-144079465D01*
X133945046Y-144302590D01*
X133936256Y-144643922D01*
X133935933Y-144761391D01*
X133928327Y-145169803D01*
X133891280Y-145430584D01*
X133803453Y-145565241D01*
X133643503Y-145595281D01*
X133390089Y-145542213D01*
X133214105Y-145488854D01*
X132692459Y-145391301D01*
X132233678Y-145442107D01*
X131849849Y-145637251D01*
X131553061Y-145972714D01*
X131504636Y-146057376D01*
X131430224Y-146289971D01*
X131372960Y-146646729D01*
X131334164Y-147083218D01*
X131315157Y-147555008D01*
X131317259Y-148017670D01*
X131341791Y-148426773D01*
X131390074Y-148737887D01*
X131421955Y-148839086D01*
X131620348Y-149162580D01*
X131897742Y-149346365D01*
X132275780Y-149403050D01*
X132383442Y-149399172D01*
X132792933Y-149373067D01*
X132835266Y-148094525D01*
X132859789Y-147527121D01*
X132891450Y-147114098D01*
X132931910Y-146840593D01*
X132982832Y-146691742D01*
X132993800Y-146676359D01*
X133192225Y-146556076D01*
X133443686Y-146556649D01*
X133687394Y-146673558D01*
X133751841Y-146732690D01*
X133828373Y-146827133D01*
X133880247Y-146939776D01*
X133912193Y-147103394D01*
X133928942Y-147350758D01*
X133935222Y-147714641D01*
X133935933Y-148008256D01*
X133942593Y-148432396D01*
X133960765Y-148805700D01*
X133987736Y-149089690D01*
X134020794Y-149245888D01*
X134023579Y-149251633D01*
X134164916Y-149358063D01*
X134407998Y-149412755D01*
X134692614Y-149413414D01*
X134958555Y-149357744D01*
X135090035Y-149292279D01*
X135222664Y-149138219D01*
X135327373Y-148874385D01*
X135405884Y-148489068D01*
X135459919Y-147970559D01*
X135491199Y-147307147D01*
X135501443Y-146494400D01*
X135494739Y-145754330D01*
X135471664Y-145163886D01*
X135429034Y-144703874D01*
X135363665Y-144355103D01*
X135272373Y-144098377D01*
X135151974Y-143914506D01*
X135058923Y-143826787D01*
X134775704Y-143689835D01*
X134463752Y-143668220D01*
X134187315Y-143761901D01*
G37*
X134187315Y-143761901D02*
X134105266Y-143827400D01*
X134022279Y-143934438D01*
X133971296Y-144079465D01*
X133945046Y-144302590D01*
X133936256Y-144643922D01*
X133935933Y-144761391D01*
X133928327Y-145169803D01*
X133891280Y-145430584D01*
X133803453Y-145565241D01*
X133643503Y-145595281D01*
X133390089Y-145542213D01*
X133214105Y-145488854D01*
X132692459Y-145391301D01*
X132233678Y-145442107D01*
X131849849Y-145637251D01*
X131553061Y-145972714D01*
X131504636Y-146057376D01*
X131430224Y-146289971D01*
X131372960Y-146646729D01*
X131334164Y-147083218D01*
X131315157Y-147555008D01*
X131317259Y-148017670D01*
X131341791Y-148426773D01*
X131390074Y-148737887D01*
X131421955Y-148839086D01*
X131620348Y-149162580D01*
X131897742Y-149346365D01*
X132275780Y-149403050D01*
X132383442Y-149399172D01*
X132792933Y-149373067D01*
X132835266Y-148094525D01*
X132859789Y-147527121D01*
X132891450Y-147114098D01*
X132931910Y-146840593D01*
X132982832Y-146691742D01*
X132993800Y-146676359D01*
X133192225Y-146556076D01*
X133443686Y-146556649D01*
X133687394Y-146673558D01*
X133751841Y-146732690D01*
X133828373Y-146827133D01*
X133880247Y-146939776D01*
X133912193Y-147103394D01*
X133928942Y-147350758D01*
X133935222Y-147714641D01*
X133935933Y-148008256D01*
X133942593Y-148432396D01*
X133960765Y-148805700D01*
X133987736Y-149089690D01*
X134020794Y-149245888D01*
X134023579Y-149251633D01*
X134164916Y-149358063D01*
X134407998Y-149412755D01*
X134692614Y-149413414D01*
X134958555Y-149357744D01*
X135090035Y-149292279D01*
X135222664Y-149138219D01*
X135327373Y-148874385D01*
X135405884Y-148489068D01*
X135459919Y-147970559D01*
X135491199Y-147307147D01*
X135501443Y-146494400D01*
X135494739Y-145754330D01*
X135471664Y-145163886D01*
X135429034Y-144703874D01*
X135363665Y-144355103D01*
X135272373Y-144098377D01*
X135151974Y-143914506D01*
X135058923Y-143826787D01*
X134775704Y-143689835D01*
X134463752Y-143668220D01*
X134187315Y-143761901D01*
G36*
X159391813Y-143788626D02*
G01*
X159053172Y-143802843D01*
X158802306Y-143833026D01*
X158598478Y-143884484D01*
X158400951Y-143962525D01*
X158362266Y-143980106D01*
X157825844Y-144300763D01*
X157439092Y-144700173D01*
X157201006Y-145179819D01*
X157110580Y-145741186D01*
X157109662Y-145828827D01*
X157176823Y-146370989D01*
X157373106Y-146816725D01*
X157702767Y-147169559D01*
X158170060Y-147433016D01*
X158779239Y-147610620D01*
X159358777Y-147692107D01*
X159667092Y-147731406D01*
X159906613Y-147782936D01*
X160029404Y-147836132D01*
X160033137Y-147840709D01*
X160063383Y-147965956D01*
X160085897Y-148210871D01*
X160096375Y-148525826D01*
X160096637Y-148572967D01*
X160111033Y-148932148D01*
X160149170Y-149193312D01*
X160199533Y-149313800D01*
X160351409Y-149377514D01*
X160601317Y-149407743D01*
X160881111Y-149403553D01*
X161122649Y-149364013D01*
X161213125Y-149327669D01*
X161319016Y-149204900D01*
X161438913Y-148978362D01*
X161509458Y-148801077D01*
X161562970Y-148624888D01*
X161602625Y-148428376D01*
X161630251Y-148184346D01*
X161647673Y-147865603D01*
X161656715Y-147444952D01*
X161659204Y-146895198D01*
X161658612Y-146579067D01*
X161652070Y-145817878D01*
X161641825Y-145528404D01*
X160098715Y-145528404D01*
X160096011Y-145848233D01*
X160076535Y-146155510D01*
X160042103Y-146397508D01*
X159996333Y-146519800D01*
X159810108Y-146603193D01*
X159536676Y-146613009D01*
X159239338Y-146553262D01*
X159027162Y-146458303D01*
X158772172Y-146221255D01*
X158636431Y-145922136D01*
X158620615Y-145603873D01*
X158725401Y-145309393D01*
X158951465Y-145081623D01*
X159004988Y-145051074D01*
X159253892Y-144965437D01*
X159537400Y-144928897D01*
X159801040Y-144940883D01*
X159990338Y-145000825D01*
X160046541Y-145061992D01*
X160082830Y-145248748D01*
X160098715Y-145528404D01*
X161641825Y-145528404D01*
X161630519Y-145209007D01*
X161583032Y-144735488D01*
X161498681Y-144380354D01*
X161366537Y-144126639D01*
X161175672Y-143957377D01*
X160915158Y-143855602D01*
X160574067Y-143804347D01*
X160141471Y-143786647D01*
X159858966Y-143785067D01*
X159391813Y-143788626D01*
G37*
X159391813Y-143788626D02*
X159053172Y-143802843D01*
X158802306Y-143833026D01*
X158598478Y-143884484D01*
X158400951Y-143962525D01*
X158362266Y-143980106D01*
X157825844Y-144300763D01*
X157439092Y-144700173D01*
X157201006Y-145179819D01*
X157110580Y-145741186D01*
X157109662Y-145828827D01*
X157176823Y-146370989D01*
X157373106Y-146816725D01*
X157702767Y-147169559D01*
X158170060Y-147433016D01*
X158779239Y-147610620D01*
X159358777Y-147692107D01*
X159667092Y-147731406D01*
X159906613Y-147782936D01*
X160029404Y-147836132D01*
X160033137Y-147840709D01*
X160063383Y-147965956D01*
X160085897Y-148210871D01*
X160096375Y-148525826D01*
X160096637Y-148572967D01*
X160111033Y-148932148D01*
X160149170Y-149193312D01*
X160199533Y-149313800D01*
X160351409Y-149377514D01*
X160601317Y-149407743D01*
X160881111Y-149403553D01*
X161122649Y-149364013D01*
X161213125Y-149327669D01*
X161319016Y-149204900D01*
X161438913Y-148978362D01*
X161509458Y-148801077D01*
X161562970Y-148624888D01*
X161602625Y-148428376D01*
X161630251Y-148184346D01*
X161647673Y-147865603D01*
X161656715Y-147444952D01*
X161659204Y-146895198D01*
X161658612Y-146579067D01*
X161652070Y-145817878D01*
X161641825Y-145528404D01*
X160098715Y-145528404D01*
X160096011Y-145848233D01*
X160076535Y-146155510D01*
X160042103Y-146397508D01*
X159996333Y-146519800D01*
X159810108Y-146603193D01*
X159536676Y-146613009D01*
X159239338Y-146553262D01*
X159027162Y-146458303D01*
X158772172Y-146221255D01*
X158636431Y-145922136D01*
X158620615Y-145603873D01*
X158725401Y-145309393D01*
X158951465Y-145081623D01*
X159004988Y-145051074D01*
X159253892Y-144965437D01*
X159537400Y-144928897D01*
X159801040Y-144940883D01*
X159990338Y-145000825D01*
X160046541Y-145061992D01*
X160082830Y-145248748D01*
X160098715Y-145528404D01*
X161641825Y-145528404D01*
X161630519Y-145209007D01*
X161583032Y-144735488D01*
X161498681Y-144380354D01*
X161366537Y-144126639D01*
X161175672Y-143957377D01*
X160915158Y-143855602D01*
X160574067Y-143804347D01*
X160141471Y-143786647D01*
X159858966Y-143785067D01*
X159391813Y-143788626D01*
G36*
X129153426Y-145459026D02*
G01*
X128872303Y-145576488D01*
X128844146Y-145597920D01*
X128775002Y-145658679D01*
X128723982Y-145729210D01*
X128688332Y-145834108D01*
X128665298Y-145997969D01*
X128652126Y-146245388D01*
X128646061Y-146600959D01*
X128644350Y-147089278D01*
X128644266Y-147382865D01*
X128644266Y-149005957D01*
X128920769Y-149253012D01*
X129218627Y-149450010D01*
X129498856Y-149483110D01*
X129779792Y-149353882D01*
X129812053Y-149329410D01*
X129974332Y-149167021D01*
X130093497Y-148955046D01*
X130175196Y-148668009D01*
X130225075Y-148280433D01*
X130248782Y-147766843D01*
X130252836Y-147341067D01*
X130248334Y-146889972D01*
X130235928Y-146482363D01*
X130217385Y-146156931D01*
X130194469Y-145952367D01*
X130188207Y-145924440D01*
X130043297Y-145692171D01*
X129789087Y-145529055D01*
X129475742Y-145447277D01*
X129153426Y-145459026D01*
G37*
X129153426Y-145459026D02*
X128872303Y-145576488D01*
X128844146Y-145597920D01*
X128775002Y-145658679D01*
X128723982Y-145729210D01*
X128688332Y-145834108D01*
X128665298Y-145997969D01*
X128652126Y-146245388D01*
X128646061Y-146600959D01*
X128644350Y-147089278D01*
X128644266Y-147382865D01*
X128644266Y-149005957D01*
X128920769Y-149253012D01*
X129218627Y-149450010D01*
X129498856Y-149483110D01*
X129779792Y-149353882D01*
X129812053Y-149329410D01*
X129974332Y-149167021D01*
X130093497Y-148955046D01*
X130175196Y-148668009D01*
X130225075Y-148280433D01*
X130248782Y-147766843D01*
X130252836Y-147341067D01*
X130248334Y-146889972D01*
X130235928Y-146482363D01*
X130217385Y-146156931D01*
X130194469Y-145952367D01*
X130188207Y-145924440D01*
X130043297Y-145692171D01*
X129789087Y-145529055D01*
X129475742Y-145447277D01*
X129153426Y-145459026D01*
G36*
X155093649Y-145502623D02*
G01*
X154895093Y-145635876D01*
X154771300Y-145804442D01*
X154690179Y-146041630D01*
X154635250Y-146396543D01*
X154633076Y-146416577D01*
X154605443Y-146835696D01*
X154601468Y-147312186D01*
X154618467Y-147805263D01*
X154653758Y-148274146D01*
X154704657Y-148678050D01*
X154768480Y-148976194D01*
X154808363Y-149080788D01*
X155024986Y-149343602D01*
X155310348Y-149475897D01*
X155621329Y-149467389D01*
X155880390Y-149336486D01*
X156036142Y-149151297D01*
X156169421Y-148890212D01*
X156197278Y-148809334D01*
X156240590Y-148573478D01*
X156271851Y-148221483D01*
X156291087Y-147792584D01*
X156298327Y-147326016D01*
X156293599Y-146861014D01*
X156276930Y-146436814D01*
X156248350Y-146092649D01*
X156207885Y-145867756D01*
X156195155Y-145833076D01*
X156007806Y-145607192D01*
X155725970Y-145471391D01*
X155403350Y-145433819D01*
X155093649Y-145502623D01*
G37*
X155093649Y-145502623D02*
X154895093Y-145635876D01*
X154771300Y-145804442D01*
X154690179Y-146041630D01*
X154635250Y-146396543D01*
X154633076Y-146416577D01*
X154605443Y-146835696D01*
X154601468Y-147312186D01*
X154618467Y-147805263D01*
X154653758Y-148274146D01*
X154704657Y-148678050D01*
X154768480Y-148976194D01*
X154808363Y-149080788D01*
X155024986Y-149343602D01*
X155310348Y-149475897D01*
X155621329Y-149467389D01*
X155880390Y-149336486D01*
X156036142Y-149151297D01*
X156169421Y-148890212D01*
X156197278Y-148809334D01*
X156240590Y-148573478D01*
X156271851Y-148221483D01*
X156291087Y-147792584D01*
X156298327Y-147326016D01*
X156293599Y-146861014D01*
X156276930Y-146436814D01*
X156248350Y-146092649D01*
X156207885Y-145867756D01*
X156195155Y-145833076D01*
X156007806Y-145607192D01*
X155725970Y-145471391D01*
X155403350Y-145433819D01*
X155093649Y-145502623D01*
G36*
X124911460Y-145485910D02*
G01*
X124392260Y-145691407D01*
X123945598Y-146009372D01*
X123602034Y-146430490D01*
X123524145Y-146574499D01*
X123387101Y-147010536D01*
X123342689Y-147512715D01*
X123393032Y-148004061D01*
X123477110Y-148280057D01*
X123734773Y-148710405D01*
X124110596Y-149095027D01*
X124495600Y-149351537D01*
X124865130Y-149479403D01*
X125324330Y-149548608D01*
X125802629Y-149555232D01*
X126229455Y-149495359D01*
X126361416Y-149455120D01*
X126868217Y-149189132D01*
X127261350Y-148825043D01*
X127539217Y-148388550D01*
X127700222Y-147905353D01*
X127727129Y-147586468D01*
X126158287Y-147586468D01*
X126155178Y-147774149D01*
X126088504Y-148115280D01*
X125928016Y-148376033D01*
X125705300Y-148538296D01*
X125451939Y-148583958D01*
X125199519Y-148494907D01*
X125080222Y-148390573D01*
X124996411Y-148265343D01*
X124946806Y-148090077D01*
X124923643Y-147822418D01*
X124918933Y-147510698D01*
X124938154Y-147059675D01*
X125005212Y-146751503D01*
X125134198Y-146563094D01*
X125339205Y-146471362D01*
X125565104Y-146452067D01*
X125806452Y-146483654D01*
X125977214Y-146592205D01*
X126086619Y-146798402D01*
X126143900Y-147122929D01*
X126158287Y-147586468D01*
X127727129Y-147586468D01*
X127742767Y-147401149D01*
X127665255Y-146901635D01*
X127466090Y-146432510D01*
X127143674Y-146019472D01*
X126696410Y-145688218D01*
X126598671Y-145637373D01*
X126045227Y-145449578D01*
X125472636Y-145402195D01*
X124911460Y-145485910D01*
G37*
X124911460Y-145485910D02*
X124392260Y-145691407D01*
X123945598Y-146009372D01*
X123602034Y-146430490D01*
X123524145Y-146574499D01*
X123387101Y-147010536D01*
X123342689Y-147512715D01*
X123393032Y-148004061D01*
X123477110Y-148280057D01*
X123734773Y-148710405D01*
X124110596Y-149095027D01*
X124495600Y-149351537D01*
X124865130Y-149479403D01*
X125324330Y-149548608D01*
X125802629Y-149555232D01*
X126229455Y-149495359D01*
X126361416Y-149455120D01*
X126868217Y-149189132D01*
X127261350Y-148825043D01*
X127539217Y-148388550D01*
X127700222Y-147905353D01*
X127727129Y-147586468D01*
X126158287Y-147586468D01*
X126155178Y-147774149D01*
X126088504Y-148115280D01*
X125928016Y-148376033D01*
X125705300Y-148538296D01*
X125451939Y-148583958D01*
X125199519Y-148494907D01*
X125080222Y-148390573D01*
X124996411Y-148265343D01*
X124946806Y-148090077D01*
X124923643Y-147822418D01*
X124918933Y-147510698D01*
X124938154Y-147059675D01*
X125005212Y-146751503D01*
X125134198Y-146563094D01*
X125339205Y-146471362D01*
X125565104Y-146452067D01*
X125806452Y-146483654D01*
X125977214Y-146592205D01*
X126086619Y-146798402D01*
X126143900Y-147122929D01*
X126158287Y-147586468D01*
X127727129Y-147586468D01*
X127742767Y-147401149D01*
X127665255Y-146901635D01*
X127466090Y-146432510D01*
X127143674Y-146019472D01*
X126696410Y-145688218D01*
X126598671Y-145637373D01*
X126045227Y-145449578D01*
X125472636Y-145402195D01*
X124911460Y-145485910D01*
G36*
X137449689Y-145406557D02*
G01*
X137087571Y-145512156D01*
X136803770Y-145684911D01*
X136624618Y-145922432D01*
X136576445Y-146222332D01*
X136577645Y-146235892D01*
X136602933Y-146494400D01*
X137283679Y-146503086D01*
X137629682Y-146518937D01*
X137927992Y-146553015D01*
X138123245Y-146598556D01*
X138144731Y-146608269D01*
X138335746Y-146798353D01*
X138453608Y-147092903D01*
X138496621Y-147442867D01*
X138463090Y-147799193D01*
X138351319Y-148112830D01*
X138203245Y-148301063D01*
X138074826Y-148400686D01*
X137946782Y-148456551D01*
X137772719Y-148475924D01*
X137506244Y-148466072D01*
X137266250Y-148447823D01*
X136923434Y-148421882D01*
X136712963Y-148417406D01*
X136598426Y-148441903D01*
X136543411Y-148502884D01*
X136512667Y-148603233D01*
X136506320Y-148923957D01*
X136630327Y-149211376D01*
X136856251Y-149405675D01*
X137052562Y-149464444D01*
X137360415Y-149516527D01*
X137722038Y-149552782D01*
X137823665Y-149558783D01*
X138202962Y-149571030D01*
X138472300Y-149557262D01*
X138690158Y-149508857D01*
X138915015Y-149417191D01*
X138973600Y-149389214D01*
X139377460Y-149152148D01*
X139668229Y-148868174D01*
X139898725Y-148482326D01*
X139947943Y-148375256D01*
X140109786Y-147819917D01*
X140124017Y-147252349D01*
X139996988Y-146707712D01*
X139735048Y-146221162D01*
X139513435Y-145969525D01*
X139154703Y-145703506D01*
X138742631Y-145516589D01*
X138303550Y-145406385D01*
X137863793Y-145370504D01*
X137449689Y-145406557D01*
G37*
X137449689Y-145406557D02*
X137087571Y-145512156D01*
X136803770Y-145684911D01*
X136624618Y-145922432D01*
X136576445Y-146222332D01*
X136577645Y-146235892D01*
X136602933Y-146494400D01*
X137283679Y-146503086D01*
X137629682Y-146518937D01*
X137927992Y-146553015D01*
X138123245Y-146598556D01*
X138144731Y-146608269D01*
X138335746Y-146798353D01*
X138453608Y-147092903D01*
X138496621Y-147442867D01*
X138463090Y-147799193D01*
X138351319Y-148112830D01*
X138203245Y-148301063D01*
X138074826Y-148400686D01*
X137946782Y-148456551D01*
X137772719Y-148475924D01*
X137506244Y-148466072D01*
X137266250Y-148447823D01*
X136923434Y-148421882D01*
X136712963Y-148417406D01*
X136598426Y-148441903D01*
X136543411Y-148502884D01*
X136512667Y-148603233D01*
X136506320Y-148923957D01*
X136630327Y-149211376D01*
X136856251Y-149405675D01*
X137052562Y-149464444D01*
X137360415Y-149516527D01*
X137722038Y-149552782D01*
X137823665Y-149558783D01*
X138202962Y-149571030D01*
X138472300Y-149557262D01*
X138690158Y-149508857D01*
X138915015Y-149417191D01*
X138973600Y-149389214D01*
X139377460Y-149152148D01*
X139668229Y-148868174D01*
X139898725Y-148482326D01*
X139947943Y-148375256D01*
X140109786Y-147819917D01*
X140124017Y-147252349D01*
X139996988Y-146707712D01*
X139735048Y-146221162D01*
X139513435Y-145969525D01*
X139154703Y-145703506D01*
X138742631Y-145516589D01*
X138303550Y-145406385D01*
X137863793Y-145370504D01*
X137449689Y-145406557D01*
G36*
X142613588Y-145410754D02*
G01*
X142042159Y-145514626D01*
X141550792Y-145713065D01*
X141161950Y-145998998D01*
X140898096Y-146365348D01*
X140851112Y-146477375D01*
X140829644Y-146617039D01*
X140810819Y-146888238D01*
X140796548Y-147253173D01*
X140788744Y-147674046D01*
X140788393Y-147717634D01*
X140793859Y-148277766D01*
X140824412Y-148694243D01*
X140887739Y-148991849D01*
X140991523Y-149195366D01*
X141143449Y-149329575D01*
X141311995Y-149406221D01*
X141670624Y-149491319D01*
X141972814Y-149487669D01*
X142180607Y-149398189D01*
X142230680Y-149335566D01*
X142287118Y-149248139D01*
X142361098Y-149220045D01*
X142495854Y-149254577D01*
X142734622Y-149355030D01*
X142786406Y-149377900D01*
X143183104Y-149526383D01*
X143507465Y-149572473D01*
X143820346Y-149518340D01*
X144061976Y-149423407D01*
X144450485Y-149171534D01*
X144697627Y-148829306D01*
X144808236Y-148388993D01*
X144811691Y-148308649D01*
X143470762Y-148308649D01*
X143415228Y-148445796D01*
X143224456Y-148551983D01*
X142950107Y-148546909D01*
X142653622Y-148440194D01*
X142464864Y-148288174D01*
X142352315Y-148094485D01*
X142335469Y-147910815D01*
X142412307Y-147800330D01*
X142576478Y-147765796D01*
X142826288Y-147775849D01*
X143086815Y-147821279D01*
X143283138Y-147892878D01*
X143309488Y-147910605D01*
X143440836Y-148093123D01*
X143470762Y-148308649D01*
X144811691Y-148308649D01*
X144815600Y-148217789D01*
X144794835Y-147882658D01*
X144723322Y-147658188D01*
X144646266Y-147549331D01*
X144325121Y-147301940D01*
X143868324Y-147117013D01*
X143300896Y-147003544D01*
X143066524Y-146981377D01*
X142697022Y-146949824D01*
X142470754Y-146909270D01*
X142361634Y-146848380D01*
X142343580Y-146755819D01*
X142366780Y-146677290D01*
X142508890Y-146533342D01*
X142784561Y-146454370D01*
X143168784Y-146445943D01*
X143333933Y-146461881D01*
X143692021Y-146498239D01*
X144061077Y-146523234D01*
X144201766Y-146528360D01*
X144444164Y-146527885D01*
X144562116Y-146493152D01*
X144600455Y-146394159D01*
X144603933Y-146259239D01*
X144550688Y-145942118D01*
X144378459Y-145715896D01*
X144068504Y-145560568D01*
X143906772Y-145515013D01*
X143242613Y-145408524D01*
X142613588Y-145410754D01*
G37*
X142613588Y-145410754D02*
X142042159Y-145514626D01*
X141550792Y-145713065D01*
X141161950Y-145998998D01*
X140898096Y-146365348D01*
X140851112Y-146477375D01*
X140829644Y-146617039D01*
X140810819Y-146888238D01*
X140796548Y-147253173D01*
X140788744Y-147674046D01*
X140788393Y-147717634D01*
X140793859Y-148277766D01*
X140824412Y-148694243D01*
X140887739Y-148991849D01*
X140991523Y-149195366D01*
X141143449Y-149329575D01*
X141311995Y-149406221D01*
X141670624Y-149491319D01*
X141972814Y-149487669D01*
X142180607Y-149398189D01*
X142230680Y-149335566D01*
X142287118Y-149248139D01*
X142361098Y-149220045D01*
X142495854Y-149254577D01*
X142734622Y-149355030D01*
X142786406Y-149377900D01*
X143183104Y-149526383D01*
X143507465Y-149572473D01*
X143820346Y-149518340D01*
X144061976Y-149423407D01*
X144450485Y-149171534D01*
X144697627Y-148829306D01*
X144808236Y-148388993D01*
X144811691Y-148308649D01*
X143470762Y-148308649D01*
X143415228Y-148445796D01*
X143224456Y-148551983D01*
X142950107Y-148546909D01*
X142653622Y-148440194D01*
X142464864Y-148288174D01*
X142352315Y-148094485D01*
X142335469Y-147910815D01*
X142412307Y-147800330D01*
X142576478Y-147765796D01*
X142826288Y-147775849D01*
X143086815Y-147821279D01*
X143283138Y-147892878D01*
X143309488Y-147910605D01*
X143440836Y-148093123D01*
X143470762Y-148308649D01*
X144811691Y-148308649D01*
X144815600Y-148217789D01*
X144794835Y-147882658D01*
X144723322Y-147658188D01*
X144646266Y-147549331D01*
X144325121Y-147301940D01*
X143868324Y-147117013D01*
X143300896Y-147003544D01*
X143066524Y-146981377D01*
X142697022Y-146949824D01*
X142470754Y-146909270D01*
X142361634Y-146848380D01*
X142343580Y-146755819D01*
X142366780Y-146677290D01*
X142508890Y-146533342D01*
X142784561Y-146454370D01*
X143168784Y-146445943D01*
X143333933Y-146461881D01*
X143692021Y-146498239D01*
X144061077Y-146523234D01*
X144201766Y-146528360D01*
X144444164Y-146527885D01*
X144562116Y-146493152D01*
X144600455Y-146394159D01*
X144603933Y-146259239D01*
X144550688Y-145942118D01*
X144378459Y-145715896D01*
X144068504Y-145560568D01*
X143906772Y-145515013D01*
X143242613Y-145408524D01*
X142613588Y-145410754D01*
G36*
X147375719Y-144172048D02*
G01*
X147128087Y-144281868D01*
X146976262Y-144469771D01*
X146903249Y-144766734D01*
X146889933Y-145057600D01*
X146869415Y-145307552D01*
X146785487Y-145465291D01*
X146604594Y-145559874D01*
X146293177Y-145620356D01*
X146230446Y-145628626D01*
X145899437Y-145701487D01*
X145707289Y-145831663D01*
X145626895Y-146042887D01*
X145619933Y-146163122D01*
X145667289Y-146403921D01*
X145822889Y-146549831D01*
X146107033Y-146614826D01*
X146285653Y-146621400D01*
X146553720Y-146645172D01*
X146730624Y-146734469D01*
X146833865Y-146916264D01*
X146880943Y-147217527D01*
X146889933Y-147552733D01*
X146876300Y-147969102D01*
X146822880Y-148241565D01*
X146710889Y-148394244D01*
X146521544Y-148451258D01*
X146236062Y-148436728D01*
X146204686Y-148432692D01*
X145789266Y-148377585D01*
X145789266Y-148722438D01*
X145849528Y-149073964D01*
X145990726Y-149301501D01*
X146120328Y-149429553D01*
X146268222Y-149504490D01*
X146487145Y-149543917D01*
X146773892Y-149562913D01*
X147169620Y-149563297D01*
X147472916Y-149513604D01*
X147719086Y-149420595D01*
X147990365Y-149246681D01*
X148192310Y-148997860D01*
X148334608Y-148650944D01*
X148426944Y-148182746D01*
X148477138Y-147605829D01*
X148505738Y-147231323D01*
X148544995Y-146928694D01*
X148589264Y-146735125D01*
X148616741Y-146686197D01*
X148766565Y-146639135D01*
X148944915Y-146622697D01*
X149168682Y-146557875D01*
X149300062Y-146396246D01*
X149339555Y-146182584D01*
X149287665Y-145961662D01*
X149144891Y-145778254D01*
X148934374Y-145681280D01*
X148702561Y-145617163D01*
X148567064Y-145514028D01*
X148493366Y-145326857D01*
X148451613Y-145051646D01*
X148405428Y-144683484D01*
X148358311Y-144447861D01*
X148292379Y-144308835D01*
X148189751Y-144230461D01*
X148032545Y-144176796D01*
X148013776Y-144171582D01*
X147589178Y-144132489D01*
X147375719Y-144172048D01*
G37*
X147375719Y-144172048D02*
X147128087Y-144281868D01*
X146976262Y-144469771D01*
X146903249Y-144766734D01*
X146889933Y-145057600D01*
X146869415Y-145307552D01*
X146785487Y-145465291D01*
X146604594Y-145559874D01*
X146293177Y-145620356D01*
X146230446Y-145628626D01*
X145899437Y-145701487D01*
X145707289Y-145831663D01*
X145626895Y-146042887D01*
X145619933Y-146163122D01*
X145667289Y-146403921D01*
X145822889Y-146549831D01*
X146107033Y-146614826D01*
X146285653Y-146621400D01*
X146553720Y-146645172D01*
X146730624Y-146734469D01*
X146833865Y-146916264D01*
X146880943Y-147217527D01*
X146889933Y-147552733D01*
X146876300Y-147969102D01*
X146822880Y-148241565D01*
X146710889Y-148394244D01*
X146521544Y-148451258D01*
X146236062Y-148436728D01*
X146204686Y-148432692D01*
X145789266Y-148377585D01*
X145789266Y-148722438D01*
X145849528Y-149073964D01*
X145990726Y-149301501D01*
X146120328Y-149429553D01*
X146268222Y-149504490D01*
X146487145Y-149543917D01*
X146773892Y-149562913D01*
X147169620Y-149563297D01*
X147472916Y-149513604D01*
X147719086Y-149420595D01*
X147990365Y-149246681D01*
X148192310Y-148997860D01*
X148334608Y-148650944D01*
X148426944Y-148182746D01*
X148477138Y-147605829D01*
X148505738Y-147231323D01*
X148544995Y-146928694D01*
X148589264Y-146735125D01*
X148616741Y-146686197D01*
X148766565Y-146639135D01*
X148944915Y-146622697D01*
X149168682Y-146557875D01*
X149300062Y-146396246D01*
X149339555Y-146182584D01*
X149287665Y-145961662D01*
X149144891Y-145778254D01*
X148934374Y-145681280D01*
X148702561Y-145617163D01*
X148567064Y-145514028D01*
X148493366Y-145326857D01*
X148451613Y-145051646D01*
X148405428Y-144683484D01*
X148358311Y-144447861D01*
X148292379Y-144308835D01*
X148189751Y-144230461D01*
X148032545Y-144176796D01*
X148013776Y-144171582D01*
X147589178Y-144132489D01*
X147375719Y-144172048D01*
G36*
X151057004Y-145395284D02*
G01*
X150626061Y-145497620D01*
X150337837Y-145686707D01*
X150187012Y-145967083D01*
X150160758Y-146159971D01*
X150149600Y-146494400D01*
X151048908Y-146463749D01*
X151501462Y-146455606D01*
X151802627Y-146468401D01*
X151969202Y-146503383D01*
X152011426Y-146535374D01*
X152022518Y-146661781D01*
X151887964Y-146781423D01*
X151599614Y-146899071D01*
X151207933Y-147005752D01*
X150809205Y-147118802D01*
X150527646Y-147248051D01*
X150311275Y-147417580D01*
X150304444Y-147424340D01*
X150057821Y-147772858D01*
X149963659Y-148152639D01*
X150015645Y-148536080D01*
X150207470Y-148895576D01*
X150532821Y-149203526D01*
X150739590Y-149327503D01*
X151134275Y-149469975D01*
X151614630Y-149555998D01*
X152122386Y-149582952D01*
X152599273Y-149548218D01*
X152987025Y-149449178D01*
X153029991Y-149430447D01*
X153352987Y-149199795D01*
X153538231Y-148882582D01*
X153578600Y-148614139D01*
X153562373Y-148481594D01*
X153494713Y-148404393D01*
X153347154Y-148377423D01*
X153091226Y-148395571D01*
X152698462Y-148453723D01*
X152691641Y-148454832D01*
X152313728Y-148515617D01*
X152065675Y-148549745D01*
X151910097Y-148557071D01*
X151809609Y-148537450D01*
X151726828Y-148490739D01*
X151671811Y-148450895D01*
X151572692Y-148316638D01*
X151635379Y-148185521D01*
X151852394Y-148064647D01*
X152178995Y-147969249D01*
X152757882Y-147791176D01*
X153197409Y-147550524D01*
X153490909Y-147253702D01*
X153631712Y-146907123D01*
X153626296Y-146577877D01*
X153489639Y-146232909D01*
X153236569Y-145905444D01*
X152914607Y-145655408D01*
X152879967Y-145636719D01*
X152573513Y-145526333D01*
X152160898Y-145441242D01*
X151704432Y-145389700D01*
X151266427Y-145379959D01*
X151057004Y-145395284D01*
G37*
X151057004Y-145395284D02*
X150626061Y-145497620D01*
X150337837Y-145686707D01*
X150187012Y-145967083D01*
X150160758Y-146159971D01*
X150149600Y-146494400D01*
X151048908Y-146463749D01*
X151501462Y-146455606D01*
X151802627Y-146468401D01*
X151969202Y-146503383D01*
X152011426Y-146535374D01*
X152022518Y-146661781D01*
X151887964Y-146781423D01*
X151599614Y-146899071D01*
X151207933Y-147005752D01*
X150809205Y-147118802D01*
X150527646Y-147248051D01*
X150311275Y-147417580D01*
X150304444Y-147424340D01*
X150057821Y-147772858D01*
X149963659Y-148152639D01*
X150015645Y-148536080D01*
X150207470Y-148895576D01*
X150532821Y-149203526D01*
X150739590Y-149327503D01*
X151134275Y-149469975D01*
X151614630Y-149555998D01*
X152122386Y-149582952D01*
X152599273Y-149548218D01*
X152987025Y-149449178D01*
X153029991Y-149430447D01*
X153352987Y-149199795D01*
X153538231Y-148882582D01*
X153578600Y-148614139D01*
X153562373Y-148481594D01*
X153494713Y-148404393D01*
X153347154Y-148377423D01*
X153091226Y-148395571D01*
X152698462Y-148453723D01*
X152691641Y-148454832D01*
X152313728Y-148515617D01*
X152065675Y-148549745D01*
X151910097Y-148557071D01*
X151809609Y-148537450D01*
X151726828Y-148490739D01*
X151671811Y-148450895D01*
X151572692Y-148316638D01*
X151635379Y-148185521D01*
X151852394Y-148064647D01*
X152178995Y-147969249D01*
X152757882Y-147791176D01*
X153197409Y-147550524D01*
X153490909Y-147253702D01*
X153631712Y-146907123D01*
X153626296Y-146577877D01*
X153489639Y-146232909D01*
X153236569Y-145905444D01*
X152914607Y-145655408D01*
X152879967Y-145636719D01*
X152573513Y-145526333D01*
X152160898Y-145441242D01*
X151704432Y-145389700D01*
X151266427Y-145379959D01*
X151057004Y-145395284D01*
G36*
X182976463Y-123795054D02*
G01*
X182928001Y-123825883D01*
X182915785Y-123893952D01*
X182941210Y-124012395D01*
X183005673Y-124194341D01*
X183110571Y-124452923D01*
X183137202Y-124516606D01*
X183223339Y-124725442D01*
X183292390Y-124899419D01*
X183336135Y-125017406D01*
X183347400Y-125056845D01*
X183306720Y-125054206D01*
X183199401Y-125011098D01*
X183047524Y-124936559D01*
X183026509Y-124925483D01*
X182823883Y-124828752D01*
X182570238Y-124722922D01*
X182312152Y-124627127D01*
X182246211Y-124604962D01*
X181611794Y-124439727D01*
X181004408Y-124364602D01*
X180429530Y-124377047D01*
X179892634Y-124474521D01*
X179399195Y-124654481D01*
X178954690Y-124914388D01*
X178564593Y-125251700D01*
X178234380Y-125663875D01*
X177969526Y-126148372D01*
X177782507Y-126676722D01*
X177723638Y-126973338D01*
X177685848Y-127335657D01*
X177670146Y-127729786D01*
X177677544Y-128121829D01*
X177709052Y-128477892D01*
X177725599Y-128585662D01*
X177758822Y-128787607D01*
X177781246Y-128947694D01*
X177789799Y-129042644D01*
X177787966Y-129058367D01*
X177745150Y-129033180D01*
X177641894Y-128947780D01*
X177490128Y-128813258D01*
X177301785Y-128640709D01*
X177088798Y-128441226D01*
X176863098Y-128225900D01*
X176636617Y-128005826D01*
X176421289Y-127792097D01*
X176367190Y-127737504D01*
X176180585Y-127549414D01*
X176051996Y-127425193D01*
X175968253Y-127356215D01*
X175916186Y-127333858D01*
X175882625Y-127349497D01*
X175854401Y-127394507D01*
X175851587Y-127399869D01*
X175773167Y-127576319D01*
X175679849Y-127828106D01*
X175579067Y-128131452D01*
X175478258Y-128462576D01*
X175384856Y-128797703D01*
X175306298Y-129113053D01*
X175282595Y-129219435D01*
X175241702Y-129415285D01*
X175209885Y-129586374D01*
X175186011Y-129749578D01*
X175168950Y-129921775D01*
X175157568Y-130119842D01*
X175150734Y-130360655D01*
X175147316Y-130661092D01*
X175146183Y-131038030D01*
X175146119Y-131254400D01*
X175147074Y-131691400D01*
X175150504Y-132044934D01*
X175157435Y-132333125D01*
X175168893Y-132574094D01*
X175185903Y-132785966D01*
X175209493Y-132986862D01*
X175240689Y-133194907D01*
X175263803Y-133332553D01*
X175497733Y-134476719D01*
X175801043Y-135586750D01*
X176180695Y-136683968D01*
X176643649Y-137789698D01*
X176889328Y-138312902D01*
X176988848Y-138522767D01*
X177067105Y-138696831D01*
X177115989Y-138816402D01*
X177127814Y-138862520D01*
X177074261Y-138858111D01*
X176941501Y-138832500D01*
X176748730Y-138789752D01*
X176515150Y-138733935D01*
X176481650Y-138725648D01*
X175335424Y-138485125D01*
X174173981Y-138327022D01*
X173009979Y-138251303D01*
X171856072Y-138257932D01*
X170724918Y-138346870D01*
X169629172Y-138518083D01*
X168663257Y-138748227D01*
X168325850Y-138852699D01*
X167965817Y-138981053D01*
X167594800Y-139127483D01*
X167224439Y-139286182D01*
X166866374Y-139451342D01*
X166532246Y-139617157D01*
X166233695Y-139777821D01*
X165982361Y-139927525D01*
X165789886Y-140060462D01*
X165667908Y-140170827D01*
X165628070Y-140252812D01*
X165629673Y-140261571D01*
X165682025Y-140315043D01*
X165799150Y-140391343D01*
X165919548Y-140455676D01*
X166128201Y-140576144D01*
X166242221Y-140685206D01*
X166259419Y-140780322D01*
X166233065Y-140819855D01*
X166184669Y-140852006D01*
X166177000Y-140843216D01*
X166135954Y-140839877D01*
X166024840Y-140878807D01*
X165861701Y-140951684D01*
X165664577Y-141050184D01*
X165451510Y-141165985D01*
X165348876Y-141225268D01*
X164905611Y-141537160D01*
X164549789Y-141892816D01*
X164281618Y-142283916D01*
X164101304Y-142702142D01*
X164009055Y-143139178D01*
X164005078Y-143586705D01*
X164089580Y-144036405D01*
X164262768Y-144479961D01*
X164524848Y-144909054D01*
X164876029Y-145315368D01*
X165239168Y-145632318D01*
X165385314Y-145749635D01*
X165457682Y-145822807D01*
X165466347Y-145865059D01*
X165432432Y-145886105D01*
X165351639Y-145897588D01*
X165188631Y-145908432D01*
X164962790Y-145917771D01*
X164693500Y-145924738D01*
X164504325Y-145927585D01*
X164224294Y-145931685D01*
X163981951Y-145937265D01*
X163794581Y-145943762D01*
X163679470Y-145950617D01*
X163651157Y-145955309D01*
X163657564Y-146011295D01*
X163698633Y-146135435D01*
X163764661Y-146304481D01*
X163845941Y-146495189D01*
X163932768Y-146684310D01*
X164015437Y-146848599D01*
X164049759Y-146910052D01*
X164244655Y-147233236D01*
X164426428Y-147509813D01*
X164612379Y-147761522D01*
X164819809Y-148010097D01*
X165066019Y-148277277D01*
X165368310Y-148584798D01*
X165437368Y-148653400D01*
X165681084Y-148891395D01*
X165915563Y-149114158D01*
X166126061Y-149308148D01*
X166297832Y-149459828D01*
X166416131Y-149555660D01*
X166433148Y-149567657D01*
X166564447Y-149657400D01*
X166657896Y-149723990D01*
X166685000Y-149745457D01*
X166751174Y-149798347D01*
X166870189Y-149882885D01*
X167016561Y-149982176D01*
X167164808Y-150079328D01*
X167289446Y-150157447D01*
X167364992Y-150199639D01*
X167374875Y-150202800D01*
X167440268Y-150233084D01*
X167493800Y-150274569D01*
X167589562Y-150340491D01*
X167760956Y-150439119D01*
X167990765Y-150561911D01*
X168261773Y-150700322D01*
X168556763Y-150845806D01*
X168858518Y-150989819D01*
X169149823Y-151123817D01*
X169413461Y-151239255D01*
X169555200Y-151297650D01*
X170168283Y-151525345D01*
X170818552Y-151736777D01*
X171479227Y-151924692D01*
X172123525Y-152081840D01*
X172724664Y-152200969D01*
X173098118Y-152256938D01*
X173278572Y-152281629D01*
X173450261Y-152308031D01*
X173453718Y-152308609D01*
X173679840Y-152345410D01*
X173856673Y-152370171D01*
X174032292Y-152388683D01*
X174254774Y-152406737D01*
X174290949Y-152409449D01*
X174658907Y-152431292D01*
X175074720Y-152446713D01*
X175510205Y-152455436D01*
X175937176Y-152457184D01*
X176327449Y-152451680D01*
X176652838Y-152438650D01*
X176731504Y-152433388D01*
X177514221Y-152352419D01*
X178296884Y-152229360D01*
X179056681Y-152069249D01*
X179770801Y-151877122D01*
X180416431Y-151658015D01*
X180629600Y-151572706D01*
X180905873Y-151449885D01*
X181210561Y-151302946D01*
X181517028Y-151145784D01*
X181798638Y-150992293D01*
X182028751Y-150856368D01*
X182128200Y-150791003D01*
X182301377Y-150673552D01*
X182456224Y-150575036D01*
X182563075Y-150514220D01*
X182573694Y-150509259D01*
X182650154Y-150456084D01*
X182781259Y-150344731D01*
X182950743Y-150189784D01*
X183142340Y-150005828D01*
X183211925Y-149936979D01*
X183700070Y-149402242D01*
X184092904Y-148864119D01*
X184396490Y-148312462D01*
X184616894Y-147737126D01*
X184692527Y-147459600D01*
X184737123Y-147277413D01*
X184772697Y-147138858D01*
X184792793Y-147068908D01*
X184794457Y-147065253D01*
X184840662Y-147082655D01*
X184961057Y-147139451D01*
X185139834Y-147227888D01*
X185361188Y-147340210D01*
X185485880Y-147404452D01*
X186467783Y-147869204D01*
X187433903Y-148237527D01*
X188391868Y-148511854D01*
X189349305Y-148694623D01*
X189646600Y-148733003D01*
X190042764Y-148763182D01*
X190490963Y-148772105D01*
X190959454Y-148761043D01*
X191416497Y-148731269D01*
X191830352Y-148684053D01*
X192110400Y-148634275D01*
X192893482Y-148414633D01*
X193619076Y-148112781D01*
X194285152Y-147731637D01*
X194889681Y-147274119D01*
X195430632Y-146743147D01*
X195905976Y-146141638D01*
X196313682Y-145472511D01*
X196651720Y-144738685D01*
X196918061Y-143943079D01*
X197110675Y-143088611D01*
X197227531Y-142178200D01*
X197266600Y-141220986D01*
X197251138Y-140868733D01*
X196680882Y-140868733D01*
X196671948Y-141818142D01*
X196581920Y-142721927D01*
X196411128Y-143576408D01*
X196159902Y-144377906D01*
X195828571Y-145122741D01*
X195510615Y-145668349D01*
X195066362Y-146259953D01*
X194554739Y-146778244D01*
X193981546Y-147220401D01*
X193352581Y-147583602D01*
X192673643Y-147865025D01*
X191950530Y-148061849D01*
X191189042Y-148171252D01*
X190394977Y-148190412D01*
X190332400Y-148188054D01*
X190034701Y-148169894D01*
X189708967Y-148141111D01*
X189407797Y-148106652D01*
X189291000Y-148090105D01*
X188410628Y-147911232D01*
X187514468Y-147643012D01*
X186597305Y-147283538D01*
X185653924Y-146830904D01*
X185246889Y-146611592D01*
X185051412Y-146502964D01*
X184358395Y-146502964D01*
X184342353Y-146625852D01*
X184340746Y-146630198D01*
X184315729Y-146734568D01*
X184293948Y-146893360D01*
X184286665Y-146977000D01*
X184216760Y-147396400D01*
X184068313Y-147847722D01*
X183850846Y-148312214D01*
X183573877Y-148771125D01*
X183246928Y-149205704D01*
X183034734Y-149442793D01*
X182881883Y-149591059D01*
X182688745Y-149761587D01*
X182471509Y-149941963D01*
X182246365Y-150119774D01*
X182029504Y-150282605D01*
X181837115Y-150418042D01*
X181685388Y-150513671D01*
X181590514Y-150557077D01*
X181579798Y-150558400D01*
X181508417Y-150586449D01*
X181411151Y-150649719D01*
X181313013Y-150710162D01*
X181149104Y-150797373D01*
X180946656Y-150897206D01*
X180826954Y-150953191D01*
X179974309Y-151294238D01*
X179055618Y-151568865D01*
X178083315Y-151775182D01*
X177069830Y-151911300D01*
X176027595Y-151975327D01*
X174969042Y-151965373D01*
X174406415Y-151929519D01*
X173420449Y-151815200D01*
X172417749Y-151636956D01*
X171424997Y-151401263D01*
X170468874Y-151114596D01*
X169576063Y-150783432D01*
X169428200Y-150721335D01*
X168723128Y-150392535D01*
X168032552Y-150018436D01*
X167370184Y-149608821D01*
X166749735Y-149173469D01*
X166184918Y-148722163D01*
X165689445Y-148264684D01*
X165277028Y-147810815D01*
X165184869Y-147694312D01*
X164962498Y-147400939D01*
X164794898Y-147172629D01*
X164672516Y-146995801D01*
X164585797Y-146856875D01*
X164549673Y-146791376D01*
X164492715Y-146670064D01*
X164486893Y-146607498D01*
X164527456Y-146577070D01*
X164594037Y-146515991D01*
X164602264Y-146483294D01*
X164631762Y-146451355D01*
X164728256Y-146429584D01*
X164903860Y-146416285D01*
X165122964Y-146410397D01*
X165326798Y-146406756D01*
X165609648Y-146400874D01*
X165948965Y-146393264D01*
X166322204Y-146384439D01*
X166706817Y-146374911D01*
X166888200Y-146370256D01*
X167304412Y-146359511D01*
X167751703Y-146348085D01*
X168198949Y-146336763D01*
X168615023Y-146326334D01*
X168968801Y-146317583D01*
X169047200Y-146315668D01*
X169415841Y-146306673D01*
X169845687Y-146296143D01*
X170296375Y-146285069D01*
X170727543Y-146274443D01*
X170977600Y-146268261D01*
X171344915Y-146259340D01*
X171780121Y-146249050D01*
X172249533Y-146238170D01*
X172719466Y-146227479D01*
X173156233Y-146217757D01*
X173238200Y-146215963D01*
X173656814Y-146206572D01*
X174108716Y-146195983D01*
X174562150Y-146184971D01*
X174985359Y-146174310D01*
X175346590Y-146164776D01*
X175422600Y-146162684D01*
X175796359Y-146152598D01*
X176231730Y-146141345D01*
X176688749Y-146129928D01*
X177127452Y-146119352D01*
X177403800Y-146112950D01*
X178134049Y-146095971D01*
X178765655Y-146080337D01*
X179301565Y-146065952D01*
X179744726Y-146052717D01*
X180098086Y-146040538D01*
X180364592Y-146029316D01*
X180547190Y-146018954D01*
X180648829Y-146009357D01*
X180667700Y-146005645D01*
X180726822Y-145960068D01*
X180753067Y-145853162D01*
X180756600Y-145753436D01*
X180756600Y-145605400D01*
X177201951Y-145605400D01*
X176502776Y-145630800D01*
X176235770Y-145640746D01*
X175996206Y-145650124D01*
X175807062Y-145658003D01*
X175691315Y-145663450D01*
X175677749Y-145664245D01*
X175580729Y-145637799D01*
X175468316Y-145579600D01*
X174457400Y-145579600D01*
X174420701Y-145646026D01*
X174408363Y-145655110D01*
X174350051Y-145661763D01*
X174199147Y-145670369D01*
X173964635Y-145680624D01*
X173655497Y-145692224D01*
X173280716Y-145704867D01*
X172849275Y-145718249D01*
X172370158Y-145732065D01*
X171852348Y-145746014D01*
X171322263Y-145759367D01*
X170764331Y-145773025D01*
X170227582Y-145786305D01*
X169722232Y-145798944D01*
X169258499Y-145810681D01*
X168846602Y-145821253D01*
X168496759Y-145830399D01*
X168219187Y-145837856D01*
X168024103Y-145843363D01*
X167929600Y-145846358D01*
X167728958Y-145853086D01*
X167465010Y-145861062D01*
X167176025Y-145869162D01*
X166964400Y-145874681D01*
X166354800Y-145889962D01*
X165923000Y-145623487D01*
X165471350Y-145302768D01*
X165076901Y-144937753D01*
X164756821Y-144545623D01*
X164610624Y-144310000D01*
X164460045Y-143938985D01*
X164392021Y-143542864D01*
X164404541Y-143142104D01*
X164495591Y-142757169D01*
X164663158Y-142408528D01*
X164817696Y-142204921D01*
X164885011Y-142117036D01*
X164907000Y-142066823D01*
X164944537Y-142021163D01*
X165040000Y-141937568D01*
X165167670Y-141835774D01*
X165301828Y-141735517D01*
X165416755Y-141656533D01*
X165486730Y-141618558D01*
X165492421Y-141617600D01*
X165548325Y-141589444D01*
X165651979Y-141518718D01*
X165697790Y-141484570D01*
X165802655Y-141412126D01*
X165864838Y-141383733D01*
X165872200Y-141388813D01*
X165908024Y-141392932D01*
X165986500Y-141352963D01*
X166116939Y-141291788D01*
X166312991Y-141224928D01*
X166539870Y-141162262D01*
X166762788Y-141113670D01*
X166902545Y-141092813D01*
X167035169Y-141071883D01*
X167118871Y-141046032D01*
X167126471Y-141040662D01*
X167186158Y-141040641D01*
X167226426Y-141065460D01*
X167283419Y-141096966D01*
X167294600Y-141087169D01*
X167333990Y-141086860D01*
X167433200Y-141127029D01*
X167485100Y-141153193D01*
X167625391Y-141224307D01*
X167796959Y-141306847D01*
X167973948Y-141388972D01*
X168130500Y-141458839D01*
X168240760Y-141504608D01*
X168277319Y-141516000D01*
X168331638Y-141535780D01*
X168453470Y-141588072D01*
X168618316Y-141662304D01*
X168648765Y-141676303D01*
X168825340Y-141755684D01*
X168969925Y-141816966D01*
X169054414Y-141848295D01*
X169059550Y-141849556D01*
X169134086Y-141886926D01*
X169252492Y-141967356D01*
X169320860Y-142019453D01*
X169442457Y-142110207D01*
X169531885Y-142166884D01*
X169556836Y-142176400D01*
X169611425Y-142205400D01*
X169725718Y-142283032D01*
X169879466Y-142395241D01*
X169959432Y-142455800D01*
X170124997Y-142579431D01*
X170260952Y-142675049D01*
X170346911Y-142728581D01*
X170364196Y-142735200D01*
X170424385Y-142764311D01*
X170532165Y-142838278D01*
X170596600Y-142887600D01*
X170715768Y-142976770D01*
X170801774Y-143031640D01*
X170823598Y-143040000D01*
X170877108Y-143068507D01*
X170991040Y-143144776D01*
X171145053Y-143254924D01*
X171222687Y-143312347D01*
X171391204Y-143436122D01*
X171531646Y-143535354D01*
X171622284Y-143594854D01*
X171640554Y-143604447D01*
X171705409Y-143641672D01*
X171838391Y-143727949D01*
X172027710Y-143855009D01*
X172261579Y-144014587D01*
X172528207Y-144198417D01*
X172815805Y-144398231D01*
X173112585Y-144605764D01*
X173406758Y-144812749D01*
X173686534Y-145010920D01*
X173940125Y-145192011D01*
X174155741Y-145347754D01*
X174321594Y-145469884D01*
X174425893Y-145550134D01*
X174457400Y-145579600D01*
X175468316Y-145579600D01*
X175411013Y-145549933D01*
X175166815Y-145399609D01*
X174846352Y-145185785D01*
X174788749Y-145146210D01*
X174516825Y-144958891D01*
X174248217Y-144774094D01*
X174004474Y-144606628D01*
X173807144Y-144471300D01*
X173705152Y-144401565D01*
X173515423Y-144269738D01*
X173283884Y-144105354D01*
X173050141Y-143936625D01*
X172965379Y-143874590D01*
X172779152Y-143740714D01*
X172615228Y-143628477D01*
X172495871Y-143552834D01*
X172453057Y-143530495D01*
X172389293Y-143490127D01*
X172387797Y-143467070D01*
X172445670Y-143470268D01*
X172565928Y-143507592D01*
X172676014Y-143551386D01*
X172823812Y-143607481D01*
X172931928Y-143634679D01*
X172968372Y-143631561D01*
X173028143Y-143631456D01*
X173068426Y-143656260D01*
X173125494Y-143688915D01*
X173136600Y-143680488D01*
X173177669Y-143685051D01*
X173285484Y-143727877D01*
X173436963Y-143799763D01*
X173441400Y-143802000D01*
X173593731Y-143874536D01*
X173703014Y-143918259D01*
X173746168Y-143923965D01*
X173746200Y-143923511D01*
X173777122Y-143921963D01*
X173813308Y-143946853D01*
X173886191Y-143988602D01*
X174030465Y-144057696D01*
X174223274Y-144143533D01*
X174384808Y-144212029D01*
X174596568Y-144301601D01*
X174774724Y-144379988D01*
X174897367Y-144437367D01*
X174940000Y-144460907D01*
X175004479Y-144495490D01*
X175142145Y-144560294D01*
X175332610Y-144645965D01*
X175549600Y-144740616D01*
X175815497Y-144856311D01*
X176090936Y-144978400D01*
X176337887Y-145089918D01*
X176475255Y-145153464D01*
X176653692Y-145234594D01*
X176798357Y-145295230D01*
X176883533Y-145324734D01*
X176892299Y-145326000D01*
X176956840Y-145360179D01*
X177051968Y-145444515D01*
X177072220Y-145465700D01*
X177201951Y-145605400D01*
X180756600Y-145605400D01*
X180756600Y-145527319D01*
X179677100Y-145540959D01*
X178597600Y-145554600D01*
X177861000Y-145216519D01*
X177459612Y-145032762D01*
X177035497Y-144839434D01*
X176605749Y-144644260D01*
X176187460Y-144454965D01*
X175797723Y-144279273D01*
X175453630Y-144124910D01*
X175172276Y-143999600D01*
X175016200Y-143930854D01*
X174772631Y-143822971D01*
X174495852Y-143698239D01*
X174244562Y-143583115D01*
X174237791Y-143579974D01*
X174112798Y-143522600D01*
X172831800Y-143522600D01*
X172806400Y-143548000D01*
X172781000Y-143522600D01*
X172806400Y-143497200D01*
X172831800Y-143522600D01*
X174112798Y-143522600D01*
X174056774Y-143496884D01*
X173914472Y-143433240D01*
X173833105Y-143398912D01*
X173822612Y-143395600D01*
X173772426Y-143375305D01*
X173761024Y-143370200D01*
X172425400Y-143370200D01*
X172400000Y-143395600D01*
X172374600Y-143370200D01*
X172400000Y-143344800D01*
X172425400Y-143370200D01*
X173761024Y-143370200D01*
X173649089Y-143320085D01*
X173471306Y-143238440D01*
X173263600Y-143141600D01*
X173050563Y-143042356D01*
X172873537Y-142961273D01*
X172751302Y-142906858D01*
X172702823Y-142887600D01*
X172651646Y-142867425D01*
X172528439Y-142812853D01*
X172353072Y-142732812D01*
X172194050Y-142659000D01*
X171992137Y-142565394D01*
X171827207Y-142490330D01*
X171719050Y-142442728D01*
X171686865Y-142430400D01*
X171636621Y-142410572D01*
X171511434Y-142356231D01*
X171328774Y-142275084D01*
X171106110Y-142174842D01*
X171043861Y-142146621D01*
X170738541Y-142008074D01*
X170451019Y-141877772D01*
X170162455Y-141747204D01*
X169854015Y-141607859D01*
X169506861Y-141451227D01*
X169102157Y-141268796D01*
X168691600Y-141083828D01*
X168407038Y-140955642D01*
X168144827Y-140837516D01*
X167922908Y-140737533D01*
X167759221Y-140663776D01*
X167675600Y-140626084D01*
X167551721Y-140570510D01*
X167373598Y-140490953D01*
X167180300Y-140404861D01*
X167012411Y-140321078D01*
X166890672Y-140242782D01*
X166837995Y-140184971D01*
X166837400Y-140180403D01*
X166841591Y-140169800D01*
X166735800Y-140169800D01*
X166710400Y-140195200D01*
X166685000Y-140169800D01*
X166710400Y-140144400D01*
X166735800Y-140169800D01*
X166841591Y-140169800D01*
X166883973Y-140062599D01*
X167010434Y-139941288D01*
X167196902Y-139832153D01*
X167358280Y-139769563D01*
X167512764Y-139712654D01*
X167618584Y-139657762D01*
X167650200Y-139623205D01*
X167672286Y-139594245D01*
X167684245Y-139602711D01*
X167746954Y-139604234D01*
X167824690Y-139567040D01*
X167936857Y-139513233D01*
X168083601Y-139465012D01*
X168219734Y-139435291D01*
X168291375Y-139433688D01*
X168344160Y-139405413D01*
X168360806Y-139383361D01*
X168440388Y-139319632D01*
X168468086Y-139310766D01*
X168720919Y-139254278D01*
X168964324Y-139189411D01*
X168996400Y-139179783D01*
X169152397Y-139136257D01*
X169275800Y-139106940D01*
X169406931Y-139078040D01*
X169575318Y-139038648D01*
X169620191Y-139027804D01*
X169800206Y-138988360D01*
X169970728Y-138957765D01*
X170001191Y-138953437D01*
X170112736Y-138936791D01*
X170164372Y-138925006D01*
X170164800Y-138924395D01*
X170213227Y-138910739D01*
X170349467Y-138891970D01*
X170559957Y-138869739D01*
X170767863Y-138850981D01*
X170978526Y-138829880D01*
X171176674Y-138804694D01*
X171301263Y-138784210D01*
X171407901Y-138773576D01*
X171597342Y-138765657D01*
X171850817Y-138760789D01*
X172149556Y-138759310D01*
X172474789Y-138761554D01*
X172527000Y-138762266D01*
X172924598Y-138768783D01*
X173240735Y-138776016D01*
X173495551Y-138784961D01*
X173709187Y-138796612D01*
X173901781Y-138811966D01*
X174093473Y-138832017D01*
X174203400Y-138845111D01*
X174365310Y-138864797D01*
X174562174Y-138888476D01*
X174635200Y-138897197D01*
X174909928Y-138930955D01*
X175089535Y-138955565D01*
X175180007Y-138971891D01*
X175194000Y-138977977D01*
X175238216Y-138986816D01*
X175344724Y-138995581D01*
X175346400Y-138995677D01*
X175472546Y-139010469D01*
X175549600Y-139031595D01*
X175643687Y-139052948D01*
X175676600Y-139052687D01*
X175771609Y-139064275D01*
X175911829Y-139100658D01*
X175948710Y-139112546D01*
X176082696Y-139147861D01*
X176176073Y-139154879D01*
X176190010Y-139150456D01*
X176233053Y-139153230D01*
X176235400Y-139165396D01*
X176279769Y-139198570D01*
X176387174Y-139219919D01*
X176393453Y-139220432D01*
X176537126Y-139244401D01*
X176640773Y-139280250D01*
X176727986Y-139305654D01*
X176762121Y-139295945D01*
X176792173Y-139301551D01*
X176794200Y-139318638D01*
X176834859Y-139358087D01*
X176883100Y-139359204D01*
X176991100Y-139371021D01*
X177111700Y-139415803D01*
X177208123Y-139453666D01*
X177251947Y-139449172D01*
X177252178Y-139447204D01*
X177273357Y-139443415D01*
X177290278Y-139464919D01*
X177359039Y-139510217D01*
X177489248Y-139558179D01*
X177556200Y-139576014D01*
X177816939Y-139639503D01*
X178009703Y-139692899D01*
X178165990Y-139746790D01*
X178317297Y-139811767D01*
X178453970Y-139877877D01*
X178614086Y-139951584D01*
X178736721Y-139997106D01*
X178796197Y-140004970D01*
X178796870Y-140004396D01*
X178823965Y-140013937D01*
X178826200Y-140034333D01*
X178867350Y-140086474D01*
X178904424Y-140093600D01*
X178997389Y-140115662D01*
X179131905Y-140170549D01*
X179171124Y-140189753D01*
X179293894Y-140248855D01*
X179373735Y-140280752D01*
X179385000Y-140282698D01*
X179438909Y-140305670D01*
X179548428Y-140367848D01*
X179625291Y-140415145D01*
X179757835Y-140493638D01*
X179856332Y-140542618D01*
X179884369Y-140550800D01*
X179948562Y-140578308D01*
X180061387Y-140648134D01*
X180126679Y-140693504D01*
X180325454Y-140824250D01*
X180479124Y-140899852D01*
X180566100Y-140914464D01*
X180602946Y-140944554D01*
X180604200Y-140957199D01*
X180645346Y-141002268D01*
X180680400Y-141008000D01*
X180748004Y-141035430D01*
X180756600Y-141058800D01*
X180795795Y-141107458D01*
X180811551Y-141109600D01*
X180878764Y-141139689D01*
X180993177Y-141217091D01*
X181083483Y-141287400D01*
X181212666Y-141385996D01*
X181314250Y-141450560D01*
X181352890Y-141465200D01*
X181415079Y-141503679D01*
X181491175Y-141596238D01*
X181491417Y-141596607D01*
X181558474Y-141679917D01*
X181603219Y-141702098D01*
X181604509Y-141701024D01*
X181650516Y-141718182D01*
X181731630Y-141794236D01*
X181757481Y-141823753D01*
X181848579Y-141912697D01*
X181918365Y-141947627D01*
X181929631Y-141944938D01*
X181969263Y-141959141D01*
X181975800Y-141995601D01*
X182001835Y-142065114D01*
X182025648Y-142074800D01*
X182090353Y-142109492D01*
X182203848Y-142201111D01*
X182347066Y-142330963D01*
X182500938Y-142480359D01*
X182646397Y-142630608D01*
X182764376Y-142763019D01*
X182835805Y-142858900D01*
X182845620Y-142878559D01*
X182918319Y-142981694D01*
X182991841Y-143025291D01*
X183062219Y-143062254D01*
X183067616Y-143091422D01*
X183083816Y-143149207D01*
X183155938Y-143238101D01*
X183168909Y-143250747D01*
X183255001Y-143347862D01*
X183295329Y-143423738D01*
X183295723Y-143428264D01*
X183337567Y-143494001D01*
X183380071Y-143518360D01*
X183436051Y-143558945D01*
X183433068Y-143580865D01*
X183442014Y-143635711D01*
X183500620Y-143737433D01*
X183533600Y-143783097D01*
X183684084Y-144016012D01*
X183840263Y-144319477D01*
X183989113Y-144664180D01*
X184117611Y-145020810D01*
X184185294Y-145249800D01*
X184244846Y-145507074D01*
X184294585Y-145784584D01*
X184331858Y-146058774D01*
X184354012Y-146306086D01*
X184358395Y-146502964D01*
X185051412Y-146502964D01*
X184834978Y-146382691D01*
X184803999Y-145968645D01*
X184707650Y-145330222D01*
X184515682Y-144680930D01*
X184232253Y-144029053D01*
X183861523Y-143382875D01*
X183407651Y-142750681D01*
X182890572Y-142157267D01*
X182406581Y-141694658D01*
X181841643Y-141231984D01*
X181215626Y-140781813D01*
X180548396Y-140356709D01*
X179859818Y-139969239D01*
X179169760Y-139631968D01*
X178498086Y-139357463D01*
X178419800Y-139329385D01*
X178243506Y-139263552D01*
X178101614Y-139204019D01*
X178026267Y-139164538D01*
X177970075Y-139093214D01*
X177879592Y-138945052D01*
X177762872Y-138735568D01*
X177627967Y-138480277D01*
X177482933Y-138194696D01*
X177335822Y-137894341D01*
X177194689Y-137594729D01*
X177084637Y-137350400D01*
X176666404Y-136311704D01*
X176321315Y-135271409D01*
X176050303Y-134237390D01*
X175854299Y-133217519D01*
X175734239Y-132219672D01*
X175691053Y-131251722D01*
X175725676Y-130321544D01*
X175839040Y-129437010D01*
X176032079Y-128605997D01*
X176043811Y-128566087D01*
X176110502Y-128341574D01*
X183956957Y-135614934D01*
X191803413Y-142888293D01*
X192007707Y-142681447D01*
X192212000Y-142474601D01*
X191551600Y-141855965D01*
X191306631Y-141625680D01*
X191058712Y-141391209D01*
X190829251Y-141172895D01*
X190639655Y-140991081D01*
X190552699Y-140906764D01*
X190214197Y-140576200D01*
X189815536Y-139563059D01*
X189123708Y-139563059D01*
X189112327Y-139572958D01*
X189090076Y-139561809D01*
X189059039Y-139535242D01*
X189050872Y-139527538D01*
X188955943Y-139438241D01*
X188800648Y-139293461D01*
X188599359Y-139106537D01*
X188366448Y-138890812D01*
X188116286Y-138659625D01*
X188046400Y-138595132D01*
X187233600Y-137845296D01*
X187083225Y-137099119D01*
X186480412Y-137099119D01*
X186452609Y-137102514D01*
X186378547Y-137047424D01*
X186245944Y-136927329D01*
X186233995Y-136916171D01*
X186158989Y-136846365D01*
X186014922Y-136712587D01*
X185807269Y-136519911D01*
X185541503Y-136273413D01*
X185223096Y-135978166D01*
X184857522Y-135639245D01*
X184450256Y-135261723D01*
X184006769Y-134850674D01*
X183532536Y-134411174D01*
X183033031Y-133948295D01*
X182513725Y-133467113D01*
X182225415Y-133199987D01*
X178487229Y-129736556D01*
X178372899Y-129351436D01*
X178204012Y-128657924D01*
X178123667Y-128010649D01*
X178131980Y-127405815D01*
X178229066Y-126839626D01*
X178415042Y-126308286D01*
X178469222Y-126193000D01*
X178728114Y-125773735D01*
X179050758Y-125429058D01*
X179430525Y-125160283D01*
X179860786Y-124968723D01*
X180334913Y-124855693D01*
X180846275Y-124822505D01*
X181388245Y-124870475D01*
X181954192Y-125000916D01*
X182537489Y-125215142D01*
X182796149Y-125335402D01*
X183028020Y-125449596D01*
X183214588Y-125545268D01*
X183365019Y-125634470D01*
X183488478Y-125729253D01*
X183594133Y-125841670D01*
X183691148Y-125983771D01*
X183788690Y-126167609D01*
X183895925Y-126405235D01*
X184022018Y-126708701D01*
X184176135Y-127090059D01*
X184227624Y-127217546D01*
X184777648Y-128577566D01*
X185610865Y-132748083D01*
X185738503Y-133386649D01*
X185860889Y-133998351D01*
X185976498Y-134575605D01*
X186083806Y-135110826D01*
X186181288Y-135596432D01*
X186267421Y-136024836D01*
X186340680Y-136388457D01*
X186399541Y-136679708D01*
X186442480Y-136891006D01*
X186467971Y-137014768D01*
X186474236Y-137043762D01*
X186480412Y-137099119D01*
X187083225Y-137099119D01*
X186638580Y-134892748D01*
X186531276Y-134358223D01*
X186430548Y-133852437D01*
X186338122Y-133384328D01*
X186255725Y-132962834D01*
X186185083Y-132596892D01*
X186127922Y-132295440D01*
X186085969Y-132067415D01*
X186060950Y-131921755D01*
X186054380Y-131868124D01*
X186074429Y-131903027D01*
X186129380Y-132025557D01*
X186216462Y-132228984D01*
X186332904Y-132506577D01*
X186475934Y-132851607D01*
X186642783Y-133257342D01*
X186830678Y-133717052D01*
X187036850Y-134224007D01*
X187258526Y-134771476D01*
X187492936Y-135352730D01*
X187653872Y-135753077D01*
X187935476Y-136454718D01*
X188181203Y-137067748D01*
X188393137Y-137597796D01*
X188573363Y-138050492D01*
X188723963Y-138431468D01*
X188847022Y-138746354D01*
X188944624Y-139000779D01*
X189018852Y-139200374D01*
X189071791Y-139350769D01*
X189105524Y-139457595D01*
X189122135Y-139526481D01*
X189123708Y-139563059D01*
X189815536Y-139563059D01*
X187335737Y-133261000D01*
X187010803Y-132435334D01*
X186725907Y-131711600D01*
X186039800Y-131711600D01*
X186021214Y-131753414D01*
X186005934Y-131745466D01*
X185999854Y-131685178D01*
X186005934Y-131677733D01*
X186036134Y-131684706D01*
X186039800Y-131711600D01*
X186725907Y-131711600D01*
X186695600Y-131634610D01*
X186392173Y-130864011D01*
X186102566Y-130128720D01*
X185828823Y-129433918D01*
X185572987Y-128784789D01*
X185337103Y-128186516D01*
X185123215Y-127644281D01*
X184933368Y-127163267D01*
X184769604Y-126748657D01*
X184633969Y-126405634D01*
X184528507Y-126139380D01*
X184455260Y-125955078D01*
X184416274Y-125857911D01*
X184410548Y-125844200D01*
X184346779Y-125697014D01*
X184268852Y-125504609D01*
X184184461Y-125287657D01*
X184101299Y-125066835D01*
X184027056Y-124862814D01*
X183969426Y-124696270D01*
X183936101Y-124587878D01*
X183931682Y-124557185D01*
X183989572Y-124560677D01*
X184125022Y-124593762D01*
X184320322Y-124650728D01*
X184557760Y-124725862D01*
X184819628Y-124813454D01*
X185088216Y-124907792D01*
X185345814Y-125003164D01*
X185494587Y-125061249D01*
X186504442Y-125517170D01*
X187499229Y-126067373D01*
X188473138Y-126704964D01*
X189420356Y-127423049D01*
X190335073Y-128214732D01*
X191211477Y-129073118D01*
X192043757Y-129991313D01*
X192826101Y-130962423D01*
X193552698Y-131979552D01*
X194217736Y-133035805D01*
X194815405Y-134124289D01*
X195339892Y-135238107D01*
X195785387Y-136370365D01*
X196146078Y-137514169D01*
X196217820Y-137783557D01*
X196454148Y-138847761D01*
X196608392Y-139877380D01*
X196680882Y-140868733D01*
X197251138Y-140868733D01*
X197217780Y-140108831D01*
X197073748Y-138979883D01*
X196838154Y-137840794D01*
X196514645Y-136698218D01*
X196106867Y-135558806D01*
X195618470Y-134429212D01*
X195053098Y-133316089D01*
X194414402Y-132226088D01*
X193706027Y-131165864D01*
X192931621Y-130142068D01*
X192094832Y-129161354D01*
X191199306Y-128230374D01*
X190248693Y-127355781D01*
X189246638Y-126544227D01*
X189201053Y-126509792D01*
X188358454Y-125918382D01*
X187473205Y-125378149D01*
X186564754Y-124899178D01*
X185652547Y-124491555D01*
X184756033Y-124165363D01*
X184567331Y-124106877D01*
X184282493Y-124027183D01*
X183976529Y-123951178D01*
X183674218Y-123884099D01*
X183400337Y-123831180D01*
X183179665Y-123797656D01*
X183059774Y-123788334D01*
X182976463Y-123795054D01*
G37*
X182976463Y-123795054D02*
X182928001Y-123825883D01*
X182915785Y-123893952D01*
X182941210Y-124012395D01*
X183005673Y-124194341D01*
X183110571Y-124452923D01*
X183137202Y-124516606D01*
X183223339Y-124725442D01*
X183292390Y-124899419D01*
X183336135Y-125017406D01*
X183347400Y-125056845D01*
X183306720Y-125054206D01*
X183199401Y-125011098D01*
X183047524Y-124936559D01*
X183026509Y-124925483D01*
X182823883Y-124828752D01*
X182570238Y-124722922D01*
X182312152Y-124627127D01*
X182246211Y-124604962D01*
X181611794Y-124439727D01*
X181004408Y-124364602D01*
X180429530Y-124377047D01*
X179892634Y-124474521D01*
X179399195Y-124654481D01*
X178954690Y-124914388D01*
X178564593Y-125251700D01*
X178234380Y-125663875D01*
X177969526Y-126148372D01*
X177782507Y-126676722D01*
X177723638Y-126973338D01*
X177685848Y-127335657D01*
X177670146Y-127729786D01*
X177677544Y-128121829D01*
X177709052Y-128477892D01*
X177725599Y-128585662D01*
X177758822Y-128787607D01*
X177781246Y-128947694D01*
X177789799Y-129042644D01*
X177787966Y-129058367D01*
X177745150Y-129033180D01*
X177641894Y-128947780D01*
X177490128Y-128813258D01*
X177301785Y-128640709D01*
X177088798Y-128441226D01*
X176863098Y-128225900D01*
X176636617Y-128005826D01*
X176421289Y-127792097D01*
X176367190Y-127737504D01*
X176180585Y-127549414D01*
X176051996Y-127425193D01*
X175968253Y-127356215D01*
X175916186Y-127333858D01*
X175882625Y-127349497D01*
X175854401Y-127394507D01*
X175851587Y-127399869D01*
X175773167Y-127576319D01*
X175679849Y-127828106D01*
X175579067Y-128131452D01*
X175478258Y-128462576D01*
X175384856Y-128797703D01*
X175306298Y-129113053D01*
X175282595Y-129219435D01*
X175241702Y-129415285D01*
X175209885Y-129586374D01*
X175186011Y-129749578D01*
X175168950Y-129921775D01*
X175157568Y-130119842D01*
X175150734Y-130360655D01*
X175147316Y-130661092D01*
X175146183Y-131038030D01*
X175146119Y-131254400D01*
X175147074Y-131691400D01*
X175150504Y-132044934D01*
X175157435Y-132333125D01*
X175168893Y-132574094D01*
X175185903Y-132785966D01*
X175209493Y-132986862D01*
X175240689Y-133194907D01*
X175263803Y-133332553D01*
X175497733Y-134476719D01*
X175801043Y-135586750D01*
X176180695Y-136683968D01*
X176643649Y-137789698D01*
X176889328Y-138312902D01*
X176988848Y-138522767D01*
X177067105Y-138696831D01*
X177115989Y-138816402D01*
X177127814Y-138862520D01*
X177074261Y-138858111D01*
X176941501Y-138832500D01*
X176748730Y-138789752D01*
X176515150Y-138733935D01*
X176481650Y-138725648D01*
X175335424Y-138485125D01*
X174173981Y-138327022D01*
X173009979Y-138251303D01*
X171856072Y-138257932D01*
X170724918Y-138346870D01*
X169629172Y-138518083D01*
X168663257Y-138748227D01*
X168325850Y-138852699D01*
X167965817Y-138981053D01*
X167594800Y-139127483D01*
X167224439Y-139286182D01*
X166866374Y-139451342D01*
X166532246Y-139617157D01*
X166233695Y-139777821D01*
X165982361Y-139927525D01*
X165789886Y-140060462D01*
X165667908Y-140170827D01*
X165628070Y-140252812D01*
X165629673Y-140261571D01*
X165682025Y-140315043D01*
X165799150Y-140391343D01*
X165919548Y-140455676D01*
X166128201Y-140576144D01*
X166242221Y-140685206D01*
X166259419Y-140780322D01*
X166233065Y-140819855D01*
X166184669Y-140852006D01*
X166177000Y-140843216D01*
X166135954Y-140839877D01*
X166024840Y-140878807D01*
X165861701Y-140951684D01*
X165664577Y-141050184D01*
X165451510Y-141165985D01*
X165348876Y-141225268D01*
X164905611Y-141537160D01*
X164549789Y-141892816D01*
X164281618Y-142283916D01*
X164101304Y-142702142D01*
X164009055Y-143139178D01*
X164005078Y-143586705D01*
X164089580Y-144036405D01*
X164262768Y-144479961D01*
X164524848Y-144909054D01*
X164876029Y-145315368D01*
X165239168Y-145632318D01*
X165385314Y-145749635D01*
X165457682Y-145822807D01*
X165466347Y-145865059D01*
X165432432Y-145886105D01*
X165351639Y-145897588D01*
X165188631Y-145908432D01*
X164962790Y-145917771D01*
X164693500Y-145924738D01*
X164504325Y-145927585D01*
X164224294Y-145931685D01*
X163981951Y-145937265D01*
X163794581Y-145943762D01*
X163679470Y-145950617D01*
X163651157Y-145955309D01*
X163657564Y-146011295D01*
X163698633Y-146135435D01*
X163764661Y-146304481D01*
X163845941Y-146495189D01*
X163932768Y-146684310D01*
X164015437Y-146848599D01*
X164049759Y-146910052D01*
X164244655Y-147233236D01*
X164426428Y-147509813D01*
X164612379Y-147761522D01*
X164819809Y-148010097D01*
X165066019Y-148277277D01*
X165368310Y-148584798D01*
X165437368Y-148653400D01*
X165681084Y-148891395D01*
X165915563Y-149114158D01*
X166126061Y-149308148D01*
X166297832Y-149459828D01*
X166416131Y-149555660D01*
X166433148Y-149567657D01*
X166564447Y-149657400D01*
X166657896Y-149723990D01*
X166685000Y-149745457D01*
X166751174Y-149798347D01*
X166870189Y-149882885D01*
X167016561Y-149982176D01*
X167164808Y-150079328D01*
X167289446Y-150157447D01*
X167364992Y-150199639D01*
X167374875Y-150202800D01*
X167440268Y-150233084D01*
X167493800Y-150274569D01*
X167589562Y-150340491D01*
X167760956Y-150439119D01*
X167990765Y-150561911D01*
X168261773Y-150700322D01*
X168556763Y-150845806D01*
X168858518Y-150989819D01*
X169149823Y-151123817D01*
X169413461Y-151239255D01*
X169555200Y-151297650D01*
X170168283Y-151525345D01*
X170818552Y-151736777D01*
X171479227Y-151924692D01*
X172123525Y-152081840D01*
X172724664Y-152200969D01*
X173098118Y-152256938D01*
X173278572Y-152281629D01*
X173450261Y-152308031D01*
X173453718Y-152308609D01*
X173679840Y-152345410D01*
X173856673Y-152370171D01*
X174032292Y-152388683D01*
X174254774Y-152406737D01*
X174290949Y-152409449D01*
X174658907Y-152431292D01*
X175074720Y-152446713D01*
X175510205Y-152455436D01*
X175937176Y-152457184D01*
X176327449Y-152451680D01*
X176652838Y-152438650D01*
X176731504Y-152433388D01*
X177514221Y-152352419D01*
X178296884Y-152229360D01*
X179056681Y-152069249D01*
X179770801Y-151877122D01*
X180416431Y-151658015D01*
X180629600Y-151572706D01*
X180905873Y-151449885D01*
X181210561Y-151302946D01*
X181517028Y-151145784D01*
X181798638Y-150992293D01*
X182028751Y-150856368D01*
X182128200Y-150791003D01*
X182301377Y-150673552D01*
X182456224Y-150575036D01*
X182563075Y-150514220D01*
X182573694Y-150509259D01*
X182650154Y-150456084D01*
X182781259Y-150344731D01*
X182950743Y-150189784D01*
X183142340Y-150005828D01*
X183211925Y-149936979D01*
X183700070Y-149402242D01*
X184092904Y-148864119D01*
X184396490Y-148312462D01*
X184616894Y-147737126D01*
X184692527Y-147459600D01*
X184737123Y-147277413D01*
X184772697Y-147138858D01*
X184792793Y-147068908D01*
X184794457Y-147065253D01*
X184840662Y-147082655D01*
X184961057Y-147139451D01*
X185139834Y-147227888D01*
X185361188Y-147340210D01*
X185485880Y-147404452D01*
X186467783Y-147869204D01*
X187433903Y-148237527D01*
X188391868Y-148511854D01*
X189349305Y-148694623D01*
X189646600Y-148733003D01*
X190042764Y-148763182D01*
X190490963Y-148772105D01*
X190959454Y-148761043D01*
X191416497Y-148731269D01*
X191830352Y-148684053D01*
X192110400Y-148634275D01*
X192893482Y-148414633D01*
X193619076Y-148112781D01*
X194285152Y-147731637D01*
X194889681Y-147274119D01*
X195430632Y-146743147D01*
X195905976Y-146141638D01*
X196313682Y-145472511D01*
X196651720Y-144738685D01*
X196918061Y-143943079D01*
X197110675Y-143088611D01*
X197227531Y-142178200D01*
X197266600Y-141220986D01*
X197251138Y-140868733D01*
X196680882Y-140868733D01*
X196671948Y-141818142D01*
X196581920Y-142721927D01*
X196411128Y-143576408D01*
X196159902Y-144377906D01*
X195828571Y-145122741D01*
X195510615Y-145668349D01*
X195066362Y-146259953D01*
X194554739Y-146778244D01*
X193981546Y-147220401D01*
X193352581Y-147583602D01*
X192673643Y-147865025D01*
X191950530Y-148061849D01*
X191189042Y-148171252D01*
X190394977Y-148190412D01*
X190332400Y-148188054D01*
X190034701Y-148169894D01*
X189708967Y-148141111D01*
X189407797Y-148106652D01*
X189291000Y-148090105D01*
X188410628Y-147911232D01*
X187514468Y-147643012D01*
X186597305Y-147283538D01*
X185653924Y-146830904D01*
X185246889Y-146611592D01*
X185051412Y-146502964D01*
X184358395Y-146502964D01*
X184342353Y-146625852D01*
X184340746Y-146630198D01*
X184315729Y-146734568D01*
X184293948Y-146893360D01*
X184286665Y-146977000D01*
X184216760Y-147396400D01*
X184068313Y-147847722D01*
X183850846Y-148312214D01*
X183573877Y-148771125D01*
X183246928Y-149205704D01*
X183034734Y-149442793D01*
X182881883Y-149591059D01*
X182688745Y-149761587D01*
X182471509Y-149941963D01*
X182246365Y-150119774D01*
X182029504Y-150282605D01*
X181837115Y-150418042D01*
X181685388Y-150513671D01*
X181590514Y-150557077D01*
X181579798Y-150558400D01*
X181508417Y-150586449D01*
X181411151Y-150649719D01*
X181313013Y-150710162D01*
X181149104Y-150797373D01*
X180946656Y-150897206D01*
X180826954Y-150953191D01*
X179974309Y-151294238D01*
X179055618Y-151568865D01*
X178083315Y-151775182D01*
X177069830Y-151911300D01*
X176027595Y-151975327D01*
X174969042Y-151965373D01*
X174406415Y-151929519D01*
X173420449Y-151815200D01*
X172417749Y-151636956D01*
X171424997Y-151401263D01*
X170468874Y-151114596D01*
X169576063Y-150783432D01*
X169428200Y-150721335D01*
X168723128Y-150392535D01*
X168032552Y-150018436D01*
X167370184Y-149608821D01*
X166749735Y-149173469D01*
X166184918Y-148722163D01*
X165689445Y-148264684D01*
X165277028Y-147810815D01*
X165184869Y-147694312D01*
X164962498Y-147400939D01*
X164794898Y-147172629D01*
X164672516Y-146995801D01*
X164585797Y-146856875D01*
X164549673Y-146791376D01*
X164492715Y-146670064D01*
X164486893Y-146607498D01*
X164527456Y-146577070D01*
X164594037Y-146515991D01*
X164602264Y-146483294D01*
X164631762Y-146451355D01*
X164728256Y-146429584D01*
X164903860Y-146416285D01*
X165122964Y-146410397D01*
X165326798Y-146406756D01*
X165609648Y-146400874D01*
X165948965Y-146393264D01*
X166322204Y-146384439D01*
X166706817Y-146374911D01*
X166888200Y-146370256D01*
X167304412Y-146359511D01*
X167751703Y-146348085D01*
X168198949Y-146336763D01*
X168615023Y-146326334D01*
X168968801Y-146317583D01*
X169047200Y-146315668D01*
X169415841Y-146306673D01*
X169845687Y-146296143D01*
X170296375Y-146285069D01*
X170727543Y-146274443D01*
X170977600Y-146268261D01*
X171344915Y-146259340D01*
X171780121Y-146249050D01*
X172249533Y-146238170D01*
X172719466Y-146227479D01*
X173156233Y-146217757D01*
X173238200Y-146215963D01*
X173656814Y-146206572D01*
X174108716Y-146195983D01*
X174562150Y-146184971D01*
X174985359Y-146174310D01*
X175346590Y-146164776D01*
X175422600Y-146162684D01*
X175796359Y-146152598D01*
X176231730Y-146141345D01*
X176688749Y-146129928D01*
X177127452Y-146119352D01*
X177403800Y-146112950D01*
X178134049Y-146095971D01*
X178765655Y-146080337D01*
X179301565Y-146065952D01*
X179744726Y-146052717D01*
X180098086Y-146040538D01*
X180364592Y-146029316D01*
X180547190Y-146018954D01*
X180648829Y-146009357D01*
X180667700Y-146005645D01*
X180726822Y-145960068D01*
X180753067Y-145853162D01*
X180756600Y-145753436D01*
X180756600Y-145605400D01*
X177201951Y-145605400D01*
X176502776Y-145630800D01*
X176235770Y-145640746D01*
X175996206Y-145650124D01*
X175807062Y-145658003D01*
X175691315Y-145663450D01*
X175677749Y-145664245D01*
X175580729Y-145637799D01*
X175468316Y-145579600D01*
X174457400Y-145579600D01*
X174420701Y-145646026D01*
X174408363Y-145655110D01*
X174350051Y-145661763D01*
X174199147Y-145670369D01*
X173964635Y-145680624D01*
X173655497Y-145692224D01*
X173280716Y-145704867D01*
X172849275Y-145718249D01*
X172370158Y-145732065D01*
X171852348Y-145746014D01*
X171322263Y-145759367D01*
X170764331Y-145773025D01*
X170227582Y-145786305D01*
X169722232Y-145798944D01*
X169258499Y-145810681D01*
X168846602Y-145821253D01*
X168496759Y-145830399D01*
X168219187Y-145837856D01*
X168024103Y-145843363D01*
X167929600Y-145846358D01*
X167728958Y-145853086D01*
X167465010Y-145861062D01*
X167176025Y-145869162D01*
X166964400Y-145874681D01*
X166354800Y-145889962D01*
X165923000Y-145623487D01*
X165471350Y-145302768D01*
X165076901Y-144937753D01*
X164756821Y-144545623D01*
X164610624Y-144310000D01*
X164460045Y-143938985D01*
X164392021Y-143542864D01*
X164404541Y-143142104D01*
X164495591Y-142757169D01*
X164663158Y-142408528D01*
X164817696Y-142204921D01*
X164885011Y-142117036D01*
X164907000Y-142066823D01*
X164944537Y-142021163D01*
X165040000Y-141937568D01*
X165167670Y-141835774D01*
X165301828Y-141735517D01*
X165416755Y-141656533D01*
X165486730Y-141618558D01*
X165492421Y-141617600D01*
X165548325Y-141589444D01*
X165651979Y-141518718D01*
X165697790Y-141484570D01*
X165802655Y-141412126D01*
X165864838Y-141383733D01*
X165872200Y-141388813D01*
X165908024Y-141392932D01*
X165986500Y-141352963D01*
X166116939Y-141291788D01*
X166312991Y-141224928D01*
X166539870Y-141162262D01*
X166762788Y-141113670D01*
X166902545Y-141092813D01*
X167035169Y-141071883D01*
X167118871Y-141046032D01*
X167126471Y-141040662D01*
X167186158Y-141040641D01*
X167226426Y-141065460D01*
X167283419Y-141096966D01*
X167294600Y-141087169D01*
X167333990Y-141086860D01*
X167433200Y-141127029D01*
X167485100Y-141153193D01*
X167625391Y-141224307D01*
X167796959Y-141306847D01*
X167973948Y-141388972D01*
X168130500Y-141458839D01*
X168240760Y-141504608D01*
X168277319Y-141516000D01*
X168331638Y-141535780D01*
X168453470Y-141588072D01*
X168618316Y-141662304D01*
X168648765Y-141676303D01*
X168825340Y-141755684D01*
X168969925Y-141816966D01*
X169054414Y-141848295D01*
X169059550Y-141849556D01*
X169134086Y-141886926D01*
X169252492Y-141967356D01*
X169320860Y-142019453D01*
X169442457Y-142110207D01*
X169531885Y-142166884D01*
X169556836Y-142176400D01*
X169611425Y-142205400D01*
X169725718Y-142283032D01*
X169879466Y-142395241D01*
X169959432Y-142455800D01*
X170124997Y-142579431D01*
X170260952Y-142675049D01*
X170346911Y-142728581D01*
X170364196Y-142735200D01*
X170424385Y-142764311D01*
X170532165Y-142838278D01*
X170596600Y-142887600D01*
X170715768Y-142976770D01*
X170801774Y-143031640D01*
X170823598Y-143040000D01*
X170877108Y-143068507D01*
X170991040Y-143144776D01*
X171145053Y-143254924D01*
X171222687Y-143312347D01*
X171391204Y-143436122D01*
X171531646Y-143535354D01*
X171622284Y-143594854D01*
X171640554Y-143604447D01*
X171705409Y-143641672D01*
X171838391Y-143727949D01*
X172027710Y-143855009D01*
X172261579Y-144014587D01*
X172528207Y-144198417D01*
X172815805Y-144398231D01*
X173112585Y-144605764D01*
X173406758Y-144812749D01*
X173686534Y-145010920D01*
X173940125Y-145192011D01*
X174155741Y-145347754D01*
X174321594Y-145469884D01*
X174425893Y-145550134D01*
X174457400Y-145579600D01*
X175468316Y-145579600D01*
X175411013Y-145549933D01*
X175166815Y-145399609D01*
X174846352Y-145185785D01*
X174788749Y-145146210D01*
X174516825Y-144958891D01*
X174248217Y-144774094D01*
X174004474Y-144606628D01*
X173807144Y-144471300D01*
X173705152Y-144401565D01*
X173515423Y-144269738D01*
X173283884Y-144105354D01*
X173050141Y-143936625D01*
X172965379Y-143874590D01*
X172779152Y-143740714D01*
X172615228Y-143628477D01*
X172495871Y-143552834D01*
X172453057Y-143530495D01*
X172389293Y-143490127D01*
X172387797Y-143467070D01*
X172445670Y-143470268D01*
X172565928Y-143507592D01*
X172676014Y-143551386D01*
X172823812Y-143607481D01*
X172931928Y-143634679D01*
X172968372Y-143631561D01*
X173028143Y-143631456D01*
X173068426Y-143656260D01*
X173125494Y-143688915D01*
X173136600Y-143680488D01*
X173177669Y-143685051D01*
X173285484Y-143727877D01*
X173436963Y-143799763D01*
X173441400Y-143802000D01*
X173593731Y-143874536D01*
X173703014Y-143918259D01*
X173746168Y-143923965D01*
X173746200Y-143923511D01*
X173777122Y-143921963D01*
X173813308Y-143946853D01*
X173886191Y-143988602D01*
X174030465Y-144057696D01*
X174223274Y-144143533D01*
X174384808Y-144212029D01*
X174596568Y-144301601D01*
X174774724Y-144379988D01*
X174897367Y-144437367D01*
X174940000Y-144460907D01*
X175004479Y-144495490D01*
X175142145Y-144560294D01*
X175332610Y-144645965D01*
X175549600Y-144740616D01*
X175815497Y-144856311D01*
X176090936Y-144978400D01*
X176337887Y-145089918D01*
X176475255Y-145153464D01*
X176653692Y-145234594D01*
X176798357Y-145295230D01*
X176883533Y-145324734D01*
X176892299Y-145326000D01*
X176956840Y-145360179D01*
X177051968Y-145444515D01*
X177072220Y-145465700D01*
X177201951Y-145605400D01*
X180756600Y-145605400D01*
X180756600Y-145527319D01*
X179677100Y-145540959D01*
X178597600Y-145554600D01*
X177861000Y-145216519D01*
X177459612Y-145032762D01*
X177035497Y-144839434D01*
X176605749Y-144644260D01*
X176187460Y-144454965D01*
X175797723Y-144279273D01*
X175453630Y-144124910D01*
X175172276Y-143999600D01*
X175016200Y-143930854D01*
X174772631Y-143822971D01*
X174495852Y-143698239D01*
X174244562Y-143583115D01*
X174237791Y-143579974D01*
X174112798Y-143522600D01*
X172831800Y-143522600D01*
X172806400Y-143548000D01*
X172781000Y-143522600D01*
X172806400Y-143497200D01*
X172831800Y-143522600D01*
X174112798Y-143522600D01*
X174056774Y-143496884D01*
X173914472Y-143433240D01*
X173833105Y-143398912D01*
X173822612Y-143395600D01*
X173772426Y-143375305D01*
X173761024Y-143370200D01*
X172425400Y-143370200D01*
X172400000Y-143395600D01*
X172374600Y-143370200D01*
X172400000Y-143344800D01*
X172425400Y-143370200D01*
X173761024Y-143370200D01*
X173649089Y-143320085D01*
X173471306Y-143238440D01*
X173263600Y-143141600D01*
X173050563Y-143042356D01*
X172873537Y-142961273D01*
X172751302Y-142906858D01*
X172702823Y-142887600D01*
X172651646Y-142867425D01*
X172528439Y-142812853D01*
X172353072Y-142732812D01*
X172194050Y-142659000D01*
X171992137Y-142565394D01*
X171827207Y-142490330D01*
X171719050Y-142442728D01*
X171686865Y-142430400D01*
X171636621Y-142410572D01*
X171511434Y-142356231D01*
X171328774Y-142275084D01*
X171106110Y-142174842D01*
X171043861Y-142146621D01*
X170738541Y-142008074D01*
X170451019Y-141877772D01*
X170162455Y-141747204D01*
X169854015Y-141607859D01*
X169506861Y-141451227D01*
X169102157Y-141268796D01*
X168691600Y-141083828D01*
X168407038Y-140955642D01*
X168144827Y-140837516D01*
X167922908Y-140737533D01*
X167759221Y-140663776D01*
X167675600Y-140626084D01*
X167551721Y-140570510D01*
X167373598Y-140490953D01*
X167180300Y-140404861D01*
X167012411Y-140321078D01*
X166890672Y-140242782D01*
X166837995Y-140184971D01*
X166837400Y-140180403D01*
X166841591Y-140169800D01*
X166735800Y-140169800D01*
X166710400Y-140195200D01*
X166685000Y-140169800D01*
X166710400Y-140144400D01*
X166735800Y-140169800D01*
X166841591Y-140169800D01*
X166883973Y-140062599D01*
X167010434Y-139941288D01*
X167196902Y-139832153D01*
X167358280Y-139769563D01*
X167512764Y-139712654D01*
X167618584Y-139657762D01*
X167650200Y-139623205D01*
X167672286Y-139594245D01*
X167684245Y-139602711D01*
X167746954Y-139604234D01*
X167824690Y-139567040D01*
X167936857Y-139513233D01*
X168083601Y-139465012D01*
X168219734Y-139435291D01*
X168291375Y-139433688D01*
X168344160Y-139405413D01*
X168360806Y-139383361D01*
X168440388Y-139319632D01*
X168468086Y-139310766D01*
X168720919Y-139254278D01*
X168964324Y-139189411D01*
X168996400Y-139179783D01*
X169152397Y-139136257D01*
X169275800Y-139106940D01*
X169406931Y-139078040D01*
X169575318Y-139038648D01*
X169620191Y-139027804D01*
X169800206Y-138988360D01*
X169970728Y-138957765D01*
X170001191Y-138953437D01*
X170112736Y-138936791D01*
X170164372Y-138925006D01*
X170164800Y-138924395D01*
X170213227Y-138910739D01*
X170349467Y-138891970D01*
X170559957Y-138869739D01*
X170767863Y-138850981D01*
X170978526Y-138829880D01*
X171176674Y-138804694D01*
X171301263Y-138784210D01*
X171407901Y-138773576D01*
X171597342Y-138765657D01*
X171850817Y-138760789D01*
X172149556Y-138759310D01*
X172474789Y-138761554D01*
X172527000Y-138762266D01*
X172924598Y-138768783D01*
X173240735Y-138776016D01*
X173495551Y-138784961D01*
X173709187Y-138796612D01*
X173901781Y-138811966D01*
X174093473Y-138832017D01*
X174203400Y-138845111D01*
X174365310Y-138864797D01*
X174562174Y-138888476D01*
X174635200Y-138897197D01*
X174909928Y-138930955D01*
X175089535Y-138955565D01*
X175180007Y-138971891D01*
X175194000Y-138977977D01*
X175238216Y-138986816D01*
X175344724Y-138995581D01*
X175346400Y-138995677D01*
X175472546Y-139010469D01*
X175549600Y-139031595D01*
X175643687Y-139052948D01*
X175676600Y-139052687D01*
X175771609Y-139064275D01*
X175911829Y-139100658D01*
X175948710Y-139112546D01*
X176082696Y-139147861D01*
X176176073Y-139154879D01*
X176190010Y-139150456D01*
X176233053Y-139153230D01*
X176235400Y-139165396D01*
X176279769Y-139198570D01*
X176387174Y-139219919D01*
X176393453Y-139220432D01*
X176537126Y-139244401D01*
X176640773Y-139280250D01*
X176727986Y-139305654D01*
X176762121Y-139295945D01*
X176792173Y-139301551D01*
X176794200Y-139318638D01*
X176834859Y-139358087D01*
X176883100Y-139359204D01*
X176991100Y-139371021D01*
X177111700Y-139415803D01*
X177208123Y-139453666D01*
X177251947Y-139449172D01*
X177252178Y-139447204D01*
X177273357Y-139443415D01*
X177290278Y-139464919D01*
X177359039Y-139510217D01*
X177489248Y-139558179D01*
X177556200Y-139576014D01*
X177816939Y-139639503D01*
X178009703Y-139692899D01*
X178165990Y-139746790D01*
X178317297Y-139811767D01*
X178453970Y-139877877D01*
X178614086Y-139951584D01*
X178736721Y-139997106D01*
X178796197Y-140004970D01*
X178796870Y-140004396D01*
X178823965Y-140013937D01*
X178826200Y-140034333D01*
X178867350Y-140086474D01*
X178904424Y-140093600D01*
X178997389Y-140115662D01*
X179131905Y-140170549D01*
X179171124Y-140189753D01*
X179293894Y-140248855D01*
X179373735Y-140280752D01*
X179385000Y-140282698D01*
X179438909Y-140305670D01*
X179548428Y-140367848D01*
X179625291Y-140415145D01*
X179757835Y-140493638D01*
X179856332Y-140542618D01*
X179884369Y-140550800D01*
X179948562Y-140578308D01*
X180061387Y-140648134D01*
X180126679Y-140693504D01*
X180325454Y-140824250D01*
X180479124Y-140899852D01*
X180566100Y-140914464D01*
X180602946Y-140944554D01*
X180604200Y-140957199D01*
X180645346Y-141002268D01*
X180680400Y-141008000D01*
X180748004Y-141035430D01*
X180756600Y-141058800D01*
X180795795Y-141107458D01*
X180811551Y-141109600D01*
X180878764Y-141139689D01*
X180993177Y-141217091D01*
X181083483Y-141287400D01*
X181212666Y-141385996D01*
X181314250Y-141450560D01*
X181352890Y-141465200D01*
X181415079Y-141503679D01*
X181491175Y-141596238D01*
X181491417Y-141596607D01*
X181558474Y-141679917D01*
X181603219Y-141702098D01*
X181604509Y-141701024D01*
X181650516Y-141718182D01*
X181731630Y-141794236D01*
X181757481Y-141823753D01*
X181848579Y-141912697D01*
X181918365Y-141947627D01*
X181929631Y-141944938D01*
X181969263Y-141959141D01*
X181975800Y-141995601D01*
X182001835Y-142065114D01*
X182025648Y-142074800D01*
X182090353Y-142109492D01*
X182203848Y-142201111D01*
X182347066Y-142330963D01*
X182500938Y-142480359D01*
X182646397Y-142630608D01*
X182764376Y-142763019D01*
X182835805Y-142858900D01*
X182845620Y-142878559D01*
X182918319Y-142981694D01*
X182991841Y-143025291D01*
X183062219Y-143062254D01*
X183067616Y-143091422D01*
X183083816Y-143149207D01*
X183155938Y-143238101D01*
X183168909Y-143250747D01*
X183255001Y-143347862D01*
X183295329Y-143423738D01*
X183295723Y-143428264D01*
X183337567Y-143494001D01*
X183380071Y-143518360D01*
X183436051Y-143558945D01*
X183433068Y-143580865D01*
X183442014Y-143635711D01*
X183500620Y-143737433D01*
X183533600Y-143783097D01*
X183684084Y-144016012D01*
X183840263Y-144319477D01*
X183989113Y-144664180D01*
X184117611Y-145020810D01*
X184185294Y-145249800D01*
X184244846Y-145507074D01*
X184294585Y-145784584D01*
X184331858Y-146058774D01*
X184354012Y-146306086D01*
X184358395Y-146502964D01*
X185051412Y-146502964D01*
X184834978Y-146382691D01*
X184803999Y-145968645D01*
X184707650Y-145330222D01*
X184515682Y-144680930D01*
X184232253Y-144029053D01*
X183861523Y-143382875D01*
X183407651Y-142750681D01*
X182890572Y-142157267D01*
X182406581Y-141694658D01*
X181841643Y-141231984D01*
X181215626Y-140781813D01*
X180548396Y-140356709D01*
X179859818Y-139969239D01*
X179169760Y-139631968D01*
X178498086Y-139357463D01*
X178419800Y-139329385D01*
X178243506Y-139263552D01*
X178101614Y-139204019D01*
X178026267Y-139164538D01*
X177970075Y-139093214D01*
X177879592Y-138945052D01*
X177762872Y-138735568D01*
X177627967Y-138480277D01*
X177482933Y-138194696D01*
X177335822Y-137894341D01*
X177194689Y-137594729D01*
X177084637Y-137350400D01*
X176666404Y-136311704D01*
X176321315Y-135271409D01*
X176050303Y-134237390D01*
X175854299Y-133217519D01*
X175734239Y-132219672D01*
X175691053Y-131251722D01*
X175725676Y-130321544D01*
X175839040Y-129437010D01*
X176032079Y-128605997D01*
X176043811Y-128566087D01*
X176110502Y-128341574D01*
X183956957Y-135614934D01*
X191803413Y-142888293D01*
X192007707Y-142681447D01*
X192212000Y-142474601D01*
X191551600Y-141855965D01*
X191306631Y-141625680D01*
X191058712Y-141391209D01*
X190829251Y-141172895D01*
X190639655Y-140991081D01*
X190552699Y-140906764D01*
X190214197Y-140576200D01*
X189815536Y-139563059D01*
X189123708Y-139563059D01*
X189112327Y-139572958D01*
X189090076Y-139561809D01*
X189059039Y-139535242D01*
X189050872Y-139527538D01*
X188955943Y-139438241D01*
X188800648Y-139293461D01*
X188599359Y-139106537D01*
X188366448Y-138890812D01*
X188116286Y-138659625D01*
X188046400Y-138595132D01*
X187233600Y-137845296D01*
X187083225Y-137099119D01*
X186480412Y-137099119D01*
X186452609Y-137102514D01*
X186378547Y-137047424D01*
X186245944Y-136927329D01*
X186233995Y-136916171D01*
X186158989Y-136846365D01*
X186014922Y-136712587D01*
X185807269Y-136519911D01*
X185541503Y-136273413D01*
X185223096Y-135978166D01*
X184857522Y-135639245D01*
X184450256Y-135261723D01*
X184006769Y-134850674D01*
X183532536Y-134411174D01*
X183033031Y-133948295D01*
X182513725Y-133467113D01*
X182225415Y-133199987D01*
X178487229Y-129736556D01*
X178372899Y-129351436D01*
X178204012Y-128657924D01*
X178123667Y-128010649D01*
X178131980Y-127405815D01*
X178229066Y-126839626D01*
X178415042Y-126308286D01*
X178469222Y-126193000D01*
X178728114Y-125773735D01*
X179050758Y-125429058D01*
X179430525Y-125160283D01*
X179860786Y-124968723D01*
X180334913Y-124855693D01*
X180846275Y-124822505D01*
X181388245Y-124870475D01*
X181954192Y-125000916D01*
X182537489Y-125215142D01*
X182796149Y-125335402D01*
X183028020Y-125449596D01*
X183214588Y-125545268D01*
X183365019Y-125634470D01*
X183488478Y-125729253D01*
X183594133Y-125841670D01*
X183691148Y-125983771D01*
X183788690Y-126167609D01*
X183895925Y-126405235D01*
X184022018Y-126708701D01*
X184176135Y-127090059D01*
X184227624Y-127217546D01*
X184777648Y-128577566D01*
X185610865Y-132748083D01*
X185738503Y-133386649D01*
X185860889Y-133998351D01*
X185976498Y-134575605D01*
X186083806Y-135110826D01*
X186181288Y-135596432D01*
X186267421Y-136024836D01*
X186340680Y-136388457D01*
X186399541Y-136679708D01*
X186442480Y-136891006D01*
X186467971Y-137014768D01*
X186474236Y-137043762D01*
X186480412Y-137099119D01*
X187083225Y-137099119D01*
X186638580Y-134892748D01*
X186531276Y-134358223D01*
X186430548Y-133852437D01*
X186338122Y-133384328D01*
X186255725Y-132962834D01*
X186185083Y-132596892D01*
X186127922Y-132295440D01*
X186085969Y-132067415D01*
X186060950Y-131921755D01*
X186054380Y-131868124D01*
X186074429Y-131903027D01*
X186129380Y-132025557D01*
X186216462Y-132228984D01*
X186332904Y-132506577D01*
X186475934Y-132851607D01*
X186642783Y-133257342D01*
X186830678Y-133717052D01*
X187036850Y-134224007D01*
X187258526Y-134771476D01*
X187492936Y-135352730D01*
X187653872Y-135753077D01*
X187935476Y-136454718D01*
X188181203Y-137067748D01*
X188393137Y-137597796D01*
X188573363Y-138050492D01*
X188723963Y-138431468D01*
X188847022Y-138746354D01*
X188944624Y-139000779D01*
X189018852Y-139200374D01*
X189071791Y-139350769D01*
X189105524Y-139457595D01*
X189122135Y-139526481D01*
X189123708Y-139563059D01*
X189815536Y-139563059D01*
X187335737Y-133261000D01*
X187010803Y-132435334D01*
X186725907Y-131711600D01*
X186039800Y-131711600D01*
X186021214Y-131753414D01*
X186005934Y-131745466D01*
X185999854Y-131685178D01*
X186005934Y-131677733D01*
X186036134Y-131684706D01*
X186039800Y-131711600D01*
X186725907Y-131711600D01*
X186695600Y-131634610D01*
X186392173Y-130864011D01*
X186102566Y-130128720D01*
X185828823Y-129433918D01*
X185572987Y-128784789D01*
X185337103Y-128186516D01*
X185123215Y-127644281D01*
X184933368Y-127163267D01*
X184769604Y-126748657D01*
X184633969Y-126405634D01*
X184528507Y-126139380D01*
X184455260Y-125955078D01*
X184416274Y-125857911D01*
X184410548Y-125844200D01*
X184346779Y-125697014D01*
X184268852Y-125504609D01*
X184184461Y-125287657D01*
X184101299Y-125066835D01*
X184027056Y-124862814D01*
X183969426Y-124696270D01*
X183936101Y-124587878D01*
X183931682Y-124557185D01*
X183989572Y-124560677D01*
X184125022Y-124593762D01*
X184320322Y-124650728D01*
X184557760Y-124725862D01*
X184819628Y-124813454D01*
X185088216Y-124907792D01*
X185345814Y-125003164D01*
X185494587Y-125061249D01*
X186504442Y-125517170D01*
X187499229Y-126067373D01*
X188473138Y-126704964D01*
X189420356Y-127423049D01*
X190335073Y-128214732D01*
X191211477Y-129073118D01*
X192043757Y-129991313D01*
X192826101Y-130962423D01*
X193552698Y-131979552D01*
X194217736Y-133035805D01*
X194815405Y-134124289D01*
X195339892Y-135238107D01*
X195785387Y-136370365D01*
X196146078Y-137514169D01*
X196217820Y-137783557D01*
X196454148Y-138847761D01*
X196608392Y-139877380D01*
X196680882Y-140868733D01*
X197251138Y-140868733D01*
X197217780Y-140108831D01*
X197073748Y-138979883D01*
X196838154Y-137840794D01*
X196514645Y-136698218D01*
X196106867Y-135558806D01*
X195618470Y-134429212D01*
X195053098Y-133316089D01*
X194414402Y-132226088D01*
X193706027Y-131165864D01*
X192931621Y-130142068D01*
X192094832Y-129161354D01*
X191199306Y-128230374D01*
X190248693Y-127355781D01*
X189246638Y-126544227D01*
X189201053Y-126509792D01*
X188358454Y-125918382D01*
X187473205Y-125378149D01*
X186564754Y-124899178D01*
X185652547Y-124491555D01*
X184756033Y-124165363D01*
X184567331Y-124106877D01*
X184282493Y-124027183D01*
X183976529Y-123951178D01*
X183674218Y-123884099D01*
X183400337Y-123831180D01*
X183179665Y-123797656D01*
X183059774Y-123788334D01*
X182976463Y-123795054D01*
D11*
X104985000Y-99980000D02*
X104985000Y-91090000D01*
X104604000Y-99980000D02*
X104985000Y-99980000D01*
X100540000Y-99980000D02*
X101556000Y-99980000D01*
X100540000Y-94900000D02*
X100540000Y-99980000D01*
X98635000Y-90709000D02*
X98635000Y-92360000D01*
X98635000Y-88550000D02*
X98635000Y-88931000D01*
X99016000Y-88550000D02*
X98635000Y-88550000D01*
X102445000Y-88550000D02*
X102064000Y-88550000D01*
X98616040Y-92435838D02*
G75*
G02X100540000Y-94900000I-616040J-2464162D01*
G01*
X102445000Y-88550000D02*
G75*
G02X104985000Y-91090000I0J-2540000D01*
G01*
D12*
X111421080Y-64438820D02*
X111421080Y-61938820D01*
X106921080Y-64438820D02*
X111421080Y-64438820D01*
X106921080Y-58938820D02*
X106921080Y-64438820D01*
X106921080Y-58438820D02*
X106921080Y-58938820D01*
X111421080Y-58438820D02*
X106921080Y-58438820D01*
X111421080Y-58938820D02*
X111421080Y-58438820D01*
X111421080Y-61938820D02*
X111421080Y-58938820D01*
X106921080Y-58938820D02*
X106921080Y-61938820D01*
D11*
X48550000Y-22830000D02*
X48250000Y-22830000D01*
X48650000Y-22680000D02*
X48150000Y-22680000D01*
X48750000Y-22530000D02*
X48050000Y-22530000D01*
X48400000Y-23030000D02*
X48900000Y-22380000D01*
X47900000Y-22380000D02*
X48400000Y-23030000D01*
X48900000Y-22380000D02*
X47900000Y-22380000D01*
X44650000Y-22030000D02*
X52150000Y-22030000D01*
X44650000Y-23330000D02*
X44650000Y-22030000D01*
X52150000Y-23330000D02*
X44650000Y-23330000D01*
X52150000Y-22030000D02*
X52150000Y-23330000D01*
X57300000Y-24930000D02*
X57300000Y-25930000D01*
X39500000Y-24930000D02*
X39500000Y-25930000D01*
X57300000Y-24930000D02*
X56300000Y-24930000D01*
X39500000Y-24930000D02*
X40450000Y-24930000D01*
X57300000Y-56930000D02*
X57300000Y-57980000D01*
X39500000Y-56980000D02*
X39500000Y-57980000D01*
X57300000Y-57980000D02*
X56300000Y-57980000D01*
X39500000Y-57980000D02*
X40510000Y-57980000D01*
X35770000Y-130465000D02*
X44660000Y-130465000D01*
X35770000Y-130084000D02*
X35770000Y-130465000D01*
X35770000Y-126020000D02*
X35770000Y-127036000D01*
X40850000Y-126020000D02*
X35770000Y-126020000D01*
X45041000Y-124115000D02*
X43390000Y-124115000D01*
X47200000Y-124115000D02*
X46819000Y-124115000D01*
X47200000Y-124496000D02*
X47200000Y-124115000D01*
X47200000Y-127925000D02*
X47200000Y-127544000D01*
X43314162Y-124096040D02*
G75*
G02X40850000Y-126020000I-2464162J616040D01*
G01*
X47200000Y-127925000D02*
G75*
G02X44660000Y-130465000I-2540000J0D01*
G01*
D12*
X91823733Y-28160000D02*
X92166267Y-28160000D01*
X91823733Y-27140000D02*
X92166267Y-27140000D01*
X104666267Y-28110000D02*
X104323733Y-28110000D01*
X104666267Y-27090000D02*
X104323733Y-27090000D01*
X91823733Y-29800000D02*
X92166267Y-29800000D01*
X91823733Y-28780000D02*
X92166267Y-28780000D01*
X104666267Y-29800000D02*
X104323733Y-29800000D01*
X104666267Y-28780000D02*
X104323733Y-28780000D01*
X30230000Y-34158733D02*
X30230000Y-34501267D01*
X31250000Y-34158733D02*
X31250000Y-34501267D01*
X34706267Y-38790000D02*
X34363733Y-38790000D01*
X34706267Y-37770000D02*
X34363733Y-37770000D01*
D11*
X35770000Y-73315000D02*
X44660000Y-73315000D01*
X35770000Y-72934000D02*
X35770000Y-73315000D01*
X35770000Y-68870000D02*
X35770000Y-69886000D01*
X40850000Y-68870000D02*
X35770000Y-68870000D01*
X45041000Y-66965000D02*
X43390000Y-66965000D01*
X47200000Y-66965000D02*
X46819000Y-66965000D01*
X47200000Y-67346000D02*
X47200000Y-66965000D01*
X47200000Y-70775000D02*
X47200000Y-70394000D01*
X43314162Y-66946040D02*
G75*
G02X40850000Y-68870000I-2464162J616040D01*
G01*
X47200000Y-70775000D02*
G75*
G02X44660000Y-73315000I-2540000J0D01*
G01*
X66250000Y-70775000D02*
G75*
G02X63710000Y-73315000I-2540000J0D01*
G01*
X62364162Y-66946040D02*
G75*
G02X59900000Y-68870000I-2464162J616040D01*
G01*
X66250000Y-70775000D02*
X66250000Y-70394000D01*
X66250000Y-67346000D02*
X66250000Y-66965000D01*
X66250000Y-66965000D02*
X65869000Y-66965000D01*
X64091000Y-66965000D02*
X62440000Y-66965000D01*
X59900000Y-68870000D02*
X54820000Y-68870000D01*
X54820000Y-68870000D02*
X54820000Y-69886000D01*
X54820000Y-72934000D02*
X54820000Y-73315000D01*
X54820000Y-73315000D02*
X63710000Y-73315000D01*
X73870000Y-73315000D02*
X82760000Y-73315000D01*
X73870000Y-72934000D02*
X73870000Y-73315000D01*
X73870000Y-68870000D02*
X73870000Y-69886000D01*
X78950000Y-68870000D02*
X73870000Y-68870000D01*
X83141000Y-66965000D02*
X81490000Y-66965000D01*
X85300000Y-66965000D02*
X84919000Y-66965000D01*
X85300000Y-67346000D02*
X85300000Y-66965000D01*
X85300000Y-70775000D02*
X85300000Y-70394000D01*
X81414162Y-66946040D02*
G75*
G02X78950000Y-68870000I-2464162J616040D01*
G01*
X85300000Y-70775000D02*
G75*
G02X82760000Y-73315000I-2540000J0D01*
G01*
X92920000Y-73315000D02*
X101810000Y-73315000D01*
X92920000Y-72934000D02*
X92920000Y-73315000D01*
X92920000Y-68870000D02*
X92920000Y-69886000D01*
X98000000Y-68870000D02*
X92920000Y-68870000D01*
X102191000Y-66965000D02*
X100540000Y-66965000D01*
X104350000Y-66965000D02*
X103969000Y-66965000D01*
X104350000Y-67346000D02*
X104350000Y-66965000D01*
X104350000Y-70775000D02*
X104350000Y-70394000D01*
X100464162Y-66946040D02*
G75*
G02X98000000Y-68870000I-2464162J616040D01*
G01*
X104350000Y-70775000D02*
G75*
G02X101810000Y-73315000I-2540000J0D01*
G01*
X47200000Y-89825000D02*
G75*
G02X44660000Y-92365000I-2540000J0D01*
G01*
X43314162Y-85996040D02*
G75*
G02X40850000Y-87920000I-2464162J616040D01*
G01*
X47200000Y-89825000D02*
X47200000Y-89444000D01*
X47200000Y-86396000D02*
X47200000Y-86015000D01*
X47200000Y-86015000D02*
X46819000Y-86015000D01*
X45041000Y-86015000D02*
X43390000Y-86015000D01*
X40850000Y-87920000D02*
X35770000Y-87920000D01*
X35770000Y-87920000D02*
X35770000Y-88936000D01*
X35770000Y-91984000D02*
X35770000Y-92365000D01*
X35770000Y-92365000D02*
X44660000Y-92365000D01*
X54820000Y-92365000D02*
X63710000Y-92365000D01*
X54820000Y-91984000D02*
X54820000Y-92365000D01*
X54820000Y-87920000D02*
X54820000Y-88936000D01*
X59900000Y-87920000D02*
X54820000Y-87920000D01*
X64091000Y-86015000D02*
X62440000Y-86015000D01*
X66250000Y-86015000D02*
X65869000Y-86015000D01*
X66250000Y-86396000D02*
X66250000Y-86015000D01*
X66250000Y-89825000D02*
X66250000Y-89444000D01*
X62364162Y-85996040D02*
G75*
G02X59900000Y-87920000I-2464162J616040D01*
G01*
X66250000Y-89825000D02*
G75*
G02X63710000Y-92365000I-2540000J0D01*
G01*
X85300000Y-89825000D02*
G75*
G02X82760000Y-92365000I-2540000J0D01*
G01*
X81414162Y-85996040D02*
G75*
G02X78950000Y-87920000I-2464162J616040D01*
G01*
X85300000Y-89825000D02*
X85300000Y-89444000D01*
X85300000Y-86396000D02*
X85300000Y-86015000D01*
X85300000Y-86015000D02*
X84919000Y-86015000D01*
X83141000Y-86015000D02*
X81490000Y-86015000D01*
X78950000Y-87920000D02*
X73870000Y-87920000D01*
X73870000Y-87920000D02*
X73870000Y-88936000D01*
X73870000Y-91984000D02*
X73870000Y-92365000D01*
X73870000Y-92365000D02*
X82760000Y-92365000D01*
X47200000Y-108875000D02*
G75*
G02X44660000Y-111415000I-2540000J0D01*
G01*
X43314162Y-105046040D02*
G75*
G02X40850000Y-106970000I-2464162J616040D01*
G01*
X47200000Y-108875000D02*
X47200000Y-108494000D01*
X47200000Y-105446000D02*
X47200000Y-105065000D01*
X47200000Y-105065000D02*
X46819000Y-105065000D01*
X45041000Y-105065000D02*
X43390000Y-105065000D01*
X40850000Y-106970000D02*
X35770000Y-106970000D01*
X35770000Y-106970000D02*
X35770000Y-107986000D01*
X35770000Y-111034000D02*
X35770000Y-111415000D01*
X35770000Y-111415000D02*
X44660000Y-111415000D01*
X66250000Y-108875000D02*
G75*
G02X63710000Y-111415000I-2540000J0D01*
G01*
X62364162Y-105046040D02*
G75*
G02X59900000Y-106970000I-2464162J616040D01*
G01*
X66250000Y-108875000D02*
X66250000Y-108494000D01*
X66250000Y-105446000D02*
X66250000Y-105065000D01*
X66250000Y-105065000D02*
X65869000Y-105065000D01*
X64091000Y-105065000D02*
X62440000Y-105065000D01*
X59900000Y-106970000D02*
X54820000Y-106970000D01*
X54820000Y-106970000D02*
X54820000Y-107986000D01*
X54820000Y-111034000D02*
X54820000Y-111415000D01*
X54820000Y-111415000D02*
X63710000Y-111415000D01*
X73870000Y-111415000D02*
X82760000Y-111415000D01*
X73870000Y-111034000D02*
X73870000Y-111415000D01*
X73870000Y-106970000D02*
X73870000Y-107986000D01*
X78950000Y-106970000D02*
X73870000Y-106970000D01*
X83141000Y-105065000D02*
X81490000Y-105065000D01*
X85300000Y-105065000D02*
X84919000Y-105065000D01*
X85300000Y-105446000D02*
X85300000Y-105065000D01*
X85300000Y-108875000D02*
X85300000Y-108494000D01*
X81414162Y-105046040D02*
G75*
G02X78950000Y-106970000I-2464162J616040D01*
G01*
X85300000Y-108875000D02*
G75*
G02X82760000Y-111415000I-2540000J0D01*
G01*
X66250000Y-127925000D02*
G75*
G02X63710000Y-130465000I-2540000J0D01*
G01*
X62364162Y-124096040D02*
G75*
G02X59900000Y-126020000I-2464162J616040D01*
G01*
X66250000Y-127925000D02*
X66250000Y-127544000D01*
X66250000Y-124496000D02*
X66250000Y-124115000D01*
X66250000Y-124115000D02*
X65869000Y-124115000D01*
X64091000Y-124115000D02*
X62440000Y-124115000D01*
X59900000Y-126020000D02*
X54820000Y-126020000D01*
X54820000Y-126020000D02*
X54820000Y-127036000D01*
X54820000Y-130084000D02*
X54820000Y-130465000D01*
X54820000Y-130465000D02*
X63710000Y-130465000D01*
X73870000Y-130465000D02*
X82760000Y-130465000D01*
X73870000Y-130084000D02*
X73870000Y-130465000D01*
X73870000Y-126020000D02*
X73870000Y-127036000D01*
X78950000Y-126020000D02*
X73870000Y-126020000D01*
X83141000Y-124115000D02*
X81490000Y-124115000D01*
X85300000Y-124115000D02*
X84919000Y-124115000D01*
X85300000Y-124496000D02*
X85300000Y-124115000D01*
X85300000Y-127925000D02*
X85300000Y-127544000D01*
X81414162Y-124096040D02*
G75*
G02X78950000Y-126020000I-2464162J616040D01*
G01*
X85300000Y-127925000D02*
G75*
G02X82760000Y-130465000I-2540000J0D01*
G01*
X56720000Y-146975000D02*
G75*
G02X54180000Y-149515000I-2540000J0D01*
G01*
X52834162Y-143146040D02*
G75*
G02X50370000Y-145070000I-2464162J616040D01*
G01*
X56720000Y-146975000D02*
X56720000Y-146594000D01*
X56720000Y-143546000D02*
X56720000Y-143165000D01*
X56720000Y-143165000D02*
X56339000Y-143165000D01*
X54561000Y-143165000D02*
X52910000Y-143165000D01*
X50370000Y-145070000D02*
X45290000Y-145070000D01*
X45290000Y-145070000D02*
X45290000Y-146086000D01*
X45290000Y-149134000D02*
X45290000Y-149515000D01*
X45290000Y-149515000D02*
X54180000Y-149515000D01*
X73870000Y-149515000D02*
X82760000Y-149515000D01*
X73870000Y-149134000D02*
X73870000Y-149515000D01*
X73870000Y-145070000D02*
X73870000Y-146086000D01*
X78950000Y-145070000D02*
X73870000Y-145070000D01*
X83141000Y-143165000D02*
X81490000Y-143165000D01*
X85300000Y-143165000D02*
X84919000Y-143165000D01*
X85300000Y-143546000D02*
X85300000Y-143165000D01*
X85300000Y-146975000D02*
X85300000Y-146594000D01*
X81414162Y-143146040D02*
G75*
G02X78950000Y-145070000I-2464162J616040D01*
G01*
X85300000Y-146975000D02*
G75*
G02X82760000Y-149515000I-2540000J0D01*
G01*
X102445000Y-126660000D02*
G75*
G02X104985000Y-129200000I0J-2540000D01*
G01*
X98616040Y-130545838D02*
G75*
G02X100540000Y-133010000I-616040J-2464162D01*
G01*
X102445000Y-126660000D02*
X102064000Y-126660000D01*
X99016000Y-126660000D02*
X98635000Y-126660000D01*
X98635000Y-126660000D02*
X98635000Y-127041000D01*
X98635000Y-128819000D02*
X98635000Y-130470000D01*
X100540000Y-133010000D02*
X100540000Y-138090000D01*
X100540000Y-138090000D02*
X101556000Y-138090000D01*
X104604000Y-138090000D02*
X104985000Y-138090000D01*
X104985000Y-138090000D02*
X104985000Y-129200000D01*
X38240000Y-24930000D02*
X32240000Y-24930000D01*
X32240000Y-24930000D02*
X32240000Y-36930000D01*
X32240000Y-36930000D02*
X38240000Y-36930000D01*
X38240000Y-36930000D02*
X38240000Y-24930000D01*
X109830000Y-48480000D02*
X109830000Y-54480000D01*
X109830000Y-54480000D02*
X109580000Y-54480000D01*
X109830000Y-48480000D02*
X109580000Y-48480000D01*
X106330000Y-48480000D02*
X106580000Y-48480000D01*
X106330000Y-48480000D02*
X106330000Y-54480000D01*
X106330000Y-54480000D02*
X106580000Y-54480000D01*
X49600000Y-74450000D02*
X50600000Y-74450000D01*
X50100000Y-74550000D02*
X49600000Y-75450000D01*
X50600000Y-75450000D02*
X50100000Y-74550000D01*
X49600000Y-75450000D02*
X50600000Y-75450000D01*
X49350000Y-77650000D02*
X50850000Y-77650000D01*
X49350000Y-72250000D02*
X50850000Y-72250000D01*
X49350000Y-77650000D02*
X49350000Y-72250000D01*
X50850000Y-72250000D02*
X50850000Y-77650000D01*
X69160000Y-72230000D02*
X69160000Y-77630000D01*
X67660000Y-77630000D02*
X67660000Y-72230000D01*
X67660000Y-72230000D02*
X69160000Y-72230000D01*
X67660000Y-77630000D02*
X69160000Y-77630000D01*
X67910000Y-75430000D02*
X68910000Y-75430000D01*
X68910000Y-75430000D02*
X68410000Y-74530000D01*
X68410000Y-74530000D02*
X67910000Y-75430000D01*
X67910000Y-74430000D02*
X68910000Y-74430000D01*
X87390000Y-74445000D02*
X88390000Y-74445000D01*
X87890000Y-74545000D02*
X87390000Y-75445000D01*
X88390000Y-75445000D02*
X87890000Y-74545000D01*
X87390000Y-75445000D02*
X88390000Y-75445000D01*
X87140000Y-77645000D02*
X88640000Y-77645000D01*
X87140000Y-72245000D02*
X88640000Y-72245000D01*
X87140000Y-77645000D02*
X87140000Y-72245000D01*
X88640000Y-72245000D02*
X88640000Y-77645000D01*
X107380000Y-72220000D02*
X107380000Y-77620000D01*
X105880000Y-77620000D02*
X105880000Y-72220000D01*
X105880000Y-72220000D02*
X107380000Y-72220000D01*
X105880000Y-77620000D02*
X107380000Y-77620000D01*
X106130000Y-75420000D02*
X107130000Y-75420000D01*
X107130000Y-75420000D02*
X106630000Y-74520000D01*
X106630000Y-74520000D02*
X106130000Y-75420000D01*
X106130000Y-74420000D02*
X107130000Y-74420000D01*
X49210000Y-93190000D02*
X50210000Y-93190000D01*
X49710000Y-93290000D02*
X49210000Y-94190000D01*
X50210000Y-94190000D02*
X49710000Y-93290000D01*
X49210000Y-94190000D02*
X50210000Y-94190000D01*
X48960000Y-96390000D02*
X50460000Y-96390000D01*
X48960000Y-90990000D02*
X50460000Y-90990000D01*
X48960000Y-96390000D02*
X48960000Y-90990000D01*
X50460000Y-90990000D02*
X50460000Y-96390000D01*
X69700000Y-91040000D02*
X69700000Y-96440000D01*
X68200000Y-96440000D02*
X68200000Y-91040000D01*
X68200000Y-91040000D02*
X69700000Y-91040000D01*
X68200000Y-96440000D02*
X69700000Y-96440000D01*
X68450000Y-94240000D02*
X69450000Y-94240000D01*
X69450000Y-94240000D02*
X68950000Y-93340000D01*
X68950000Y-93340000D02*
X68450000Y-94240000D01*
X68450000Y-93240000D02*
X69450000Y-93240000D01*
X87670000Y-93240000D02*
X88670000Y-93240000D01*
X88170000Y-93340000D02*
X87670000Y-94240000D01*
X88670000Y-94240000D02*
X88170000Y-93340000D01*
X87670000Y-94240000D02*
X88670000Y-94240000D01*
X87420000Y-96440000D02*
X88920000Y-96440000D01*
X87420000Y-91040000D02*
X88920000Y-91040000D01*
X87420000Y-96440000D02*
X87420000Y-91040000D01*
X88920000Y-91040000D02*
X88920000Y-96440000D01*
X100030000Y-50085000D02*
X101030000Y-50085000D01*
X100530000Y-50185000D02*
X100030000Y-51085000D01*
X101030000Y-51085000D02*
X100530000Y-50185000D01*
X100030000Y-51085000D02*
X101030000Y-51085000D01*
X99780000Y-53285000D02*
X101280000Y-53285000D01*
X99780000Y-47885000D02*
X101280000Y-47885000D01*
X99780000Y-53285000D02*
X99780000Y-47885000D01*
X101280000Y-47885000D02*
X101280000Y-53285000D01*
X49390000Y-112470000D02*
X50390000Y-112470000D01*
X49890000Y-112570000D02*
X49390000Y-113470000D01*
X50390000Y-113470000D02*
X49890000Y-112570000D01*
X49390000Y-113470000D02*
X50390000Y-113470000D01*
X49140000Y-115670000D02*
X50640000Y-115670000D01*
X49140000Y-110270000D02*
X50640000Y-110270000D01*
X49140000Y-115670000D02*
X49140000Y-110270000D01*
X50640000Y-110270000D02*
X50640000Y-115670000D01*
X69420000Y-110395000D02*
X69420000Y-115795000D01*
X67920000Y-115795000D02*
X67920000Y-110395000D01*
X67920000Y-110395000D02*
X69420000Y-110395000D01*
X67920000Y-115795000D02*
X69420000Y-115795000D01*
X68170000Y-113595000D02*
X69170000Y-113595000D01*
X69170000Y-113595000D02*
X68670000Y-112695000D01*
X68670000Y-112695000D02*
X68170000Y-113595000D01*
X68170000Y-112595000D02*
X69170000Y-112595000D01*
X87660000Y-112510000D02*
X88660000Y-112510000D01*
X88160000Y-112610000D02*
X87660000Y-113510000D01*
X88660000Y-113510000D02*
X88160000Y-112610000D01*
X87660000Y-113510000D02*
X88660000Y-113510000D01*
X87410000Y-115710000D02*
X88910000Y-115710000D01*
X87410000Y-110310000D02*
X88910000Y-110310000D01*
X87410000Y-115710000D02*
X87410000Y-110310000D01*
X88910000Y-110310000D02*
X88910000Y-115710000D01*
X110480000Y-92600000D02*
X110480000Y-98000000D01*
X108980000Y-98000000D02*
X108980000Y-92600000D01*
X108980000Y-92600000D02*
X110480000Y-92600000D01*
X108980000Y-98000000D02*
X110480000Y-98000000D01*
X109230000Y-95800000D02*
X110230000Y-95800000D01*
X110230000Y-95800000D02*
X109730000Y-94900000D01*
X109730000Y-94900000D02*
X109230000Y-95800000D01*
X109230000Y-94800000D02*
X110230000Y-94800000D01*
X49300000Y-131690000D02*
X50300000Y-131690000D01*
X49800000Y-131790000D02*
X49300000Y-132690000D01*
X50300000Y-132690000D02*
X49800000Y-131790000D01*
X49300000Y-132690000D02*
X50300000Y-132690000D01*
X49050000Y-134890000D02*
X50550000Y-134890000D01*
X49050000Y-129490000D02*
X50550000Y-129490000D01*
X49050000Y-134890000D02*
X49050000Y-129490000D01*
X50550000Y-129490000D02*
X50550000Y-134890000D01*
X69920000Y-129430000D02*
X69920000Y-134830000D01*
X68420000Y-134830000D02*
X68420000Y-129430000D01*
X68420000Y-129430000D02*
X69920000Y-129430000D01*
X68420000Y-134830000D02*
X69920000Y-134830000D01*
X68670000Y-132630000D02*
X69670000Y-132630000D01*
X69670000Y-132630000D02*
X69170000Y-131730000D01*
X69170000Y-131730000D02*
X68670000Y-132630000D01*
X68670000Y-131630000D02*
X69670000Y-131630000D01*
X88950000Y-129460000D02*
X88950000Y-134860000D01*
X87450000Y-134860000D02*
X87450000Y-129460000D01*
X87450000Y-129460000D02*
X88950000Y-129460000D01*
X87450000Y-134860000D02*
X88950000Y-134860000D01*
X87700000Y-132660000D02*
X88700000Y-132660000D01*
X88700000Y-132660000D02*
X88200000Y-131760000D01*
X88200000Y-131760000D02*
X87700000Y-132660000D01*
X87700000Y-131660000D02*
X88700000Y-131660000D01*
X52090000Y-153020000D02*
X52090000Y-154020000D01*
X51990000Y-153520000D02*
X51090000Y-153020000D01*
X51090000Y-154020000D02*
X51990000Y-153520000D01*
X51090000Y-153020000D02*
X51090000Y-154020000D01*
X48890000Y-152770000D02*
X48890000Y-154270000D01*
X54290000Y-152770000D02*
X54290000Y-154270000D01*
X48890000Y-152770000D02*
X54290000Y-152770000D01*
X54290000Y-154270000D02*
X48890000Y-154270000D01*
X88550000Y-148860000D02*
X88550000Y-154260000D01*
X87050000Y-154260000D02*
X87050000Y-148860000D01*
X87050000Y-148860000D02*
X88550000Y-148860000D01*
X87050000Y-154260000D02*
X88550000Y-154260000D01*
X87300000Y-152060000D02*
X88300000Y-152060000D01*
X88300000Y-152060000D02*
X87800000Y-151160000D01*
X87800000Y-151160000D02*
X87300000Y-152060000D01*
X87300000Y-151060000D02*
X88300000Y-151060000D01*
X110720000Y-131540000D02*
X110720000Y-136940000D01*
X109220000Y-136940000D02*
X109220000Y-131540000D01*
X109220000Y-131540000D02*
X110720000Y-131540000D01*
X109220000Y-136940000D02*
X110720000Y-136940000D01*
X109470000Y-134740000D02*
X110470000Y-134740000D01*
X110470000Y-134740000D02*
X109970000Y-133840000D01*
X109970000Y-133840000D02*
X109470000Y-134740000D01*
X109470000Y-133740000D02*
X110470000Y-133740000D01*
X106659761Y-89280476D02*
X106707380Y-89423333D01*
X106707380Y-89661428D01*
X106659761Y-89756666D01*
X106612142Y-89804285D01*
X106516904Y-89851904D01*
X106421666Y-89851904D01*
X106326428Y-89804285D01*
X106278809Y-89756666D01*
X106231190Y-89661428D01*
X106183571Y-89470952D01*
X106135952Y-89375714D01*
X106088333Y-89328095D01*
X105993095Y-89280476D01*
X105897857Y-89280476D01*
X105802619Y-89328095D01*
X105755000Y-89375714D01*
X105707380Y-89470952D01*
X105707380Y-89709047D01*
X105755000Y-89851904D01*
X105707380Y-90185238D02*
X106707380Y-90423333D01*
X105993095Y-90613809D01*
X106707380Y-90804285D01*
X105707380Y-91042380D01*
X106707380Y-91947142D02*
X106707380Y-91375714D01*
X106707380Y-91661428D02*
X105707380Y-91661428D01*
X105850238Y-91566190D01*
X105945476Y-91470952D01*
X105993095Y-91375714D01*
X105802619Y-92328095D02*
X105755000Y-92375714D01*
X105707380Y-92470952D01*
X105707380Y-92709047D01*
X105755000Y-92804285D01*
X105802619Y-92851904D01*
X105897857Y-92899523D01*
X105993095Y-92899523D01*
X106135952Y-92851904D01*
X106707380Y-92280476D01*
X106707380Y-92899523D01*
X109754413Y-64891200D02*
X109754413Y-65605486D01*
X109802032Y-65748343D01*
X109897270Y-65843581D01*
X110040127Y-65891200D01*
X110135365Y-65891200D01*
X109325841Y-64986439D02*
X109278222Y-64938820D01*
X109182984Y-64891200D01*
X108944889Y-64891200D01*
X108849651Y-64938820D01*
X108802032Y-64986439D01*
X108754413Y-65081677D01*
X108754413Y-65176915D01*
X108802032Y-65319772D01*
X109373460Y-65891200D01*
X108754413Y-65891200D01*
D12*
X49985714Y-23869285D02*
X49557142Y-23869285D01*
X49771428Y-24619285D02*
X49771428Y-23869285D01*
X49378571Y-24119285D02*
X49200000Y-24619285D01*
X49021428Y-24119285D02*
X49200000Y-24619285D01*
X49271428Y-24797857D01*
X49307142Y-24833571D01*
X49378571Y-24869285D01*
X48735714Y-24119285D02*
X48735714Y-24869285D01*
X48735714Y-24155000D02*
X48664285Y-24119285D01*
X48521428Y-24119285D01*
X48450000Y-24155000D01*
X48414285Y-24190714D01*
X48378571Y-24262142D01*
X48378571Y-24476428D01*
X48414285Y-24547857D01*
X48450000Y-24583571D01*
X48521428Y-24619285D01*
X48664285Y-24619285D01*
X48735714Y-24583571D01*
X47771428Y-24583571D02*
X47842857Y-24619285D01*
X47985714Y-24619285D01*
X48057142Y-24583571D01*
X48092857Y-24512142D01*
X48092857Y-24226428D01*
X48057142Y-24155000D01*
X47985714Y-24119285D01*
X47842857Y-24119285D01*
X47771428Y-24155000D01*
X47735714Y-24226428D01*
X47735714Y-24297857D01*
X48092857Y-24369285D01*
X46985714Y-24547857D02*
X47021428Y-24583571D01*
X47128571Y-24619285D01*
X47200000Y-24619285D01*
X47307142Y-24583571D01*
X47378571Y-24512142D01*
X47414285Y-24440714D01*
X47450000Y-24297857D01*
X47450000Y-24190714D01*
X47414285Y-24047857D01*
X47378571Y-23976428D01*
X47307142Y-23905000D01*
X47200000Y-23869285D01*
X47128571Y-23869285D01*
X47021428Y-23905000D01*
X46985714Y-23940714D01*
D13*
X39056047Y-54491285D02*
X39056047Y-53741285D01*
X38800809Y-53741285D01*
X38737000Y-53777000D01*
X38705095Y-53812714D01*
X38673190Y-53884142D01*
X38673190Y-53991285D01*
X38705095Y-54062714D01*
X38737000Y-54098428D01*
X38800809Y-54134142D01*
X39056047Y-54134142D01*
X38386047Y-54491285D02*
X38386047Y-53741285D01*
X38067000Y-54491285D02*
X38067000Y-53741285D01*
X37684142Y-54491285D01*
X37684142Y-53741285D01*
X37014142Y-54491285D02*
X37397000Y-54491285D01*
X37205571Y-54491285D02*
X37205571Y-53741285D01*
X37269380Y-53848428D01*
X37333190Y-53919857D01*
X37397000Y-53955571D01*
X36376047Y-54491285D02*
X36758904Y-54491285D01*
X36567476Y-54491285D02*
X36567476Y-53741285D01*
X36631285Y-53848428D01*
X36695095Y-53919857D01*
X36758904Y-53955571D01*
X38870714Y-32195000D02*
X39620714Y-32195000D01*
X39620714Y-31939761D01*
X39585000Y-31875952D01*
X39549285Y-31844047D01*
X39477857Y-31812142D01*
X39370714Y-31812142D01*
X39299285Y-31844047D01*
X39263571Y-31875952D01*
X39227857Y-31939761D01*
X39227857Y-32195000D01*
X38870714Y-31525000D02*
X39620714Y-31525000D01*
X38870714Y-31205952D02*
X39620714Y-31205952D01*
X38870714Y-30823095D01*
X39620714Y-30823095D01*
X39549285Y-30535952D02*
X39585000Y-30504047D01*
X39620714Y-30440238D01*
X39620714Y-30280714D01*
X39585000Y-30216904D01*
X39549285Y-30185000D01*
X39477857Y-30153095D01*
X39406428Y-30153095D01*
X39299285Y-30185000D01*
X38870714Y-30567857D01*
X38870714Y-30153095D01*
X39056047Y-57031285D02*
X39056047Y-56281285D01*
X38800809Y-56281285D01*
X38737000Y-56317000D01*
X38705095Y-56352714D01*
X38673190Y-56424142D01*
X38673190Y-56531285D01*
X38705095Y-56602714D01*
X38737000Y-56638428D01*
X38800809Y-56674142D01*
X39056047Y-56674142D01*
X38386047Y-57031285D02*
X38386047Y-56281285D01*
X38067000Y-57031285D02*
X38067000Y-56281285D01*
X37684142Y-57031285D01*
X37684142Y-56281285D01*
X37014142Y-57031285D02*
X37397000Y-57031285D01*
X37205571Y-57031285D02*
X37205571Y-56281285D01*
X37269380Y-56388428D01*
X37333190Y-56459857D01*
X37397000Y-56495571D01*
X36758904Y-56352714D02*
X36727000Y-56317000D01*
X36663190Y-56281285D01*
X36503666Y-56281285D01*
X36439857Y-56317000D01*
X36407952Y-56352714D01*
X36376047Y-56424142D01*
X36376047Y-56495571D01*
X36407952Y-56602714D01*
X36790809Y-57031285D01*
X36376047Y-57031285D01*
X38991000Y-46819285D02*
X38991000Y-46069285D01*
X38735761Y-46069285D01*
X38671952Y-46105000D01*
X38640047Y-46140714D01*
X38608142Y-46212142D01*
X38608142Y-46319285D01*
X38640047Y-46390714D01*
X38671952Y-46426428D01*
X38735761Y-46462142D01*
X38991000Y-46462142D01*
X38321000Y-46819285D02*
X38321000Y-46069285D01*
X38001952Y-46819285D02*
X38001952Y-46069285D01*
X37619095Y-46819285D01*
X37619095Y-46069285D01*
X37204333Y-46390714D02*
X37268142Y-46355000D01*
X37300047Y-46319285D01*
X37331952Y-46247857D01*
X37331952Y-46212142D01*
X37300047Y-46140714D01*
X37268142Y-46105000D01*
X37204333Y-46069285D01*
X37076714Y-46069285D01*
X37012904Y-46105000D01*
X36981000Y-46140714D01*
X36949095Y-46212142D01*
X36949095Y-46247857D01*
X36981000Y-46319285D01*
X37012904Y-46355000D01*
X37076714Y-46390714D01*
X37204333Y-46390714D01*
X37268142Y-46426428D01*
X37300047Y-46462142D01*
X37331952Y-46533571D01*
X37331952Y-46676428D01*
X37300047Y-46747857D01*
X37268142Y-46783571D01*
X37204333Y-46819285D01*
X37076714Y-46819285D01*
X37012904Y-46783571D01*
X36981000Y-46747857D01*
X36949095Y-46676428D01*
X36949095Y-46533571D01*
X36981000Y-46462142D01*
X37012904Y-46426428D01*
X37076714Y-46390714D01*
X38991000Y-41869285D02*
X38991000Y-41119285D01*
X38735761Y-41119285D01*
X38671952Y-41155000D01*
X38640047Y-41190714D01*
X38608142Y-41262142D01*
X38608142Y-41369285D01*
X38640047Y-41440714D01*
X38671952Y-41476428D01*
X38735761Y-41512142D01*
X38991000Y-41512142D01*
X38321000Y-41869285D02*
X38321000Y-41119285D01*
X38001952Y-41869285D02*
X38001952Y-41119285D01*
X37619095Y-41869285D01*
X37619095Y-41119285D01*
X37012904Y-41119285D02*
X37140523Y-41119285D01*
X37204333Y-41155000D01*
X37236238Y-41190714D01*
X37300047Y-41297857D01*
X37331952Y-41440714D01*
X37331952Y-41726428D01*
X37300047Y-41797857D01*
X37268142Y-41833571D01*
X37204333Y-41869285D01*
X37076714Y-41869285D01*
X37012904Y-41833571D01*
X36981000Y-41797857D01*
X36949095Y-41726428D01*
X36949095Y-41547857D01*
X36981000Y-41476428D01*
X37012904Y-41440714D01*
X37076714Y-41405000D01*
X37204333Y-41405000D01*
X37268142Y-41440714D01*
X37300047Y-41476428D01*
X37331952Y-41547857D01*
X38991000Y-39369285D02*
X38991000Y-38619285D01*
X38735761Y-38619285D01*
X38671952Y-38655000D01*
X38640047Y-38690714D01*
X38608142Y-38762142D01*
X38608142Y-38869285D01*
X38640047Y-38940714D01*
X38671952Y-38976428D01*
X38735761Y-39012142D01*
X38991000Y-39012142D01*
X38321000Y-39369285D02*
X38321000Y-38619285D01*
X38001952Y-39369285D02*
X38001952Y-38619285D01*
X37619095Y-39369285D01*
X37619095Y-38619285D01*
X36981000Y-38619285D02*
X37300047Y-38619285D01*
X37331952Y-38976428D01*
X37300047Y-38940714D01*
X37236238Y-38905000D01*
X37076714Y-38905000D01*
X37012904Y-38940714D01*
X36981000Y-38976428D01*
X36949095Y-39047857D01*
X36949095Y-39226428D01*
X36981000Y-39297857D01*
X37012904Y-39333571D01*
X37076714Y-39369285D01*
X37236238Y-39369285D01*
X37300047Y-39333571D01*
X37331952Y-39297857D01*
X38991000Y-44269285D02*
X38991000Y-43519285D01*
X38735761Y-43519285D01*
X38671952Y-43555000D01*
X38640047Y-43590714D01*
X38608142Y-43662142D01*
X38608142Y-43769285D01*
X38640047Y-43840714D01*
X38671952Y-43876428D01*
X38735761Y-43912142D01*
X38991000Y-43912142D01*
X38321000Y-44269285D02*
X38321000Y-43519285D01*
X38001952Y-44269285D02*
X38001952Y-43519285D01*
X37619095Y-44269285D01*
X37619095Y-43519285D01*
X37363857Y-43519285D02*
X36917190Y-43519285D01*
X37204333Y-44269285D01*
X38850714Y-29555000D02*
X39600714Y-29555000D01*
X39600714Y-29299761D01*
X39565000Y-29235952D01*
X39529285Y-29204047D01*
X39457857Y-29172142D01*
X39350714Y-29172142D01*
X39279285Y-29204047D01*
X39243571Y-29235952D01*
X39207857Y-29299761D01*
X39207857Y-29555000D01*
X38850714Y-28885000D02*
X39600714Y-28885000D01*
X38850714Y-28565952D02*
X39600714Y-28565952D01*
X38850714Y-28183095D01*
X39600714Y-28183095D01*
X38850714Y-27513095D02*
X38850714Y-27895952D01*
X38850714Y-27704523D02*
X39600714Y-27704523D01*
X39493571Y-27768333D01*
X39422142Y-27832142D01*
X39386428Y-27895952D01*
X39675000Y-36910476D02*
X39710714Y-36974285D01*
X39710714Y-37070000D01*
X39675000Y-37165714D01*
X39603571Y-37229523D01*
X39532142Y-37261428D01*
X39389285Y-37293333D01*
X39282142Y-37293333D01*
X39139285Y-37261428D01*
X39067857Y-37229523D01*
X38996428Y-37165714D01*
X38960714Y-37070000D01*
X38960714Y-37006190D01*
X38996428Y-36910476D01*
X39032142Y-36878571D01*
X39282142Y-36878571D01*
X39282142Y-37006190D01*
X38960714Y-36591428D02*
X39710714Y-36591428D01*
X38960714Y-36208571D01*
X39710714Y-36208571D01*
X38960714Y-35889523D02*
X39710714Y-35889523D01*
X39710714Y-35730000D01*
X39675000Y-35634285D01*
X39603571Y-35570476D01*
X39532142Y-35538571D01*
X39389285Y-35506666D01*
X39282142Y-35506666D01*
X39139285Y-35538571D01*
X39067857Y-35570476D01*
X38996428Y-35634285D01*
X38960714Y-35730000D01*
X38960714Y-35889523D01*
X39605000Y-34250476D02*
X39640714Y-34314285D01*
X39640714Y-34410000D01*
X39605000Y-34505714D01*
X39533571Y-34569523D01*
X39462142Y-34601428D01*
X39319285Y-34633333D01*
X39212142Y-34633333D01*
X39069285Y-34601428D01*
X38997857Y-34569523D01*
X38926428Y-34505714D01*
X38890714Y-34410000D01*
X38890714Y-34346190D01*
X38926428Y-34250476D01*
X38962142Y-34218571D01*
X39212142Y-34218571D01*
X39212142Y-34346190D01*
X38890714Y-33931428D02*
X39640714Y-33931428D01*
X38890714Y-33548571D01*
X39640714Y-33548571D01*
X38890714Y-33229523D02*
X39640714Y-33229523D01*
X39640714Y-33070000D01*
X39605000Y-32974285D01*
X39533571Y-32910476D01*
X39462142Y-32878571D01*
X39319285Y-32846666D01*
X39212142Y-32846666D01*
X39069285Y-32878571D01*
X38997857Y-32910476D01*
X38926428Y-32974285D01*
X38890714Y-33070000D01*
X38890714Y-33229523D01*
X38991000Y-49369285D02*
X38991000Y-48619285D01*
X38735761Y-48619285D01*
X38671952Y-48655000D01*
X38640047Y-48690714D01*
X38608142Y-48762142D01*
X38608142Y-48869285D01*
X38640047Y-48940714D01*
X38671952Y-48976428D01*
X38735761Y-49012142D01*
X38991000Y-49012142D01*
X38321000Y-49369285D02*
X38321000Y-48619285D01*
X38001952Y-49369285D02*
X38001952Y-48619285D01*
X37619095Y-49369285D01*
X37619095Y-48619285D01*
X37268142Y-49369285D02*
X37140523Y-49369285D01*
X37076714Y-49333571D01*
X37044809Y-49297857D01*
X36981000Y-49190714D01*
X36949095Y-49047857D01*
X36949095Y-48762142D01*
X36981000Y-48690714D01*
X37012904Y-48655000D01*
X37076714Y-48619285D01*
X37204333Y-48619285D01*
X37268142Y-48655000D01*
X37300047Y-48690714D01*
X37331952Y-48762142D01*
X37331952Y-48940714D01*
X37300047Y-49012142D01*
X37268142Y-49047857D01*
X37204333Y-49083571D01*
X37076714Y-49083571D01*
X37012904Y-49047857D01*
X36981000Y-49012142D01*
X36949095Y-48940714D01*
X39056047Y-51919285D02*
X39056047Y-51169285D01*
X38800809Y-51169285D01*
X38737000Y-51205000D01*
X38705095Y-51240714D01*
X38673190Y-51312142D01*
X38673190Y-51419285D01*
X38705095Y-51490714D01*
X38737000Y-51526428D01*
X38800809Y-51562142D01*
X39056047Y-51562142D01*
X38386047Y-51919285D02*
X38386047Y-51169285D01*
X38067000Y-51919285D02*
X38067000Y-51169285D01*
X37684142Y-51919285D01*
X37684142Y-51169285D01*
X37014142Y-51919285D02*
X37397000Y-51919285D01*
X37205571Y-51919285D02*
X37205571Y-51169285D01*
X37269380Y-51276428D01*
X37333190Y-51347857D01*
X37397000Y-51383571D01*
X36599380Y-51169285D02*
X36535571Y-51169285D01*
X36471761Y-51205000D01*
X36439857Y-51240714D01*
X36407952Y-51312142D01*
X36376047Y-51455000D01*
X36376047Y-51633571D01*
X36407952Y-51776428D01*
X36439857Y-51847857D01*
X36471761Y-51883571D01*
X36535571Y-51919285D01*
X36599380Y-51919285D01*
X36663190Y-51883571D01*
X36695095Y-51847857D01*
X36727000Y-51776428D01*
X36758904Y-51633571D01*
X36758904Y-51455000D01*
X36727000Y-51312142D01*
X36695095Y-51240714D01*
X36663190Y-51205000D01*
X36599380Y-51169285D01*
X60569047Y-54519285D02*
X60569047Y-53769285D01*
X60313809Y-53769285D01*
X60250000Y-53805000D01*
X60218095Y-53840714D01*
X60186190Y-53912142D01*
X60186190Y-54019285D01*
X60218095Y-54090714D01*
X60250000Y-54126428D01*
X60313809Y-54162142D01*
X60569047Y-54162142D01*
X59899047Y-54519285D02*
X59899047Y-53769285D01*
X59580000Y-54519285D02*
X59580000Y-53769285D01*
X59197142Y-54519285D01*
X59197142Y-53769285D01*
X58527142Y-54519285D02*
X58910000Y-54519285D01*
X58718571Y-54519285D02*
X58718571Y-53769285D01*
X58782380Y-53876428D01*
X58846190Y-53947857D01*
X58910000Y-53983571D01*
X57952857Y-54019285D02*
X57952857Y-54519285D01*
X58112380Y-53733571D02*
X58271904Y-54269285D01*
X57857142Y-54269285D01*
X60569047Y-57019285D02*
X60569047Y-56269285D01*
X60313809Y-56269285D01*
X60250000Y-56305000D01*
X60218095Y-56340714D01*
X60186190Y-56412142D01*
X60186190Y-56519285D01*
X60218095Y-56590714D01*
X60250000Y-56626428D01*
X60313809Y-56662142D01*
X60569047Y-56662142D01*
X59899047Y-57019285D02*
X59899047Y-56269285D01*
X59580000Y-57019285D02*
X59580000Y-56269285D01*
X59197142Y-57019285D01*
X59197142Y-56269285D01*
X58527142Y-57019285D02*
X58910000Y-57019285D01*
X58718571Y-57019285D02*
X58718571Y-56269285D01*
X58782380Y-56376428D01*
X58846190Y-56447857D01*
X58910000Y-56483571D01*
X58303809Y-56269285D02*
X57889047Y-56269285D01*
X58112380Y-56555000D01*
X58016666Y-56555000D01*
X57952857Y-56590714D01*
X57920952Y-56626428D01*
X57889047Y-56697857D01*
X57889047Y-56876428D01*
X57920952Y-56947857D01*
X57952857Y-56983571D01*
X58016666Y-57019285D01*
X58208095Y-57019285D01*
X58271904Y-56983571D01*
X58303809Y-56947857D01*
X60569047Y-51969285D02*
X60569047Y-51219285D01*
X60313809Y-51219285D01*
X60250000Y-51255000D01*
X60218095Y-51290714D01*
X60186190Y-51362142D01*
X60186190Y-51469285D01*
X60218095Y-51540714D01*
X60250000Y-51576428D01*
X60313809Y-51612142D01*
X60569047Y-51612142D01*
X59899047Y-51969285D02*
X59899047Y-51219285D01*
X59580000Y-51969285D02*
X59580000Y-51219285D01*
X59197142Y-51969285D01*
X59197142Y-51219285D01*
X58527142Y-51969285D02*
X58910000Y-51969285D01*
X58718571Y-51969285D02*
X58718571Y-51219285D01*
X58782380Y-51326428D01*
X58846190Y-51397857D01*
X58910000Y-51433571D01*
X57920952Y-51219285D02*
X58240000Y-51219285D01*
X58271904Y-51576428D01*
X58240000Y-51540714D01*
X58176190Y-51505000D01*
X58016666Y-51505000D01*
X57952857Y-51540714D01*
X57920952Y-51576428D01*
X57889047Y-51647857D01*
X57889047Y-51826428D01*
X57920952Y-51897857D01*
X57952857Y-51933571D01*
X58016666Y-51969285D01*
X58176190Y-51969285D01*
X58240000Y-51933571D01*
X58271904Y-51897857D01*
X60569047Y-49419285D02*
X60569047Y-48669285D01*
X60313809Y-48669285D01*
X60250000Y-48705000D01*
X60218095Y-48740714D01*
X60186190Y-48812142D01*
X60186190Y-48919285D01*
X60218095Y-48990714D01*
X60250000Y-49026428D01*
X60313809Y-49062142D01*
X60569047Y-49062142D01*
X59899047Y-49419285D02*
X59899047Y-48669285D01*
X59580000Y-49419285D02*
X59580000Y-48669285D01*
X59197142Y-49419285D01*
X59197142Y-48669285D01*
X58527142Y-49419285D02*
X58910000Y-49419285D01*
X58718571Y-49419285D02*
X58718571Y-48669285D01*
X58782380Y-48776428D01*
X58846190Y-48847857D01*
X58910000Y-48883571D01*
X57952857Y-48669285D02*
X58080476Y-48669285D01*
X58144285Y-48705000D01*
X58176190Y-48740714D01*
X58240000Y-48847857D01*
X58271904Y-48990714D01*
X58271904Y-49276428D01*
X58240000Y-49347857D01*
X58208095Y-49383571D01*
X58144285Y-49419285D01*
X58016666Y-49419285D01*
X57952857Y-49383571D01*
X57920952Y-49347857D01*
X57889047Y-49276428D01*
X57889047Y-49097857D01*
X57920952Y-49026428D01*
X57952857Y-48990714D01*
X58016666Y-48955000D01*
X58144285Y-48955000D01*
X58208095Y-48990714D01*
X58240000Y-49026428D01*
X58271904Y-49097857D01*
X60569047Y-46869285D02*
X60569047Y-46119285D01*
X60313809Y-46119285D01*
X60250000Y-46155000D01*
X60218095Y-46190714D01*
X60186190Y-46262142D01*
X60186190Y-46369285D01*
X60218095Y-46440714D01*
X60250000Y-46476428D01*
X60313809Y-46512142D01*
X60569047Y-46512142D01*
X59899047Y-46869285D02*
X59899047Y-46119285D01*
X59580000Y-46869285D02*
X59580000Y-46119285D01*
X59197142Y-46869285D01*
X59197142Y-46119285D01*
X58527142Y-46869285D02*
X58910000Y-46869285D01*
X58718571Y-46869285D02*
X58718571Y-46119285D01*
X58782380Y-46226428D01*
X58846190Y-46297857D01*
X58910000Y-46333571D01*
X58303809Y-46119285D02*
X57857142Y-46119285D01*
X58144285Y-46869285D01*
X60569047Y-44319285D02*
X60569047Y-43569285D01*
X60313809Y-43569285D01*
X60250000Y-43605000D01*
X60218095Y-43640714D01*
X60186190Y-43712142D01*
X60186190Y-43819285D01*
X60218095Y-43890714D01*
X60250000Y-43926428D01*
X60313809Y-43962142D01*
X60569047Y-43962142D01*
X59899047Y-44319285D02*
X59899047Y-43569285D01*
X59580000Y-44319285D02*
X59580000Y-43569285D01*
X59197142Y-44319285D01*
X59197142Y-43569285D01*
X58527142Y-44319285D02*
X58910000Y-44319285D01*
X58718571Y-44319285D02*
X58718571Y-43569285D01*
X58782380Y-43676428D01*
X58846190Y-43747857D01*
X58910000Y-43783571D01*
X58144285Y-43890714D02*
X58208095Y-43855000D01*
X58240000Y-43819285D01*
X58271904Y-43747857D01*
X58271904Y-43712142D01*
X58240000Y-43640714D01*
X58208095Y-43605000D01*
X58144285Y-43569285D01*
X58016666Y-43569285D01*
X57952857Y-43605000D01*
X57920952Y-43640714D01*
X57889047Y-43712142D01*
X57889047Y-43747857D01*
X57920952Y-43819285D01*
X57952857Y-43855000D01*
X58016666Y-43890714D01*
X58144285Y-43890714D01*
X58208095Y-43926428D01*
X58240000Y-43962142D01*
X58271904Y-44033571D01*
X58271904Y-44176428D01*
X58240000Y-44247857D01*
X58208095Y-44283571D01*
X58144285Y-44319285D01*
X58016666Y-44319285D01*
X57952857Y-44283571D01*
X57920952Y-44247857D01*
X57889047Y-44176428D01*
X57889047Y-44033571D01*
X57920952Y-43962142D01*
X57952857Y-43926428D01*
X58016666Y-43890714D01*
X60569047Y-41819285D02*
X60569047Y-41069285D01*
X60313809Y-41069285D01*
X60250000Y-41105000D01*
X60218095Y-41140714D01*
X60186190Y-41212142D01*
X60186190Y-41319285D01*
X60218095Y-41390714D01*
X60250000Y-41426428D01*
X60313809Y-41462142D01*
X60569047Y-41462142D01*
X59899047Y-41819285D02*
X59899047Y-41069285D01*
X59580000Y-41819285D02*
X59580000Y-41069285D01*
X59197142Y-41819285D01*
X59197142Y-41069285D01*
X58527142Y-41819285D02*
X58910000Y-41819285D01*
X58718571Y-41819285D02*
X58718571Y-41069285D01*
X58782380Y-41176428D01*
X58846190Y-41247857D01*
X58910000Y-41283571D01*
X58208095Y-41819285D02*
X58080476Y-41819285D01*
X58016666Y-41783571D01*
X57984761Y-41747857D01*
X57920952Y-41640714D01*
X57889047Y-41497857D01*
X57889047Y-41212142D01*
X57920952Y-41140714D01*
X57952857Y-41105000D01*
X58016666Y-41069285D01*
X58144285Y-41069285D01*
X58208095Y-41105000D01*
X58240000Y-41140714D01*
X58271904Y-41212142D01*
X58271904Y-41390714D01*
X58240000Y-41462142D01*
X58208095Y-41497857D01*
X58144285Y-41533571D01*
X58016666Y-41533571D01*
X57952857Y-41497857D01*
X57920952Y-41462142D01*
X57889047Y-41390714D01*
X60569047Y-39319285D02*
X60569047Y-38569285D01*
X60313809Y-38569285D01*
X60250000Y-38605000D01*
X60218095Y-38640714D01*
X60186190Y-38712142D01*
X60186190Y-38819285D01*
X60218095Y-38890714D01*
X60250000Y-38926428D01*
X60313809Y-38962142D01*
X60569047Y-38962142D01*
X59899047Y-39319285D02*
X59899047Y-38569285D01*
X59580000Y-39319285D02*
X59580000Y-38569285D01*
X59197142Y-39319285D01*
X59197142Y-38569285D01*
X58910000Y-38640714D02*
X58878095Y-38605000D01*
X58814285Y-38569285D01*
X58654761Y-38569285D01*
X58590952Y-38605000D01*
X58559047Y-38640714D01*
X58527142Y-38712142D01*
X58527142Y-38783571D01*
X58559047Y-38890714D01*
X58941904Y-39319285D01*
X58527142Y-39319285D01*
X58112380Y-38569285D02*
X58048571Y-38569285D01*
X57984761Y-38605000D01*
X57952857Y-38640714D01*
X57920952Y-38712142D01*
X57889047Y-38855000D01*
X57889047Y-39033571D01*
X57920952Y-39176428D01*
X57952857Y-39247857D01*
X57984761Y-39283571D01*
X58048571Y-39319285D01*
X58112380Y-39319285D01*
X58176190Y-39283571D01*
X58208095Y-39247857D01*
X58240000Y-39176428D01*
X58271904Y-39033571D01*
X58271904Y-38855000D01*
X58240000Y-38712142D01*
X58208095Y-38640714D01*
X58176190Y-38605000D01*
X58112380Y-38569285D01*
X59488333Y-35869285D02*
X59265000Y-36619285D01*
X59041666Y-35869285D01*
X58435476Y-36547857D02*
X58467380Y-36583571D01*
X58563095Y-36619285D01*
X58626904Y-36619285D01*
X58722619Y-36583571D01*
X58786428Y-36512142D01*
X58818333Y-36440714D01*
X58850238Y-36297857D01*
X58850238Y-36190714D01*
X58818333Y-36047857D01*
X58786428Y-35976428D01*
X58722619Y-35905000D01*
X58626904Y-35869285D01*
X58563095Y-35869285D01*
X58467380Y-35905000D01*
X58435476Y-35940714D01*
X57765476Y-36547857D02*
X57797380Y-36583571D01*
X57893095Y-36619285D01*
X57956904Y-36619285D01*
X58052619Y-36583571D01*
X58116428Y-36512142D01*
X58148333Y-36440714D01*
X58180238Y-36297857D01*
X58180238Y-36190714D01*
X58148333Y-36047857D01*
X58116428Y-35976428D01*
X58052619Y-35905000D01*
X57956904Y-35869285D01*
X57893095Y-35869285D01*
X57797380Y-35905000D01*
X57765476Y-35940714D01*
X59723285Y-33776428D02*
X59627571Y-33812142D01*
X59595666Y-33847857D01*
X59563761Y-33919285D01*
X59563761Y-34026428D01*
X59595666Y-34097857D01*
X59627571Y-34133571D01*
X59691380Y-34169285D01*
X59946619Y-34169285D01*
X59946619Y-33419285D01*
X59723285Y-33419285D01*
X59659476Y-33455000D01*
X59627571Y-33490714D01*
X59595666Y-33562142D01*
X59595666Y-33633571D01*
X59627571Y-33705000D01*
X59659476Y-33740714D01*
X59723285Y-33776428D01*
X59946619Y-33776428D01*
X59149000Y-33419285D02*
X59021380Y-33419285D01*
X58957571Y-33455000D01*
X58893761Y-33526428D01*
X58861857Y-33669285D01*
X58861857Y-33919285D01*
X58893761Y-34062142D01*
X58957571Y-34133571D01*
X59021380Y-34169285D01*
X59149000Y-34169285D01*
X59212809Y-34133571D01*
X59276619Y-34062142D01*
X59308523Y-33919285D01*
X59308523Y-33669285D01*
X59276619Y-33526428D01*
X59212809Y-33455000D01*
X59149000Y-33419285D01*
X58447095Y-33419285D02*
X58319476Y-33419285D01*
X58255666Y-33455000D01*
X58191857Y-33526428D01*
X58159952Y-33669285D01*
X58159952Y-33919285D01*
X58191857Y-34062142D01*
X58255666Y-34133571D01*
X58319476Y-34169285D01*
X58447095Y-34169285D01*
X58510904Y-34133571D01*
X58574714Y-34062142D01*
X58606619Y-33919285D01*
X58606619Y-33669285D01*
X58574714Y-33526428D01*
X58510904Y-33455000D01*
X58447095Y-33419285D01*
X57968523Y-33419285D02*
X57585666Y-33419285D01*
X57777095Y-34169285D02*
X57777095Y-33419285D01*
X59105476Y-30905000D02*
X59169285Y-30869285D01*
X59265000Y-30869285D01*
X59360714Y-30905000D01*
X59424523Y-30976428D01*
X59456428Y-31047857D01*
X59488333Y-31190714D01*
X59488333Y-31297857D01*
X59456428Y-31440714D01*
X59424523Y-31512142D01*
X59360714Y-31583571D01*
X59265000Y-31619285D01*
X59201190Y-31619285D01*
X59105476Y-31583571D01*
X59073571Y-31547857D01*
X59073571Y-31297857D01*
X59201190Y-31297857D01*
X58786428Y-31619285D02*
X58786428Y-30869285D01*
X58403571Y-31619285D01*
X58403571Y-30869285D01*
X58084523Y-31619285D02*
X58084523Y-30869285D01*
X57925000Y-30869285D01*
X57829285Y-30905000D01*
X57765476Y-30976428D01*
X57733571Y-31047857D01*
X57701666Y-31190714D01*
X57701666Y-31297857D01*
X57733571Y-31440714D01*
X57765476Y-31512142D01*
X57829285Y-31583571D01*
X57925000Y-31619285D01*
X58084523Y-31619285D01*
X58722619Y-28319285D02*
X59041666Y-28319285D01*
X59073571Y-28676428D01*
X59041666Y-28640714D01*
X58977857Y-28605000D01*
X58818333Y-28605000D01*
X58754523Y-28640714D01*
X58722619Y-28676428D01*
X58690714Y-28747857D01*
X58690714Y-28926428D01*
X58722619Y-28997857D01*
X58754523Y-29033571D01*
X58818333Y-29069285D01*
X58977857Y-29069285D01*
X59041666Y-29033571D01*
X59073571Y-28997857D01*
X58499285Y-28319285D02*
X58275952Y-29069285D01*
X58052619Y-28319285D01*
D11*
D13*
X38855000Y-25809523D02*
X38819285Y-25745714D01*
X38819285Y-25650000D01*
X38855000Y-25554285D01*
X38926428Y-25490476D01*
X38997857Y-25458571D01*
X39140714Y-25426666D01*
X39247857Y-25426666D01*
X39390714Y-25458571D01*
X39462142Y-25490476D01*
X39533571Y-25554285D01*
X39569285Y-25650000D01*
X39569285Y-25713809D01*
X39533571Y-25809523D01*
X39497857Y-25841428D01*
X39247857Y-25841428D01*
X39247857Y-25713809D01*
X39569285Y-26128571D02*
X38819285Y-26128571D01*
X39569285Y-26511428D01*
X38819285Y-26511428D01*
X39569285Y-26830476D02*
X38819285Y-26830476D01*
X38819285Y-26990000D01*
X38855000Y-27085714D01*
X38926428Y-27149523D01*
X38997857Y-27181428D01*
X39140714Y-27213333D01*
X39247857Y-27213333D01*
X39390714Y-27181428D01*
X39462142Y-27149523D01*
X39533571Y-27085714D01*
X39569285Y-26990000D01*
X39569285Y-26830476D01*
X58927523Y-26221928D02*
X58831809Y-26257642D01*
X58799904Y-26293357D01*
X58768000Y-26364785D01*
X58768000Y-26471928D01*
X58799904Y-26543357D01*
X58831809Y-26579071D01*
X58895619Y-26614785D01*
X59150857Y-26614785D01*
X59150857Y-25864785D01*
X58927523Y-25864785D01*
X58863714Y-25900500D01*
X58831809Y-25936214D01*
X58799904Y-26007642D01*
X58799904Y-26079071D01*
X58831809Y-26150500D01*
X58863714Y-26186214D01*
X58927523Y-26221928D01*
X59150857Y-26221928D01*
X58512761Y-26400500D02*
X58193714Y-26400500D01*
X58576571Y-26614785D02*
X58353238Y-25864785D01*
X58129904Y-26614785D01*
X58002285Y-25864785D02*
X57619428Y-25864785D01*
X57810857Y-26614785D02*
X57810857Y-25864785D01*
D11*
X46469523Y-132139761D02*
X46326666Y-132187380D01*
X46088571Y-132187380D01*
X45993333Y-132139761D01*
X45945714Y-132092142D01*
X45898095Y-131996904D01*
X45898095Y-131901666D01*
X45945714Y-131806428D01*
X45993333Y-131758809D01*
X46088571Y-131711190D01*
X46279047Y-131663571D01*
X46374285Y-131615952D01*
X46421904Y-131568333D01*
X46469523Y-131473095D01*
X46469523Y-131377857D01*
X46421904Y-131282619D01*
X46374285Y-131235000D01*
X46279047Y-131187380D01*
X46040952Y-131187380D01*
X45898095Y-131235000D01*
X45564761Y-131187380D02*
X45326666Y-132187380D01*
X45136190Y-131473095D01*
X44945714Y-132187380D01*
X44707619Y-131187380D01*
X43802857Y-132187380D02*
X44374285Y-132187380D01*
X44088571Y-132187380D02*
X44088571Y-131187380D01*
X44183809Y-131330238D01*
X44279047Y-131425476D01*
X44374285Y-131473095D01*
X43469523Y-131187380D02*
X42850476Y-131187380D01*
X43183809Y-131568333D01*
X43040952Y-131568333D01*
X42945714Y-131615952D01*
X42898095Y-131663571D01*
X42850476Y-131758809D01*
X42850476Y-131996904D01*
X42898095Y-132092142D01*
X42945714Y-132139761D01*
X43040952Y-132187380D01*
X43326666Y-132187380D01*
X43421904Y-132139761D01*
X43469523Y-132092142D01*
X89406666Y-28007142D02*
X89454285Y-28054761D01*
X89597142Y-28102380D01*
X89692380Y-28102380D01*
X89835238Y-28054761D01*
X89930476Y-27959523D01*
X89978095Y-27864285D01*
X90025714Y-27673809D01*
X90025714Y-27530952D01*
X89978095Y-27340476D01*
X89930476Y-27245238D01*
X89835238Y-27150000D01*
X89692380Y-27102380D01*
X89597142Y-27102380D01*
X89454285Y-27150000D01*
X89406666Y-27197619D01*
X88454285Y-28102380D02*
X89025714Y-28102380D01*
X88740000Y-28102380D02*
X88740000Y-27102380D01*
X88835238Y-27245238D01*
X88930476Y-27340476D01*
X89025714Y-27388095D01*
X107466666Y-28027142D02*
X107514285Y-28074761D01*
X107657142Y-28122380D01*
X107752380Y-28122380D01*
X107895238Y-28074761D01*
X107990476Y-27979523D01*
X108038095Y-27884285D01*
X108085714Y-27693809D01*
X108085714Y-27550952D01*
X108038095Y-27360476D01*
X107990476Y-27265238D01*
X107895238Y-27170000D01*
X107752380Y-27122380D01*
X107657142Y-27122380D01*
X107514285Y-27170000D01*
X107466666Y-27217619D01*
X107085714Y-27217619D02*
X107038095Y-27170000D01*
X106942857Y-27122380D01*
X106704761Y-27122380D01*
X106609523Y-27170000D01*
X106561904Y-27217619D01*
X106514285Y-27312857D01*
X106514285Y-27408095D01*
X106561904Y-27550952D01*
X107133333Y-28122380D01*
X106514285Y-28122380D01*
X89386666Y-29812380D02*
X89720000Y-29336190D01*
X89958095Y-29812380D02*
X89958095Y-28812380D01*
X89577142Y-28812380D01*
X89481904Y-28860000D01*
X89434285Y-28907619D01*
X89386666Y-29002857D01*
X89386666Y-29145714D01*
X89434285Y-29240952D01*
X89481904Y-29288571D01*
X89577142Y-29336190D01*
X89958095Y-29336190D01*
X88434285Y-29812380D02*
X89005714Y-29812380D01*
X88720000Y-29812380D02*
X88720000Y-28812380D01*
X88815238Y-28955238D01*
X88910476Y-29050476D01*
X89005714Y-29098095D01*
X107516666Y-29822380D02*
X107850000Y-29346190D01*
X108088095Y-29822380D02*
X108088095Y-28822380D01*
X107707142Y-28822380D01*
X107611904Y-28870000D01*
X107564285Y-28917619D01*
X107516666Y-29012857D01*
X107516666Y-29155714D01*
X107564285Y-29250952D01*
X107611904Y-29298571D01*
X107707142Y-29346190D01*
X108088095Y-29346190D01*
X107135714Y-28917619D02*
X107088095Y-28870000D01*
X106992857Y-28822380D01*
X106754761Y-28822380D01*
X106659523Y-28870000D01*
X106611904Y-28917619D01*
X106564285Y-29012857D01*
X106564285Y-29108095D01*
X106611904Y-29250952D01*
X107183333Y-29822380D01*
X106564285Y-29822380D01*
X29762380Y-34163333D02*
X29286190Y-33830000D01*
X29762380Y-33591904D02*
X28762380Y-33591904D01*
X28762380Y-33972857D01*
X28810000Y-34068095D01*
X28857619Y-34115714D01*
X28952857Y-34163333D01*
X29095714Y-34163333D01*
X29190952Y-34115714D01*
X29238571Y-34068095D01*
X29286190Y-33972857D01*
X29286190Y-33591904D01*
X28762380Y-34496666D02*
X28762380Y-35115714D01*
X29143333Y-34782380D01*
X29143333Y-34925238D01*
X29190952Y-35020476D01*
X29238571Y-35068095D01*
X29333809Y-35115714D01*
X29571904Y-35115714D01*
X29667142Y-35068095D01*
X29714761Y-35020476D01*
X29762380Y-34925238D01*
X29762380Y-34639523D01*
X29714761Y-34544285D01*
X29667142Y-34496666D01*
X34701666Y-37302380D02*
X35035000Y-36826190D01*
X35273095Y-37302380D02*
X35273095Y-36302380D01*
X34892142Y-36302380D01*
X34796904Y-36350000D01*
X34749285Y-36397619D01*
X34701666Y-36492857D01*
X34701666Y-36635714D01*
X34749285Y-36730952D01*
X34796904Y-36778571D01*
X34892142Y-36826190D01*
X35273095Y-36826190D01*
X33844523Y-36635714D02*
X33844523Y-37302380D01*
X34082619Y-36254761D02*
X34320714Y-36969047D01*
X33701666Y-36969047D01*
X45993333Y-74989761D02*
X45850476Y-75037380D01*
X45612380Y-75037380D01*
X45517142Y-74989761D01*
X45469523Y-74942142D01*
X45421904Y-74846904D01*
X45421904Y-74751666D01*
X45469523Y-74656428D01*
X45517142Y-74608809D01*
X45612380Y-74561190D01*
X45802857Y-74513571D01*
X45898095Y-74465952D01*
X45945714Y-74418333D01*
X45993333Y-74323095D01*
X45993333Y-74227857D01*
X45945714Y-74132619D01*
X45898095Y-74085000D01*
X45802857Y-74037380D01*
X45564761Y-74037380D01*
X45421904Y-74085000D01*
X45088571Y-74037380D02*
X44850476Y-75037380D01*
X44660000Y-74323095D01*
X44469523Y-75037380D01*
X44231428Y-74037380D01*
X43326666Y-75037380D02*
X43898095Y-75037380D01*
X43612380Y-75037380D02*
X43612380Y-74037380D01*
X43707619Y-74180238D01*
X43802857Y-74275476D01*
X43898095Y-74323095D01*
X65043333Y-74989761D02*
X64900476Y-75037380D01*
X64662380Y-75037380D01*
X64567142Y-74989761D01*
X64519523Y-74942142D01*
X64471904Y-74846904D01*
X64471904Y-74751666D01*
X64519523Y-74656428D01*
X64567142Y-74608809D01*
X64662380Y-74561190D01*
X64852857Y-74513571D01*
X64948095Y-74465952D01*
X64995714Y-74418333D01*
X65043333Y-74323095D01*
X65043333Y-74227857D01*
X64995714Y-74132619D01*
X64948095Y-74085000D01*
X64852857Y-74037380D01*
X64614761Y-74037380D01*
X64471904Y-74085000D01*
X64138571Y-74037380D02*
X63900476Y-75037380D01*
X63710000Y-74323095D01*
X63519523Y-75037380D01*
X63281428Y-74037380D01*
X62948095Y-74132619D02*
X62900476Y-74085000D01*
X62805238Y-74037380D01*
X62567142Y-74037380D01*
X62471904Y-74085000D01*
X62424285Y-74132619D01*
X62376666Y-74227857D01*
X62376666Y-74323095D01*
X62424285Y-74465952D01*
X62995714Y-75037380D01*
X62376666Y-75037380D01*
X84093333Y-74989761D02*
X83950476Y-75037380D01*
X83712380Y-75037380D01*
X83617142Y-74989761D01*
X83569523Y-74942142D01*
X83521904Y-74846904D01*
X83521904Y-74751666D01*
X83569523Y-74656428D01*
X83617142Y-74608809D01*
X83712380Y-74561190D01*
X83902857Y-74513571D01*
X83998095Y-74465952D01*
X84045714Y-74418333D01*
X84093333Y-74323095D01*
X84093333Y-74227857D01*
X84045714Y-74132619D01*
X83998095Y-74085000D01*
X83902857Y-74037380D01*
X83664761Y-74037380D01*
X83521904Y-74085000D01*
X83188571Y-74037380D02*
X82950476Y-75037380D01*
X82760000Y-74323095D01*
X82569523Y-75037380D01*
X82331428Y-74037380D01*
X82045714Y-74037380D02*
X81426666Y-74037380D01*
X81760000Y-74418333D01*
X81617142Y-74418333D01*
X81521904Y-74465952D01*
X81474285Y-74513571D01*
X81426666Y-74608809D01*
X81426666Y-74846904D01*
X81474285Y-74942142D01*
X81521904Y-74989761D01*
X81617142Y-75037380D01*
X81902857Y-75037380D01*
X81998095Y-74989761D01*
X82045714Y-74942142D01*
X103143333Y-74989761D02*
X103000476Y-75037380D01*
X102762380Y-75037380D01*
X102667142Y-74989761D01*
X102619523Y-74942142D01*
X102571904Y-74846904D01*
X102571904Y-74751666D01*
X102619523Y-74656428D01*
X102667142Y-74608809D01*
X102762380Y-74561190D01*
X102952857Y-74513571D01*
X103048095Y-74465952D01*
X103095714Y-74418333D01*
X103143333Y-74323095D01*
X103143333Y-74227857D01*
X103095714Y-74132619D01*
X103048095Y-74085000D01*
X102952857Y-74037380D01*
X102714761Y-74037380D01*
X102571904Y-74085000D01*
X102238571Y-74037380D02*
X102000476Y-75037380D01*
X101810000Y-74323095D01*
X101619523Y-75037380D01*
X101381428Y-74037380D01*
X100571904Y-74370714D02*
X100571904Y-75037380D01*
X100810000Y-73989761D02*
X101048095Y-74704047D01*
X100429047Y-74704047D01*
X45993333Y-94039761D02*
X45850476Y-94087380D01*
X45612380Y-94087380D01*
X45517142Y-94039761D01*
X45469523Y-93992142D01*
X45421904Y-93896904D01*
X45421904Y-93801666D01*
X45469523Y-93706428D01*
X45517142Y-93658809D01*
X45612380Y-93611190D01*
X45802857Y-93563571D01*
X45898095Y-93515952D01*
X45945714Y-93468333D01*
X45993333Y-93373095D01*
X45993333Y-93277857D01*
X45945714Y-93182619D01*
X45898095Y-93135000D01*
X45802857Y-93087380D01*
X45564761Y-93087380D01*
X45421904Y-93135000D01*
X45088571Y-93087380D02*
X44850476Y-94087380D01*
X44660000Y-93373095D01*
X44469523Y-94087380D01*
X44231428Y-93087380D01*
X43374285Y-93087380D02*
X43850476Y-93087380D01*
X43898095Y-93563571D01*
X43850476Y-93515952D01*
X43755238Y-93468333D01*
X43517142Y-93468333D01*
X43421904Y-93515952D01*
X43374285Y-93563571D01*
X43326666Y-93658809D01*
X43326666Y-93896904D01*
X43374285Y-93992142D01*
X43421904Y-94039761D01*
X43517142Y-94087380D01*
X43755238Y-94087380D01*
X43850476Y-94039761D01*
X43898095Y-93992142D01*
X65043333Y-94039761D02*
X64900476Y-94087380D01*
X64662380Y-94087380D01*
X64567142Y-94039761D01*
X64519523Y-93992142D01*
X64471904Y-93896904D01*
X64471904Y-93801666D01*
X64519523Y-93706428D01*
X64567142Y-93658809D01*
X64662380Y-93611190D01*
X64852857Y-93563571D01*
X64948095Y-93515952D01*
X64995714Y-93468333D01*
X65043333Y-93373095D01*
X65043333Y-93277857D01*
X64995714Y-93182619D01*
X64948095Y-93135000D01*
X64852857Y-93087380D01*
X64614761Y-93087380D01*
X64471904Y-93135000D01*
X64138571Y-93087380D02*
X63900476Y-94087380D01*
X63710000Y-93373095D01*
X63519523Y-94087380D01*
X63281428Y-93087380D01*
X62471904Y-93087380D02*
X62662380Y-93087380D01*
X62757619Y-93135000D01*
X62805238Y-93182619D01*
X62900476Y-93325476D01*
X62948095Y-93515952D01*
X62948095Y-93896904D01*
X62900476Y-93992142D01*
X62852857Y-94039761D01*
X62757619Y-94087380D01*
X62567142Y-94087380D01*
X62471904Y-94039761D01*
X62424285Y-93992142D01*
X62376666Y-93896904D01*
X62376666Y-93658809D01*
X62424285Y-93563571D01*
X62471904Y-93515952D01*
X62567142Y-93468333D01*
X62757619Y-93468333D01*
X62852857Y-93515952D01*
X62900476Y-93563571D01*
X62948095Y-93658809D01*
X84093333Y-94039761D02*
X83950476Y-94087380D01*
X83712380Y-94087380D01*
X83617142Y-94039761D01*
X83569523Y-93992142D01*
X83521904Y-93896904D01*
X83521904Y-93801666D01*
X83569523Y-93706428D01*
X83617142Y-93658809D01*
X83712380Y-93611190D01*
X83902857Y-93563571D01*
X83998095Y-93515952D01*
X84045714Y-93468333D01*
X84093333Y-93373095D01*
X84093333Y-93277857D01*
X84045714Y-93182619D01*
X83998095Y-93135000D01*
X83902857Y-93087380D01*
X83664761Y-93087380D01*
X83521904Y-93135000D01*
X83188571Y-93087380D02*
X82950476Y-94087380D01*
X82760000Y-93373095D01*
X82569523Y-94087380D01*
X82331428Y-93087380D01*
X82045714Y-93087380D02*
X81379047Y-93087380D01*
X81807619Y-94087380D01*
X45993333Y-113089761D02*
X45850476Y-113137380D01*
X45612380Y-113137380D01*
X45517142Y-113089761D01*
X45469523Y-113042142D01*
X45421904Y-112946904D01*
X45421904Y-112851666D01*
X45469523Y-112756428D01*
X45517142Y-112708809D01*
X45612380Y-112661190D01*
X45802857Y-112613571D01*
X45898095Y-112565952D01*
X45945714Y-112518333D01*
X45993333Y-112423095D01*
X45993333Y-112327857D01*
X45945714Y-112232619D01*
X45898095Y-112185000D01*
X45802857Y-112137380D01*
X45564761Y-112137380D01*
X45421904Y-112185000D01*
X45088571Y-112137380D02*
X44850476Y-113137380D01*
X44660000Y-112423095D01*
X44469523Y-113137380D01*
X44231428Y-112137380D01*
X43802857Y-113137380D02*
X43612380Y-113137380D01*
X43517142Y-113089761D01*
X43469523Y-113042142D01*
X43374285Y-112899285D01*
X43326666Y-112708809D01*
X43326666Y-112327857D01*
X43374285Y-112232619D01*
X43421904Y-112185000D01*
X43517142Y-112137380D01*
X43707619Y-112137380D01*
X43802857Y-112185000D01*
X43850476Y-112232619D01*
X43898095Y-112327857D01*
X43898095Y-112565952D01*
X43850476Y-112661190D01*
X43802857Y-112708809D01*
X43707619Y-112756428D01*
X43517142Y-112756428D01*
X43421904Y-112708809D01*
X43374285Y-112661190D01*
X43326666Y-112565952D01*
X65519523Y-113089761D02*
X65376666Y-113137380D01*
X65138571Y-113137380D01*
X65043333Y-113089761D01*
X64995714Y-113042142D01*
X64948095Y-112946904D01*
X64948095Y-112851666D01*
X64995714Y-112756428D01*
X65043333Y-112708809D01*
X65138571Y-112661190D01*
X65329047Y-112613571D01*
X65424285Y-112565952D01*
X65471904Y-112518333D01*
X65519523Y-112423095D01*
X65519523Y-112327857D01*
X65471904Y-112232619D01*
X65424285Y-112185000D01*
X65329047Y-112137380D01*
X65090952Y-112137380D01*
X64948095Y-112185000D01*
X64614761Y-112137380D02*
X64376666Y-113137380D01*
X64186190Y-112423095D01*
X63995714Y-113137380D01*
X63757619Y-112137380D01*
X62852857Y-113137380D02*
X63424285Y-113137380D01*
X63138571Y-113137380D02*
X63138571Y-112137380D01*
X63233809Y-112280238D01*
X63329047Y-112375476D01*
X63424285Y-112423095D01*
X62233809Y-112137380D02*
X62138571Y-112137380D01*
X62043333Y-112185000D01*
X61995714Y-112232619D01*
X61948095Y-112327857D01*
X61900476Y-112518333D01*
X61900476Y-112756428D01*
X61948095Y-112946904D01*
X61995714Y-113042142D01*
X62043333Y-113089761D01*
X62138571Y-113137380D01*
X62233809Y-113137380D01*
X62329047Y-113089761D01*
X62376666Y-113042142D01*
X62424285Y-112946904D01*
X62471904Y-112756428D01*
X62471904Y-112518333D01*
X62424285Y-112327857D01*
X62376666Y-112232619D01*
X62329047Y-112185000D01*
X62233809Y-112137380D01*
X84569523Y-113089761D02*
X84426666Y-113137380D01*
X84188571Y-113137380D01*
X84093333Y-113089761D01*
X84045714Y-113042142D01*
X83998095Y-112946904D01*
X83998095Y-112851666D01*
X84045714Y-112756428D01*
X84093333Y-112708809D01*
X84188571Y-112661190D01*
X84379047Y-112613571D01*
X84474285Y-112565952D01*
X84521904Y-112518333D01*
X84569523Y-112423095D01*
X84569523Y-112327857D01*
X84521904Y-112232619D01*
X84474285Y-112185000D01*
X84379047Y-112137380D01*
X84140952Y-112137380D01*
X83998095Y-112185000D01*
X83664761Y-112137380D02*
X83426666Y-113137380D01*
X83236190Y-112423095D01*
X83045714Y-113137380D01*
X82807619Y-112137380D01*
X81902857Y-113137380D02*
X82474285Y-113137380D01*
X82188571Y-113137380D02*
X82188571Y-112137380D01*
X82283809Y-112280238D01*
X82379047Y-112375476D01*
X82474285Y-112423095D01*
X80950476Y-113137380D02*
X81521904Y-113137380D01*
X81236190Y-113137380D02*
X81236190Y-112137380D01*
X81331428Y-112280238D01*
X81426666Y-112375476D01*
X81521904Y-112423095D01*
X65519523Y-132139761D02*
X65376666Y-132187380D01*
X65138571Y-132187380D01*
X65043333Y-132139761D01*
X64995714Y-132092142D01*
X64948095Y-131996904D01*
X64948095Y-131901666D01*
X64995714Y-131806428D01*
X65043333Y-131758809D01*
X65138571Y-131711190D01*
X65329047Y-131663571D01*
X65424285Y-131615952D01*
X65471904Y-131568333D01*
X65519523Y-131473095D01*
X65519523Y-131377857D01*
X65471904Y-131282619D01*
X65424285Y-131235000D01*
X65329047Y-131187380D01*
X65090952Y-131187380D01*
X64948095Y-131235000D01*
X64614761Y-131187380D02*
X64376666Y-132187380D01*
X64186190Y-131473095D01*
X63995714Y-132187380D01*
X63757619Y-131187380D01*
X62852857Y-132187380D02*
X63424285Y-132187380D01*
X63138571Y-132187380D02*
X63138571Y-131187380D01*
X63233809Y-131330238D01*
X63329047Y-131425476D01*
X63424285Y-131473095D01*
X61995714Y-131520714D02*
X61995714Y-132187380D01*
X62233809Y-131139761D02*
X62471904Y-131854047D01*
X61852857Y-131854047D01*
X84569523Y-132139761D02*
X84426666Y-132187380D01*
X84188571Y-132187380D01*
X84093333Y-132139761D01*
X84045714Y-132092142D01*
X83998095Y-131996904D01*
X83998095Y-131901666D01*
X84045714Y-131806428D01*
X84093333Y-131758809D01*
X84188571Y-131711190D01*
X84379047Y-131663571D01*
X84474285Y-131615952D01*
X84521904Y-131568333D01*
X84569523Y-131473095D01*
X84569523Y-131377857D01*
X84521904Y-131282619D01*
X84474285Y-131235000D01*
X84379047Y-131187380D01*
X84140952Y-131187380D01*
X83998095Y-131235000D01*
X83664761Y-131187380D02*
X83426666Y-132187380D01*
X83236190Y-131473095D01*
X83045714Y-132187380D01*
X82807619Y-131187380D01*
X81902857Y-132187380D02*
X82474285Y-132187380D01*
X82188571Y-132187380D02*
X82188571Y-131187380D01*
X82283809Y-131330238D01*
X82379047Y-131425476D01*
X82474285Y-131473095D01*
X80998095Y-131187380D02*
X81474285Y-131187380D01*
X81521904Y-131663571D01*
X81474285Y-131615952D01*
X81379047Y-131568333D01*
X81140952Y-131568333D01*
X81045714Y-131615952D01*
X80998095Y-131663571D01*
X80950476Y-131758809D01*
X80950476Y-131996904D01*
X80998095Y-132092142D01*
X81045714Y-132139761D01*
X81140952Y-132187380D01*
X81379047Y-132187380D01*
X81474285Y-132139761D01*
X81521904Y-132092142D01*
X55989523Y-151189761D02*
X55846666Y-151237380D01*
X55608571Y-151237380D01*
X55513333Y-151189761D01*
X55465714Y-151142142D01*
X55418095Y-151046904D01*
X55418095Y-150951666D01*
X55465714Y-150856428D01*
X55513333Y-150808809D01*
X55608571Y-150761190D01*
X55799047Y-150713571D01*
X55894285Y-150665952D01*
X55941904Y-150618333D01*
X55989523Y-150523095D01*
X55989523Y-150427857D01*
X55941904Y-150332619D01*
X55894285Y-150285000D01*
X55799047Y-150237380D01*
X55560952Y-150237380D01*
X55418095Y-150285000D01*
X55084761Y-150237380D02*
X54846666Y-151237380D01*
X54656190Y-150523095D01*
X54465714Y-151237380D01*
X54227619Y-150237380D01*
X53322857Y-151237380D02*
X53894285Y-151237380D01*
X53608571Y-151237380D02*
X53608571Y-150237380D01*
X53703809Y-150380238D01*
X53799047Y-150475476D01*
X53894285Y-150523095D01*
X52465714Y-150237380D02*
X52656190Y-150237380D01*
X52751428Y-150285000D01*
X52799047Y-150332619D01*
X52894285Y-150475476D01*
X52941904Y-150665952D01*
X52941904Y-151046904D01*
X52894285Y-151142142D01*
X52846666Y-151189761D01*
X52751428Y-151237380D01*
X52560952Y-151237380D01*
X52465714Y-151189761D01*
X52418095Y-151142142D01*
X52370476Y-151046904D01*
X52370476Y-150808809D01*
X52418095Y-150713571D01*
X52465714Y-150665952D01*
X52560952Y-150618333D01*
X52751428Y-150618333D01*
X52846666Y-150665952D01*
X52894285Y-150713571D01*
X52941904Y-150808809D01*
X84569523Y-151189761D02*
X84426666Y-151237380D01*
X84188571Y-151237380D01*
X84093333Y-151189761D01*
X84045714Y-151142142D01*
X83998095Y-151046904D01*
X83998095Y-150951666D01*
X84045714Y-150856428D01*
X84093333Y-150808809D01*
X84188571Y-150761190D01*
X84379047Y-150713571D01*
X84474285Y-150665952D01*
X84521904Y-150618333D01*
X84569523Y-150523095D01*
X84569523Y-150427857D01*
X84521904Y-150332619D01*
X84474285Y-150285000D01*
X84379047Y-150237380D01*
X84140952Y-150237380D01*
X83998095Y-150285000D01*
X83664761Y-150237380D02*
X83426666Y-151237380D01*
X83236190Y-150523095D01*
X83045714Y-151237380D01*
X82807619Y-150237380D01*
X81902857Y-151237380D02*
X82474285Y-151237380D01*
X82188571Y-151237380D02*
X82188571Y-150237380D01*
X82283809Y-150380238D01*
X82379047Y-150475476D01*
X82474285Y-150523095D01*
X81569523Y-150237380D02*
X80902857Y-150237380D01*
X81331428Y-151237380D01*
X106659761Y-127390476D02*
X106707380Y-127533333D01*
X106707380Y-127771428D01*
X106659761Y-127866666D01*
X106612142Y-127914285D01*
X106516904Y-127961904D01*
X106421666Y-127961904D01*
X106326428Y-127914285D01*
X106278809Y-127866666D01*
X106231190Y-127771428D01*
X106183571Y-127580952D01*
X106135952Y-127485714D01*
X106088333Y-127438095D01*
X105993095Y-127390476D01*
X105897857Y-127390476D01*
X105802619Y-127438095D01*
X105755000Y-127485714D01*
X105707380Y-127580952D01*
X105707380Y-127819047D01*
X105755000Y-127961904D01*
X105707380Y-128295238D02*
X106707380Y-128533333D01*
X105993095Y-128723809D01*
X106707380Y-128914285D01*
X105707380Y-129152380D01*
X106707380Y-130057142D02*
X106707380Y-129485714D01*
X106707380Y-129771428D02*
X105707380Y-129771428D01*
X105850238Y-129676190D01*
X105945476Y-129580952D01*
X105993095Y-129485714D01*
X106135952Y-130628571D02*
X106088333Y-130533333D01*
X106040714Y-130485714D01*
X105945476Y-130438095D01*
X105897857Y-130438095D01*
X105802619Y-130485714D01*
X105755000Y-130533333D01*
X105707380Y-130628571D01*
X105707380Y-130819047D01*
X105755000Y-130914285D01*
X105802619Y-130961904D01*
X105897857Y-131009523D01*
X105945476Y-131009523D01*
X106040714Y-130961904D01*
X106088333Y-130914285D01*
X106135952Y-130819047D01*
X106135952Y-130628571D01*
X106183571Y-130533333D01*
X106231190Y-130485714D01*
X106326428Y-130438095D01*
X106516904Y-130438095D01*
X106612142Y-130485714D01*
X106659761Y-130533333D01*
X106707380Y-130628571D01*
X106707380Y-130819047D01*
X106659761Y-130914285D01*
X106612142Y-130961904D01*
X106516904Y-131009523D01*
X106326428Y-131009523D01*
X106231190Y-130961904D01*
X106183571Y-130914285D01*
X106135952Y-130819047D01*
X37751904Y-30832380D02*
X37180476Y-30832380D01*
X37466190Y-31832380D02*
X37466190Y-30832380D01*
X36275714Y-31832380D02*
X36609047Y-31356190D01*
X36847142Y-31832380D02*
X36847142Y-30832380D01*
X36466190Y-30832380D01*
X36370952Y-30880000D01*
X36323333Y-30927619D01*
X36275714Y-31022857D01*
X36275714Y-31165714D01*
X36323333Y-31260952D01*
X36370952Y-31308571D01*
X36466190Y-31356190D01*
X36847142Y-31356190D01*
X35275714Y-31832380D02*
X35609047Y-31356190D01*
X35847142Y-31832380D02*
X35847142Y-30832380D01*
X35466190Y-30832380D01*
X35370952Y-30880000D01*
X35323333Y-30927619D01*
X35275714Y-31022857D01*
X35275714Y-31165714D01*
X35323333Y-31260952D01*
X35370952Y-31308571D01*
X35466190Y-31356190D01*
X35847142Y-31356190D01*
X34894761Y-31784761D02*
X34751904Y-31832380D01*
X34513809Y-31832380D01*
X34418571Y-31784761D01*
X34370952Y-31737142D01*
X34323333Y-31641904D01*
X34323333Y-31546666D01*
X34370952Y-31451428D01*
X34418571Y-31403809D01*
X34513809Y-31356190D01*
X34704285Y-31308571D01*
X34799523Y-31260952D01*
X34847142Y-31213333D01*
X34894761Y-31118095D01*
X34894761Y-31022857D01*
X34847142Y-30927619D01*
X34799523Y-30880000D01*
X34704285Y-30832380D01*
X34466190Y-30832380D01*
X34323333Y-30880000D01*
X108532380Y-50027619D02*
X108056190Y-49694285D01*
X108532380Y-49456190D02*
X107532380Y-49456190D01*
X107532380Y-49837142D01*
X107580000Y-49932380D01*
X107627619Y-49980000D01*
X107722857Y-50027619D01*
X107865714Y-50027619D01*
X107960952Y-49980000D01*
X108008571Y-49932380D01*
X108056190Y-49837142D01*
X108056190Y-49456190D01*
X108008571Y-50456190D02*
X108008571Y-50789523D01*
X108532380Y-50932380D02*
X108532380Y-50456190D01*
X107532380Y-50456190D01*
X107532380Y-50932380D01*
X108484761Y-51313333D02*
X108532380Y-51456190D01*
X108532380Y-51694285D01*
X108484761Y-51789523D01*
X108437142Y-51837142D01*
X108341904Y-51884761D01*
X108246666Y-51884761D01*
X108151428Y-51837142D01*
X108103809Y-51789523D01*
X108056190Y-51694285D01*
X108008571Y-51503809D01*
X107960952Y-51408571D01*
X107913333Y-51360952D01*
X107818095Y-51313333D01*
X107722857Y-51313333D01*
X107627619Y-51360952D01*
X107580000Y-51408571D01*
X107532380Y-51503809D01*
X107532380Y-51741904D01*
X107580000Y-51884761D01*
X108008571Y-52313333D02*
X108008571Y-52646666D01*
X108532380Y-52789523D02*
X108532380Y-52313333D01*
X107532380Y-52313333D01*
X107532380Y-52789523D01*
X107532380Y-53075238D02*
X107532380Y-53646666D01*
X108532380Y-53360952D02*
X107532380Y-53360952D01*
M02*
