M48
; DRILL file {KiCad (5.1.5)-3} date 2020/10/10 23:35:24
; FORMAT={-:-/ absolute / metric / decimal}
; #@! TF.CreationDate,2020-10-10T23:35:24+09:00
; #@! TF.GenerationSoftware,Kicad,Pcbnew,(5.1.5)-3
; #@! TF.FileFunction,Plated,1,2,PTH
FMAT,2
METRIC
T1C0.400
T2C0.700
T3C0.762
T4C0.813
T5C1.000
T6C1.300
T7C1.499
T8C2.000
%
G90
G05
T1
X47.4Y-38.55
X83.76Y-43.2
X102.93Y-33.58
T2
X107.74Y-59.82
X109.24Y-59.82
T3
X36.25Y-25.812
X51.49Y-25.812
T4
X36.259Y-28.352
X36.259Y-30.892
X36.259Y-33.432
X36.259Y-35.972
X36.259Y-38.512
X36.259Y-41.052
X36.259Y-43.592
X36.259Y-46.132
X36.259Y-48.672
X36.259Y-51.212
X36.259Y-53.752
X36.259Y-56.292
X51.479Y-28.352
X51.479Y-30.892
X51.479Y-33.432
X51.479Y-35.972
X51.479Y-38.512
X51.479Y-41.052
X51.479Y-43.592
X51.479Y-46.132
X51.479Y-48.672
X51.479Y-51.212
X51.479Y-53.752
X51.479Y-56.292
T5
X95.5Y-30.33
X95.5Y-44.83
X98.0Y-30.33
X100.5Y-30.33
X100.5Y-44.83
T6
X108.08Y-48.23
X108.08Y-54.73
T7
X56.09Y-101.89
X62.44Y-99.35
X37.04Y-101.89
X43.39Y-99.35
X94.19Y-130.47
X100.54Y-127.93
X37.04Y-82.84
X43.39Y-80.3
X37.04Y-120.94
X43.39Y-118.4
X75.14Y-82.84
X81.49Y-80.3
X56.09Y-63.79
X62.44Y-61.25
X46.56Y-139.99
X52.91Y-137.45
X75.14Y-120.94
X81.49Y-118.4
X75.14Y-139.99
X81.49Y-137.45
X75.14Y-101.89
X81.49Y-99.35
X94.19Y-92.36
X100.54Y-89.82
X56.09Y-120.94
X62.44Y-118.4
X56.09Y-82.84
X62.44Y-80.3
X75.14Y-63.79
X81.49Y-61.25
X94.19Y-63.79
X100.54Y-61.25
X37.04Y-63.79
X43.39Y-61.25
T5
G00X82.9Y-28.52
M15
G01X82.9Y-28.02
M16
G05
G00X82.9Y-31.52
M15
G01X82.9Y-31.02
M16
G05
G00X82.9Y-35.52
M15
G01X82.9Y-35.02
M16
G05
G00X87.1Y-37.02
M15
G01X87.1Y-36.52
M16
G05
T8
G00X92.4Y-37.88
M15
G01X92.4Y-37.78
M16
G05
G00X103.6Y-37.88
M15
G01X103.6Y-37.78
M16
G05
T0
M30
