M48
; DRILL file {KiCad (5.1.5)-3} date 2020/10/10 23:35:24
; FORMAT={-:-/ absolute / metric / decimal}
; #@! TF.CreationDate,2020-10-10T23:35:24+09:00
; #@! TF.GenerationSoftware,Kicad,Pcbnew,(5.1.5)-3
; #@! TF.FileFunction,NonPlated,1,2,NPTH
FMAT,2
METRIC
T1C1.200
T2C1.702
T3C3.000
T4C3.048
T5C3.988
%
G90
G05
T1
X85.0Y-26.47
X85.0Y-33.47
T2
X92.92Y-66.33
X103.08Y-66.33
X35.77Y-66.33
X45.93Y-66.33
X54.82Y-104.43
X64.98Y-104.43
X35.77Y-104.43
X45.93Y-104.43
X92.92Y-133.01
X103.08Y-133.01
X35.77Y-85.38
X45.93Y-85.38
X35.77Y-123.48
X45.93Y-123.48
X73.87Y-85.38
X84.03Y-85.38
X54.82Y-66.33
X64.98Y-66.33
X45.29Y-142.53
X55.45Y-142.53
X73.87Y-123.48
X84.03Y-123.48
X73.87Y-142.53
X84.03Y-142.53
X73.87Y-104.43
X84.03Y-104.43
X92.92Y-94.9
X103.08Y-94.9
X54.82Y-123.48
X64.98Y-123.48
X54.82Y-85.38
X64.98Y-85.38
X73.87Y-66.33
X84.03Y-66.33
T3
X38.31Y-128.56
X44.66Y-126.02
X76.41Y-90.46
X82.76Y-87.92
X57.36Y-71.41
X63.71Y-68.87
X47.83Y-147.61
X54.18Y-145.07
X76.41Y-128.56
X82.76Y-126.02
X76.41Y-147.61
X82.76Y-145.07
X76.41Y-109.51
X82.76Y-106.97
X95.46Y-99.98
X101.81Y-97.44
X57.36Y-128.56
X63.71Y-126.02
X57.36Y-90.46
X63.71Y-87.92
X76.41Y-71.41
X82.76Y-68.87
X95.46Y-71.41
X101.81Y-68.87
X38.31Y-71.41
X44.66Y-68.87
X57.36Y-109.51
X63.71Y-106.97
X38.31Y-109.51
X44.66Y-106.97
X95.46Y-138.09
X101.81Y-135.55
X38.31Y-90.46
X44.66Y-87.92
T4
X91.015Y-121.12
X91.015Y-144.92
X38.47Y-135.545
X62.27Y-135.545
X91.015Y-83.0
X91.015Y-106.8
T5
X98.0Y-133.01
X40.85Y-85.38
X40.85Y-123.48
X78.95Y-85.38
X106.255Y-83.0
X106.255Y-106.8
X59.9Y-66.33
X50.37Y-142.53
X78.95Y-123.48
X78.95Y-142.53
X78.95Y-104.43
X98.0Y-94.9
X59.9Y-123.48
X106.255Y-121.12
X106.255Y-144.92
X59.9Y-85.38
X78.95Y-66.33
X98.0Y-66.33
X40.85Y-66.33
X38.47Y-150.785
X62.27Y-150.785
X59.9Y-104.43
X40.85Y-104.43
T0
M30
