  0
SECTION
  2
HEADER
  9
$ACADVER
  1
AC1009
  9
$INSBASE
 10
0
 20
0
 30
0
  9
$EXTMIN
 10
0
 20
0
  9
$EXTMAX
 10
841
 20
594
  9
$LIMMIN
 10
0
 20
0
  9
$LIMMAX
 10
841
 20
594
  9
$LTSCALE
 40
1
  0
ENDSEC
  0
SECTION
  2
TABLES
  0
TABLE
  2
LTYPE
 70
     9
  0
LTYPE
  2
CONTINUOUS
 70
    64
  3
実線
 72
    65
 73
     0
 40
0.0
  0
LTYPE
  2
DASHED1
 70
    64
  3
--  --  --  --  --  --  --  --  
 72
    65
 73
     2
 40
2.5
 49
1.25
 49
-1.25
  0
LTYPE
  2
DASHED2
 70
    64
  3
----    ----    ----    ----    
 72
    65
 73
     2
 40
5.0
 49
2.5
 49
-2.5
  0
LTYPE
  2
DASHED3
 70
    64
  3
------  ------  ------  ------  
 72
    65
 73
     2
 40
5.0
 49
3.75
 49
-1.25
  0
LTYPE
  2
CENTER1
 70
    64
  3
----- - ----- - ----- - ----- - 
 72
    65
 73
     4
 40
10.0
 49
6.25
 49
-1.25
 49
1.25
 49
-1.25
  0
LTYPE
  2
CENTER2
 70
    64
  3
----------  --  ----------  --  
 72
    65
 73
     4
 40
20.0
 49
12.5
 49
-2.5
 49
2.5
 49
-2.5
  0
LTYPE
  2
PHANTOM1
 70
    64
  3
--- - - --- - - --- - - --- - - 
 72
    65
 73
     6
 40
10.0
 49
3.25
 49
-1.25
 49
1.25
 49
-1.25
 49
1.25
 49
-1.25
  0
LTYPE
  2
PHANTOM2
 70
    64
  3
--------  -  -  --------  -  -  
 72
    65
 73
     6
 40
20.0
 49
10.0
 49
-2.5
 49
1.25
 49
-2.5
 49
1.25
 49
-2.5
  0
LTYPE
  2
DOT
 70
    64
  3
-   -   -   -   -   -   -   -   
 72
    65
 73
     2
 40
2.5
 49
0.625
 49
-1.875
  0
LTYPE
  2
DUMMY
 70
    64
  3
ダミー
 72
    65
 73
     0
 40
0.0
  0
LTYPE
  2
RAND1
 70
    64
  3
ランダム線1
 72
    65
 73
     4
 40
10.0
 49
1.0
 49
-2.0
 49
3.0
 49
-4.0
  0
LTYPE
  2
RAND2
 70
    64
  3
ランダム線2
 72
    65
 73
     4
 40
14.0
 49
2.0
 49
-3.0
 49
4.0
 49
-5.0
  0
LTYPE
  2
RAND3
 70
    64
  3
ランダム線3
 72
    65
 73
     4
 40
18.0
 49
3.0
 49
-4.0
 49
5.0
 49
-6.0
  0
LTYPE
  2
RAND4
 70
    64
  3
ランダム線4
 72
    65
 73
     4
 40
22.0
 49
4.0
 49
-5.0
 49
6.0
 49
-7.0
  0
LTYPE
  2
RAND5
 70
    64
  3
ランダム線5
 72
    65
 73
     4
 40
26.0
 49
5.0
 49
-6.0
 49
7.0
 49
-8.0
  0
LTYPE
  2
LONG1
 70
    64
  3
----------  --  ----------  --  
 72
    65
 73
     4
 40
40.0
 49
32.5
 49
-2.5
 49
2.5
 49
-2.5
  0
LTYPE
  2
LONG2
 70
    64
  3
--------  -  -  --------  -  -  
 72
    65
 73
     6
 40
40.0
 49
30.0
 49
-2.5
 49
1.25
 49
-2.5
 49
1.25
 49
-2.5
  0
LTYPE
  2
LONG3
 70
    64
  3
+++++++++++++++..+++++++++++++++
 72
    65
 73
     2
 40
40.0
 49
37.5
 49
-2.5
  0
LTYPE
  2
LONG4
 70
    64
  3
+++++++++++++++..+++++++++++++++
 72
    65
 73
     2
 40
80.0
 49
75.0
 49
-5.0
  0
LTYPE
  2
LONG5
 70
    64
  3
----------  --  ----------  --  
 72
    65
 73
     4
 40
60.0
 49
37.5
 49
-7.5
 49
7.5
 49
-7.5
  0
LTYPE
  2
dashed
 70
   64
  3
-------   -------------   ------
 72
   65
 73
    2
 40
7.5
 49
6
 49
-1.5
  0
LTYPE
  2
dashed_spaced
 70
   64
  3
----        --------        ----
 72
   65
 73
    2
 40
12
 49
6
 49
-6
  0
LTYPE
  2
long_dashed_dotted
 70
   64
  3
------------- --- --------------
 72
   65
 73
    4
 40
15.25
 49
12
 49
-1.5
 49
0.25
 49
-1.5
  0
LTYPE
  2
long_dashed_double-dotted
 70
   64
  3
----------- --- --- ------------
 72
   65
 73
    6
 40
17
 49
12
 49
-1.5
 49
0.25
 49
-1.5
 49
0.25
 49
-1.5
  0
LTYPE
  2
long_dashed_triplicate-dotted
 70
   64
  3
--------- --- --- --- ----------
 72
   65
 73
    8
 40
18.75
 49
12
 49
-1.5
 49
0.25
 49
-1.5
 49
0.25
 49
-1.5
 49
0.25
 49
-1.5
  0
LTYPE
  2
dotted
 70
   64
  3
   -       -       -       -    
 72
   65
 73
    2
 40
1.75
 49
0.25
 49
-1.5
  0
LTYPE
  2
chain
 70
   64
  3
-------------- -- --------------
 72
   65
 73
    4
 40
18.5
 49
12
 49
-1.5
 49
3.5
 49
-1.5
  0
LTYPE
  2
chain_double_dash
 70
   64
  3
------------ -- -- -------------
 72
   65
 73
    6
 40
23.5
 49
12
 49
-1.5
 49
3.5
 49
-1.5
 49
3.5
 49
-1.5
  0
LTYPE
  2
dashed_dotted
 70
   64
  3
-----------     -     ----------
 72
   65
 73
    4
 40
9.25
 49
6
 49
-1.5
 49
0.25
 49
-1.5
  0
LTYPE
  2
double-dashed_dotted
 70
   64
  3
------   -----------   -   -----
 72
   65
 73
    6
 40
16.75
 49
6
 49
-1.5
 49
6
 49
-1.5
 49
0.25
 49
-1.5
  0
LTYPE
  2
dashed_double-dotted
 70
   64
  3
---------    -    -    ---------
 72
   65
 73
    6
 40
11
 49
6
 49
-1.5
 49
0.25
 49
-1.5
 49
0.25
 49
-1.5
  0
LTYPE
  2
double-dashed_double-dotted
 70
   64
  3
-----   ---------   -   -   ----
 72
   65
 73
    8
 40
18.5
 49
6
 49
-1.5
 49
6
 49
-1.5
 49
0.25
 49
-1.5
 49
0.25
 49
-1.5
  0
LTYPE
  2
dashed_triplicate-dotted
 70
   64
  3
-------    -    -    -    ------
 72
   65
 73
    8
 40
12.75
 49
6
 49
-1.5
 49
0.25
 49
-1.5
 49
0.25
 49
-1.5
 49
0.25
 49
-1.5
  0
LTYPE
  2
double-dashed_triplicate-dotted
 70
   64
  3
-----  ---------  -  -  -  -----
 72
   65
 73
   10
 40
20.25
 49
6
 49
-1.5
 49
6
 49
-1.5
 49
0.25
 49
-1.5
 49
0.25
 49
-1.5
 49
0.25
 49
-1.5
  0
LTYPE
  2
undefined
 70
   64
  3
--------------------------------
 72
   65
 73
    0
 40
0
  0
LTYPE
  2
_
 70
   64
  3
                                
 72
   65
 73
    0
 40
0
  0
LTYPE
  2
__18
 70
   64
  3
                                
 72
   65
 73
    0
 40
0
  0
LTYPE
  2
__19
 70
   64
  3
                                
 72
   65
 73
    0
 40
0
  0
LTYPE
  2
__20
 70
   64
  3
                                
 72
   65
 73
    0
 40
0
  0
LTYPE
  2
__21
 70
   64
  3
                                
 72
   65
 73
    0
 40
0
  0
LTYPE
  2
__22
 70
   64
  3
                                
 72
   65
 73
    0
 40
0
  0
LTYPE
  2
__23
 70
   64
  3
                                
 72
   65
 73
    0
 40
0
  0
LTYPE
  2
__24
 70
   64
  3
                                
 72
   65
 73
    0
 40
0
  0
LTYPE
  2
__25
 70
   64
  3
                                
 72
   65
 73
    0
 40
0
  0
LTYPE
  2
__26
 70
   64
  3
                                
 72
   65
 73
    0
 40
0
  0
LTYPE
  2
__27
 70
   64
  3
                                
 72
   65
 73
    0
 40
0
  0
LTYPE
  2
__28
 70
   64
  3
                                
 72
   65
 73
    0
 40
0
  0
LTYPE
  2
__29
 70
   64
  3
                                
 72
   65
 73
    0
 40
0
  0
LTYPE
  2
__30
 70
   64
  3
                                
 72
   65
 73
    0
 40
0
  0
LTYPE
  2
__31
 70
   64
  3
                                
 72
   65
 73
    0
 40
0
  0
LTYPE
  2
__32
 70
   64
  3
                                
 72
   65
 73
    0
 40
0
  0
ENDTAB
  0
TABLE
  2
STYLE
  5
3
100
AcDbSymbolTable
 70
     1
  0
STYLE
  5
10
100
AcDbSymbolTableRecord
100
AcDbTextStyleTableRecord
  2
STANDARD
 70
     0
 40
0.0
 41
1.0
 50
0.0
 71
     0
 42
0.2
  3
txt
  4
bigfont.shx
  0
STYLE
  5
26
100
AcDbSymbolTableRecord
100
AcDbTextStyleTableRecord
  2
TATEGAKI
 70
    68
 40
0.0
 41
1.0
 50
0.0
 71
     0
 42
1.0
  3
txt
  4
bigfont.shx
  0
ENDTAB
  0
TABLE
  2
LAYER
 70
    2
  0
LAYER
  2
_0-0_0
 70
   64
 62
    7
  6
CONTINUOUS
  0
LAYER
  2
ADD_LINE
 70
   64
 62
    7
  6
CONTINUOUS
  0
ENDTAB
  0
ENDSEC
  0
SECTION
  2
BLOCKS
  0
ENDSEC
  0
SECTION
  2
ENTITIES
  0
LINE
  8
_0-0_0
  6
CONTINUOUS
 62
    7
 10
-15.031149999999911
 20
-138.59154999999998
 11
-19.730649999999969
 21
-138.59154999999998
  0
LINE
  8
_0-0_0
  6
CONTINUOUS
 62
    7
 10
-18.730449999999905
 20
-130.19154999999995
 11
-18.730449999999905
 21
-137.19154999999995
  0
LINE
  8
_0-0_0
  6
CONTINUOUS
 62
    7
 10
-5.7306499999999687
 20
-138.59154999999998
 11
-10.43124999999992
 21
-138.59154999999998
  0
LINE
  8
_0-0_0
  6
CONTINUOUS
 62
    7
 10
-5.2304499999999052
 20
-130.19154999999995
 11
-5.2304499999999052
 21
-137.19154999999995
  0
LINE
  8
_0-0_0
  6
CONTINUOUS
 62
    7
 10
-5.7306499999999687
 20
-152.59154999999998
 11
-5.7306499999999687
 21
-138.59154999999998
  0
LINE
  8
_0-0_0
  6
CONTINUOUS
 62
    7
 10
-18.730449999999962
 20
-153.99155000000002
 11
-18.730449999999962
 21
-160.99155000000002
  0
LINE
  8
_0-0_0
  6
CONTINUOUS
 62
    7
 10
-19.730649999999969
 20
-152.59154999999998
 11
-15.031149999999968
 21
-152.59154999999998
  0
LINE
  8
_0-0_0
  6
CONTINUOUS
 62
    7
 10
-5.2304499999999621
 20
-153.99155000000002
 11
-10.431249999999977
 21
-153.99155000000002
  0
LINE
  8
_0-0_0
  6
CONTINUOUS
 62
    7
 10
-5.2304499999999621
 20
-192.09165000000002
 11
-10.431249999999977
 21
-192.09165000000002
  0
LINE
  8
_0-0_0
  6
CONTINUOUS
 62
    7
 10
-5.7306499999999687
 20
-190.69164999999998
 11
-5.7306499999999687
 21
-176.69164999999998
  0
LINE
  8
_0-0_0
  6
CONTINUOUS
 62
    7
 10
-5.2304499999999052
 20
-175.29164999999995
 11
-10.43124999999992
 21
-175.29164999999995
  0
LINE
  8
_0-0_0
  6
CONTINUOUS
 62
    7
 10
-15.031149999999911
 20
-176.69164999999998
 11
-19.730649999999969
 21
-176.69164999999998
  0
LINE
  8
_0-0_0
  6
CONTINUOUS
 62
    7
 10
-18.730449999999905
 20
-168.29164999999995
 11
-18.730449999999905
 21
-175.29164999999995
  0
LINE
  8
_0-0_0
  6
CONTINUOUS
 62
    7
 10
-18.730449999999962
 20
-192.09165000000002
 11
-18.730449999999962
 21
-199.09165000000002
  0
LINE
  8
_0-0_0
  6
CONTINUOUS
 62
    7
 10
-19.730649999999969
 20
-190.69164999999998
 11
-15.031149999999968
 21
-190.69164999999998
  0
LINE
  8
_0-0_0
  6
CONTINUOUS
 62
    7
 10
-68.755600000000015
 20
-187.21683000000007
 11
-75.755600000000015
 21
-187.21683000000007
  0
LINE
  8
_0-0_0
  6
CONTINUOUS
 62
    7
 10
-67.355599999999981
 20
-186.21663000000001
 11
-67.355599999999981
 21
-190.91613000000007
  0
LINE
  8
_0-0_0
  6
CONTINUOUS
 62
    7
 10
-53.355599999999981
 20
-190.91613000000007
 11
-53.355599999999981
 21
-186.21663000000001
  0
LINE
  8
_0-0_0
  6
CONTINUOUS
 62
    7
 10
-44.955599999999947
 20
-187.21683000000007
 11
-51.955599999999947
 21
-187.21683000000007
  0
LINE
  8
_0-0_0
  6
CONTINUOUS
 62
    7
 10
-67.355599999999981
 20
-200.21663000000001
 11
-53.355599999999981
 21
-200.21663000000001
  0
LINE
  8
_0-0_0
  6
CONTINUOUS
 62
    7
 10
-51.955599999999947
 20
-200.71683000000007
 11
-51.955599999999947
 21
-195.51603
  0
LINE
  8
_0-0_0
  6
CONTINUOUS
 62
    7
 10
-68.755600000000015
 20
-200.71683000000007
 11
-68.755600000000015
 21
-195.51603
  0
LINE
  8
_0-0_0
  6
CONTINUOUS
 62
    7
 10
-68.755600000000015
 20
-195.51603
 11
-67.355599999999981
 21
-195.51603
  0
LINE
  8
_0-0_0
  6
CONTINUOUS
 62
    7
 10
-67.355599999999981
 20
-195.51603
 11
-67.355599999999981
 21
-200.21663000000001
  0
LINE
  8
_0-0_0
  6
CONTINUOUS
 62
    7
 10
-67.355599999999981
 20
-190.91613000000007
 11
-68.755600000000015
 21
-190.91613000000007
  0
LINE
  8
_0-0_0
  6
CONTINUOUS
 62
    7
 10
-68.755600000000015
 20
-190.91613000000007
 11
-68.755600000000015
 21
-187.21683000000007
  0
LINE
  8
_0-0_0
  6
CONTINUOUS
 62
    7
 10
-51.955599999999947
 20
-190.91613000000007
 11
-53.355599999999981
 21
-190.91613000000007
  0
LINE
  8
_0-0_0
  6
CONTINUOUS
 62
    7
 10
-51.955599999999947
 20
-190.91613000000007
 11
-51.955599999999947
 21
-187.21683000000007
  0
LINE
  8
_0-0_0
  6
CONTINUOUS
 62
    7
 10
-53.355599999999981
 20
-200.21663000000001
 11
-53.355599999999981
 21
-195.51603
  0
LINE
  8
_0-0_0
  6
CONTINUOUS
 62
    7
 10
-53.355599999999981
 20
-195.51603
 11
-51.955599999999947
 21
-195.51603
  0
LINE
  8
_0-0_0
  6
CONTINUOUS
 62
    7
 10
-10.431249999999977
 20
-152.59154999999998
 11
-5.7306499999999687
 21
-152.59154999999998
  0
LINE
  8
_0-0_0
  6
CONTINUOUS
 62
    7
 10
-5.2304499999999621
 20
-153.99155000000002
 11
-5.2304499999999621
 21
-160.99155000000002
  0
LINE
  8
_0-0_0
  6
CONTINUOUS
 62
    7
 10
-38.780300000000011
 20
-186.21690000000001
 11
-24.781000000000006
 21
-186.21690000000001
  0
LINE
  8
_0-0_0
  6
CONTINUOUS
 62
    7
 10
-24.781000000000006
 20
-186.21690000000001
 11
-24.781000000000006
 21
-200.21636000000001
  0
LINE
  8
_0-0_0
  6
CONTINUOUS
 62
    7
 10
-24.781000000000006
 20
-200.21636000000001
 11
-38.780300000000011
 21
-200.21636000000001
  0
LINE
  8
_0-0_0
  6
CONTINUOUS
 62
    7
 10
-38.780300000000011
 20
-200.21636000000001
 11
-38.780300000000011
 21
-186.21690000000001
  0
LINE
  8
_0-0_0
  6
CONTINUOUS
 62
    7
 10
-38.780300000000011
 20
-167.16700000000003
 11
-24.781000000000006
 21
-167.16700000000003
  0
LINE
  8
_0-0_0
  6
CONTINUOUS
 62
    7
 10
-24.781000000000006
 20
-167.16700000000003
 11
-24.781000000000006
 21
-181.16640000000001
  0
LINE
  8
_0-0_0
  6
CONTINUOUS
 62
    7
 10
-24.781000000000006
 20
-181.16640000000001
 11
-38.780300000000011
 21
-181.16640000000001
  0
LINE
  8
_0-0_0
  6
CONTINUOUS
 62
    7
 10
-38.780300000000011
 20
-181.16640000000001
 11
-38.780300000000011
 21
-167.16700000000003
  0
LINE
  8
_0-0_0
  6
CONTINUOUS
 62
    7
 10
-57.830300000000022
 20
-167.16700000000003
 11
-43.831000000000017
 21
-167.16700000000003
  0
LINE
  8
_0-0_0
  6
CONTINUOUS
 62
    7
 10
-43.831000000000017
 20
-167.16700000000003
 11
-43.831000000000017
 21
-181.16640000000001
  0
LINE
  8
_0-0_0
  6
CONTINUOUS
 62
    7
 10
-43.831000000000017
 20
-181.16640000000001
 11
-57.830300000000022
 21
-181.16640000000001
  0
LINE
  8
_0-0_0
  6
CONTINUOUS
 62
    7
 10
-57.830300000000022
 20
-181.16640000000001
 11
-57.830300000000022
 21
-167.16700000000003
  0
LINE
  8
_0-0_0
  6
CONTINUOUS
 62
    7
 10
-76.880350000000021
 20
-167.16700000000003
 11
-62.880800000000022
 21
-167.16700000000003
  0
LINE
  8
_0-0_0
  6
CONTINUOUS
 62
    7
 10
-62.880800000000022
 20
-167.16700000000003
 11
-62.880800000000022
 21
-181.16640000000001
  0
LINE
  8
_0-0_0
  6
CONTINUOUS
 62
    7
 10
-62.880800000000022
 20
-181.16640000000001
 11
-76.880350000000021
 21
-181.16640000000001
  0
LINE
  8
_0-0_0
  6
CONTINUOUS
 62
    7
 10
-76.880350000000021
 20
-181.16640000000001
 11
-76.880350000000021
 21
-167.16700000000003
  0
LINE
  8
_0-0_0
  6
CONTINUOUS
 62
    7
 10
-38.780300000000011
 20
-148.11689999999999
 11
-24.781000000000006
 21
-148.11689999999999
  0
LINE
  8
_0-0_0
  6
CONTINUOUS
 62
    7
 10
-24.781000000000006
 20
-148.11689999999999
 11
-24.781000000000006
 21
-162.11619999999999
  0
LINE
  8
_0-0_0
  6
CONTINUOUS
 62
    7
 10
-24.781000000000006
 20
-162.11619999999999
 11
-38.780300000000011
 21
-162.11619999999999
  0
LINE
  8
_0-0_0
  6
CONTINUOUS
 62
    7
 10
-38.780300000000011
 20
-162.11619999999999
 11
-38.780300000000011
 21
-148.11689999999999
  0
LINE
  8
_0-0_0
  6
CONTINUOUS
 62
    7
 10
-57.830300000000022
 20
-148.11689999999999
 11
-43.831000000000017
 21
-148.11689999999999
  0
LINE
  8
_0-0_0
  6
CONTINUOUS
 62
    7
 10
-43.831000000000017
 20
-148.11689999999999
 11
-43.831000000000017
 21
-162.11619999999999
  0
LINE
  8
_0-0_0
  6
CONTINUOUS
 62
    7
 10
-43.831000000000017
 20
-162.11619999999999
 11
-57.830300000000022
 21
-162.11619999999999
  0
LINE
  8
_0-0_0
  6
CONTINUOUS
 62
    7
 10
-57.830300000000022
 20
-162.11619999999999
 11
-57.830300000000022
 21
-148.11689999999999
  0
LINE
  8
_0-0_0
  6
CONTINUOUS
 62
    7
 10
-76.880350000000021
 20
-148.11689999999999
 11
-62.880800000000022
 21
-148.11689999999999
  0
LINE
  8
_0-0_0
  6
CONTINUOUS
 62
    7
 10
-62.880800000000022
 20
-148.11689999999999
 11
-62.880800000000022
 21
-162.11619999999999
  0
LINE
  8
_0-0_0
  6
CONTINUOUS
 62
    7
 10
-62.880800000000022
 20
-162.11619999999999
 11
-76.880350000000021
 21
-162.11619999999999
  0
LINE
  8
_0-0_0
  6
CONTINUOUS
 62
    7
 10
-76.880350000000021
 20
-162.11619999999999
 11
-76.880350000000021
 21
-148.11689999999999
  0
LINE
  8
_0-0_0
  6
CONTINUOUS
 62
    7
 10
-38.780300000000011
 20
-129.06690000000003
 11
-24.781000000000006
 21
-129.06690000000003
  0
LINE
  8
_0-0_0
  6
CONTINUOUS
 62
    7
 10
-24.781000000000006
 20
-129.06690000000003
 11
-24.781000000000006
 21
-143.06619999999998
  0
LINE
  8
_0-0_0
  6
CONTINUOUS
 62
    7
 10
-24.781000000000006
 20
-143.06619999999998
 11
-38.780300000000011
 21
-143.06619999999998
  0
LINE
  8
_0-0_0
  6
CONTINUOUS
 62
    7
 10
-38.780300000000011
 20
-143.06619999999998
 11
-38.780300000000011
 21
-129.06690000000003
  0
LINE
  8
_0-0_0
  6
CONTINUOUS
 62
    7
 10
-57.830300000000022
 20
-129.06690000000003
 11
-43.831000000000017
 21
-129.06690000000003
  0
LINE
  8
_0-0_0
  6
CONTINUOUS
 62
    7
 10
-43.831000000000017
 20
-129.06690000000003
 11
-43.831000000000017
 21
-143.06619999999998
  0
LINE
  8
_0-0_0
  6
CONTINUOUS
 62
    7
 10
-43.831000000000017
 20
-143.06619999999998
 11
-57.830300000000022
 21
-143.06619999999998
  0
LINE
  8
_0-0_0
  6
CONTINUOUS
 62
    7
 10
-57.830300000000022
 20
-143.06619999999998
 11
-57.830300000000022
 21
-129.06690000000003
  0
LINE
  8
_0-0_0
  6
CONTINUOUS
 62
    7
 10
-76.880350000000021
 20
-129.06690000000003
 11
-62.880800000000022
 21
-129.06690000000003
  0
LINE
  8
_0-0_0
  6
CONTINUOUS
 62
    7
 10
-62.880800000000022
 20
-129.06690000000003
 11
-62.880800000000022
 21
-143.06619999999998
  0
LINE
  8
_0-0_0
  6
CONTINUOUS
 62
    7
 10
-62.880800000000022
 20
-143.06619999999998
 11
-76.880350000000021
 21
-143.06619999999998
  0
LINE
  8
_0-0_0
  6
CONTINUOUS
 62
    7
 10
-76.880350000000021
 20
-143.06619999999998
 11
-76.880350000000021
 21
-129.06690000000003
  0
LINE
  8
_0-0_0
  6
CONTINUOUS
 62
    7
 10
-19.7303
 20
-110.01690000000002
 11
-5.7309999999999945
 21
-110.01690000000002
  0
LINE
  8
_0-0_0
  6
CONTINUOUS
 62
    7
 10
-5.7309999999999945
 20
-110.01690000000002
 11
-5.7309999999999945
 21
-124.01620000000003
  0
LINE
  8
_0-0_0
  6
CONTINUOUS
 62
    7
 10
-5.7309999999999945
 20
-124.01620000000003
 11
-19.7303
 21
-124.01620000000003
  0
LINE
  8
_0-0_0
  6
CONTINUOUS
 62
    7
 10
-19.7303
 20
-124.01620000000003
 11
-19.7303
 21
-110.01690000000002
  0
LINE
  8
_0-0_0
  6
CONTINUOUS
 62
    7
 10
-38.780300000000011
 20
-110.01690000000002
 11
-24.781000000000006
 21
-110.01690000000002
  0
LINE
  8
_0-0_0
  6
CONTINUOUS
 62
    7
 10
-24.781000000000006
 20
-110.01690000000002
 11
-24.781000000000006
 21
-124.01620000000003
  0
LINE
  8
_0-0_0
  6
CONTINUOUS
 62
    7
 10
-24.781000000000006
 20
-124.01620000000003
 11
-38.780300000000011
 21
-124.01620000000003
  0
LINE
  8
_0-0_0
  6
CONTINUOUS
 62
    7
 10
-38.780300000000011
 20
-124.01620000000003
 11
-38.780300000000011
 21
-110.01690000000002
  0
LINE
  8
_0-0_0
  6
CONTINUOUS
 62
    7
 10
-57.830300000000022
 20
-110.01690000000002
 11
-43.831000000000017
 21
-110.01690000000002
  0
LINE
  8
_0-0_0
  6
CONTINUOUS
 62
    7
 10
-43.831000000000017
 20
-110.01690000000002
 11
-43.831000000000017
 21
-124.01620000000003
  0
LINE
  8
_0-0_0
  6
CONTINUOUS
 62
    7
 10
-43.831000000000017
 20
-124.01620000000003
 11
-57.830300000000022
 21
-124.01620000000003
  0
LINE
  8
_0-0_0
  6
CONTINUOUS
 62
    7
 10
-57.830300000000022
 20
-124.01620000000003
 11
-57.830300000000022
 21
-110.01690000000002
  0
LINE
  8
_0-0_0
  6
CONTINUOUS
 62
    7
 10
-76.880350000000021
 20
-110.01690000000002
 11
-62.880800000000022
 21
-110.01690000000002
  0
LINE
  8
_0-0_0
  6
CONTINUOUS
 62
    7
 10
-62.880800000000022
 20
-110.01690000000002
 11
-62.880800000000022
 21
-124.01620000000003
  0
LINE
  8
_0-0_0
  6
CONTINUOUS
 62
    7
 10
-62.880800000000022
 20
-124.01620000000003
 11
-76.880350000000021
 21
-124.01620000000003
  0
LINE
  8
_0-0_0
  6
CONTINUOUS
 62
    7
 10
-76.880350000000021
 20
-124.01620000000003
 11
-76.880350000000021
 21
-110.01690000000002
  0
LINE
  8
_0-0_0
  6
CONTINUOUS
 62
    7
 10
-75.755600000000015
 20
-200.71683000000007
 11
-75.755600000000015
 21
-187.21683000000007
  0
LINE
  8
_0-0_0
  6
CONTINUOUS
 62
    7
 10
-68.755600000000015
 20
-200.71683000000007
 11
-75.755600000000015
 21
-200.71683000000007
  0
LINE
  8
_0-0_0
  6
CONTINUOUS
 62
    7
 10
-44.955599999999947
 20
-200.71683000000007
 11
-51.955599999999947
 21
-200.71683000000007
  0
LINE
  8
_0-0_0
  6
CONTINUOUS
 62
    7
 10
-44.955599999999947
 20
-200.71683000000007
 11
-44.955599999999947
 21
-187.21683000000007
  0
LINE
  8
_0-0_0
  6
CONTINUOUS
 62
    7
 10
-75.755600000000015
 20
-187.21683000000007
 11
-68.755600000000015
 21
-187.21683000000007
  0
LINE
  8
_0-0_0
  6
CONTINUOUS
 62
    7
 10
-15.031149999999968
 20
-192.09165000000002
 11
-18.730449999999962
 21
-192.09165000000002
  0
LINE
  8
_0-0_0
  6
CONTINUOUS
 62
    7
 10
-5.2304499999999621
 20
-199.09165000000002
 11
-18.730449999999962
 21
-199.09165000000002
  0
LINE
  8
_0-0_0
  6
CONTINUOUS
 62
    7
 10
-5.2304499999999621
 20
-192.09165000000002
 11
-5.2304499999999621
 21
-199.09165000000002
  0
LINE
  8
_0-0_0
  6
CONTINUOUS
 62
    7
 10
-5.2304499999999052
 20
-168.29164999999995
 11
-5.2304499999999052
 21
-175.29164999999995
  0
LINE
  8
_0-0_0
  6
CONTINUOUS
 62
    7
 10
-5.2304499999999052
 20
-168.29164999999995
 11
-18.730449999999905
 21
-168.29164999999995
  0
LINE
  8
_0-0_0
  6
CONTINUOUS
 62
    7
 10
-15.031149999999911
 20
-175.29164999999995
 11
-18.730449999999905
 21
-175.29164999999995
  0
LINE
  8
_0-0_0
  6
CONTINUOUS
 62
    7
 10
-18.730449999999962
 20
-199.09165000000002
 11
-18.730449999999962
 21
-192.09165000000002
  0
LINE
  8
_0-0_0
  6
CONTINUOUS
 62
    7
 10
-15.031149999999968
 20
-153.99155000000002
 11
-18.730449999999962
 21
-153.99155000000002
  0
LINE
  8
_0-0_0
  6
CONTINUOUS
 62
    7
 10
-5.2304499999999621
 20
-160.99155000000002
 11
-18.730449999999962
 21
-160.99155000000002
  0
LINE
  8
_0-0_0
  6
CONTINUOUS
 62
    7
 10
-5.2304499999999052
 20
-130.19154999999995
 11
-18.730449999999905
 21
-130.19154999999995
  0
LINE
  8
_0-0_0
  6
CONTINUOUS
 62
    7
 10
-5.2304499999999052
 20
-137.19154999999995
 11
-10.43124999999992
 21
-137.19154999999995
  0
LINE
  8
_0-0_0
  6
CONTINUOUS
 62
    7
 10
-15.031149999999911
 20
-137.19154999999995
 11
-18.730449999999905
 21
-137.19154999999995
  0
LINE
  8
_0-0_0
  6
CONTINUOUS
 62
    7
 10
-18.730449999999962
 20
-160.99155000000002
 11
-18.730449999999962
 21
-153.99155000000002
  0
LINE
  8
_0-0_0
  6
CONTINUOUS
 62
    7
 10
-53.355599999999981
 20
-186.21663000000001
 11
-67.355599999999981
 21
-186.21663000000001
  0
LINE
  8
_0-0_0
  6
CONTINUOUS
 62
    7
 10
-19.730649999999969
 20
-176.69164999999998
 11
-19.730649999999969
 21
-190.69164999999998
  0
LINE
  8
_0-0_0
  6
CONTINUOUS
 62
    7
 10
-19.730649999999969
 20
-138.59154999999998
 11
-19.730649999999969
 21
-152.59154999999998
  0
LINE
  8
_0-0_0
  6
CONTINUOUS
 62
    7
 10
-15.031149999999968
 20
-190.69164999999998
 11
-15.031149999999968
 21
-192.09165000000002
  0
LINE
  8
_0-0_0
  6
CONTINUOUS
 62
    7
 10
-10.431249999999977
 20
-192.09165000000002
 11
-10.431249999999977
 21
-190.69164999999998
  0
LINE
  8
_0-0_0
  6
CONTINUOUS
 62
    7
 10
-10.431249999999977
 20
-190.69164999999998
 11
-5.7306499999999687
 21
-190.69164999999998
  0
LINE
  8
_0-0_0
  6
CONTINUOUS
 62
    7
 10
-15.031149999999911
 20
-175.29164999999995
 11
-15.031149999999911
 21
-176.69164999999998
  0
LINE
  8
_0-0_0
  6
CONTINUOUS
 62
    7
 10
-5.7306499999999687
 20
-176.69164999999998
 11
-10.43124999999992
 21
-176.69164999999998
  0
LINE
  8
_0-0_0
  6
CONTINUOUS
 62
    7
 10
-10.43124999999992
 20
-176.69164999999998
 11
-10.43124999999992
 21
-175.29164999999995
  0
LINE
  8
_0-0_0
  6
CONTINUOUS
 62
    7
 10
-15.031149999999968
 20
-152.59154999999998
 11
-15.031149999999968
 21
-153.99155000000002
  0
LINE
  8
_0-0_0
  6
CONTINUOUS
 62
    7
 10
-10.431249999999977
 20
-153.99155000000002
 11
-10.431249999999977
 21
-152.59154999999998
  0
LINE
  8
_0-0_0
  6
CONTINUOUS
 62
    7
 10
-10.43124999999992
 20
-138.59154999999998
 11
-10.43124999999992
 21
-137.19154999999995
  0
LINE
  8
_0-0_0
  6
CONTINUOUS
 62
    7
 10
-15.031149999999911
 20
-137.19154999999995
 11
-15.031149999999911
 21
-138.59154999999998
  0
ARC
  8
_0-0_0
  6
CONTINUOUS
 62
    7
 10
-81.380575000000022
 20
-77.016549999999995
 40
3
 50
90
 51
180
  0
LINE
  8
_0-0_0
  6
CONTINUOUS
 62
    7
 10
-1.2306499999999687
 20
-74.016549999999995
 11
-81.380575000000022
 21
-74.016549999999995
  0
ARC
  8
_0-0_0
  6
CONTINUOUS
 62
    7
 10
-1.2306499999999687
 20
-77.016549999999995
 40
3
 50
0
 51
90
  0
LINE
  8
_0-0_0
  6
CONTINUOUS
 62
    7
 10
1.7693500000000313
 20
-204.71663000000001
 11
1.7693500000000313
 21
-77.016549999999995
  0
ARC
  8
_0-0_0
  6
CONTINUOUS
 62
    7
 10
-1.2306499999999687
 20
-204.71663000000001
 40
3
 50
270
 51
0
  0
LINE
  8
_0-0_0
  6
CONTINUOUS
 62
    7
 10
-81.380575000000022
 20
-207.71663000000001
 11
-1.2306499999999687
 21
-207.71663000000001
  0
LINE
  8
_0-0_0
  6
CONTINUOUS
 62
    7
 10
-84.380575000000022
 20
-204.71663000000001
 11
-84.380575000000022
 21
-77.016549999999995
  0
ARC
  8
_0-0_0
  6
CONTINUOUS
 62
    7
 10
-81.380575000000022
 20
-204.71663000000001
 40
3
 50
180
 51
270
  0
CIRCLE
  8
_0-0_0
  6
CONTINUOUS
 62
    7
 10
-81.380575000000022
 20
-77.016549999999995
 40
1.05
  0
CIRCLE
  8
_0-0_0
  6
CONTINUOUS
 62
    7
 10
-1.2306499999999687
 20
-77.016549999999995
 40
1.05
  0
CIRCLE
  8
_0-0_0
  6
CONTINUOUS
 62
    7
 10
-1.2306499999999687
 20
-204.71663000000001
 40
1.05
  0
CIRCLE
  8
_0-0_0
  6
CONTINUOUS
 62
    7
 10
-81.380575000000022
 20
-204.71663000000001
 40
1.05
  0
LINE
  8
_0-0_0
  6
CONTINUOUS
 62
    7
 10
-18.980649999999969
 20
-95.266549999999995
 11
-6.4806499999999687
 21
-95.266549999999995
  0
LINE
  8
_0-0_0
  6
CONTINUOUS
 62
    7
 10
-6.4806499999999687
 20
-95.266549999999995
 11
-6.4806499999999687
 21
-81.766549999999995
  0
LINE
  8
_0-0_0
  6
CONTINUOUS
 62
    7
 10
-6.4806499999999687
 20
-81.766549999999995
 11
-18.980649999999969
 21
-81.766549999999995
  0
LINE
  8
_0-0_0
  6
CONTINUOUS
 62
    7
 10
-18.980649999999969
 20
-81.766549999999995
 11
-18.980649999999969
 21
-95.266549999999995
  0
LINE
  8
_0-0_0
  6
CONTINUOUS
 62
    7
 10
-62.123970404501733
 20
-94.715333393968706
 11
-62.023970404501767
 21
-94.61533339396874
  0
LINE
  8
_0-0_0
  6
CONTINUOUS
 62
    7
 10
-70.639970404501753
 20
-85.195360998161846
 11
-70.539970404501787
 21
-85.295360998161811
  0
LINE
  8
_0-0_0
  6
CONTINUOUS
 62
    7
 10
-75.839467114860952
 20
-84.195360998161846
 11
-75.839467114860952
 21
-84.695360998161846
  0
LINE
  8
_0-0_0
  6
CONTINUOUS
 62
    7
 10
-75.839467114860952
 20
-88.848264518966573
 11
-75.839467114860952
 21
-89.348264518966573
  0
LINE
  8
_0-0_0
  6
CONTINUOUS
 62
    7
 10
-76.839467114860952
 20
-84.195360998161846
 11
-76.839467114860952
 21
-95.715333393968706
  0
LINE
  8
_0-0_0
  6
CONTINUOUS
 62
    7
 10
-75.839467114860952
 20
-84.195360998161846
 11
-76.839467114860952
 21
-84.195360998161846
  0
LINE
  8
_0-0_0
  6
CONTINUOUS
 62
    7
 10
-75.839467114860952
 20
-84.195360998161846
 11
-75.839467114860952
 21
-95.715333393968706
  0
LINE
  8
_0-0_0
  6
CONTINUOUS
 62
    7
 10
-76.839467114860952
 20
-95.715333393968706
 11
-75.839467114860952
 21
-95.715333393968706
  0
LINE
  8
_0-0_0
  6
CONTINUOUS
 62
    7
 10
-68.039970404501787
 20
-95.715333393968706
 11
-67.039970404501787
 21
-95.715333393968706
  0
LINE
  8
_0-0_0
  6
CONTINUOUS
 62
    7
 10
-65.539970404501787
 20
-94.715333393968706
 11
-65.539970404501787
 21
-95.715333393968706
  0
LINE
  8
_0-0_0
  6
CONTINUOUS
 62
    7
 10
-68.039970404501787
 20
-89.455347196065304
 11
-68.039970404501787
 21
-95.715333393968706
  0
LINE
  8
_0-0_0
  6
CONTINUOUS
 62
    7
 10
-67.039970404501787
 20
-89.455347196065304
 11
-68.039970404501787
 21
-89.455347196065304
  0
LINE
  8
_0-0_0
  6
CONTINUOUS
 62
    7
 10
-67.039970404501787
 20
-89.455347196065304
 11
-67.039970404501787
 21
-95.715333393968706
  0
LINE
  8
_0-0_0
  6
CONTINUOUS
 62
    7
 10
-67.039970404501787
 20
-88.455347196065304
 11
-68.039970404501787
 21
-88.455347196065304
  0
LINE
  8
_0-0_0
  6
CONTINUOUS
 62
    7
 10
-67.039970404501787
 20
-87.455347196065304
 11
-68.039970404501787
 21
-87.455347196065304
  0
LINE
  8
_0-0_0
  6
CONTINUOUS
 62
    7
 10
-68.039970404501787
 20
-87.455347196065304
 11
-68.039970404501787
 21
-88.455347196065304
  0
LINE
  8
_0-0_0
  6
CONTINUOUS
 62
    7
 10
-67.039970404501787
 20
-88.455347196065304
 11
-67.039970404501787
 21
-87.455347196065304
  0
LINE
  8
_0-0_0
  6
CONTINUOUS
 62
    7
 10
-61.023970404501767
 20
-90.455347196065304
 11
-61.023970404501767
 21
-89.455347196065304
  0
LINE
  8
_0-0_0
  6
CONTINUOUS
 62
    7
 10
-64.539970404501787
 20
-91.230519561328492
 11
-61.023970404501767
 21
-93.379348496631508
  0
LINE
  8
_0-0_0
  6
CONTINUOUS
 62
    7
 10
-65.539970404501787
 20
-91.791332093402502
 11
-62.023970404501767
 21
-93.940161028705518
  0
LINE
  8
_0-0_0
  6
CONTINUOUS
 62
    7
 10
-57.523970404501767
 20
-95.715333393968706
 11
-56.523970404501767
 21
-95.715333393968706
  0
LINE
  8
_0-0_0
  6
CONTINUOUS
 62
    7
 10
-57.523970404501767
 20
-86.587257311675444
 11
-56.523970404501767
 21
-86.587257311675444
  0
LINE
  8
_0-0_0
  6
CONTINUOUS
 62
    7
 10
-59.523970404501767
 20
-89.455347196065304
 11
-59.523970404501767
 21
-90.455347196065304
  0
LINE
  8
_0-0_0
  6
CONTINUOUS
 62
    7
 10
-57.523970404501767
 20
-90.455347196065304
 11
-59.523970404501767
 21
-90.455347196065304
  0
LINE
  8
_0-0_0
  6
CONTINUOUS
 62
    7
 10
-57.523970404501767
 20
-90.455347196065304
 11
-57.523970404501767
 21
-95.715333393968706
  0
LINE
  8
_0-0_0
  6
CONTINUOUS
 62
    7
 10
-56.523970404501767
 20
-90.455347196065304
 11
-56.523970404501767
 21
-95.715333393968706
  0
LINE
  8
_0-0_0
  6
CONTINUOUS
 62
    7
 10
-54.523970404501767
 20
-90.455347196065304
 11
-56.523970404501767
 21
-90.455347196065304
  0
LINE
  8
_0-0_0
  6
CONTINUOUS
 62
    7
 10
-54.523970404501767
 20
-89.455347196065304
 11
-54.523970404501767
 21
-90.455347196065304
  0
LINE
  8
_0-0_0
  6
CONTINUOUS
 62
    7
 10
-54.523970404501767
 20
-89.455347196065304
 11
-56.523970404501767
 21
-89.455347196065304
  0
LINE
  8
_0-0_0
  6
CONTINUOUS
 62
    7
 10
-56.523970404501767
 20
-86.587257311675444
 11
-56.523970404501767
 21
-89.455347196065304
  0
LINE
  8
_0-0_0
  6
CONTINUOUS
 62
    7
 10
-57.523970404501767
 20
-89.455347196065304
 11
-59.523970404501767
 21
-89.455347196065304
  0
LINE
  8
_0-0_0
  6
CONTINUOUS
 62
    7
 10
-57.523970404501767
 20
-86.587257311675444
 11
-57.523970404501767
 21
-89.455347196065304
  0
LINE
  8
_0-0_0
  6
CONTINUOUS
 62
    7
 10
-53.023970404501767
 20
-95.715333393968706
 11
-51.00769769031524
 21
-95.715333393968706
  0
LINE
  8
_0-0_0
  6
CONTINUOUS
 62
    7
 10
-53.023970404501767
 20
-89.455347196065304
 11
-53.023970404501767
 21
-90.455347196065304
  0
LINE
  8
_0-0_0
  6
CONTINUOUS
 62
    7
 10
-49.50769769031524
 20
-95.715333392586672
 11
-48.50769769031524
 21
-95.715333392586672
  0
LINE
  8
_0-0_0
  6
CONTINUOUS
 62
    7
 10
-52.023970404501767
 20
-92.955347196065304
 11
-52.023970404501767
 21
-94.715333392586672
  0
LINE
  8
_0-0_0
  6
CONTINUOUS
 62
    7
 10
-53.023970404501767
 20
-91.955347196065304
 11
-53.023970404501767
 21
-95.715333393968706
  0
LINE
  8
_0-0_0
  6
CONTINUOUS
 62
    7
 10
-28.309853583817812
 20
-95.715333392586672
 11
-27.624067146190896
 21
-95.029546954959756
  0
LINE
  8
_0-0_0
  6
CONTINUOUS
 62
    7
 10
-43.00769769031524
 20
-95.715333391204638
 11
-43.00769769031524
 21
-94.715333391204638
  0
LINE
  8
_0-0_0
  6
CONTINUOUS
 62
    7
 10
-38.00769769031524
 20
-95.715333392586672
 11
-37.00769769031524
 21
-95.715333392586672
  0
LINE
  8
_0-0_0
  6
CONTINUOUS
 62
    7
 10
-41.50769769031524
 20
-95.715333392586672
 11
-40.50769769031524
 21
-95.715333392586672
  0
LINE
  8
_0-0_0
  6
CONTINUOUS
 62
    7
 10
-40.50769769031524
 20
-84.195360996779812
 11
-41.50769769031524
 21
-84.195360996779812
  0
LINE
  8
_0-0_0
  6
CONTINUOUS
 62
    7
 10
-41.50769769031524
 20
-84.195360996779812
 11
-41.50769769031524
 21
-95.715333392586672
  0
LINE
  8
_0-0_0
  6
CONTINUOUS
 62
    7
 10
-35.50769769031524
 20
-95.715333393968706
 11
-34.50769769031524
 21
-95.715333393968706
  0
LINE
  8
_0-0_0
  6
CONTINUOUS
 62
    7
 10
-43.00769769031524
 20
-90.455347194683213
 11
-43.00769769031524
 21
-89.455347194683213
  0
LINE
  8
_0-0_0
  6
CONTINUOUS
 62
    7
 10
-40.50769769031524
 20
-84.195360996779812
 11
-40.50769769031524
 21
-89.455347194683213
  0
LINE
  8
_0-0_0
  6
CONTINUOUS
 62
    7
 10
-35.50769769031524
 20
-89.455347194683213
 11
-35.50769769031524
 21
-95.715333393968706
  0
LINE
  8
_0-0_0
  6
CONTINUOUS
 62
    7
 10
-34.50769769031524
 20
-89.455347194683213
 11
-35.50769769031524
 21
-89.455347194683213
  0
LINE
  8
_0-0_0
  6
CONTINUOUS
 62
    7
 10
-34.50769769031524
 20
-89.455347194683213
 11
-34.50769769031524
 21
-95.715333393968706
  0
LINE
  8
_0-0_0
  6
CONTINUOUS
 62
    7
 10
-34.50769769031524
 20
-88.455347194683213
 11
-35.50769769031524
 21
-88.455347194683213
  0
LINE
  8
_0-0_0
  6
CONTINUOUS
 62
    7
 10
-34.50769769031524
 20
-87.455347194683213
 11
-35.50769769031524
 21
-87.455347194683213
  0
LINE
  8
_0-0_0
  6
CONTINUOUS
 62
    7
 10
-35.50769769031524
 20
-87.455347194683213
 11
-35.50769769031524
 21
-88.455347194683213
  0
LINE
  8
_0-0_0
  6
CONTINUOUS
 62
    7
 10
-34.50769769031524
 20
-88.455347194683213
 11
-34.50769769031524
 21
-87.455347194683213
  0
LINE
  8
_0-0_0
  6
CONTINUOUS
 62
    7
 10
-32.00769769031524
 20
-90.555347194683236
 11
-31.907697690315274
 21
-90.455347194683213
  0
LINE
  8
_0-0_0
  6
CONTINUOUS
 62
    7
 10
-28.724067146190862
 20
-90.455347194683213
 11
-28.624067146190896
 21
-90.555347194683236
  0
LINE
  8
_0-0_0
  6
CONTINUOUS
 62
    7
 10
-32.00769769031524
 20
-94.615333392586649
 11
-32.00769769031524
 21
-90.555347194683236
  0
LINE
  8
_0-0_0
  6
CONTINUOUS
 62
    7
 10
-32.00769769031524
 20
-94.615333392586649
 11
-31.907697690315274
 21
-94.715333392586672
  0
LINE
  8
_0-0_0
  6
CONTINUOUS
 62
    7
 10
-28.624067146190896
 20
-94.615333392586649
 11
-28.624067146190896
 21
-90.555347194683236
  0
LINE
  8
_0-0_0
  6
CONTINUOUS
 62
    7
 10
-28.724067146190862
 20
-94.715333392586672
 11
-28.624067146190896
 21
-94.615333392586649
  0
LINE
  8
_0-0_0
  6
CONTINUOUS
 62
    7
 10
-33.00769769031524
 20
-90.14113363231013
 11
-32.321911252688381
 21
-89.455347194683213
  0
LINE
  8
_0-0_0
  6
CONTINUOUS
 62
    7
 10
-28.309853583817812
 20
-89.455347194683213
 11
-27.624067146190896
 21
-90.14113363231013
  0
LINE
  8
_0-0_0
  6
CONTINUOUS
 62
    7
 10
-27.624067146190896
 20
-90.14113363231013
 11
-27.624067146190896
 21
-95.029546954959756
  0
LINE
  8
_0-0_0
  6
CONTINUOUS
 62
    7
 10
-33.00769769031524
 20
-95.029546954959756
 11
-32.321911252688381
 21
-95.715333392586672
  0
LINE
  8
_0-0_0
  6
CONTINUOUS
 62
    7
 10
-33.00769769031524
 20
-95.029546954959756
 11
-33.00769769031524
 21
-90.14113363231013
  0
LINE
  8
_0-0_0
  6
CONTINUOUS
 62
    7
 10
-31.907697690315274
 20
-94.715333392586672
 11
-30.565882418253068
 21
-94.715333392586672
  0
LINE
  8
_0-0_0
  6
CONTINUOUS
 62
    7
 10
-30.565882418253068
 20
-94.715333392586672
 11
-30.565882418253068
 21
-95.715333392586672
  0
LINE
  8
_0-0_0
  6
CONTINUOUS
 62
    7
 10
-32.321911252688381
 20
-95.715333392586672
 11
-30.565882418253068
 21
-95.715333392586672
  0
LINE
  8
_0-0_0
  6
CONTINUOUS
 62
    7
 10
-28.724067146190862
 20
-94.715333392586672
 11
-30.065882418253068
 21
-94.715333392586672
  0
LINE
  8
_0-0_0
  6
CONTINUOUS
 62
    7
 10
-28.309853583817812
 20
-95.715333392586672
 11
-30.065882418253068
 21
-95.715333392586672
  0
LINE
  8
_0-0_0
  6
CONTINUOUS
 62
    7
 10
-30.065882418253068
 20
-94.715333392586672
 11
-30.065882418253068
 21
-95.715333392586672
  0
LINE
  8
_0-0_0
  6
CONTINUOUS
 62
    7
 10
-32.321911252688381
 20
-89.455347194683213
 11
-30.565882418253068
 21
-89.455347194683213
  0
LINE
  8
_0-0_0
  6
CONTINUOUS
 62
    7
 10
-30.565882418253068
 20
-89.455347194683213
 11
-30.565882418253068
 21
-90.455347194683213
  0
LINE
  8
_0-0_0
  6
CONTINUOUS
 62
    7
 10
-31.907697690315274
 20
-90.455347194683213
 11
-30.565882418253068
 21
-90.455347194683213
  0
LINE
  8
_0-0_0
  6
CONTINUOUS
 62
    7
 10
-28.309853583817812
 20
-89.455347194683213
 11
-30.065882418253068
 21
-89.455347194683213
  0
LINE
  8
_0-0_0
  6
CONTINUOUS
 62
    7
 10
-30.065882418253068
 20
-89.455347194683213
 11
-30.065882418253068
 21
-90.455347194683213
  0
LINE
  8
_0-0_0
  6
CONTINUOUS
 62
    7
 10
-28.724067146190862
 20
-90.455347194683213
 11
-30.065882418253068
 21
-90.455347194683213
  0
LINE
  8
_0-0_0
  6
CONTINUOUS
 62
    7
 10
-52.023970404501767
 20
-94.715333392586672
 11
-50.13269769031524
 21
-94.715333392586672
  0
LINE
  8
_0-0_0
  6
CONTINUOUS
 62
    7
 10
-50.13269769031524
 20
-94.715333392586672
 11
-50.13269769031524
 21
-95.715333393968706
  0
LINE
  8
_0-0_0
  6
CONTINUOUS
 62
    7
 10
-53.023970404501767
 20
-95.715333393968706
 11
-50.13269769031524
 21
-95.715333393968706
  0
LINE
  8
_0-0_0
  6
CONTINUOUS
 62
    7
 10
-50.13269769031524
 20
-92.955347196065304
 11
-52.023970404501767
 21
-92.955347196065304
  0
LINE
  8
_0-0_0
  6
CONTINUOUS
 62
    7
 10
-50.13269769031524
 20
-91.955347196065304
 11
-50.13269769031524
 21
-92.955347196065304
  0
LINE
  8
_0-0_0
  6
CONTINUOUS
 62
    7
 10
-50.13269769031524
 20
-91.955347196065304
 11
-53.023970404501767
 21
-91.955347196065304
  0
LINE
  8
_0-0_0
  6
CONTINUOUS
 62
    7
 10
-70.639970404501753
 20
-89.455347196065304
 11
-70.539970404501787
 21
-89.355347196065281
  0
LINE
  8
_0-0_0
  6
CONTINUOUS
 62
    7
 10
-70.539970404501787
 20
-85.295360998161811
 11
-70.539970404501787
 21
-89.355347196065281
  0
LINE
  8
_0-0_0
  6
CONTINUOUS
 62
    7
 10
-70.225756842128646
 20
-90.455347196065304
 11
-69.539970404501787
 21
-89.769560758438388
  0
LINE
  8
_0-0_0
  6
CONTINUOUS
 62
    7
 10
-70.225756842128646
 20
-84.195360998161846
 11
-69.539970404501787
 21
-84.881147435788705
  0
LINE
  8
_0-0_0
  6
CONTINUOUS
 62
    7
 10
-69.539970404501787
 20
-84.881147435788705
 11
-69.539970404501787
 21
-89.769560758438388
  0
LINE
  8
_0-0_0
  6
CONTINUOUS
 62
    7
 10
-49.607697690315263
 20
-90.455347196065304
 11
-53.023970404501767
 21
-90.455347196065304
  0
LINE
  8
_0-0_0
  6
CONTINUOUS
 62
    7
 10
-49.50769769031524
 20
-90.55534719606527
 11
-49.50769769031524
 21
-95.715333392586672
  0
LINE
  8
_0-0_0
  6
CONTINUOUS
 62
    7
 10
-49.607697690315263
 20
-90.455347196065304
 11
-49.50769769031524
 21
-90.55534719606527
  0
LINE
  8
_0-0_0
  6
CONTINUOUS
 62
    7
 10
-49.193484127942156
 20
-89.455347196065304
 11
-53.023970404501767
 21
-89.455347196065304
  0
LINE
  8
_0-0_0
  6
CONTINUOUS
 62
    7
 10
-49.193484127942156
 20
-89.455347196065304
 11
-48.50769769031524
 21
-90.141133633692164
  0
LINE
  8
_0-0_0
  6
CONTINUOUS
 62
    7
 10
-48.50769769031524
 20
-90.141133633692164
 11
-48.50769769031524
 21
-95.715333392586672
  0
LINE
  8
_0-0_0
  6
CONTINUOUS
 62
    7
 10
-38.00769769031524
 20
-90.555347194683236
 11
-38.00769769031524
 21
-95.715333392586672
  0
LINE
  8
_0-0_0
  6
CONTINUOUS
 62
    7
 10
-38.107697690315263
 20
-90.455347194683213
 11
-38.00769769031524
 21
-90.555347194683236
  0
LINE
  8
_0-0_0
  6
CONTINUOUS
 62
    7
 10
-45.907697690315274
 20
-90.455347194683213
 11
-43.00769769031524
 21
-90.455347194683213
  0
LINE
  8
_0-0_0
  6
CONTINUOUS
 62
    7
 10
-46.00769769031524
 20
-90.555347194683236
 11
-45.907697690315274
 21
-90.455347194683213
  0
LINE
  8
_0-0_0
  6
CONTINUOUS
 62
    7
 10
-46.00769769031524
 20
-94.615333391204672
 11
-46.00769769031524
 21
-90.555347194683236
  0
LINE
  8
_0-0_0
  6
CONTINUOUS
 62
    7
 10
-45.907697690315274
 20
-94.715333391204638
 11
-43.00769769031524
 21
-94.715333391204638
  0
LINE
  8
_0-0_0
  6
CONTINUOUS
 62
    7
 10
-46.00769769031524
 20
-94.615333391204672
 11
-45.907697690315274
 21
-94.715333391204638
  0
LINE
  8
_0-0_0
  6
CONTINUOUS
 62
    7
 10
-40.50769769031524
 20
-90.555347194683236
 11
-40.50769769031524
 21
-95.715333392586672
  0
LINE
  8
_0-0_0
  6
CONTINUOUS
 62
    7
 10
-40.407697690315274
 20
-90.455347194683213
 11
-38.107697690315263
 21
-90.455347194683213
  0
LINE
  8
_0-0_0
  6
CONTINUOUS
 62
    7
 10
-40.50769769031524
 20
-90.555347194683236
 11
-40.407697690315274
 21
-90.455347194683213
  0
LINE
  8
_0-0_0
  6
CONTINUOUS
 62
    7
 10
-47.00769769031524
 20
-90.14113363231013
 11
-46.321911252688381
 21
-89.455347194683213
  0
LINE
  8
_0-0_0
  6
CONTINUOUS
 62
    7
 10
-43.00769769031524
 20
-89.455347194683213
 11
-46.321911252688381
 21
-89.455347194683213
  0
LINE
  8
_0-0_0
  6
CONTINUOUS
 62
    7
 10
-47.00769769031524
 20
-95.029546953577778
 11
-47.00769769031524
 21
-90.14113363231013
  0
LINE
  8
_0-0_0
  6
CONTINUOUS
 62
    7
 10
-47.00769769031524
 20
-95.029546953577778
 11
-46.321911252688381
 21
-95.715333391204638
  0
LINE
  8
_0-0_0
  6
CONTINUOUS
 62
    7
 10
-46.321911252688381
 20
-95.715333391204638
 11
-43.00769769031524
 21
-95.715333391204638
  0
LINE
  8
_0-0_0
  6
CONTINUOUS
 62
    7
 10
-37.693484127942156
 20
-89.455347194683213
 11
-40.50769769031524
 21
-89.455347194683213
  0
LINE
  8
_0-0_0
  6
CONTINUOUS
 62
    7
 10
-37.00769769031524
 20
-90.14113363231013
 11
-37.00769769031524
 21
-95.715333392586672
  0
LINE
  8
_0-0_0
  6
CONTINUOUS
 62
    7
 10
-37.693484127942156
 20
-89.455347194683213
 11
-37.00769769031524
 21
-90.14113363231013
  0
LINE
  8
_0-0_0
  6
CONTINUOUS
 62
    7
 10
-64.539970404501787
 20
-90.55534719606527
 11
-64.539970404501787
 21
-91.230519561328492
  0
LINE
  8
_0-0_0
  6
CONTINUOUS
 62
    7
 10
-64.439970404501764
 20
-90.455347196065304
 11
-61.023970404501767
 21
-90.455347196065304
  0
LINE
  8
_0-0_0
  6
CONTINUOUS
 62
    7
 10
-64.539970404501787
 20
-90.55534719606527
 11
-64.439970404501764
 21
-90.455347196065304
  0
LINE
  8
_0-0_0
  6
CONTINUOUS
 62
    7
 10
-62.123970404501733
 20
-94.715333393968706
 11
-65.539970404501787
 21
-94.715333393968706
  0
LINE
  8
_0-0_0
  6
CONTINUOUS
 62
    7
 10
-62.023970404501767
 20
-94.61533339396874
 11
-62.023970404501767
 21
-93.940161028705518
  0
LINE
  8
_0-0_0
  6
CONTINUOUS
 62
    7
 10
-65.539970404501787
 20
-91.791332093402502
 11
-65.539970404501787
 21
-90.141133633692164
  0
LINE
  8
_0-0_0
  6
CONTINUOUS
 62
    7
 10
-65.539970404501787
 20
-90.141133633692164
 11
-64.854183966874871
 21
-89.455347196065304
  0
LINE
  8
_0-0_0
  6
CONTINUOUS
 62
    7
 10
-61.023970404501767
 20
-89.455347196065304
 11
-64.854183966874871
 21
-89.455347196065304
  0
LINE
  8
_0-0_0
  6
CONTINUOUS
 62
    7
 10
-65.539970404501787
 20
-95.715333393968706
 11
-61.709756842128627
 21
-95.715333393968706
  0
LINE
  8
_0-0_0
  6
CONTINUOUS
 62
    7
 10
-61.709756842128627
 20
-95.715333393968706
 11
-61.023970404501767
 21
-95.029546956341846
  0
LINE
  8
_0-0_0
  6
CONTINUOUS
 62
    7
 10
-61.023970404501767
 20
-95.029546956341846
 11
-61.023970404501767
 21
-93.379348496631508
  0
LINE
  8
_0-0_0
  6
CONTINUOUS
 62
    7
 10
-74.964467114860952
 20
-84.195360998161846
 11
-70.225756842128646
 21
-84.195360998161846
  0
LINE
  8
_0-0_0
  6
CONTINUOUS
 62
    7
 10
-70.639970404501753
 20
-89.455347196065304
 11
-74.964467114860952
 21
-89.455347196065304
  0
LINE
  8
_0-0_0
  6
CONTINUOUS
 62
    7
 10
-74.964467114860952
 20
-89.455347196065304
 11
-74.964467114860952
 21
-90.455347196065304
  0
LINE
  8
_0-0_0
  6
CONTINUOUS
 62
    7
 10
-70.225756842128646
 20
-90.455347196065304
 11
-74.964467114860952
 21
-90.455347196065304
  0
LINE
  8
_0-0_0
  6
CONTINUOUS
 62
    7
 10
-74.964467114860952
 20
-84.195360998161846
 11
-74.964467114860952
 21
-85.195360998161846
  0
LINE
  8
_0-0_0
  6
CONTINUOUS
 62
    7
 10
-70.639970404501753
 20
-85.195360998161846
 11
-74.964467114860952
 21
-85.195360998161846
  0
ENDSEC
  0
EOF
