G04 #@! TF.GenerationSoftware,KiCad,Pcbnew,(5.1.5)-3*
G04 #@! TF.CreationDate,2020-10-14T22:05:02+09:00*
G04 #@! TF.ProjectId,Pistachio_MacroPad_bottom,50697374-6163-4686-996f-5f4d6163726f,rev?*
G04 #@! TF.SameCoordinates,Original*
G04 #@! TF.FileFunction,Copper,L1,Top*
G04 #@! TF.FilePolarity,Positive*
%FSLAX46Y46*%
G04 Gerber Fmt 4.6, Leading zero omitted, Abs format (unit mm)*
G04 Created by KiCad (PCBNEW (5.1.5)-3) date 2020-10-14 22:05:02*
%MOMM*%
%LPD*%
G04 APERTURE LIST*
%ADD10C,0.300000*%
%ADD11R,2.500000X5.100000*%
%ADD12C,17.800000*%
%ADD13O,2.500000X5.000000*%
%ADD14R,1.200000X3.000000*%
%ADD15C,1.000000*%
%ADD16C,1.500000*%
G04 APERTURE END LIST*
D10*
X33678571Y-152638571D02*
X33678571Y-151138571D01*
X34035714Y-151138571D01*
X34250000Y-151210000D01*
X34392857Y-151352857D01*
X34464285Y-151495714D01*
X34535714Y-151781428D01*
X34535714Y-151995714D01*
X34464285Y-152281428D01*
X34392857Y-152424285D01*
X34250000Y-152567142D01*
X34035714Y-152638571D01*
X33678571Y-152638571D01*
X35750000Y-152567142D02*
X35607142Y-152638571D01*
X35321428Y-152638571D01*
X35178571Y-152567142D01*
X35107142Y-152424285D01*
X35107142Y-151852857D01*
X35178571Y-151710000D01*
X35321428Y-151638571D01*
X35607142Y-151638571D01*
X35750000Y-151710000D01*
X35821428Y-151852857D01*
X35821428Y-151995714D01*
X35107142Y-152138571D01*
X36392857Y-152567142D02*
X36535714Y-152638571D01*
X36821428Y-152638571D01*
X36964285Y-152567142D01*
X37035714Y-152424285D01*
X37035714Y-152352857D01*
X36964285Y-152210000D01*
X36821428Y-152138571D01*
X36607142Y-152138571D01*
X36464285Y-152067142D01*
X36392857Y-151924285D01*
X36392857Y-151852857D01*
X36464285Y-151710000D01*
X36607142Y-151638571D01*
X36821428Y-151638571D01*
X36964285Y-151710000D01*
X37678571Y-152638571D02*
X37678571Y-151638571D01*
X37678571Y-151138571D02*
X37607142Y-151210000D01*
X37678571Y-151281428D01*
X37750000Y-151210000D01*
X37678571Y-151138571D01*
X37678571Y-151281428D01*
X39035714Y-151638571D02*
X39035714Y-152852857D01*
X38964285Y-152995714D01*
X38892857Y-153067142D01*
X38750000Y-153138571D01*
X38535714Y-153138571D01*
X38392857Y-153067142D01*
X39035714Y-152567142D02*
X38892857Y-152638571D01*
X38607142Y-152638571D01*
X38464285Y-152567142D01*
X38392857Y-152495714D01*
X38321428Y-152352857D01*
X38321428Y-151924285D01*
X38392857Y-151781428D01*
X38464285Y-151710000D01*
X38607142Y-151638571D01*
X38892857Y-151638571D01*
X39035714Y-151710000D01*
X39750000Y-151638571D02*
X39750000Y-152638571D01*
X39750000Y-151781428D02*
X39821428Y-151710000D01*
X39964285Y-151638571D01*
X40178571Y-151638571D01*
X40321428Y-151710000D01*
X40392857Y-151852857D01*
X40392857Y-152638571D01*
X41678571Y-152567142D02*
X41535714Y-152638571D01*
X41250000Y-152638571D01*
X41107142Y-152567142D01*
X41035714Y-152424285D01*
X41035714Y-151852857D01*
X41107142Y-151710000D01*
X41250000Y-151638571D01*
X41535714Y-151638571D01*
X41678571Y-151710000D01*
X41750000Y-151852857D01*
X41750000Y-151995714D01*
X41035714Y-152138571D01*
X43035714Y-152638571D02*
X43035714Y-151138571D01*
X43035714Y-152567142D02*
X42892857Y-152638571D01*
X42607142Y-152638571D01*
X42464285Y-152567142D01*
X42392857Y-152495714D01*
X42321428Y-152352857D01*
X42321428Y-151924285D01*
X42392857Y-151781428D01*
X42464285Y-151710000D01*
X42607142Y-151638571D01*
X42892857Y-151638571D01*
X43035714Y-151710000D01*
X44892857Y-152638571D02*
X44892857Y-151138571D01*
X44892857Y-151710000D02*
X45035714Y-151638571D01*
X45321428Y-151638571D01*
X45464285Y-151710000D01*
X45535714Y-151781428D01*
X45607142Y-151924285D01*
X45607142Y-152352857D01*
X45535714Y-152495714D01*
X45464285Y-152567142D01*
X45321428Y-152638571D01*
X45035714Y-152638571D01*
X44892857Y-152567142D01*
X46107142Y-151638571D02*
X46464285Y-152638571D01*
X46821428Y-151638571D02*
X46464285Y-152638571D01*
X46321428Y-152995714D01*
X46250000Y-153067142D01*
X46107142Y-153138571D01*
X48392857Y-151138571D02*
X49392857Y-151138571D01*
X48750000Y-152638571D01*
X49607142Y-152781428D02*
X50750000Y-152781428D01*
X51107142Y-152638571D02*
X51107142Y-151638571D01*
X51107142Y-151924285D02*
X51178571Y-151781428D01*
X51250000Y-151710000D01*
X51392857Y-151638571D01*
X51535714Y-151638571D01*
X52678571Y-152638571D02*
X52678571Y-151852857D01*
X52607142Y-151710000D01*
X52464285Y-151638571D01*
X52178571Y-151638571D01*
X52035714Y-151710000D01*
X52678571Y-152567142D02*
X52535714Y-152638571D01*
X52178571Y-152638571D01*
X52035714Y-152567142D01*
X51964285Y-152424285D01*
X51964285Y-152281428D01*
X52035714Y-152138571D01*
X52178571Y-152067142D01*
X52535714Y-152067142D01*
X52678571Y-151995714D01*
X53178571Y-151638571D02*
X53750000Y-151638571D01*
X53392857Y-151138571D02*
X53392857Y-152424285D01*
X53464285Y-152567142D01*
X53607142Y-152638571D01*
X53750000Y-152638571D01*
X54821428Y-152567142D02*
X54678571Y-152638571D01*
X54392857Y-152638571D01*
X54250000Y-152567142D01*
X54178571Y-152424285D01*
X54178571Y-151852857D01*
X54250000Y-151710000D01*
X54392857Y-151638571D01*
X54678571Y-151638571D01*
X54821428Y-151710000D01*
X54892857Y-151852857D01*
X54892857Y-151995714D01*
X54178571Y-152138571D01*
D11*
X57080000Y-32420000D03*
X79980000Y-32420000D03*
D12*
X68530000Y-32420000D03*
D13*
X108880000Y-78170000D03*
X102880000Y-78170000D03*
D14*
X84120000Y-23860000D03*
X86620000Y-23860000D03*
X89120000Y-23860000D03*
X84120000Y-32860000D03*
X86620000Y-32860000D03*
X89120000Y-32860000D03*
D15*
X84120000Y-32860000D02*
X84120000Y-23860000D01*
X83680000Y-32420000D02*
X84120000Y-32860000D01*
X79980000Y-32420000D02*
X83680000Y-32420000D01*
X79980000Y-28870000D02*
X79980000Y-32420000D01*
X73919930Y-22809930D02*
X79980000Y-28870000D01*
X63140070Y-22809930D02*
X73919930Y-22809930D01*
X57080000Y-32420000D02*
X57080000Y-28870000D01*
X57080000Y-28870000D02*
X63140070Y-22809930D01*
D16*
X102880000Y-66280000D02*
X102880000Y-78170000D01*
X68530000Y-32420000D02*
X69020000Y-32420000D01*
X69020000Y-32420000D02*
X102880000Y-66280000D01*
D15*
X86620000Y-32860000D02*
X86620000Y-23860000D01*
D16*
X108880000Y-76920000D02*
X108880000Y-78170000D01*
X108880000Y-62270000D02*
X108880000Y-76920000D01*
X86620000Y-32860000D02*
X86620000Y-40010000D01*
X86620000Y-40010000D02*
X108880000Y-62270000D01*
M02*
