G04 #@! TF.GenerationSoftware,KiCad,Pcbnew,(5.1.5)-3*
G04 #@! TF.CreationDate,2020-10-14T22:05:02+09:00*
G04 #@! TF.ProjectId,Pistachio_MacroPad_bottom,50697374-6163-4686-996f-5f4d6163726f,rev?*
G04 #@! TF.SameCoordinates,Original*
G04 #@! TF.FileFunction,Soldermask,Top*
G04 #@! TF.FilePolarity,Negative*
%FSLAX46Y46*%
G04 Gerber Fmt 4.6, Leading zero omitted, Abs format (unit mm)*
G04 Created by KiCad (PCBNEW (5.1.5)-3) date 2020-10-14 22:05:02*
%MOMM*%
%LPD*%
G04 APERTURE LIST*
%ADD10C,0.100000*%
G04 APERTURE END LIST*
D10*
G36*
X109135040Y-75637825D02*
G01*
X109380280Y-75712218D01*
X109606294Y-75833025D01*
X109657899Y-75875376D01*
X109804397Y-75995603D01*
X109924624Y-76142101D01*
X109966975Y-76193706D01*
X110087782Y-76419720D01*
X110162175Y-76664960D01*
X110181000Y-76856095D01*
X110181000Y-79483905D01*
X110162175Y-79675040D01*
X110087782Y-79920280D01*
X109966975Y-80146294D01*
X109804396Y-80344396D01*
X109606293Y-80506975D01*
X109380279Y-80627782D01*
X109135039Y-80702175D01*
X108880000Y-80727294D01*
X108624960Y-80702175D01*
X108379720Y-80627782D01*
X108379718Y-80627781D01*
X108153707Y-80506976D01*
X107955604Y-80344396D01*
X107793026Y-80146294D01*
X107793025Y-80146293D01*
X107672218Y-79920279D01*
X107597825Y-79675039D01*
X107579000Y-79483904D01*
X107579001Y-76856095D01*
X107597826Y-76664960D01*
X107672219Y-76419720D01*
X107793026Y-76193706D01*
X107835377Y-76142101D01*
X107955604Y-75995603D01*
X108102102Y-75875376D01*
X108153707Y-75833025D01*
X108379721Y-75712218D01*
X108624961Y-75637825D01*
X108880000Y-75612706D01*
X109135040Y-75637825D01*
G37*
G36*
X103135040Y-75637825D02*
G01*
X103380280Y-75712218D01*
X103606294Y-75833025D01*
X103657899Y-75875376D01*
X103804397Y-75995603D01*
X103924624Y-76142101D01*
X103966975Y-76193706D01*
X104087782Y-76419720D01*
X104162175Y-76664960D01*
X104181000Y-76856095D01*
X104181000Y-79483905D01*
X104162175Y-79675040D01*
X104087782Y-79920280D01*
X103966975Y-80146294D01*
X103804396Y-80344396D01*
X103606293Y-80506975D01*
X103380279Y-80627782D01*
X103135039Y-80702175D01*
X102880000Y-80727294D01*
X102624960Y-80702175D01*
X102379720Y-80627782D01*
X102379718Y-80627781D01*
X102153707Y-80506976D01*
X101955604Y-80344396D01*
X101793026Y-80146294D01*
X101793025Y-80146293D01*
X101672218Y-79920279D01*
X101597825Y-79675039D01*
X101579000Y-79483904D01*
X101579001Y-76856095D01*
X101597826Y-76664960D01*
X101672219Y-76419720D01*
X101793026Y-76193706D01*
X101835377Y-76142101D01*
X101955604Y-75995603D01*
X102102102Y-75875376D01*
X102153707Y-75833025D01*
X102379721Y-75712218D01*
X102624961Y-75637825D01*
X102880000Y-75612706D01*
X103135040Y-75637825D01*
G37*
G36*
X71140909Y-23812981D02*
G01*
X72769887Y-24487726D01*
X72769888Y-24487727D01*
X74235930Y-25467304D01*
X75482696Y-26714070D01*
X76137228Y-27693648D01*
X76462274Y-28180113D01*
X77137019Y-29809091D01*
X77481000Y-31538402D01*
X77481000Y-33301598D01*
X77137019Y-35030909D01*
X76462274Y-36659887D01*
X76462273Y-36659888D01*
X75482696Y-38125930D01*
X74235930Y-39372696D01*
X73256352Y-40027228D01*
X72769887Y-40352274D01*
X71140909Y-41027019D01*
X69411598Y-41371000D01*
X67648402Y-41371000D01*
X65919091Y-41027019D01*
X64290113Y-40352274D01*
X63803648Y-40027228D01*
X62824070Y-39372696D01*
X61577304Y-38125930D01*
X60597727Y-36659888D01*
X60597726Y-36659887D01*
X59922981Y-35030909D01*
X59579000Y-33301598D01*
X59579000Y-31538402D01*
X59922981Y-29809091D01*
X60597726Y-28180113D01*
X60922772Y-27693648D01*
X61577304Y-26714070D01*
X62824070Y-25467304D01*
X64290112Y-24487727D01*
X64290113Y-24487726D01*
X65919091Y-23812981D01*
X67648402Y-23469000D01*
X69411598Y-23469000D01*
X71140909Y-23812981D01*
G37*
G36*
X58381000Y-35021000D02*
G01*
X55779000Y-35021000D01*
X55779000Y-29819000D01*
X58381000Y-29819000D01*
X58381000Y-35021000D01*
G37*
G36*
X81281000Y-35021000D02*
G01*
X78679000Y-35021000D01*
X78679000Y-29819000D01*
X81281000Y-29819000D01*
X81281000Y-35021000D01*
G37*
G36*
X84771000Y-34411000D02*
G01*
X83469000Y-34411000D01*
X83469000Y-31309000D01*
X84771000Y-31309000D01*
X84771000Y-34411000D01*
G37*
G36*
X87271000Y-34411000D02*
G01*
X85969000Y-34411000D01*
X85969000Y-31309000D01*
X87271000Y-31309000D01*
X87271000Y-34411000D01*
G37*
G36*
X89771000Y-34411000D02*
G01*
X88469000Y-34411000D01*
X88469000Y-31309000D01*
X89771000Y-31309000D01*
X89771000Y-34411000D01*
G37*
G36*
X89771000Y-25411000D02*
G01*
X88469000Y-25411000D01*
X88469000Y-22309000D01*
X89771000Y-22309000D01*
X89771000Y-25411000D01*
G37*
G36*
X87271000Y-25411000D02*
G01*
X85969000Y-25411000D01*
X85969000Y-22309000D01*
X87271000Y-22309000D01*
X87271000Y-25411000D01*
G37*
G36*
X84771000Y-25411000D02*
G01*
X83469000Y-25411000D01*
X83469000Y-22309000D01*
X84771000Y-22309000D01*
X84771000Y-25411000D01*
G37*
M02*
