G04 #@! TF.GenerationSoftware,KiCad,Pcbnew,(5.1.5)-3*
G04 #@! TF.CreationDate,2020-10-14T22:05:02+09:00*
G04 #@! TF.ProjectId,Pistachio_MacroPad_bottom,50697374-6163-4686-996f-5f4d6163726f,rev?*
G04 #@! TF.SameCoordinates,Original*
G04 #@! TF.FileFunction,Legend,Bot*
G04 #@! TF.FilePolarity,Positive*
%FSLAX46Y46*%
G04 Gerber Fmt 4.6, Leading zero omitted, Abs format (unit mm)*
G04 Created by KiCad (PCBNEW (5.1.5)-3) date 2020-10-14 22:05:02*
%MOMM*%
%LPD*%
G04 APERTURE LIST*
%ADD10C,0.010000*%
G04 APERTURE END LIST*
D10*
G36*
X38346582Y-142005886D02*
G01*
X38142810Y-142034950D01*
X38079175Y-142057463D01*
X37918101Y-142241598D01*
X37821427Y-142498299D01*
X37802122Y-142762513D01*
X37873153Y-142969183D01*
X37892933Y-142991734D01*
X38035029Y-143046914D01*
X38311214Y-143082288D01*
X38645875Y-143093334D01*
X38993994Y-143085912D01*
X39206552Y-143059418D01*
X39316844Y-143007506D01*
X39348608Y-142959409D01*
X39400269Y-142655368D01*
X39347932Y-142355354D01*
X39230666Y-142162000D01*
X39059830Y-142049402D01*
X38809086Y-141999802D01*
X38616833Y-141993963D01*
X38346582Y-142005886D01*
G37*
X38346582Y-142005886D02*
X38142810Y-142034950D01*
X38079175Y-142057463D01*
X37918101Y-142241598D01*
X37821427Y-142498299D01*
X37802122Y-142762513D01*
X37873153Y-142969183D01*
X37892933Y-142991734D01*
X38035029Y-143046914D01*
X38311214Y-143082288D01*
X38645875Y-143093334D01*
X38993994Y-143085912D01*
X39206552Y-143059418D01*
X39316844Y-143007506D01*
X39348608Y-142959409D01*
X39400269Y-142655368D01*
X39347932Y-142355354D01*
X39230666Y-142162000D01*
X39059830Y-142049402D01*
X38809086Y-141999802D01*
X38616833Y-141993963D01*
X38346582Y-142005886D01*
G36*
X64280282Y-142033887D02*
G01*
X64028835Y-142165947D01*
X63897464Y-142401445D01*
X63868666Y-142660942D01*
X63881646Y-142857544D01*
X63940859Y-142983626D01*
X64076716Y-143054644D01*
X64319627Y-143086058D01*
X64700004Y-143093326D01*
X64719279Y-143093334D01*
X65040351Y-143085840D01*
X65234300Y-143056549D01*
X65342938Y-142995248D01*
X65389688Y-142929566D01*
X65472098Y-142636012D01*
X65391573Y-142348673D01*
X65301855Y-142215752D01*
X65171822Y-142082131D01*
X65014848Y-142015255D01*
X64769604Y-141993578D01*
X64666855Y-141992667D01*
X64280282Y-142033887D01*
G37*
X64280282Y-142033887D02*
X64028835Y-142165947D01*
X63897464Y-142401445D01*
X63868666Y-142660942D01*
X63881646Y-142857544D01*
X63940859Y-142983626D01*
X64076716Y-143054644D01*
X64319627Y-143086058D01*
X64700004Y-143093326D01*
X64719279Y-143093334D01*
X65040351Y-143085840D01*
X65234300Y-143056549D01*
X65342938Y-142995248D01*
X65389688Y-142929566D01*
X65472098Y-142636012D01*
X65391573Y-142348673D01*
X65301855Y-142215752D01*
X65171822Y-142082131D01*
X65014848Y-142015255D01*
X64769604Y-141993578D01*
X64666855Y-141992667D01*
X64280282Y-142033887D01*
G36*
X43376715Y-142096501D02*
G01*
X43294666Y-142162000D01*
X43211679Y-142269038D01*
X43160696Y-142414065D01*
X43134446Y-142637190D01*
X43125656Y-142978522D01*
X43125333Y-143095991D01*
X43117727Y-143504403D01*
X43080680Y-143765184D01*
X42992853Y-143899841D01*
X42832903Y-143929881D01*
X42579489Y-143876813D01*
X42403505Y-143823454D01*
X41881859Y-143725901D01*
X41423078Y-143776707D01*
X41039249Y-143971851D01*
X40742461Y-144307314D01*
X40694036Y-144391976D01*
X40619624Y-144624571D01*
X40562360Y-144981329D01*
X40523564Y-145417818D01*
X40504557Y-145889608D01*
X40506659Y-146352270D01*
X40531191Y-146761373D01*
X40579474Y-147072487D01*
X40611355Y-147173686D01*
X40809748Y-147497180D01*
X41087142Y-147680965D01*
X41465180Y-147737650D01*
X41572842Y-147733772D01*
X41982333Y-147707667D01*
X42024666Y-146429125D01*
X42049189Y-145861721D01*
X42080850Y-145448698D01*
X42121310Y-145175193D01*
X42172232Y-145026342D01*
X42183200Y-145010959D01*
X42381625Y-144890676D01*
X42633086Y-144891249D01*
X42876794Y-145008158D01*
X42941241Y-145067290D01*
X43017773Y-145161733D01*
X43069647Y-145274376D01*
X43101593Y-145437994D01*
X43118342Y-145685358D01*
X43124622Y-146049241D01*
X43125333Y-146342856D01*
X43131993Y-146766996D01*
X43150165Y-147140300D01*
X43177136Y-147424290D01*
X43210194Y-147580488D01*
X43212979Y-147586233D01*
X43354316Y-147692663D01*
X43597398Y-147747355D01*
X43882014Y-147748014D01*
X44147955Y-147692344D01*
X44279435Y-147626879D01*
X44412064Y-147472819D01*
X44516773Y-147208985D01*
X44595284Y-146823668D01*
X44649319Y-146305159D01*
X44680599Y-145641747D01*
X44690843Y-144829000D01*
X44684139Y-144088930D01*
X44661064Y-143498486D01*
X44618434Y-143038474D01*
X44553065Y-142689703D01*
X44461773Y-142432977D01*
X44341374Y-142249106D01*
X44248323Y-142161387D01*
X43965104Y-142024435D01*
X43653152Y-142002820D01*
X43376715Y-142096501D01*
G37*
X43376715Y-142096501D02*
X43294666Y-142162000D01*
X43211679Y-142269038D01*
X43160696Y-142414065D01*
X43134446Y-142637190D01*
X43125656Y-142978522D01*
X43125333Y-143095991D01*
X43117727Y-143504403D01*
X43080680Y-143765184D01*
X42992853Y-143899841D01*
X42832903Y-143929881D01*
X42579489Y-143876813D01*
X42403505Y-143823454D01*
X41881859Y-143725901D01*
X41423078Y-143776707D01*
X41039249Y-143971851D01*
X40742461Y-144307314D01*
X40694036Y-144391976D01*
X40619624Y-144624571D01*
X40562360Y-144981329D01*
X40523564Y-145417818D01*
X40504557Y-145889608D01*
X40506659Y-146352270D01*
X40531191Y-146761373D01*
X40579474Y-147072487D01*
X40611355Y-147173686D01*
X40809748Y-147497180D01*
X41087142Y-147680965D01*
X41465180Y-147737650D01*
X41572842Y-147733772D01*
X41982333Y-147707667D01*
X42024666Y-146429125D01*
X42049189Y-145861721D01*
X42080850Y-145448698D01*
X42121310Y-145175193D01*
X42172232Y-145026342D01*
X42183200Y-145010959D01*
X42381625Y-144890676D01*
X42633086Y-144891249D01*
X42876794Y-145008158D01*
X42941241Y-145067290D01*
X43017773Y-145161733D01*
X43069647Y-145274376D01*
X43101593Y-145437994D01*
X43118342Y-145685358D01*
X43124622Y-146049241D01*
X43125333Y-146342856D01*
X43131993Y-146766996D01*
X43150165Y-147140300D01*
X43177136Y-147424290D01*
X43210194Y-147580488D01*
X43212979Y-147586233D01*
X43354316Y-147692663D01*
X43597398Y-147747355D01*
X43882014Y-147748014D01*
X44147955Y-147692344D01*
X44279435Y-147626879D01*
X44412064Y-147472819D01*
X44516773Y-147208985D01*
X44595284Y-146823668D01*
X44649319Y-146305159D01*
X44680599Y-145641747D01*
X44690843Y-144829000D01*
X44684139Y-144088930D01*
X44661064Y-143498486D01*
X44618434Y-143038474D01*
X44553065Y-142689703D01*
X44461773Y-142432977D01*
X44341374Y-142249106D01*
X44248323Y-142161387D01*
X43965104Y-142024435D01*
X43653152Y-142002820D01*
X43376715Y-142096501D01*
G36*
X68581213Y-142123226D02*
G01*
X68242572Y-142137443D01*
X67991706Y-142167626D01*
X67787878Y-142219084D01*
X67590351Y-142297125D01*
X67551666Y-142314706D01*
X67015244Y-142635363D01*
X66628492Y-143034773D01*
X66390406Y-143514419D01*
X66299980Y-144075786D01*
X66299062Y-144163427D01*
X66366223Y-144705589D01*
X66562506Y-145151325D01*
X66892167Y-145504159D01*
X67359460Y-145767616D01*
X67968639Y-145945220D01*
X68548177Y-146026707D01*
X68856492Y-146066006D01*
X69096013Y-146117536D01*
X69218804Y-146170732D01*
X69222537Y-146175309D01*
X69252783Y-146300556D01*
X69275297Y-146545471D01*
X69285775Y-146860426D01*
X69286037Y-146907567D01*
X69300433Y-147266748D01*
X69338570Y-147527912D01*
X69388933Y-147648400D01*
X69540809Y-147712114D01*
X69790717Y-147742343D01*
X70070511Y-147738153D01*
X70312049Y-147698613D01*
X70402525Y-147662269D01*
X70508416Y-147539500D01*
X70628313Y-147312962D01*
X70698858Y-147135677D01*
X70752370Y-146959488D01*
X70792025Y-146762976D01*
X70819651Y-146518946D01*
X70837073Y-146200203D01*
X70846115Y-145779552D01*
X70848604Y-145229798D01*
X70848012Y-144913667D01*
X70841470Y-144152478D01*
X70831225Y-143863004D01*
X69288115Y-143863004D01*
X69285411Y-144182833D01*
X69265935Y-144490110D01*
X69231503Y-144732108D01*
X69185733Y-144854400D01*
X68999508Y-144937793D01*
X68726076Y-144947609D01*
X68428738Y-144887862D01*
X68216562Y-144792903D01*
X67961572Y-144555855D01*
X67825831Y-144256736D01*
X67810015Y-143938473D01*
X67914801Y-143643993D01*
X68140865Y-143416223D01*
X68194388Y-143385674D01*
X68443292Y-143300037D01*
X68726800Y-143263497D01*
X68990440Y-143275483D01*
X69179738Y-143335425D01*
X69235941Y-143396592D01*
X69272230Y-143583348D01*
X69288115Y-143863004D01*
X70831225Y-143863004D01*
X70819919Y-143543607D01*
X70772432Y-143070088D01*
X70688081Y-142714954D01*
X70555937Y-142461239D01*
X70365072Y-142291977D01*
X70104558Y-142190202D01*
X69763467Y-142138947D01*
X69330871Y-142121247D01*
X69048366Y-142119667D01*
X68581213Y-142123226D01*
G37*
X68581213Y-142123226D02*
X68242572Y-142137443D01*
X67991706Y-142167626D01*
X67787878Y-142219084D01*
X67590351Y-142297125D01*
X67551666Y-142314706D01*
X67015244Y-142635363D01*
X66628492Y-143034773D01*
X66390406Y-143514419D01*
X66299980Y-144075786D01*
X66299062Y-144163427D01*
X66366223Y-144705589D01*
X66562506Y-145151325D01*
X66892167Y-145504159D01*
X67359460Y-145767616D01*
X67968639Y-145945220D01*
X68548177Y-146026707D01*
X68856492Y-146066006D01*
X69096013Y-146117536D01*
X69218804Y-146170732D01*
X69222537Y-146175309D01*
X69252783Y-146300556D01*
X69275297Y-146545471D01*
X69285775Y-146860426D01*
X69286037Y-146907567D01*
X69300433Y-147266748D01*
X69338570Y-147527912D01*
X69388933Y-147648400D01*
X69540809Y-147712114D01*
X69790717Y-147742343D01*
X70070511Y-147738153D01*
X70312049Y-147698613D01*
X70402525Y-147662269D01*
X70508416Y-147539500D01*
X70628313Y-147312962D01*
X70698858Y-147135677D01*
X70752370Y-146959488D01*
X70792025Y-146762976D01*
X70819651Y-146518946D01*
X70837073Y-146200203D01*
X70846115Y-145779552D01*
X70848604Y-145229798D01*
X70848012Y-144913667D01*
X70841470Y-144152478D01*
X70831225Y-143863004D01*
X69288115Y-143863004D01*
X69285411Y-144182833D01*
X69265935Y-144490110D01*
X69231503Y-144732108D01*
X69185733Y-144854400D01*
X68999508Y-144937793D01*
X68726076Y-144947609D01*
X68428738Y-144887862D01*
X68216562Y-144792903D01*
X67961572Y-144555855D01*
X67825831Y-144256736D01*
X67810015Y-143938473D01*
X67914801Y-143643993D01*
X68140865Y-143416223D01*
X68194388Y-143385674D01*
X68443292Y-143300037D01*
X68726800Y-143263497D01*
X68990440Y-143275483D01*
X69179738Y-143335425D01*
X69235941Y-143396592D01*
X69272230Y-143583348D01*
X69288115Y-143863004D01*
X70831225Y-143863004D01*
X70819919Y-143543607D01*
X70772432Y-143070088D01*
X70688081Y-142714954D01*
X70555937Y-142461239D01*
X70365072Y-142291977D01*
X70104558Y-142190202D01*
X69763467Y-142138947D01*
X69330871Y-142121247D01*
X69048366Y-142119667D01*
X68581213Y-142123226D01*
G36*
X38342826Y-143793626D02*
G01*
X38061703Y-143911088D01*
X38033546Y-143932520D01*
X37964402Y-143993279D01*
X37913382Y-144063810D01*
X37877732Y-144168708D01*
X37854698Y-144332569D01*
X37841526Y-144579988D01*
X37835461Y-144935559D01*
X37833750Y-145423878D01*
X37833666Y-145717465D01*
X37833666Y-147340557D01*
X38110169Y-147587612D01*
X38408027Y-147784610D01*
X38688256Y-147817710D01*
X38969192Y-147688482D01*
X39001453Y-147664010D01*
X39163732Y-147501621D01*
X39282897Y-147289646D01*
X39364596Y-147002609D01*
X39414475Y-146615033D01*
X39438182Y-146101443D01*
X39442236Y-145675667D01*
X39437734Y-145224572D01*
X39425328Y-144816963D01*
X39406785Y-144491531D01*
X39383869Y-144286967D01*
X39377607Y-144259040D01*
X39232697Y-144026771D01*
X38978487Y-143863655D01*
X38665142Y-143781877D01*
X38342826Y-143793626D01*
G37*
X38342826Y-143793626D02*
X38061703Y-143911088D01*
X38033546Y-143932520D01*
X37964402Y-143993279D01*
X37913382Y-144063810D01*
X37877732Y-144168708D01*
X37854698Y-144332569D01*
X37841526Y-144579988D01*
X37835461Y-144935559D01*
X37833750Y-145423878D01*
X37833666Y-145717465D01*
X37833666Y-147340557D01*
X38110169Y-147587612D01*
X38408027Y-147784610D01*
X38688256Y-147817710D01*
X38969192Y-147688482D01*
X39001453Y-147664010D01*
X39163732Y-147501621D01*
X39282897Y-147289646D01*
X39364596Y-147002609D01*
X39414475Y-146615033D01*
X39438182Y-146101443D01*
X39442236Y-145675667D01*
X39437734Y-145224572D01*
X39425328Y-144816963D01*
X39406785Y-144491531D01*
X39383869Y-144286967D01*
X39377607Y-144259040D01*
X39232697Y-144026771D01*
X38978487Y-143863655D01*
X38665142Y-143781877D01*
X38342826Y-143793626D01*
G36*
X64283049Y-143837223D02*
G01*
X64084493Y-143970476D01*
X63960700Y-144139042D01*
X63879579Y-144376230D01*
X63824650Y-144731143D01*
X63822476Y-144751177D01*
X63794843Y-145170296D01*
X63790868Y-145646786D01*
X63807867Y-146139863D01*
X63843158Y-146608746D01*
X63894057Y-147012650D01*
X63957880Y-147310794D01*
X63997763Y-147415388D01*
X64214386Y-147678202D01*
X64499748Y-147810497D01*
X64810729Y-147801989D01*
X65069790Y-147671086D01*
X65225542Y-147485897D01*
X65358821Y-147224812D01*
X65386678Y-147143934D01*
X65429990Y-146908078D01*
X65461251Y-146556083D01*
X65480487Y-146127184D01*
X65487727Y-145660616D01*
X65482999Y-145195614D01*
X65466330Y-144771414D01*
X65437750Y-144427249D01*
X65397285Y-144202356D01*
X65384555Y-144167676D01*
X65197206Y-143941792D01*
X64915370Y-143805991D01*
X64592750Y-143768419D01*
X64283049Y-143837223D01*
G37*
X64283049Y-143837223D02*
X64084493Y-143970476D01*
X63960700Y-144139042D01*
X63879579Y-144376230D01*
X63824650Y-144731143D01*
X63822476Y-144751177D01*
X63794843Y-145170296D01*
X63790868Y-145646786D01*
X63807867Y-146139863D01*
X63843158Y-146608746D01*
X63894057Y-147012650D01*
X63957880Y-147310794D01*
X63997763Y-147415388D01*
X64214386Y-147678202D01*
X64499748Y-147810497D01*
X64810729Y-147801989D01*
X65069790Y-147671086D01*
X65225542Y-147485897D01*
X65358821Y-147224812D01*
X65386678Y-147143934D01*
X65429990Y-146908078D01*
X65461251Y-146556083D01*
X65480487Y-146127184D01*
X65487727Y-145660616D01*
X65482999Y-145195614D01*
X65466330Y-144771414D01*
X65437750Y-144427249D01*
X65397285Y-144202356D01*
X65384555Y-144167676D01*
X65197206Y-143941792D01*
X64915370Y-143805991D01*
X64592750Y-143768419D01*
X64283049Y-143837223D01*
G36*
X34100860Y-143820510D02*
G01*
X33581660Y-144026007D01*
X33134998Y-144343972D01*
X32791434Y-144765090D01*
X32713545Y-144909099D01*
X32576501Y-145345136D01*
X32532089Y-145847315D01*
X32582432Y-146338661D01*
X32666510Y-146614657D01*
X32924173Y-147045005D01*
X33299996Y-147429627D01*
X33685000Y-147686137D01*
X34054530Y-147814003D01*
X34513730Y-147883208D01*
X34992029Y-147889832D01*
X35418855Y-147829959D01*
X35550816Y-147789720D01*
X36057617Y-147523732D01*
X36450750Y-147159643D01*
X36728617Y-146723150D01*
X36889622Y-146239953D01*
X36916529Y-145921068D01*
X35347687Y-145921068D01*
X35344578Y-146108749D01*
X35277904Y-146449880D01*
X35117416Y-146710633D01*
X34894700Y-146872896D01*
X34641339Y-146918558D01*
X34388919Y-146829507D01*
X34269622Y-146725173D01*
X34185811Y-146599943D01*
X34136206Y-146424677D01*
X34113043Y-146157018D01*
X34108333Y-145845298D01*
X34127554Y-145394275D01*
X34194612Y-145086103D01*
X34323598Y-144897694D01*
X34528605Y-144805962D01*
X34754504Y-144786667D01*
X34995852Y-144818254D01*
X35166614Y-144926805D01*
X35276019Y-145133002D01*
X35333300Y-145457529D01*
X35347687Y-145921068D01*
X36916529Y-145921068D01*
X36932167Y-145735749D01*
X36854655Y-145236235D01*
X36655490Y-144767110D01*
X36333074Y-144354072D01*
X35885810Y-144022818D01*
X35788071Y-143971973D01*
X35234627Y-143784178D01*
X34662036Y-143736795D01*
X34100860Y-143820510D01*
G37*
X34100860Y-143820510D02*
X33581660Y-144026007D01*
X33134998Y-144343972D01*
X32791434Y-144765090D01*
X32713545Y-144909099D01*
X32576501Y-145345136D01*
X32532089Y-145847315D01*
X32582432Y-146338661D01*
X32666510Y-146614657D01*
X32924173Y-147045005D01*
X33299996Y-147429627D01*
X33685000Y-147686137D01*
X34054530Y-147814003D01*
X34513730Y-147883208D01*
X34992029Y-147889832D01*
X35418855Y-147829959D01*
X35550816Y-147789720D01*
X36057617Y-147523732D01*
X36450750Y-147159643D01*
X36728617Y-146723150D01*
X36889622Y-146239953D01*
X36916529Y-145921068D01*
X35347687Y-145921068D01*
X35344578Y-146108749D01*
X35277904Y-146449880D01*
X35117416Y-146710633D01*
X34894700Y-146872896D01*
X34641339Y-146918558D01*
X34388919Y-146829507D01*
X34269622Y-146725173D01*
X34185811Y-146599943D01*
X34136206Y-146424677D01*
X34113043Y-146157018D01*
X34108333Y-145845298D01*
X34127554Y-145394275D01*
X34194612Y-145086103D01*
X34323598Y-144897694D01*
X34528605Y-144805962D01*
X34754504Y-144786667D01*
X34995852Y-144818254D01*
X35166614Y-144926805D01*
X35276019Y-145133002D01*
X35333300Y-145457529D01*
X35347687Y-145921068D01*
X36916529Y-145921068D01*
X36932167Y-145735749D01*
X36854655Y-145236235D01*
X36655490Y-144767110D01*
X36333074Y-144354072D01*
X35885810Y-144022818D01*
X35788071Y-143971973D01*
X35234627Y-143784178D01*
X34662036Y-143736795D01*
X34100860Y-143820510D01*
G36*
X46639089Y-143741157D02*
G01*
X46276971Y-143846756D01*
X45993170Y-144019511D01*
X45814018Y-144257032D01*
X45765845Y-144556932D01*
X45767045Y-144570492D01*
X45792333Y-144829000D01*
X46473079Y-144837686D01*
X46819082Y-144853537D01*
X47117392Y-144887615D01*
X47312645Y-144933156D01*
X47334131Y-144942869D01*
X47525146Y-145132953D01*
X47643008Y-145427503D01*
X47686021Y-145777467D01*
X47652490Y-146133793D01*
X47540719Y-146447430D01*
X47392645Y-146635663D01*
X47264226Y-146735286D01*
X47136182Y-146791151D01*
X46962119Y-146810524D01*
X46695644Y-146800672D01*
X46455650Y-146782423D01*
X46112834Y-146756482D01*
X45902363Y-146752006D01*
X45787826Y-146776503D01*
X45732811Y-146837484D01*
X45702067Y-146937833D01*
X45695720Y-147258557D01*
X45819727Y-147545976D01*
X46045651Y-147740275D01*
X46241962Y-147799044D01*
X46549815Y-147851127D01*
X46911438Y-147887382D01*
X47013065Y-147893383D01*
X47392362Y-147905630D01*
X47661700Y-147891862D01*
X47879558Y-147843457D01*
X48104415Y-147751791D01*
X48163000Y-147723814D01*
X48566860Y-147486748D01*
X48857629Y-147202774D01*
X49088125Y-146816926D01*
X49137343Y-146709856D01*
X49299186Y-146154517D01*
X49313417Y-145586949D01*
X49186388Y-145042312D01*
X48924448Y-144555762D01*
X48702835Y-144304125D01*
X48344103Y-144038106D01*
X47932031Y-143851189D01*
X47492950Y-143740985D01*
X47053193Y-143705104D01*
X46639089Y-143741157D01*
G37*
X46639089Y-143741157D02*
X46276971Y-143846756D01*
X45993170Y-144019511D01*
X45814018Y-144257032D01*
X45765845Y-144556932D01*
X45767045Y-144570492D01*
X45792333Y-144829000D01*
X46473079Y-144837686D01*
X46819082Y-144853537D01*
X47117392Y-144887615D01*
X47312645Y-144933156D01*
X47334131Y-144942869D01*
X47525146Y-145132953D01*
X47643008Y-145427503D01*
X47686021Y-145777467D01*
X47652490Y-146133793D01*
X47540719Y-146447430D01*
X47392645Y-146635663D01*
X47264226Y-146735286D01*
X47136182Y-146791151D01*
X46962119Y-146810524D01*
X46695644Y-146800672D01*
X46455650Y-146782423D01*
X46112834Y-146756482D01*
X45902363Y-146752006D01*
X45787826Y-146776503D01*
X45732811Y-146837484D01*
X45702067Y-146937833D01*
X45695720Y-147258557D01*
X45819727Y-147545976D01*
X46045651Y-147740275D01*
X46241962Y-147799044D01*
X46549815Y-147851127D01*
X46911438Y-147887382D01*
X47013065Y-147893383D01*
X47392362Y-147905630D01*
X47661700Y-147891862D01*
X47879558Y-147843457D01*
X48104415Y-147751791D01*
X48163000Y-147723814D01*
X48566860Y-147486748D01*
X48857629Y-147202774D01*
X49088125Y-146816926D01*
X49137343Y-146709856D01*
X49299186Y-146154517D01*
X49313417Y-145586949D01*
X49186388Y-145042312D01*
X48924448Y-144555762D01*
X48702835Y-144304125D01*
X48344103Y-144038106D01*
X47932031Y-143851189D01*
X47492950Y-143740985D01*
X47053193Y-143705104D01*
X46639089Y-143741157D01*
G36*
X51802988Y-143745354D02*
G01*
X51231559Y-143849226D01*
X50740192Y-144047665D01*
X50351350Y-144333598D01*
X50087496Y-144699948D01*
X50040512Y-144811975D01*
X50019044Y-144951639D01*
X50000219Y-145222838D01*
X49985948Y-145587773D01*
X49978144Y-146008646D01*
X49977793Y-146052234D01*
X49983259Y-146612366D01*
X50013812Y-147028843D01*
X50077139Y-147326449D01*
X50180923Y-147529966D01*
X50332849Y-147664175D01*
X50501395Y-147740821D01*
X50860024Y-147825919D01*
X51162214Y-147822269D01*
X51370007Y-147732789D01*
X51420080Y-147670166D01*
X51476518Y-147582739D01*
X51550498Y-147554645D01*
X51685254Y-147589177D01*
X51924022Y-147689630D01*
X51975806Y-147712500D01*
X52372504Y-147860983D01*
X52696865Y-147907073D01*
X53009746Y-147852940D01*
X53251376Y-147758007D01*
X53639885Y-147506134D01*
X53887027Y-147163906D01*
X53997636Y-146723593D01*
X54001091Y-146643249D01*
X52660162Y-146643249D01*
X52604628Y-146780396D01*
X52413856Y-146886583D01*
X52139507Y-146881509D01*
X51843022Y-146774794D01*
X51654264Y-146622774D01*
X51541715Y-146429085D01*
X51524869Y-146245415D01*
X51601707Y-146134930D01*
X51765878Y-146100396D01*
X52015688Y-146110449D01*
X52276215Y-146155879D01*
X52472538Y-146227478D01*
X52498888Y-146245205D01*
X52630236Y-146427723D01*
X52660162Y-146643249D01*
X54001091Y-146643249D01*
X54005000Y-146552389D01*
X53984235Y-146217258D01*
X53912722Y-145992788D01*
X53835666Y-145883931D01*
X53514521Y-145636540D01*
X53057724Y-145451613D01*
X52490296Y-145338144D01*
X52255924Y-145315977D01*
X51886422Y-145284424D01*
X51660154Y-145243870D01*
X51551034Y-145182980D01*
X51532980Y-145090419D01*
X51556180Y-145011890D01*
X51698290Y-144867942D01*
X51973961Y-144788970D01*
X52358184Y-144780543D01*
X52523333Y-144796481D01*
X52881421Y-144832839D01*
X53250477Y-144857834D01*
X53391166Y-144862960D01*
X53633564Y-144862485D01*
X53751516Y-144827752D01*
X53789855Y-144728759D01*
X53793333Y-144593839D01*
X53740088Y-144276718D01*
X53567859Y-144050496D01*
X53257904Y-143895168D01*
X53096172Y-143849613D01*
X52432013Y-143743124D01*
X51802988Y-143745354D01*
G37*
X51802988Y-143745354D02*
X51231559Y-143849226D01*
X50740192Y-144047665D01*
X50351350Y-144333598D01*
X50087496Y-144699948D01*
X50040512Y-144811975D01*
X50019044Y-144951639D01*
X50000219Y-145222838D01*
X49985948Y-145587773D01*
X49978144Y-146008646D01*
X49977793Y-146052234D01*
X49983259Y-146612366D01*
X50013812Y-147028843D01*
X50077139Y-147326449D01*
X50180923Y-147529966D01*
X50332849Y-147664175D01*
X50501395Y-147740821D01*
X50860024Y-147825919D01*
X51162214Y-147822269D01*
X51370007Y-147732789D01*
X51420080Y-147670166D01*
X51476518Y-147582739D01*
X51550498Y-147554645D01*
X51685254Y-147589177D01*
X51924022Y-147689630D01*
X51975806Y-147712500D01*
X52372504Y-147860983D01*
X52696865Y-147907073D01*
X53009746Y-147852940D01*
X53251376Y-147758007D01*
X53639885Y-147506134D01*
X53887027Y-147163906D01*
X53997636Y-146723593D01*
X54001091Y-146643249D01*
X52660162Y-146643249D01*
X52604628Y-146780396D01*
X52413856Y-146886583D01*
X52139507Y-146881509D01*
X51843022Y-146774794D01*
X51654264Y-146622774D01*
X51541715Y-146429085D01*
X51524869Y-146245415D01*
X51601707Y-146134930D01*
X51765878Y-146100396D01*
X52015688Y-146110449D01*
X52276215Y-146155879D01*
X52472538Y-146227478D01*
X52498888Y-146245205D01*
X52630236Y-146427723D01*
X52660162Y-146643249D01*
X54001091Y-146643249D01*
X54005000Y-146552389D01*
X53984235Y-146217258D01*
X53912722Y-145992788D01*
X53835666Y-145883931D01*
X53514521Y-145636540D01*
X53057724Y-145451613D01*
X52490296Y-145338144D01*
X52255924Y-145315977D01*
X51886422Y-145284424D01*
X51660154Y-145243870D01*
X51551034Y-145182980D01*
X51532980Y-145090419D01*
X51556180Y-145011890D01*
X51698290Y-144867942D01*
X51973961Y-144788970D01*
X52358184Y-144780543D01*
X52523333Y-144796481D01*
X52881421Y-144832839D01*
X53250477Y-144857834D01*
X53391166Y-144862960D01*
X53633564Y-144862485D01*
X53751516Y-144827752D01*
X53789855Y-144728759D01*
X53793333Y-144593839D01*
X53740088Y-144276718D01*
X53567859Y-144050496D01*
X53257904Y-143895168D01*
X53096172Y-143849613D01*
X52432013Y-143743124D01*
X51802988Y-143745354D01*
G36*
X56565119Y-142506648D02*
G01*
X56317487Y-142616468D01*
X56165662Y-142804371D01*
X56092649Y-143101334D01*
X56079333Y-143392200D01*
X56058815Y-143642152D01*
X55974887Y-143799891D01*
X55793994Y-143894474D01*
X55482577Y-143954956D01*
X55419846Y-143963226D01*
X55088837Y-144036087D01*
X54896689Y-144166263D01*
X54816295Y-144377487D01*
X54809333Y-144497722D01*
X54856689Y-144738521D01*
X55012289Y-144884431D01*
X55296433Y-144949426D01*
X55475053Y-144956000D01*
X55743120Y-144979772D01*
X55920024Y-145069069D01*
X56023265Y-145250864D01*
X56070343Y-145552127D01*
X56079333Y-145887333D01*
X56065700Y-146303702D01*
X56012280Y-146576165D01*
X55900289Y-146728844D01*
X55710944Y-146785858D01*
X55425462Y-146771328D01*
X55394086Y-146767292D01*
X54978666Y-146712185D01*
X54978666Y-147057038D01*
X55038928Y-147408564D01*
X55180126Y-147636101D01*
X55309728Y-147764153D01*
X55457622Y-147839090D01*
X55676545Y-147878517D01*
X55963292Y-147897513D01*
X56359020Y-147897897D01*
X56662316Y-147848204D01*
X56908486Y-147755195D01*
X57179765Y-147581281D01*
X57381710Y-147332460D01*
X57524008Y-146985544D01*
X57616344Y-146517346D01*
X57666538Y-145940429D01*
X57695138Y-145565923D01*
X57734395Y-145263294D01*
X57778664Y-145069725D01*
X57806141Y-145020797D01*
X57955965Y-144973735D01*
X58134315Y-144957297D01*
X58358082Y-144892475D01*
X58489462Y-144730846D01*
X58528955Y-144517184D01*
X58477065Y-144296262D01*
X58334291Y-144112854D01*
X58123774Y-144015880D01*
X57891961Y-143951763D01*
X57756464Y-143848628D01*
X57682766Y-143661457D01*
X57641013Y-143386246D01*
X57594828Y-143018084D01*
X57547711Y-142782461D01*
X57481779Y-142643435D01*
X57379151Y-142565061D01*
X57221945Y-142511396D01*
X57203176Y-142506182D01*
X56778578Y-142467089D01*
X56565119Y-142506648D01*
G37*
X56565119Y-142506648D02*
X56317487Y-142616468D01*
X56165662Y-142804371D01*
X56092649Y-143101334D01*
X56079333Y-143392200D01*
X56058815Y-143642152D01*
X55974887Y-143799891D01*
X55793994Y-143894474D01*
X55482577Y-143954956D01*
X55419846Y-143963226D01*
X55088837Y-144036087D01*
X54896689Y-144166263D01*
X54816295Y-144377487D01*
X54809333Y-144497722D01*
X54856689Y-144738521D01*
X55012289Y-144884431D01*
X55296433Y-144949426D01*
X55475053Y-144956000D01*
X55743120Y-144979772D01*
X55920024Y-145069069D01*
X56023265Y-145250864D01*
X56070343Y-145552127D01*
X56079333Y-145887333D01*
X56065700Y-146303702D01*
X56012280Y-146576165D01*
X55900289Y-146728844D01*
X55710944Y-146785858D01*
X55425462Y-146771328D01*
X55394086Y-146767292D01*
X54978666Y-146712185D01*
X54978666Y-147057038D01*
X55038928Y-147408564D01*
X55180126Y-147636101D01*
X55309728Y-147764153D01*
X55457622Y-147839090D01*
X55676545Y-147878517D01*
X55963292Y-147897513D01*
X56359020Y-147897897D01*
X56662316Y-147848204D01*
X56908486Y-147755195D01*
X57179765Y-147581281D01*
X57381710Y-147332460D01*
X57524008Y-146985544D01*
X57616344Y-146517346D01*
X57666538Y-145940429D01*
X57695138Y-145565923D01*
X57734395Y-145263294D01*
X57778664Y-145069725D01*
X57806141Y-145020797D01*
X57955965Y-144973735D01*
X58134315Y-144957297D01*
X58358082Y-144892475D01*
X58489462Y-144730846D01*
X58528955Y-144517184D01*
X58477065Y-144296262D01*
X58334291Y-144112854D01*
X58123774Y-144015880D01*
X57891961Y-143951763D01*
X57756464Y-143848628D01*
X57682766Y-143661457D01*
X57641013Y-143386246D01*
X57594828Y-143018084D01*
X57547711Y-142782461D01*
X57481779Y-142643435D01*
X57379151Y-142565061D01*
X57221945Y-142511396D01*
X57203176Y-142506182D01*
X56778578Y-142467089D01*
X56565119Y-142506648D01*
G36*
X60246404Y-143729884D02*
G01*
X59815461Y-143832220D01*
X59527237Y-144021307D01*
X59376412Y-144301683D01*
X59350158Y-144494571D01*
X59339000Y-144829000D01*
X60238308Y-144798349D01*
X60690862Y-144790206D01*
X60992027Y-144803001D01*
X61158602Y-144837983D01*
X61200826Y-144869974D01*
X61211918Y-144996381D01*
X61077364Y-145116023D01*
X60789014Y-145233671D01*
X60397333Y-145340352D01*
X59998605Y-145453402D01*
X59717046Y-145582651D01*
X59500675Y-145752180D01*
X59493844Y-145758940D01*
X59247221Y-146107458D01*
X59153059Y-146487239D01*
X59205045Y-146870680D01*
X59396870Y-147230176D01*
X59722221Y-147538126D01*
X59928990Y-147662103D01*
X60323675Y-147804575D01*
X60804030Y-147890598D01*
X61311786Y-147917552D01*
X61788673Y-147882818D01*
X62176425Y-147783778D01*
X62219391Y-147765047D01*
X62542387Y-147534395D01*
X62727631Y-147217182D01*
X62768000Y-146948739D01*
X62751773Y-146816194D01*
X62684113Y-146738993D01*
X62536554Y-146712023D01*
X62280626Y-146730171D01*
X61887862Y-146788323D01*
X61881041Y-146789432D01*
X61503128Y-146850217D01*
X61255075Y-146884345D01*
X61099497Y-146891671D01*
X60999009Y-146872050D01*
X60916228Y-146825339D01*
X60861211Y-146785495D01*
X60762092Y-146651238D01*
X60824779Y-146520121D01*
X61041794Y-146399247D01*
X61368395Y-146303849D01*
X61947282Y-146125776D01*
X62386809Y-145885124D01*
X62680309Y-145588302D01*
X62821112Y-145241723D01*
X62815696Y-144912477D01*
X62679039Y-144567509D01*
X62425969Y-144240044D01*
X62104007Y-143990008D01*
X62069367Y-143971319D01*
X61762913Y-143860933D01*
X61350298Y-143775842D01*
X60893832Y-143724300D01*
X60455827Y-143714559D01*
X60246404Y-143729884D01*
G37*
X60246404Y-143729884D02*
X59815461Y-143832220D01*
X59527237Y-144021307D01*
X59376412Y-144301683D01*
X59350158Y-144494571D01*
X59339000Y-144829000D01*
X60238308Y-144798349D01*
X60690862Y-144790206D01*
X60992027Y-144803001D01*
X61158602Y-144837983D01*
X61200826Y-144869974D01*
X61211918Y-144996381D01*
X61077364Y-145116023D01*
X60789014Y-145233671D01*
X60397333Y-145340352D01*
X59998605Y-145453402D01*
X59717046Y-145582651D01*
X59500675Y-145752180D01*
X59493844Y-145758940D01*
X59247221Y-146107458D01*
X59153059Y-146487239D01*
X59205045Y-146870680D01*
X59396870Y-147230176D01*
X59722221Y-147538126D01*
X59928990Y-147662103D01*
X60323675Y-147804575D01*
X60804030Y-147890598D01*
X61311786Y-147917552D01*
X61788673Y-147882818D01*
X62176425Y-147783778D01*
X62219391Y-147765047D01*
X62542387Y-147534395D01*
X62727631Y-147217182D01*
X62768000Y-146948739D01*
X62751773Y-146816194D01*
X62684113Y-146738993D01*
X62536554Y-146712023D01*
X62280626Y-146730171D01*
X61887862Y-146788323D01*
X61881041Y-146789432D01*
X61503128Y-146850217D01*
X61255075Y-146884345D01*
X61099497Y-146891671D01*
X60999009Y-146872050D01*
X60916228Y-146825339D01*
X60861211Y-146785495D01*
X60762092Y-146651238D01*
X60824779Y-146520121D01*
X61041794Y-146399247D01*
X61368395Y-146303849D01*
X61947282Y-146125776D01*
X62386809Y-145885124D01*
X62680309Y-145588302D01*
X62821112Y-145241723D01*
X62815696Y-144912477D01*
X62679039Y-144567509D01*
X62425969Y-144240044D01*
X62104007Y-143990008D01*
X62069367Y-143971319D01*
X61762913Y-143860933D01*
X61350298Y-143775842D01*
X60893832Y-143724300D01*
X60455827Y-143714559D01*
X60246404Y-143729884D01*
G36*
X92685863Y-121254654D02*
G01*
X92637401Y-121285483D01*
X92625185Y-121353552D01*
X92650610Y-121471995D01*
X92715073Y-121653941D01*
X92819971Y-121912523D01*
X92846602Y-121976206D01*
X92932739Y-122185042D01*
X93001790Y-122359019D01*
X93045535Y-122477006D01*
X93056800Y-122516445D01*
X93016120Y-122513806D01*
X92908801Y-122470698D01*
X92756924Y-122396159D01*
X92735909Y-122385083D01*
X92533283Y-122288352D01*
X92279638Y-122182522D01*
X92021552Y-122086727D01*
X91955611Y-122064562D01*
X91321194Y-121899327D01*
X90713808Y-121824202D01*
X90138930Y-121836647D01*
X89602034Y-121934121D01*
X89108595Y-122114081D01*
X88664090Y-122373988D01*
X88273993Y-122711300D01*
X87943780Y-123123475D01*
X87678926Y-123607972D01*
X87491907Y-124136322D01*
X87433038Y-124432938D01*
X87395248Y-124795257D01*
X87379546Y-125189386D01*
X87386944Y-125581429D01*
X87418452Y-125937492D01*
X87434999Y-126045262D01*
X87468222Y-126247207D01*
X87490646Y-126407294D01*
X87499199Y-126502244D01*
X87497366Y-126517967D01*
X87454550Y-126492780D01*
X87351294Y-126407380D01*
X87199528Y-126272858D01*
X87011185Y-126100309D01*
X86798198Y-125900826D01*
X86572498Y-125685500D01*
X86346017Y-125465426D01*
X86130689Y-125251697D01*
X86076590Y-125197104D01*
X85889985Y-125009014D01*
X85761396Y-124884793D01*
X85677653Y-124815815D01*
X85625586Y-124793458D01*
X85592025Y-124809097D01*
X85563801Y-124854107D01*
X85560987Y-124859469D01*
X85482567Y-125035919D01*
X85389249Y-125287706D01*
X85288467Y-125591052D01*
X85187658Y-125922176D01*
X85094256Y-126257303D01*
X85015698Y-126572653D01*
X84991995Y-126679035D01*
X84951102Y-126874885D01*
X84919285Y-127045974D01*
X84895411Y-127209178D01*
X84878350Y-127381375D01*
X84866968Y-127579442D01*
X84860134Y-127820255D01*
X84856716Y-128120692D01*
X84855583Y-128497630D01*
X84855519Y-128714000D01*
X84856474Y-129151000D01*
X84859904Y-129504534D01*
X84866835Y-129792725D01*
X84878293Y-130033694D01*
X84895303Y-130245566D01*
X84918893Y-130446462D01*
X84950089Y-130654507D01*
X84973203Y-130792153D01*
X85207133Y-131936319D01*
X85510443Y-133046350D01*
X85890095Y-134143568D01*
X86353049Y-135249298D01*
X86598728Y-135772502D01*
X86698248Y-135982367D01*
X86776505Y-136156431D01*
X86825389Y-136276002D01*
X86837214Y-136322120D01*
X86783661Y-136317711D01*
X86650901Y-136292100D01*
X86458130Y-136249352D01*
X86224550Y-136193535D01*
X86191050Y-136185248D01*
X85044824Y-135944725D01*
X83883381Y-135786622D01*
X82719379Y-135710903D01*
X81565472Y-135717532D01*
X80434318Y-135806470D01*
X79338572Y-135977683D01*
X78372657Y-136207827D01*
X78035250Y-136312299D01*
X77675217Y-136440653D01*
X77304200Y-136587083D01*
X76933839Y-136745782D01*
X76575774Y-136910942D01*
X76241646Y-137076757D01*
X75943095Y-137237421D01*
X75691761Y-137387125D01*
X75499286Y-137520062D01*
X75377308Y-137630427D01*
X75337470Y-137712412D01*
X75339073Y-137721171D01*
X75391425Y-137774643D01*
X75508550Y-137850943D01*
X75628948Y-137915276D01*
X75837601Y-138035744D01*
X75951621Y-138144806D01*
X75968819Y-138239922D01*
X75942465Y-138279455D01*
X75894069Y-138311606D01*
X75886400Y-138302816D01*
X75845354Y-138299477D01*
X75734240Y-138338407D01*
X75571101Y-138411284D01*
X75373977Y-138509784D01*
X75160910Y-138625585D01*
X75058276Y-138684868D01*
X74615011Y-138996760D01*
X74259189Y-139352416D01*
X73991018Y-139743516D01*
X73810704Y-140161742D01*
X73718455Y-140598778D01*
X73714478Y-141046305D01*
X73798980Y-141496005D01*
X73972168Y-141939561D01*
X74234248Y-142368654D01*
X74585429Y-142774968D01*
X74948568Y-143091918D01*
X75094714Y-143209235D01*
X75167082Y-143282407D01*
X75175747Y-143324659D01*
X75141832Y-143345705D01*
X75061039Y-143357188D01*
X74898031Y-143368032D01*
X74672190Y-143377371D01*
X74402900Y-143384338D01*
X74213725Y-143387185D01*
X73933694Y-143391285D01*
X73691351Y-143396865D01*
X73503981Y-143403362D01*
X73388870Y-143410217D01*
X73360557Y-143414909D01*
X73366964Y-143470895D01*
X73408033Y-143595035D01*
X73474061Y-143764081D01*
X73555341Y-143954789D01*
X73642168Y-144143910D01*
X73724837Y-144308199D01*
X73759159Y-144369652D01*
X73954055Y-144692836D01*
X74135828Y-144969413D01*
X74321779Y-145221122D01*
X74529209Y-145469697D01*
X74775419Y-145736877D01*
X75077710Y-146044398D01*
X75146768Y-146113000D01*
X75390484Y-146350995D01*
X75624963Y-146573758D01*
X75835461Y-146767748D01*
X76007232Y-146919428D01*
X76125531Y-147015260D01*
X76142548Y-147027257D01*
X76273847Y-147117000D01*
X76367296Y-147183590D01*
X76394400Y-147205057D01*
X76460574Y-147257947D01*
X76579589Y-147342485D01*
X76725961Y-147441776D01*
X76874208Y-147538928D01*
X76998846Y-147617047D01*
X77074392Y-147659239D01*
X77084275Y-147662400D01*
X77149668Y-147692684D01*
X77203200Y-147734169D01*
X77298962Y-147800091D01*
X77470356Y-147898719D01*
X77700165Y-148021511D01*
X77971173Y-148159922D01*
X78266163Y-148305406D01*
X78567918Y-148449419D01*
X78859223Y-148583417D01*
X79122861Y-148698855D01*
X79264600Y-148757250D01*
X79877683Y-148984945D01*
X80527952Y-149196377D01*
X81188627Y-149384292D01*
X81832925Y-149541440D01*
X82434064Y-149660569D01*
X82807518Y-149716538D01*
X82987972Y-149741229D01*
X83159661Y-149767631D01*
X83163118Y-149768209D01*
X83389240Y-149805010D01*
X83566073Y-149829771D01*
X83741692Y-149848283D01*
X83964174Y-149866337D01*
X84000349Y-149869049D01*
X84368307Y-149890892D01*
X84784120Y-149906313D01*
X85219605Y-149915036D01*
X85646576Y-149916784D01*
X86036849Y-149911280D01*
X86362238Y-149898250D01*
X86440904Y-149892988D01*
X87223621Y-149812019D01*
X88006284Y-149688960D01*
X88766081Y-149528849D01*
X89480201Y-149336722D01*
X90125831Y-149117615D01*
X90339000Y-149032306D01*
X90615273Y-148909485D01*
X90919961Y-148762546D01*
X91226428Y-148605384D01*
X91508038Y-148451893D01*
X91738151Y-148315968D01*
X91837600Y-148250603D01*
X92010777Y-148133152D01*
X92165624Y-148034636D01*
X92272475Y-147973820D01*
X92283094Y-147968859D01*
X92359554Y-147915684D01*
X92490659Y-147804331D01*
X92660143Y-147649384D01*
X92851740Y-147465428D01*
X92921325Y-147396579D01*
X93409470Y-146861842D01*
X93802304Y-146323719D01*
X94105890Y-145772062D01*
X94326294Y-145196726D01*
X94401927Y-144919200D01*
X94446523Y-144737013D01*
X94482097Y-144598458D01*
X94502193Y-144528508D01*
X94503857Y-144524853D01*
X94550062Y-144542255D01*
X94670457Y-144599051D01*
X94849234Y-144687488D01*
X95070588Y-144799810D01*
X95195280Y-144864052D01*
X96177183Y-145328804D01*
X97143303Y-145697127D01*
X98101268Y-145971454D01*
X99058705Y-146154223D01*
X99356000Y-146192603D01*
X99752164Y-146222782D01*
X100200363Y-146231705D01*
X100668854Y-146220643D01*
X101125897Y-146190869D01*
X101539752Y-146143653D01*
X101819800Y-146093875D01*
X102602882Y-145874233D01*
X103328476Y-145572381D01*
X103994552Y-145191237D01*
X104599081Y-144733719D01*
X105140032Y-144202747D01*
X105615376Y-143601238D01*
X106023082Y-142932111D01*
X106361120Y-142198285D01*
X106627461Y-141402679D01*
X106820075Y-140548211D01*
X106936931Y-139637800D01*
X106976000Y-138680586D01*
X106960538Y-138328333D01*
X106390282Y-138328333D01*
X106381348Y-139277742D01*
X106291320Y-140181527D01*
X106120528Y-141036008D01*
X105869302Y-141837506D01*
X105537971Y-142582341D01*
X105220015Y-143127949D01*
X104775762Y-143719553D01*
X104264139Y-144237844D01*
X103690946Y-144680001D01*
X103061981Y-145043202D01*
X102383043Y-145324625D01*
X101659930Y-145521449D01*
X100898442Y-145630852D01*
X100104377Y-145650012D01*
X100041800Y-145647654D01*
X99744101Y-145629494D01*
X99418367Y-145600711D01*
X99117197Y-145566252D01*
X99000400Y-145549705D01*
X98120028Y-145370832D01*
X97223868Y-145102612D01*
X96306705Y-144743138D01*
X95363324Y-144290504D01*
X94956289Y-144071192D01*
X94760812Y-143962564D01*
X94067795Y-143962564D01*
X94051753Y-144085452D01*
X94050146Y-144089798D01*
X94025129Y-144194168D01*
X94003348Y-144352960D01*
X93996065Y-144436600D01*
X93926160Y-144856000D01*
X93777713Y-145307322D01*
X93560246Y-145771814D01*
X93283277Y-146230725D01*
X92956328Y-146665304D01*
X92744134Y-146902393D01*
X92591283Y-147050659D01*
X92398145Y-147221187D01*
X92180909Y-147401563D01*
X91955765Y-147579374D01*
X91738904Y-147742205D01*
X91546515Y-147877642D01*
X91394788Y-147973271D01*
X91299914Y-148016677D01*
X91289198Y-148018000D01*
X91217817Y-148046049D01*
X91120551Y-148109319D01*
X91022413Y-148169762D01*
X90858504Y-148256973D01*
X90656056Y-148356806D01*
X90536354Y-148412791D01*
X89683709Y-148753838D01*
X88765018Y-149028465D01*
X87792715Y-149234782D01*
X86779230Y-149370900D01*
X85736995Y-149434927D01*
X84678442Y-149424973D01*
X84115815Y-149389119D01*
X83129849Y-149274800D01*
X82127149Y-149096556D01*
X81134397Y-148860863D01*
X80178274Y-148574196D01*
X79285463Y-148243032D01*
X79137600Y-148180935D01*
X78432528Y-147852135D01*
X77741952Y-147478036D01*
X77079584Y-147068421D01*
X76459135Y-146633069D01*
X75894318Y-146181763D01*
X75398845Y-145724284D01*
X74986428Y-145270415D01*
X74894269Y-145153912D01*
X74671898Y-144860539D01*
X74504298Y-144632229D01*
X74381916Y-144455401D01*
X74295197Y-144316475D01*
X74259073Y-144250976D01*
X74202115Y-144129664D01*
X74196293Y-144067098D01*
X74236856Y-144036670D01*
X74303437Y-143975591D01*
X74311664Y-143942894D01*
X74341162Y-143910955D01*
X74437656Y-143889184D01*
X74613260Y-143875885D01*
X74832364Y-143869997D01*
X75036198Y-143866356D01*
X75319048Y-143860474D01*
X75658365Y-143852864D01*
X76031604Y-143844039D01*
X76416217Y-143834511D01*
X76597600Y-143829856D01*
X77013812Y-143819111D01*
X77461103Y-143807685D01*
X77908349Y-143796363D01*
X78324423Y-143785934D01*
X78678201Y-143777183D01*
X78756600Y-143775268D01*
X79125241Y-143766273D01*
X79555087Y-143755743D01*
X80005775Y-143744669D01*
X80436943Y-143734043D01*
X80687000Y-143727861D01*
X81054315Y-143718940D01*
X81489521Y-143708650D01*
X81958933Y-143697770D01*
X82428866Y-143687079D01*
X82865633Y-143677357D01*
X82947600Y-143675563D01*
X83366214Y-143666172D01*
X83818116Y-143655583D01*
X84271550Y-143644571D01*
X84694759Y-143633910D01*
X85055990Y-143624376D01*
X85132000Y-143622284D01*
X85505759Y-143612198D01*
X85941130Y-143600945D01*
X86398149Y-143589528D01*
X86836852Y-143578952D01*
X87113200Y-143572550D01*
X87843449Y-143555571D01*
X88475055Y-143539937D01*
X89010965Y-143525552D01*
X89454126Y-143512317D01*
X89807486Y-143500138D01*
X90073992Y-143488916D01*
X90256590Y-143478554D01*
X90358229Y-143468957D01*
X90377100Y-143465245D01*
X90436222Y-143419668D01*
X90462467Y-143312762D01*
X90466000Y-143213036D01*
X90466000Y-143065000D01*
X86911351Y-143065000D01*
X86212176Y-143090400D01*
X85945170Y-143100346D01*
X85705606Y-143109724D01*
X85516462Y-143117603D01*
X85400715Y-143123050D01*
X85387149Y-143123845D01*
X85290129Y-143097399D01*
X85177716Y-143039200D01*
X84166800Y-143039200D01*
X84130101Y-143105626D01*
X84117763Y-143114710D01*
X84059451Y-143121363D01*
X83908547Y-143129969D01*
X83674035Y-143140224D01*
X83364897Y-143151824D01*
X82990116Y-143164467D01*
X82558675Y-143177849D01*
X82079558Y-143191665D01*
X81561748Y-143205614D01*
X81031663Y-143218967D01*
X80473731Y-143232625D01*
X79936982Y-143245905D01*
X79431632Y-143258544D01*
X78967899Y-143270281D01*
X78556002Y-143280853D01*
X78206159Y-143289999D01*
X77928587Y-143297456D01*
X77733503Y-143302963D01*
X77639000Y-143305958D01*
X77438358Y-143312686D01*
X77174410Y-143320662D01*
X76885425Y-143328762D01*
X76673800Y-143334281D01*
X76064200Y-143349562D01*
X75632400Y-143083087D01*
X75180750Y-142762368D01*
X74786301Y-142397353D01*
X74466221Y-142005223D01*
X74320024Y-141769600D01*
X74169445Y-141398585D01*
X74101421Y-141002464D01*
X74113941Y-140601704D01*
X74204991Y-140216769D01*
X74372558Y-139868128D01*
X74527096Y-139664521D01*
X74594411Y-139576636D01*
X74616400Y-139526423D01*
X74653937Y-139480763D01*
X74749400Y-139397168D01*
X74877070Y-139295374D01*
X75011228Y-139195117D01*
X75126155Y-139116133D01*
X75196130Y-139078158D01*
X75201821Y-139077200D01*
X75257725Y-139049044D01*
X75361379Y-138978318D01*
X75407190Y-138944170D01*
X75512055Y-138871726D01*
X75574238Y-138843333D01*
X75581600Y-138848413D01*
X75617424Y-138852532D01*
X75695900Y-138812563D01*
X75826339Y-138751388D01*
X76022391Y-138684528D01*
X76249270Y-138621862D01*
X76472188Y-138573270D01*
X76611945Y-138552413D01*
X76744569Y-138531483D01*
X76828271Y-138505632D01*
X76835871Y-138500262D01*
X76895558Y-138500241D01*
X76935826Y-138525060D01*
X76992819Y-138556566D01*
X77004000Y-138546769D01*
X77043390Y-138546460D01*
X77142600Y-138586629D01*
X77194500Y-138612793D01*
X77334791Y-138683907D01*
X77506359Y-138766447D01*
X77683348Y-138848572D01*
X77839900Y-138918439D01*
X77950160Y-138964208D01*
X77986719Y-138975600D01*
X78041038Y-138995380D01*
X78162870Y-139047672D01*
X78327716Y-139121904D01*
X78358165Y-139135903D01*
X78534740Y-139215284D01*
X78679325Y-139276566D01*
X78763814Y-139307895D01*
X78768950Y-139309156D01*
X78843486Y-139346526D01*
X78961892Y-139426956D01*
X79030260Y-139479053D01*
X79151857Y-139569807D01*
X79241285Y-139626484D01*
X79266236Y-139636000D01*
X79320825Y-139665000D01*
X79435118Y-139742632D01*
X79588866Y-139854841D01*
X79668832Y-139915400D01*
X79834397Y-140039031D01*
X79970352Y-140134649D01*
X80056311Y-140188181D01*
X80073596Y-140194800D01*
X80133785Y-140223911D01*
X80241565Y-140297878D01*
X80306000Y-140347200D01*
X80425168Y-140436370D01*
X80511174Y-140491240D01*
X80532998Y-140499600D01*
X80586508Y-140528107D01*
X80700440Y-140604376D01*
X80854453Y-140714524D01*
X80932087Y-140771947D01*
X81100604Y-140895722D01*
X81241046Y-140994954D01*
X81331684Y-141054454D01*
X81349954Y-141064047D01*
X81414809Y-141101272D01*
X81547791Y-141187549D01*
X81737110Y-141314609D01*
X81970979Y-141474187D01*
X82237607Y-141658017D01*
X82525205Y-141857831D01*
X82821985Y-142065364D01*
X83116158Y-142272349D01*
X83395934Y-142470520D01*
X83649525Y-142651611D01*
X83865141Y-142807354D01*
X84030994Y-142929484D01*
X84135293Y-143009734D01*
X84166800Y-143039200D01*
X85177716Y-143039200D01*
X85120413Y-143009533D01*
X84876215Y-142859209D01*
X84555752Y-142645385D01*
X84498149Y-142605810D01*
X84226225Y-142418491D01*
X83957617Y-142233694D01*
X83713874Y-142066228D01*
X83516544Y-141930900D01*
X83414552Y-141861165D01*
X83224823Y-141729338D01*
X82993284Y-141564954D01*
X82759541Y-141396225D01*
X82674779Y-141334190D01*
X82488552Y-141200314D01*
X82324628Y-141088077D01*
X82205271Y-141012434D01*
X82162457Y-140990095D01*
X82098693Y-140949727D01*
X82097197Y-140926670D01*
X82155070Y-140929868D01*
X82275328Y-140967192D01*
X82385414Y-141010986D01*
X82533212Y-141067081D01*
X82641328Y-141094279D01*
X82677772Y-141091161D01*
X82737543Y-141091056D01*
X82777826Y-141115860D01*
X82834894Y-141148515D01*
X82846000Y-141140088D01*
X82887069Y-141144651D01*
X82994884Y-141187477D01*
X83146363Y-141259363D01*
X83150800Y-141261600D01*
X83303131Y-141334136D01*
X83412414Y-141377859D01*
X83455568Y-141383565D01*
X83455600Y-141383111D01*
X83486522Y-141381563D01*
X83522708Y-141406453D01*
X83595591Y-141448202D01*
X83739865Y-141517296D01*
X83932674Y-141603133D01*
X84094208Y-141671629D01*
X84305968Y-141761201D01*
X84484124Y-141839588D01*
X84606767Y-141896967D01*
X84649400Y-141920507D01*
X84713879Y-141955090D01*
X84851545Y-142019894D01*
X85042010Y-142105565D01*
X85259000Y-142200216D01*
X85524897Y-142315911D01*
X85800336Y-142438000D01*
X86047287Y-142549518D01*
X86184655Y-142613064D01*
X86363092Y-142694194D01*
X86507757Y-142754830D01*
X86592933Y-142784334D01*
X86601699Y-142785600D01*
X86666240Y-142819779D01*
X86761368Y-142904115D01*
X86781620Y-142925300D01*
X86911351Y-143065000D01*
X90466000Y-143065000D01*
X90466000Y-142986919D01*
X89386500Y-143000559D01*
X88307000Y-143014200D01*
X87570400Y-142676119D01*
X87169012Y-142492362D01*
X86744897Y-142299034D01*
X86315149Y-142103860D01*
X85896860Y-141914565D01*
X85507123Y-141738873D01*
X85163030Y-141584510D01*
X84881676Y-141459200D01*
X84725600Y-141390454D01*
X84482031Y-141282571D01*
X84205252Y-141157839D01*
X83953962Y-141042715D01*
X83947191Y-141039574D01*
X83822198Y-140982200D01*
X82541200Y-140982200D01*
X82515800Y-141007600D01*
X82490400Y-140982200D01*
X82515800Y-140956800D01*
X82541200Y-140982200D01*
X83822198Y-140982200D01*
X83766174Y-140956484D01*
X83623872Y-140892840D01*
X83542505Y-140858512D01*
X83532012Y-140855200D01*
X83481826Y-140834905D01*
X83470424Y-140829800D01*
X82134800Y-140829800D01*
X82109400Y-140855200D01*
X82084000Y-140829800D01*
X82109400Y-140804400D01*
X82134800Y-140829800D01*
X83470424Y-140829800D01*
X83358489Y-140779685D01*
X83180706Y-140698040D01*
X82973000Y-140601200D01*
X82759963Y-140501956D01*
X82582937Y-140420873D01*
X82460702Y-140366458D01*
X82412223Y-140347200D01*
X82361046Y-140327025D01*
X82237839Y-140272453D01*
X82062472Y-140192412D01*
X81903450Y-140118600D01*
X81701537Y-140024994D01*
X81536607Y-139949930D01*
X81428450Y-139902328D01*
X81396265Y-139890000D01*
X81346021Y-139870172D01*
X81220834Y-139815831D01*
X81038174Y-139734684D01*
X80815510Y-139634442D01*
X80753261Y-139606221D01*
X80447941Y-139467674D01*
X80160419Y-139337372D01*
X79871855Y-139206804D01*
X79563415Y-139067459D01*
X79216261Y-138910827D01*
X78811557Y-138728396D01*
X78401000Y-138543428D01*
X78116438Y-138415242D01*
X77854227Y-138297116D01*
X77632308Y-138197133D01*
X77468621Y-138123376D01*
X77385000Y-138085684D01*
X77261121Y-138030110D01*
X77082998Y-137950553D01*
X76889700Y-137864461D01*
X76721811Y-137780678D01*
X76600072Y-137702382D01*
X76547395Y-137644571D01*
X76546800Y-137640003D01*
X76550991Y-137629400D01*
X76445200Y-137629400D01*
X76419800Y-137654800D01*
X76394400Y-137629400D01*
X76419800Y-137604000D01*
X76445200Y-137629400D01*
X76550991Y-137629400D01*
X76593373Y-137522199D01*
X76719834Y-137400888D01*
X76906302Y-137291753D01*
X77067680Y-137229163D01*
X77222164Y-137172254D01*
X77327984Y-137117362D01*
X77359600Y-137082805D01*
X77381686Y-137053845D01*
X77393645Y-137062311D01*
X77456354Y-137063834D01*
X77534090Y-137026640D01*
X77646257Y-136972833D01*
X77793001Y-136924612D01*
X77929134Y-136894891D01*
X78000775Y-136893288D01*
X78053560Y-136865013D01*
X78070206Y-136842961D01*
X78149788Y-136779232D01*
X78177486Y-136770366D01*
X78430319Y-136713878D01*
X78673724Y-136649011D01*
X78705800Y-136639383D01*
X78861797Y-136595857D01*
X78985200Y-136566540D01*
X79116331Y-136537640D01*
X79284718Y-136498248D01*
X79329591Y-136487404D01*
X79509606Y-136447960D01*
X79680128Y-136417365D01*
X79710591Y-136413037D01*
X79822136Y-136396391D01*
X79873772Y-136384606D01*
X79874200Y-136383995D01*
X79922627Y-136370339D01*
X80058867Y-136351570D01*
X80269357Y-136329339D01*
X80477263Y-136310581D01*
X80687926Y-136289480D01*
X80886074Y-136264294D01*
X81010663Y-136243810D01*
X81117301Y-136233176D01*
X81306742Y-136225257D01*
X81560217Y-136220389D01*
X81858956Y-136218910D01*
X82184189Y-136221154D01*
X82236400Y-136221866D01*
X82633998Y-136228383D01*
X82950135Y-136235616D01*
X83204951Y-136244561D01*
X83418587Y-136256212D01*
X83611181Y-136271566D01*
X83802873Y-136291617D01*
X83912800Y-136304711D01*
X84074710Y-136324397D01*
X84271574Y-136348076D01*
X84344600Y-136356797D01*
X84619328Y-136390555D01*
X84798935Y-136415165D01*
X84889407Y-136431491D01*
X84903400Y-136437577D01*
X84947616Y-136446416D01*
X85054124Y-136455181D01*
X85055800Y-136455277D01*
X85181946Y-136470069D01*
X85259000Y-136491195D01*
X85353087Y-136512548D01*
X85386000Y-136512287D01*
X85481009Y-136523875D01*
X85621229Y-136560258D01*
X85658110Y-136572146D01*
X85792096Y-136607461D01*
X85885473Y-136614479D01*
X85899410Y-136610056D01*
X85942453Y-136612830D01*
X85944800Y-136624996D01*
X85989169Y-136658170D01*
X86096574Y-136679519D01*
X86102853Y-136680032D01*
X86246526Y-136704001D01*
X86350173Y-136739850D01*
X86437386Y-136765254D01*
X86471521Y-136755545D01*
X86501573Y-136761151D01*
X86503600Y-136778238D01*
X86544259Y-136817687D01*
X86592500Y-136818804D01*
X86700500Y-136830621D01*
X86821100Y-136875403D01*
X86917523Y-136913266D01*
X86961347Y-136908772D01*
X86961578Y-136906804D01*
X86982757Y-136903015D01*
X86999678Y-136924519D01*
X87068439Y-136969817D01*
X87198648Y-137017779D01*
X87265600Y-137035614D01*
X87526339Y-137099103D01*
X87719103Y-137152499D01*
X87875390Y-137206390D01*
X88026697Y-137271367D01*
X88163370Y-137337477D01*
X88323486Y-137411184D01*
X88446121Y-137456706D01*
X88505597Y-137464570D01*
X88506270Y-137463996D01*
X88533365Y-137473537D01*
X88535600Y-137493933D01*
X88576750Y-137546074D01*
X88613824Y-137553200D01*
X88706789Y-137575262D01*
X88841305Y-137630149D01*
X88880524Y-137649353D01*
X89003294Y-137708455D01*
X89083135Y-137740352D01*
X89094400Y-137742298D01*
X89148309Y-137765270D01*
X89257828Y-137827448D01*
X89334691Y-137874745D01*
X89467235Y-137953238D01*
X89565732Y-138002218D01*
X89593769Y-138010400D01*
X89657962Y-138037908D01*
X89770787Y-138107734D01*
X89836079Y-138153104D01*
X90034854Y-138283850D01*
X90188524Y-138359452D01*
X90275500Y-138374064D01*
X90312346Y-138404154D01*
X90313600Y-138416799D01*
X90354746Y-138461868D01*
X90389800Y-138467600D01*
X90457404Y-138495030D01*
X90466000Y-138518400D01*
X90505195Y-138567058D01*
X90520951Y-138569200D01*
X90588164Y-138599289D01*
X90702577Y-138676691D01*
X90792883Y-138747000D01*
X90922066Y-138845596D01*
X91023650Y-138910160D01*
X91062290Y-138924800D01*
X91124479Y-138963279D01*
X91200575Y-139055838D01*
X91200817Y-139056207D01*
X91267874Y-139139517D01*
X91312619Y-139161698D01*
X91313909Y-139160624D01*
X91359916Y-139177782D01*
X91441030Y-139253836D01*
X91466881Y-139283353D01*
X91557979Y-139372297D01*
X91627765Y-139407227D01*
X91639031Y-139404538D01*
X91678663Y-139418741D01*
X91685200Y-139455201D01*
X91711235Y-139524714D01*
X91735048Y-139534400D01*
X91799753Y-139569092D01*
X91913248Y-139660711D01*
X92056466Y-139790563D01*
X92210338Y-139939959D01*
X92355797Y-140090208D01*
X92473776Y-140222619D01*
X92545205Y-140318500D01*
X92555020Y-140338159D01*
X92627719Y-140441294D01*
X92701241Y-140484891D01*
X92771619Y-140521854D01*
X92777016Y-140551022D01*
X92793216Y-140608807D01*
X92865338Y-140697701D01*
X92878309Y-140710347D01*
X92964401Y-140807462D01*
X93004729Y-140883338D01*
X93005123Y-140887864D01*
X93046967Y-140953601D01*
X93089471Y-140977960D01*
X93145451Y-141018545D01*
X93142468Y-141040465D01*
X93151414Y-141095311D01*
X93210020Y-141197033D01*
X93243000Y-141242697D01*
X93393484Y-141475612D01*
X93549663Y-141779077D01*
X93698513Y-142123780D01*
X93827011Y-142480410D01*
X93894694Y-142709400D01*
X93954246Y-142966674D01*
X94003985Y-143244184D01*
X94041258Y-143518374D01*
X94063412Y-143765686D01*
X94067795Y-143962564D01*
X94760812Y-143962564D01*
X94544378Y-143842291D01*
X94513399Y-143428245D01*
X94417050Y-142789822D01*
X94225082Y-142140530D01*
X93941653Y-141488653D01*
X93570923Y-140842475D01*
X93117051Y-140210281D01*
X92599972Y-139616867D01*
X92115981Y-139154258D01*
X91551043Y-138691584D01*
X90925026Y-138241413D01*
X90257796Y-137816309D01*
X89569218Y-137428839D01*
X88879160Y-137091568D01*
X88207486Y-136817063D01*
X88129200Y-136788985D01*
X87952906Y-136723152D01*
X87811014Y-136663619D01*
X87735667Y-136624138D01*
X87679475Y-136552814D01*
X87588992Y-136404652D01*
X87472272Y-136195168D01*
X87337367Y-135939877D01*
X87192333Y-135654296D01*
X87045222Y-135353941D01*
X86904089Y-135054329D01*
X86794037Y-134810000D01*
X86375804Y-133771304D01*
X86030715Y-132731009D01*
X85759703Y-131696990D01*
X85563699Y-130677119D01*
X85443639Y-129679272D01*
X85400453Y-128711322D01*
X85435076Y-127781144D01*
X85548440Y-126896610D01*
X85741479Y-126065597D01*
X85753211Y-126025687D01*
X85819902Y-125801174D01*
X93666357Y-133074534D01*
X101512813Y-140347893D01*
X101717107Y-140141047D01*
X101921400Y-139934201D01*
X101261000Y-139315565D01*
X101016031Y-139085280D01*
X100768112Y-138850809D01*
X100538651Y-138632495D01*
X100349055Y-138450681D01*
X100262099Y-138366364D01*
X99923597Y-138035800D01*
X99524936Y-137022659D01*
X98833108Y-137022659D01*
X98821727Y-137032558D01*
X98799476Y-137021409D01*
X98768439Y-136994842D01*
X98760272Y-136987138D01*
X98665343Y-136897841D01*
X98510048Y-136753061D01*
X98308759Y-136566137D01*
X98075848Y-136350412D01*
X97825686Y-136119225D01*
X97755800Y-136054732D01*
X96943000Y-135304896D01*
X96792625Y-134558719D01*
X96189812Y-134558719D01*
X96162009Y-134562114D01*
X96087947Y-134507024D01*
X95955344Y-134386929D01*
X95943395Y-134375771D01*
X95868389Y-134305965D01*
X95724322Y-134172187D01*
X95516669Y-133979511D01*
X95250903Y-133733013D01*
X94932496Y-133437766D01*
X94566922Y-133098845D01*
X94159656Y-132721323D01*
X93716169Y-132310274D01*
X93241936Y-131870774D01*
X92742431Y-131407895D01*
X92223125Y-130926713D01*
X91934815Y-130659587D01*
X88196629Y-127196156D01*
X88082299Y-126811036D01*
X87913412Y-126117524D01*
X87833067Y-125470249D01*
X87841380Y-124865415D01*
X87938466Y-124299226D01*
X88124442Y-123767886D01*
X88178622Y-123652600D01*
X88437514Y-123233335D01*
X88760158Y-122888658D01*
X89139925Y-122619883D01*
X89570186Y-122428323D01*
X90044313Y-122315293D01*
X90555675Y-122282105D01*
X91097645Y-122330075D01*
X91663592Y-122460516D01*
X92246889Y-122674742D01*
X92505549Y-122795002D01*
X92737420Y-122909196D01*
X92923988Y-123004868D01*
X93074419Y-123094070D01*
X93197878Y-123188853D01*
X93303533Y-123301270D01*
X93400548Y-123443371D01*
X93498090Y-123627209D01*
X93605325Y-123864835D01*
X93731418Y-124168301D01*
X93885535Y-124549659D01*
X93937024Y-124677146D01*
X94487048Y-126037166D01*
X95320265Y-130207683D01*
X95447903Y-130846249D01*
X95570289Y-131457951D01*
X95685898Y-132035205D01*
X95793206Y-132570426D01*
X95890688Y-133056032D01*
X95976821Y-133484436D01*
X96050080Y-133848057D01*
X96108941Y-134139308D01*
X96151880Y-134350606D01*
X96177371Y-134474368D01*
X96183636Y-134503362D01*
X96189812Y-134558719D01*
X96792625Y-134558719D01*
X96347980Y-132352348D01*
X96240676Y-131817823D01*
X96139948Y-131312037D01*
X96047522Y-130843928D01*
X95965125Y-130422434D01*
X95894483Y-130056492D01*
X95837322Y-129755040D01*
X95795369Y-129527015D01*
X95770350Y-129381355D01*
X95763780Y-129327724D01*
X95783829Y-129362627D01*
X95838780Y-129485157D01*
X95925862Y-129688584D01*
X96042304Y-129966177D01*
X96185334Y-130311207D01*
X96352183Y-130716942D01*
X96540078Y-131176652D01*
X96746250Y-131683607D01*
X96967926Y-132231076D01*
X97202336Y-132812330D01*
X97363272Y-133212677D01*
X97644876Y-133914318D01*
X97890603Y-134527348D01*
X98102537Y-135057396D01*
X98282763Y-135510092D01*
X98433363Y-135891068D01*
X98556422Y-136205954D01*
X98654024Y-136460379D01*
X98728252Y-136659974D01*
X98781191Y-136810369D01*
X98814924Y-136917195D01*
X98831535Y-136986081D01*
X98833108Y-137022659D01*
X99524936Y-137022659D01*
X97045137Y-130720600D01*
X96720203Y-129894934D01*
X96435307Y-129171200D01*
X95749200Y-129171200D01*
X95730614Y-129213014D01*
X95715334Y-129205066D01*
X95709254Y-129144778D01*
X95715334Y-129137333D01*
X95745534Y-129144306D01*
X95749200Y-129171200D01*
X96435307Y-129171200D01*
X96405000Y-129094210D01*
X96101573Y-128323611D01*
X95811966Y-127588320D01*
X95538223Y-126893518D01*
X95282387Y-126244389D01*
X95046503Y-125646116D01*
X94832615Y-125103881D01*
X94642768Y-124622867D01*
X94479004Y-124208257D01*
X94343369Y-123865234D01*
X94237907Y-123598980D01*
X94164660Y-123414678D01*
X94125674Y-123317511D01*
X94119948Y-123303800D01*
X94056179Y-123156614D01*
X93978252Y-122964209D01*
X93893861Y-122747257D01*
X93810699Y-122526435D01*
X93736456Y-122322414D01*
X93678826Y-122155870D01*
X93645501Y-122047478D01*
X93641082Y-122016785D01*
X93698972Y-122020277D01*
X93834422Y-122053362D01*
X94029722Y-122110328D01*
X94267160Y-122185462D01*
X94529028Y-122273054D01*
X94797616Y-122367392D01*
X95055214Y-122462764D01*
X95203987Y-122520849D01*
X96213842Y-122976770D01*
X97208629Y-123526973D01*
X98182538Y-124164564D01*
X99129756Y-124882649D01*
X100044473Y-125674332D01*
X100920877Y-126532718D01*
X101753157Y-127450913D01*
X102535501Y-128422023D01*
X103262098Y-129439152D01*
X103927136Y-130495405D01*
X104524805Y-131583889D01*
X105049292Y-132697707D01*
X105494787Y-133829965D01*
X105855478Y-134973769D01*
X105927220Y-135243157D01*
X106163548Y-136307361D01*
X106317792Y-137336980D01*
X106390282Y-138328333D01*
X106960538Y-138328333D01*
X106927180Y-137568431D01*
X106783148Y-136439483D01*
X106547554Y-135300394D01*
X106224045Y-134157818D01*
X105816267Y-133018406D01*
X105327870Y-131888812D01*
X104762498Y-130775689D01*
X104123802Y-129685688D01*
X103415427Y-128625464D01*
X102641021Y-127601668D01*
X101804232Y-126620954D01*
X100908706Y-125689974D01*
X99958093Y-124815381D01*
X98956038Y-124003827D01*
X98910453Y-123969392D01*
X98067854Y-123377982D01*
X97182605Y-122837749D01*
X96274154Y-122358778D01*
X95361947Y-121951155D01*
X94465433Y-121624963D01*
X94276731Y-121566477D01*
X93991893Y-121486783D01*
X93685929Y-121410778D01*
X93383618Y-121343699D01*
X93109737Y-121290780D01*
X92889065Y-121257256D01*
X92769174Y-121247934D01*
X92685863Y-121254654D01*
G37*
X92685863Y-121254654D02*
X92637401Y-121285483D01*
X92625185Y-121353552D01*
X92650610Y-121471995D01*
X92715073Y-121653941D01*
X92819971Y-121912523D01*
X92846602Y-121976206D01*
X92932739Y-122185042D01*
X93001790Y-122359019D01*
X93045535Y-122477006D01*
X93056800Y-122516445D01*
X93016120Y-122513806D01*
X92908801Y-122470698D01*
X92756924Y-122396159D01*
X92735909Y-122385083D01*
X92533283Y-122288352D01*
X92279638Y-122182522D01*
X92021552Y-122086727D01*
X91955611Y-122064562D01*
X91321194Y-121899327D01*
X90713808Y-121824202D01*
X90138930Y-121836647D01*
X89602034Y-121934121D01*
X89108595Y-122114081D01*
X88664090Y-122373988D01*
X88273993Y-122711300D01*
X87943780Y-123123475D01*
X87678926Y-123607972D01*
X87491907Y-124136322D01*
X87433038Y-124432938D01*
X87395248Y-124795257D01*
X87379546Y-125189386D01*
X87386944Y-125581429D01*
X87418452Y-125937492D01*
X87434999Y-126045262D01*
X87468222Y-126247207D01*
X87490646Y-126407294D01*
X87499199Y-126502244D01*
X87497366Y-126517967D01*
X87454550Y-126492780D01*
X87351294Y-126407380D01*
X87199528Y-126272858D01*
X87011185Y-126100309D01*
X86798198Y-125900826D01*
X86572498Y-125685500D01*
X86346017Y-125465426D01*
X86130689Y-125251697D01*
X86076590Y-125197104D01*
X85889985Y-125009014D01*
X85761396Y-124884793D01*
X85677653Y-124815815D01*
X85625586Y-124793458D01*
X85592025Y-124809097D01*
X85563801Y-124854107D01*
X85560987Y-124859469D01*
X85482567Y-125035919D01*
X85389249Y-125287706D01*
X85288467Y-125591052D01*
X85187658Y-125922176D01*
X85094256Y-126257303D01*
X85015698Y-126572653D01*
X84991995Y-126679035D01*
X84951102Y-126874885D01*
X84919285Y-127045974D01*
X84895411Y-127209178D01*
X84878350Y-127381375D01*
X84866968Y-127579442D01*
X84860134Y-127820255D01*
X84856716Y-128120692D01*
X84855583Y-128497630D01*
X84855519Y-128714000D01*
X84856474Y-129151000D01*
X84859904Y-129504534D01*
X84866835Y-129792725D01*
X84878293Y-130033694D01*
X84895303Y-130245566D01*
X84918893Y-130446462D01*
X84950089Y-130654507D01*
X84973203Y-130792153D01*
X85207133Y-131936319D01*
X85510443Y-133046350D01*
X85890095Y-134143568D01*
X86353049Y-135249298D01*
X86598728Y-135772502D01*
X86698248Y-135982367D01*
X86776505Y-136156431D01*
X86825389Y-136276002D01*
X86837214Y-136322120D01*
X86783661Y-136317711D01*
X86650901Y-136292100D01*
X86458130Y-136249352D01*
X86224550Y-136193535D01*
X86191050Y-136185248D01*
X85044824Y-135944725D01*
X83883381Y-135786622D01*
X82719379Y-135710903D01*
X81565472Y-135717532D01*
X80434318Y-135806470D01*
X79338572Y-135977683D01*
X78372657Y-136207827D01*
X78035250Y-136312299D01*
X77675217Y-136440653D01*
X77304200Y-136587083D01*
X76933839Y-136745782D01*
X76575774Y-136910942D01*
X76241646Y-137076757D01*
X75943095Y-137237421D01*
X75691761Y-137387125D01*
X75499286Y-137520062D01*
X75377308Y-137630427D01*
X75337470Y-137712412D01*
X75339073Y-137721171D01*
X75391425Y-137774643D01*
X75508550Y-137850943D01*
X75628948Y-137915276D01*
X75837601Y-138035744D01*
X75951621Y-138144806D01*
X75968819Y-138239922D01*
X75942465Y-138279455D01*
X75894069Y-138311606D01*
X75886400Y-138302816D01*
X75845354Y-138299477D01*
X75734240Y-138338407D01*
X75571101Y-138411284D01*
X75373977Y-138509784D01*
X75160910Y-138625585D01*
X75058276Y-138684868D01*
X74615011Y-138996760D01*
X74259189Y-139352416D01*
X73991018Y-139743516D01*
X73810704Y-140161742D01*
X73718455Y-140598778D01*
X73714478Y-141046305D01*
X73798980Y-141496005D01*
X73972168Y-141939561D01*
X74234248Y-142368654D01*
X74585429Y-142774968D01*
X74948568Y-143091918D01*
X75094714Y-143209235D01*
X75167082Y-143282407D01*
X75175747Y-143324659D01*
X75141832Y-143345705D01*
X75061039Y-143357188D01*
X74898031Y-143368032D01*
X74672190Y-143377371D01*
X74402900Y-143384338D01*
X74213725Y-143387185D01*
X73933694Y-143391285D01*
X73691351Y-143396865D01*
X73503981Y-143403362D01*
X73388870Y-143410217D01*
X73360557Y-143414909D01*
X73366964Y-143470895D01*
X73408033Y-143595035D01*
X73474061Y-143764081D01*
X73555341Y-143954789D01*
X73642168Y-144143910D01*
X73724837Y-144308199D01*
X73759159Y-144369652D01*
X73954055Y-144692836D01*
X74135828Y-144969413D01*
X74321779Y-145221122D01*
X74529209Y-145469697D01*
X74775419Y-145736877D01*
X75077710Y-146044398D01*
X75146768Y-146113000D01*
X75390484Y-146350995D01*
X75624963Y-146573758D01*
X75835461Y-146767748D01*
X76007232Y-146919428D01*
X76125531Y-147015260D01*
X76142548Y-147027257D01*
X76273847Y-147117000D01*
X76367296Y-147183590D01*
X76394400Y-147205057D01*
X76460574Y-147257947D01*
X76579589Y-147342485D01*
X76725961Y-147441776D01*
X76874208Y-147538928D01*
X76998846Y-147617047D01*
X77074392Y-147659239D01*
X77084275Y-147662400D01*
X77149668Y-147692684D01*
X77203200Y-147734169D01*
X77298962Y-147800091D01*
X77470356Y-147898719D01*
X77700165Y-148021511D01*
X77971173Y-148159922D01*
X78266163Y-148305406D01*
X78567918Y-148449419D01*
X78859223Y-148583417D01*
X79122861Y-148698855D01*
X79264600Y-148757250D01*
X79877683Y-148984945D01*
X80527952Y-149196377D01*
X81188627Y-149384292D01*
X81832925Y-149541440D01*
X82434064Y-149660569D01*
X82807518Y-149716538D01*
X82987972Y-149741229D01*
X83159661Y-149767631D01*
X83163118Y-149768209D01*
X83389240Y-149805010D01*
X83566073Y-149829771D01*
X83741692Y-149848283D01*
X83964174Y-149866337D01*
X84000349Y-149869049D01*
X84368307Y-149890892D01*
X84784120Y-149906313D01*
X85219605Y-149915036D01*
X85646576Y-149916784D01*
X86036849Y-149911280D01*
X86362238Y-149898250D01*
X86440904Y-149892988D01*
X87223621Y-149812019D01*
X88006284Y-149688960D01*
X88766081Y-149528849D01*
X89480201Y-149336722D01*
X90125831Y-149117615D01*
X90339000Y-149032306D01*
X90615273Y-148909485D01*
X90919961Y-148762546D01*
X91226428Y-148605384D01*
X91508038Y-148451893D01*
X91738151Y-148315968D01*
X91837600Y-148250603D01*
X92010777Y-148133152D01*
X92165624Y-148034636D01*
X92272475Y-147973820D01*
X92283094Y-147968859D01*
X92359554Y-147915684D01*
X92490659Y-147804331D01*
X92660143Y-147649384D01*
X92851740Y-147465428D01*
X92921325Y-147396579D01*
X93409470Y-146861842D01*
X93802304Y-146323719D01*
X94105890Y-145772062D01*
X94326294Y-145196726D01*
X94401927Y-144919200D01*
X94446523Y-144737013D01*
X94482097Y-144598458D01*
X94502193Y-144528508D01*
X94503857Y-144524853D01*
X94550062Y-144542255D01*
X94670457Y-144599051D01*
X94849234Y-144687488D01*
X95070588Y-144799810D01*
X95195280Y-144864052D01*
X96177183Y-145328804D01*
X97143303Y-145697127D01*
X98101268Y-145971454D01*
X99058705Y-146154223D01*
X99356000Y-146192603D01*
X99752164Y-146222782D01*
X100200363Y-146231705D01*
X100668854Y-146220643D01*
X101125897Y-146190869D01*
X101539752Y-146143653D01*
X101819800Y-146093875D01*
X102602882Y-145874233D01*
X103328476Y-145572381D01*
X103994552Y-145191237D01*
X104599081Y-144733719D01*
X105140032Y-144202747D01*
X105615376Y-143601238D01*
X106023082Y-142932111D01*
X106361120Y-142198285D01*
X106627461Y-141402679D01*
X106820075Y-140548211D01*
X106936931Y-139637800D01*
X106976000Y-138680586D01*
X106960538Y-138328333D01*
X106390282Y-138328333D01*
X106381348Y-139277742D01*
X106291320Y-140181527D01*
X106120528Y-141036008D01*
X105869302Y-141837506D01*
X105537971Y-142582341D01*
X105220015Y-143127949D01*
X104775762Y-143719553D01*
X104264139Y-144237844D01*
X103690946Y-144680001D01*
X103061981Y-145043202D01*
X102383043Y-145324625D01*
X101659930Y-145521449D01*
X100898442Y-145630852D01*
X100104377Y-145650012D01*
X100041800Y-145647654D01*
X99744101Y-145629494D01*
X99418367Y-145600711D01*
X99117197Y-145566252D01*
X99000400Y-145549705D01*
X98120028Y-145370832D01*
X97223868Y-145102612D01*
X96306705Y-144743138D01*
X95363324Y-144290504D01*
X94956289Y-144071192D01*
X94760812Y-143962564D01*
X94067795Y-143962564D01*
X94051753Y-144085452D01*
X94050146Y-144089798D01*
X94025129Y-144194168D01*
X94003348Y-144352960D01*
X93996065Y-144436600D01*
X93926160Y-144856000D01*
X93777713Y-145307322D01*
X93560246Y-145771814D01*
X93283277Y-146230725D01*
X92956328Y-146665304D01*
X92744134Y-146902393D01*
X92591283Y-147050659D01*
X92398145Y-147221187D01*
X92180909Y-147401563D01*
X91955765Y-147579374D01*
X91738904Y-147742205D01*
X91546515Y-147877642D01*
X91394788Y-147973271D01*
X91299914Y-148016677D01*
X91289198Y-148018000D01*
X91217817Y-148046049D01*
X91120551Y-148109319D01*
X91022413Y-148169762D01*
X90858504Y-148256973D01*
X90656056Y-148356806D01*
X90536354Y-148412791D01*
X89683709Y-148753838D01*
X88765018Y-149028465D01*
X87792715Y-149234782D01*
X86779230Y-149370900D01*
X85736995Y-149434927D01*
X84678442Y-149424973D01*
X84115815Y-149389119D01*
X83129849Y-149274800D01*
X82127149Y-149096556D01*
X81134397Y-148860863D01*
X80178274Y-148574196D01*
X79285463Y-148243032D01*
X79137600Y-148180935D01*
X78432528Y-147852135D01*
X77741952Y-147478036D01*
X77079584Y-147068421D01*
X76459135Y-146633069D01*
X75894318Y-146181763D01*
X75398845Y-145724284D01*
X74986428Y-145270415D01*
X74894269Y-145153912D01*
X74671898Y-144860539D01*
X74504298Y-144632229D01*
X74381916Y-144455401D01*
X74295197Y-144316475D01*
X74259073Y-144250976D01*
X74202115Y-144129664D01*
X74196293Y-144067098D01*
X74236856Y-144036670D01*
X74303437Y-143975591D01*
X74311664Y-143942894D01*
X74341162Y-143910955D01*
X74437656Y-143889184D01*
X74613260Y-143875885D01*
X74832364Y-143869997D01*
X75036198Y-143866356D01*
X75319048Y-143860474D01*
X75658365Y-143852864D01*
X76031604Y-143844039D01*
X76416217Y-143834511D01*
X76597600Y-143829856D01*
X77013812Y-143819111D01*
X77461103Y-143807685D01*
X77908349Y-143796363D01*
X78324423Y-143785934D01*
X78678201Y-143777183D01*
X78756600Y-143775268D01*
X79125241Y-143766273D01*
X79555087Y-143755743D01*
X80005775Y-143744669D01*
X80436943Y-143734043D01*
X80687000Y-143727861D01*
X81054315Y-143718940D01*
X81489521Y-143708650D01*
X81958933Y-143697770D01*
X82428866Y-143687079D01*
X82865633Y-143677357D01*
X82947600Y-143675563D01*
X83366214Y-143666172D01*
X83818116Y-143655583D01*
X84271550Y-143644571D01*
X84694759Y-143633910D01*
X85055990Y-143624376D01*
X85132000Y-143622284D01*
X85505759Y-143612198D01*
X85941130Y-143600945D01*
X86398149Y-143589528D01*
X86836852Y-143578952D01*
X87113200Y-143572550D01*
X87843449Y-143555571D01*
X88475055Y-143539937D01*
X89010965Y-143525552D01*
X89454126Y-143512317D01*
X89807486Y-143500138D01*
X90073992Y-143488916D01*
X90256590Y-143478554D01*
X90358229Y-143468957D01*
X90377100Y-143465245D01*
X90436222Y-143419668D01*
X90462467Y-143312762D01*
X90466000Y-143213036D01*
X90466000Y-143065000D01*
X86911351Y-143065000D01*
X86212176Y-143090400D01*
X85945170Y-143100346D01*
X85705606Y-143109724D01*
X85516462Y-143117603D01*
X85400715Y-143123050D01*
X85387149Y-143123845D01*
X85290129Y-143097399D01*
X85177716Y-143039200D01*
X84166800Y-143039200D01*
X84130101Y-143105626D01*
X84117763Y-143114710D01*
X84059451Y-143121363D01*
X83908547Y-143129969D01*
X83674035Y-143140224D01*
X83364897Y-143151824D01*
X82990116Y-143164467D01*
X82558675Y-143177849D01*
X82079558Y-143191665D01*
X81561748Y-143205614D01*
X81031663Y-143218967D01*
X80473731Y-143232625D01*
X79936982Y-143245905D01*
X79431632Y-143258544D01*
X78967899Y-143270281D01*
X78556002Y-143280853D01*
X78206159Y-143289999D01*
X77928587Y-143297456D01*
X77733503Y-143302963D01*
X77639000Y-143305958D01*
X77438358Y-143312686D01*
X77174410Y-143320662D01*
X76885425Y-143328762D01*
X76673800Y-143334281D01*
X76064200Y-143349562D01*
X75632400Y-143083087D01*
X75180750Y-142762368D01*
X74786301Y-142397353D01*
X74466221Y-142005223D01*
X74320024Y-141769600D01*
X74169445Y-141398585D01*
X74101421Y-141002464D01*
X74113941Y-140601704D01*
X74204991Y-140216769D01*
X74372558Y-139868128D01*
X74527096Y-139664521D01*
X74594411Y-139576636D01*
X74616400Y-139526423D01*
X74653937Y-139480763D01*
X74749400Y-139397168D01*
X74877070Y-139295374D01*
X75011228Y-139195117D01*
X75126155Y-139116133D01*
X75196130Y-139078158D01*
X75201821Y-139077200D01*
X75257725Y-139049044D01*
X75361379Y-138978318D01*
X75407190Y-138944170D01*
X75512055Y-138871726D01*
X75574238Y-138843333D01*
X75581600Y-138848413D01*
X75617424Y-138852532D01*
X75695900Y-138812563D01*
X75826339Y-138751388D01*
X76022391Y-138684528D01*
X76249270Y-138621862D01*
X76472188Y-138573270D01*
X76611945Y-138552413D01*
X76744569Y-138531483D01*
X76828271Y-138505632D01*
X76835871Y-138500262D01*
X76895558Y-138500241D01*
X76935826Y-138525060D01*
X76992819Y-138556566D01*
X77004000Y-138546769D01*
X77043390Y-138546460D01*
X77142600Y-138586629D01*
X77194500Y-138612793D01*
X77334791Y-138683907D01*
X77506359Y-138766447D01*
X77683348Y-138848572D01*
X77839900Y-138918439D01*
X77950160Y-138964208D01*
X77986719Y-138975600D01*
X78041038Y-138995380D01*
X78162870Y-139047672D01*
X78327716Y-139121904D01*
X78358165Y-139135903D01*
X78534740Y-139215284D01*
X78679325Y-139276566D01*
X78763814Y-139307895D01*
X78768950Y-139309156D01*
X78843486Y-139346526D01*
X78961892Y-139426956D01*
X79030260Y-139479053D01*
X79151857Y-139569807D01*
X79241285Y-139626484D01*
X79266236Y-139636000D01*
X79320825Y-139665000D01*
X79435118Y-139742632D01*
X79588866Y-139854841D01*
X79668832Y-139915400D01*
X79834397Y-140039031D01*
X79970352Y-140134649D01*
X80056311Y-140188181D01*
X80073596Y-140194800D01*
X80133785Y-140223911D01*
X80241565Y-140297878D01*
X80306000Y-140347200D01*
X80425168Y-140436370D01*
X80511174Y-140491240D01*
X80532998Y-140499600D01*
X80586508Y-140528107D01*
X80700440Y-140604376D01*
X80854453Y-140714524D01*
X80932087Y-140771947D01*
X81100604Y-140895722D01*
X81241046Y-140994954D01*
X81331684Y-141054454D01*
X81349954Y-141064047D01*
X81414809Y-141101272D01*
X81547791Y-141187549D01*
X81737110Y-141314609D01*
X81970979Y-141474187D01*
X82237607Y-141658017D01*
X82525205Y-141857831D01*
X82821985Y-142065364D01*
X83116158Y-142272349D01*
X83395934Y-142470520D01*
X83649525Y-142651611D01*
X83865141Y-142807354D01*
X84030994Y-142929484D01*
X84135293Y-143009734D01*
X84166800Y-143039200D01*
X85177716Y-143039200D01*
X85120413Y-143009533D01*
X84876215Y-142859209D01*
X84555752Y-142645385D01*
X84498149Y-142605810D01*
X84226225Y-142418491D01*
X83957617Y-142233694D01*
X83713874Y-142066228D01*
X83516544Y-141930900D01*
X83414552Y-141861165D01*
X83224823Y-141729338D01*
X82993284Y-141564954D01*
X82759541Y-141396225D01*
X82674779Y-141334190D01*
X82488552Y-141200314D01*
X82324628Y-141088077D01*
X82205271Y-141012434D01*
X82162457Y-140990095D01*
X82098693Y-140949727D01*
X82097197Y-140926670D01*
X82155070Y-140929868D01*
X82275328Y-140967192D01*
X82385414Y-141010986D01*
X82533212Y-141067081D01*
X82641328Y-141094279D01*
X82677772Y-141091161D01*
X82737543Y-141091056D01*
X82777826Y-141115860D01*
X82834894Y-141148515D01*
X82846000Y-141140088D01*
X82887069Y-141144651D01*
X82994884Y-141187477D01*
X83146363Y-141259363D01*
X83150800Y-141261600D01*
X83303131Y-141334136D01*
X83412414Y-141377859D01*
X83455568Y-141383565D01*
X83455600Y-141383111D01*
X83486522Y-141381563D01*
X83522708Y-141406453D01*
X83595591Y-141448202D01*
X83739865Y-141517296D01*
X83932674Y-141603133D01*
X84094208Y-141671629D01*
X84305968Y-141761201D01*
X84484124Y-141839588D01*
X84606767Y-141896967D01*
X84649400Y-141920507D01*
X84713879Y-141955090D01*
X84851545Y-142019894D01*
X85042010Y-142105565D01*
X85259000Y-142200216D01*
X85524897Y-142315911D01*
X85800336Y-142438000D01*
X86047287Y-142549518D01*
X86184655Y-142613064D01*
X86363092Y-142694194D01*
X86507757Y-142754830D01*
X86592933Y-142784334D01*
X86601699Y-142785600D01*
X86666240Y-142819779D01*
X86761368Y-142904115D01*
X86781620Y-142925300D01*
X86911351Y-143065000D01*
X90466000Y-143065000D01*
X90466000Y-142986919D01*
X89386500Y-143000559D01*
X88307000Y-143014200D01*
X87570400Y-142676119D01*
X87169012Y-142492362D01*
X86744897Y-142299034D01*
X86315149Y-142103860D01*
X85896860Y-141914565D01*
X85507123Y-141738873D01*
X85163030Y-141584510D01*
X84881676Y-141459200D01*
X84725600Y-141390454D01*
X84482031Y-141282571D01*
X84205252Y-141157839D01*
X83953962Y-141042715D01*
X83947191Y-141039574D01*
X83822198Y-140982200D01*
X82541200Y-140982200D01*
X82515800Y-141007600D01*
X82490400Y-140982200D01*
X82515800Y-140956800D01*
X82541200Y-140982200D01*
X83822198Y-140982200D01*
X83766174Y-140956484D01*
X83623872Y-140892840D01*
X83542505Y-140858512D01*
X83532012Y-140855200D01*
X83481826Y-140834905D01*
X83470424Y-140829800D01*
X82134800Y-140829800D01*
X82109400Y-140855200D01*
X82084000Y-140829800D01*
X82109400Y-140804400D01*
X82134800Y-140829800D01*
X83470424Y-140829800D01*
X83358489Y-140779685D01*
X83180706Y-140698040D01*
X82973000Y-140601200D01*
X82759963Y-140501956D01*
X82582937Y-140420873D01*
X82460702Y-140366458D01*
X82412223Y-140347200D01*
X82361046Y-140327025D01*
X82237839Y-140272453D01*
X82062472Y-140192412D01*
X81903450Y-140118600D01*
X81701537Y-140024994D01*
X81536607Y-139949930D01*
X81428450Y-139902328D01*
X81396265Y-139890000D01*
X81346021Y-139870172D01*
X81220834Y-139815831D01*
X81038174Y-139734684D01*
X80815510Y-139634442D01*
X80753261Y-139606221D01*
X80447941Y-139467674D01*
X80160419Y-139337372D01*
X79871855Y-139206804D01*
X79563415Y-139067459D01*
X79216261Y-138910827D01*
X78811557Y-138728396D01*
X78401000Y-138543428D01*
X78116438Y-138415242D01*
X77854227Y-138297116D01*
X77632308Y-138197133D01*
X77468621Y-138123376D01*
X77385000Y-138085684D01*
X77261121Y-138030110D01*
X77082998Y-137950553D01*
X76889700Y-137864461D01*
X76721811Y-137780678D01*
X76600072Y-137702382D01*
X76547395Y-137644571D01*
X76546800Y-137640003D01*
X76550991Y-137629400D01*
X76445200Y-137629400D01*
X76419800Y-137654800D01*
X76394400Y-137629400D01*
X76419800Y-137604000D01*
X76445200Y-137629400D01*
X76550991Y-137629400D01*
X76593373Y-137522199D01*
X76719834Y-137400888D01*
X76906302Y-137291753D01*
X77067680Y-137229163D01*
X77222164Y-137172254D01*
X77327984Y-137117362D01*
X77359600Y-137082805D01*
X77381686Y-137053845D01*
X77393645Y-137062311D01*
X77456354Y-137063834D01*
X77534090Y-137026640D01*
X77646257Y-136972833D01*
X77793001Y-136924612D01*
X77929134Y-136894891D01*
X78000775Y-136893288D01*
X78053560Y-136865013D01*
X78070206Y-136842961D01*
X78149788Y-136779232D01*
X78177486Y-136770366D01*
X78430319Y-136713878D01*
X78673724Y-136649011D01*
X78705800Y-136639383D01*
X78861797Y-136595857D01*
X78985200Y-136566540D01*
X79116331Y-136537640D01*
X79284718Y-136498248D01*
X79329591Y-136487404D01*
X79509606Y-136447960D01*
X79680128Y-136417365D01*
X79710591Y-136413037D01*
X79822136Y-136396391D01*
X79873772Y-136384606D01*
X79874200Y-136383995D01*
X79922627Y-136370339D01*
X80058867Y-136351570D01*
X80269357Y-136329339D01*
X80477263Y-136310581D01*
X80687926Y-136289480D01*
X80886074Y-136264294D01*
X81010663Y-136243810D01*
X81117301Y-136233176D01*
X81306742Y-136225257D01*
X81560217Y-136220389D01*
X81858956Y-136218910D01*
X82184189Y-136221154D01*
X82236400Y-136221866D01*
X82633998Y-136228383D01*
X82950135Y-136235616D01*
X83204951Y-136244561D01*
X83418587Y-136256212D01*
X83611181Y-136271566D01*
X83802873Y-136291617D01*
X83912800Y-136304711D01*
X84074710Y-136324397D01*
X84271574Y-136348076D01*
X84344600Y-136356797D01*
X84619328Y-136390555D01*
X84798935Y-136415165D01*
X84889407Y-136431491D01*
X84903400Y-136437577D01*
X84947616Y-136446416D01*
X85054124Y-136455181D01*
X85055800Y-136455277D01*
X85181946Y-136470069D01*
X85259000Y-136491195D01*
X85353087Y-136512548D01*
X85386000Y-136512287D01*
X85481009Y-136523875D01*
X85621229Y-136560258D01*
X85658110Y-136572146D01*
X85792096Y-136607461D01*
X85885473Y-136614479D01*
X85899410Y-136610056D01*
X85942453Y-136612830D01*
X85944800Y-136624996D01*
X85989169Y-136658170D01*
X86096574Y-136679519D01*
X86102853Y-136680032D01*
X86246526Y-136704001D01*
X86350173Y-136739850D01*
X86437386Y-136765254D01*
X86471521Y-136755545D01*
X86501573Y-136761151D01*
X86503600Y-136778238D01*
X86544259Y-136817687D01*
X86592500Y-136818804D01*
X86700500Y-136830621D01*
X86821100Y-136875403D01*
X86917523Y-136913266D01*
X86961347Y-136908772D01*
X86961578Y-136906804D01*
X86982757Y-136903015D01*
X86999678Y-136924519D01*
X87068439Y-136969817D01*
X87198648Y-137017779D01*
X87265600Y-137035614D01*
X87526339Y-137099103D01*
X87719103Y-137152499D01*
X87875390Y-137206390D01*
X88026697Y-137271367D01*
X88163370Y-137337477D01*
X88323486Y-137411184D01*
X88446121Y-137456706D01*
X88505597Y-137464570D01*
X88506270Y-137463996D01*
X88533365Y-137473537D01*
X88535600Y-137493933D01*
X88576750Y-137546074D01*
X88613824Y-137553200D01*
X88706789Y-137575262D01*
X88841305Y-137630149D01*
X88880524Y-137649353D01*
X89003294Y-137708455D01*
X89083135Y-137740352D01*
X89094400Y-137742298D01*
X89148309Y-137765270D01*
X89257828Y-137827448D01*
X89334691Y-137874745D01*
X89467235Y-137953238D01*
X89565732Y-138002218D01*
X89593769Y-138010400D01*
X89657962Y-138037908D01*
X89770787Y-138107734D01*
X89836079Y-138153104D01*
X90034854Y-138283850D01*
X90188524Y-138359452D01*
X90275500Y-138374064D01*
X90312346Y-138404154D01*
X90313600Y-138416799D01*
X90354746Y-138461868D01*
X90389800Y-138467600D01*
X90457404Y-138495030D01*
X90466000Y-138518400D01*
X90505195Y-138567058D01*
X90520951Y-138569200D01*
X90588164Y-138599289D01*
X90702577Y-138676691D01*
X90792883Y-138747000D01*
X90922066Y-138845596D01*
X91023650Y-138910160D01*
X91062290Y-138924800D01*
X91124479Y-138963279D01*
X91200575Y-139055838D01*
X91200817Y-139056207D01*
X91267874Y-139139517D01*
X91312619Y-139161698D01*
X91313909Y-139160624D01*
X91359916Y-139177782D01*
X91441030Y-139253836D01*
X91466881Y-139283353D01*
X91557979Y-139372297D01*
X91627765Y-139407227D01*
X91639031Y-139404538D01*
X91678663Y-139418741D01*
X91685200Y-139455201D01*
X91711235Y-139524714D01*
X91735048Y-139534400D01*
X91799753Y-139569092D01*
X91913248Y-139660711D01*
X92056466Y-139790563D01*
X92210338Y-139939959D01*
X92355797Y-140090208D01*
X92473776Y-140222619D01*
X92545205Y-140318500D01*
X92555020Y-140338159D01*
X92627719Y-140441294D01*
X92701241Y-140484891D01*
X92771619Y-140521854D01*
X92777016Y-140551022D01*
X92793216Y-140608807D01*
X92865338Y-140697701D01*
X92878309Y-140710347D01*
X92964401Y-140807462D01*
X93004729Y-140883338D01*
X93005123Y-140887864D01*
X93046967Y-140953601D01*
X93089471Y-140977960D01*
X93145451Y-141018545D01*
X93142468Y-141040465D01*
X93151414Y-141095311D01*
X93210020Y-141197033D01*
X93243000Y-141242697D01*
X93393484Y-141475612D01*
X93549663Y-141779077D01*
X93698513Y-142123780D01*
X93827011Y-142480410D01*
X93894694Y-142709400D01*
X93954246Y-142966674D01*
X94003985Y-143244184D01*
X94041258Y-143518374D01*
X94063412Y-143765686D01*
X94067795Y-143962564D01*
X94760812Y-143962564D01*
X94544378Y-143842291D01*
X94513399Y-143428245D01*
X94417050Y-142789822D01*
X94225082Y-142140530D01*
X93941653Y-141488653D01*
X93570923Y-140842475D01*
X93117051Y-140210281D01*
X92599972Y-139616867D01*
X92115981Y-139154258D01*
X91551043Y-138691584D01*
X90925026Y-138241413D01*
X90257796Y-137816309D01*
X89569218Y-137428839D01*
X88879160Y-137091568D01*
X88207486Y-136817063D01*
X88129200Y-136788985D01*
X87952906Y-136723152D01*
X87811014Y-136663619D01*
X87735667Y-136624138D01*
X87679475Y-136552814D01*
X87588992Y-136404652D01*
X87472272Y-136195168D01*
X87337367Y-135939877D01*
X87192333Y-135654296D01*
X87045222Y-135353941D01*
X86904089Y-135054329D01*
X86794037Y-134810000D01*
X86375804Y-133771304D01*
X86030715Y-132731009D01*
X85759703Y-131696990D01*
X85563699Y-130677119D01*
X85443639Y-129679272D01*
X85400453Y-128711322D01*
X85435076Y-127781144D01*
X85548440Y-126896610D01*
X85741479Y-126065597D01*
X85753211Y-126025687D01*
X85819902Y-125801174D01*
X93666357Y-133074534D01*
X101512813Y-140347893D01*
X101717107Y-140141047D01*
X101921400Y-139934201D01*
X101261000Y-139315565D01*
X101016031Y-139085280D01*
X100768112Y-138850809D01*
X100538651Y-138632495D01*
X100349055Y-138450681D01*
X100262099Y-138366364D01*
X99923597Y-138035800D01*
X99524936Y-137022659D01*
X98833108Y-137022659D01*
X98821727Y-137032558D01*
X98799476Y-137021409D01*
X98768439Y-136994842D01*
X98760272Y-136987138D01*
X98665343Y-136897841D01*
X98510048Y-136753061D01*
X98308759Y-136566137D01*
X98075848Y-136350412D01*
X97825686Y-136119225D01*
X97755800Y-136054732D01*
X96943000Y-135304896D01*
X96792625Y-134558719D01*
X96189812Y-134558719D01*
X96162009Y-134562114D01*
X96087947Y-134507024D01*
X95955344Y-134386929D01*
X95943395Y-134375771D01*
X95868389Y-134305965D01*
X95724322Y-134172187D01*
X95516669Y-133979511D01*
X95250903Y-133733013D01*
X94932496Y-133437766D01*
X94566922Y-133098845D01*
X94159656Y-132721323D01*
X93716169Y-132310274D01*
X93241936Y-131870774D01*
X92742431Y-131407895D01*
X92223125Y-130926713D01*
X91934815Y-130659587D01*
X88196629Y-127196156D01*
X88082299Y-126811036D01*
X87913412Y-126117524D01*
X87833067Y-125470249D01*
X87841380Y-124865415D01*
X87938466Y-124299226D01*
X88124442Y-123767886D01*
X88178622Y-123652600D01*
X88437514Y-123233335D01*
X88760158Y-122888658D01*
X89139925Y-122619883D01*
X89570186Y-122428323D01*
X90044313Y-122315293D01*
X90555675Y-122282105D01*
X91097645Y-122330075D01*
X91663592Y-122460516D01*
X92246889Y-122674742D01*
X92505549Y-122795002D01*
X92737420Y-122909196D01*
X92923988Y-123004868D01*
X93074419Y-123094070D01*
X93197878Y-123188853D01*
X93303533Y-123301270D01*
X93400548Y-123443371D01*
X93498090Y-123627209D01*
X93605325Y-123864835D01*
X93731418Y-124168301D01*
X93885535Y-124549659D01*
X93937024Y-124677146D01*
X94487048Y-126037166D01*
X95320265Y-130207683D01*
X95447903Y-130846249D01*
X95570289Y-131457951D01*
X95685898Y-132035205D01*
X95793206Y-132570426D01*
X95890688Y-133056032D01*
X95976821Y-133484436D01*
X96050080Y-133848057D01*
X96108941Y-134139308D01*
X96151880Y-134350606D01*
X96177371Y-134474368D01*
X96183636Y-134503362D01*
X96189812Y-134558719D01*
X96792625Y-134558719D01*
X96347980Y-132352348D01*
X96240676Y-131817823D01*
X96139948Y-131312037D01*
X96047522Y-130843928D01*
X95965125Y-130422434D01*
X95894483Y-130056492D01*
X95837322Y-129755040D01*
X95795369Y-129527015D01*
X95770350Y-129381355D01*
X95763780Y-129327724D01*
X95783829Y-129362627D01*
X95838780Y-129485157D01*
X95925862Y-129688584D01*
X96042304Y-129966177D01*
X96185334Y-130311207D01*
X96352183Y-130716942D01*
X96540078Y-131176652D01*
X96746250Y-131683607D01*
X96967926Y-132231076D01*
X97202336Y-132812330D01*
X97363272Y-133212677D01*
X97644876Y-133914318D01*
X97890603Y-134527348D01*
X98102537Y-135057396D01*
X98282763Y-135510092D01*
X98433363Y-135891068D01*
X98556422Y-136205954D01*
X98654024Y-136460379D01*
X98728252Y-136659974D01*
X98781191Y-136810369D01*
X98814924Y-136917195D01*
X98831535Y-136986081D01*
X98833108Y-137022659D01*
X99524936Y-137022659D01*
X97045137Y-130720600D01*
X96720203Y-129894934D01*
X96435307Y-129171200D01*
X95749200Y-129171200D01*
X95730614Y-129213014D01*
X95715334Y-129205066D01*
X95709254Y-129144778D01*
X95715334Y-129137333D01*
X95745534Y-129144306D01*
X95749200Y-129171200D01*
X96435307Y-129171200D01*
X96405000Y-129094210D01*
X96101573Y-128323611D01*
X95811966Y-127588320D01*
X95538223Y-126893518D01*
X95282387Y-126244389D01*
X95046503Y-125646116D01*
X94832615Y-125103881D01*
X94642768Y-124622867D01*
X94479004Y-124208257D01*
X94343369Y-123865234D01*
X94237907Y-123598980D01*
X94164660Y-123414678D01*
X94125674Y-123317511D01*
X94119948Y-123303800D01*
X94056179Y-123156614D01*
X93978252Y-122964209D01*
X93893861Y-122747257D01*
X93810699Y-122526435D01*
X93736456Y-122322414D01*
X93678826Y-122155870D01*
X93645501Y-122047478D01*
X93641082Y-122016785D01*
X93698972Y-122020277D01*
X93834422Y-122053362D01*
X94029722Y-122110328D01*
X94267160Y-122185462D01*
X94529028Y-122273054D01*
X94797616Y-122367392D01*
X95055214Y-122462764D01*
X95203987Y-122520849D01*
X96213842Y-122976770D01*
X97208629Y-123526973D01*
X98182538Y-124164564D01*
X99129756Y-124882649D01*
X100044473Y-125674332D01*
X100920877Y-126532718D01*
X101753157Y-127450913D01*
X102535501Y-128422023D01*
X103262098Y-129439152D01*
X103927136Y-130495405D01*
X104524805Y-131583889D01*
X105049292Y-132697707D01*
X105494787Y-133829965D01*
X105855478Y-134973769D01*
X105927220Y-135243157D01*
X106163548Y-136307361D01*
X106317792Y-137336980D01*
X106390282Y-138328333D01*
X106960538Y-138328333D01*
X106927180Y-137568431D01*
X106783148Y-136439483D01*
X106547554Y-135300394D01*
X106224045Y-134157818D01*
X105816267Y-133018406D01*
X105327870Y-131888812D01*
X104762498Y-130775689D01*
X104123802Y-129685688D01*
X103415427Y-128625464D01*
X102641021Y-127601668D01*
X101804232Y-126620954D01*
X100908706Y-125689974D01*
X99958093Y-124815381D01*
X98956038Y-124003827D01*
X98910453Y-123969392D01*
X98067854Y-123377982D01*
X97182605Y-122837749D01*
X96274154Y-122358778D01*
X95361947Y-121951155D01*
X94465433Y-121624963D01*
X94276731Y-121566477D01*
X93991893Y-121486783D01*
X93685929Y-121410778D01*
X93383618Y-121343699D01*
X93109737Y-121290780D01*
X92889065Y-121257256D01*
X92769174Y-121247934D01*
X92685863Y-121254654D01*
M02*
